<?xml version="1.0" encoding="UTF-8"?> <svg xmlns="http://www.w3.org/2000/svg" width="360" height="180" viewBox="0 0 360 180" fill="none"><path d="M38.9363 26.7465L28 37.6828L43.4395 53.1223L58.879 68.5618L43.4395 84.0013L28.1287 99.4408L33.1465 104.587L38.1643 109.734L33.1465 114.88L28.1287 120.027L49.6153 141.513L71.1019 163L76.2484 157.982L81.3949 152.964L86.2841 157.725C88.986 160.298 91.6879 162.485 92.2025 162.485C93.6178 162.485 134.146 121.828 134.146 120.413C134.146 119.898 132.088 117.453 129.643 114.88L125.011 110.12L129.643 105.359C132.088 102.657 134.146 100.213 134.146 99.6981C134.146 99.1834 122.953 87.7325 109.443 74.0943L84.6115 49.2624H103.396H122.052L127.07 54.4089C129.772 57.2395 132.603 59.5554 133.117 59.5554C133.632 59.5554 134.146 49.6484 134.146 37.6828V15.8102H91.9452H49.8726L38.9363 26.7465ZM105.197 32.5363L119.35 46.6892H100.694H82.0382L67.8853 32.5363L53.7325 18.3834H72.3885H91.0446L105.197 32.5363ZM116.648 33.6943C128.228 45.2739 131.702 49.5197 131.316 51.707C131.059 54.0229 127.971 51.5783 112.917 36.3962C97.6064 21.0853 95.4191 18.3834 98.121 18.3834C100.566 18.3834 105.197 22.2433 116.648 33.6943ZM125.655 29.4484C127.585 35.4955 129 40.642 128.743 40.8994C128.485 41.2853 123.082 36.2675 116.777 29.963L105.197 18.3834H113.689H122.052L125.655 29.4484ZM131.573 27.6471L131.445 37.0395L129.129 30.9923C124.754 19.9274 124.625 18.3834 128.357 18.3834C131.445 18.3834 131.573 18.6407 131.573 27.6471ZM70.4586 38.9694L89.758 58.2688L78.1783 69.8484C71.8739 76.1529 66.3414 81.428 65.8268 81.428C65.4408 81.428 64.4115 78.3401 63.5108 74.6089C62.0955 68.5618 60.6803 66.6318 46.9134 52.865L31.8599 37.6828L40.8662 28.6764C45.7554 23.7872 50.1299 19.67 50.5159 19.67C50.9019 19.67 59.9083 28.2904 70.4586 38.9694ZM91.5592 106.26C86.4127 126.589 81.9096 143.186 81.3949 143.186C81.0089 143.186 78.4357 134.308 75.7338 123.372L70.9733 103.687L81.5236 82.2L92.2025 60.842L96.5771 65.0879L100.823 69.4624L91.5592 106.26ZM78.0497 83.1006C73.9325 91.335 70.2013 97.7681 69.6866 97.3822C69.172 97.1248 68.4 94.1656 67.8853 90.949L66.9847 84.9019L75.7338 76.1529C80.4943 71.2637 84.7401 67.5325 84.8688 67.7898C85.1261 68.0471 82.0382 74.9949 78.0497 83.1006ZM61.9669 78.4688L63.5108 84.5159L51.9312 96.0955L40.2229 107.804L36.1057 103.558L31.8599 99.4408L45.3694 85.9312C52.8318 78.4688 59.265 72.4216 59.651 72.4216C60.1656 72.4216 61.1949 75.1236 61.9669 78.4688ZM117.034 85.5452C124.368 92.879 130.287 99.3121 130.287 99.9554C130.287 100.727 128.228 103.301 125.783 105.874L121.28 110.506L125.783 114.88C128.228 117.325 130.287 119.898 130.287 120.541C130.287 121.313 121.795 130.448 111.373 140.87L92.4599 159.912L87.6994 155.28L83.0675 150.777L92.8459 111.535C98.2497 90.0484 102.882 72.4216 103.268 72.4216C103.525 72.4216 109.829 78.3401 117.034 85.5452ZM66.5987 96.8675C68.1427 102.657 68.1427 102.786 59.265 120.541L50.2586 138.425L41.1236 129.29L31.8599 120.027L47.9427 103.944C57.0777 94.8089 64.2828 88.5045 64.5401 89.4051C64.7975 90.3057 65.8268 93.6509 66.5987 96.8675ZM74.9618 130.191L80.2369 151.163L76.2484 154.894C74.1898 156.953 72.0025 158.625 71.3592 158.625C70.8446 158.625 66.3414 154.508 61.4522 149.619L52.4459 140.613L60.5516 124.401C65.0548 115.395 68.9146 108.318 69.172 108.576C69.4293 108.962 72.0025 118.611 74.9618 130.191Z" fill="black"></path><path d="M80.6229 27.9045C80.2369 28.9338 80.1082 31.6357 80.3656 34.0803C80.7516 38.1975 81.0089 38.3262 86.9273 38.7122L92.9745 39.0981V32.665V26.1032H87.1847C83.3248 26.1032 81.1375 26.7466 80.6229 27.9045ZM90.4012 31.2497C90.4012 32.665 90.1439 33.823 90.0152 33.823C89.7579 33.823 88.4713 32.665 87.1847 31.2497C84.8688 28.8051 84.9974 28.6765 87.5707 28.6765C89.5006 28.6765 90.4012 29.4485 90.4012 31.2497ZM85.898 33.823C88.214 36.2676 88.0853 36.3962 85.5121 36.3962C83.5821 36.3962 82.6815 35.6243 82.6815 33.823C82.6815 32.4077 82.9388 31.2497 83.0675 31.2497C83.3248 31.2497 84.6114 32.4077 85.898 33.823Z" fill="black"></path><path d="M219.719 67.9867C218.398 67.7149 216.511 67.5791 215.261 67.5791C204.81 67.5791 197.191 74.485 197.191 84.5156C197.191 94.9538 205.211 100.728 215.945 100.728C220.002 100.728 224.815 99.9352 228.07 98.3728V56.9824H219.696V67.9867H219.719ZM219.719 93.5726C218.611 93.9802 216.936 94.116 215.804 94.116C209.812 94.116 205.683 90.5612 205.683 84.4024C205.683 77.904 209.929 74.168 215.733 74.168C217.408 74.168 218.446 74.3718 219.719 74.6435V93.5726Z" fill="black"></path><path d="M246.692 67.2754C237.104 67.2754 230.643 74.3637 230.643 83.9672C230.643 93.5707 237.104 100.728 246.692 100.728C256.279 100.728 262.809 93.5707 262.809 83.9672C262.809 74.3637 256.279 67.2754 246.692 67.2754ZM246.692 94.2338C241.587 94.2338 238.943 89.9122 238.943 83.9672C238.943 78.0908 241.587 73.7692 246.692 73.7692C251.796 73.7692 254.44 78.0908 254.44 83.9672C254.44 89.9122 251.796 94.2338 246.692 94.2338Z" fill="black"></path><path d="M296.261 56.9824H287.893V67.9867C286.573 67.7149 284.687 67.5791 283.438 67.5791C272.996 67.5791 265.382 74.485 265.382 84.5156C265.382 94.9538 273.397 100.728 284.122 100.728C288.176 100.728 292.985 99.9352 296.238 98.3728V56.9824H296.261ZM287.917 93.5726C286.809 93.9802 285.135 94.116 284.004 94.116C278.017 94.116 273.892 90.5612 273.892 84.4024C273.892 77.904 278.134 74.168 283.933 74.168C285.607 74.168 286.644 74.3718 287.917 74.6435V93.5726Z" fill="black"></path><path d="M314.883 67.2754C305.295 67.2754 298.834 74.3637 298.834 83.9672C298.834 93.5707 305.295 100.728 314.883 100.728C324.47 100.728 331 93.5707 331 83.9672C331 74.3637 324.447 67.2754 314.883 67.2754ZM314.883 94.2338C309.779 94.2338 307.134 89.9122 307.134 83.9672C307.134 78.0908 309.779 73.7692 314.883 73.7692C319.987 73.7692 322.631 78.0908 322.631 83.9672C322.631 89.9122 319.964 94.2338 314.883 94.2338Z" fill="black"></path><path d="M232.851 113.637C232.851 112.837 233.502 112.556 234.196 112.556C234.974 112.556 235.752 112.794 236.53 113.205V111.518C236.004 111.237 235.142 111.021 234.133 111.021C232.094 111.021 230.959 112.318 230.959 113.788C230.959 116.859 235.184 116.621 235.184 118.589C235.184 119.454 234.364 119.778 233.544 119.778C232.662 119.778 231.905 119.454 231.337 119.043L230.643 120.449C231.379 120.989 232.451 121.314 233.587 121.314C235.584 121.314 237.076 120.211 237.076 118.438C237.097 115.237 232.851 115.497 232.851 113.637Z" fill="black"></path><path d="M249.299 111.021C245.885 111.021 243.51 113.114 243.51 116.178C243.51 119.264 245.91 121.314 249.299 121.314C252.664 121.314 255.089 119.264 255.089 116.178C255.089 113.135 252.689 111.021 249.299 111.021ZM249.299 119.76C247.171 119.76 245.736 118.444 245.736 116.156C245.736 113.869 247.171 112.553 249.299 112.553C251.477 112.553 252.862 113.934 252.862 116.156C252.862 118.422 251.402 119.76 249.299 119.76Z" fill="black"></path><path d="M266.02 119.8C263.786 119.8 262.376 118.329 262.376 116.232C262.376 114.264 263.645 112.577 266.067 112.577C267.126 112.577 268.043 112.815 268.889 113.226V111.518C268.207 111.237 267.22 111.021 266.02 111.021C262.493 111.021 260.236 113.334 260.236 116.253C260.236 119.194 262.187 121.314 265.762 121.314C266.867 121.314 268.019 121.141 269.242 120.513L268.701 119.065C267.925 119.519 267.102 119.8 266.02 119.8Z" fill="black"></path><path d="M284.428 111.021H281.916L277.882 115.403H277.832V111.021H275.675V121.314H277.832V116.798H277.882L282.043 121.314H284.681L279.658 116.023L284.428 111.021Z" fill="black"></path><path d="M292.035 113.637C292.035 112.837 292.687 112.556 293.381 112.556C294.159 112.556 294.937 112.794 295.714 113.205V111.518C295.189 111.237 294.327 111.021 293.318 111.021C291.279 111.021 290.143 112.318 290.143 113.788C290.143 116.859 294.369 116.621 294.369 118.589C294.369 119.454 293.549 119.778 292.729 119.778C291.846 119.778 291.089 119.454 290.522 119.043L289.828 120.449C290.564 120.989 291.636 121.314 292.771 121.314C294.768 121.314 296.261 120.211 296.261 118.438C296.282 115.237 292.035 115.497 292.035 113.637Z" fill="black"></path><path d="M176.605 15.8098V162.485" stroke="black"></path></svg> 