<?xml version="1.0" encoding="UTF-8"?> <svg xmlns="http://www.w3.org/2000/svg" width="360" height="180" viewBox="0 0 360 180" fill="none"><path d="M37.6233 57.074V123.925C41.1176 124.259 43.4472 124.259 47.2715 124.259C70.2341 124.259 84.877 111.724 84.877 89.4953C84.877 67.9377 69.0694 56.5726 47.4407 56.5726C44.6119 56.5726 40.9512 56.5726 37.6233 57.074ZM11 32.0038H13.3295C19.4862 32.0038 40.1193 31.5023 47.7735 31.5023C94.3615 31.5023 113.164 58.411 113.164 89.4953C113.164 122.254 90.8672 149.33 46.4423 149.33C40.2857 149.33 24.9772 148.995 13.8287 148.995H11V32.0038Z" fill="black"></path><path d="M181.109 125.93C203.239 125.93 214.718 110.219 214.718 90.5C214.718 69.1067 199.908 55.0674 181.109 55.0674C161.807 55.0674 147.499 69.1067 147.499 90.5C147.499 110.553 162.472 125.93 181.109 125.93ZM181.109 30C216.548 30 243.005 53.2289 243.005 90.5C243.005 125.93 216.548 151 181.109 151C145.669 151 119.212 127.768 119.212 90.5C119.212 56.5716 144.002 30 181.109 30Z" fill="black"></path><path d="M348 100.694C348 136.458 325.373 150.998 300.414 150.998C270.462 150.998 249.666 133.784 249.666 99.5237V32.0041H276.289V93.8412C276.289 112.059 281.777 125.931 300.414 125.931C316.554 125.931 321.377 114.064 321.377 95.3454V32.0041H348V100.694Z" fill="black"></path></svg> 