<?xml version="1.0" encoding="UTF-8"?> <svg xmlns="http://www.w3.org/2000/svg" width="360" height="104" viewBox="0 0 360 104" fill="none"><path d="M335.455 5.59082L334.337 5.75855L333.387 6.094L332.268 6.54127L331.318 6.87673L330.367 7.49173L329.585 8.10673L328.802 8.88946L328.019 9.67219L327.404 10.4549L326.957 11.4054L326.51 12.3558L326.062 13.474L325.727 14.4245L325.559 15.5426V17.8908L325.727 19.009L326.062 20.1272L326.51 21.0777L326.957 22.0281L327.404 22.9786L328.019 23.7613L328.802 24.544L329.585 25.3267L330.367 25.9417L331.318 26.5567L332.268 27.004L333.387 27.3395L334.337 27.6749L335.455 27.8426H337.803L338.922 27.6749L339.872 27.3395L340.99 27.004L341.941 26.5567L342.891 25.9417L343.674 25.3267L344.457 24.7118L345.239 23.929L345.854 23.1463L346.302 22.1958L346.749 21.2454L347.196 20.2949L347.364 19.1767L347.699 18.0586V15.3749L347.364 14.2567L347.196 13.3063L346.749 12.244L346.302 11.2936L345.854 10.3431L345.239 9.56037L344.457 8.77764L343.674 8.16264L342.891 7.54764L341.941 6.93264L340.99 6.48537L339.872 6.14991L338.922 5.81445L337.803 5.64673H335.455V5.59082ZM335.008 24.9913L333.275 24.544L331.877 23.7613L330.647 22.6431L329.529 21.4131L328.746 20.0154L328.299 18.2822L328.131 16.549L328.299 14.8158L328.746 13.2504L329.529 11.8526L330.647 10.6226L331.933 9.50446L333.331 8.72174L335.064 8.27446L336.797 8.10673L338.53 8.27446L340.096 8.72174L341.493 9.50446L342.723 10.6226L343.842 11.8526L344.624 13.2504L345.072 14.9836L345.239 16.7167L345.072 18.4499L344.624 20.0154L343.842 21.4131L342.723 22.6431L341.437 23.7613L340.04 24.544L338.474 24.9913L336.741 25.159L335.008 24.9913ZM193.614 5.59082V97.6732H209.604V69.0477H215.865L236.887 97.6732H256.455L227.495 61.5559L252.877 27.7868H234.092L214.356 53.2813H209.604V5.59082H193.614ZM88.4484 97.6732H104.774V5.59082H88.4484V97.6732ZM331.877 10.7345V22.5872H334.393V17.7231H336.741L339.425 22.5872H342.22L339.257 17.6113L340.04 17.4436L340.655 17.2758L341.27 17.1081L341.717 16.7726L342.052 16.3254L342.388 15.7104L342.556 15.0954V14.3126L342.388 13.2504L342.22 12.4676L341.773 11.8526L341.326 11.4054L340.543 11.0699L339.76 10.9022L337.859 10.7345H331.877ZM334.393 12.6354H337.356L338.474 12.8031L339.257 12.9708L339.592 13.1386L339.928 13.474L340.096 13.8095V14.1449L339.928 15.0954L339.76 15.4308L339.592 15.7663L338.81 15.934L338.027 16.1017H334.393V12.6354ZM286.255 27.9545H283.124L280.161 28.2899L277.366 28.6254L274.682 29.0727L272.166 29.6877L269.985 30.4704L267.973 31.5327L266.072 32.6508L264.339 34.0486L262.941 35.7818L261.823 37.6827L260.872 39.6954L260.257 42.2113L259.81 44.8949V50.7095L260.257 53.3931L260.705 55.5736L261.655 57.5863L262.605 59.4872L264.003 61.0527L265.401 62.4504L267.134 63.6804L269.147 64.6309L271.16 65.5813L273.675 66.3641L276.191 66.979L278.987 67.4263L281.95 67.8736L285.081 68.209L288.547 68.5445L293.244 68.88L297.157 69.3272L300.288 69.9422L301.574 70.3895L302.692 70.8368L303.643 71.4518L304.426 72.0668L305.041 72.6818L305.488 73.4645L305.823 74.2472L306.159 75.1977L306.326 76.1482V78.4963L306.159 79.6145L305.991 80.565L305.656 81.5154L305.208 82.4659L304.593 83.2486L303.978 83.8636L303.363 84.4786L302.413 85.0936L301.462 85.5409L300.344 85.8763L299.226 86.2118L296.431 86.5472L293.132 86.715H285.137L282.621 86.2677L281.671 85.9323L280.552 85.5968L279.77 85.1495L278.987 84.5345L278.372 83.9195L277.925 83.1368L277.477 82.1863L277.03 81.0681L276.862 79.95L276.527 78.72L276.359 75.5891H259.754V80.9004L259.922 82.4659L260.09 84.0313L260.537 85.2613L260.872 86.6591L261.487 87.7772L262.102 88.8954L262.717 90.0136L263.5 90.9641L264.283 91.9145L265.065 92.6972L266.016 93.3122L268.196 94.5423L270.377 95.6604L272.893 96.4432L275.409 97.0582L278.092 97.3936L280.776 97.7291L283.571 97.8968L286.367 98.0645H294.977L298.108 97.8968L301.071 97.7291L304.034 97.2818L306.718 96.8345L309.234 96.2195L311.414 95.2691L313.595 94.1509L315.496 92.9209L317.229 91.3554L318.794 89.4545L319.912 87.4418L321.031 84.9259L321.646 82.2422L322.093 79.1113L322.261 75.7009L322.093 73.185L321.646 70.8368L321.031 68.6563L320.08 66.7554L318.962 65.0222L317.564 63.4568L315.999 62.2268L314.266 60.9968L312.365 60.0463L310.184 59.0959L308.004 58.4809L305.488 57.8659L302.972 57.4186L300.288 56.9713L294.809 56.524L289.33 56.0768L284.913 55.6295L281.615 55.0145L280.329 54.5672L279.378 54.2318L278.428 53.7845L277.813 53.1695L277.198 52.7222L276.862 51.9395L276.527 51.3245L276.359 50.374L276.191 48.4731L276.359 46.1249L276.527 45.0068L276.695 44.0563L277.03 43.2736L277.366 42.4908L277.98 41.8758L278.595 41.2608L279.378 40.8136L280.161 40.4781L281.279 40.1427L282.565 39.8072L285.696 39.4718L289.61 39.304L293.691 39.4718L296.822 39.8072L298.052 40.1427L299.338 40.4781L300.288 40.9254L301.239 41.3727L302.021 41.8199L302.636 42.4349L303.084 43.0499L303.419 43.8327L303.755 44.7831L303.922 45.7336L304.09 47.914H319.745L320.08 44.9508L319.912 43.5531L319.745 42.1554L319.577 40.7577L319.241 39.5277L318.794 38.4095L318.347 37.2913L317.732 36.3408L317.117 35.3904L316.334 34.6077L315.551 33.8249L313.651 32.4272L311.638 31.309L309.457 30.3586L307.109 29.5758L304.761 29.1286L302.245 28.6813L299.561 28.5136L294.53 28.1781L289.498 28.0104C289.554 27.7867 286.255 27.9545 286.255 27.9545ZM145.196 27.9545L141.45 28.2899L137.816 28.9049L134.685 29.6877L131.89 30.8058L130.492 31.4208L129.262 32.2036L128.032 32.9863L126.914 33.769L125.963 34.7195L125.013 35.6699L124.063 36.7881L123.112 38.0181L122.497 39.2481L121.714 40.4781L120.428 43.2736L119.478 46.5722L118.695 50.1504L118.248 54.064L117.912 58.3131L117.745 63.0095L117.912 67.7059L118.248 71.955L118.695 76.0363L119.478 79.4468L120.428 82.7454L121.547 85.5409L122.329 86.7709L123.112 88.0009L123.895 89.1191L124.845 90.2372L125.796 91.2995L126.746 92.0823L127.864 93.0327L129.094 93.8154L130.324 94.4304L131.554 95.0454L134.518 96.1077L137.648 96.8904L141.227 97.5054L144.973 97.8409H152.8L156.098 97.6732L159.229 97.5054L162.193 97.17L165.044 96.7227L167.728 95.94L170.244 95.1573L172.424 94.2068L174.437 92.9768L176.17 91.5791L177.735 90.0136L178.965 88.1127L179.916 85.9323L180.699 83.4163L181.146 80.7886L181.314 77.6577V75.1418H164.82V77.9372L164.653 79.1672L164.317 80.3972L163.87 81.3477L163.423 82.2982L162.808 82.9131L162.025 83.6959L161.074 84.1432L160.124 84.5904L158.838 85.0377L157.608 85.3732L156.21 85.7086L153.079 85.8763L149.333 86.0441H147.321L145.42 85.8763L143.687 85.5409L142.121 85.2054L140.723 84.5904L139.493 83.9754L138.599 83.3045L137.648 82.1863L136.866 80.9563L136.251 79.5586L135.636 77.8254L135.188 75.9245L134.853 73.9118L134.685 71.3959L134.518 68.7122V65.7491H181.369V61.2204L181.202 56.9713L180.866 53.0577L180.419 49.3118L179.636 46.0131L178.686 43.0499L177.4 40.2545L175.834 37.9063L175.052 36.6763L174.101 35.7258L173.151 34.6077L172.033 33.8249L170.914 32.8745L169.684 32.0917L167.168 30.8618L164.205 29.7436L161.074 28.7931L157.44 28.1781L153.527 27.8426L149.278 27.6749L145.196 27.9545ZM134.518 53.6168L134.685 51.604L135.021 49.7031L135.356 48.1377L135.803 46.5722L136.251 45.3422L137.033 44.224L137.816 43.1059L138.767 42.3231L139.885 41.5404L141.115 40.9254L142.401 40.4781L143.966 40.1427L145.699 39.8072L147.6 39.6395H151.682L153.583 39.8072L155.316 40.1427L156.881 40.4781L158.279 40.9254L159.509 41.5404L160.627 42.3231L161.745 43.1059L162.528 44.224L163.311 45.3422L163.758 46.5722L164.205 48.1377L164.653 49.7031L164.82 51.604L164.988 53.6168V55.6295H134.573L134.518 53.6168ZM39.6956 27.9545L35.9496 28.2899L32.3155 28.9049L29.1846 29.6877L26.2214 30.8058L24.9914 31.4208L23.7614 32.2036L22.4755 32.9863L21.4132 33.769L20.2951 34.7195L19.3446 35.6699L18.3941 36.7881L17.6114 38.0181L16.8287 39.2481L16.2137 40.4781L14.9837 43.2736L14.0332 46.5722L13.2505 50.1504L12.8032 54.064L12.4678 58.3131L12.3 63.0095L12.4678 67.7059L12.6355 71.955L13.2505 76.0363L13.8655 79.4468L14.816 82.7454L16.1019 85.5409L16.7169 86.7709L17.4996 88.0009L18.4501 89.1191L19.2328 90.2372L20.1832 91.2995L21.3014 92.0823L22.4196 93.0327L23.5378 93.8154L24.8237 94.4304L26.2214 95.0454L29.0169 96.1077L32.3155 96.8904L35.7819 97.5054L39.6956 97.8409H47.3551L50.6537 97.6732L53.9524 97.5054L56.9156 97.17L59.711 96.7227L62.3947 95.94L64.7429 95.1573L66.9233 94.2068L68.9361 92.9768L70.837 91.5791L72.2347 90.0136L73.5206 88.1127L74.6388 85.9323L75.2538 83.4163L75.7011 80.7886L75.8688 77.6577V75.1418H59.5433V77.9372L59.3756 79.1672L59.0401 80.3972L58.5929 81.3477L58.1456 82.2982L57.3629 82.9131L56.5801 83.6959L55.7974 84.1432L54.6792 84.5904L53.561 85.0377L52.2751 85.3732L50.8774 85.7086L47.5787 85.8763L43.9446 86.0441H41.876L39.8633 85.8763L38.1301 85.5409L36.7324 85.2054L35.3346 84.5904L34.1046 83.9754L32.9864 83.1927L32.036 82.0745L31.2533 80.8445L30.6383 79.4468L30.191 77.7136L29.7437 75.8127L29.4083 73.8L29.2405 71.2841L29.0169 68.7681V65.805H75.757V57.0272L75.4215 53.1136L74.8065 49.3677L74.1915 46.069L73.0733 43.1059L71.7874 40.3104L70.3897 37.9622L69.607 36.7322L68.6565 35.7818L67.7061 34.6636L66.5879 33.8808L65.4697 32.9304L64.2397 32.1477L61.7238 30.9177L58.7606 29.7995L55.4619 28.849L51.9956 28.234L48.0819 27.8986L43.8328 27.7308C43.8887 27.7867 39.6956 27.9545 39.6956 27.9545ZM29.0169 53.6168L29.1846 51.604L29.3523 49.7031L29.7996 48.1377L30.1351 46.5722L30.7501 45.3422L31.3651 44.224L32.1478 43.1059L33.0983 42.3231L34.2164 41.5404L35.4465 40.9254L36.8442 40.4781L38.4096 40.1427L40.1428 39.8072L42.0437 39.6395H46.1251L48.026 39.8072L49.7592 40.1427L51.3247 40.4781L52.7224 40.9254L53.9524 41.5404L55.0706 42.3231L56.021 43.1059L56.9715 44.224L57.5865 45.3422L58.2015 46.5722L58.6488 48.1377L58.9842 49.7031L59.3197 51.604L59.4874 53.6168V55.6295H29.0169V53.6168Z" fill="#0E549D"></path></svg> 