<?xml version="1.0" encoding="UTF-8"?> <svg xmlns="http://www.w3.org/2000/svg" width="349" height="147" viewBox="0 0 349 147" fill="none"><path d="M89.6684 128.505C85.119 125.165 78.6967 126.11 75.3242 130.616C71.952 135.123 72.906 141.484 77.4554 144.824C82.005 148.165 88.427 147.22 91.7998 142.714C95.172 138.207 94.2177 131.846 89.6684 128.505Z" fill="#7B13FF"></path><path d="M72.0082 107.482C62.4691 100.478 49.0036 102.46 41.932 111.909C34.8605 121.358 36.8613 134.696 46.4007 141.7C55.9401 148.705 69.4056 146.723 76.4768 137.274C83.5483 127.825 81.5475 114.487 72.0082 107.482Z" fill="#FFBC0F"></path><path d="M13.0784 98.7153C27.3082 109.164 47.3947 106.208 57.9437 92.1128C68.492 78.0179 65.5077 58.1211 51.2778 47.6723C37.0478 37.2239 16.9612 40.18 6.41273 54.2752C-4.13574 68.3703 -1.15143 88.2669 13.0784 98.7153Z" fill="#FE803C"></path><path d="M37.1468 49.1699C46.7812 56.244 60.3811 54.2427 67.5231 44.6992C74.665 35.1559 72.6444 21.6848 63.01 14.6105C53.3754 7.53612 39.7755 9.53755 32.6338 19.0808C25.4915 28.624 27.5122 42.0956 37.1468 49.1699Z" fill="#EA4B48"></path><path d="M77.0612 18.8744C81.6102 22.2147 88.0316 21.2697 91.4041 16.7636C94.7763 12.2576 93.8223 5.8968 89.2733 2.55649C84.7239 -0.783803 78.3026 0.161233 74.9304 4.66728C71.5579 9.17335 72.5122 15.5341 77.0612 18.8744Z" fill="#86B982"></path><path d="M135.715 72.4058V75.3738C135.715 81.3099 133.753 86.1741 129.83 89.9668C125.907 93.7179 120.787 95.5934 114.469 95.5934C107.779 95.5934 102.245 93.4294 97.8683 89.1009C93.5321 84.7726 91.3641 79.4548 91.3641 73.1478C91.3641 66.882 93.5321 61.5847 97.8683 57.2564C102.245 52.887 107.655 50.7019 114.097 50.7019C118.144 50.7019 121.84 51.6295 125.185 53.4846C128.529 55.3397 131.131 57.8336 132.989 60.9666L126.857 64.491C125.701 62.4298 123.987 60.7811 121.716 59.5443C119.445 58.2664 116.905 57.6276 114.097 57.6276C109.555 57.6276 105.817 59.1115 102.885 62.0795C99.9535 65.0477 98.4874 68.7576 98.4874 73.2095C98.4874 77.6617 99.9535 81.3511 102.885 84.2778C105.859 87.2046 109.74 88.6681 114.53 88.6681C118.371 88.6681 121.489 87.7817 123.884 86.0093C126.32 84.1954 127.869 81.7839 128.529 78.7748H114.035V72.4058H135.715Z" fill="black"></path><path d="M152.447 87.9881H171.649V94.7898H145.324V51.5058H171.34V58.3076H152.447V69.5615H169.791V76.3013H152.447V87.9881Z" fill="black"></path><path d="M207.283 51.5058H214.406V94.7898H208.831L188.391 65.4185V94.7898H181.267V51.5058H186.842L207.283 80.8771V51.5058Z" fill="black"></path><path d="M233.286 87.9881H252.488V94.7898H226.163V51.5058H252.179V58.3076H233.286V69.5615H250.63V76.3013H233.286V87.9881Z" fill="black"></path><path d="M276.539 95.5934C272.368 95.5934 268.816 94.6454 265.885 92.7491C262.994 90.8528 260.971 88.256 259.814 84.9582L265.947 81.3716C267.681 86.2361 271.273 88.6681 276.724 88.6681C279.409 88.6681 281.411 88.1529 282.733 87.1221C284.096 86.0505 284.777 84.6694 284.777 82.9794C284.777 81.2067 284.054 79.8672 282.609 78.9601C281.164 78.0121 278.603 76.9813 274.928 75.8685C272.863 75.2502 271.191 74.673 269.911 74.137C268.631 73.6014 267.268 72.8591 265.823 71.9111C264.419 70.9219 263.366 69.7056 262.664 68.2628C261.962 66.8201 261.611 65.1301 261.611 63.1926C261.611 59.3588 262.973 56.3289 265.699 54.1029C268.424 51.8358 271.707 50.7019 275.548 50.7019C279.016 50.7019 282.051 51.5471 284.653 53.2373C287.255 54.9273 289.257 57.2564 290.661 60.2243L284.653 63.6873C282.836 59.6475 279.801 57.6276 275.548 57.6276C273.483 57.6276 271.831 58.122 270.592 59.1115C269.353 60.0595 268.734 61.3582 268.734 63.007C268.734 64.6146 269.353 65.8925 270.592 66.8408C271.872 67.7476 274.164 68.7164 277.468 69.7468C279.12 70.2827 280.317 70.6951 281.06 70.9835C281.845 71.2311 282.919 71.6431 284.281 72.2203C285.685 72.7974 286.739 73.3746 287.441 73.9518C288.143 74.5286 288.886 75.2502 289.67 76.1157C290.496 76.9813 291.074 77.9709 291.405 79.084C291.735 80.1968 291.9 81.4543 291.9 82.8558C291.9 86.7718 290.476 89.8841 287.626 92.1927C284.818 94.4599 281.122 95.5934 276.539 95.5934Z" fill="black"></path><path d="M300.832 51.5058H307.956V94.7898H300.832V51.5058Z" fill="black"></path><path d="M333.544 95.5934C329.373 95.5934 325.823 94.6454 322.89 92.7491C320.001 90.8528 317.977 88.256 316.82 84.9582L322.952 81.3716C324.687 86.2361 328.281 88.6681 333.73 88.6681C336.415 88.6681 338.417 88.1529 339.739 87.1221C341.101 86.0505 341.784 84.6694 341.784 82.9794C341.784 81.2067 341.061 79.8672 339.615 78.9601C338.168 78.0121 335.608 76.9813 331.933 75.8685C329.87 75.2502 328.197 74.673 326.918 74.137C325.637 73.6014 324.274 72.8591 322.828 71.9111C321.425 70.9219 320.373 69.7056 319.669 68.2628C318.967 66.8201 318.617 65.1301 318.617 63.1926C318.617 59.3588 319.979 56.3289 322.704 54.1029C325.432 51.8358 328.712 50.7019 332.554 50.7019C336.024 50.7019 339.056 51.5471 341.66 53.2373C344.26 54.9273 346.262 57.2564 347.668 60.2243L341.66 63.6873C339.841 59.6475 336.806 57.6276 332.554 57.6276C330.487 57.6276 328.836 58.122 327.598 59.1115C326.36 60.0595 325.739 61.3582 325.739 63.007C325.739 64.6146 326.36 65.8925 327.598 66.8408C328.88 67.7476 331.17 68.7164 334.475 69.7468C336.126 70.2827 337.324 70.6951 338.066 70.9835C338.851 71.2311 339.925 71.6431 341.287 72.2203C342.69 72.7974 343.745 73.3746 344.447 73.9518C345.148 74.5286 345.893 75.2502 346.675 76.1157C347.503 76.9813 348.081 77.9709 348.41 79.084C348.742 80.1968 348.906 81.4543 348.906 82.8558C348.906 86.7718 347.482 89.8841 344.633 92.1927C341.824 94.4599 338.128 95.5934 333.544 95.5934Z" fill="black"></path></svg> 