<?xml version="1.0" encoding="UTF-8"?> <svg xmlns="http://www.w3.org/2000/svg" width="360" height="75" viewBox="0 0 360 75" fill="none"><path d="M25.2041 34.7663H40.787C38.7211 41.8494 32.1692 47.2208 24.3777 47.2208C15.0516 47.2208 7.26019 39.6064 7.26019 30.1033C7.26019 20.7771 14.8745 12.9857 24.3777 12.9857C31.4609 12.9857 37.5405 17.2946 40.1377 23.5514H44.8007C42.0265 14.9336 33.8809 8.6768 24.3777 8.6768C12.6316 8.6768 2.95129 18.3571 2.95129 30.1033C2.95129 41.8494 12.6316 51.5297 24.3777 51.5297C31.1067 51.5297 37.3635 48.0472 40.964 43.207V50.6443H44.9188V30.3984H25.2041V34.7663ZM52.179 10.0344H56.4879V50.5262H52.179V10.0344ZM178.259 10.0344H182.567V50.5262H178.259V10.0344ZM78.7997 47.752C72.2478 47.752 66.8765 42.0265 66.8765 35.6517C66.8765 29.0998 72.2478 23.5514 78.7997 23.5514C85.3516 23.5514 90.723 29.0998 90.723 35.6517C90.5459 42.0265 85.2336 47.752 78.7997 47.752ZM78.7997 19.1834C69.8278 19.1834 62.5676 26.4436 62.5676 35.4156C62.5676 44.3876 69.8278 51.6478 78.7997 51.6478C87.7717 51.6478 95.0319 44.3876 95.0319 35.4156C94.9138 26.4436 87.6536 19.1834 78.7997 19.1834ZM116.163 47.752C109.611 47.752 104.24 42.0265 104.24 35.6517C104.24 29.0998 109.611 23.5514 116.163 23.5514C122.715 23.5514 128.086 29.0998 128.086 35.6517C127.909 42.0265 122.715 47.752 116.163 47.752ZM116.34 19.0064C111.5 19.0064 107.191 21.0723 104.24 24.5548V10.0344H99.931V50.5262H104.24V46.5125C107.191 49.8179 111.5 51.8839 116.34 51.8839C125.312 51.8839 132.572 44.4466 132.572 35.4746C132.572 26.2666 125.312 19.0064 116.34 19.0064ZM154.53 47.752C147.978 47.752 142.607 42.0265 142.607 35.6517C142.607 29.0998 147.978 23.5514 154.53 23.5514C161.082 23.5514 166.453 29.0998 166.453 35.6517C166.453 42.0265 161.141 47.752 154.53 47.752ZM166.453 24.5548C163.502 21.0723 159.016 19.0064 154.176 19.0064C145.027 19.0064 137.767 26.4436 137.767 35.4156C137.767 44.5646 145.204 51.8248 154.176 51.8248C159.016 51.8248 163.502 49.7589 166.453 46.2764V50.4082H170.762V20.8362H166.453V24.5548ZM294.953 5.90259H302.567V12.9857H294.953V5.90259ZM197.796 10.0344H190.89V44.0924V50.4672H213.556V44.0924H197.796V10.0344ZM294.953 18.7112H302.567V50.5262H294.953V18.7112ZM232.858 44.9778C227.84 44.9778 223.709 40.6689 223.709 35.1205C223.709 29.7491 227.84 25.2631 232.858 25.2631C237.875 25.2631 242.007 29.572 242.007 35.1205C242.066 40.6689 237.875 44.9778 232.858 44.9778ZM232.858 18.5342C223.709 18.5342 216.271 25.9714 216.271 35.1205C216.271 44.2695 223.709 51.7068 232.858 51.7068C242.007 51.7068 249.444 44.2695 249.444 35.1205C249.444 25.9714 242.066 18.5342 232.858 18.5342ZM334.028 39.6064C332.494 42.9119 329.365 44.9778 325.883 44.9778C320.865 44.9778 316.734 40.4918 316.734 35.1205C316.734 29.2179 320.865 25.2631 325.883 25.2631C329.365 25.2631 332.257 27.329 333.851 30.2803H341.82C339.754 23.5514 333.32 18.5342 325.883 18.5342C316.734 18.5342 309.296 25.9714 309.296 35.1205C309.296 44.2695 316.734 51.7068 325.883 51.7068C333.497 51.7068 340.049 46.5125 341.938 39.4294H333.969L334.028 39.6064ZM269.749 61.5641C266.266 61.5641 263.197 59.8524 261.131 57.0781L254.402 60.3836C257.53 65.4008 262.902 68.7063 269.808 68.7063C278.603 68.7063 285.863 61.6232 286.571 53.1234H279.134C278.367 57.9635 274.589 61.5641 269.749 61.5641ZM270.044 45.1549C265.027 45.1549 260.895 40.846 260.895 35.2975C260.895 29.9262 265.027 25.4402 270.044 25.4402C275.061 25.4402 279.193 29.7491 279.193 35.2975C279.252 40.846 275.238 45.1549 270.044 45.1549ZM279.901 21.9577C277.127 20.0688 273.822 18.8293 270.221 18.8293C261.072 18.8293 253.635 26.2666 253.635 35.4156C253.635 44.5646 261.072 52.0019 270.221 52.0019C279.37 52.0019 286.807 44.5646 286.807 35.5927V18.6522H279.901V21.9577ZM348.076 13.1628C348.076 10.3886 349.965 8.6768 352.562 8.6768C355.159 8.6768 357.048 10.5656 357.048 13.1628C357.048 15.7599 355.159 17.6488 352.562 17.6488C349.965 17.6488 348.076 15.7599 348.076 13.1628ZM356.34 13.1628C356.34 10.7427 354.805 9.20803 352.562 9.20803C350.496 9.20803 348.785 10.7427 348.785 13.1628C348.785 15.5828 350.319 17.1175 352.562 17.1175C354.628 16.9405 356.34 15.4058 356.34 13.1628ZM350.674 10.7427H352.739C353.625 10.7427 354.274 11.274 354.274 12.1003C354.274 12.6316 353.92 13.1628 353.389 13.1628C353.92 13.3399 354.097 13.5169 354.097 14.2252C354.097 14.9336 354.097 15.2877 354.274 15.4648H353.389C353.212 15.4648 353.212 14.9336 353.212 14.4023C353.212 13.8711 352.857 13.5169 352.326 13.5169H351.441V15.4058H350.555V10.7427H350.674ZM351.854 12.8086H352.917C353.448 12.8086 353.802 12.4545 353.802 12.1003C353.802 11.7462 353.625 11.392 353.094 11.392H352.031V12.7496H351.854V12.8086Z" fill="black"></path></svg> 