<?xml version="1.0" encoding="UTF-8"?> <svg xmlns="http://www.w3.org/2000/svg" width="360" height="84" viewBox="0 0 360 84" fill="none"><path d="M45.1128 83.0769C68.0347 83.0769 86.6165 64.4795 86.6165 41.5385C86.6165 18.5974 68.0347 0 45.1128 0C22.1909 0 3.60902 18.5974 3.60902 41.5385C3.60902 64.4795 22.1909 83.0769 45.1128 83.0769Z" fill="#2BB673"></path><path d="M53.3233 47.1373C51.609 47.1373 50.2556 48.6724 50.5263 50.4784C50.797 51.8329 52.0602 52.736 53.4135 52.736H57.7444L60.2707 52.3747C56.2105 58.3346 49.2632 61.0436 41.594 59.7794C35.3684 58.7861 30.0451 54.542 27.7895 48.6724C22.6466 35.3079 32.391 22.4851 45.1128 22.4851C51.6992 22.4851 57.5639 26.3681 60.9023 31.0637V31.154C61.8045 32.4182 63.5188 32.7794 64.782 31.8764C65.9549 31.0637 66.3158 29.4383 65.594 28.1741C60.9925 20.95 52.6917 16.3446 43.3985 16.9768C31.3083 17.9701 21.4737 27.9032 20.7519 40.0938C19.9398 54.2711 31.1278 65.7393 45.1128 65.7393C52.4211 65.7393 59.0075 62.5788 63.4286 57.3413L62.8872 60.3212V63.0303C62.8872 64.3848 63.7895 65.649 65.1429 65.9199C66.9474 66.2811 68.4812 64.8363 68.4812 63.1206V47.1373H53.3233Z" fill="white"></path><path d="M110.797 62.0819C109.534 61.5401 108.632 60.5468 108.632 59.102C108.632 57.3862 110.075 56.0317 111.699 56.0317C112.241 56.0317 112.601 56.122 112.962 56.3026C115.128 57.2959 117.474 57.928 120.361 57.928C125.594 57.928 128.03 55.3996 128.03 50.6137V49.3494C125.774 52.0585 123.338 53.6839 119.278 53.6839C113.053 53.6839 107.368 49.1688 107.368 41.2224V41.132C107.368 33.0953 113.143 28.6705 119.278 28.6705C123.429 28.6705 125.865 30.3862 127.94 32.6438V32.4632C127.94 30.3862 129.654 28.6705 131.729 28.6705C133.805 28.6705 135.519 30.3862 135.519 32.4632V49.7106C135.519 54.4966 134.346 58.0183 132.09 60.2759C129.564 62.8043 125.774 63.8879 120.541 63.8879C117.023 63.9782 113.955 63.3461 110.797 62.0819V62.0819ZM128.03 41.132V41.0417C128.03 37.4297 125.143 34.811 121.444 34.811C117.744 34.811 114.947 37.3394 114.947 41.0417V41.132C114.947 44.8344 117.744 47.3628 121.444 47.3628C125.143 47.3628 128.03 44.7441 128.03 41.132ZM139.759 32.5535C139.759 30.4765 141.474 28.7608 143.549 28.7608C145.624 28.7608 147.338 30.4765 147.338 32.5535V33.7274C148.421 31.1086 150.226 28.7608 152.481 28.7608C154.827 28.7608 156.18 30.2959 156.18 32.4632C156.18 34.4498 154.917 35.6237 153.293 35.9849C149.414 36.8879 147.338 39.8678 147.338 45.1956V52.3294C147.338 54.4063 145.624 56.122 143.549 56.122C141.474 56.122 139.759 54.4063 139.759 52.3294V32.5535V32.5535ZM155.368 48.0852V47.9949C155.368 42.1254 159.789 39.4163 166.195 39.4163C168.902 39.4163 170.887 39.8678 172.782 40.4999V40.0484C172.782 36.8879 170.797 35.1722 167.008 35.1722C164.932 35.1722 163.218 35.4431 161.774 35.8946C161.323 36.0752 161.053 36.0752 160.692 36.0752C158.977 36.0752 157.534 34.7207 157.534 33.005C157.534 31.6504 158.346 30.4765 159.609 30.025C162.045 29.122 164.571 28.5802 168.18 28.5802C172.331 28.5802 175.308 29.6638 177.203 31.5601C179.188 33.5468 180.09 36.5267 180.09 40.1387V52.3294C180.09 54.4063 178.466 55.9414 176.391 55.9414C174.226 55.9414 172.782 54.4063 172.782 52.7809V52.6906C170.977 54.7675 168.361 56.122 164.662 56.122C159.519 56.3026 155.368 53.413 155.368 48.0852ZM172.782 46.3695V45.015C171.519 44.3829 169.804 44.0217 167.91 44.0217C164.662 44.0217 162.677 45.2859 162.677 47.724V47.8143C162.677 49.8912 164.391 51.0652 166.827 51.0652C170.346 51.0652 172.782 49.1688 172.782 46.3695V46.3695ZM184.06 32.5535C184.06 30.4765 185.774 28.7608 187.85 28.7608C189.925 28.7608 191.639 30.4765 191.639 32.5535V32.8244C193.353 30.5668 195.699 28.4899 199.579 28.4899C203.098 28.4899 205.714 30.025 207.158 32.7341C209.504 30.025 212.301 28.4899 215.91 28.4899C221.594 28.4899 224.932 31.9213 224.932 38.3327V52.3294C224.932 54.4063 223.218 56.122 221.143 56.122C219.068 56.122 217.353 54.4063 217.353 52.3294V40.8611C217.353 37.2491 215.729 35.4431 212.932 35.4431C210.045 35.4431 208.331 37.3394 208.331 40.8611V52.3294C208.331 54.4063 206.617 56.122 204.541 56.122C202.466 56.122 200.752 54.4063 200.752 52.3294V40.8611C200.752 37.2491 199.128 35.4431 196.331 35.4431C193.444 35.4431 191.729 37.3394 191.729 40.8611V52.3294C191.729 54.4063 190.015 56.122 187.94 56.122C185.865 56.122 184.15 54.4063 184.15 52.3294V32.5535H184.06ZM228.992 32.5535C228.992 30.4765 230.707 28.7608 232.782 28.7608C234.857 28.7608 236.571 30.4765 236.571 32.5535V32.8244C238.286 30.5668 240.632 28.4899 244.511 28.4899C248.03 28.4899 250.647 30.025 252.09 32.7341C254.436 30.025 257.233 28.4899 260.842 28.4899C266.526 28.4899 269.865 31.9213 269.865 38.3327V52.3294C269.865 54.4063 268.15 56.122 266.075 56.122C264 56.122 262.286 54.4063 262.286 52.3294V40.8611C262.286 37.2491 260.662 35.4431 257.865 35.4431C254.977 35.4431 253.263 37.3394 253.263 40.8611V52.3294C253.263 54.4063 251.549 56.122 249.474 56.122C247.398 56.122 245.684 54.4063 245.684 52.3294V40.8611C245.684 37.2491 244.06 35.4431 241.263 35.4431C238.376 35.4431 236.662 37.3394 236.662 40.8611V52.3294C236.662 54.4063 234.947 56.122 232.872 56.122C230.797 56.122 229.083 54.4063 229.083 52.3294V32.5535H228.992ZM272.391 48.0852V47.9949C272.391 42.1254 276.812 39.4163 283.218 39.4163C285.925 39.4163 287.91 39.8678 289.805 40.4999V40.0484C289.805 36.8879 287.82 35.1722 284.03 35.1722C281.955 35.1722 280.241 35.4431 278.797 35.8946C278.346 36.0752 278.075 36.0752 277.714 36.0752C276 36.0752 274.556 34.7207 274.556 33.005C274.556 31.6504 275.368 30.4765 276.632 30.025C279.068 29.122 281.594 28.5802 285.203 28.5802C289.353 28.5802 292.331 29.6638 294.226 31.5601C296.211 33.5468 297.113 36.5267 297.113 40.1387V52.3294C297.113 54.4063 295.489 55.9414 293.414 55.9414C291.248 55.9414 289.805 54.4063 289.805 52.7809V52.6906C287.91 54.7675 285.383 56.122 281.684 56.122C276.541 56.3026 272.391 53.413 272.391 48.0852ZM289.805 46.3695V45.015C288.541 44.3829 286.827 44.0217 284.932 44.0217C281.684 44.0217 279.699 45.2859 279.699 47.724V47.8143C279.699 49.8912 281.414 51.0652 283.85 51.0652C287.459 51.0652 289.805 49.1688 289.805 46.3695V46.3695ZM301.083 32.5535C301.083 30.4765 302.797 28.7608 304.872 28.7608C306.947 28.7608 308.662 30.4765 308.662 32.5535V33.7274C309.744 31.1086 311.549 28.7608 313.805 28.7608C316.15 28.7608 317.504 30.2959 317.504 32.4632C317.504 34.4498 316.241 35.6237 314.617 35.9849C310.737 36.8879 308.662 39.8678 308.662 45.1956V52.3294C308.662 54.4063 306.947 56.122 304.872 56.122C302.797 56.122 301.083 54.4063 301.083 52.3294V32.5535ZM319.85 22.8009C319.85 20.724 321.564 19.0083 323.639 19.0083C325.714 19.0083 327.429 20.724 327.429 22.8009V52.3294C327.429 54.4063 325.714 56.122 323.639 56.122C321.564 56.122 319.85 54.4063 319.85 52.3294V22.8009ZM333.474 63.2558C332.391 62.8946 331.038 61.9916 331.038 60.0953C331.038 58.1989 332.481 57.025 334.015 57.025C334.647 57.025 335.008 57.1153 335.278 57.2056C335.91 57.3862 336.361 57.4765 336.902 57.4765C338.256 57.4765 338.887 57.2056 339.609 55.8511L339.88 55.219L330.767 33.9983C330.586 33.4565 330.406 32.7341 330.406 32.2825C330.406 30.1153 332.03 28.6705 334.195 28.6705C336.09 28.6705 337.173 29.7541 337.805 31.5601L343.579 47.1822L349.173 31.6504C349.805 30.025 350.887 28.7608 352.782 28.7608C354.767 28.7608 356.391 30.2959 356.391 32.2825C356.391 32.9147 356.211 33.7274 356.03 34.0886L346.647 56.5735C344.391 61.9916 342.135 64.0685 337.624 64.0685C335.91 63.9782 334.737 63.7073 333.474 63.2558Z" fill="#4C4C4C"></path></svg> 