<?xml version="1.0" encoding="UTF-8"?> <svg xmlns="http://www.w3.org/2000/svg" width="358" height="109" viewBox="0 0 358 109" fill="none"><path fill-rule="evenodd" clip-rule="evenodd" d="M143.85 85.68C145.328 86.591 147.914 87.32 151.609 88.0491C152.902 88.231 153.457 88.9588 154.011 89.8698V91.6918C154.011 92.2389 153.825 92.786 153.641 93.3318H153.638C150.683 93.1499 147.728 92.9666 144.589 92.7847C141.448 92.6027 137.753 92.6028 133.134 92.6028C129.254 92.6028 125.558 92.6027 122.418 92.7847C119.094 92.9679 115.955 93.1499 112.815 93.3318H112.811C112.625 92.2376 112.442 91.1459 112.442 90.053C112.442 89.324 112.625 88.7769 112.995 88.413C113.411 88.1975 113.843 88.0145 114.288 87.8659C117.43 87.1381 119.646 86.591 120.571 85.68C121.494 84.9522 122.049 83.6761 122.049 81.8554V47.0598C122.049 40.137 121.31 35.4002 120.016 32.6672C118.538 29.9355 116.136 28.6594 112.441 28.6594C107.267 28.6594 102.834 30.4813 99.1385 34.1253C97.1057 35.9473 95.8133 38.3151 94.8897 41.0468C94.704 41.4119 94.3351 41.7771 93.7805 41.7771H74.5656C74.0123 41.7771 73.4577 41.4119 73.4577 40.8648C73.0888 37.2221 72.5341 34.4904 71.6106 32.6672C70.1324 29.9355 67.7307 28.6594 64.0353 28.6594C58.8618 28.6594 54.4273 30.4813 50.7331 34.1253C48.7003 35.9473 47.4066 38.3151 46.4844 41.0468C46.2986 41.4119 45.9285 41.7771 45.3751 41.7771H26.3447C25.7914 41.7771 25.2367 41.23 25.2367 40.6829V34.8543C25.2367 31.2117 24.6821 28.48 23.3884 26.6567C22.096 24.836 19.3241 23.7431 15.2598 23.3779C13.7816 23.014 13.0425 21.9211 13.0425 20.4643V19.1882C13.0425 18.7556 13.1583 18.4375 13.297 18.052C13.3351 17.9502 13.3733 17.8446 13.4114 17.7301H16.5535C17.1781 17.7301 17.8459 17.6881 18.5379 17.6436C19.2758 17.5977 20.039 17.5481 20.8023 17.5481C22.2804 17.5481 23.9443 17.5481 25.4212 17.3662C26.1374 17.2771 26.8536 17.2326 27.5481 17.1881C28.2872 17.141 29.0034 17.0965 29.67 17.0023C32.6263 16.6371 35.3982 16.0913 38.1688 15.5442C40.9406 14.9971 42.7877 14.6332 43.7125 14.6332C45.5596 14.6332 46.4831 15.5442 46.4831 17.3662C46.4831 18.6411 46.2986 20.2811 45.9285 22.4682C45.5596 24.6528 45.3751 27.5677 45.3751 31.3936C49.0692 26.4748 53.3193 22.4669 57.7525 19.3701C62.3727 16.2733 66.9916 14.8152 71.6106 14.8152C83.8035 14.8152 91.0099 20.4643 93.0414 32.1226C97.1057 26.6567 101.54 22.4669 105.975 19.3701C110.592 16.2733 115.213 14.6332 119.831 14.6332C134.426 14.6332 141.817 22.6489 141.817 38.6802V82.0386C141.817 83.6774 142.372 84.7703 143.85 85.6813V85.68ZM101.171 88.0491C98.0292 87.502 95.9977 86.7729 95.0742 85.862C93.9649 84.9522 93.4116 83.6761 93.4116 82.0373V76.7521C93.4116 76.205 92.8569 75.6592 92.3023 75.6592H74.5656C74.0123 75.6592 73.4577 76.2063 73.4577 76.7534V82.0361C73.4577 83.8568 72.903 85.1329 71.9795 85.862C71.056 86.7717 68.8387 87.3188 65.6979 88.0478C65.2532 88.1965 64.8207 88.3794 64.4042 88.5949C64.0353 88.9575 63.8509 89.5046 63.8509 90.2337C63.8509 91.3266 64.0353 92.4195 64.2198 93.5125C65.7895 93.4209 67.4063 93.3305 69.0219 93.2389H69.0232C70.64 93.1486 72.2568 93.057 73.8266 92.9654C76.9686 92.7834 80.6627 92.7834 84.5426 92.7834C88.238 92.7834 91.5645 92.7834 94.3351 92.9666C95.7217 93.057 97.1528 93.1486 98.5839 93.2389H98.5851L102.834 93.5125C103.018 92.9654 103.203 92.4195 103.203 91.8737V90.0517C103.018 88.9575 102.465 88.2298 101.171 88.0478V88.0491ZM54.7974 90.235V92.0569C54.7974 92.604 54.613 93.1499 54.4285 93.6957C51.2865 93.5137 48.1457 93.3318 44.8205 93.1486C41.4953 92.9679 37.9843 92.9679 34.2889 92.9679C29.6712 92.9679 25.7914 92.9679 22.835 93.1499C19.693 93.3318 16.7379 93.5137 13.7816 93.697C13.5972 92.6028 13.4127 91.3279 13.4127 90.4169C13.4127 89.5059 13.5972 88.9601 13.9661 88.7769C14.3175 88.4448 14.7768 88.2506 15.2598 88.2298C18.9552 87.502 21.5413 86.7729 23.0195 85.8632C24.4977 84.9522 25.0523 83.6761 25.0523 82.0373V76.9353C25.0523 76.3895 25.6056 75.8437 26.1603 75.8437H43.8969C44.4516 75.8437 45.0049 76.3895 45.0049 76.9353V82.2193C45.0049 84.0413 45.5596 85.3161 46.6676 86.0452C47.7768 86.9549 49.8096 87.502 52.7647 88.231C54.2428 88.231 54.7974 88.9588 54.7974 90.235Z" fill="url(#paint0_linear_123_649)"></path><path fill-rule="evenodd" clip-rule="evenodd" d="M73.4551 64.184C73.6396 64.0021 74.0097 63.8201 74.1942 63.8201C74.5631 63.8201 74.9333 64.0021 75.1177 64.7299C74.7488 65.277 74.1942 65.8241 73.6396 66.3699C73.0862 66.917 72.3471 67.4641 71.6081 67.8267C70.6845 68.3738 69.7597 68.7377 68.8362 68.9209C67.7282 69.1028 66.6189 69.2848 65.3252 69.2848C63.8483 69.2848 62.7391 69.1028 61.4454 68.7377C60.3387 68.1906 59.2294 67.6448 58.3059 66.7338C57.3624 65.794 56.6094 64.6807 56.0886 63.455C55.534 62.1801 55.3495 60.722 55.3495 58.9C55.3495 57.2613 55.534 55.8032 56.2731 54.3464C57.0122 52.8896 57.7512 51.6134 58.8592 50.7024C59.9685 49.7915 61.0765 48.8817 62.5546 48.6985C63.8483 48.1514 65.142 47.7888 66.25 47.7888C69.3908 47.7888 71.6081 48.5166 73.0862 50.3386C74.5644 51.9786 75.3035 54.3464 75.3035 57.0793C75.3035 57.2613 75.1177 57.4432 74.9346 57.4432L60.3374 57.9903C60.3374 59.2652 60.5218 60.3581 60.892 61.4511C61.2609 62.5453 61.6311 63.455 62.3702 64.184C63.0024 64.9861 63.8291 65.6133 64.7719 66.006C65.6954 66.5531 66.8047 66.7338 67.9139 66.7338C69.0206 66.7338 70.1299 66.5518 71.0534 66.006C71.9284 65.5035 72.7355 64.8912 73.4551 64.184ZM65.3265 49.4276C63.6639 49.4276 62.3702 49.9747 61.4466 51.2495C60.5218 52.5244 59.9685 54.1632 59.9685 56.1684L69.5753 55.8032C70.1299 55.8032 70.3143 55.6213 70.3143 55.2561C70.3143 54.653 70.1871 54.1746 70.0396 53.6148C70.009 53.4977 69.976 53.3781 69.9454 53.2535C69.7119 52.611 69.4013 51.9992 69.0206 51.4315C68.6236 50.8579 68.1227 50.3638 67.5437 49.9747C66.8047 49.6095 66.25 49.4276 65.3265 49.4276Z" fill="black"></path><path d="M98.9528 69.1029C98.9528 69.2848 98.9528 69.6499 98.7683 69.8306C97.8448 69.8306 97.1057 69.6487 96.3666 69.6487H91.1931C90.2695 69.6487 89.5305 69.8306 88.6069 69.8306C88.6069 69.4667 88.4225 69.2835 88.4225 69.1029C88.4225 68.7377 88.6069 68.5557 88.7914 68.5557C89.5304 68.3738 90.0851 68.1919 90.6384 68.0087C91.1931 67.8267 91.3775 67.4628 91.3775 66.917V57.26C91.3775 56.3503 91.3775 55.6213 91.1931 55.0754C91.0086 54.3464 90.8242 53.7993 90.6384 53.2535C90.454 52.7064 89.9006 52.3425 89.5304 52.1593C88.9758 51.7954 88.4225 51.7954 87.6834 51.7954C86.9443 51.7954 86.0195 51.9786 85.2804 52.1605C84.5426 52.5244 83.8035 52.8896 83.2489 53.4354C82.6557 54.0231 82.1571 54.6991 81.7707 55.4393C81.4018 56.1684 81.2161 57.0794 81.2161 58.1723V67.0989C81.2161 67.646 81.585 68.0099 82.1396 68.1919C82.6943 68.3738 83.2489 68.5558 83.988 68.739C84.3569 68.739 84.3569 68.9209 84.3569 69.2848C84.3569 69.4667 84.3569 69.8319 84.1724 70.0138C83.2489 70.0138 82.5098 69.8306 81.5863 69.8306H76.2282C75.3047 69.8306 74.5656 70.0138 73.6408 70.0138C73.6408 69.6487 73.4564 69.4667 73.4564 69.2848C73.4564 68.9209 73.6408 68.7377 73.8253 68.7377C74.5656 68.5558 75.119 68.3738 75.8581 68.1906C76.4127 68.0099 76.7829 67.6448 76.7829 67.0989V57.26C76.7829 53.7993 75.8581 51.6122 74.9345 50.5192C74.5656 49.9721 74.1967 49.7902 73.8266 49.4263C73.6408 49.2444 73.6408 48.8792 74.011 48.8792H76.0438C77.3362 48.8792 77.7064 49.0624 78.2598 49.2444C79.369 49.4263 79.9237 50.1553 80.1081 50.7012C80.2926 51.0663 80.8459 52.3412 80.8459 53.2522C82.3254 51.6122 83.6191 50.5192 84.9115 49.6082C86.2052 48.6973 87.6834 48.3334 89.1603 48.3334C91.1931 48.3334 92.6712 48.8805 93.5948 50.1553C94.5183 51.2483 95.0729 52.8883 95.0729 55.0742V67.0977C95.0729 67.6448 95.4418 68.0087 95.9965 68.1906C96.5511 68.3725 97.2902 68.5545 98.0292 68.7377C98.7671 68.5545 98.9528 68.7377 98.9528 69.1016V69.1029Z" fill="black"></path><path fill-rule="evenodd" clip-rule="evenodd" d="M52.9491 64.184C53.1323 64.0021 53.5025 63.8201 53.6869 63.8201C53.8714 63.8201 54.2415 64.0021 54.6105 65.095C54.2415 65.6421 53.6869 66.1879 53.1323 66.7338C52.5789 67.2809 51.8399 67.828 51.1008 68.1919C50.176 68.739 49.2524 69.1028 48.3289 69.2848C47.2209 69.4667 46.1117 69.6487 44.8179 69.6487C43.3411 69.6487 42.2318 69.4667 40.9381 69.1016C39.8314 68.5557 38.7221 68.0099 37.7986 67.0989C36.8549 66.1588 36.102 65.045 35.5813 63.8189C35.0267 62.544 34.8423 61.0872 34.8423 59.2639C34.8423 57.6252 35.0267 56.1684 35.7658 54.7103C36.5036 53.2535 37.244 51.9786 38.3519 51.0676C39.4612 49.9734 40.5692 49.2456 41.8629 48.6985C43.1566 48.1514 44.449 47.7888 45.5583 47.7888C48.6991 47.7888 50.9163 48.5166 52.3932 50.3386C53.8714 51.9786 54.6105 54.3464 54.6105 57.0793C54.6105 57.2613 54.426 57.4432 54.2415 57.4432L39.6456 57.9903C39.6456 59.2652 39.8301 60.3581 40.3835 61.4511C40.7536 62.5453 41.1238 63.455 41.8629 64.184C42.4951 64.9861 43.3219 65.6133 44.2646 66.006C45.1881 66.5531 46.2974 66.7338 47.4054 66.7338C48.5133 66.7338 49.6226 66.5518 50.5461 66.006C51.4211 65.5035 52.2282 64.8913 52.9478 64.184H52.9491ZM44.8192 49.4276C43.1566 49.4276 41.8629 49.9747 40.9394 51.2495C40.0146 52.5244 39.4612 54.1632 39.4612 56.1684L49.068 55.8032C49.6226 55.8032 49.8071 55.6213 49.8071 55.2561C49.8071 54.653 49.6798 54.1746 49.5323 53.6148C49.5005 53.4977 49.4687 53.3781 49.4382 53.2535C49.2046 52.611 48.8941 51.9992 48.5134 51.4315C48.116 50.8578 47.6146 50.3636 47.0352 49.9747C46.2974 49.6095 45.7428 49.4276 44.8192 49.4276ZM35.5813 49.0637C35.2124 48.6985 34.4721 48.3346 33.5485 48.3346C32.2364 48.3313 30.952 48.7116 29.8531 49.4288C28.7452 50.1566 27.6372 51.0676 26.7124 52.1605C26.7124 52.1605 26.159 50.3386 24.6808 49.4276C22.0934 47.6056 18.2136 48.1527 16.7367 50.1566C15.8119 49.4276 15.0728 49.0624 14.3337 48.8817C13.4102 48.5166 12.1177 48.3346 10.4538 48.3346C9.34586 48.3346 8.42233 48.5166 7.31307 48.8817C6.39328 49.2568 5.52439 49.7463 4.72692 50.3386C3.98911 51.0676 3.43321 51.7954 2.87985 52.5244L2.7183 52.9125C2.41045 53.6517 2.14077 54.2968 2.14077 55.0754C2.14077 56.3503 2.32522 57.6252 2.87858 58.5362C3.42438 59.4383 4.18701 60.1897 5.0971 60.722C2.87985 61.8162 1.7706 63.0911 1.7706 64.7299C1.7706 66.1879 2.50968 67.4628 3.80339 68.1906C3.59604 68.2936 3.38869 68.454 3.14826 68.6385C2.95999 68.7835 2.75392 68.9438 2.50968 69.1028C2.42063 69.1919 2.31886 69.2797 2.2171 69.37C1.89272 69.655 1.54162 69.9642 1.40169 70.3777C1.23042 70.6407 1.07618 70.9144 0.939924 71.1971C0.799995 71.4706 0.66261 71.7442 0.478157 72.0177C0.292433 72.5648 0.109253 73.2926 0.109253 74.0217C0.109253 76.3895 1.03151 78.2114 2.69413 79.3044C4.35802 80.3973 6.94289 80.9431 9.90049 80.9431C11.5631 80.9431 13.0413 80.7612 14.3337 80.3973C15.6274 80.0334 16.9211 79.4863 17.8447 78.5753C18.7753 77.8381 19.5323 76.9051 20.0619 75.8424C20.6165 74.7494 20.7997 73.6565 20.7997 72.1997C20.7997 70.9248 20.4308 70.0138 19.8775 69.1028C19.3228 68.1919 18.5837 67.6448 17.4758 67.0989C16.551 66.5518 15.2585 66.1879 13.9648 66.0047C12.6711 65.8241 11.1929 65.6408 9.71604 65.6408C8.42233 65.6408 7.49879 65.6408 6.57399 65.4589C6.25088 65.3787 5.9265 65.3342 5.63265 65.2935C5.25865 65.2426 4.93427 65.1968 4.72692 65.095C4.35802 64.9118 3.98911 64.7299 3.80339 64.5479C3.61894 64.366 3.61894 64.0008 3.61894 63.8201C3.61894 63.455 3.80339 63.0911 4.17229 62.7259C4.5412 62.3621 5.0971 61.9982 6.02063 61.633C6.57399 61.8162 7.12862 61.9982 7.8677 61.9982C8.12466 61.9982 8.42233 62.0363 8.74035 62.0783C9.10798 62.1279 9.5036 62.1801 9.90049 62.1801C11.0929 62.1911 12.2789 62.0062 13.4114 61.633C14.5182 61.2691 15.443 60.9052 16.182 60.1762C16.9199 59.6291 17.6602 58.9013 18.0291 57.9903C18.398 57.0793 18.7682 56.1684 18.7682 55.2574C18.7682 53.9825 18.5837 52.7064 17.4758 51.6134C17.29 51.4315 18.9526 50.3386 20.6165 51.0663C21.909 51.6134 22.0934 53.0715 22.0934 56.8974V66.5518C22.0934 67.0989 21.7245 67.4628 21.1699 67.646H20.9854C21.5401 68.1919 21.7245 68.7377 21.909 69.2848H30.7779C30.7779 69.071 30.8415 68.9209 30.8924 68.7949C30.9306 68.7059 30.9624 68.6308 30.9624 68.5557C30.9624 68.1919 30.7779 68.0086 30.4078 68.0086C29.2629 67.8687 28.3381 67.618 27.6372 67.4272C27.4336 67.3712 27.2479 67.3216 27.0825 67.2809C26.3435 66.917 25.9733 66.3699 25.9733 65.6408V57.4432C25.9733 56.7142 25.9733 55.9864 26.159 55.2574C26.3435 54.5283 26.5279 53.9825 26.8968 53.4354C27.267 52.8883 27.6372 52.5244 28.0061 52.1605C28.2605 51.9086 28.604 51.8297 28.9754 51.747C29.1408 51.7089 29.3125 51.6707 29.4842 51.6134C31.3313 51.6134 32.0704 52.7076 32.625 53.6173C32.625 53.8006 32.9939 53.8006 33.1796 53.6173C33.733 52.3425 34.6578 51.4315 35.3969 50.7037C35.3969 50.7037 35.5813 50.5205 35.5813 50.3386C36.3191 49.9747 36.1347 49.4276 35.5813 49.0637ZM5.0971 71.6526C5.28155 70.5597 5.65045 69.6487 6.38954 68.9209C6.94416 69.1028 7.68325 69.2848 8.60678 69.468C9.34586 69.6487 10.2694 69.6487 11.0085 69.6487C12.4866 69.6487 13.7803 69.8306 14.8883 70.0138C15.9976 70.1958 16.7367 70.5609 17.29 70.9235C17.8447 71.2887 18.3993 71.6526 18.5837 72.1997C18.7682 72.7468 18.9526 73.2926 18.9526 73.8397C18.9526 75.2965 18.3993 76.5714 17.4745 77.4824C16.3665 78.3934 14.7039 78.9405 12.4866 78.9405C11.1929 78.9405 10.2694 78.7573 9.34586 78.3934C8.42233 78.0295 7.68325 77.6643 6.94416 77.1185C6.38954 76.5714 5.83491 76.0243 5.466 75.2965C5.0971 74.5675 4.91137 74.0217 4.91137 73.2926V72.3816H5.0971V71.6526ZM10.824 60.1762C12.1177 60.1762 13.0413 59.811 13.7803 59.082C14.5182 58.3542 14.8883 57.2613 14.7039 55.6213C14.7039 55.0742 14.7039 54.3464 14.5194 53.6173C14.4838 53.5117 14.4482 53.4011 14.4113 53.284C14.2561 52.7967 14.078 52.2369 13.7803 51.7954C13.4114 51.0676 12.8568 50.7024 12.3022 50.3386C11.7476 49.9747 11.0085 49.7915 10.0849 49.7915C8.97696 49.7915 8.05215 50.1566 7.31307 50.8857C6.75971 51.6134 6.38954 52.7064 6.38954 53.9825C6.38954 54.7103 6.38954 55.4393 6.57399 56.1684C6.75971 56.8961 6.94289 57.6252 7.31307 58.1723C7.49879 58.9013 8.05215 59.2652 8.60678 59.6291C9.16141 59.9943 9.90049 60.1762 10.824 60.1762Z" fill="black"></path><path d="M218.718 28.5003H220.727V43.3318H218.718V28.5003ZM233.697 33.1354C234.61 33.8759 234.976 35.1737 234.976 36.843V43.3318H232.966V37.0287C232.966 35.9154 232.784 35.1737 232.235 34.6177C231.687 34.0617 230.957 33.8759 230.044 33.8759C228.948 33.8759 228.035 34.2474 227.487 34.8034C226.939 35.3594 226.573 36.287 226.573 37.5847V43.3318H224.564V32.0221H226.573V33.6914C226.938 33.1354 227.487 32.5781 228.217 32.3936C228.951 32.015 229.767 31.824 230.592 31.8376C231.87 32.0221 232.966 32.3936 233.697 33.1354ZM247.578 33.1354C248.491 33.8759 248.856 35.1737 248.856 36.843V43.3318H246.848V37.0287C246.848 35.9154 246.665 35.1737 246.116 34.6177C245.568 34.0617 244.838 33.8759 243.925 33.8759C242.829 33.8759 241.916 34.2474 241.368 34.8034C240.819 35.3594 240.454 36.287 240.454 37.5847V43.3318H238.444V32.0221H240.454V33.6914C240.819 33.1354 241.368 32.5781 242.098 32.3936C242.832 32.015 243.647 31.824 244.473 31.8376C245.568 32.0221 246.848 32.3936 247.578 33.1354Z" fill="black"></path><path fill-rule="evenodd" clip-rule="evenodd" d="M251.962 40.7363C252.327 41.6626 253.057 42.2198 253.97 42.7758C254.884 43.1461 255.797 43.5176 256.894 43.5176C257.989 43.5176 258.902 43.3319 259.816 42.7758C260.729 42.2198 261.277 41.6626 261.824 40.7363C262.372 39.8088 262.556 38.8825 262.556 37.7692C262.556 36.6572 262.372 35.731 261.824 34.8034C261.459 33.8759 260.729 33.3199 259.816 32.7639C258.902 32.2079 257.989 32.0221 256.894 32.0221C255.797 32.0221 254.884 32.2079 253.97 32.7639C253.057 33.3199 252.509 33.8759 251.962 34.8034C251.413 35.731 251.23 36.6572 251.23 37.7692C251.23 38.8825 251.413 39.8088 251.962 40.7363ZM260.181 39.6243C259.999 40.3648 259.45 40.7363 258.902 41.1066C258.357 41.4582 257.724 41.6508 257.075 41.6626C256.427 41.6508 255.794 41.4582 255.249 41.1066C254.7 40.7363 254.335 40.1803 253.97 39.6243C253.605 39.067 253.422 38.3265 253.422 37.5847C253.422 36.843 253.605 36.1012 253.97 35.5452C254.154 34.8034 254.7 34.4332 255.249 34.0617C255.783 33.686 256.423 33.4912 257.075 33.5057C257.624 33.5057 258.354 33.6914 258.902 34.0617C259.45 34.4332 259.816 34.9892 260.181 35.5452C260.546 36.1012 260.729 36.843 260.729 37.5847C260.729 38.3265 260.546 39.067 260.181 39.6243Z" fill="black"></path><path d="M274.611 32.0221L269.681 43.3318H267.671L262.739 32.0221H264.749L268.584 41.1066L272.419 32.0221H274.611Z" fill="black"></path><path fill-rule="evenodd" clip-rule="evenodd" d="M284.657 36.4715C284.657 34.9892 284.11 33.8759 283.378 33.1354C282.465 32.3937 281.37 32.0221 279.908 31.8376C278.995 31.8376 278.081 32.0221 277.351 32.2079C277.143 32.3113 276.931 32.4085 276.716 32.4993C276.21 32.7181 275.729 32.9268 275.341 33.3199L276.255 34.8034C276.803 34.4332 277.351 34.0617 277.899 33.8759L278.261 33.7818C278.823 33.6329 279.303 33.5057 279.908 33.5057C280.821 33.5057 281.552 33.6914 282.1 34.2474C282.648 34.8034 282.831 35.3594 282.831 36.287V36.6572H279.726C278.081 36.6572 276.986 37.0287 276.255 37.5847C275.524 38.1408 275.159 39.067 275.159 39.9945C275.159 40.9221 275.524 41.8483 276.255 42.4043C276.986 42.9603 277.899 43.3318 279.178 43.3318C280.091 43.3318 280.821 43.1461 281.37 42.9603C282.1 42.7758 282.465 42.4043 282.831 41.8483V43.3318H284.657V36.4702V36.4715ZM282.648 39.9945C282.283 40.5505 281.918 41.1065 281.37 41.4781C281.095 41.5709 280.776 41.6626 280.456 41.7554C280.137 41.8483 279.817 41.9412 279.543 42.0341C278.813 42.0341 278.081 41.8483 277.716 41.4781C277.168 41.1065 276.986 40.7363 276.986 40.1803C276.986 39.067 277.899 38.511 279.543 38.511H282.648V39.9945Z" fill="black"></path><path d="M294.155 42.7758L293.059 43.3319C292.694 43.5176 292.146 43.5176 291.781 43.5176C290.685 43.5176 289.772 43.1461 289.224 42.5901C288.675 42.0341 288.31 41.1066 288.31 39.9945V33.8759H286.484V32.2079H288.31V29.7981H290.32V32.2079H293.425V33.8759H290.32V39.9945C290.32 40.5505 290.502 41.1066 290.685 41.4781C291.05 41.8483 291.415 42.0341 291.964 42.0341C292.512 42.0341 293.059 41.8483 293.607 41.4781L294.155 42.7758Z" fill="black"></path><path fill-rule="evenodd" clip-rule="evenodd" d="M295.8 28.6848C295.8 29.0563 295.983 29.4266 296.167 29.6123C296.349 29.7981 296.714 29.9826 297.079 29.9826C297.445 29.9826 297.81 29.7981 297.992 29.6123C298.222 29.3574 298.352 29.028 298.358 28.6848C298.352 28.342 298.222 28.0132 297.992 27.7586C297.744 27.5265 297.419 27.3942 297.079 27.387C296.714 27.387 296.349 27.5728 296.167 27.7586C295.937 28.0132 295.807 28.342 295.8 28.6848ZM298.175 32.0221H296.167V43.3318H298.175V32.0221Z" fill="black"></path><path d="M310.778 33.1354C311.691 33.8759 312.056 35.1737 312.056 36.843V43.3318H310.046V37.0287C310.046 35.9154 309.864 35.1737 309.316 34.6177C308.768 34.0617 308.038 33.8759 307.124 33.8759C306.028 33.8759 305.114 34.2474 304.568 34.8034C304.019 35.3594 303.654 36.287 303.654 37.5847V43.3318H301.644V32.0221H303.654V33.6914C304.019 33.1354 304.567 32.5781 305.298 32.3936C306.031 32.0149 306.847 31.8239 307.673 31.8376C308.768 32.0221 310.046 32.3936 310.778 33.1354Z" fill="black"></path><path fill-rule="evenodd" clip-rule="evenodd" d="M326.122 41.8483V32.5781H324.112V34.2474C323.564 33.6914 323.017 33.3199 322.285 32.9497C321.552 32.5709 320.736 32.3799 319.911 32.3937C318.815 32.3937 317.901 32.7639 316.988 33.1354C316.075 33.5057 315.527 34.2474 314.98 34.9892C314.431 35.731 314.248 36.6572 314.248 37.7692C314.248 38.6968 314.431 39.8088 314.98 40.5505C315.527 41.2923 316.075 42.0341 316.988 42.4043C317.901 42.9603 318.815 43.1461 319.911 43.1461C320.642 43.1461 321.372 43.1461 322.103 42.7758C322.833 42.4043 323.382 42.0341 323.93 41.4781V42.4043C323.93 43.7021 323.564 44.6296 323.017 45.1856C322.285 45.7416 321.372 46.1132 320.093 46.1132C319.18 46.1132 318.45 45.9274 317.72 45.7416C316.988 45.3714 316.44 44.9999 315.893 44.6296L314.98 46.1132C315.71 46.6692 316.44 47.0394 317.353 47.4109C318.267 47.5954 319.18 47.7812 320.276 47.7812C322.285 47.7812 323.747 47.2252 324.66 46.2977C325.573 45.1856 326.122 43.8879 326.122 41.8483ZM323.564 39.2528C323.382 39.8088 322.833 40.1803 322.285 40.5505C321.555 40.9221 321.007 41.1066 320.276 41.1066C319.545 41.1066 318.815 40.9221 318.267 40.5505C317.753 40.2141 317.317 39.7716 316.988 39.2528C316.617 38.7071 316.425 38.059 316.44 37.399C316.44 36.287 316.806 35.5452 317.536 34.8034C318.321 34.1972 319.285 33.8707 320.276 33.8759C321.372 33.8759 322.285 34.0617 323.017 34.8034C323.747 35.3594 324.112 36.287 324.112 37.399C324.112 38.1408 323.93 38.6968 323.564 39.2528Z" fill="black"></path><path d="M231.322 49.635V64.4665H229.313V57.7944H220.911V64.6522H218.901V49.8207H220.911V56.3096H229.313V49.8207H231.322V49.635Z" fill="black"></path><path fill-rule="evenodd" clip-rule="evenodd" d="M236.072 59.6469H245.022C245.022 59.4611 245.022 59.0909 245.388 59.0909C245.388 57.9776 245.204 57.0514 244.656 56.1238C244.109 55.1976 243.561 54.6403 242.647 54.0843C241.734 53.5283 240.821 53.3425 239.724 53.3425C238.629 53.3425 237.716 53.5283 236.802 54.0843C235.889 54.6403 235.341 55.1976 234.794 56.1238C234.245 57.0514 234.062 57.9776 234.062 59.0909C234.062 60.2029 234.245 61.1292 234.794 62.0567C235.341 62.9842 236.072 63.5402 236.985 64.0962C237.899 64.6522 238.994 64.838 240.091 64.838C241.004 64.838 241.917 64.6522 242.647 64.282C243.378 64.0962 243.926 63.5402 244.474 62.9842L243.378 61.6864C242.464 62.6127 241.369 62.9842 240.091 62.9842C238.994 62.9842 238.081 62.6127 237.351 62.0567C236.619 61.5007 236.254 60.5732 236.072 59.6469ZM236.072 58.1634C236.072 57.0514 236.437 56.3096 237.167 55.7536C237.716 55.1976 238.629 55.0118 239.724 54.8261C240.638 54.8261 241.369 55.1976 242.099 55.7536C242.647 56.4953 243.013 57.2358 243.196 58.1634H236.072ZM255.98 57.6074C255.98 56.1238 255.433 55.0118 254.702 54.27C253.788 53.5283 252.693 53.158 251.231 53.158C250.318 53.158 249.405 53.3425 248.675 53.5283C248.466 53.6318 248.254 53.7289 248.04 53.8196C247.534 54.0385 247.053 54.2471 246.665 54.6403L247.578 56.1238C248.126 55.7536 248.675 55.3821 249.223 55.1976L249.584 55.1021C250.146 54.9533 250.626 54.8261 251.231 54.8261C252.145 54.8261 252.875 55.0118 253.423 55.5678C253.972 56.1238 254.155 56.6798 254.155 57.6074V57.9776H251.05C249.405 57.9776 248.31 58.3491 247.578 58.9051C246.848 59.4611 246.483 60.3887 246.483 61.3149C246.483 62.2425 246.848 63.1687 247.578 63.7247C248.31 64.282 249.223 64.6522 250.501 64.6522C251.415 64.6522 252.145 64.4665 252.693 64.282C253.423 64.0962 253.788 63.7247 254.155 63.1687V64.6522H255.98V57.6074ZM253.972 61.1292C253.606 61.6864 253.241 62.2425 252.693 62.6127C252.148 62.9644 251.515 63.157 250.866 63.1687C250.136 63.1687 249.405 62.9842 249.04 62.6127C248.491 62.2425 248.31 61.8709 248.31 61.3149C248.31 60.2029 249.223 59.6469 250.866 59.6469H253.972V61.1292Z" fill="black"></path><path d="M259.087 48.8932H261.097V64.6522H259.087V48.8932ZM271.141 63.9105L270.046 64.4665C269.679 64.6522 269.132 64.6522 268.766 64.6522C267.671 64.6522 266.757 64.282 266.209 63.7247C265.661 63.1687 265.296 62.2425 265.296 61.1292V55.0118H263.469V53.3413H265.296V50.9315H267.306V53.3413H270.411V55.0105H267.306V61.1279C267.306 61.6852 267.487 62.2412 267.671 62.6114C268.036 62.983 268.401 63.1674 268.949 63.1674C269.497 63.1674 270.046 62.983 270.593 62.6114L271.141 63.9092V63.9105ZM282.468 54.4558C283.381 55.1976 283.746 56.4954 283.746 58.1634V64.6522H281.736V58.3491C281.736 57.2358 281.554 56.4954 281.006 55.9381C280.458 55.3821 279.727 55.1976 278.814 55.1976C277.718 55.1976 276.804 55.5678 276.257 56.1238C275.709 56.6798 275.344 57.6074 275.344 58.9051V64.6522H273.152V48.8932H275.161V55.0118C275.526 54.4558 276.074 54.0843 276.804 53.714C277.536 53.3425 278.266 53.3425 278.997 53.3425C280.458 53.158 281.554 53.714 282.468 54.4558ZM288.858 63.9105C287.945 63.3545 287.215 62.7985 286.849 61.8709C286.302 60.9447 286.118 60.0172 286.118 58.9051C286.118 57.7931 286.302 56.8656 286.849 55.9381C287.397 55.0118 288.128 54.4558 288.858 53.8998C289.772 53.3425 290.685 53.158 291.964 53.158C293.059 53.158 293.79 53.3425 294.704 53.714C295.434 54.0843 296.164 54.6403 296.53 55.5678L295.069 56.4954C294.74 55.9763 294.304 55.5337 293.79 55.1976C293.242 55.0118 292.694 54.8261 292.146 54.8261C291.415 54.8261 290.685 55.0118 290.137 55.3821C289.589 55.7536 289.04 56.1238 288.858 56.8656C288.493 57.4216 288.31 58.1634 288.31 58.9051C288.31 59.6469 288.493 60.3887 288.858 60.9447C289.224 61.5007 289.589 62.0567 290.137 62.4269C290.685 62.7985 291.415 62.9842 292.146 62.9842C292.694 62.9842 293.425 62.7985 293.79 62.6127C294.339 62.4269 294.704 61.8709 295.069 61.3149L296.53 62.2425C296.164 62.9842 295.434 63.5402 294.704 64.0962C293.972 64.4665 293.059 64.6522 291.964 64.6522C290.685 64.6522 289.772 64.4665 288.858 63.9105Z" fill="black"></path><path fill-rule="evenodd" clip-rule="evenodd" d="M307.491 57.6074C307.491 56.1238 306.942 55.0118 306.212 54.27C305.299 53.5283 304.202 53.158 302.741 53.158C301.827 53.158 300.914 53.3425 300.184 53.5283C299.975 53.6318 299.764 53.7289 299.549 53.8196C299.043 54.0385 298.563 54.2471 298.175 54.6403L299.089 56.1238C299.636 55.7536 300.184 55.3821 300.732 55.1976L301.093 55.1021C301.656 54.9533 302.137 54.8261 302.741 54.8261C303.654 54.8261 304.386 55.0118 304.933 55.5678C305.481 56.1238 305.664 56.6798 305.664 57.6074V57.9776H302.559C300.914 57.9776 299.819 58.3491 299.089 58.9051C298.357 59.4611 297.992 60.3887 297.992 61.3149C297.992 62.2425 298.357 63.1687 299.089 63.7247C299.819 64.282 300.732 64.6522 302.011 64.6522C302.924 64.6522 303.654 64.4665 304.202 64.282C304.933 64.0962 305.299 63.7247 305.664 63.1687V64.6522H307.491V57.6074ZM305.481 61.1292C305.116 61.6864 304.751 62.2425 304.202 62.6127C303.669 62.9886 303.028 63.1835 302.376 63.1687C301.646 63.1687 300.914 62.9842 300.549 62.6127C300.002 62.2425 299.819 61.8709 299.819 61.3149C299.819 60.2029 300.732 59.6469 302.376 59.6469H305.481V61.1292Z" fill="black"></path><path d="M314.066 53.714C314.798 53.3425 315.528 53.158 316.624 53.158V55.1976H316.076C314.98 55.1976 314.066 55.5678 313.519 56.1238C312.92 56.9266 312.599 57.9032 312.606 58.9051V64.4665H310.596V53.158H312.606V55.0118C312.971 54.6403 313.519 54.0843 314.066 53.714Z" fill="black"></path><path fill-rule="evenodd" clip-rule="evenodd" d="M319.545 59.6469H328.495C328.586 59.554 328.631 59.4153 328.677 59.2754C328.723 59.1367 328.769 58.998 328.86 58.9051C328.86 57.7931 328.677 56.8656 328.13 55.9381C327.582 55.0118 327.034 54.4558 326.12 53.8998C325.207 53.3425 324.294 53.158 323.198 53.158C322.102 53.158 321.189 53.3425 320.275 53.8998C319.362 54.4558 318.814 55.0118 318.267 55.9381C317.718 56.8656 317.535 57.7931 317.535 58.9051C317.535 60.0172 317.718 60.9447 318.267 61.8709C318.814 62.7985 319.545 63.3545 320.458 63.9105C321.372 64.4665 322.467 64.6522 323.564 64.6522C324.477 64.6522 325.39 64.4665 326.12 64.0962C326.851 63.9105 327.399 63.3545 327.947 62.7985L326.851 61.6864C325.937 62.6127 324.842 62.9842 323.564 62.9842C322.467 62.9842 321.554 62.6127 320.823 62.0567C320.093 61.5007 319.727 60.5732 319.545 59.6469ZM319.545 58.1634C319.545 57.0514 319.91 56.3096 320.64 55.7536C321.372 55.1976 322.102 55.0118 323.198 54.8261C324.112 54.8261 324.842 55.1976 325.572 55.7536C326.12 56.4953 326.486 57.2358 326.669 58.1634H319.545Z" fill="black"></path><path d="M221.642 72.8091H216.527V70.9554H228.582V72.8091H223.467V85.7869H221.458V72.8091H221.642ZM239.541 75.7762C240.454 76.518 240.819 77.8158 240.819 79.4838V85.9727H238.81V79.4838C238.81 78.3718 238.628 77.63 238.079 77.074C237.531 76.518 236.801 76.3322 235.888 76.3322C234.791 76.3322 233.878 76.7025 233.331 77.2597C232.782 77.8158 232.417 78.742 232.417 80.0398V85.7869H230.408V70.0291H232.417V76.1465C232.782 75.5905 233.331 75.2202 234.061 74.8487C234.791 74.4784 235.523 74.4784 236.253 74.4784C237.531 74.4784 238.81 74.8487 239.541 75.7762ZM247.578 75.0344C248.308 74.6642 249.04 74.4784 250.135 74.4784V76.518H249.587C248.491 76.518 247.578 76.8882 247.03 77.4442C246.43 78.247 246.11 79.2236 246.116 80.2255V85.7869H244.108V74.4784H246.116V76.3322C246.3 75.7762 246.847 75.2202 247.578 75.0344Z" fill="black"></path><path fill-rule="evenodd" clip-rule="evenodd" d="M251.78 83.1913C252.145 84.1189 252.876 84.6749 253.79 85.2309C254.702 85.7869 255.615 85.9727 256.712 85.9727C257.807 85.9727 258.72 85.7869 259.634 85.2309C260.547 84.6749 261.095 84.1189 261.644 83.1913C262.192 82.2651 262.374 81.3376 262.374 80.2255C262.374 79.1135 262.192 78.186 261.644 77.2598C261.278 76.3322 260.547 75.7762 259.634 75.2202C258.72 74.6642 257.807 74.4784 256.712 74.4784C255.615 74.4784 254.702 74.6642 253.79 75.2202C252.876 75.7762 252.328 76.3322 251.78 77.2598C251.232 78.186 251.05 79.1135 251.05 80.2255C251.05 81.3376 251.232 82.2651 251.78 83.1913ZM260 82.2651C259.817 83.0069 259.269 83.3771 258.72 83.7486C258.418 83.8476 258.113 83.9401 257.807 84.026C257.488 84.1189 257.168 84.2118 256.895 84.3046C256.246 84.293 255.613 84.1004 255.068 83.7486C254.52 83.3771 254.155 82.8211 253.79 82.2651C253.423 81.7091 253.241 80.9673 253.241 80.2255C253.241 79.4838 253.423 78.742 253.79 78.186C253.972 77.4442 254.52 77.074 255.068 76.7025C255.615 76.3322 256.163 76.1465 256.895 76.1465C257.442 76.1465 258.173 76.3322 258.72 76.7025C259.269 77.074 259.634 77.63 260 78.186C260.365 78.742 260.547 79.4838 260.547 80.2255C260.547 80.9673 260.365 81.7091 260 82.2651Z" fill="black"></path><path d="M275.341 74.4784V85.7869H273.515V84.1189C273.149 84.6749 272.603 85.2309 271.871 85.4166C271.141 85.7869 270.409 85.9727 269.679 85.9727C268.218 85.9727 267.122 85.6024 266.209 84.6749C265.296 83.9331 264.931 82.6353 264.931 80.9673V74.4784H266.939V80.7816C266.939 81.8936 267.122 82.6353 267.671 83.1913C267.953 83.4872 268.294 83.7221 268.671 83.8816C269.048 84.0411 269.453 84.1219 269.862 84.1189C270.958 84.1189 271.689 83.7486 272.419 83.1913C272.968 82.4508 273.333 81.7091 273.333 80.4113V74.6642H275.341V74.4784Z" fill="black"></path><path fill-rule="evenodd" clip-rule="evenodd" d="M289.224 84.3046V75.0344H287.214V76.7025C286.667 76.1465 286.118 75.7762 285.387 75.4047C284.654 75.026 283.838 74.8349 283.013 74.8487C281.917 74.8487 281.003 75.2202 280.09 75.5904C279.177 75.962 278.63 76.7025 278.081 77.4442C277.533 78.186 277.35 79.1135 277.35 80.2255C277.35 81.1531 277.533 82.2651 278.081 83.0068C278.63 83.7486 279.177 84.4891 280.09 84.8606C281.003 85.4166 281.917 85.6024 283.013 85.6024C283.743 85.6024 284.474 85.6024 285.205 85.2309C285.935 84.8606 286.484 84.4891 287.032 83.9331V84.8606C287.032 86.1584 286.667 87.0847 286.118 87.6419C285.387 88.1979 284.474 88.5682 283.195 88.5682C282.282 88.5682 281.552 88.3824 280.822 88.1979C280.09 87.8264 279.543 87.4562 278.995 87.0847L278.081 88.5682C278.812 89.1242 279.543 89.4957 280.455 89.866C281.368 90.0517 282.282 90.2375 283.378 90.2375C285.387 90.2375 286.849 89.6802 287.762 88.7539C288.675 87.6419 289.224 86.3442 289.224 84.3046ZM286.667 81.8936C286.484 82.4508 285.935 82.8211 285.387 83.1913C284.84 83.3771 284.292 83.5629 283.378 83.7486C282.648 83.7486 281.917 83.5628 281.368 83.1913C280.855 82.8549 280.419 82.4124 280.09 81.8936C279.719 81.3478 279.528 80.6996 279.543 80.0398C279.543 78.9278 279.908 78.186 280.638 77.4442C281.423 76.8384 282.387 76.5123 283.378 76.518C284.474 76.518 285.387 76.7025 286.118 77.4442C286.849 78.0002 287.214 78.9278 287.214 80.0398C287.214 80.7815 287.032 81.3375 286.667 81.8936Z" fill="black"></path><path d="M302.012 75.7762C302.925 76.518 303.29 77.8158 303.29 79.4838V85.9727H301.282V79.4838C301.282 78.3718 301.099 77.63 300.55 77.074C300.002 76.518 299.272 76.3322 298.358 76.3322C297.263 76.3322 296.35 76.7025 295.802 77.2597C295.253 77.8158 294.888 78.742 294.888 80.0398V85.7869H292.878V70.0291H294.888V76.1465C295.253 75.5905 295.802 75.2202 296.532 74.8487C297.263 74.4784 297.993 74.4784 298.724 74.4784C300.002 74.4784 301.099 74.8487 302.012 75.7762Z" fill="black"></path><path fill-rule="evenodd" clip-rule="evenodd" d="M318.268 70.9554H312.058V85.7869H318.268C319.911 85.7869 321.19 85.4166 322.468 84.8606C323.565 84.3046 324.478 83.3771 325.208 82.2651C325.81 81.0556 326.123 79.7228 326.122 78.3718C326.122 76.8882 325.939 75.5905 325.208 74.4784C324.636 73.3121 323.664 72.3908 322.468 71.8829C321.19 71.3269 319.728 70.9554 318.268 70.9554ZM321.19 83.1913C320.276 83.7486 319.181 83.9331 318.085 83.9331V83.5629H314.066V72.4389H318.085C319.181 72.4389 320.276 72.6246 321.19 73.1807C322.103 73.7367 322.651 74.2927 323.2 75.2202C323.747 76.1465 323.93 77.074 323.93 78.186C323.93 79.298 323.747 80.2255 323.2 81.1531C322.833 82.0793 322.103 82.6353 321.19 83.1913ZM337.447 78.9278C337.447 77.4442 336.899 76.3322 336.167 75.5904C335.437 74.8487 334.159 74.4784 332.697 74.2927C331.784 74.2927 330.87 74.4784 330.14 74.6642C329.932 74.7672 329.72 74.864 329.505 74.9543C328.999 75.1744 328.52 75.3818 328.13 75.7762L329.044 77.2597C329.592 76.8882 330.14 76.518 330.688 76.3322L331.05 76.2381C331.612 76.0892 332.092 75.962 332.697 75.962C333.61 75.962 334.341 76.1465 334.889 76.7025C335.437 77.2597 335.62 77.8157 335.62 78.742V79.1135H332.515C330.87 79.1135 329.775 79.4838 329.044 80.0398C328.313 80.5958 327.948 81.5233 327.948 82.4508C327.948 83.3771 328.313 84.3046 329.044 84.8606C329.775 85.4166 330.688 85.7869 331.967 85.7869C332.88 85.7869 333.61 85.6024 334.159 85.4166C334.889 85.2309 335.254 84.8606 335.62 84.3046V85.7869H337.447V78.9278ZM335.437 82.4508C335.072 83.0069 334.707 83.5629 334.159 83.9331C333.558 84.1438 332.948 84.3293 332.332 84.4891C331.602 84.4891 330.87 84.3046 330.505 83.9331C329.957 83.5629 329.775 83.1913 329.775 82.6353C329.775 81.5233 330.688 80.9673 332.332 80.9673H335.437V82.4508Z" fill="black"></path><path d="M346.944 85.2309L345.848 85.7869C345.483 85.9727 344.935 85.9727 344.57 85.9727C343.474 85.9727 342.561 85.6024 342.013 85.0464C341.464 84.4891 341.099 83.5629 341.099 82.4508V76.3322H339.273V74.6642H341.099V72.0686H343.109V74.4784H346.214V76.1465H343.109V82.2651C343.109 82.8211 343.291 83.3771 343.474 83.7486C343.839 84.1189 344.204 84.3046 344.753 84.3046C345.301 84.3046 345.848 84.1189 346.396 83.7486L346.944 85.2309Z" fill="black"></path><path fill-rule="evenodd" clip-rule="evenodd" d="M357.905 78.9278C357.905 77.4442 357.356 76.3322 356.625 75.5905C355.712 74.8487 354.616 74.4784 353.155 74.2927C352.241 74.2927 351.328 74.4785 350.598 74.6642C350.389 74.7672 350.178 74.864 349.963 74.9543C349.457 75.1744 348.977 75.3818 348.588 75.7762L349.501 77.2598C350.05 76.8882 350.598 76.518 351.146 76.3322L351.507 76.2381C352.07 76.0892 352.549 75.962 353.155 75.962C354.068 75.962 354.8 76.1465 355.347 76.7025C355.895 77.2598 356.078 77.8158 356.078 78.742V79.1135H352.973C351.328 79.1135 350.233 79.4838 349.501 80.0398C348.771 80.5958 348.406 81.5233 348.406 82.4509C348.406 83.3771 348.771 84.3046 349.501 84.8606C350.233 85.4166 351.146 85.7869 352.425 85.7869C353.338 85.7869 354.068 85.6024 354.616 85.4166C355.347 85.2309 355.712 84.8606 356.078 84.3046V85.7869H357.905V78.9278ZM355.895 82.4509C355.53 83.0069 355.165 83.5629 354.616 83.9331C354.343 84.026 354.022 84.1189 353.703 84.2118C353.384 84.3046 353.063 84.3975 352.79 84.4891C352.059 84.4891 351.328 84.3046 350.963 83.9331C350.415 83.5629 350.233 83.1913 350.233 82.6353C350.233 81.5233 351.146 80.9673 352.79 80.9673H355.895V82.4509Z" fill="black"></path><defs><linearGradient id="paint0_linear_123_649" x1="155.003" y1="-26.1549" x2="122.353" y2="110.624" gradientUnits="userSpaceOnUse"><stop stop-color="#5CB55F"></stop><stop offset="1" stop-color="#2D894F"></stop></linearGradient></defs></svg> 