<?xml version="1.0" encoding="UTF-8"?> <svg xmlns="http://www.w3.org/2000/svg" width="360" height="99" viewBox="0 0 360 99" fill="none"><path d="M21.1355 14.1678C21.1355 18.4065 17.7677 21.8323 13.471 21.8323C9.1742 21.8323 5.80646 18.4645 5.80646 14.1678C5.80646 9.87101 9.1742 6.50327 13.471 6.50327C17.5935 6.38714 21.1355 9.92907 21.1355 14.1678Z" fill="#96C93D"></path><path d="M67.6452 41.7484V62.8258C67.6452 66.3097 68.1678 69.0968 69.1549 71.071C67.5291 72.4645 65.7872 73.1032 63.6388 73.1032C61.6065 73.1032 60.1549 72.5806 59.4001 71.5935C58.6452 70.6064 58.2968 69.0968 58.2968 67.0645V44.129C58.2968 40.9936 57.9485 38.7291 57.0194 37.5097C56.2646 36.1162 54.7549 35.4775 52.7807 35.4775C50.7484 35.4775 48.7742 36 46.6259 36.9871C44.4775 37.9742 42.7355 39.3678 41.1097 41.1097V72.4645C40.1226 72.6968 38.6129 72.8129 36.4645 72.8129C35.4775 72.8129 34.6065 72.8129 33.8516 72.6968C33.0968 72.6968 32.342 72.5806 31.7032 72.4645V27.9871L32.2258 27.4646H35.7097C38.9613 27.4646 40.7033 29.3226 40.8775 33.0968C45.2904 29.0904 50.0517 27.0581 55.2775 27.0581C59.2839 27.0581 62.3033 28.4516 64.2775 31.0645C66.6581 33.6194 67.6452 37.2194 67.6452 41.7484Z" fill="#4B4D4D"></path><path d="M18 32.9807C17.8839 29.2065 16.1419 27.3484 12.8323 27.3484H9.34839L8.82581 27.871V72.3484C9.46452 72.4645 10.1032 72.5806 10.9742 72.5806C11.729 72.5806 12.6 72.6968 13.5871 72.6968C15.6194 72.6968 17.2452 72.5806 18.2323 72.3484V40.9935C18 39.0194 18 34.8387 18 32.9807Z" fill="#4B4D4D"></path><path d="M83.4388 72.4644V34.4903L75.6581 34.6064C75.542 34.0838 75.4259 33.6193 75.4259 32.9806C75.3098 32.3419 75.3098 31.7032 75.3098 31.2386C75.3098 29.8451 75.4259 28.7419 75.6581 27.7548L82.9162 27.8709C82.5678 24.2128 82.3936 21.4838 82.3936 19.858C82.3936 17.8257 82.742 15.9677 83.3807 14.2257C84.0194 12.4838 84.8904 10.9741 86.1098 9.69671C87.3872 8.4193 88.7227 7.4322 90.5227 6.79349C92.1485 6.03865 94.1807 5.8064 96.1549 5.8064C100.394 5.8064 104.284 6.56123 107.942 7.95478C107.942 10.6838 107.187 12.7161 105.794 14.2257C104.4 13.8773 103.065 13.4709 101.903 13.2387C100.626 13.0064 99.5227 12.8903 98.5356 12.8903C96.0388 12.8903 94.1227 13.529 93.0194 14.9225C91.9162 16.3161 91.3936 18.2903 91.3936 21.0774C91.3936 22.0645 91.3936 23.2257 91.5098 24.329C91.6259 25.4322 91.742 26.7096 92.0323 28.1032L104.807 27.987C104.923 28.5096 105.039 29.0902 105.039 29.6128C105.155 30.2515 105.155 30.8902 105.155 31.4709C105.155 32.0515 105.155 32.7483 105.039 33.2128C105.039 33.8515 104.923 34.316 104.807 34.8386L92.6711 34.7225V72.6967C92.0323 72.8128 91.2775 72.9289 90.5227 72.9289C89.7678 72.9289 88.8969 73.0451 88.142 73.0451C87.2711 73.0451 86.5162 73.0451 85.7614 72.9289C84.7162 72.5805 84.0775 72.4644 83.4388 72.4644Z" fill="#4B4D4D"></path><path d="M127.161 33.7354C120.658 33.7354 117.406 39.2515 117.406 50.1676C117.406 61.0837 120.658 66.5998 127.161 66.5998C133.78 66.5998 137.09 61.0837 137.09 50.1676C137.09 39.1354 133.722 33.7354 127.161 33.7354ZM140.226 68.574C136.974 71.8256 132.561 73.5676 127.045 73.5676C123.909 73.5676 121.18 73.045 118.8 71.9418C116.419 70.8385 114.387 69.2127 112.645 67.1805C111.019 65.0321 109.742 62.6514 108.871 59.8063C108 56.9031 107.593 53.7676 107.593 50.1676C107.593 46.6837 107.942 43.5483 108.871 40.645C109.742 37.7418 111.019 35.2451 112.645 33.2709C114.271 31.1225 116.303 29.6128 118.8 28.5096C121.18 27.4064 123.968 26.8838 127.045 26.8838C130.122 26.8838 132.909 27.4064 135.29 28.5096C137.671 29.6128 139.703 31.2386 141.445 33.2709C143.071 35.4193 144.348 37.7999 145.219 40.645C146.09 43.4902 146.497 46.7999 146.497 50.1676C146.613 58.1805 144.464 64.3353 140.226 68.574Z" fill="#4B4D4D"></path><path d="M176.052 34.4901C172.161 34.4901 168.794 36.5224 166.123 40.3546V62.5353C167.632 63.5224 169.258 64.3933 170.652 64.9159C172.161 65.5546 173.555 65.7869 174.89 65.7869C177.794 65.7869 180.058 64.3933 181.684 61.6643C183.426 58.9353 184.297 54.8708 184.297 49.7611C184.297 44.4772 183.542 40.5869 181.916 38.0901C180.465 35.7095 178.49 34.4901 176.052 34.4901ZM176.458 73.2191C173.09 73.2191 169.665 72.2321 166.181 70.1998V86.7482C166.181 88.8966 165.832 90.4062 165.077 91.2772C164.323 92.1482 163.045 92.6707 161.187 92.6707H157.529L157.007 92.1482V27.9869L157.529 27.4643H160.432C163.452 27.4643 165.31 28.974 165.948 32.1095C169.432 28.4514 173.613 26.7095 178.49 26.7095C180.871 26.7095 183.136 27.2321 184.994 28.3353C186.852 29.4385 188.477 30.9482 189.871 32.9804C191.148 35.0127 192.136 37.5095 192.89 40.3546C193.645 43.2579 193.877 46.5095 193.877 50.1095C193.877 53.7675 193.355 57.0191 192.484 59.8643C191.613 62.7675 190.336 65.2643 188.71 67.1224C187.084 69.1546 185.226 70.6062 183.194 71.6514C181.103 72.6966 178.839 73.2191 176.458 73.2191Z" fill="#2978A1"></path><path d="M204.562 58.4127V37.3354C204.562 33.6773 204.039 31.0644 203.052 29.2063C204.562 27.8128 206.536 27.1741 208.916 27.1741C212.168 27.1741 213.91 29.2063 213.91 33.0386V55.974C213.91 59.1095 214.258 61.374 215.013 62.5934C215.768 63.9869 217.162 64.6256 219.136 64.6256C221.11 64.6256 223.142 64.1031 225.174 63.116C227.207 62.1289 229.065 60.7353 230.691 59.1095V27.6966C232.316 27.4644 233.942 27.3483 235.336 27.3483C236.729 27.3483 238.355 27.4644 240.097 27.6966V59.6902C240.097 63.9289 240.968 66.716 242.594 68.2256C241.955 70.374 240.736 71.9998 239.11 72.9869C235.336 72.3482 232.839 70.0837 231.445 66.4837C226.684 71.0127 221.691 73.1031 216.407 73.1031C212.4 73.1031 209.497 71.7095 207.523 69.0966C205.549 66.4256 204.562 62.8256 204.562 58.4127Z" fill="#2978A1"></path><path d="M266.865 65.3223H270.232C270.755 66.832 271.103 68.2256 271.103 69.3288C271.103 70.432 270.987 71.4772 270.871 72.0578C268.49 72.4062 265.878 72.6965 263.207 72.6965C257.168 72.6965 254.323 69.5611 254.323 63.4062V6.50305L254.961 5.98047H258.445C260.303 5.98047 261.581 6.50305 262.336 7.37401C263.09 8.24498 263.439 9.87078 263.439 11.903V61.3159C263.323 64.0449 264.6 65.3223 266.865 65.3223Z" fill="#2978A1"></path><path d="M276.619 69.0965C276.619 68.1094 276.968 66.9481 277.606 65.6127C278.245 64.3352 278.884 63.3482 279.755 62.5933C284.516 65.2062 288.406 66.5998 291.426 66.5998C294.445 66.5998 296.826 66.0772 298.219 65.0901C299.729 64.103 300.484 62.7095 300.484 61.0836C300.484 58.4708 298.626 56.4385 294.852 54.9288L289.858 53.0708C282.194 50.1675 278.477 45.9288 278.477 40.1805C278.477 36.0579 279.987 32.8063 283.006 30.4256C286.026 28.045 289.916 26.7676 294.677 26.7676C299.555 26.7676 304.432 27.8708 309.194 30.0192C309.194 31.2966 308.961 32.516 308.439 33.7934C307.916 35.1869 307.335 36.174 306.406 36.9289C302.168 34.8966 298.161 33.9095 294.387 33.9095C292.355 33.9095 290.903 34.4321 289.626 35.4192C288.523 36.4063 287.884 37.5676 287.884 39.0772C287.884 40.5869 288.232 41.574 289.161 42.445C290.032 43.1998 291.426 44.0708 293.4 44.8256L298.8 46.974C306.464 49.9934 310.355 54.5224 310.355 60.503C310.355 64.6256 308.729 67.8772 305.594 70.432C302.458 72.8127 298.045 74.0901 292.529 74.0901C286.897 73.5675 281.613 72.1159 276.619 69.0965Z" fill="#2978A1"></path><path d="M336.193 33.5032C330.445 33.5032 327.426 37.7419 326.903 46.2774H345.193V45.1161C345.193 41.7483 344.439 38.8451 342.929 36.6967C341.535 34.6064 339.329 33.5032 336.193 33.5032ZM353.613 53.0128H327.019C327.135 57.1354 328.122 60.387 329.632 62.5354C331.258 64.7999 333.871 65.9031 337.761 65.9031C339.503 65.9031 341.535 65.6709 343.509 65.1483C345.658 64.6257 347.748 63.7548 350.013 62.5354C351.522 63.929 352.509 65.9031 353.032 68.5741C348.271 71.9418 342.522 73.5677 335.961 73.5677C332.593 73.5677 329.69 72.9289 327.31 71.8257C324.929 70.5483 323.071 68.9225 321.561 66.8322C320.051 64.7419 319.064 62.187 318.31 59.2838C317.671 56.3806 317.322 53.2451 317.322 49.8774C317.322 46.6258 317.671 43.4903 318.6 40.587C319.471 37.6838 320.632 35.3032 322.258 33.2129C323.768 31.1806 325.742 29.5548 328.122 28.3354C330.387 27.2322 333 26.5935 335.903 26.5935C338.806 26.5935 341.419 27.1161 343.684 28.1032C345.948 29.0903 347.806 30.3677 349.432 32.1096C351.058 33.8516 352.161 35.8838 352.916 38.2645C353.671 40.6451 354.193 43.258 354.193 46.0451C354.193 47.3225 354.193 48.4257 354.077 49.529C353.961 50.6322 353.845 51.9096 353.613 53.0128Z" fill="#2978A1"></path><path d="M92.613 71.8257C92.4969 72.0579 92.3808 72.1741 92.2646 72.4644C92.3808 72.4644 92.4969 72.4644 92.613 72.3483V71.8257Z" fill="#484F55"></path></svg> 