<?xml version="1.0" encoding="UTF-8"?> <svg xmlns="http://www.w3.org/2000/svg" width="360" height="80" viewBox="0 0 360 80" fill="none"><path d="M191.929 15.6945C191.923 17.1449 191.487 18.5609 190.677 19.7639C189.867 20.9669 188.718 21.9028 187.377 22.4537C186.035 23.0045 184.56 23.1455 183.139 22.8589C181.717 22.5722 180.412 21.8708 179.388 20.8431C178.365 19.8154 177.669 18.5075 177.388 17.0846C177.108 15.6617 177.255 14.1875 177.811 12.8481C178.368 11.5087 179.308 10.3643 180.515 9.55909C181.721 8.75395 183.139 8.32422 184.589 8.32422C185.555 8.32622 186.511 8.51845 187.403 8.88993C188.294 9.26142 189.104 9.80486 189.785 10.4893C190.467 11.1736 191.007 11.9856 191.375 12.8787C191.743 13.7718 191.931 14.7286 191.929 15.6945Z" fill="#F4D400"></path><path d="M210.922 15.6945C210.916 17.1449 210.481 18.5609 209.67 19.7639C208.86 20.9669 207.712 21.9028 206.37 22.4537C205.029 23.0045 203.554 23.1455 202.132 22.8589C200.71 22.5722 199.405 21.8708 198.382 20.8431C197.358 19.8154 196.662 18.5075 196.382 17.0846C196.101 15.6617 196.248 14.1875 196.804 12.8481C197.361 11.5087 198.302 10.3643 199.508 9.55909C200.714 8.75395 202.132 8.32422 203.582 8.32422C204.548 8.32622 205.504 8.51845 206.396 8.88993C207.288 9.26142 208.097 9.80486 208.779 10.4893C209.46 11.1736 210 11.9856 210.368 12.8787C210.736 13.7718 210.924 14.7286 210.922 15.6945Z" fill="#F4D400"></path><path d="M140.628 40.6811L149.885 29.4291C150.555 28.622 150.175 27.7084 149.17 27.7084H142.227C141.861 27.7129 141.501 27.8004 141.174 27.9637C140.848 28.1273 140.562 28.3628 140.339 28.6524L134.005 36.7374V29.1244C134.035 28.9173 134.017 28.706 133.952 28.5071C133.886 28.3084 133.775 28.1278 133.627 27.9798C133.479 27.8318 133.298 27.7203 133.099 27.6548C132.9 27.5891 132.689 27.571 132.482 27.6019H127.396C127.189 27.5676 126.976 27.5834 126.776 27.6477C126.575 27.7122 126.393 27.8234 126.244 27.9721C126.095 28.1211 125.984 28.3032 125.92 28.5036C125.856 28.7038 125.84 28.9168 125.874 29.1244V55.2525C125.84 55.4601 125.856 55.6728 125.92 55.8732C125.984 56.0737 126.095 56.2558 126.244 56.4048C126.393 56.5535 126.575 56.6647 126.776 56.7292C126.976 56.7935 127.189 56.8093 127.396 56.775H132.512C132.72 56.8093 132.933 56.7935 133.133 56.7292C133.334 56.6647 133.516 56.5535 133.665 56.4048C133.814 56.2558 133.925 56.0737 133.989 55.8732C134.054 55.6728 134.069 55.4601 134.035 55.2525V45.1575L142.577 55.8157C142.765 56.1065 143.018 56.3487 143.317 56.5234C143.616 56.6979 143.952 56.7997 144.297 56.8207H151.515C151.708 56.8197 151.898 56.7633 152.061 56.6588C152.223 56.554 152.353 56.4053 152.434 56.2296C152.516 56.0541 152.546 55.8589 152.52 55.6669C152.495 55.4751 152.415 55.2943 152.291 55.1458L140.628 40.6811Z" fill="#0087E6"></path><path d="M283.984 27.5842H262.255C261.926 27.5842 261.611 27.7147 261.379 27.947C261.147 28.1793 261.016 28.4943 261.016 28.8228V34.4653C261.016 34.7937 261.147 35.1088 261.379 35.3411C261.611 35.5734 261.926 35.7038 262.255 35.7038H269.105V55.5823C269.105 55.9107 269.236 56.2258 269.468 56.458C269.701 56.6903 270.014 56.8208 270.343 56.8208H275.94C276.269 56.8208 276.585 56.6903 276.817 56.458C277.05 56.2258 277.178 55.9107 277.178 55.5823V35.7038H283.954C284.283 35.7038 284.596 35.5734 284.829 35.3411C285.061 35.1088 285.192 34.7937 285.192 34.4653V28.8228C285.192 28.4943 285.061 28.1793 284.829 27.947C284.596 27.7147 284.283 27.5842 283.954 27.5842" fill="#0087E6"></path><path d="M219.847 50.305H212.856V44.8319H219.847C224.125 44.8319 224.446 50.305 219.847 50.305ZM212.856 34.1154H218.13C218.74 34.1154 219.325 34.3576 219.756 34.7888C220.187 35.2202 220.43 35.8052 220.43 36.415C220.43 37.0249 220.187 37.6098 219.756 38.041C219.325 38.4725 218.74 38.7147 218.13 38.7147H212.856V34.1154ZM226.072 40.8611C231.238 35.8936 227.788 27.5842 219.847 27.5842H206.202C205.873 27.5842 205.557 27.715 205.324 27.948C205.091 28.1808 204.961 28.4968 204.961 28.826V55.5791C204.961 55.9082 205.091 56.2243 205.324 56.4571C205.557 56.6898 205.873 56.8208 206.202 56.8208H221.181C231.575 56.8208 234.35 44.8319 226.072 40.8611Z" fill="#0087E6"></path><path d="M198.56 28.826C198.56 28.4968 198.429 28.1808 198.196 27.948C197.963 27.715 197.647 27.5842 197.318 27.5842H190.863C190.534 27.5842 190.218 27.715 189.985 27.948C189.753 28.1808 189.622 28.4968 189.622 28.826V55.5791C189.622 55.9082 189.753 56.2243 189.985 56.4571C190.218 56.6898 190.534 56.8208 190.863 56.8208H197.318C197.647 56.8208 197.963 56.6898 198.196 56.4571C198.429 56.2243 198.56 55.9082 198.56 55.5791V28.826Z" fill="#0087E6"></path><path d="M328.523 41.0546H324.145V34.3193H328.415C331.293 34.3193 332.289 35.6663 332.289 37.6103C332.289 39.2788 331.523 41.0086 328.523 41.0086V41.0546ZM329.136 27.5842H317.225C316.897 27.5842 316.583 27.715 316.351 27.9475C316.116 28.18 315.987 28.4953 315.987 28.824V55.5808C315.987 55.9097 316.116 56.225 316.351 56.4576C316.583 56.6901 316.897 56.8208 317.225 56.8208H322.874C323.203 56.8208 323.519 56.6901 323.752 56.4576C323.984 56.225 324.115 55.9097 324.115 55.5808V47.6824H328.706C335.257 47.6824 340.231 44.2384 340.231 37.7176C340.231 31.5946 335.136 27.6302 329.042 27.6302" fill="#0087E6"></path><path d="M294.792 45.2945L297.999 35.7342L301.207 45.2945H294.792ZM313.332 55.2823L303.436 28.7093C303.342 28.3599 303.124 28.0557 302.825 27.8516C302.526 27.6473 302.163 27.5563 301.802 27.5944H294.273C293.912 27.5524 293.544 27.6416 293.242 27.8462C292.941 28.0508 292.721 28.357 292.624 28.7093L282.698 55.2823C282.597 55.4446 282.545 55.6322 282.547 55.8229C282.55 56.0137 282.607 56.1998 282.71 56.3597C282.814 56.5198 282.962 56.6468 283.135 56.7264C283.308 56.806 283.501 56.8349 283.691 56.8094H290.012C290.279 56.7951 290.536 56.7039 290.754 56.5467C290.971 56.3896 291.137 56.1734 291.236 55.9238L292.533 52.0293H303.436L304.721 55.9238C304.817 56.1734 304.982 56.3896 305.2 56.5467C305.417 56.7039 305.674 56.7951 305.941 56.8094H312.265C312.455 56.8383 312.648 56.8121 312.823 56.7338C313.001 56.6557 313.15 56.5287 313.256 56.3681C313.362 56.2075 313.419 56.0199 313.421 55.8274C313.426 55.6351 313.372 55.4459 313.271 55.2823" fill="#0087E6"></path><path d="M183.424 55.5791V28.826C183.424 28.4968 183.293 28.1808 183.06 27.948C182.827 27.715 182.511 27.5842 182.182 27.5842H176.05C175.821 27.5869 175.597 27.6455 175.396 27.7552C175.196 27.8647 175.025 28.0219 174.9 28.2129L163.402 43.8813V28.826C163.402 28.4968 163.271 28.1808 163.038 27.948C162.805 27.715 162.489 27.5842 162.16 27.5842H156.487C156.158 27.5842 155.842 27.715 155.609 27.948C155.376 28.1808 155.245 28.4968 155.245 28.826V55.5791C155.245 55.9082 155.376 56.2243 155.609 56.4571C155.842 56.6898 156.158 56.8208 156.487 56.8208H162.712C162.937 56.8156 163.159 56.7558 163.356 56.6463C163.554 56.5369 163.722 56.381 163.846 56.1922L175.344 40.5238V55.5791C175.344 55.9082 175.475 56.2243 175.708 56.4571C175.941 56.6898 176.257 56.8208 176.586 56.8208H182.244C182.574 56.8208 182.892 56.6906 183.127 56.458C183.362 56.2255 183.497 55.9097 183.501 55.5791H183.424Z" fill="#0087E6"></path><path d="M259.119 51.2765L255.77 47.7443C255.654 47.6009 255.507 47.4853 255.34 47.406C255.173 47.3264 254.991 47.2854 254.807 47.2856C254.495 47.2918 254.196 47.4114 253.966 47.6219C252.174 49.221 249.853 50.0983 247.451 50.0839C245.371 50.0839 243.376 49.2573 241.905 47.7863C240.434 46.3152 239.607 44.32 239.607 42.2396C239.607 40.1591 240.434 38.1637 241.905 36.6927C243.376 35.2216 245.371 34.3953 247.451 34.3953C249.852 34.372 252.174 35.2443 253.966 36.8417C254.192 37.0574 254.493 37.1777 254.807 37.1782C254.991 37.1782 255.173 37.1372 255.34 37.0579C255.507 36.9786 255.654 36.8629 255.77 36.7193L259.119 33.1871C259.337 32.962 259.458 32.6598 259.455 32.3462C259.456 32.1814 259.424 32.018 259.361 31.8658C259.298 31.7133 259.205 31.5752 259.088 31.4593C257.585 29.9247 255.788 28.7087 253.804 27.8836C251.821 27.0587 249.691 26.6419 247.543 26.6579C243.505 26.7844 239.675 28.4777 236.863 31.3788C234.052 34.2799 232.48 38.1612 232.48 42.2013C232.48 46.2413 234.052 50.1227 236.863 53.0238C239.675 55.9249 243.505 57.6181 247.543 57.7446C249.692 57.7736 251.825 57.3688 253.814 56.5543C255.803 55.7398 257.607 54.5324 259.119 53.0045C259.237 52.8896 259.331 52.7515 259.394 52.599C259.457 52.4466 259.488 52.2827 259.486 52.1177C259.489 51.8038 259.367 51.5018 259.149 51.2765H259.119Z" fill="#0087E6"></path><path d="M60.5335 30.3629L60.5103 30.3627C61.1933 30.3582 61.8689 30.2208 62.4993 29.9579C63.1371 29.6923 63.7161 29.3033 64.2036 28.8138C64.6909 28.3243 65.0772 27.7433 65.3403 27.1045C65.6033 26.4657 65.7377 25.7812 65.7362 25.0903V5.74252C65.8049 5.01482 65.7209 4.2808 65.4896 3.58745C65.258 2.89413 64.8844 2.25675 64.3924 1.71617C63.9007 1.17558 63.3012 0.743697 62.6325 0.448173C61.964 0.15265 61.2412 0 60.5103 0C59.7793 0 59.0565 0.15265 58.3878 0.448173C57.7194 0.743697 57.1199 1.17558 56.6279 1.71617C56.1359 2.25675 55.7623 2.89413 55.531 3.58745C55.2997 4.2808 55.2156 5.01482 55.2841 5.74252V25.0903C55.2826 25.7812 55.4173 26.4657 55.6802 27.1045C55.9431 27.7433 56.3294 28.3243 56.8169 28.8138C57.3042 29.3033 57.8835 29.6923 58.521 29.9579C59.1516 30.2208 59.8273 30.3582 60.5103 30.3627L60.487 30.3629H60.5335Z" fill="#0087E6"></path><path d="M48.2698 39.3162C48.06 39.9738 47.7227 40.5834 47.2766 41.1102C46.8306 41.6371 46.2847 42.0705 45.6706 42.3856C45.0566 42.7007 44.3863 42.8914 43.6983 42.9465C43.0103 43.0016 42.3182 42.9203 41.6617 42.7073L23.3591 36.7262C22.0445 36.2839 20.9574 35.3412 20.3331 34.1024C19.7089 32.8639 19.5978 31.4291 20.024 30.1093C20.4502 28.7895 21.3794 27.6906 22.6101 27.0511C23.8409 26.4115 25.2741 26.2825 26.5992 26.6925L44.9019 32.6733C46.2284 33.109 47.3278 34.053 47.9594 35.2984C48.5908 36.5436 48.7022 37.9885 48.2698 39.3162Z" fill="#0087E6"></path><path d="M73.7914 41.1137C73.3446 40.5861 73.0068 39.975 72.7973 39.3162C72.3678 37.9885 72.481 36.5451 73.1118 35.3004C73.743 34.0559 74.8404 33.1115 76.1652 32.6733L94.4794 26.6925C95.8044 26.2825 97.2377 26.4115 98.4685 27.0511C99.6991 27.6906 100.628 28.7895 101.055 30.1093C101.481 31.4291 101.37 32.8639 100.745 34.1024C100.121 35.3412 99.0342 36.2839 97.7195 36.7262L79.4169 42.7073C78.7596 42.9221 78.0664 43.0049 77.377 42.9505C76.6878 42.8961 76.0162 42.7058 75.4006 42.3908C74.7853 42.0755 74.2384 41.6415 73.7914 41.1137Z" fill="#0087E6"></path><path d="M35.4602 78.0241C34.332 77.1975 33.5766 75.958 33.359 74.5764C33.1415 73.1948 33.4793 71.783 34.2988 70.6498L45.6101 55.0531C46.0144 54.4946 46.5247 54.0216 47.1121 53.6608C47.6995 53.3001 48.3523 53.0589 49.0331 52.9511C49.7139 52.8432 50.4093 52.8706 51.0795 53.0322C51.7496 53.1936 52.3812 53.4856 52.9382 53.8916C54.0665 54.7182 54.8217 55.9577 55.0394 57.3393C55.2569 58.721 54.9191 60.1327 54.0997 61.2662L42.7998 76.8513C42.3946 77.41 41.8831 77.8832 41.2947 78.2443C40.7063 78.605 40.0526 78.8462 39.3708 78.9542C38.6891 79.0619 37.9928 79.0343 37.3217 78.8729C36.6507 78.7113 36.0181 78.419 35.4602 78.0125V78.0241Z" fill="#0087E6"></path><path d="M87.7079 74.5766C87.4902 75.9582 86.7348 77.1977 85.6067 78.0243V78.0708C85.0497 78.4768 84.4181 78.7691 83.7479 78.9305C83.0777 79.0918 82.3824 79.1193 81.7016 79.0115C81.0208 78.9035 80.3679 78.6623 79.7805 78.3016C79.1932 77.941 78.6829 77.4678 78.2786 76.9096L66.9673 61.2548C66.5601 60.6966 66.2667 60.0637 66.1041 59.3921C65.9415 58.7207 65.9129 58.0236 66.0196 57.341C66.1264 56.6583 66.3666 56.0034 66.7264 55.4136C67.0862 54.8237 67.5589 54.3107 68.1169 53.9035C68.6751 53.4962 69.3082 53.2029 69.9796 53.0403C70.6512 52.8777 71.3481 52.849 72.0306 52.9558C72.7134 53.0625 73.3682 53.3027 73.9581 53.6625C74.548 54.0226 75.061 54.495 75.4682 55.0533L86.7681 70.65C87.5875 71.7832 87.9253 73.195 87.7079 74.5766Z" fill="#0087E6"></path></svg> 