<?xml version="1.0" encoding="UTF-8"?> <svg xmlns="http://www.w3.org/2000/svg" width="360" height="67" viewBox="0 0 360 67" fill="none"><path fill-rule="evenodd" clip-rule="evenodd" d="M124.03 13.1326L120.695 31.8935V33.3527C120.695 36.0626 122.78 38.1471 125.906 38.1471C128.616 38.1471 131.326 36.4795 131.743 33.1442L135.287 13.1326H148.836L142.583 48.5698C140.498 60.4517 132.16 66.7053 121.737 66.7053C114.65 66.7053 107.145 63.9954 101.934 57.9502L109.647 48.7783L111.315 50.2374C114.441 52.7389 117.568 54.615 121.737 54.615C125.489 54.615 128.199 52.9474 129.242 48.3614V46.9022C126.601 48.7001 123.473 49.6458 120.278 49.6121C111.94 49.6121 106.729 43.7754 106.729 36.4795L107.145 32.3104L110.481 13.1326H124.03V13.1326ZM55.2404 13.1326C66.2884 13.1326 72.959 21.0539 72.959 30.0174C72.959 32.9358 72.1251 35.8541 71.2913 37.9387H46.6937C47.9445 41.0655 50.8628 42.3162 55.0319 42.3162C58.7025 42.2781 62.2979 41.2713 65.4546 39.3978L69.6237 48.3614C65.022 51.7207 59.4785 53.5442 53.7812 53.5727C41.2739 53.5727 33.1442 45.443 33.1442 34.6034C33.1442 22.7215 42.9415 13.1326 55.2404 13.1326V13.1326ZM28.1413 0L26.0568 13.9664L23.9722 25.223L22.0961 36.0626V37.7302C22.0961 41.0655 24.806 41.8993 29.6005 41.8993H32.7273L30.6427 53.1558L25.8483 53.5727C18.3439 53.5727 8.33813 51.4882 8.33813 40.2316C8.33813 38.9809 8.33813 37.5217 8.75504 36.0626L10.8396 25.223L14.5918 0H28.1413ZM97.765 0L95.6805 13.1326H105.895L103.81 24.1807H93.3875L91.303 36.0626V37.7302C91.303 41.0655 94.0129 41.8993 99.0158 41.8993H101.934L99.8496 53.1558L95.0551 53.5727C87.5508 53.5727 77.545 51.4882 77.545 40.2316L77.7534 36.0626L79.838 24.1807H74.0012L75.8773 13.1326H81.9225L84.424 0H97.765ZM54.615 23.5553C51.2797 23.5553 48.3614 25.6399 47.1106 29.392H60.6602C60.6602 25.6399 57.7418 23.5553 54.4065 23.5553H54.615Z" fill="#1976D2"></path><path fill-rule="evenodd" clip-rule="evenodd" d="M300.382 13.1326C310.597 13.1326 317.059 21.4708 317.059 31.2681C317.059 40.6486 310.805 53.5727 296.213 53.5727C291.002 53.5727 287.25 51.9051 285.165 49.1952L282.038 66.7053H268.697L277.869 13.9664H290.168L289.543 17.7186C292.044 14.5918 295.796 13.1326 300.382 13.1326V13.1326ZM250.562 13.1326C262.235 13.1326 270.99 21.4708 270.99 32.5188C270.99 44.6092 260.568 53.3643 248.477 53.3643C236.804 53.3643 228.257 45.0261 228.257 34.1865C228.257 22.3046 238.68 13.3411 250.562 13.3411V13.1326ZM336.445 13.1326C342.907 13.1326 348.118 15.6341 351.662 20.0116L344.158 27.5159C343.23 26.3938 342.089 25.4662 340.801 24.7865C339.513 24.1067 338.104 23.6883 336.653 23.5553C335.194 23.5553 334.569 24.1807 334.569 25.223C334.569 26.2652 335.194 26.6821 336.653 27.3075L339.989 28.5582C346.242 31.0597 350.411 34.3949 350.411 40.0232C350.411 45.6515 346.242 53.5727 334.569 53.5727C331.125 53.7129 327.704 52.9613 324.636 51.391C321.569 49.8206 318.959 47.4846 317.059 44.6092L324.98 37.3133C327.898 40.6486 330.817 43.15 334.777 43.15C336.445 43.15 337.904 42.5246 337.904 41.2739C337.904 40.4401 337.279 39.8147 335.82 39.1894L332.276 37.9387C326.022 35.4372 321.853 32.1019 321.853 25.6399C321.853 17.9271 328.107 13.1326 336.445 13.1326V13.1326ZM206.161 0.208454L202.826 17.0932C205.465 15.1111 208.699 14.0823 211.998 14.1749C220.128 14.1749 225.547 19.3862 225.547 27.3075L225.339 30.8512L221.17 53.5727H207.829L211.581 32.7273V30.6428C211.581 27.5159 209.496 25.6399 206.37 25.6399C203.451 25.6399 201.158 27.3075 200.533 31.0597L196.572 53.5727H183.023L192.612 0H206.161V0.208454ZM168.223 13.1326C174.685 13.1326 179.896 15.6341 183.648 20.0116L176.144 27.5159C175.192 26.3698 174.018 25.4281 172.692 24.7474C171.367 24.0668 169.917 23.6613 168.431 23.5553C166.972 23.5553 166.346 24.1807 166.346 25.223C166.346 26.2652 166.972 26.6821 168.431 27.3075L171.975 28.5582C178.228 31.0597 182.397 34.3949 182.397 40.0232C182.397 45.6515 178.228 53.5727 166.555 53.5727C163.077 53.7495 159.613 53.0157 156.505 51.4436C153.398 49.8716 150.754 47.5158 148.836 44.6092L156.966 37.5217C159.884 40.857 162.803 43.3585 166.763 43.3585C168.431 43.3585 170.099 42.7331 170.099 41.4824C170.099 40.6486 169.265 40.0232 168.014 39.3978L164.262 38.1471C158.008 35.6457 153.839 32.3104 153.839 25.8483C153.839 18.1355 160.093 13.3411 168.431 13.3411L168.223 13.1326ZM296.005 25.223C293.793 25.223 291.673 26.1014 290.109 27.6651C288.545 29.2289 287.667 31.3497 287.667 33.5611C287.667 38.3556 290.794 41.4824 295.171 41.4824C299.757 41.4824 303.301 37.5217 303.301 32.7273C303.301 28.1413 300.382 25.223 296.005 25.223V25.223ZM250.145 25.223C245.559 25.223 242.015 28.9751 241.807 33.978C241.807 38.3556 244.934 41.4824 249.103 41.4824C251.278 41.428 253.346 40.5255 254.864 38.9677C256.383 37.4098 257.233 35.32 257.232 33.1442C257.232 28.3498 254.106 25.223 250.145 25.223V25.223Z" fill="#FCD31B"></path></svg> 