<?xml version="1.0" encoding="UTF-8"?> <svg xmlns="http://www.w3.org/2000/svg" width="360" height="88" viewBox="0 0 360 88" fill="none"><rect width="360" height="88.0002" fill="black"></rect><path fill-rule="evenodd" clip-rule="evenodd" d="M34.9569 53.145V42.6043C34.9569 39.6142 33.3563 38.1947 30.6683 38.1947C28.4333 38.1947 26.5005 39.5237 25.6547 40.8525C25.111 39.1914 23.752 38.1947 21.6077 38.1947C19.3726 38.1947 17.4398 39.584 16.8357 40.4598V38.5573H13V53.145H16.8357V43.3293C17.4096 42.5138 18.527 41.6077 19.8558 41.6077C21.4264 41.6077 22.0304 42.5741 22.0304 43.9333V53.145H25.8963V43.299C26.44 42.5138 27.5574 41.6077 28.9165 41.6077C30.487 41.6077 31.091 42.5741 31.091 43.9333L31.0912 53.145H34.9569ZM45.4976 53.5074C40.6955 53.5074 37.796 50.0038 37.796 45.836C37.796 41.6982 40.6953 38.1949 45.4976 38.1949C50.3299 38.1949 53.2294 41.6984 53.2294 45.836C53.2294 50.0038 50.3301 53.5074 45.4976 53.5074ZM45.4976 50.0946C47.8835 50.0946 49.2427 48.1314 49.2427 45.836C49.2427 43.5709 47.8837 41.6077 45.4976 41.6077C43.1115 41.6077 41.7827 43.5709 41.7827 45.836C41.7827 48.1314 43.1117 50.0946 45.4976 50.0946ZM69.75 53.145V42.8459C69.75 40.0069 68.2097 38.1947 65.0083 38.1947C62.6224 38.1947 60.8404 39.3424 59.9041 40.4598V38.5573H56.0683V53.145H59.9041V43.3293C60.5384 42.4534 61.7163 41.6077 63.2264 41.6077C64.8572 41.6077 65.9144 42.3024 65.9144 44.3259V53.145H69.75V53.145ZM80.3207 53.5074C75.5187 53.5074 72.6192 50.0038 72.6192 45.836C72.6192 41.6982 75.5185 38.1949 80.3207 38.1949C85.1531 38.1949 88.0526 41.6984 88.0526 45.836C88.0526 50.0038 85.1532 53.5074 80.3207 53.5074ZM80.3207 50.0946C82.7067 50.0946 84.0659 48.1314 84.0659 45.836C84.0659 43.5709 82.7068 41.6077 80.3207 41.6077C77.9347 41.6077 76.6059 43.5709 76.6059 45.836C76.6059 48.1314 77.9348 50.0946 80.3207 50.0946ZM94.7271 48.4635C95.3614 49.3998 96.7809 50.0944 98.0191 50.0944C100.254 50.0944 101.734 48.403 101.734 45.8661C101.734 43.3291 100.254 41.6075 98.0191 41.6075C96.7809 41.6075 95.3614 42.3323 94.7271 43.2989V48.4635ZM94.7271 53.145H90.8915V33H94.7271V40.4297C95.8748 38.9499 97.5057 38.1947 99.2273 38.1947C102.942 38.1947 105.691 41.0941 105.691 45.8661C105.691 50.7286 102.912 53.5072 99.2273 53.5072C97.4756 53.5072 95.8748 52.7219 94.7271 51.2722V53.145V53.145ZM121.184 53.145H117.349V51.6349C116.352 52.8128 114.63 53.5074 112.728 53.5074C110.402 53.5074 107.654 51.9368 107.654 48.675C107.654 45.2622 110.402 43.9635 112.728 43.9635C114.661 43.9635 116.382 44.5978 117.349 45.7454V43.7822C117.349 42.3024 116.08 41.3358 114.147 41.3358C112.577 41.3358 111.127 41.9098 109.889 43.0574L108.439 40.4902C110.221 38.9197 112.516 38.1949 114.812 38.1949C118.134 38.1949 121.184 39.5238 121.184 43.7219L121.184 53.145V53.145ZM114.268 50.9099C115.506 50.9099 116.714 50.487 117.349 49.6414V47.8293C116.714 46.9837 115.506 46.5608 114.268 46.5608C112.758 46.5608 111.52 47.3461 111.52 48.7656C111.52 50.1246 112.758 50.9099 114.268 50.9099V50.9099ZM138.671 53.145V42.8459C138.671 40.0069 137.131 38.1947 133.93 38.1947C131.544 38.1947 129.762 39.3424 128.826 40.4598V38.5573H124.99V53.145H128.826V43.3293C129.46 42.4534 130.638 41.6077 132.148 41.6077C133.779 41.6077 134.836 42.3024 134.836 44.3259V53.145H138.671V53.145ZM156.732 53.145L150.783 45.1715L156.551 38.5573H151.84L146.313 45.0507V33H142.477V53.145H146.313V49.3998L148.064 47.5274L151.93 53.145H156.732V53.145Z" fill="white"></path><path fill-rule="evenodd" clip-rule="evenodd" d="M336.737 37.0517H339.879V47.046H340.056L344.142 42.2451L347.04 42.2376L342.558 47.4852L347.958 54.0479H344.339L339.924 47.9395H339.879V54.0479H336.737V37.0517ZM187.359 37.8118V47.1317C187.359 50.3067 188.299 52.042 190.933 52.042C193.454 52.042 194.462 49.9379 194.462 47.3153V37.8118H197.431V47.8957C197.431 51.9956 194.746 54.3187 190.84 54.3187C186.367 54.3187 184.042 52.158 184.042 47.7334L184.042 37.8118H187.359ZM204.373 43.8157C205.436 42.7045 206.916 42.1709 208.401 42.1709C211.154 42.1709 212.612 43.6507 212.612 46.5715V54.0377L209.487 54.0379V46.9227C209.487 45.2981 208.758 44.2309 207.131 44.2309C205.601 44.2309 204.399 45.2288 204.399 47.1315V54.0377L201.271 54.0379V42.4465H204.373V43.8157ZM216.289 54.0379H219.419V42.4465H216.289V54.0379ZM215.982 38.9707C215.982 38.091 216.733 37.185 217.797 37.185C218.879 37.185 219.722 38.067 219.722 38.9707C219.722 39.9661 218.997 40.9174 217.842 40.9174C216.734 40.9174 215.982 39.9661 215.982 38.9707ZM226.342 54.0379L221.334 42.3974H224.65C225.664 45.064 226.716 47.5721 227.703 50.7936L227.751 50.7937C228.814 47.5721 229.814 45.0641 230.895 42.3976L233.831 42.3974L228.528 54.0379H226.342ZM243.144 46.8536C243.266 45.0867 242.629 43.8849 241.08 43.8849C239.284 43.8849 238.479 45.2982 238.513 46.8536H243.144ZM238.461 48.5222C238.391 50.703 239.943 52.3227 241.897 52.3227C243.057 52.3227 244.275 51.9288 245.055 51.394L245.949 53.0187C244.348 53.9449 242.674 54.3187 241.334 54.3187C237.779 54.3187 235.121 51.8358 235.121 48.0115C235.121 44.4401 237.754 42.1712 241.121 42.1712C244.793 42.1712 246.325 45.0669 246.093 48.5225L238.461 48.5222ZM252.236 44.4864H252.28L252.917 43.5829C253.267 43.0707 253.974 42.1709 254.939 42.1709C255.645 42.1709 256.401 42.5421 257.061 43.2115L255.88 45.3445C255.363 45.0865 255.032 44.9505 254.4 44.9505C253.317 44.9505 252.258 45.8088 252.258 48.3105V54.0376L249.119 54.0379V42.4465H252.236V44.4864ZM265.415 44.6249C264.711 44.1153 263.981 43.8849 263.412 43.8849C262.707 43.8849 262 44.2776 262 45.0665C262 45.9941 263.133 46.5288 264.449 47.4752C266.125 48.7097 266.615 49.914 266.615 50.9748C266.615 52.6033 264.8 54.3185 262.215 54.3185C260.589 54.3185 259.39 53.7598 258.286 52.9959L259.274 51.394C259.976 51.954 260.987 52.5065 261.832 52.5065C262.733 52.5065 263.53 52.0422 263.53 51.0694C263.53 49.9796 262.304 49.378 261.178 48.5891C259.835 47.6869 258.92 46.8046 258.92 45.3701C258.92 43.5353 260.705 42.1712 263.01 42.1712C264.31 42.1712 265.578 42.4933 266.431 43.2384L265.415 44.6249ZM274.332 47.8717C272.805 48.3587 272.028 49.2156 272.028 50.5358C272.028 51.5577 272.688 52.2536 273.447 52.2536C274.689 52.2536 276.315 50.722 276.082 47.3155L274.332 47.8717ZM275.327 52.9267C274.477 53.6225 273.395 54.3185 272.315 54.3185C270.478 54.3185 268.943 52.9267 268.943 50.7937C268.943 48.5889 270.571 47.3621 273.303 46.5717L276.082 45.76C275.918 44.6953 274.949 44.0246 273.942 44.0246C272.596 44.0246 271.653 44.5117 270.83 45.2075L269.815 43.7465C271.278 42.5649 272.71 42.171 274.332 42.171C276.503 42.171 279.165 42.8619 279.165 46.4824V51.2091C279.165 52.1377 279.279 53.23 279.659 54.038L276.341 54.0379C276.099 53.6427 276.033 52.9732 276.033 52.3465L275.327 52.9267ZM282.672 54.0379H285.806V37H282.672V54.0379ZM313.532 47.8717C312 48.3587 311.223 49.2156 311.223 50.5358C311.223 51.5577 311.879 52.2536 312.636 52.2536C313.879 52.2536 315.506 50.722 315.277 47.3155L313.532 47.8717ZM314.514 52.9267C313.671 53.6225 312.586 54.3185 311.503 54.3185C309.669 54.3185 308.135 52.9267 308.135 50.7937C308.135 48.5889 309.761 47.3621 312.496 46.5717L315.277 45.76C315.104 44.6953 314.144 44.0246 313.125 44.0246C311.787 44.0246 310.843 44.5117 310.02 45.2075L309.008 43.7465C310.467 42.5649 311.906 42.171 313.533 42.171C315.693 42.171 318.351 42.8619 318.351 46.4824V51.2091C318.351 52.1377 318.468 53.23 318.843 54.038L315.53 54.0379C315.297 53.6427 315.219 52.9732 315.219 52.3465L314.514 52.9267ZM324.968 43.8157C326.029 42.7045 327.514 42.1709 328.995 42.1709C331.748 42.1709 333.207 43.6507 333.207 46.5715V54.0377L330.077 54.0379V46.9227C330.077 45.2981 329.347 44.2309 327.722 44.2309C326.191 44.2309 324.992 45.2288 324.992 47.1315V54.0377L321.862 54.0379V42.4465H324.968V43.8157ZM297.226 52.086H298.92C300.757 52.086 302.15 51.1372 302.15 49.3313C302.15 47.4286 300.713 46.6182 298.901 46.6182H297.226V52.086ZM297.226 44.6249H298.267C300.176 44.6249 301.472 43.4206 301.472 41.9105C301.472 40.476 300.383 39.8518 298.949 39.8518L297.224 39.8517L297.226 44.6249ZM293.91 54.0819V37.8558H299.867C302.642 37.8558 304.599 39.1067 304.599 41.309C304.599 43.9038 302.457 44.9734 301.304 45.2729V45.3195C303.353 45.4139 305.633 46.8019 305.633 49.2822C305.633 52.086 303.254 54.0819 299.375 54.0819H293.91Z" fill="#CBCBCB"></path><path fill-rule="evenodd" clip-rule="evenodd" d="M169.659 29H170.918V59.2022H169.659V29Z" fill="#616161"></path></svg> 