<?xml version="1.0" encoding="UTF-8"?> <svg xmlns="http://www.w3.org/2000/svg" width="360" height="180" viewBox="0 0 360 180" fill="none"><path d="M309.657 28.0203V35.0405H322.293H334.929V47.6769V60.3132H341.95H348.97V40.6567V21.0001H329.313H309.657V28.0203Z" fill="#A64056"></path><path d="M12 101.03V160H32.3586H52.7172L52.998 133.604L53.4192 107.348L68.7232 130.234C77.1475 142.73 84.5889 152.559 85.0101 151.997C85.5717 151.295 92.5919 141.045 100.595 129.111L115.197 107.348L115.618 133.604L115.899 160H136.258H156.616V101.03V41.9202L136.819 42.3414L116.882 42.7626L101.157 67.7546C92.4515 81.5141 85.0101 92.8869 84.5889 93.0273C84.0273 93.1677 76.5859 81.9354 67.7404 68.0354L51.8747 42.7626L31.9374 42.3414L12 41.9202V101.03Z" fill="#002B4B"></path><path d="M163.636 59.6111V77.1616H182.591H201.545V118.581V160H221.904H242.263V118.581V77.1616H261.217H280.172V59.6111V42.0606H221.904H163.636V59.6111Z" fill="#002B4B"></path><path d="M287.192 101.03V160H307.55H327.909V101.03V42.0606H307.55H287.192V101.03Z" fill="#002B4B"></path></svg> 