<?xml version="1.0" encoding="UTF-8"?> <svg xmlns="http://www.w3.org/2000/svg" width="160" height="58" viewBox="0 0 160 58" fill="none"><path fill-rule="evenodd" clip-rule="evenodd" d="M70.0311 9.67749C70.0311 9.67749 70.0311 9.67749 73.4006 9.67749C74.639 9.67749 75.2437 10.2823 75.2437 11.6646C75.2437 11.6646 75.2437 11.6646 75.2437 16.5028C75.2437 16.5028 75.2437 16.5028 81.8387 16.5028C81.8387 16.5028 81.8387 16.5028 81.8387 11.6646C81.8387 10.2823 82.4435 9.67749 83.8258 9.67749C83.8258 9.67749 83.8258 9.67749 87.0513 9.67749C87.0513 9.67749 87.0513 9.67749 87.0513 12.8742C87.0513 12.8742 87.0513 12.8742 85.6689 12.8742L85.5249 13.0182C85.5249 13.0182 85.5249 13.0182 85.5249 26.6688C85.5249 26.6688 85.5249 26.6688 81.8387 26.6688C81.8387 26.6688 81.8387 26.6688 81.8387 19.8435C81.8387 19.8435 81.8387 19.8435 75.2437 19.8435C75.2437 19.8435 75.2437 19.8435 75.2437 26.6688C75.2437 26.6688 75.2437 26.6688 71.5575 26.6688C71.5575 26.6688 71.5575 26.6688 71.5575 13.0182C71.5575 13.0182 71.5575 12.8742 71.4135 12.8742C71.4135 12.8742 71.4135 12.8742 70.0311 12.8742C70.0311 12.8742 70.0311 12.8742 70.0311 9.67749Z" fill="#ED1C24"></path><path fill-rule="evenodd" clip-rule="evenodd" d="M96.6983 9.38794H96.7847V12.9014L96.6983 12.8726C93.9336 12.8726 91.8025 15.1477 91.8025 18.0276C91.8025 21.0515 93.9336 23.4994 96.6983 23.4994L96.7847 23.4706V26.9553L96.6983 26.9841C91.8025 26.9841 87.7994 23.0386 87.7994 18.0276C87.7994 13.1894 91.8025 9.38794 96.6983 9.38794Z" fill="#ED1C24"></path><path fill-rule="evenodd" clip-rule="evenodd" d="M96.7866 9.38794L98.4857 9.56073C102.546 10.3383 105.599 13.7942 105.599 18.0276C105.599 22.405 102.546 25.9761 98.4857 26.7825L96.7866 26.9553V23.4706L98.6585 23.0674C100.473 22.2322 101.769 20.3027 101.769 18.0276C101.769 15.8677 100.473 14.0534 98.6585 13.2758L96.7866 12.9014V9.38794Z" fill="#ED1C24"></path><path fill-rule="evenodd" clip-rule="evenodd" d="M106.347 9.67749C106.347 9.67749 106.347 9.67749 111.502 9.67749H113.95V12.8742H113.72C113.403 12.8742 112.798 12.8742 111.56 12.8742C111.56 12.8742 111.56 12.8742 111.56 16.3588C111.56 16.3588 111.56 16.3588 112.597 16.3588H113.95V19.3827H113.173C112.769 19.3827 112.251 19.3827 111.56 19.3827C111.56 19.3827 111.56 19.3827 111.56 23.1842C111.56 23.3282 111.56 23.3282 111.733 23.3282C111.733 23.3282 111.733 23.3282 112.827 23.3282H113.95V26.6688H113.633C113.057 26.6688 111.963 26.6688 109.745 26.6688C108.507 26.6688 107.902 26.0641 107.902 24.7105V12.8742C107.902 12.8742 107.902 12.8742 106.347 12.8742C106.347 12.8742 106.347 12.8742 106.347 9.67749Z" fill="#ED1C24"></path><path fill-rule="evenodd" clip-rule="evenodd" d="M113.95 9.67749H114.008C117.406 9.67749 119.393 11.5206 119.393 14.2565C119.393 15.898 118.616 16.9636 117.867 17.7412C119.249 18.346 120.142 19.8435 120.142 21.5138C120.142 24.7105 117.694 26.6688 114.181 26.6688C114.181 26.6688 114.181 26.6688 114.123 26.6688H113.95V23.3282H114.325C115.563 23.3282 116.312 22.5794 116.312 21.3698C116.312 20.1603 115.563 19.3827 114.325 19.3827C114.325 19.3827 114.325 19.3827 113.979 19.3827H113.95V16.3588H114.008C115.102 16.3588 115.707 15.6101 115.707 14.5445C115.707 13.4789 115.102 12.8742 114.008 12.8742C114.008 12.8742 114.008 12.8742 113.979 12.8742H113.95V9.67749Z" fill="#ED1C24"></path><path fill-rule="evenodd" clip-rule="evenodd" d="M127.198 9.67749C127.198 9.67749 127.198 9.67749 128.753 9.67749H129.041V14.5445C128.897 14.8613 128.725 15.2933 128.725 15.7541C128.725 15.7541 128.725 15.7541 127.515 19.2387C127.515 19.2387 127.515 19.2387 128.811 19.2387H129.041V22.4354H128.206C127.745 22.4354 127.198 22.4354 126.593 22.4354C126.593 22.4354 126.593 22.4354 125.528 25.1713C125.211 26.2081 124.606 26.6688 123.368 26.6688C123.368 26.6688 123.368 26.6688 121.064 26.6688C121.064 26.6688 121.064 26.6688 121.064 23.3282C121.064 23.3282 121.064 23.3282 121.842 23.3282C122.158 23.3282 122.158 23.3282 122.302 23.1842C122.302 23.1842 122.302 23.1842 127.198 9.67749Z" fill="#ED1C24"></path><path fill-rule="evenodd" clip-rule="evenodd" d="M129.04 9.67749H130.883C130.883 9.67749 130.883 9.67749 135.779 23.1842C135.923 23.3282 135.923 23.3282 136.24 23.3282C136.24 23.3282 136.24 23.3282 136.845 23.3282C136.845 23.3282 136.845 23.3282 136.845 26.6688C136.845 26.6688 136.845 26.6688 134.714 26.6688C133.475 26.6688 132.87 26.2081 132.554 24.9985C132.554 24.9985 132.554 24.9985 131.488 22.4354C131.488 22.4354 131.488 22.4354 129.415 22.4354H129.04V19.2387H130.567C130.567 19.2387 130.567 19.2387 129.357 15.7541C129.357 15.2933 129.184 14.8613 129.04 14.5445V9.67749Z" fill="#ED1C24"></path><path fill-rule="evenodd" clip-rule="evenodd" d="M70.0311 31.5063C70.0311 31.5063 70.0311 31.5063 83.365 31.5063C84.6034 31.5063 85.3521 32.1399 85.3521 33.4935C85.3521 33.4935 85.3521 33.4935 85.3521 45.013C85.3521 45.157 85.3521 45.157 85.5249 45.157C85.5249 45.157 85.5249 45.157 86.7345 45.157C86.7345 45.157 86.7345 45.157 86.7345 48.4977C86.7345 48.4977 86.7345 48.4977 83.5378 48.4977C82.1555 48.4977 81.5219 47.8929 81.5219 46.5394C81.5219 46.5394 81.5219 46.5394 81.5219 34.8758C81.5219 34.8758 81.5219 34.703 81.3779 34.703C81.3779 34.703 81.3779 34.703 75.2437 34.703C75.2437 34.703 75.2437 34.703 75.2437 48.4977C75.2437 48.4977 75.2437 48.4977 71.5575 48.4977C71.5575 48.4977 71.5575 48.4977 71.5575 34.703C71.5575 34.703 71.5575 34.703 70.0311 34.703C70.0311 34.703 70.0311 34.703 70.0311 31.5063Z" fill="#ED1C24"></path><path fill-rule="evenodd" clip-rule="evenodd" d="M96.4109 31.2178H96.4685V34.7312L96.4109 34.7024C93.6174 34.7024 91.4863 36.9776 91.4863 39.8574C91.4863 42.8813 93.6174 45.3292 96.4109 45.3292L96.4685 45.3004V48.7851L96.4109 48.8139C91.4863 48.8139 87.6561 44.8684 87.6561 39.8574C87.6561 35.0192 91.4863 31.2178 96.4109 31.2178Z" fill="#ED1C24"></path><path fill-rule="evenodd" clip-rule="evenodd" d="M96.4686 31.2178L98.2253 31.3906C102.344 32.1681 105.281 35.624 105.281 39.8574C105.281 44.2349 102.344 47.8059 98.2253 48.6123L96.4686 48.7851V45.3004L98.4269 44.8972C100.241 44.0621 101.451 42.1326 101.451 39.8574C101.451 37.6975 100.241 35.8832 98.4269 35.1056L96.4686 34.7312V31.2178Z" fill="#ED1C24"></path><path fill-rule="evenodd" clip-rule="evenodd" d="M106.059 31.5063C106.059 31.5063 106.059 31.5063 109.428 31.5063C110.666 31.5063 111.271 32.1399 111.271 33.4935C111.271 33.4935 111.271 33.4935 111.271 45.013C111.271 45.157 111.271 45.157 111.415 45.157C111.415 45.157 111.415 45.157 115.85 45.157C115.85 45.157 115.85 45.157 115.85 31.5063C115.85 31.5063 115.85 31.5063 119.536 31.5063C119.536 31.5063 119.536 31.5063 119.536 45.157C119.536 45.157 119.536 45.157 124 45.157C124.144 45.157 124.144 45.157 124.144 45.013C124.144 45.013 124.144 45.013 124.144 33.4935C124.144 32.1399 124.749 31.5063 125.987 31.5063C125.987 31.5063 125.987 31.5063 129.357 31.5063C129.357 31.5063 129.357 31.5063 129.357 34.703C129.357 34.703 129.357 34.703 127.975 34.703C127.802 34.703 127.802 34.8758 127.802 34.8758C127.802 34.8758 127.802 34.8758 127.802 46.5394C127.802 47.8929 127.197 48.4977 125.987 48.4977C125.987 48.4977 125.987 48.4977 109.572 48.4977C108.19 48.4977 107.585 47.8929 107.585 46.5394C107.585 46.5394 107.585 46.5394 107.585 34.8758C107.585 34.8758 107.585 34.703 107.441 34.703C107.441 34.703 107.441 34.703 106.059 34.703C106.059 34.703 106.059 34.703 106.059 31.5063Z" fill="#ED1C24"></path><path fill-rule="evenodd" clip-rule="evenodd" d="M132.267 31.5063C132.267 31.5063 132.267 31.5063 143.758 31.5063C145.14 31.5063 145.601 32.1399 145.601 33.3495C145.601 33.3495 145.601 33.3495 145.601 36.2294H142.231C142.231 36.2294 142.231 36.2294 142.231 34.8758C142.231 34.703 142.231 34.703 142.059 34.703C142.059 34.703 142.059 34.703 139.927 34.703C139.927 34.703 139.927 34.703 139.927 48.4977C139.927 48.4977 139.927 48.4977 136.241 48.4977C136.241 48.4977 136.241 48.4977 136.241 34.703C136.241 34.703 136.241 34.703 134.11 34.703C133.937 34.703 133.937 34.703 133.937 34.8758C133.937 34.8758 133.937 34.8758 133.937 36.2294C133.937 36.2294 133.937 36.2294 130.568 36.2294C130.568 36.2294 130.568 36.2294 130.568 33.3495C130.568 32.1399 131.029 31.5063 132.267 31.5063Z" fill="#ED1C24"></path><path fill-rule="evenodd" clip-rule="evenodd" d="M150.353 31.5063C150.353 31.5063 150.353 31.5063 151.908 31.5063H152.196V36.3734C152.023 36.6902 151.879 37.1221 151.879 37.5829C151.879 37.5829 151.879 37.5829 150.641 41.0676C150.641 41.0676 150.641 41.0676 151.937 41.0676H152.196V44.2643H151.361C150.871 44.2643 150.353 44.2643 149.719 44.2643C149.719 44.2643 149.719 44.2643 148.653 46.8274C148.366 48.0369 147.732 48.4977 146.522 48.4977C146.522 48.4977 146.522 48.4977 144.218 48.4977C144.218 48.4977 144.218 48.4977 144.218 45.157C144.218 45.157 144.218 45.157 144.996 45.157C145.284 45.157 145.284 45.157 145.457 45.013C145.457 45.013 145.457 45.013 150.353 31.5351V31.5063Z" fill="#ED1C24"></path><path fill-rule="evenodd" clip-rule="evenodd" d="M152.196 31.5063H154.011C154.011 31.5063 154.011 31.5063 158.935 45.013C159.079 45.157 159.079 45.157 159.396 45.157H160.001C160.001 45.157 160.001 45.157 160.001 48.4977C160.001 48.4977 160.001 48.4977 157.87 48.4977C156.631 48.4977 156.027 48.0369 155.71 46.8274C155.71 46.8274 155.71 46.8274 154.644 44.2643C154.644 44.2643 154.644 44.2643 152.571 44.2643H152.196V41.0676H153.723C153.723 41.0676 153.723 41.0676 152.484 37.5829C152.484 37.1221 152.34 36.6902 152.196 36.3734V31.5063Z" fill="#ED1C24"></path><path fill-rule="evenodd" clip-rule="evenodd" d="M46.4166 16.9049C46.5894 16.8473 46.8198 16.9625 47.0502 17.2793C47.0502 17.2793 47.0502 17.2793 57.4754 27.4165C58.0801 28.0213 58.0801 28.9428 57.4754 29.4036C57.4754 29.4036 57.4754 29.4036 47.0502 39.7136C46.8198 40.0016 46.5894 40.088 46.4166 40.0016C46.2438 39.9152 46.1286 39.6272 46.1286 39.2528V17.5673C46.1286 17.1929 46.2438 16.9625 46.4166 16.9049Z" fill="#ED1C24"></path><path fill-rule="evenodd" clip-rule="evenodd" d="M28.5883 0H29.337L30.0282 0.287989C30.0282 0.287989 30.0282 0.287989 40.7702 10.9148C41.231 11.5196 41.0582 11.9515 40.3094 11.9515C40.3094 11.9515 40.3094 11.9515 35.8456 11.9515C35.0968 11.9515 34.4632 12.5851 34.4632 13.3339C34.4632 13.3339 34.4632 13.3339 34.4632 21.2248C34.4632 21.9736 33.8585 22.5783 32.9369 22.5783C32.9369 22.5783 32.9369 22.5783 25.1324 22.5783C24.3548 22.5783 23.75 21.9736 23.75 21.2248C23.75 21.2248 23.75 21.2248 23.75 13.3339C23.75 12.5851 23.1453 11.9515 22.3677 11.9515H17.6159C16.8383 11.9515 16.6943 11.5196 17.1551 10.9148C17.1551 10.9148 17.1551 10.9148 27.8971 0.287989L28.5883 0Z" fill="#ED1C24"></path><path fill-rule="evenodd" clip-rule="evenodd" d="M11.8003 16.6753C11.9731 16.7905 12.0883 17.0497 12.0883 17.424V39.5416C12.0883 39.9448 11.9731 40.1752 11.8003 40.2328C11.5988 40.3192 11.3396 40.2328 11.0228 40.0024C11.0228 40.0024 11.0228 40.0024 0.453583 29.4044C-0.151194 28.9436 -0.151194 28.022 0.453583 27.4173C0.453583 27.4173 0.453583 27.4173 11.0228 16.9633C11.3396 16.6753 11.5988 16.5889 11.8003 16.6753Z" fill="#ED1C24"></path><path fill-rule="evenodd" clip-rule="evenodd" d="M25.1357 34.0984C25.1357 34.0984 25.1357 34.0984 32.9402 34.0984C33.8618 34.0984 34.4953 34.7032 34.4953 35.4807C34.4953 35.4807 34.4953 35.4807 34.4953 43.8036C34.4953 44.7252 35.1001 45.33 35.8489 45.33H39.9959C40.7735 45.33 41.0615 45.7619 40.4567 46.2227C40.4567 46.2227 40.4567 46.2227 30.0315 56.6767C29.7147 56.9935 29.3403 57.1375 28.966 57.1375C28.5916 57.1375 28.1884 56.9935 27.9004 56.6767C27.9004 56.6767 27.9004 56.6767 17.4752 46.2227C16.8416 45.7619 17.1584 45.33 17.9072 45.33C17.9072 45.33 17.9072 45.33 22.371 45.33C23.1486 45.33 23.7534 44.7252 23.7534 43.8036C23.7534 43.8036 23.7534 43.8036 23.7534 35.4807C23.7534 34.7032 24.3581 34.0984 25.1357 34.0984Z" fill="#ED1C24"></path></svg> 