<?xml version="1.0" encoding="UTF-8"?> <svg xmlns="http://www.w3.org/2000/svg" width="360" height="180" viewBox="0 0 360 180" fill="none"><path d="M158.149 56.0631L127.914 85.2317V56.2269H112.52V123.201H127.914V104.667L138.897 94.2665L158.774 123.201H178.973L151.059 82.8222L177.598 56.0649H158.149V56.0631ZM236.925 56.0631L206.69 85.2317V56.2269H191.296V123.201H206.69V104.667L217.673 94.2665L237.55 123.201H257.749L229.835 82.8222L256.392 56.0649H236.925V56.0631ZM98.929 73.7712C97.8732 69.4651 95.6699 65.5315 92.5571 62.3951C89.4443 59.2588 85.5402 57.0388 81.2665 55.975C70.8797 53.3417 60.0072 53.3417 49.6204 55.975C45.3467 57.0388 41.4427 59.2588 38.3298 62.3951C35.217 65.5315 33.0137 69.4651 31.9579 73.7712C29.3474 84.237 29.3474 95.191 31.9579 105.657C33.0152 109.965 35.2212 113.9 38.3373 117.037C41.4535 120.173 45.3613 122.392 49.6383 123.453C60.025 126.087 70.8976 126.087 81.2844 123.453C85.558 122.389 89.4619 120.169 92.5747 117.033C95.6875 113.896 97.8909 109.963 98.9469 105.657C101.557 95.1909 101.557 84.2371 98.9469 73.7712H98.929ZM83.9454 101.914C83.5605 103.476 82.7602 104.903 81.6305 106.042C80.5009 107.18 79.0846 107.986 77.534 108.374C69.5922 110.394 61.2768 110.394 53.3351 108.374C51.7845 107.986 50.3682 107.18 49.2385 106.042C48.1088 104.903 47.3085 103.476 46.9237 101.914C44.9181 93.9123 44.9181 85.5337 46.9237 77.532C47.3085 75.9697 48.1088 74.5426 49.2385 73.4044C50.3682 72.2662 51.7845 71.4598 53.3351 71.0721C61.2768 69.0521 69.5923 69.0521 77.534 71.0721C79.0846 71.4598 80.5009 72.2662 81.6305 73.4044C82.7602 74.5426 83.5605 75.9697 83.9454 77.532C85.9509 85.5337 85.9509 93.9123 83.9454 101.914V101.914ZM328.06 73.7712C327.003 69.4627 324.797 65.5274 321.681 62.3907C318.564 59.2541 314.656 57.0355 310.379 55.975C299.992 53.3417 289.12 53.3417 278.733 55.975C274.459 57.0388 270.555 59.2588 267.443 62.3951C264.33 65.5315 262.126 69.4651 261.071 73.7712C258.461 84.2372 258.461 95.1909 261.071 105.657C262.128 109.962 264.331 113.895 267.444 117.031C270.557 120.168 274.46 122.388 278.733 123.453C289.12 126.087 299.993 126.087 310.379 123.453C314.653 122.389 318.557 120.169 321.67 117.033C324.783 113.897 326.986 109.963 328.042 105.657C330.653 95.1911 330.653 84.2369 328.042 73.7712H328.06V73.7712ZM313.076 101.896C312.693 103.459 311.893 104.887 310.763 106.025C309.633 107.164 308.216 107.97 306.665 108.356C298.723 110.376 290.407 110.376 282.466 108.356C280.915 107.969 279.498 107.163 278.368 106.024C277.238 104.886 276.438 103.459 276.054 101.896C274.051 93.8941 274.051 85.516 276.054 77.514C276.44 75.9518 277.24 74.525 278.37 73.3868C279.499 72.2487 280.915 71.4422 282.466 71.0541C290.407 69.0341 298.723 69.0341 306.665 71.0541C308.216 71.4409 309.632 72.247 310.762 73.3853C311.892 74.5237 312.692 75.9512 313.076 77.514C315.082 85.5157 315.082 93.8943 313.076 101.896Z" fill="#6BBA45"></path></svg> 