<?xml version="1.0" encoding="UTF-8"?> <svg xmlns="http://www.w3.org/2000/svg" width="360" height="77" viewBox="0 0 360 77" fill="none"><path d="M6.28546 21.9773H13.3566V26.0882C15.3994 23.0841 18.6992 21.1868 22.3134 21.3449C25.6133 21.3449 28.756 22.7679 30.7988 25.2977C33.1558 27.8275 34.2558 31.464 34.2558 36.0492C34.2558 40.7926 33.1558 44.4291 30.7988 47.117C28.5989 49.6468 25.6133 51.0698 22.3134 51.0698C20.8992 51.0698 19.3278 50.7535 18.0707 50.1211C16.4993 49.3305 15.0851 48.2238 13.9852 46.9589V61.1889H6.28546V21.9773V21.9773ZM13.828 35.5749C13.828 38.7371 14.4566 41.1088 15.7137 42.6899C16.8136 44.1129 18.5421 45.0615 20.4278 44.9034C22.1563 44.9034 23.7276 44.1129 24.8276 42.848C25.9275 41.425 26.5561 39.2115 26.5561 36.0492C26.5561 33.0451 25.9275 30.8316 24.6704 29.4086C23.5705 27.9856 21.9991 27.195 20.1135 27.195C18.385 27.195 16.6565 27.9856 15.5565 29.2505C14.4566 30.6735 13.828 32.887 13.828 35.5749V35.5749ZM37.2414 35.733C37.2414 33.2032 37.8699 30.6735 39.127 28.4599C40.3841 26.2464 42.1126 24.349 44.4697 23.0841C46.8267 21.8192 49.498 21.1868 52.1693 21.1868C56.0978 21.0287 60.0262 22.6098 62.8546 25.2977C65.6831 28.1437 67.0973 31.9383 67.0973 35.8911C67.2545 43.9548 61.1261 50.5954 53.1122 50.7535H52.3265C49.6552 50.7535 47.141 50.1211 44.7839 49.0143C42.4269 47.9075 40.5412 46.1683 39.2842 43.7967C37.7128 41.425 37.0842 38.579 37.2414 35.733V35.733ZM45.0982 36.0492C45.0982 38.8952 45.7268 40.9507 47.141 42.5318C49.6552 45.3778 53.8979 45.5359 56.5692 43.0061L57.0406 42.5318C58.4548 41.1088 59.0834 38.8952 59.0834 36.0492C59.0834 33.2032 58.4548 31.1478 57.0406 29.5667C54.5264 26.7207 50.2837 26.5626 47.6124 29.0923L47.141 29.5667C45.7268 31.1478 45.0982 33.2032 45.0982 36.0492ZM105.439 21.9773V27.9856H100.253V39.3695C100.253 40.7925 100.253 42.0574 100.41 43.4804C100.567 43.7967 100.725 44.271 101.039 44.4291C101.353 44.7453 101.825 44.7453 102.296 44.7453C103.396 44.7453 104.339 44.4291 105.282 43.9548L105.91 49.8049C104.024 50.5954 101.982 50.9116 99.9389 50.9116C98.6818 50.9116 97.4247 50.7535 96.1676 50.2792C95.2248 49.963 94.4391 49.3305 93.8106 48.54C93.182 47.5913 92.8677 46.6426 92.7106 45.694C92.5535 43.9548 92.3963 42.2155 92.3963 40.4763V28.1437H88.9393V22.1355H92.3963V18.3408L100.096 15.811V22.2936H105.439V21.9773V21.9773ZM109.524 21.9773H116.595V25.9301C119.11 22.926 122.095 21.3449 125.552 21.3449C127.281 21.3449 128.852 21.6611 130.423 22.4517C131.838 23.2422 132.938 24.349 133.723 25.772C134.823 24.349 136.237 23.2422 137.809 22.4517C139.223 21.6611 140.952 21.3449 142.523 21.3449C144.409 21.3449 146.294 21.6611 147.866 22.6098C149.28 23.4004 150.537 24.8234 151.165 26.4045C151.637 27.6693 151.951 29.5667 151.951 32.2546V50.4373H144.251V34.1519C144.251 31.3059 143.937 29.5667 143.466 28.7761C142.68 27.6693 141.423 27.0369 140.166 27.195C137.809 27.195 135.766 28.7761 135.137 30.9897C134.666 32.887 134.352 34.9425 134.509 36.8398V50.4373H126.809V34.9424C126.809 32.2546 126.652 30.3572 126.338 29.5667C126.181 28.7761 125.709 28.1437 125.081 27.8274C124.452 27.3531 123.509 27.195 122.724 27.195C121.624 27.195 120.524 27.5112 119.581 28.1437C118.638 28.7761 117.852 29.7248 117.538 30.8316C117.067 32.7289 116.91 34.7843 116.91 36.6817V50.4373H109.21L109.524 21.9773V21.9773ZM154.78 35.733C154.78 33.2032 155.408 30.6735 156.665 28.4599C157.922 26.2464 159.651 24.349 162.008 23.0841C164.365 21.8192 167.036 21.1868 169.708 21.1868C174.107 21.1868 177.564 22.6098 180.393 25.2977C183.221 28.1437 184.636 31.9383 184.636 35.8911C184.793 43.9548 178.664 50.5954 170.65 50.7535H169.865C167.193 50.7535 164.679 50.1211 162.322 49.0143C159.965 47.9075 158.079 46.1683 156.822 43.7967C155.408 41.425 154.78 38.579 154.78 35.733V35.733ZM162.636 36.0492C162.636 38.8952 163.265 40.9507 164.679 42.5318C167.193 45.3778 171.436 45.5359 174.107 43.0061L174.579 42.5318C175.993 41.1088 176.622 38.8952 176.622 36.0492C176.622 33.2032 175.993 31.1478 174.579 29.5667C172.065 26.7207 167.822 26.5626 165.151 29.0923L164.679 29.5667C163.265 31.1478 162.636 33.2032 162.636 36.0492ZM213.706 50.2792H206.163V35.733C206.163 32.7289 206.006 30.6735 205.692 29.7248C205.378 28.9342 204.906 28.1437 204.12 27.6694C203.335 27.195 202.392 26.8788 201.449 26.8788C200.192 26.8788 198.935 27.195 197.835 27.9856C196.892 28.618 196.106 29.7248 195.635 30.8316C195.321 31.9383 195.007 34.1519 195.007 37.3141V50.1211H187.307V21.8193H194.378V25.9301C196.578 22.926 200.192 21.0287 203.806 21.1868C205.378 21.1868 206.949 21.503 208.363 22.1355C209.62 22.6098 210.72 23.4003 211.506 24.349C212.292 25.2977 212.763 26.4045 212.92 27.5112C213.234 29.2505 213.392 30.8316 213.392 32.5708L213.706 50.2792V50.2792ZM236.333 41.2669L243.876 42.5318C243.09 45.0615 241.362 47.2751 239.319 48.8562C236.962 50.4373 234.134 51.0698 231.462 51.0698C226.434 51.0698 222.82 49.4886 220.306 46.1683C218.42 43.6385 217.477 40.3182 217.477 36.3654C217.477 31.6221 218.734 27.9856 221.248 25.2977C223.605 22.6098 227.062 21.1868 230.677 21.3449C234.919 21.3449 238.376 22.7679 240.733 25.4558C243.248 28.3018 244.347 32.5708 244.347 38.2628H225.334C225.334 40.1601 225.962 42.0574 227.22 43.4804C228.32 44.7453 229.891 45.3778 231.619 45.3778C232.719 45.3778 233.819 45.0615 234.605 44.4291C235.391 43.4804 236.019 42.3736 236.333 41.2669V41.2669ZM236.805 33.6776C236.805 31.464 236.176 29.8829 235.076 28.7761C232.876 26.5626 229.419 26.5626 227.22 28.618L227.062 28.7761C225.962 30.1991 225.334 31.9383 225.491 33.6776H236.805V33.6776ZM83.9109 28.618C80.4539 28.618 77.7826 30.8316 77.7826 35.733V50.4373H70.0829V22.1355H76.6827V27.0369H76.8398C78.254 23.4003 81.2396 21.503 83.9109 21.503C84.5395 21.503 85.0109 21.503 85.6395 21.6611V28.7761C85.168 28.618 84.5395 28.4599 83.9109 28.618V28.618Z" fill="#FF0000"></path><path d="M249.062 52.7313V47.3555H254.561V52.8894H249.062V52.7313ZM277.975 42.4541L282.846 43.0866C282.532 46.0907 281.117 48.7785 278.76 50.6759C276.56 52.5732 273.732 53.5219 270.904 53.3638C266.975 53.3638 263.832 52.0989 261.475 49.5691C259.118 47.0393 257.861 43.4028 257.861 38.6594C257.861 35.9716 258.333 33.1255 259.433 30.5958C260.375 28.3822 261.947 26.643 264.147 25.3781C266.189 24.2714 268.546 23.6389 271.061 23.6389C273.732 23.4808 276.56 24.2713 278.76 26.0106C280.803 27.5917 282.217 29.9633 282.532 32.6512L277.818 33.2837C277.503 31.7026 276.718 30.1214 275.461 29.0147C274.361 28.066 272.789 27.5917 271.375 27.5917C269.175 27.4336 266.975 28.5404 265.404 30.1215C263.832 31.8607 263.047 34.5486 263.047 38.3432C263.047 42.1379 263.832 44.9839 265.247 46.565C266.661 48.3042 268.861 49.2529 271.061 49.0948C272.789 49.0948 274.518 48.4623 275.775 47.3555C276.875 46.565 277.66 44.8258 277.975 42.4541V42.4541ZM285.046 38.6594C285.046 33.4418 286.46 29.489 289.446 26.9592C291.96 24.9038 295.26 23.797 298.402 23.797C302.017 23.6389 305.474 25.0619 308.145 27.5917C310.659 30.1215 311.916 33.5999 311.916 38.1851C311.916 41.8217 311.288 44.6677 310.188 46.7231C309.088 48.7785 307.359 50.5178 305.316 51.6245C303.117 52.7313 300.759 53.3638 298.402 53.3638C294.317 53.3638 291.174 52.0989 288.66 49.5691C286.303 47.0393 285.046 43.4028 285.046 38.6594V38.6594ZM290.074 38.6594C290.074 42.296 290.86 44.9839 292.431 46.8812C295.417 50.2015 300.602 50.5178 303.902 47.5137L304.531 46.8812C306.102 44.9839 306.888 42.296 306.888 38.6594C306.888 35.181 306.102 32.4931 304.531 30.7539C301.545 27.4336 296.36 27.1174 293.06 30.1215C292.903 30.2796 292.588 30.4377 292.431 30.7539C290.86 32.335 290.074 35.0229 290.074 38.6594ZM314.745 52.7313V24.4295H319.144V28.3822C320.087 26.9592 321.344 25.8524 322.759 25.0619C324.33 24.2713 326.058 23.797 327.787 23.797C329.673 23.797 331.401 24.1132 332.972 25.0619C334.387 25.8524 335.33 27.2755 335.801 28.6984C338.158 25.3781 340.986 23.797 344.758 23.797C347.586 23.797 349.786 24.5876 351.357 26.1687C352.929 27.7498 353.715 30.1215 353.715 33.2837V52.7313H348.843V34.8648C348.843 33.4418 348.686 32.0188 348.372 30.7539C348.058 29.9633 347.429 29.1728 346.643 28.6984C345.701 28.2241 344.758 27.9079 343.658 27.9079C341.772 27.9079 339.886 28.5403 338.629 29.9633C337.372 31.2282 336.587 33.4418 336.587 36.2878V52.7313H331.715V34.3905C331.715 32.1769 331.244 30.5958 330.458 29.6471C329.673 28.5403 328.416 28.066 326.53 28.066C325.116 28.066 323.859 28.3822 322.759 29.1728C321.659 29.9633 320.716 30.912 320.244 32.335C319.616 34.2323 319.302 36.2878 319.459 38.1851V52.8894L314.745 52.7313V52.7313Z" fill="#A7A9AB"></path></svg> 