<?xml version="1.0" encoding="UTF-8"?> <svg xmlns="http://www.w3.org/2000/svg" width="360" height="180" viewBox="0 0 360 180" fill="none"><path fill-rule="evenodd" clip-rule="evenodd" d="M94.2 98.5986H87.8486V90.7429H94.2C95.8157 90.7429 96.9857 90.8543 97.6543 91.1329C99.2143 91.6343 100.05 92.8043 100.05 94.5872C100.05 97.2615 98.1 98.5986 94.2 98.5986ZM95.8157 85.06H79.77V114.31H87.8486V104.281H95.5929C104.396 104.281 108.797 100.994 108.797 94.5315C108.797 88.2357 104.451 85.06 95.8157 85.06ZM128.074 96.4815C124.787 96.4815 122.559 97.4843 121.277 99.5457C120.386 100.939 119.94 102.944 119.94 105.619V114.31H112.474V93.1386H119.94V96.5929C121.5 93.7515 124.453 92.3029 128.743 92.3029H129.634V96.4815H128.074ZM141.167 90.0186H133.423V85.06H141.167V90.0186ZM141 114.31H133.534V93.1386H141V114.31ZM161.391 114.31H153.09L143.953 93.1386H152.087L157.269 107.959L162.394 93.1386H170.529L161.391 114.31ZM183.064 110.856C182.117 110.856 181.281 110.689 180.557 110.299C179.666 109.853 179.276 109.24 179.276 108.404C179.276 106.789 180.724 105.786 183.621 105.34C185.349 105.117 186.24 104.95 186.296 104.95C186.741 104.839 187.466 104.616 188.524 104.226V105.563C188.524 107.513 187.8 108.961 186.351 109.909C185.349 110.521 184.29 110.856 183.064 110.856V110.856ZM195.99 112.639C195.879 112.137 195.823 111.246 195.823 109.964L195.99 100.27C195.99 98.2086 195.544 96.6486 194.653 95.5343C192.926 93.3615 189.527 92.3029 184.513 92.3029C180.334 92.3029 177.214 93.1386 175.209 94.81C173.649 96.0915 172.869 97.8186 172.757 99.9915H179.889C179.889 97.7072 181.449 96.5372 184.513 96.5372C187.187 96.5372 188.524 97.4843 188.524 99.3786C188.524 99.7686 188.524 99.9357 188.524 99.9357C188.524 100.771 188.134 101.273 187.354 101.496C186.853 101.663 185.181 101.886 182.451 102.164C178.83 102.499 176.211 103.167 174.596 104.059C172.59 105.117 171.587 106.733 171.587 108.961C171.587 110.577 172.089 111.914 173.147 112.973C174.596 114.421 176.991 115.146 180.279 115.146C184.011 115.146 186.797 114.199 188.636 112.249H188.803L189.416 114.31H197.271V113.976C196.603 113.809 196.157 113.363 195.99 112.639ZM209.25 114.923C206.743 114.923 204.96 114.421 203.901 113.363C203.01 112.416 202.62 110.856 202.62 108.739V97.3729H198.051V93.1386H202.62V86.7315H210.086V93.1386H215.379V97.3729H210.086V107.569C210.086 108.571 210.197 109.24 210.42 109.574C210.81 110.187 211.701 110.466 213.039 110.466C213.819 110.466 214.599 110.354 215.379 110.076V114.366C213.094 114.756 211.033 114.923 209.25 114.923V114.923ZM237.887 95.59C237.219 96.2586 236.16 96.5929 234.767 96.5929H227.301V90.7429H234.433C237.33 90.7429 238.779 91.69 238.779 93.5843C238.779 94.3643 238.5 95.0886 237.887 95.59ZM241.453 98.6543V98.5986C245.186 97.54 247.08 95.5343 247.08 92.5257C247.08 87.5671 243.514 85.06 236.439 85.06H219.223V114.31H235.603C244.406 114.31 248.807 111.58 248.807 106.12C248.807 103.669 247.86 101.774 245.91 100.381C244.684 99.5457 243.236 98.9329 241.453 98.6543V98.6543ZM235.714 108.683H227.301V101.997H234.656H235.157C235.436 102.053 235.77 102.053 236.104 102.053C237.441 102.053 238.5 102.443 239.28 103.167C239.893 103.78 240.227 104.504 240.227 105.34C240.227 106.566 239.614 107.513 238.389 108.07C237.553 108.46 236.661 108.683 235.714 108.683V108.683ZM266.58 109.909C265.633 110.521 264.519 110.856 263.349 110.856C262.401 110.856 261.51 110.689 260.786 110.299C259.95 109.853 259.504 109.24 259.504 108.404C259.504 106.789 261.009 105.786 263.906 105.34C265.577 105.117 266.469 104.95 266.58 104.95C267.026 104.839 267.75 104.616 268.809 104.226V105.563C268.809 107.513 268.084 108.961 266.58 109.909V109.909ZM276.274 112.639C276.107 112.137 276.107 111.246 276.107 109.964L276.219 100.27C276.274 98.2086 275.829 96.6486 274.937 95.5343C273.154 93.3615 269.811 92.3029 264.797 92.3029C260.563 92.3029 257.499 93.1386 255.493 94.81C253.933 96.0915 253.097 97.8186 253.041 99.9915H260.173C260.173 97.7072 261.733 96.5372 264.741 96.5372C267.471 96.5372 268.809 97.4843 268.809 99.3786C268.809 99.7686 268.809 99.9357 268.809 99.9357C268.809 100.771 268.363 101.273 267.639 101.496C267.081 101.663 265.466 101.886 262.736 102.164C259.114 102.499 256.44 103.167 254.88 104.059C252.819 105.117 251.816 106.733 251.816 108.961C251.816 110.577 252.373 111.914 253.431 112.973C254.88 114.421 257.276 115.146 260.563 115.146C264.296 115.146 267.081 114.199 268.92 112.249H269.087L269.7 114.31H277.556V113.976C276.887 113.809 276.441 113.363 276.274 112.639V112.639ZM298.337 114.31V102.053C298.337 98.3757 296.944 96.5372 294.103 96.5372C292.599 96.5372 291.373 97.0386 290.481 98.0415C289.59 99.0443 289.144 100.493 289.144 102.387V114.31H281.623V93.1386H288.81V95.6457C290.76 93.4172 293.601 92.3029 297.446 92.3029C303.073 92.3029 305.859 95.2 305.859 100.994V114.31H298.337ZM336 114.31H327.141L320.121 105.507L317.614 107.736V114.31H310.093V85.06H317.614V101.161L326.139 93.1386H335.164L325.191 101.496L336 114.31ZM24 64V88.4029H29.2371C42.8871 88.4029 49.7957 95.3672 49.7957 109.017V114.199H74.1986V64H24ZM63.8357 103.836H59.8243C58.0971 89.2386 48.96 80.1014 34.4186 78.3743V74.3629H63.8357V103.836Z" fill="#67A600"></path><path fill-rule="evenodd" clip-rule="evenodd" d="M43.6114 114.198V94.5864H24V114.198H43.6114Z" fill="#231F20"></path></svg> 