<?xml version="1.0" encoding="UTF-8"?> <svg xmlns="http://www.w3.org/2000/svg" width="360" height="79" viewBox="0 0 360 79" fill="none"><path d="M210.543 0.53345C209.635 0.775604 208.606 1.80476 208 3.01552C206.971 4.95275 206.911 7.91913 206.971 39.0359C206.971 63.6145 207.153 73.5428 207.698 75.0562C208.303 76.7513 208.908 77.3567 210.846 77.9621C213.449 78.8096 216.839 78.5069 218.594 77.2356C219.2 76.7513 219.926 75.48 220.229 74.3903C221.137 71.2423 220.955 6.2846 220.047 3.62091C218.958 0.412373 215.265 -0.798395 210.543 0.53345Z" fill="url(#paint0_linear_131_1670)"></path><path d="M251.709 0.593933C245.776 1.62309 238.208 5.25539 236.332 7.97961C234.152 11.0671 235.969 15.8496 239.661 16.6366C241.114 16.9998 242.567 16.5761 246.2 14.881C259.578 8.585 272.292 11.9146 272.292 21.6613C272.292 26.5649 269.204 30.8026 264.724 32.0134C263.392 32.3766 260.426 32.6793 258.065 32.6793C250.074 32.6793 247.168 34.4349 247.168 39.0963C247.168 40.973 247.531 42.0627 248.5 43.0313C249.65 44.2421 250.679 44.4237 258.186 44.7869C267.327 45.2107 270.233 46.0583 272.473 49.0852C274.895 52.3542 274.895 58.9529 272.473 62.2825C271.807 63.1301 270.112 64.4619 268.659 65.1884C266.419 66.3386 265.027 66.5808 259.881 66.5808C254.735 66.5808 249.59 65.7938 243.839 63.009C241.659 61.9798 240 61.5 239 61.5C238.5 61.5 236.937 61.9193 235.848 62.8879C234.758 63.8565 233.91 65.1278 233.91 66.8229C233.91 71.0606 237.3 73.7848 246.26 76.6907C250.922 78.2041 254 78.3857 260.184 78.3857C266.368 78.3857 269.265 78.2647 273.805 76.6301C277.74 75.1772 279.253 74.2086 281.978 71.4844C286.7 66.7018 287.668 64.4619 287.91 57.3789C288.092 52.5359 287.91 51.0829 286.942 48.7825C285.186 44.908 280.525 40.1255 277.679 39.2174C276.348 38.8542 275.318 38.3093 275.318 38.0672C275.318 37.825 276.287 37.038 277.437 36.3116C280.161 34.6165 282.462 31.8923 284.157 28.1389C285.307 25.7174 285.61 24.0828 285.61 19.7846C285.61 14.094 284.46 10.8249 281.13 6.82939C279.072 4.34732 273.321 1.44147 269.022 0.654472C264.966 -0.0719881 255.825 -0.132527 251.709 0.593933Z" fill="url(#paint1_linear_131_1670)"></path><path d="M9.85861 1.15067C9.19269 1.45336 8.103 2.3009 7.43708 3.02736C6.28685 4.29866 6.22631 5.32782 6.04469 38.3817C5.86308 73.3124 6.04469 76.2787 8.22407 77.429C10.2824 78.5187 13.1277 78.7608 15.6098 78.0949C19.5447 77.0657 19.8474 75.6734 19.8474 60.5993C19.8474 51.3975 20.0291 47.7652 20.5739 47.4625C21.6636 46.7966 33.8318 47.0387 35.7085 47.7652C38.3116 48.7338 40.7332 51.3975 42.852 55.6957C43.9417 57.8751 45.2735 60.2966 45.8789 61.1442C46.4843 61.9917 48.0583 64.837 49.4507 67.5007C53.2646 74.8864 54.9597 77.0657 57.6839 77.9738C60.7714 79.003 64.0404 78.5187 65.4328 76.8236C67.37 74.4626 66.7646 71.3751 62.8902 63.9895C57.018 52.6688 56.5942 51.9423 53.6278 48.9154C51.9933 47.2809 50.722 45.7069 50.722 45.4042C50.722 45.1015 51.8117 44.5567 53.1435 44.1934C54.657 43.7697 56.8969 42.3167 59.1368 40.1979C62.1637 37.4131 62.9507 36.2024 64.101 32.8728C65.7355 27.9692 65.8566 19.6149 64.3431 15.0745C63.1323 11.5027 58.2287 5.93319 54.7175 4.11704C49.2691 1.33228 47.0292 1.02959 28.6255 0.847977C18.9999 0.7269 10.5245 0.847974 9.85861 1.15067ZM46.3632 13.9243C49.9955 15.9826 51.4484 18.5857 51.7511 23.4893C52.0538 29.1194 50.4193 32.2674 45.8184 34.81C42.6099 36.6261 42.4282 36.6261 32.0762 36.8078C24.5089 36.9894 21.3609 36.8078 20.7555 36.3234C19.5447 35.2943 19.4237 13.9848 20.6344 12.774C21.1793 12.1686 24.0246 12.0476 32.5605 12.2292C43.0942 12.4108 43.8812 12.5319 46.3632 13.9243Z" fill="url(#paint2_linear_131_1670)"></path><path d="M80.6884 39.3992V4.95279C80.6884 4.95279 81 3.5 82 2.5C83 1.5 84.926 1.1994 84.926 1.1994C86.8633 0.35186 127.908 0.472939 129.664 1.25994C130.451 1.62317 131.601 2.83395 132.146 3.8631C133.054 5.55817 133.115 6.16356 132.449 8.10079C131.238 11.8542 130.027 12.0963 111.684 12.0963C98.7893 12.0963 95.5202 12.2779 94.9754 12.9439C94.4911 13.4887 94.3095 16.7578 94.4306 23.0538L94.6122 32.3767L110.655 32.6794C119.493 32.861 127.182 33.2243 127.727 33.4664C128.271 33.7086 129.18 34.9799 129.724 36.1301C130.545 37.8633 130.632 38.6727 130.088 40.6099C129.664 41.8813 128.877 43.2131 128.211 43.5763C127.545 43.9396 120.886 44.1817 111.442 44.1817C100.061 44.1817 95.5808 44.3633 95.0359 44.9082C94.5516 45.3925 94.3095 48.6616 94.3095 55.7446C94.3095 64.4016 94.4306 65.915 95.2781 66.2177C95.8229 66.3993 103.753 66.5809 113.016 66.5809C129.664 66.5809 129.845 66.5809 131.117 67.9128C132.933 69.9106 133.296 72.1505 132.206 74.3904C130.33 77.9622 129.664 78.0833 108.415 78.0833C97.8207 78.0227 88.0001 77.5768 86.5 77.5384C85 77.5 82.7945 76.1963 82.5 76C82.2055 75.8037 80.6884 75.2227 80.6884 73.8456V39.3992Z" fill="url(#paint3_linear_131_1670)"></path><path d="M147.583 2.28911C146.433 3.43934 145.767 4.89226 145.464 6.70841C145.283 8.16133 145.161 23.6591 145.283 41.1547C145.464 75.2378 145.404 74.6324 148.612 76.7512C150.065 77.6593 152.426 77.7804 170.588 77.962C192.381 78.2042 194.682 77.962 196.377 75.2983C197.648 73.4216 197.224 68.8813 195.711 67.1862C194.682 66.036 193.713 65.9754 178.094 65.9754C169.014 65.9754 161.204 65.7938 160.659 65.6122C159.812 65.3095 159.691 62.0404 159.691 35.2825C159.691 9.79586 159.57 5.13441 158.783 3.62096C157.572 1.25996 156.179 0.594039 152.426 0.594039C149.823 0.594039 149.036 0.896731 147.583 2.28911Z" fill="url(#paint4_linear_131_1670)"></path><path d="M307.101 1.13879C304.74 2.16795 303.227 4.16572 302.864 6.76888C302.682 8.2218 302.561 23.9618 302.682 41.7601C302.864 78.2042 302.682 76.7513 307.344 78.1437C310.431 79.0518 313.518 78.4464 315.335 76.5092C316.787 74.9957 316.787 74.7535 317.151 60.0427C317.332 51.8095 317.514 45.0292 317.574 44.9686C317.635 44.9081 324.96 44.787 333.799 44.6659C352.444 44.4843 351.9 44.6054 351.415 38.8542C351.052 33.8901 351.294 33.9506 333.738 33.8901C322.72 33.8901 318.361 33.7085 317.817 33.1636C317.03 32.3766 316.727 14.9416 317.453 13.0649C317.756 12.2173 319.754 12.0963 333.496 12.0963C345.785 12.0963 349.66 11.9146 351.294 11.2487C353.655 10.2196 354.382 8.46395 353.837 5.01326C353.11 0.775569 353.958 0.896643 329.924 0.775566C318.059 0.715028 310 0 307.101 1.13879Z" fill="url(#paint5_linear_131_1670)"></path><defs><linearGradient id="paint0_linear_131_1670" x1="216.122" y1="-0.499321" x2="216.122" y2="75.8864" gradientUnits="userSpaceOnUse"><stop stop-color="#0071FF"></stop><stop offset="0.492708" stop-color="#0071FF"></stop><stop offset="0.513542" stop-color="#FFC701"></stop><stop offset="1" stop-color="#FFC701"></stop></linearGradient><linearGradient id="paint1_linear_131_1670" x1="269.641" y1="-0.42007" x2="269.641" y2="75.8365" gradientUnits="userSpaceOnUse"><stop stop-color="#0071FF"></stop><stop offset="0.492708" stop-color="#0071FF"></stop><stop offset="0.513542" stop-color="#FFC701"></stop><stop offset="1" stop-color="#FFC701"></stop></linearGradient><linearGradient id="paint2_linear_131_1670" x1="45.984" y1="0.30691" x2="45.984" y2="75.9814" gradientUnits="userSpaceOnUse"><stop stop-color="#0071FF"></stop><stop offset="0.492708" stop-color="#0071FF"></stop><stop offset="0.513542" stop-color="#FFC701"></stop><stop offset="1" stop-color="#FFC701"></stop></linearGradient><linearGradient id="paint3_linear_131_1670" x1="115.193" y1="0.121701" x2="115.193" y2="75.5613" gradientUnits="userSpaceOnUse"><stop stop-color="#0071FF"></stop><stop offset="0.492708" stop-color="#0071FF"></stop><stop offset="0.513542" stop-color="#FFC701"></stop><stop offset="1" stop-color="#FFC701"></stop></linearGradient><linearGradient id="paint4_linear_131_1670" x1="179.531" y1="0.101081" x2="179.531" y2="75.5134" gradientUnits="userSpaceOnUse"><stop stop-color="#0071FF"></stop><stop offset="0.492708" stop-color="#0071FF"></stop><stop offset="0.513542" stop-color="#FFC701"></stop><stop offset="1" stop-color="#FFC701"></stop></linearGradient><linearGradient id="paint5_linear_131_1670" x1="336.588" y1="0.00167037" x2="336.588" y2="76.0162" gradientUnits="userSpaceOnUse"><stop stop-color="#0071FF"></stop><stop offset="0.492708" stop-color="#0071FF"></stop><stop offset="0.513542" stop-color="#FFC701"></stop><stop offset="1" stop-color="#FFC701"></stop></linearGradient></defs></svg> 