<?xml version="1.0" encoding="UTF-8"?> <svg xmlns="http://www.w3.org/2000/svg" width="360" height="107" viewBox="0 0 360 107" fill="none"><path d="M21.8987 58.4058C16.9476 56.4724 12.6716 54.8035 12.6716 50.9513C12.6716 46.4975 16.7242 44.9095 20.5164 44.9095C27.0776 44.9095 30.5627 48.5382 30.5965 48.5749L30.9316 48.9312L33.8696 44.0031L33.6889 43.8016C33.5195 43.6118 29.4523 39.1577 20.6813 39.1577C13.6996 39.1577 6.18427 42.8482 6.18427 50.9513C6.18427 58.6135 13.1011 61.3545 19.2035 63.7721C24.1617 65.7366 28.4437 67.433 28.4437 71.2529C28.4437 75.5406 24.4618 77.4593 20.5164 77.4593C13.0602 77.4593 8.51357 72.614 8.46758 72.5656L8.16802 72.2389L4.68018 76.861L4.87849 77.0857C4.93434 77.1491 6.26222 78.6486 8.85167 80.1626C11.2323 81.5533 15.176 83.213 20.434 83.213C28.8349 83.213 34.9325 78.1835 34.9325 71.2529C34.9325 63.4938 28.0085 60.7911 21.8987 58.4058Z" fill="black"></path><path d="M63.8462 39.1572C51.387 39.1572 41.6295 48.7424 41.6295 60.9801C41.6295 73.4462 51.387 83.2122 63.8462 83.2122C76.3051 83.2122 86.0644 73.4462 86.0644 60.9801C86.0644 48.7424 76.3051 39.1572 63.8462 39.1572ZM79.5755 60.9801C79.5755 70.221 72.6671 77.4592 63.8462 77.4592C55.0251 77.4592 48.1169 70.221 48.1169 60.9801C48.1169 52.0145 55.0251 44.993 63.8462 44.993C72.6671 44.993 79.5755 52.0145 79.5755 60.9801Z" fill="black"></path><path d="M113.546 23.57C113.505 23.5626 112.512 23.4009 110.942 23.4009C106.539 23.4009 96.2989 24.9329 96.2989 39.1202V40.7215H90.6718V46.1392H96.2989V82.2576H102.616V46.1392H113.197V40.7215H102.616V39.1202C102.616 35.3962 103.772 29.1467 111.517 29.1467C112.609 29.1467 113.405 29.3028 113.413 29.3045L113.854 29.3912V23.6214L113.546 23.57Z" fill="black"></path><path d="M143.367 77.13L142.909 77.2302C142.902 77.2316 142.176 77.3889 141.067 77.3889C137.676 77.3889 131.987 75.9913 131.987 66.6297V46.2575H142.53V40.731H131.987V28.5898H125.629V40.731H120.022V46.2575H125.545V67.2155C125.545 81.1663 134.955 83.2498 140.564 83.2498C142.086 83.2498 143.02 83.0836 143.058 83.0761L143.367 83.0202V77.13Z" fill="black"></path><path d="M155.168 69.7199C155.168 69.7199 159.786 74.3402 166.629 74.3402C169.596 74.3402 172.152 73.02 172.152 70.5454C172.152 64.2738 151.705 65.099 151.705 51.5695C151.705 43.7324 158.714 39.1943 167.782 39.1943C177.263 39.1943 181.88 43.9796 181.88 43.9796L178.006 51.7342C178.006 51.7342 174.13 48.1041 167.7 48.1041C164.979 48.1041 162.341 49.2592 162.341 51.8989C162.341 57.839 182.788 57.0975 182.788 70.6275C182.788 77.6388 176.687 83.2499 166.711 83.2499C156.24 83.2499 150.387 77.062 150.387 77.062L155.168 69.7199Z" fill="black"></path><path d="M211.004 39.1943C223.123 39.1943 229.635 48.0216 229.635 59.1606C229.635 60.3965 229.389 63.2023 229.389 63.2023H200.368C201.028 70.545 206.717 74.3398 212.983 74.3398C219.742 74.3398 225.102 69.7195 225.102 69.7195L229.141 77.227C229.141 77.227 222.711 83.2496 212.24 83.2496C198.306 83.2496 189.65 73.185 189.65 61.222C189.65 48.2705 198.473 39.1943 211.004 39.1943ZM219.084 56.0248C218.917 50.3319 215.372 47.2798 210.757 47.2798C205.398 47.2798 201.687 50.579 200.699 56.0248H219.084Z" fill="black"></path><path d="M240.175 40.1851H250.233V47.445C250.233 49.012 250.068 50.4143 250.068 50.4143H250.233C252.13 44.3917 257.159 39.6064 263.589 39.6064C264.579 39.6064 265.486 39.7729 265.486 39.7729V50.085C265.486 50.085 264.414 49.92 263.013 49.92C258.56 49.92 253.531 52.4775 251.552 58.7472C250.893 60.8104 250.647 63.1201 250.647 65.5954V82.2594H240.175V40.1851Z" fill="black"></path><path d="M270.046 40.1851H281.093L289.832 66.2543C290.657 68.7293 291.233 71.5265 291.317 71.5265H291.482C291.564 71.5265 292.141 68.7293 292.965 66.2543L301.704 40.1851H312.752L297.665 82.2594H285.297L270.046 40.1851Z" fill="black"></path><path d="M336.687 39.1943C348.806 39.1943 355.32 48.0216 355.32 59.1606C355.32 60.3965 355.071 63.2023 355.071 63.2023H326.051C326.711 70.545 332.4 74.3398 338.666 74.3398C345.426 74.3398 350.785 69.7195 350.785 69.7195L354.824 77.227C354.824 77.227 348.393 83.2496 337.923 83.2496C323.991 83.2496 315.333 73.185 315.333 61.222C315.333 48.2705 324.155 39.1943 336.687 39.1943ZM344.766 56.0248C344.602 50.3319 341.055 47.2798 336.439 47.2798C331.081 47.2798 327.37 50.579 326.382 56.0248H344.766Z" fill="black"></path></svg> 