<?xml version="1.0" encoding="UTF-8"?> <svg xmlns="http://www.w3.org/2000/svg" width="360" height="107" viewBox="0 0 360 107" fill="none"><path d="M345.692 17.6666C335.148 6.91104 276.3 22.2535 271.284 32.4217C268.64 37.7844 277.309 51.6203 293.933 67.7012C308.431 81.718 322.486 94.6503 331.314 91.8033C340.141 88.9564 356.267 28.4222 345.692 17.6666Z" fill="#F3D910"></path><path d="M233.308 37.9426C226.462 37.9426 220.331 42.281 216.791 48.0806V38.9368H203.948V87.3372H216.791V62.4287C216.791 52.2609 222.65 48.9618 228.555 48.9618C234.867 48.9618 239.492 53.2626 239.492 61.894C239.492 70.9323 239.409 87.2919 239.409 87.2919H252.251L252.319 57.8719C252.311 45.5425 244.539 37.9426 233.308 37.9426Z" fill="#000105"></path><path d="M135.633 19.1807H122.791V87.2844H135.633V19.1807Z" fill="#000105"></path><path d="M101.077 38.8917L82.5708 58.8441V19.1807H69.7361V87.2844H82.5708L82.3749 67.6037L100.73 87.1715H116.781L94.3208 63.024L116.781 38.8917H101.077Z" fill="#000105"></path><path d="M169.852 37.8069C155.443 37.8069 143.761 49.1576 143.761 63.1669C143.761 77.1761 155.443 88.5648 169.852 88.5648C184.26 88.5648 195.935 77.2138 195.935 63.2045C195.935 49.1952 184.253 37.8069 169.852 37.8069ZM169.852 76.9731C167.113 77.0417 164.416 76.2927 162.105 74.8209C159.795 73.3494 157.975 71.2223 156.879 68.7115C155.784 66.2007 155.461 63.4201 155.954 60.7255C156.446 58.0305 157.731 55.5435 159.644 53.5826C161.557 51.6213 164.01 50.2749 166.692 49.7156C169.374 49.1562 172.162 49.409 174.699 50.4421C177.236 51.4748 179.408 53.2411 180.937 55.5144C182.466 57.7876 183.282 60.4651 183.281 63.2045C183.315 66.8044 181.921 70.2712 179.404 72.8448C176.887 75.4188 173.452 76.8897 169.852 76.9354V76.9731Z" fill="#000105"></path><path d="M45.5208 63.7921C45.5208 73.9603 39.6685 77.2671 33.7559 77.2671C27.4516 77.2671 22.8044 72.9586 22.8044 64.3272C22.8044 55.2889 22.8797 38.9293 22.8797 38.9293H10.0678L10 68.3489C10 80.6788 17.773 88.2785 29.0032 88.2785C35.8498 88.2785 41.9808 83.9403 45.5208 78.1407V87.2844H58.3253V38.854H45.5208V63.7921Z" fill="#000105"></path></svg> 