<?xml version="1.0" encoding="UTF-8"?> <svg xmlns="http://www.w3.org/2000/svg" width="360" height="261" viewBox="0 0 360 261" fill="none"><path d="M170.007 259.616C169.958 259.375 167.063 258.941 163.589 258.699C141.922 257.01 116.491 246.442 97.9607 231.386C81.5055 218.02 67.2218 199.296 59.8869 181.442C59.1631 179.704 58.2945 177.678 57.9084 176.857C54.241 168.461 50.9113 153.984 50.1392 142.74C49.9945 140.376 49.9462 139.942 49.9462 138.494C49.9462 135.829 49.9462 135.116 49.9462 132.703C49.9462 131.655 50.4287 129.808 50.4287 129.808H179.272H309.948C309.948 129.808 310.185 132.618 309.948 134.392C309.466 138.011 309.237 138.85 309.225 138.976C308.983 141.389 308.742 142.113 308.163 145.491C307.487 154.467 305.171 164.359 301.069 175.41C298.56 182.262 293.059 193.506 289.874 198.235C288.764 199.924 287.847 201.371 287.847 201.516C287.847 202.722 272.647 220.963 269.365 223.714C268.497 224.389 266.759 225.982 265.408 227.236C264.105 228.491 260.631 231.29 257.687 233.461C254.792 235.633 252.186 237.563 251.897 237.805C248.808 240.266 230.616 249.965 229.168 249.965C229.023 249.965 228.203 250.255 227.383 250.641C222.943 252.523 219.517 253.681 213.919 255.225C206.488 257.203 201.083 258.217 194.714 258.699C191.143 258.989 188.151 259.375 188.054 259.664C187.813 260.243 170.248 260.243 170.007 259.616Z" fill="#FED501"></path><path d="M297.16 101.09L63.1201 91.439C63.1201 91.439 86.0415 6.99122 182.553 4.57839C289.979 1.89268 297.16 101.09 297.16 101.09Z" fill="#FDD603"></path><path d="M171.358 0.476709C171.309 0.717989 168.414 1.15229 164.94 1.39357C143.273 3.08252 117.842 13.6506 99.3118 28.7064C82.8566 42.0733 68.5729 60.7966 61.2381 78.6512C60.5142 80.3884 59.6456 82.4152 59.2596 83.2355C55.5921 91.6321 52.2625 106.109 51.4904 117.352C51.3456 119.717 51.2817 119.932 51.0561 121.599C50.8276 123.288 50.5736 124.977 50.5736 127.39L50.3323 130.285H309.948V125.942C309.948 123.384 310.001 123 309.948 121.116C309.876 118.568 309.755 118.028 309.514 114.602C308.838 105.626 306.522 95.7338 302.42 84.6832C299.911 77.8309 294.41 66.5873 291.225 61.8582C290.115 60.1692 289.198 58.7215 289.198 58.5768C289.198 57.3704 273.997 39.1297 270.716 36.3791C269.847 35.7035 268.11 34.111 266.759 32.8564C265.456 31.6017 261.982 28.8029 259.038 26.6314C256.143 24.4599 253.537 22.5296 253.247 22.2884C250.159 19.8273 231.967 10.1279 230.519 10.1279C230.374 10.1279 229.554 9.83835 228.734 9.4523C224.294 7.57032 220.868 6.41217 215.27 4.86798C207.839 2.88949 202.434 1.87613 196.064 1.39357C192.494 1.10403 189.502 0.717986 189.405 0.428451C189.164 -0.15062 171.599 -0.150617 171.358 0.476709ZM158.724 11.1895C158.906 12.1437 159.794 14.8206 160.035 15.5445C160.035 15.5445 159.039 15.9187 157.412 16.1599C156.109 16.3529 154.758 16.3046 154.758 16.3046C154.758 16.3046 154.082 12.8785 153.937 11.6238C154.999 11.5273 158.531 11.2378 158.724 11.1895ZM184.483 17.318C186.896 19.007 187.33 20.7924 187.378 28.7546C187.378 36.9099 187.475 36.6686 184.001 36.6686H182.167L181.974 30.0093C181.781 22.1436 181.25 20.7442 178.403 20.7442C177.245 20.7442 176.328 21.1302 175.556 21.9506C174.398 23.0605 174.349 23.35 174.349 29.575C174.349 36.8134 174.398 36.6686 170.971 36.6686C169.234 36.6686 169.041 36.5721 168.8 35.0762C168.655 34.2558 168.559 29.8645 168.655 25.3285L168.8 17.125L170.151 16.6907C171.165 16.3046 171.84 16.4011 173.095 17.0767C174.446 17.8006 174.928 17.8488 175.845 17.3663C178.789 15.7738 182.263 15.7738 184.483 17.318ZM240.218 25.3767C242.486 27.5965 243.355 29.7198 243.355 33.4355C243.355 38.8401 239.495 45.3064 234.91 47.5262C230.712 49.6012 228.058 49.2151 220.434 45.3064C217.056 43.6175 214.16 41.9285 214.064 41.5907C213.919 41.2529 214.45 39.757 215.27 38.2128C216.042 36.7169 218.696 31.5535 221.157 26.7762C223.667 21.9988 225.886 17.9453 226.176 17.7523C226.948 17.2215 237.95 23.2052 240.218 25.3767ZM160.597 18.8622C160.79 19.1035 161.658 23.0122 162.527 27.5482C163.444 32.036 164.264 35.8965 164.409 36.1378C165.036 37.1029 164.023 38.068 161.948 38.5988C160.741 38.8884 159.535 38.9366 159.342 38.7436C159.101 38.5023 158.618 36.6204 158.184 34.4971C157.798 32.3738 157.122 29.2372 156.736 27.5C156.35 25.7628 155.916 23.2535 155.723 21.8541C155.433 19.393 155.433 19.3448 156.784 19.0552C157.556 18.8622 158.425 18.6692 158.666 18.5727C159.631 18.2349 160.307 18.3314 160.597 18.8622ZM207.067 19.4895C210.396 21.2267 212.182 24.7977 211.892 29.189L211.748 31.6017L209.335 31.5535C208.032 31.5052 204.992 31.0227 202.579 30.4919C200.214 29.961 198.091 29.6233 197.898 29.768C197.174 30.1541 197.512 32.1808 198.477 33.4355C199.732 35.0279 202.386 35.5105 204.364 34.5453C206.005 33.725 208.466 33.532 209.48 34.2076C210.589 34.8831 209.914 36.3308 207.791 37.8268C205.909 39.1297 205.378 39.2262 202.289 39.1779C199.394 39.1297 198.429 38.8884 196.595 37.7785C189.695 33.5802 191.094 21.8541 198.767 19.007C200.938 18.2349 205.088 18.4761 207.067 19.4895ZM148.098 24.2669C148.677 24.9424 149.739 27.0657 150.463 29.0442C151.187 30.9744 152.441 33.8215 153.165 35.414C153.937 36.9581 154.565 38.5506 154.565 38.9366C154.565 39.8052 151.428 41.1564 150.222 40.7704C149.594 40.5773 148.726 41.0116 147.423 42.218C143.611 45.6442 138.833 46.175 136.517 43.4244C134.973 41.5907 134.635 40.3361 134.973 38.3093C135.359 36.2826 136.806 34.6901 139.412 33.3872C144.383 30.8779 145.975 27.9343 142.549 27.5965C139.654 27.307 138.737 27.7895 138.158 29.961C137.723 31.5052 137.289 32.036 135.986 32.6151C133.284 33.725 132.367 33.532 132.367 31.843C132.367 31.0227 132.656 29.6715 133.043 28.8029C135.118 23.8808 145.155 20.8889 148.098 24.2669ZM127.252 32.7599L128.217 34.4006L126.19 36.1378C123.295 38.5988 123.391 40.2395 126.625 45.596C127.976 47.864 129.279 49.7942 129.52 49.9872C130.485 50.5663 129.858 51.6279 127.927 52.7861C125.563 54.1855 124.839 53.9442 123.44 51.2901C122.909 50.2768 121.895 48.5878 121.22 47.5262C114.512 37.1994 114.464 37.1512 117.215 35.8483C118.566 35.1727 119.097 35.1244 119.82 35.607C121.075 36.3791 121.123 36.3791 121.509 34.8831C122.523 30.8297 125.466 29.7198 127.252 32.7599ZM265.36 43.5692L267.483 45.6925L261.596 58.7698C258.411 66.0082 255.564 71.8954 255.274 71.8954C254.985 71.8954 254.02 71.2198 253.151 70.3512C251.414 68.6623 251.172 67.1181 252.282 65.1396C253.585 62.8716 253.199 61.7134 249.918 58.4803C248.229 56.8396 246.588 55.4884 246.299 55.4884C246.009 55.4884 244.706 56.0192 243.403 56.6465C241.184 57.8047 241.039 57.8047 239.929 57.0326C236.406 54.5715 236.213 53.6064 239.157 52.207C240.267 51.6762 244.561 49.746 248.663 47.864C252.765 45.982 257.446 43.7622 259.038 42.9901C260.631 42.218 262.223 41.5425 262.609 41.5425C262.947 41.4942 264.201 42.4593 265.36 43.5692ZM109.301 46.6093C109.108 51.4832 109.252 51.7727 112.341 52.3035C119.627 53.5582 122.475 54.3785 122.619 55.1506C122.764 55.9227 119.579 59.3489 118.711 59.3489C118.518 59.3489 116.491 58.8663 114.271 58.3355C108.046 56.7913 107.177 57.7082 110.99 61.8099C113.209 64.1745 113.258 64.271 112.534 65.5256C112.148 66.2495 111.231 67.1181 110.507 67.5524L109.204 68.2762L100.277 59.1076C95.4031 54.0407 91.2531 49.5529 91.0601 49.0221C90.867 48.3948 91.2048 47.7675 92.363 46.7541C93.2798 45.982 94.2449 45.3547 94.5345 45.3547C94.824 45.3547 96.8025 47.1884 98.974 49.4082C101.194 51.6279 103.269 53.6064 103.655 53.7512C104.234 53.9442 104.379 53.3651 104.379 50.3733C104.379 48.1535 104.668 46.2233 105.102 45.4029C105.875 43.8587 108.191 41.9285 108.963 42.1698C109.252 42.218 109.397 44.0035 109.301 46.6093ZM89.8537 62.7268C93.3763 64.8501 96.3682 66.5873 96.513 66.5873C97.1885 66.5873 100.566 69.7239 101.483 71.1716C103.027 73.6326 102.931 78.2652 101.29 81.4983C99.2635 85.4071 96.9473 87.6751 93.9554 88.6402C91.7839 89.3158 90.9636 89.364 89.2746 88.9297C86.0897 88.0611 71.0822 79.1338 71.0822 78.1204C71.0822 76.6727 73.0124 73.8256 74.0258 73.8256C74.5566 73.8256 76.8729 74.9838 79.1892 76.3832C81.5054 77.7826 84.7386 79.7611 86.4275 80.7745C88.1165 81.7879 90.3362 82.7047 91.3496 82.8495C93.0386 83.0908 93.4246 82.946 94.9205 81.4501C96.7542 79.6163 97.5746 76.8175 96.7542 75.032C96.3199 74.1152 92.3147 70.9303 91.5426 70.9303C91.3979 70.9303 90.3845 70.303 89.2746 69.5791C88.1647 68.807 86.9101 68.0349 86.524 67.8902C86.138 67.6971 84.8351 66.9251 83.6287 66.2012C82.4223 65.4774 81.0229 64.657 80.5403 64.3675C79.8648 63.9814 79.72 63.4989 79.913 62.6303C80.2991 61.1343 82.0845 58.8663 82.8566 58.8663C83.1944 58.8663 86.331 60.6035 89.8537 62.7268ZM282.78 66.8768C286.689 69.8204 288.522 72.9088 289.053 77.2518C290.211 86.8547 277.665 95.589 268.496 91.6803C264.105 89.7501 260.244 83.9111 260.244 79.1338C260.244 72.6675 265.89 66.4425 272.839 65.2361C276.507 64.6088 280.753 65.3326 282.78 66.8768Z" fill="#015BBB"></path><path d="M225.307 32.2781C223.28 36.2351 221.64 39.613 221.64 39.7577C221.64 40.4816 227.575 42.9426 229.216 42.9426C234.765 42.9426 239.205 34.1601 236.116 29.1897C235.296 27.8385 230.808 25.0879 229.457 25.0879C229.216 25.0879 227.334 28.3211 225.307 32.2781Z" fill="#015BBB"></path><path d="M200.649 23.1084C199.298 23.6875 198.236 25.0387 198.767 25.5213C199.394 26.1004 205.764 27.5481 206.247 27.2103C206.971 26.776 206.729 25.28 205.861 24.2183C204.895 23.0602 202.097 22.4811 200.649 23.1084Z" fill="#015BBB"></path><path d="M142.597 35.1721C140.425 36.8128 139.798 38.1158 140.57 39.5635C141.632 41.5421 145.879 40.3839 146.844 37.8263C147.423 36.3303 146.554 33.7726 145.444 33.7726C144.962 33.7726 143.707 34.4 142.597 35.1721Z" fill="#015BBB"></path><path d="M255.082 50.9511C253.152 51.8197 251.559 52.7849 251.559 52.9779C251.559 53.75 254.937 57.0315 255.516 56.8385C256.095 56.6455 259.715 50.4203 259.763 49.5516C259.763 48.9243 258.605 49.2621 255.082 50.9511Z" fill="#015BBB"></path><path d="M271.971 71.8472C269.269 73.1018 266.035 76.3832 265.939 78.0239C265.601 83.4286 268.303 86.8547 272.888 86.8547C275.445 86.8547 280.319 84.2007 282.056 81.8361C283.359 80.0507 283.456 79.5681 283.311 77.0105C283.118 74.453 282.925 74.0187 281.332 72.571C279.74 71.1233 279.257 70.9303 276.796 70.9303C275.107 70.9303 273.177 71.3164 271.971 71.8472Z" fill="#015BBB"></path><path d="M109.156 192.486C106.743 193.258 105.344 194.561 104.041 197.264C102.834 199.725 102.69 200.497 102.69 205.081C102.69 210.293 103.414 216.711 104.668 222.791C105.296 225.879 105.537 226.314 106.454 226.314C109.108 226.314 122.185 222.212 127.155 219.799C130.63 218.158 134.104 214.539 134.587 212.126C135.841 205.178 131.305 200.835 124.212 202.186C122.812 202.427 121.461 202.668 121.268 202.668C121.027 202.668 120.737 201.751 120.544 200.593C120.062 197.505 118.469 194.61 116.684 193.5C114.85 192.39 111.086 191.859 109.156 192.486Z" fill="#E92821"></path><path d="M100.47 176.514C99.746 176.948 97.9123 178.106 96.3681 179.023C94.7757 179.94 93.1833 180.905 92.7007 181.195C92.2664 181.436 90.3362 182.594 88.3577 183.752C78.9961 189.302 79.4787 188.819 80.7816 191.425C81.3124 192.535 82.0362 193.5 82.3258 193.645C82.6635 193.789 87.9234 190.846 94.0036 187.178C106.068 179.94 105.971 180.036 103.848 177.044C102.738 175.452 102.255 175.404 100.47 176.514Z" fill="#025BBB"></path><path d="M264.829 181.146C261.548 182.594 259.521 186.551 259.859 190.894C260.389 197.071 266.421 201.269 272.984 200.063C274.818 199.725 278.099 196.829 279.354 194.417C280.802 191.57 280.126 185.296 278.292 185.296C277.134 185.296 276.169 187.371 276.169 189.929C276.169 192.679 275.011 194.706 272.888 195.478C271.102 196.154 268.931 195.575 268.931 194.417C268.931 193.596 272.309 188.24 275.3 184.379C276.073 183.318 276.121 183.125 275.445 182.401C273.805 180.567 267.724 179.892 264.829 181.146ZM269.751 185.344C270.185 185.779 269.751 186.744 268.11 189.205C266.904 191.039 265.698 192.535 265.408 192.535C264.539 192.535 263.671 190.894 263.623 189.253C263.623 186.213 267.917 183.511 269.751 185.344Z" fill="#025BBB"></path><path d="M251.752 197.553C249.58 198.518 247.602 200.738 246.974 202.91C246.588 204.357 246.202 204.792 245.575 204.695C244.61 204.502 241.425 206.77 241.473 207.639C241.473 207.976 244.369 211.258 247.939 214.925L254.406 221.633L255.612 220.861C258.411 219.027 258.266 218.496 253.489 213.236C249.773 209.086 249.146 208.121 249.146 206.722C249.146 204.598 250.931 202.668 252.862 202.668C253.971 202.668 255.178 203.682 259.087 207.783L264.009 212.85L265.746 211.306C266.711 210.486 267.483 209.472 267.387 209.135C267.145 207.976 257.156 198.229 255.564 197.553C253.682 196.733 253.634 196.733 251.752 197.553Z" fill="#025BBB"></path><path d="M230.229 205.37C228.637 206.191 228.492 207.397 229.795 208.99L230.712 210.1L232.449 209.183C233.752 208.459 234.186 207.928 234.186 207.011C234.186 204.695 232.642 204.019 230.229 205.37Z" fill="#025BBB"></path><path d="M234.669 211.499C233.752 212.126 233.028 212.995 233.028 213.429C233.077 213.912 235.248 217.531 237.854 221.488C243.017 229.354 243.403 229.643 245.961 227.52L247.36 226.41L243.066 219.799C240.701 216.132 238.24 212.512 237.564 211.74L236.358 210.341L234.669 211.499Z" fill="#025BBB"></path><path d="M148.147 215.553C148.002 215.794 147.568 217.29 147.182 218.834C146.795 220.427 145.782 224.191 144.962 227.182C142.645 235.482 142.935 238.329 146.458 241.563C150.752 245.568 159.583 246.243 163.058 242.769C164.891 240.984 165.47 239.536 167.352 232.973C168.269 229.692 169.331 225.928 169.765 224.577C170.875 220.861 170.827 220.668 167.98 220.089C166.629 219.751 165.326 219.703 165.133 219.896C164.795 220.234 164.312 221.971 161.224 233.504C159.438 240.067 157.17 241.563 152.297 239.391C148.629 237.702 148.484 235.82 151.38 225.686C153.455 218.4 153.841 216.373 153.213 215.987C152.297 215.456 148.436 215.118 148.147 215.553Z" fill="#025BBB"></path><path d="M220.965 218.593C216.042 220.523 213.919 222.791 213.919 226.265C213.919 228.485 214.45 228.726 216.815 227.52C217.683 227.086 218.31 226.265 218.503 225.348C218.841 223.804 220.627 222.115 222.46 221.681C223.86 221.295 225.501 222.646 225.501 224.142C225.501 225.3 224.728 225.976 220.675 228.389C217.442 230.271 216.091 232.539 216.622 235.337C217.104 237.943 219.276 239.825 221.785 239.825C224.246 239.825 227.479 238.281 229.12 236.351C229.892 235.434 230.616 235 231.098 235.193C232.256 235.627 235.634 234.469 235.634 233.648C235.634 233.262 235.103 231.766 234.428 230.319C233.27 227.858 231.532 223.997 230.037 220.668C228.685 217.676 225.308 216.904 220.965 218.593ZM228.396 231.043C228.396 231.911 228.155 233.069 227.913 233.6C227.334 234.614 224.198 236.109 223.281 235.772C222.171 235.337 221.061 233.166 221.399 232.104C221.688 231.236 224.487 229.016 226.466 228.196C227.479 227.713 228.396 229.064 228.396 231.043Z" fill="#025BBB"></path><path d="M175.17 220.861C174.687 221.343 174.736 223.611 175.653 236.061C176.569 248.753 176.376 248.222 179.899 247.643L181.829 247.305L181.685 244.313C181.347 238.571 182.746 237.799 185.883 241.997C186.993 243.445 188.006 244.989 188.151 245.375C188.682 246.629 190.178 247.112 192.687 246.774C195.389 246.436 195.63 245.954 193.99 244.168C192.204 242.142 188.054 236.737 187.427 235.627C186.944 234.662 187.186 234.179 189.792 231.188C191.384 229.354 192.687 227.713 192.687 227.568C192.687 227.182 189.357 227.231 188.006 227.568C187.379 227.761 185.69 229.354 184.242 231.188C182.746 233.021 181.395 234.517 181.154 234.517C180.961 234.517 180.623 231.67 180.43 228.244C180.237 224.77 179.996 221.633 179.851 221.247C179.561 220.523 175.797 220.185 175.17 220.861Z" fill="#025BBB"></path><path d="M207.405 223.997C206.874 224.287 205.813 225.059 205.089 225.783C203.931 226.844 203.593 226.941 202.821 226.41C201.566 225.638 198.526 225.686 198.188 226.458C197.947 227.086 201.18 243.927 201.711 244.796C202.049 245.375 205.668 244.892 206.343 244.217C206.729 243.83 206.633 242.672 206.054 240.211C205.571 238.281 205.233 235.386 205.233 233.745C205.233 230.415 206.006 229.305 209.046 228.485C210.638 228.003 210.783 227.858 210.638 226.314C210.445 223.659 209.383 222.887 207.405 223.997Z" fill="#025BBB"></path></svg> 