<?xml version="1.0" encoding="UTF-8"?> <svg xmlns="http://www.w3.org/2000/svg" width="360" height="101" viewBox="0 0 360 101" fill="none"><path d="M92.5638 50.0242C92.5638 73.5222 73.5215 92.5724 50.0239 92.5724C26.5259 92.5724 7.47603 73.5222 7.47603 50.0242C7.47603 26.5263 26.5259 7.47607 50.0239 7.47607C73.5217 7.47607 92.5638 26.5263 92.5638 50.0242" fill="#EE3023"></path><path d="M50.3599 73.7484C38.6736 73.7881 26.5101 63.8129 26.4557 47.7882C26.4166 37.196 32.1385 26.9951 39.4395 20.9447C46.5683 15.0507 56.3319 11.2595 65.1806 11.228C66.3218 11.228 67.5178 11.3219 68.2448 11.5719C60.506 13.1744 54.3464 20.3818 54.3698 28.5504C54.3698 28.824 54.3931 29.1132 54.4242 29.2461C67.3768 32.4042 73.2552 40.2211 73.2943 51.0319C73.3256 61.8507 64.7895 73.7012 50.3593 73.748" fill="white"></path><path d="M120.04 67.6435L107.033 36.6022H115.53L123.644 57.2157L131.508 36.6022H139.622L126.998 67.6437L120.04 67.6435ZM162.26 51.9626C162.26 50.6727 162.112 49.4454 161.807 48.2807C161.509 47.1162 161.056 46.1155 160.454 45.2791C159.852 44.4348 159.125 43.7704 158.265 43.2779C157.406 42.7777 156.397 42.5275 155.24 42.5275C154.083 42.5275 153.067 42.7777 152.215 43.2779C151.355 43.7704 150.62 44.4348 150.026 45.2791C149.424 46.1155 148.971 47.1162 148.674 48.2807C148.369 49.4456 148.221 50.6727 148.221 51.9628C148.221 53.2994 148.369 54.5423 148.674 55.6836C148.971 56.8249 149.409 57.8253 149.987 58.6852C150.566 59.5452 151.3 60.2252 152.184 60.7255C153.059 61.2178 154.083 61.4681 155.24 61.4681C156.397 61.4681 157.406 61.2178 158.265 60.7255C159.125 60.2252 159.852 59.5452 160.454 58.6852C161.056 57.8253 161.51 56.8246 161.806 55.6836C162.111 54.5423 162.26 53.2994 162.26 51.9626V51.9626ZM170.116 51.9968C170.116 54.0212 169.803 56.0067 169.186 57.961C168.56 59.9152 167.638 61.6585 166.411 63.2063C165.191 64.754 163.643 65.9969 161.775 66.9427C159.907 67.8886 157.726 68.3577 155.24 68.3577C152.747 68.3577 150.566 67.8884 148.705 66.9427C146.837 65.9969 145.289 64.754 144.062 63.2063C142.843 61.6585 141.92 59.9152 141.295 57.961C140.677 56.0067 140.364 54.0212 140.364 51.9968C140.364 49.9797 140.677 48.0101 141.295 46.0713C141.92 44.1407 142.843 42.413 144.062 40.8887C145.289 39.3645 146.837 38.145 148.705 37.2225C150.566 36.3002 152.747 35.8312 155.24 35.8312C157.726 35.8312 159.899 36.3004 161.744 37.2225C163.589 38.145 165.136 39.3645 166.379 40.8887C167.63 42.413 168.56 44.1407 169.186 46.0713C169.803 48.0101 170.116 49.9797 170.116 51.9968V51.9968ZM194.106 43.4343C192.566 42.8323 191.136 42.5275 189.807 42.5275C188.447 42.5275 187.266 42.7936 186.289 43.3092C185.304 43.8247 184.491 44.5208 183.85 45.4042C183.209 46.2876 182.733 47.2802 182.412 48.3824C182.089 49.4843 181.926 50.6267 181.927 51.7749C181.927 53.0648 182.068 54.2999 182.349 55.4881C182.623 56.6684 183.053 57.7082 183.632 58.5914C184.202 59.4748 184.929 60.1861 185.805 60.7255C186.68 61.2569 187.72 61.5307 188.916 61.5307C189.901 61.5307 190.901 61.2572 191.925 60.7255C192.949 60.1861 193.676 59.5452 194.106 58.8182V43.4343ZM194.747 67.6435L194.427 65.2671C193.7 66.0801 192.738 66.7992 191.534 67.4169C190.339 68.0422 188.924 68.3548 187.298 68.3548C185.164 68.3548 183.272 67.9016 181.654 67.0026C180.02 66.1036 178.652 64.8997 177.542 63.3989C176.432 61.8981 175.58 60.1548 175.002 58.1773C174.431 56.2072 174.142 54.1437 174.142 51.9939C174.14 49.9853 174.441 47.9879 175.033 46.0686C175.635 44.1378 176.542 42.4104 177.761 40.8861C178.988 39.3616 180.513 38.1421 182.357 37.2198C184.194 36.2973 186.36 35.8285 188.838 35.8285C190.464 35.8285 192.222 36.1331 194.106 36.7273V24.689H202.087V67.6435H194.747ZM224.569 53.0882C223.709 53.1335 222.818 53.2138 221.911 53.3152C221.043 53.4186 220.18 53.5593 219.324 53.7372C217.588 54.0809 216.392 54.6675 215.72 55.5039C215.056 56.3482 214.72 57.2548 214.72 58.2475C214.72 59.2716 215.095 60.1002 215.853 60.7255C216.611 61.343 217.674 61.6558 219.058 61.6558C220.098 61.6574 221.126 61.439 222.075 61.0149C223.045 60.5847 223.881 60.0455 224.569 59.4046V53.0882ZM225.21 67.62L224.897 65.2984C224.03 66.2522 222.935 67.0026 221.599 67.5418C220.262 68.0815 218.8 68.3548 217.205 68.3548C215.869 68.3548 214.579 68.128 213.36 67.6748C212.124 67.2296 211.038 66.5804 210.092 65.744C209.146 64.9075 208.38 63.8834 207.802 62.6563C207.215 61.429 206.926 60.0455 206.926 58.4977C206.926 56.9578 207.223 55.5895 207.833 54.4094C208.435 53.229 209.248 52.2361 210.287 51.4155C211.319 50.6026 212.507 49.938 213.844 49.4222C215.173 48.9064 216.58 48.5153 218.042 48.2573C219.074 48.0463 220.207 47.8899 221.434 47.7804C222.662 47.6709 223.686 47.5772 224.506 47.491V47.0378C224.506 45.318 224.069 44.0987 223.178 43.3639C222.294 42.6368 221.075 42.2694 219.527 42.2694C218.62 42.2694 217.753 42.3789 216.932 42.5979C216.111 42.8088 215.384 43.0749 214.735 43.3952C214.086 43.7235 213.516 44.0439 213.016 44.3646C212.523 44.6851 212.124 44.9742 211.82 45.2321L209.177 39.6351C209.521 39.3305 210.045 38.9707 210.756 38.5408C211.468 38.1108 212.32 37.6887 213.336 37.2822C214.345 36.8755 215.478 36.5318 216.744 36.2504C218.011 35.9691 219.378 35.8285 220.833 35.8285C222.552 35.8285 224.124 36.0553 225.538 36.5085C226.953 36.9617 228.18 37.6652 229.212 38.6346C230.236 39.5962 231.042 40.8157 231.628 42.3009C232.206 43.7782 232.495 45.5682 232.495 47.6711V67.62H225.21ZM257.166 31.7714C256.908 31.6465 256.408 31.4588 255.657 31.2239C254.899 30.9897 253.906 30.8722 252.655 30.8722C251.545 30.8722 250.607 31.2087 249.857 31.8729C249.107 32.5373 248.731 33.6238 248.731 35.1248V36.6022H255.43V43.0433H248.794V67.6435H240.805V43.0433H236.685V36.6022H240.805V34.9293C240.805 32.9125 241.063 31.2085 241.579 29.8091C242.095 28.4178 242.814 27.2763 243.736 26.4008C244.659 25.5176 245.745 24.8689 246.988 24.4624C248.239 24.0555 249.591 23.8525 251.053 23.8525C252.984 23.8525 254.578 24.0324 255.845 24.4C257.111 24.7676 257.854 25.0097 258.065 25.1426L257.166 31.7714ZM278.936 51.9626C278.936 50.6727 278.78 49.4454 278.483 48.2807C278.185 47.1162 277.732 46.1155 277.13 45.2791C276.528 44.4348 275.801 43.7704 274.942 43.2779C274.082 42.7777 273.073 42.5275 271.916 42.5275C270.76 42.5275 269.743 42.7777 268.891 43.2779C268.031 43.7704 267.296 44.4348 266.695 45.2791C266.1 46.1155 265.647 47.1162 265.342 48.2807C265.045 49.4456 264.897 50.6727 264.897 51.9628C264.897 53.2994 265.045 54.5423 265.342 55.6836C265.647 56.8249 266.085 57.8253 266.663 58.6852C267.242 59.5452 267.977 60.2252 268.852 60.7255C269.735 61.2178 270.759 61.4681 271.916 61.4681C273.073 61.4681 274.081 61.2178 274.942 60.7255C275.801 60.2252 276.528 59.5452 277.13 58.6852C277.732 57.8253 278.185 56.8246 278.482 55.6836C278.78 54.5423 278.936 53.2994 278.936 51.9626ZM286.792 51.9968C286.792 54.0212 286.479 56.0067 285.854 57.961C285.237 59.9152 284.314 61.6585 283.087 63.2063C281.867 64.754 280.32 65.9969 278.451 66.9427C276.583 67.8886 274.402 68.3577 271.916 68.3577C269.423 68.3577 267.242 67.8884 265.381 66.9427C263.513 65.9969 261.965 64.754 260.738 63.2063C259.519 61.6585 258.596 59.9152 257.971 57.961C257.352 56.0335 257.038 54.0211 257.041 51.9968C257.041 49.9797 257.346 48.0101 257.971 46.0713C258.596 44.1407 259.519 42.413 260.738 40.8887C261.965 39.3645 263.513 38.145 265.381 37.2225C267.242 36.3002 269.423 35.8312 271.916 35.8312C274.402 35.8312 276.575 36.3004 278.42 37.2225C280.265 38.145 281.813 39.3645 283.056 40.8887C284.306 42.413 285.237 44.1407 285.854 46.0713C286.479 48.0101 286.792 49.9797 286.792 51.9968V51.9968ZM311.58 67.6435V49.938C311.58 47.5772 311.087 45.7481 310.102 44.4583C309.11 43.1762 307.741 42.5277 305.975 42.5277C304.732 42.5277 303.583 42.8479 302.536 43.4969C301.48 44.1378 300.566 44.8491 299.792 45.623V67.6435H291.811V36.6022H299.088L299.471 39.0489C300.729 38.0163 302.157 37.212 303.692 36.6726C305.256 36.1098 306.835 35.8361 308.422 35.8361C310.055 35.8361 311.556 36.0784 312.932 36.5709C314.308 37.0712 315.488 37.8531 316.473 38.9238C317.466 39.9949 318.224 41.394 318.763 43.106C319.295 44.8256 319.569 46.8894 319.569 49.2892V67.6435H311.58ZM344.411 48.3902C344.325 47.3193 344.098 46.3814 343.731 45.5917C343.364 44.7944 342.91 44.1534 342.371 43.6611C341.831 43.1606 341.253 42.8012 340.627 42.5588C339.994 42.3245 339.361 42.207 338.712 42.207C337.329 42.207 336.015 42.7228 334.765 43.7548C333.514 44.7867 332.779 46.3267 332.56 48.3904L344.411 48.3902ZM332.373 54.1202C332.545 56.7388 333.358 58.6305 334.827 59.7874C336.289 60.9443 338.189 61.5307 340.51 61.5307C341.589 61.5307 342.605 61.429 343.551 61.2413C344.497 61.0462 345.341 60.8035 346.076 60.4987C346.811 60.2015 347.436 59.8969 347.952 59.5997C348.468 59.2951 348.851 59.0135 349.117 58.7556L351.243 65.2671C350.938 65.4781 350.454 65.7672 349.789 66.1348C349.125 66.5024 348.296 66.8383 347.311 67.1666C346.326 67.4871 345.161 67.7608 343.833 68.0031C342.504 68.2373 341.042 68.3548 339.455 68.3548C337.43 68.3548 335.515 68.0343 333.686 67.3932C331.865 66.7445 330.262 65.7438 328.894 64.3916C327.518 63.0393 326.424 61.3586 325.611 59.3418C324.79 57.3248 324.384 54.9173 324.384 52.1266C324.384 49.508 324.759 47.1864 325.51 45.1696C326.26 43.1528 327.292 41.4566 328.597 40.0807C329.91 38.7126 331.435 37.6574 333.17 36.9226C334.914 36.1957 336.766 35.8283 338.744 35.8283C340.721 35.8283 342.543 36.1568 344.223 36.7977C345.896 37.4384 347.342 38.4391 348.57 39.7913C349.789 41.1438 350.758 42.8949 351.462 45.0444C352.173 47.1864 352.525 49.7424 352.525 52.705V54.12L332.373 54.1202Z" fill="#EE3023"></path></svg> 