<?xml version="1.0" encoding="UTF-8"?> <svg xmlns="http://www.w3.org/2000/svg" width="360" height="67" viewBox="0 0 360 67" fill="none"><path d="M141.508 41.1457C139.919 44.9072 137.244 48.1292 133.886 50.396C130.528 52.6627 126.517 53.982 122.147 53.982C119.228 53.982 116.478 53.3882 113.967 52.3349C110.205 50.7419 106.984 48.0699 104.713 44.7111C102.448 41.3496 101.134 37.3402 101.129 32.9673C101.129 30.0465 101.715 27.298 102.78 24.7849C104.367 21.0285 107.041 17.7998 110.398 15.5402C113.761 13.2678 117.777 11.9496 122.147 11.9496C125.06 11.9496 127.81 12.5357 130.317 13.5931C134.086 15.187 137.304 17.8596 139.573 21.2205C141.839 24.5783 143.156 28.5903 143.156 32.9673C143.156 35.8894 142.569 38.6285 141.508 41.1457V41.1457ZM140.58 5.63369C135.326 2.07913 128.953 -0.0036915 122.147 0.000406197C117.613 -0.0036915 113.259 0.921992 109.31 2.5883C103.387 5.10032 98.3659 9.2698 94.8119 14.5314C91.2605 19.7809 89.1776 26.1609 89.1776 32.9673C89.1776 37.5003 90.0998 41.8505 91.7722 45.8005C94.279 51.7255 98.4537 56.7444 103.707 60.2994C108.962 63.8519 115.339 65.9328 122.147 65.9302C126.682 65.9302 131.027 65.0008 134.975 63.3381C140.9 60.8313 145.92 56.6566 149.472 51.4054C153.025 46.1464 155.111 39.7774 155.111 32.9673C155.111 28.4302 154.186 24.076 152.515 20.1259C150.005 14.2075 145.842 9.18613 140.58 5.63369" fill="#00ADEF"></path><path d="M122.146 22.7993C116.533 22.7993 111.98 27.3509 111.98 32.9646C111.98 38.5792 116.533 43.1309 122.146 43.1309C127.759 43.1309 132.308 38.5792 132.308 32.9646C132.308 27.3509 127.759 22.7993 122.146 22.7993Z" fill="#EC008C"></path><path d="M26.3964 65.3799L7.93103 0.721357H19.9851L31.5708 45.9808L42.8931 0.721357H52.2478L63.5712 45.9808L75.1568 0.721357H87.2134L68.7454 65.3799H58.6907L47.5727 22.0385L36.5375 65.3799H26.3964Z" fill="#00ADEF"></path><path d="M174.089 12.2859V31.5072H181.182C184.859 31.5072 187.776 30.7379 189.936 29.1899C192.095 27.6502 193.18 25.2182 193.18 21.8965C193.121 18.6333 192.023 16.2121 189.893 14.6424C187.763 13.0717 184.859 12.2859 181.182 12.2859H174.089ZM162.126 65.3799V0.721357H180.837C188.646 0.721357 194.646 2.55184 198.847 6.22139C203.041 9.87971 205.14 14.8841 205.14 21.2202C205.14 26.5116 203.522 31.0916 200.289 34.96C197.054 38.8218 192.842 40.9879 187.655 41.4551L205.841 65.3799H191.363L174.476 41.4551H174.089V65.3799H162.126Z" fill="#00ADEF"></path><path d="M213.877 65.3799V0.721357H225.841V28.7733L245.927 0.721357H259.999L235.739 32.5297L259.955 65.3799H245.927L225.841 37.0714V65.3799H213.877Z" fill="#00ADEF"></path><path d="M267.918 65.3799V57.0797H276.218V65.3799H267.918Z" fill="#00ADEF"></path><path d="M311.726 30.9059V65.3801H304.107V62.2046H303.982C302.861 63.5806 301.547 64.6469 300.036 65.3982C298.519 66.1494 296.85 66.5264 295.028 66.5264C290.342 66.5264 286.844 65.0858 284.523 62.1968C282.197 59.3131 281.059 55.11 281.099 49.5852V30.9059H289.401V48.4802C289.356 52.0507 289.916 54.6582 291.075 56.3002C292.235 57.9396 294.016 58.7399 296.417 58.6986C298.774 58.7399 300.532 57.9396 301.688 56.3002C302.85 54.6582 303.429 52.0507 303.429 48.4802V30.9059H311.726Z" fill="#00ADEF"></path><path d="M334.381 37.5802C331.405 37.5802 328.975 38.6128 327.095 40.6757C325.213 42.7411 324.273 45.3304 324.273 48.457C324.232 51.4517 325.154 53.9147 327.031 55.8277C328.91 57.7434 331.366 58.6986 334.381 58.6986C337.317 58.6986 339.694 57.7227 341.511 55.7632C343.332 53.8088 344.241 51.2453 344.241 48.08C344.241 45.0801 343.332 42.581 341.511 40.5853C339.694 38.5819 337.317 37.5802 334.381 37.5802V37.5802ZM352.069 30.9059V65.3801H344.447V60.7304H344.32C342.868 62.6822 341.14 64.128 339.135 65.0599C337.12 65.9945 335.019 66.4851 332.819 66.5264C328.222 66.5264 324.261 64.8663 320.952 61.5385C317.631 58.2184 315.976 53.8527 315.976 48.457C315.976 43.0973 317.623 38.6361 320.917 35.0883C324.209 31.5359 328.26 29.7571 333.073 29.7571C335.473 29.7571 337.64 30.2657 339.566 31.2855C341.492 32.3052 343.079 33.7871 344.32 35.7368H344.447V30.9059H352.069" fill="#00ADEF"></path></svg> 