<?xml version="1.0" encoding="UTF-8"?> <svg xmlns="http://www.w3.org/2000/svg" width="100" height="100" viewBox="0 0 100 100" fill="none"><path d="M49.6167 86.7167C70.3219 86.7167 87.1067 69.9318 87.1067 49.2267C87.1067 28.5215 70.3219 11.7367 49.6167 11.7367C28.9116 11.7367 12.1267 28.5215 12.1267 49.2267C12.1267 69.9318 28.9116 86.7167 49.6167 86.7167Z" fill="#A2DDF0"></path><path d="M36.6101 73.52C36.6101 73.52 32.1035 75.15 31.3068 72.99C30.5101 70.83 27.2168 50.4533 27.2168 50.4533C27.2168 50.4533 27.5968 47.8767 32.4801 47.12C37.3668 46.3633 78.4968 38.41 78.4968 38.41C78.4968 38.41 82.8901 37.4633 82.7401 40.4933C82.5901 43.5233 77.4368 61.59 77.4368 61.7033C77.4368 61.8167 76.7535 63.2933 73.6101 64.05C70.4668 64.8067 36.6068 73.52 36.6068 73.52H36.6101Z" stroke="#231F20" stroke-linecap="round" stroke-linejoin="round"></path><path d="M65.9568 32.7566C69.0901 32.2333 72.0635 31.7466 72.3735 31.7266C73.0235 31.6866 76.0335 31.4 78.1068 32.2133L79.0435 33.19L79.7768 34.7333C79.7768 34.7333 81.0768 36.44 81.5668 36.6833C82.0568 36.9266 83.1535 39.4066 83.1535 39.4066C83.1535 39.4066 83.3268 40.3433 82.7535 40.91" stroke="#231F20" stroke-linecap="round" stroke-linejoin="round"></path><path d="M50.8535 35.3766C54.8002 34.6733 58.0169 34.1066 58.3502 34.0466C58.5235 34.0166 59.1235 33.91 59.9902 33.7633" stroke="#231F20" stroke-linecap="round" stroke-linejoin="round"></path><path d="M31.5734 73.4433C31.5734 73.4433 31.5167 73.8033 30.7834 73.2333C30.0501 72.6633 26.5134 63.3533 26.5134 63.3533L24.1567 49.3266C24.1567 49.3266 24.6034 42.2133 25.4167 41.7233C26.2301 41.2333 27.0601 40.18 27.8634 40.0566C28.6667 39.9333 34.5634 38.4633 35.0501 38.2633C35.2167 38.1966 37.8334 37.71 41.2634 37.0866" stroke="#231F20" stroke-linecap="round" stroke-linejoin="round"></path><path d="M33.6701 38.8833L35.4167 44.4666C35.4167 44.4666 41.5267 43.2866 41.6501 43.2866C41.7734 43.2866 48.0201 36.0766 52.6667 34.5066C57.3134 32.9333 62.2867 33.5566 65.4201 35.7666C68.5501 37.9766 66.6667 38.4233 70.0001 37.9633C73.3334 37.5033 74.7967 36.96 74.7967 36.96L71.6534 32.1233L65.9534 32.76C65.9534 32.76 60.5401 30.2266 53.8167 31.3233C47.0967 32.42 42.3667 36.9733 39.6567 37.8566L33.6667 38.8866L33.6701 38.8833Z" stroke="#231F20" stroke-linecap="round" stroke-linejoin="round"></path><path d="M41.6535 43.2867L39.6602 37.8533" stroke="#231F20" stroke-linecap="round" stroke-linejoin="round"></path><path d="M34.7534 39.3967L40.7434 42.84" stroke="#231F20" stroke-linecap="round" stroke-linejoin="round"></path><path d="M38.9166 38.76L36.0566 43.6533" stroke="#231F20" stroke-linecap="round" stroke-linejoin="round"></path><path d="M68.4501 38.1233L65.9568 32.7567" stroke="#231F20" stroke-linecap="round" stroke-linejoin="round"></path><path d="M73.6034 36.5967L67.0901 33.4267" stroke="#231F20" stroke-linecap="round" stroke-linejoin="round"></path><path d="M71.2667 32.8366L68.9067 37.4" stroke="#231F20" stroke-linecap="round" stroke-linejoin="round"></path><path d="M73.2168 34.5267C73.2168 34.5267 77.1301 33.7633 79.7701 34.7367" stroke="#231F20" stroke-linecap="round" stroke-linejoin="round"></path><path d="M80.7468 35.9233C80.7468 35.9233 78.2101 34.7966 73.9167 35.6" stroke="#231F20" stroke-linecap="round" stroke-linejoin="round"></path><path d="M34.4634 41.4133C34.4634 41.4133 24.6167 42.1533 24.2234 48.4133" stroke="#231F20" stroke-linecap="round" stroke-linejoin="round"></path><path d="M34.7534 42.3466C34.7534 42.3466 25.54 43.3967 24.6634 48.7833L24.53 51.5533" stroke="#231F20" stroke-linecap="round" stroke-linejoin="round"></path><path d="M33.6701 38.27C33.6701 38.27 32.6134 36.08 32.5334 35.62C32.4534 35.16 37.6001 33.86 37.6301 33.94C37.6601 34.02 38.5301 37.5967 38.5301 37.5967" stroke="#231F20" stroke-linecap="round" stroke-linejoin="round"></path><path d="M67.7734 32.4533C67.8234 32.4467 67.3134 31.5233 68.0234 29.53C68.1134 29.2767 67.9201 29.01 67.6534 29.02L63.0801 29.14L63.2101 31.8233" stroke="#231F20" stroke-linecap="round" stroke-linejoin="round"></path><path d="M27.2434 50.3367C27.2434 50.3367 40.3901 50.4167 58.9834 45.97C77.5767 41.5267 81.2101 41.5133 82.6467 39.6633" stroke="#231F20" stroke-linecap="round" stroke-linejoin="round"></path><path d="M27.8435 54.26C27.8435 54.26 36.4902 54.5066 43.5102 52.9367C50.5302 51.3633 78.7435 45.2667 78.7435 45.2667C78.7435 45.2667 80.9602 44.6467 82.1768 43.6533" stroke="#231F20" stroke-linecap="round" stroke-linejoin="round"></path><path d="M28.6567 57.57C28.6567 57.57 29.7934 58.2733 34.7534 57.7867C39.7134 57.3 78.3334 48.6533 78.3334 48.6533C78.3334 48.6533 80.8167 47.9867 81.3367 47.1533" stroke="#231F20" stroke-linecap="round" stroke-linejoin="round"></path><path d="M28.9768 60.99C28.9768 60.99 31.7335 61.9433 37.4835 60.99C43.2368 60.0367 78.4168 51.9867 78.4168 51.9867C78.4168 51.9867 79.3768 51.9867 80.3201 51.1067" stroke="#231F20" stroke-linecap="round" stroke-linejoin="round"></path><path d="M29.5635 64.35C29.5635 64.35 31.6101 65.2967 35.7035 64.5367C39.7968 63.7767 77.1968 55.3267 77.1968 55.3267C77.1968 55.3267 79.1401 54.7967 79.5368 54.0433" stroke="#231F20" stroke-linecap="round" stroke-linejoin="round"></path><path d="M30.1833 67.76C30.1833 67.76 34.3767 68.7633 39.96 67.22C45.5433 65.6766 75.8967 58.8166 75.8967 58.8166C75.8967 58.8166 77.84 58.6566 78.5634 57.4233" stroke="#231F20" stroke-linecap="round" stroke-linejoin="round"></path><path d="M25.0201 54.46C25.0201 54.46 7.70677 55.24 5.97344 55.0767C4.2401 54.9133 1.3401 54.3733 5.40344 53.37C9.4701 52.3667 11.9901 51.7967 16.9768 52.2033C21.9634 52.61 24.8401 53.3733 24.8401 53.3733" stroke="#231F20" stroke-linecap="round" stroke-linejoin="round"></path><path d="M3.34009 54.2733L4.15675 61.2566C4.15675 61.2566 7.65342 62.4933 19.7401 61.4166C19.7401 61.4166 23.0768 61.1033 26.1334 61.08" stroke="#231F20" stroke-linecap="round" stroke-linejoin="round"></path><path d="M5.19678 61.4867L5.51011 63.3167C5.51011 63.3167 10.3668 66.86 27.0834 64.83" stroke="#231F20" stroke-linecap="round" stroke-linejoin="round"></path></svg> 