<?xml version="1.0" encoding="UTF-8"?> <svg xmlns="http://www.w3.org/2000/svg" width="100" height="100" viewBox="0 0 100 100" fill="none"><path d="M49.3034 88.4667C70.0085 88.4667 86.7934 71.6818 86.7934 50.9767C86.7934 30.2715 70.0085 13.4867 49.3034 13.4867C28.5982 13.4867 11.8134 30.2715 11.8134 50.9767C11.8134 71.6818 28.5982 88.4667 49.3034 88.4667Z" fill="#A2DDF0"></path><path d="M50.3366 63.1133C53.8766 63.8133 61.6333 65.9967 61.8666 71.0333C62.0366 74.71 61.27 75.2567 61.27 75.2567C61.27 75.2567 54.2966 82.0367 34.47 80.4367C14.6433 78.8367 13.0266 73.75 13 72.6533C12.9733 71.5233 13.0433 70.2667 13.0433 70.2667C13.0433 70.2667 15.47 62.7167 34.0233 62.5867C35.82 62.5733 38.7466 62.4767 40.3766 62.5033" stroke="#231F20" stroke-linecap="round" stroke-linejoin="round"></path><path d="M12.9933 71.8433C12.9933 71.8433 17.0633 79.5567 40.3733 78.2033C61.29 76.9867 61.88 71.3733 61.88 71.3733" stroke="#231F20" stroke-linecap="round" stroke-linejoin="round"></path><path d="M22.2733 68.9433C22.2733 68.9433 28.37 66.3 31.9967 65.83C31.9967 65.83 30.76 64.1667 29.2667 64.21C27.7733 64.2533 18.99 66.5567 18.9033 67.8333C18.8167 69.1133 22.2733 68.9433 22.2733 68.9433Z" stroke="#231F20" stroke-linecap="round" stroke-linejoin="round"></path><path d="M21.2066 70.6933C21.2066 70.6933 20.9066 74.2067 29.4166 74.61L30.12 76.2933C30.12 76.2933 21.25 76.19 18.6066 73.8467C16.66 72.12 16.8633 70.28 17.1066 69.43C17.1833 69.1667 17.47 69.0333 17.72 69.1433L21.2066 70.69V70.6933Z" stroke="#231F20" stroke-linecap="round" stroke-linejoin="round"></path><path d="M31.9966 75L32.5832 76.15C32.5832 76.15 45.4099 76.8267 49.3899 75.2567L45.1833 74.0067C45.1833 74.0067 40.5632 75.2667 31.9966 74.61V75Z" stroke="#231F20" stroke-linecap="round" stroke-linejoin="round"></path><path d="M42.6133 73.08C42.6133 73.08 30.77 73.8867 25.0866 71.89C19.4066 69.8933 33.1466 67.3233 33.1466 67.3233L42.6133 73.08Z" stroke="#231F20" stroke-linecap="round" stroke-linejoin="round"></path><path d="M53.7433 71.63C53.7433 71.63 56.4733 73.1667 57.4533 72.8667C58.4333 72.5667 60.3533 69.67 56.8566 67.6633C53.3599 65.66 51.3133 65.2333 49.5233 64.9767L49.2666 65.52C49.2666 65.52 54.0033 67.05 54.4266 69.1033C54.8533 71.16 53.7433 71.6267 53.7433 71.6267V71.63Z" stroke="#231F20" stroke-linecap="round" stroke-linejoin="round"></path><path d="M48.3066 71.7167L46.24 72.3333L38.9266 67.9633V65.7033C38.9266 65.7033 38.35 64.2533 39.7366 62.9733C41.1233 61.6933 42.4666 62.25 42.4666 62.25L51.97 66.8233C51.97 66.8233 54.9833 69.18 52.34 71.76C52.23 72.8033 51.2 73.49 50.1933 73.1933L48.2233 72.6133L48.31 71.7167H48.3066Z" stroke="#231F20" stroke-linecap="round" stroke-linejoin="round"></path><path d="M48.0932 71.3733C48.0932 71.3733 45.8566 68.5 48.7199 66.97" stroke="#231F20" stroke-linecap="round" stroke-linejoin="round"></path><path d="M67.5399 19.75L74.5499 6.69333" stroke="#231F20" stroke-linecap="round" stroke-linejoin="round"></path><path d="M44.7333 63.34L66.4599 21.8267" stroke="#231F20" stroke-linecap="round" stroke-linejoin="round"></path><path d="M71.7633 22.1067L79.3566 7.56665" stroke="#231F20" stroke-linecap="round" stroke-linejoin="round"></path><path d="M49.1166 65.45L71.7632 22.1067" stroke="#231F20" stroke-linecap="round" stroke-linejoin="round"></path></svg> 