<?xml version="1.0" encoding="UTF-8"?> <svg xmlns="http://www.w3.org/2000/svg" width="100" height="100" viewBox="0 0 100 100" fill="none"><path d="M49.83 88.6767C70.5351 88.6767 87.32 71.8918 87.32 51.1867C87.32 30.4815 70.5351 13.6967 49.83 13.6967C29.1248 13.6967 12.34 30.4815 12.34 51.1867C12.34 71.8918 29.1248 88.6767 49.83 88.6767Z" fill="#A2DDF0"></path><path d="M52.2267 17.91C48.6067 18.1233 46.0367 15.7733 45.9467 15.6833C42.9467 12.6933 44.5334 11.4733 44.6267 11.3867C45.8634 10.23 48.1167 9.84332 49.0701 9.68999C50.0234 9.53666 52.2201 9.52666 54.4234 9.68666C54.4234 9.68666 55.1434 9.70666 56.6134 10.0833C56.9667 10.1733 57.3401 10.2833 57.6634 10.6067C57.9701 10.9133 58.1001 11.34 58.1534 11.4933C58.2301 11.7233 58.2634 12.4533 58.2801 12.6" stroke="#231F20" stroke-linecap="round" stroke-linejoin="round"></path><path d="M49.8001 7.56666C50.0891 7.56666 50.3234 7.33235 50.3234 7.04332C50.3234 6.75429 50.0891 6.51999 49.8001 6.51999C49.511 6.51999 49.2767 6.75429 49.2767 7.04332C49.2767 7.33235 49.511 7.56666 49.8001 7.56666Z" stroke="#231F20" stroke-linecap="round" stroke-linejoin="round"></path><path d="M53.61 7.64335C53.899 7.64335 54.1333 7.40904 54.1333 7.12001C54.1333 6.83098 53.899 6.59668 53.61 6.59668C53.321 6.59668 53.0867 6.83098 53.0867 7.12001C53.0867 7.40904 53.321 7.64335 53.61 7.64335Z" stroke="#231F20" stroke-linecap="round" stroke-linejoin="round"></path><path d="M41.7134 8.8C41.7134 8.8 44.2134 6.95666 45.11 6.60666C46.43 6.09 49.26 5.69 50.6767 5.65666C52.39 5.61666 55.8367 5.94333 57.49 6.39666C57.9367 6.52 58.8067 6.93666 59.05 7.33333C59.2934 7.73 59.18 9.01 59.18 9.01" stroke="#231F20" stroke-linecap="round" stroke-linejoin="round"></path><path d="M43.9767 7.23334C44.1534 6.63 44.84 4.79 45.9534 3.68667C46.2267 3.41667 47.4467 2.25334 49.45 1.84667C50.26 1.68334 52.3567 1.41 54.4267 2.67667C56.2934 3.81667 57.2767 5.82334 57.49 6.39667" stroke="#231F20" stroke-linecap="round" stroke-linejoin="round"></path><path d="M42.5034 20.8233C42.3701 20.4633 42.1767 19.9367 41.9567 19.2967C41.1734 17.0267 40.7734 15.8667 40.4867 14.34C40.4234 13.9967 40.3967 12.5733 40.3434 9.73002C40.3367 9.33335 40.3301 8.59002 40.7167 8.40335C40.9434 8.29668 41.2734 8.39335 41.4701 8.57335C41.7334 8.81002 41.7567 9.18002 41.7634 9.29335C41.8334 10.3367 42.9134 14.02 43.9367 15.4733C44.5367 16.3267 45.9434 18.52 49.9101 18.38C52.9101 18.2733 54.9334 16.2767 55.7401 15.56C56.5101 14.8733 57.8567 13.9667 59.2001 11.06C59.6234 10.14 59.8001 9.60335 60.1467 9.13668" stroke="#231F20" stroke-linecap="round" stroke-linejoin="round"></path><path d="M41.8534 9.97333C42.8101 9.75999 44.5401 9.46333 46.3634 9.15999C47.8501 8.91666 49.7967 8.75333 52.8001 8.75333C55.8934 8.75333 58.6167 8.88333 59.5834 9.05999C59.8267 9.10333 60.0267 9.10666 60.1501 9.13999" stroke="#231F20" stroke-linecap="round" stroke-linejoin="round"></path><path d="M60.15 9.14C61.0167 8.22 61.5767 8.24667 61.8134 8.43334C63.2767 9.59 61.3934 16.2233 59.97 17.59C59.8634 17.6933 59.39 18.1267 58.8934 18.8233C58.47 19.4167 58.2434 19.9033 58.1667 20.0567C57.83 20.7333 57.22 21.6133 55.42 22.9033" stroke="#231F20" stroke-linecap="round" stroke-linejoin="round"></path><path d="M56.9633 27.5267C56.3467 25.5567 56.1433 24.31 55.4233 22.9067C55.22 22.5067 54.84 21.8433 54.5 21.6433C53.7667 21.21 53.0433 21.1367 53.0433 21.1367C52.2667 21.0567 51.87 21.3033 50.67 21.6733C49.32 22.09 48.5367 22.3333 47.5367 22.3067C46.59 22.28 45.7933 22.02 45.3233 21.8633C44.0533 21.4467 43.6167 21.0033 42.76 21.1367C42.6467 21.1533 42.0633 21.2533 41.5567 21.7067C40.8267 22.3567 40.7467 23.3033 40.67 24.3967C40.62 25.11 40.6267 26.21 40.9867 27.53H58.7633" stroke="#231F20" stroke-linecap="round" stroke-linejoin="round"></path><path d="M41.7567 18.7233C41.0101 19.02 39.3334 19.65 37.7201 20.3033C35.4801 21.2133 33.7767 21.85 33.0801 22.7167C31.7967 24.32 32.2134 24.9067 32.1334 25.6133C31.8334 28.24 32.4667 31.1833 32.7067 32.01C33.2001 33.6933 33.7301 34.4733 34.4634 35.1133C35.1934 35.7433 36.1201 35.88 37.9734 36.1533C39.0901 36.3167 40.7567 36.55 42.9567 36.2833C44.2667 36.1233 45.1667 35.8933 45.9434 35.6467" stroke="#231F20" stroke-linecap="round" stroke-linejoin="round"></path><path d="M50.7801 30.43C50.6501 29.8267 50.4401 29.46 49.4301 29.14C47.6267 28.57 46.1867 28.38 44.8567 28.1433C43.2134 27.85 42.2401 27.62 40.9834 27.5267" stroke="#231F20" stroke-linecap="round" stroke-linejoin="round"></path><path d="M50.7801 30.43C50.2134 30.0767 47.9201 29.6467 46.5201 30.9733C45.7234 31.7267 45.5701 32.7467 45.5067 33.1767C45.4067 33.8433 45.9467 35.6467 45.9467 35.6467C45.9467 35.6467 48.7167 34.5967 49.2267 34.9C49.7867 35.23 50.0867 35.4767 50.0867 35.4767C50.0867 35.4767 50.5534 35.25 51.0234 34.6567C51.4567 34.11 51.3401 32.6633 51.3401 32.6633C51.3401 32.6633 51.6834 32.78 52.4701 33.4267C52.7901 33.69 53.1767 34 53.1767 34L54.6767 33.3867C54.6767 33.3867 51.6334 30.9633 50.7801 30.4333V30.43Z" stroke="#231F20" stroke-linecap="round" stroke-linejoin="round"></path><path d="M41.5134 36.4033C41.4034 35.7133 41.1001 33.9133 41.0601 33.1167C40.9401 30.78 41.3167 29.4267 41.8767 27.6167" stroke="#231F20" stroke-linecap="round" stroke-linejoin="round"></path><path d="M44.2434 36.0833C43.9034 35.3067 43.6834 33.9133 43.6434 33.12C43.5234 30.7833 44.2101 29.8633 44.8601 28.1467" stroke="#231F20" stroke-linecap="round" stroke-linejoin="round"></path><path d="M59.2101 18.4133C59.9201 18.54 60.8334 18.8 61.1401 19.1C61.5301 19.4767 61.7534 19.85 61.9067 20.3367C61.9067 20.3367 62.7267 20.65 63.1201 21.0367C63.6601 21.57 63.8501 22.5867 63.8501 23.1633" stroke="#231F20" stroke-linecap="round" stroke-linejoin="round"></path><path d="M59.2101 24.77C59.3634 24.0767 59.6867 23.0367 60.4201 21.9567C60.8901 21.2633 61.4867 20.7 61.9067 20.3333" stroke="#231F20" stroke-linecap="round" stroke-linejoin="round"></path><path d="M58.0034 30.2067C55.6001 30.2467 53.1834 30.39 50.7834 30.43" stroke="#231F20" stroke-linecap="round" stroke-linejoin="round"></path><path d="M63.2367 21.1667C64.7334 21.92 65.32 25.4267 65.39 25.7333C65.7134 27.0967 65.76 29.8333 65.63 31.64C65.4467 34.1767 65.3167 36.0067 63.98 37.1967C63.65 37.49 63.1667 37.7833 62.2 38.37C61.1534 39.0067 60.58 39.2667 59.5534 39.8033C57.3267 40.97 56.24 41.6467 55.8067 41.9367C55.7 42.0067 55.5567 41.94 55.5434 41.8133C55.47 41.09 55.2867 39.5233 54.0734 38.2633C52.89 37.0367 50.8167 36.35 49.8134 36.1C49.7334 36.08 49.2367 35.9733 49.2367 35.9733C49.2367 35.9733 49.6334 35.7833 49.7034 35.7433C50.6034 35.2533 52.98 33.9667 55.86 32.9433C56.43 32.74 57.0334 32.4933 57.5867 31.8267C58.25 31.0267 57.7434 30.32 58.2867 28.56C58.7567 27.0367 60.07 25.8467 61.0467 24.99C62.0567 24.1033 63.1034 23.74 63.7967 23.19" stroke="#231F20" stroke-linecap="round" stroke-linejoin="round"></path><path d="M40.9367 27.5633C40.0567 26.52 38.2967 25.0033 35.94 23.9267C34.88 23.4433 33.7167 23.16 32.8767 22.9867" stroke="#231F20" stroke-linecap="round" stroke-linejoin="round"></path><path d="M39.2201 36.3133C39.4134 36.5267 39.4868 38.9867 39.4868 39.1933C39.4868 40.6567 39.3968 40.89 39.4101 43.6233C39.4234 45.8067 40.3468 47.1233 41.4101 49.4833C42.7534 52.4667 44.9901 56.6867 45.3668 57.46C45.6768 58.0967 46.2968 59.3467 46.6968 59.6267C47.4768 60.1733 48.4268 59.9533 48.5434 59.9233C49.0568 59.7967 49.4868 59.5767 49.7634 59.21C50.8301 57.79 51.1968 57.1867 51.6234 56.41C51.6768 56.31 52.3734 55.0967 53.7834 52.6733C55.9201 48.9967 56.7001 48.2233 57.4734 45.9467C57.7934 45.01 57.9634 44.2633 58.0401 43.8933C58.3234 42.5167 58.3768 41.3367 58.3701 40.4967" stroke="#231F20" stroke-linecap="round" stroke-linejoin="round"></path><path d="M39.4734 43.8733C40.1167 44.17 42.0334 44.4433 43.0734 44.64C44.3967 44.89 53.4401 44.95 57.9001 44.1133" stroke="#231F20" stroke-linecap="round" stroke-linejoin="round"></path><path d="M39.4734 41.2633C40.1167 41.56 42.0334 41.8333 43.0734 42.03C44.1901 42.2433 50.7934 42.3167 55.5101 41.8333" stroke="#231F20" stroke-linecap="round" stroke-linejoin="round"></path><path d="M61.23 66.6367C61.0033 64.8467 60.2767 59.43 59.5 55.42" stroke="#231F20" stroke-linecap="round" stroke-linejoin="round"></path><path d="M37.5234 20.3833C38.0168 21.3167 38.6068 22.64 39.0334 23.9067C39.2734 24.62 39.5534 25.4433 39.6434 26.28" stroke="#231F20" stroke-linecap="round" stroke-linejoin="round"></path><path d="M37.7367 20.4467C38.25 20.7433 39.02 21.2767 39.7034 22.17C40.1567 22.7633 40.4367 23.3367 40.61 23.7833" stroke="#231F20" stroke-linecap="round" stroke-linejoin="round"></path><path d="M34.5934 24.9633C35.5901 24.9967 36.3534 26.6833 36.4334 27.9767C36.4834 28.7467 36.3467 30.2667 35.4867 30.5967C34.5267 30.9633 32.9301 29.7533 32.6434 28.29C32.3334 26.7167 33.5501 24.9267 34.5967 24.9633H34.5934Z" stroke="#231F20" stroke-linecap="round" stroke-linejoin="round"></path><path d="M39.3234 41.0167C39.2434 41.0667 37.5867 40.9867 36.8034 40.95C36.5401 40.9367 36.2934 40.8333 36.1001 40.6533C35.6201 40.21 34.4767 39.2367 34.4767 39.2367L34.3201 46.0367C34.3567 46.17 35.4634 47.45 35.9434 47.8933C36.1367 48.07 36.5501 48.14 36.8134 48.1533C37.5967 48.1933 40.1367 47 40.2134 46.9533" stroke="#231F20" stroke-linecap="round" stroke-linejoin="round"></path><path d="M37.2433 47.9767C37.2167 48.6467 37.14 48.92 37.1167 50.0033C37.1067 50.41 37.0567 50.6933 37.1567 50.9367C37.31 51.31 37.69 51.44 38.7067 51.8033C40.4433 52.4267 40.3567 52.41 40.5333 52.4533C40.9933 52.5633 41.8333 52.5933 42.8633 52.5367" stroke="#231F20" stroke-linecap="round" stroke-linejoin="round"></path><path d="M62.4567 46.4467C62.4834 47.1167 62.56 47.39 62.5834 48.4733C62.5934 48.88 62.61 49.7567 62.4967 49.9933C61.8867 51.27 58.6467 51.47 57.8334 51.5533C56.5467 51.6867 55.89 51.7333 54.2567 51.8667" stroke="#231F20" stroke-linecap="round" stroke-linejoin="round"></path><path d="M58.79 38.6967C58.8067 37.8133 58.4567 35.3167 57.29 33.8767C56.9267 33.4267 56.5267 33.0967 56.16 32.86" stroke="#231F20" stroke-linecap="round" stroke-linejoin="round"></path><path d="M56.8368 39.48C56.6801 37.4333 56.3501 36.8 55.5134 35.6467C55.1734 35.1767 54.5168 34.5667 53.1768 33.9967" stroke="#231F20" stroke-linecap="round" stroke-linejoin="round"></path><path d="M62.3801 38.26C62.2734 38.6433 62.0434 39.4467 61.9601 40.07C61.9401 40.2267 61.7068 41.5667 61.8168 42.54C62.0734 44.7967 63.4768 46.0067 63.4768 46.0067L59.7068 47.5133C59.7068 47.5133 59.3534 46.69 58.9334 45.1533C58.7101 44.3367 58.4534 43.1633 58.2534 42.7567" stroke="#231F20" stroke-linecap="round" stroke-linejoin="round"></path><path d="M39.3334 36.75C39.3334 36.75 36.68 37.2633 35.92 37.74C35.6334 37.92 35.5534 39.05 35.5534 39.05L34.4767 39.2367" stroke="#231F20" stroke-linecap="round" stroke-linejoin="round"></path><path d="M59.0533 27.0833C59.7567 27.2133 60.73 27.3 61.6767 27.72C62.88 28.2567 64.7033 29.44 65.6333 30.4333" stroke="#231F20" stroke-linecap="round" stroke-linejoin="round"></path><path d="M51.3934 38.1167C50.8534 38.36 50.4701 38.3967 49.8767 38.4767C48.4267 38.67 47.3567 38.46 46.7401 38.26C46.5434 38.1967 45.1701 37.6067 45.7967 37.05C45.9934 36.8767 47.6734 37.1867 48.2867 37.1033C49.2634 36.9733 49.5967 36.85 50.4301 36.3133" stroke="#231F20" stroke-linecap="round" stroke-linejoin="round"></path><path d="M46.7634 38.36C46.9168 39.2133 47.1001 39.65 47.8534 40.5833C49.1034 42.1333 50.3068 42.6733 55.3601 40.6833" stroke="#231F20" stroke-linecap="round" stroke-linejoin="round"></path><path d="M57.8534 31.3833C58.3201 31.75 59.9767 32.9167 60.5767 34.1667C61.1534 35.37 61.2601 36.2233 61.3734 37.9367" stroke="#231F20" stroke-linecap="round" stroke-linejoin="round"></path><path d="M35.5533 39.05L36.2 38.94C36.4667 38.8967 36.7367 38.9667 36.95 39.1333L39.37 41.0567" stroke="#231F20" stroke-linecap="round" stroke-linejoin="round"></path><path d="M60.4133 27.36C60.2067 28.5633 60.1733 29.0433 60.2867 30.0233C60.3367 30.46 60.5 30.73 60.5 30.73C60.5 30.73 59.4833 30.5967 58.69 31.33C58.6033 31.41 58.3333 31.68 58.3033 31.7333" stroke="#231F20" stroke-linecap="round" stroke-linejoin="round"></path><path d="M63.47 34.89C63.37 34.3667 63.1233 33.4367 62.4433 32.48C61.78 31.5433 60.89 30.9433 60.4333 30.6733" stroke="#231F20" stroke-linecap="round" stroke-linejoin="round"></path><path d="M37.6468 51.5933C37.6034 52.1333 37.5768 52.9633 37.7101 53.9567C38.1634 57.31 40.0534 59.5333 40.7568 60.34C41.3801 61.0533 42.0401 61.9167 43.8234 62.9533C46.2568 64.3667 47.7734 64.6667 47.7734 64.6667C47.7734 64.6667 48.0101 64.4167 48.3834 63.8667C49.3101 62.4967 49.5501 61.1 49.6701 60.3633C49.7301 60 49.7468 59.4033 49.7634 59.2133" stroke="#231F20" stroke-linecap="round" stroke-linejoin="round"></path><path d="M61.92 50.6C61.83 51.58 61.64 52.1067 61.1134 53C59.1167 56.39 58 56.56 55.42 59.92C53.2967 62.6833 52.3934 64.82 51.4934 64.5833C51.38 64.5533 51.1934 64.46 50.7867 63.6033C50.3867 62.76 49.85 60.9533 49.7034 59.2867" stroke="#231F20" stroke-linecap="round" stroke-linejoin="round"></path><path d="M37.7934 54.48C37.2534 58.6933 37.1601 60.81 37.0968 62.06C37.0501 63.0267 36.9568 63.3867 36.6734 65.1567C36.6101 65.5433 36.3368 65.4667 36.1134 65.8033C35.5701 66.6033 35.7468 67.4867 35.9168 68.9467C36.1934 71.3333 35.9568 70.96 36.2268 72.7367C36.4268 74.0467 36.5934 74.4967 36.5634 75.5433C36.5401 76.45 36.4034 76.54 36.4501 77.2833C36.5168 78.31 36.8068 78.6567 37.0668 79.84C37.2734 80.7733 37.1468 82.1333 37.1668 82.6267C37.2134 83.8333 37.2134 83.6333 37.2068 85.43C37.2034 86.7233 37.2301 87.5267 37.2301 87.5267C37.2301 87.5267 38.5368 86.99 39.4534 86.8333C41.7468 86.44 44.2834 88.7733 44.2834 88.7733C44.2834 88.7733 44.6568 87.47 44.7901 86.16C45.0168 83.9267 44.7034 83.6633 44.9134 82.1667C44.9634 81.8033 45.0234 81.4633 45.0301 80.9467C45.0368 80.19 44.9668 79.9933 44.8168 79.21C44.7068 78.6433 44.7968 78.08 44.8901 76.7167C44.9001 76.55 44.8901 76.0133 44.9568 75.0367C45.0668 73.4267 45.1601 72.8867 45.1568 72.7767C45.1168 71.7 45.4468 69.55 45.7768 69.09C45.9168 68.8967 46.9134 67.7367 47.1468 67.2133C47.5768 66.25 47.8268 65.2 47.7834 64.67" stroke="#231F20" stroke-linecap="round" stroke-linejoin="round"></path><path d="M45.89 68.9633C44.5633 68.5233 43.5433 68.06 42.8733 67.73C41.28 66.9467 40.4433 66.3067 38.7367 65.7267C38.0433 65.49 36.9933 65.3533 36.63 65.2767" stroke="#231F20" stroke-linecap="round" stroke-linejoin="round"></path><path d="M44.28 88.7733C44.3734 89.1633 44.3634 90.3233 44.0934 91.27C43.8334 92.1767 43.3367 92.74 43.0801 93.02C42.2801 93.9033 41.3834 94.26 40.5501 94.5767C39.7267 94.89 38.0267 95.5167 35.9201 95.16C34.9867 95.0033 33.7701 94.7967 33.3901 93.9133C33.1067 93.2533 33.4201 92.5133 33.5834 92.1233C33.7667 91.6867 33.9167 91.63 35.1001 90.41C36.1467 89.3333 36.6667 88.7333 37.0801 87.8533C37.1434 87.7167 37.1934 87.6 37.2234 87.5233" stroke="#231F20" stroke-linecap="round" stroke-linejoin="round"></path><path d="M37.9934 65.53C37.9934 64.6667 38.0434 63.5833 38.2034 62.9333C38.5501 61.5267 39.0301 59.85 39.4301 58.59" stroke="#231F20" stroke-linecap="round" stroke-linejoin="round"></path><path d="M36.4133 73.3533C37.2367 73.8 37.95 73.9867 38.4133 74.0767C40.4667 74.4733 41.8733 74.3167 42.7733 73.9567C43.4933 73.67 44.8033 72.99 45.15 72.7733" stroke="#231F20" stroke-linecap="round" stroke-linejoin="round"></path><path d="M36.5568 75.6433C37.0034 75.9467 37.9368 76.35 38.8001 76.4067C40.5601 76.5267 41.1434 76.46 43.1968 75.73C43.9501 75.4633 44.5534 75.21 44.9501 75.0367" stroke="#231F20" stroke-linecap="round" stroke-linejoin="round"></path><path d="M37.2401 81.0233C37.6034 81.1167 38.3234 81.2 38.9734 81.2033C39.4801 81.2033 40.2168 81.15 42.1401 80.47C42.8368 80.2233 43.7401 79.8767 44.7734 79.4067" stroke="#231F20" stroke-linecap="round" stroke-linejoin="round"></path><path d="M37.3434 82.7633C37.9834 82.7967 38.7434 82.89 39.5734 83.0967C40.8801 83.4233 41.8267 83.9167 42.8034 84.43C43.5601 84.8267 44.2134 85.2267 44.7601 85.59" stroke="#231F20" stroke-linecap="round" stroke-linejoin="round"></path><path d="M51.88 64.5467C51.9467 66.32 52.5867 68.1533 52.95 68.93C53.29 69.6533 53.71 69.8133 54.05 70.68C54.4633 71.7333 54.1667 71.8133 54.45 73.1133C54.8433 74.9133 55.3733 74.87 55.64 76.4533C55.7267 76.9733 55.6467 76.84 55.6967 79.1733C55.7267 80.53 55.74 81.21 55.81 82.0067C55.88 82.81 56.28 84.8767 56.36 86.1133C56.4933 88.1667 57.47 89.18 57.47 89.18C57.47 89.18 57.14 90.3233 57.0233 91.2533C56.8433 92.6867 56.89 92.93 57.0033 93.4467C57.34 94.9867 59.2 95.7667 59.3833 95.8267C62.7567 96.8933 65.23 95.0467 65.4433 94.75C65.7567 94.3167 65.7833 92.8067 65.5667 91.54C65.2033 89.42 64.3133 88.4067 64.3133 88.4067C64.3133 88.4067 64.5433 87.91 64.7067 87.13C64.8367 86.5033 64.85 86.0033 64.8333 85.0967C64.8 83.31 64.7833 82.4167 64.63 81.6133C64.3833 80.3167 64.1567 80.2733 64.1467 79.4C64.1333 78.26 64.5233 78.1933 64.5267 77.1367C64.5333 75.98 63.8133 74.2133 63.8133 74.2133C63.8133 74.2133 64.0267 73.3333 64.0433 72.78C64.1133 70.6667 62.7433 66.8567 62.41 65.9633C62.3633 65.8367 62.3433 65.7033 62.3533 65.57C62.4133 64.75 62.61 61.5033 62.4133 56.95C62.33 55.0033 61.9433 52.4533 61.7933 51.4533" stroke="#231F20" stroke-linecap="round" stroke-linejoin="round"></path><path d="M62.7201 66.8433C61.8834 66.6633 60.4068 66.4967 58.8934 66.69C57.9301 66.8133 56.6068 67.1133 55.2034 67.8633C54.3768 68.3067 53.5801 68.91 53.1434 69.28" stroke="#231F20" stroke-linecap="round" stroke-linejoin="round"></path><path d="M54.7367 74.1033C55.1967 74.3167 56.2134 74.67 57.07 74.8433C57.9167 75.0133 59.2334 75.28 60.7334 74.7833C61.0367 74.6833 62.48 74.17 63.5634 72.7567C63.77 72.4867 63.92 72.2433 64.02 72.0633" stroke="#231F20" stroke-linecap="round" stroke-linejoin="round"></path><path d="M55.6833 76.9167C56.12 77.0633 56.62 77.2033 57.0733 77.2967C57.92 77.4667 59.2367 77.7333 60.7367 77.2367C61.04 77.1367 62.4833 76.6233 63.5667 75.21C63.7733 74.94 63.8467 74.8267 63.9467 74.6467" stroke="#231F20" stroke-linecap="round" stroke-linejoin="round"></path><path d="M55.7334 80.15C56.1201 80.4 56.4401 80.58 56.8567 80.7834C57.6334 81.16 58.8434 81.7467 60.4201 81.64C60.7367 81.62 62.2634 81.48 63.6667 80.3833C63.9367 80.1733 64.0334 80.0833 64.1767 79.9333" stroke="#231F20" stroke-linecap="round" stroke-linejoin="round"></path><path d="M55.8734 82.2067C56.2601 82.4567 56.4401 82.5467 56.8568 82.75C57.6334 83.1267 58.8434 83.7133 60.4201 83.6067C60.7367 83.5867 62.2634 83.4467 63.6667 82.35C63.9367 82.14 64.4801 81.7567 64.6201 81.6067" stroke="#231F20" stroke-linecap="round" stroke-linejoin="round"></path><path d="M57.51 89.07C58.19 88.5633 58.76 88.2133 59.2067 88.1367C60.6633 87.8867 61.8733 88.04 62.6133 88.0867C63.24 88.1267 63.8767 88.3 64.2567 88.3633" stroke="#231F20" stroke-linecap="round" stroke-linejoin="round"></path><path d="M44.9234 82.0567C44.2734 82.35 43.2567 82.7533 42.3934 82.9933C41.87 83.14 40.92 83.39 40.28 83.3033" stroke="#231F20" stroke-linecap="round" stroke-linejoin="round"></path><path d="M37.2401 84.6633C37.9468 84.2533 38.5134 83.9367 39.3868 83.72C39.9134 83.59 40.2334 83.4733 41.2934 83.6833" stroke="#231F20" stroke-linecap="round" stroke-linejoin="round"></path><path d="M56.3134 85.5933C56.9367 84.9967 57.7 84.6467 58.6 84.3267C59.84 83.8867 60.6234 83.5867 62.0067 83.6467C62.55 83.67 63.7867 83.8867 64.81 84.3433" stroke="#231F20" stroke-linecap="round" stroke-linejoin="round"></path></svg> 