<?xml version="1.0" encoding="UTF-8"?> <svg xmlns="http://www.w3.org/2000/svg" width="360" height="120" viewBox="0 0 360 120" fill="none"><path d="M75.6403 29.9974C71.6723 29.9974 68.5054 28.8244 66.1398 26.4784C63.7741 24.0568 62.5913 21.1812 62.5913 17.8515C62.5913 14.5217 63.736 11.6839 66.0254 9.33796C68.391 6.91637 71.5961 5.70557 75.6403 5.70557C79.6853 5.70557 82.8521 6.91637 85.1413 9.33796C87.5067 11.6839 88.6901 14.5217 88.6901 17.8515C88.6901 21.1812 87.5067 24.0568 85.1413 26.4784C82.8521 28.8244 79.6853 29.9974 75.6403 29.9974Z" fill="#00B004"></path><path d="M225.371 92.7699V78.0136C232.697 73.3215 238.802 68.554 243.686 63.7108C248.646 58.8675 252.385 54.2135 254.904 49.7486C257.422 45.2838 258.681 41.3865 258.681 38.0568C258.681 32.8352 256.086 30.2244 250.897 30.2244C247.921 30.2244 245.364 31.1704 243.227 33.0622C241.167 34.8784 239.679 37.1108 238.764 39.7595L222.852 31.019C224.226 27.0839 226.401 23.6406 229.378 20.6893C232.353 17.6623 235.94 15.3163 240.137 13.6515C244.334 11.911 248.874 11.0407 253.759 11.0407C259.406 11.0407 264.252 12.1002 268.296 14.219C272.34 16.338 275.431 19.2515 277.568 22.9596C279.704 26.592 280.735 30.7541 280.659 35.446C280.659 42.1055 278.598 48.8027 274.477 55.5378C270.356 62.2729 263.564 68.8566 254.102 75.2891H282.49V92.7699H225.371Z" fill="#00B004"></path><path d="M318.961 92.7699V75.5163H284.965V60.6459L324.798 11.9488H340.252V59.2838H351.699V75.5163H340.252V92.7699H318.961ZM305.34 59.2838H318.961V42.7108L305.34 59.2838Z" fill="#00B004"></path><path d="M34.4354 94.02C28.1015 94.02 22.6071 92.8471 17.9521 90.5014C13.3734 88.0796 9.82498 84.6743 7.30671 80.2849C4.78843 75.8961 3.5293 70.7498 3.5293 64.8474C3.5293 58.7177 4.9029 53.3069 7.65011 48.6151C10.3973 43.9232 14.1747 40.2529 18.9823 37.6043C23.8663 34.9557 29.4751 33.6313 35.809 33.6313C41.3797 33.6313 46.2255 34.6908 50.3462 36.8097C54.4671 38.9286 57.5959 42.0691 59.7325 46.2313L44.8519 57.3555C43.402 53.7232 40.5784 51.9069 36.3813 51.9069C33.0999 51.9069 30.4671 53.0799 28.4831 55.4258C26.499 57.6961 25.5069 60.7231 25.5069 64.5069C25.5069 68.0636 26.3845 70.8259 28.1397 72.7935C29.8948 74.761 32.4131 75.7445 35.6945 75.7445C39.8916 75.7445 43.0586 73.8147 45.1952 69.9557L59.5036 81.6471C57.1379 85.7339 53.8184 88.8365 49.545 90.9557C45.2716 92.9988 40.235 94.02 34.4354 94.02Z" fill="black"></path><path d="M86.401 34.426V92.7717H65.1102V34.426H86.401Z" fill="black"></path><path d="M127.728 94.02C119.944 94.02 113.839 91.9392 109.413 87.7769C104.986 83.5392 102.812 78.0147 102.888 71.2041L103.231 51.7934H93.8453V34.426H103.575L103.804 22.6206H124.866L124.637 34.426H142.265V51.7934H124.408L124.179 68.7067C124.103 71.0531 124.713 72.869 126.011 74.1558C127.384 75.3664 129.254 75.9717 131.619 75.9717C133.222 75.9717 134.825 75.7822 136.427 75.4041C138.029 74.9498 139.67 74.1558 141.349 73.0207L147.301 88.912C145.393 90.5015 142.761 91.7498 139.403 92.6584C136.045 93.5664 132.153 94.02 127.728 94.02Z" fill="black"></path><path d="M173.656 116.609C171.214 116.609 168.544 116.42 165.644 116.042C162.82 115.739 160.073 115.209 157.402 114.452C154.807 113.696 152.633 112.75 150.878 111.615L155.914 93.6796C158.814 95.1174 161.752 96.2147 164.728 96.9717C167.78 97.8041 171.176 98.22 174.915 98.22C180.944 98.22 185.256 96.9339 187.85 94.3611C190.445 91.7876 191.971 87.777 192.429 82.3286L192.658 79.4909C190.368 83.1233 187.507 85.9988 184.073 88.1174C180.639 90.2366 176.709 91.2962 172.283 91.2962C164.881 91.2962 159.424 88.8743 155.914 84.0313C152.404 79.1883 150.687 72.4909 150.763 63.9394L150.878 34.426H172.168L172.054 62.5772C172.054 65.6042 172.626 67.8745 173.77 69.3883C174.992 70.9015 176.671 71.6584 178.807 71.6584C181.478 71.6584 183.73 70.5611 185.561 68.3664C187.469 66.0961 188.957 62.2745 190.025 56.9016C191.17 51.4529 191.818 43.9611 191.971 34.426H212.575V80.0584C212.575 88.5339 210.935 95.4585 207.653 100.831C204.448 106.204 199.908 110.177 194.031 112.75C188.232 115.323 181.44 116.609 173.656 116.609Z" fill="black"></path></svg> 