<?xml version="1.0" encoding="UTF-8"?> <svg xmlns="http://www.w3.org/2000/svg" width="24" height="24" viewBox="0 0 24 24" fill="none"><path d="M23.6408 14.9029C22.0379 21.3315 15.5261 25.2438 9.09602 23.6407C2.66859 22.038 -1.24421 15.5266 0.359461 9.09838C1.96163 2.66907 8.47346 -1.24364 14.9016 0.359095C21.3313 1.96183 25.2437 8.47401 23.6408 14.9029Z" fill="#5B7742"></path><path d="M11.9765 4L11.8693 4.36451V14.9417L11.9765 15.0487L16.8863 12.1466L11.9765 4Z" fill="white"></path><path d="M11.9765 4L7.06665 12.1466L11.9765 15.0488V9.91494V4Z" fill="white"></path><path d="M11.9764 15.9784L11.916 16.0521V19.8199L11.9764 19.9964L16.8892 13.0777L11.9764 15.9784Z" fill="white"></path><path d="M11.9765 19.9964V15.9783L7.06665 13.0776L11.9765 19.9964Z" fill="white"></path><path d="M11.9764 15.0487L16.8862 12.1466L11.9764 9.91495V15.0487Z" fill="white"></path><path d="M7.06665 12.1466L11.9764 15.0488V9.91498L7.06665 12.1466Z" fill="white"></path></svg> 