<?xml version="1.0" encoding="UTF-8"?> <svg xmlns="http://www.w3.org/2000/svg" width="308" height="137" viewBox="0 0 308 137" fill="none"><path d="M117.616 93.9375C112.848 98.9809 107.321 102.693 100.024 104.888C88.9465 108.222 78.4876 105.639 72.9235 99.7291C70.1093 96.8985 68.5074 93.4017 68.1208 89.8552C89.1675 92.7882 111.134 90.3972 120.523 79.6163C126.654 72.5724 128.167 61.2321 121.155 51.9046C115.034 43.7612 100.886 38.3254 84.0766 40.0191C62.0324 42.2406 42.2153 57.2498 41.1052 81.4752C39.9727 106.241 59.7425 124.615 86.811 124.615C104.138 124.615 118.501 118.8 125.71 111.389C123.315 105.392 120.798 99.5683 117.614 93.9375H117.616H117.616ZM82.2175 57.8744C89.4795 55.1642 99.487 55.4771 101.566 61.9461C103.318 67.4036 98.2381 73.5634 87.6048 75.3968C82.1571 76.3356 74.3554 76.5181 67.9016 74.8691C68.3723 70.757 71.8314 61.7468 82.2175 57.8719V57.8744Z" fill="#F48120"></path><path fill-rule="evenodd" clip-rule="evenodd" d="M91.4269 16.9789C96.1244 19.4643 99.7535 22.4103 102.507 25.236C105.135 27.9355 108.708 32.5394 110.042 36.1566C109.396 36.2423 94.0393 38.1701 79.3499 32.065C71.9005 28.9712 64.6859 22.6773 63.0952 14.4469C66.1478 13.4262 70.2388 12.9525 73.4166 12.8854C78.561 12.7786 85.0335 13.5951 91.4269 16.9789ZM227.756 39.7074C236.786 40.0179 245.611 42.0469 253.584 48.3612L253.58 48.3656C260.744 54.0392 265.092 61.9939 265.092 75.9785L264.875 122.456L240.597 122.45L240.372 109.563C237.166 115.488 225.998 124.624 212.435 124.624C193.677 124.624 182.89 114.243 181.374 102.892C179.766 90.853 185.878 77.8567 202.158 73.1504C212.947 70.0305 226.862 69.563 239.838 71.435C239.838 65.1976 235.341 58.8119 225.761 57.4826C217.785 56.3762 208.159 57.5769 199.8 61.7474C198.46 62.4155 197.155 63.1527 195.892 63.9558L205.375 42.1108C211.065 40.8051 219.196 39.4113 227.756 39.7074ZM205.672 99.0423C207.75 105.511 217.757 105.824 225.02 103.114L225.017 103.116C235.403 99.2417 238.863 90.2314 239.333 86.1187C232.881 84.4703 225.08 84.6522 219.632 85.591C209.001 87.4251 203.919 93.5854 205.672 99.0423ZM173 42.0705L150.255 97.1487C147.255 88.4799 140.759 75.6128 133.065 64.8723C131.153 72.4693 127.555 81.4212 121.785 89.0865C127.475 97.4473 133.389 111.359 136.683 122.449H162.912L198.499 42.0699L173 42.0705Z" fill="#72BE44"></path></svg> 