<?xml version="1.0" encoding="UTF-8"?> <svg xmlns="http://www.w3.org/2000/svg" width="24" height="24" viewBox="0 0 24 24" fill="none"><path d="M23.6408 14.9029C22.0379 21.3315 15.5261 25.2438 9.09602 23.6407C2.66859 22.038 -1.24421 15.5266 0.359461 9.09838C1.96163 2.66907 8.47346 -1.24364 14.9016 0.359095C21.3313 1.96183 25.2437 8.47401 23.6408 14.9029Z" fill="#5B7742"></path><path d="M9.10713 12.66H11.2351V10.994H9.10713V8.642H11.7391V6.976H7.20313V17H9.10713V12.66ZM18.1406 17V16.748L16.8246 12.674C17.5946 12.212 17.9446 11.526 17.9446 10.56V9.328C17.9446 7.774 16.9786 6.976 15.4946 6.976H12.7366V17H14.5986V13.038H15.1446L16.1946 17H18.1406ZM16.0546 10.602C16.0546 10.938 15.8446 11.372 15.4386 11.372H14.5986V8.642H15.4386C15.8446 8.642 16.0546 9.006 16.0546 9.314V10.602Z" fill="white"></path></svg> 