<?xml version="1.0" encoding="UTF-8"?> <svg xmlns="http://www.w3.org/2000/svg" xmlns:xlink="http://www.w3.org/1999/xlink" version="1.1" id="Capa_1" x="0px" y="0px" viewBox="0 0 618 306" style="enable-background:new 0 0 618 306;" xml:space="preserve"> <style type="text/css"> .st0{fill:#00A082;} .st1{fill:#F2CC38;} </style> <path class="st0" d="M99.8,155.9v-0.3c0-26.4,20.2-48.8,48.7-48.8c14.2,0,23.6,3.4,32.2,9.6c1.6,1.2,3.4,3.5,3.4,6.7 c0,4.5-3.6,8.2-8.2,8.2c-2.2,0-3.8-0.9-5.1-1.9c-6.1-4.4-12.7-7.4-22.9-7.4c-17.4,0-30.6,15.3-30.6,33.3v0.3 c0,19.4,12.8,33.7,32.1,33.7c8.9,0,17-2.8,22.8-7.1v-17.7h-18.7c-4,0-7.4-3.1-7.4-7.2c0-4,3.4-7.3,7.4-7.3h26.3 c4.7,0,8.4,3.6,8.4,8.4v25.2c0,4.7-1.9,8.1-5.8,10.5c-8.1,5.4-19.4,10.3-33.6,10.3C119.3,204.4,99.8,183.4,99.8,155.9"></path> <path class="st0" d="M203.1,111.7c0-4.5,3.5-8.1,8.1-8.1s8.2,3.6,8.2,8.1v83.7c0,4.6-3.6,8.1-8.2,8.1c-4.5,0-8.1-3.5-8.1-8.1V111.7z "></path> <path class="st0" d="M232.1,167.6v-0.3c0-20.4,16.2-37.2,38-37.2c21.9,0,37.9,16.6,37.9,37v0.3c0,20.2-16.2,37.1-38.2,37.1 C248.1,204.4,232.1,187.8,232.1,167.6 M291.7,167.6v-0.3c0-12.5-9-22.9-21.9-22.9c-13.1,0-21.5,10.3-21.5,22.7v0.3 c0,12.4,9,22.8,21.7,22.8C283.3,190.1,291.7,179.9,291.7,167.6"></path> <path class="st0" d="M348.8,204.2H348c-4.5,0-7.4-2.8-9.3-7.2L315,142.6c-0.4-1.2-0.9-2.6-0.9-4c0-4,3.6-7.8,8.1-7.8 s6.7,2.6,8.1,5.9l18.3,47.2l18.6-47.5c1.2-2.8,3.4-5.7,7.7-5.7c4.5,0,8,3.4,8,7.8c0,1.5-0.5,3.1-0.9,3.9L358.1,197 C356.2,201.2,353.2,204.2,348.8,204.2"></path> <path class="st0" d="M388.7,167.6v-0.3c0-20.4,16.2-37.2,38.1-37.2s37.9,16.6,37.9,37v0.3c0,20.2-16.2,37.1-38.2,37.1 C404.8,204.4,388.7,187.8,388.7,167.6 M448.4,167.6v-0.3c0-12.5-9-22.9-21.9-22.9c-13.1,0-21.5,10.3-21.5,22.7v0.3 c0,12.4,9,22.8,21.7,22.8C440,190.1,448.4,179.9,448.4,167.6"></path> <g> <path class="st1" d="M492,65.4c-17.7,0-32.1,14.4-32.1,32.1c0,6.7,2.1,13.2,6,18.7l0.9,1.2l16.7,23.6c0,0,2,3.3,6.5,3.3h1.3h1.7h1 c4.4,0,6.5-3.3,6.5-3.3l16.7-23.6l0.8-1.2c4-5.5,6-12,6-18.7C524.1,79.8,509.7,65.4,492,65.4 M505.2,106.9l-0.9,1.2L492,125.5 l-12.3-17.3l-0.9-1.3c-2-2.8-3.1-6.1-3.1-9.5c0-9,7.3-16.3,16.3-16.3s16.3,7.3,16.3,16.3C508.3,100.9,507.2,104.1,505.2,106.9"></path> <path class="st1" d="M483,158.7L483,158.7c0-4.9,3.8-8.8,8.9-8.8s8.9,3.9,8.9,8.7v0.1c0,4.8-3.8,8.7-9,8.7 C486.8,167.3,483,163.4,483,158.7"></path> </g> </svg> 