<?xml version="1.0" encoding="UTF-8"?> <svg xmlns="http://www.w3.org/2000/svg" width="24" height="24" viewBox="0 0 24 24" fill="none"><path d="M23.6408 14.9029C22.0379 21.3315 15.5261 25.2438 9.09602 23.6407C2.66859 22.038 -1.24421 15.5266 0.359461 9.09838C1.96163 2.66907 8.47346 -1.24364 14.9016 0.359095C21.3313 1.96183 25.2437 8.47401 23.6408 14.9029V14.9029Z" fill="#5B7742"></path><path d="M17.2914 10.2905C17.5303 8.69373 16.3145 7.83536 14.6519 7.26274L15.1912 5.09976L13.8744 4.77164L13.3494 6.87762C13.0032 6.79137 12.6477 6.71 12.2944 6.62938L12.8232 4.50952L11.5072 4.1814L10.9675 6.34362C10.681 6.27837 10.3997 6.21388 10.1267 6.14601L10.1282 6.13925L8.31223 5.68588L7.96195 7.09211C7.96195 7.09211 8.93892 7.31599 8.9183 7.32986C9.4516 7.46299 9.54798 7.81586 9.53186 8.0956L8.91754 10.5597C8.95429 10.5691 9.00193 10.5826 9.05444 10.6036C9.01056 10.5927 8.96368 10.5807 8.9153 10.5691L8.0542 14.0209C7.98894 14.1829 7.82356 14.4259 7.45077 14.3337C7.46389 14.3528 6.49366 14.0948 6.49366 14.0948L5.83997 15.6019L7.55352 16.029C7.87231 16.1089 8.18471 16.1925 8.49224 16.2713L7.94732 18.459L9.26258 18.7871L9.80226 16.6226C10.1616 16.7201 10.5103 16.8102 10.8516 16.8949L10.3138 19.0493L11.6306 19.3774L12.1755 17.1938C14.4209 17.6186 16.1093 17.4473 16.82 15.4167C17.3927 13.7817 16.7915 12.8386 15.6101 12.2236C16.4705 12.0252 17.1185 11.4593 17.2914 10.2905V10.2905ZM14.2829 14.5088C13.8759 16.1438 11.1228 15.2599 10.2302 15.0383L10.9533 12.1399C11.8459 12.3627 14.7082 12.8037 14.2829 14.5088ZM14.6902 10.2668C14.3189 11.7541 12.0274 10.9985 11.284 10.8132L11.9396 8.18449C12.6829 8.36974 15.0768 8.71547 14.6902 10.2668Z" fill="white"></path></svg> 