<?xml version="1.0" encoding="UTF-8"?> <svg xmlns="http://www.w3.org/2000/svg" xmlns:xlink="http://www.w3.org/1999/xlink" version="1.1" id="Layer_1" x="0px" y="0px" width="595.28px" height="145.968px" viewBox="0 0 595.28 145.968" xml:space="preserve"> <path fill="#323031" d="M434.479,53.003c0.801-1.02,2.184-1.966,4.222-1.966c1.602,0,2.839,0.655,3.567,1.456 c0.906,0.998,1.248,2.362,1.377,3.373l9.646-9.771c-0.261-0.298-0.516-0.567-0.759-0.81c-2.184-2.184-6.405-5.023-13.686-5.023 c-6.042,0-10.482,1.966-13.759,5.242c-2.548,2.548-5.314,7.134-5.387,13.467h13.03C432.804,57.298,433.313,54.532,434.479,53.003z"></path> <path fill="#323031" d="M475.692,80.77c-0.653,0.085-1.314,0.144-1.99,0.144c-8.503,0-15.421-6.918-15.421-15.422l0.099-2.684 l-9.51,9.568c0.786,2.833,2.044,5.473,3.687,7.826h-15.275l7.171-7.171l-0.007-0.01l15.183-15.183l0.006,0.01l2.163-2.162 l0.137-0.162c2.939-3.466,7.229-5.454,11.769-5.454c8.504,0,15.422,6.918,15.422,15.421c0,0.679-0.06,1.342-0.145,1.998l9.403-9.398 c-3.188-10.612-13.044-18.367-24.681-18.367c-7.51,0-14.609,3.255-19.514,8.939L419.25,83.601v6.948h37.363v-0.003h9.299 L475.692,80.77z"></path> <g> <path fill="#323031" d="M477.691,89.619l-4.879-0.879l1.717-1.719l2.557,0.465l-0.506-2.514l1.742-1.742l0.813,4.945l2.654,2.654 l-1.443,1.443L477.691,89.619z"></path> <path fill="#323031" d="M483.166,80.824l-1.709,1.709l0.922,0.922l1.617-1.619l1.221,1.221l-1.619,1.617l0.955,0.955l1.709-1.709 l1.219,1.219l-3.145,3.145l-5.533-5.533l3.145-3.145L483.166,80.824z"></path> <path fill="#323031" d="M490.84,79.919l-2.008,2.008l0.557,1.303l-1.518,1.52l-3.41-7.658l1.568-1.568l7.615,3.451l-1.533,1.535 L490.84,79.919z M489.363,79.207l-2.414-1.17l1.188,2.398L489.363,79.207z"></path> <path fill="#323031" d="M490.99,70.562c0.414-0.416,1.012-0.879,1.842-0.863c0.639,0.008,1.277,0.332,1.717,0.771 c0.473,0.473,0.723,1.055,0.715,1.594c-0.01,0.422-0.176,0.838-0.383,1.145l4,0.531l-1.785,1.783l-3.5-0.746l2.123,2.123 l-1.436,1.436l-5.533-5.533L490.99,70.562z M492.666,73.847l0.273-0.273c0.215-0.217,0.465-0.58,0.473-0.922 c0-0.215-0.107-0.473-0.281-0.646c-0.166-0.166-0.416-0.283-0.656-0.273c-0.266,0-0.588,0.158-0.904,0.473l-0.273,0.273 L492.666,73.847z"></path> <path fill="#323031" d="M498.191,71.111c0.596-0.018,1.336-0.207,1.834-0.705c0.289-0.291,0.373-0.557,0.363-0.748 c0-0.166-0.064-0.348-0.207-0.49c-0.107-0.107-0.273-0.189-0.49-0.174c-0.264,0.018-0.537,0.176-1.002,0.424l-0.49,0.258 c-0.309,0.156-0.771,0.373-1.244,0.348c-0.59-0.025-1.014-0.383-1.295-0.664c-0.68-0.68-0.83-1.361-0.83-1.842 c0-0.564,0.225-1.27,0.896-1.941c0.547-0.549,1.361-1.012,2.156-1.262l0.549,1.693c-0.771,0.092-1.129,0.381-1.32,0.572 c-0.141,0.141-0.299,0.365-0.307,0.639c0,0.166,0.033,0.314,0.158,0.439c0.1,0.1,0.191,0.158,0.324,0.176 c0.092,0.008,0.291,0.008,0.729-0.234l0.574-0.305c0.455-0.242,0.945-0.482,1.551-0.457c0.58,0.016,0.963,0.248,1.346,0.631 c0.506,0.506,0.869,1.119,0.869,1.916c0,0.945-0.48,1.609-1.07,2.197c-0.348,0.35-0.713,0.648-1.27,0.906 c-0.123,0.059-0.605,0.273-1.277,0.398L498.191,71.111z"></path> </g> <path fill="#FFDD00" d="M380.831,59.355h1.952c2.249,0,3.966,0.593,4.913,1.539c0.887,0.83,1.36,2.13,1.36,3.314 c0,1.242-0.532,2.543-1.302,3.313c-1.243,1.182-3.434,1.597-4.972,1.597h-1.952V59.355z M370.595,51.427v39.469h10.236v-15.15 l9.823,15.15h12.722L391.01,74.74c1.833-0.354,3.904-1.243,5.442-2.721c1.952-1.894,3.137-4.854,3.137-8.227 c0-3.137-1.124-6.567-3.373-8.875c-2.899-3.018-6.686-3.49-9.646-3.49H370.595z M363.494,51.427h-22.426v39.469h22.426v-8.7h-12.189 v-6.804h11.538v-8.699h-11.538v-6.568h12.189V51.427z M313.612,76.513h8.404c-0.356,2.191-1.479,3.611-2.429,4.381 c-1.833,1.539-3.904,1.835-5.68,1.835c-3.017,0-5.324-1.007-7.22-3.019c-1.832-1.953-3.134-4.912-3.134-8.521 c0-3.077,1.124-6.744,3.43-9.054c1.836-1.835,4.319-2.722,6.746-2.722c1.953,0,3.788,0.534,5.505,1.954 c1.004,0.828,2.128,2.13,2.838,3.964l9.765-4.024c-1.421-3.075-3.964-6.214-7.041-8.106c-3.018-1.833-6.983-2.664-10.651-2.664 c-6.982,0-12.071,2.545-15.324,5.8c-3.434,3.373-5.92,8.521-5.92,14.796c0,6.507,2.723,11.301,5.681,14.261 c3.197,3.253,8.05,5.856,15.148,5.856c5.029,0,9.765-1.125,13.905-4.97c4.734-4.381,6.332-9.942,6.332-17.753h-20.355V76.513z M256.689,90.896V66.751l18.876,24.145h10.236V51.427h-10.236v24.141l-18.876-24.141h-10.236v39.469H256.689z M227.34,90.896h10.237 V51.427H227.34V90.896z M221.837,51.427h-32.601v8.697h15.5l-18.699,30.771h33.788v-8.7h-16.569L221.837,51.427z M161.956,59.355 h1.952c2.249,0,3.966,0.593,4.912,1.539c0.888,0.83,1.36,2.13,1.36,3.314c0,1.242-0.531,2.543-1.3,3.313 c-1.243,1.182-3.432,1.597-4.972,1.597h-1.952V59.355z M151.719,51.427v39.469h10.236v-15.15l9.823,15.15h12.722L172.135,74.74 c1.833-0.354,3.904-1.243,5.442-2.721c1.954-1.894,3.138-4.854,3.138-8.227c0-3.137-1.125-6.567-3.375-8.875 c-2.899-3.018-6.685-3.49-9.645-3.49H151.719z M121.719,76.457l4.32-12.783l4.438,12.783H121.719z M135.625,90.896h10.947 l-14.854-39.469h-11.182l-15.148,39.469h10.828l2.663-6.629h14.319L135.625,90.896z"></path> <g> <defs> <path id="SVGID_1_" d="M87.887,77.821c0,0,78.808-10.417,107.342-9.058c28.534,1.358,70.656,15.398,106.436,9.964 s86.508-14.946,109.606-14.04c2.265-13.135-4.529-36.234-4.529-36.234L81.546,21.207L87.887,77.821z"></path> </defs> <clipPath id="SVGID_2_"> <use xlink:href="#SVGID_1_" overflow="visible"></use> </clipPath> <path clip-path="url(#SVGID_2_)" fill="#00C2F3" d="M380.831,59.355h1.952c2.249,0,3.966,0.593,4.913,1.539 c0.887,0.83,1.36,2.13,1.36,3.314c0,1.242-0.532,2.543-1.302,3.313c-1.243,1.182-3.434,1.597-4.972,1.597h-1.952V59.355z M370.595,51.427v39.469h10.236v-15.15l9.823,15.15h12.722L391.01,74.74c1.833-0.354,3.904-1.243,5.442-2.721 c1.952-1.894,3.137-4.854,3.137-8.227c0-3.137-1.124-6.567-3.373-8.875c-2.899-3.018-6.686-3.49-9.646-3.49H370.595z M363.494,51.427h-22.426v39.469h22.426v-8.7h-12.189v-6.804h11.538v-8.699h-11.538v-6.568h12.189V51.427z M313.612,76.513h8.404 c-0.356,2.191-1.479,3.611-2.429,4.381c-1.833,1.539-3.904,1.835-5.68,1.835c-3.017,0-5.324-1.007-7.22-3.019 c-1.832-1.953-3.134-4.912-3.134-8.521c0-3.077,1.124-6.744,3.43-9.054c1.836-1.835,4.319-2.722,6.746-2.722 c1.953,0,3.788,0.534,5.505,1.954c1.004,0.828,2.128,2.13,2.838,3.964l9.765-4.024c-1.421-3.075-3.964-6.214-7.041-8.106 c-3.018-1.833-6.983-2.664-10.651-2.664c-6.982,0-12.071,2.545-15.324,5.8c-3.434,3.373-5.92,8.521-5.92,14.796 c0,6.507,2.723,11.301,5.681,14.261c3.197,3.253,8.05,5.856,15.148,5.856c5.029,0,9.765-1.125,13.905-4.97 c4.734-4.381,6.332-9.942,6.332-17.753h-20.355V76.513z M256.689,90.896V66.751l18.876,24.145h10.236V51.427h-10.236v24.141 l-18.876-24.141h-10.236v39.469H256.689z M227.34,90.896h10.237V51.427H227.34V90.896z M221.837,51.427h-32.601v8.697h15.5 l-18.699,30.771h33.788v-8.7h-16.569L221.837,51.427z M161.956,59.355h1.952c2.249,0,3.966,0.593,4.912,1.539 c0.888,0.83,1.36,2.13,1.36,3.314c0,1.242-0.531,2.543-1.3,3.313c-1.243,1.182-3.432,1.597-4.972,1.597h-1.952V59.355z M151.719,51.427v39.469h10.236v-15.15l9.823,15.15h12.722L172.135,74.74c1.833-0.354,3.904-1.243,5.442-2.721 c1.954-1.894,3.138-4.854,3.138-8.227c0-3.137-1.125-6.567-3.375-8.875c-2.899-3.018-6.685-3.49-9.645-3.49H151.719z M121.719,76.457l4.32-12.783l4.438,12.783H121.719z M135.625,90.896h10.947l-14.854-39.469h-11.182l-15.148,39.469h10.828 l2.663-6.629h14.319L135.625,90.896z"></path> </g> </svg> 