<?xml version="1.0" encoding="UTF-8"?> <svg xmlns="http://www.w3.org/2000/svg" xmlns:xlink="http://www.w3.org/1999/xlink" version="1.1" id="Слой_1" x="0px" y="0px" viewBox="0 0 1000 250" style="enable-background:new 0 0 1000 250;" xml:space="preserve"> <style type="text/css"> .st0{fill:#DCFF02;} .st1{fill:#FFFFFF;} </style> <g id="Logo-Lemon" transform="translate(208.000000, 20.000000)"> <g id="Logo" transform="translate(1.000000, 2.000000)"> <g id="Group" transform="translate(67.262022, 11.111739)"> <polygon id="Fill-1" points="73.3,33.6 91.4,33.6 91.4,142 127.3,142 127.3,160.1 73.3,160.1 "></polygon> <polygon id="Fill-2" points="156.8,33.6 210.8,33.6 210.8,50.7 174.9,50.7 174.9,87.8 206.2,87.8 206.2,104.8 174.9,104.8 174.9,142 210.8,142 210.8,160.1 156.8,160.1 "></polygon> <polygon id="Fill-3" points="240.3,33.6 257.7,33.6 281,100.6 281.3,100.6 304.4,33.6 322,33.6 322,160.1 303.9,160.1 303.9,83.2 303.5,83.2 285.6,137.5 276.5,137.5 258.8,83.2 258.4,83.2 258.4,160.1 240.3,160.1 "></polygon> <path id="Fill-4" d="M373.9,130.2c0,8.7,5.7,12.8,12.3,12.8c6.6,0,12.3-4.1,12.3-12.8V63.5c0-8.7-5.7-12.8-12.3-12.8 c-6.6,0-12.3,4.1-12.3,12.8V130.2z M355.7,63.5c0-20.6,15.6-30.9,30.4-30.9c14.7,0,30.4,10.3,30.4,30.9v66.8 c0,20.6-15.6,30.9-30.4,30.9c-14.7,0-30.4-10.3-30.4-30.9V63.5z"></path> <polygon id="Fill-6" points="449.5,33.6 467,33.6 494.3,109.8 494.7,109.8 494.7,33.6 512.8,33.6 512.8,160.1 495.7,160.1 468,84.1 467.7,84.1 467.7,160.1 449.5,160.1 "></polygon> <polygon id="Fill-8" points="545.8,160.1 563.9,160.1 563.9,142 545.8,142 "></polygon> <polygon id="Fill-10" points="598.2,160.1 616.3,160.1 616.3,33.6 598.2,33.6 "></polygon> <path id="Fill-11" d="M668.7,130.2c0,8.7,5.7,12.8,12.3,12.8c6.6,0,12.3-4.1,12.3-12.8V63.5c0-8.7-5.7-12.8-12.3-12.8 c-6.6,0-12.3,4.1-12.3,12.8V130.2z M650.6,63.5c0-20.6,15.6-30.9,30.4-30.9c14.7,0,30.4,10.3,30.4,30.9v66.8 c0,20.6-15.6,30.9-30.4,30.9c-14.7,0-30.4-10.3-30.4-30.9V63.5z"></path> </g> <g id="Group-17" transform="translate(0.000000, 0.000000)"> <polygon id="Fill-1_1_" points="-64.5,-14.9 -204.4,219.5 75.3,219.5 "></polygon> <g id="Group-16" transform="translate(5.537037, 12.504759)"> <path id="Fill-2_1_" class="st0" d="M37.8,114.6c0-10.3-13.1-4.7-31.9-33c-18.3-27.6-45-41.4-76-41.4c-31,0-57.8,13.8-76,41.4 c-18.7,28.3-31.9,22.7-31.9,33c0,10.3,13.1,4.7,31.9,33c18.3,27.6,45,41.4,76,41.4c31,0,57.8-13.8,76-41.4 C24.7,119.3,37.8,124.9,37.8,114.6"></path> <path id="Fill-4_1_" d="M-70.1,43.7c-30.6,0-55.9,13.8-73.1,39.8c-11,16.6-20.5,22.2-26.1,25.5c-4.5,2.6-5.2,3.2-5.2,5.6 s0.7,2.9,5.2,5.6c5.7,3.3,15.1,8.9,26.1,25.5c17.2,26,42.5,39.8,73.1,39.8c30.6,0,55.9-13.8,73.1-39.8 c11-16.6,20.5-22.2,26.1-25.5c4.5-2.6,5.2-3.2,5.2-5.6s-0.7-2.9-5.2-5.6c-5.7-3.3-15.1-8.9-26.1-25.5 C-14.2,57.4-39.5,43.7-70.1,43.7 M-70.1,192.4c-33,0-60.3-14.8-78.9-42.9c-10.1-15.3-18.4-20.1-23.8-23.4 c-4.6-2.7-8.6-5.1-8.6-11.6s4-8.8,8.6-11.6c5.5-3.2,13.7-8.1,23.8-23.4c18.6-28.1,45.9-42.9,78.9-42.9S-9.7,51.6,8.9,79.6 C19,94.9,27.2,99.8,32.7,103c4.6,2.7,8.6,5.1,8.6,11.6s-4,8.8-8.6,11.6c-5.5,3.2-13.7,8.1-23.8,23.4 C-9.7,177.6-37,192.4-70.1,192.4"></path> <path id="Fill-6_1_" class="st1" d="M-21.5,114.6c0,26.8-21.8,48.6-48.6,48.6s-48.6-21.8-48.6-48.6S-96.9,66-70.1,66 S-21.5,87.7-21.5,114.6"></path> <path id="Fill-10_1_" d="M-40.4,114.6c0,16.4-13.3,29.7-29.7,29.7s-29.7-13.3-29.7-29.7s13.3-29.7,29.7-29.7 S-40.4,98.2-40.4,114.6"></path> <path id="Fill-12" class="st1" d="M-40.4,100.6c0,8.7-7.1,15.8-15.8,15.8c-8.7,0-15.8-7.1-15.8-15.8c0-8.7,7.1-15.8,15.8-15.8 C-47.4,84.9-40.4,91.9-40.4,100.6"></path> </g> <path id="Fill-8_1_" d="M-64.5,81.9c-24.9,0-45.1,20.2-45.1,45.1c0,24.9,20.2,45.1,45.1,45.1s45.1-20.2,45.1-45.1 C-19.4,102.2-39.6,81.9-64.5,81.9 M-64.5,179.2c-28.7,0-52.1-23.4-52.1-52.1S-93.3,75-64.5,75s52.1,23.4,52.1,52.1 S-35.8,179.2-64.5,179.2"></path> </g> </g> </g> </svg> 