<?xml version="1.0" encoding="UTF-8"?> <svg xmlns="http://www.w3.org/2000/svg" width="366" height="130" viewBox="0 0 366 130" fill="none"><path d="M47.7854 33.3144C48.4186 32.9754 50.797 32.1543 51.495 33.4759C52.1929 34.7975 50.1975 36.3271 49.5185 36.6906C48.8394 37.0541 47.7328 37.0187 47.1034 35.8269C46.474 34.6351 47.1523 33.6533 47.7854 33.3144ZM54.8659 46.274C55.499 45.9351 57.8775 45.114 58.5754 46.4356C59.2734 47.7572 57.278 49.2868 56.5989 49.6503C55.9199 50.0138 54.8132 49.9784 54.1838 48.7865C53.5544 47.5948 54.2328 46.613 54.8659 46.274ZM54.1775 97.25C50.0355 97.25 46.0127 96.4364 42.2201 94.8349C38.5603 93.2849 35.277 91.0756 32.4611 88.2612C29.641 85.4427 27.4264 82.1599 25.8796 78.5034C24.2773 74.717 23.4632 70.6951 23.4632 66.554C23.4632 62.4129 24.2773 58.391 25.8796 54.6019C27.4292 50.9468 29.641 47.6626 32.4611 44.8482C35.2784 42.0324 38.5617 39.819 42.2201 38.2717C43.1683 37.8737 44.1665 37.6679 45.1892 37.6679C48.2584 37.6679 51.0175 39.4955 52.2149 42.3235C53.8538 46.1925 52.0334 50.6747 48.1622 52.3127C46.3242 53.0884 44.669 54.2039 43.2455 55.6253C41.8219 57.0508 40.7058 58.7037 39.9283 60.5407C39.1238 62.4427 38.7188 64.4652 38.7188 66.554C38.7188 68.6428 39.1238 70.6653 39.9283 72.566C40.7058 74.4057 41.8219 76.0572 43.2455 77.48C44.6663 78.9028 46.3215 80.0183 48.1622 80.7967C50.0639 81.5994 52.0875 82.0042 54.1775 82.0042C56.2688 82.0042 58.2924 81.5994 60.1955 80.7967C62.0349 80.0183 63.6887 78.9028 65.1109 77.48C66.5318 76.0586 67.6492 74.407 68.428 72.566C69.2326 70.6626 69.6403 68.6415 69.6403 66.554C69.6403 62.3506 73.0604 58.9311 77.2661 58.9311C81.4704 58.9311 84.8918 62.3506 84.8918 66.554C84.8918 70.6951 84.0791 74.717 82.474 78.5034C80.9299 82.1599 78.7153 85.4427 75.8967 88.2612C73.0793 91.0756 69.7934 93.2849 66.1362 94.8349C62.3437 96.4364 58.3195 97.25 54.1775 97.25ZM55.3232 40.5137C56.0297 40.1355 58.9386 39.0828 59.7174 40.5574C60.4962 42.0322 58.0147 43.8754 57.257 44.281C56.4993 44.6866 55.2644 44.6471 54.5621 43.3173C53.8598 41.9874 54.6167 40.8919 55.3232 40.5137ZM52.6252 35.6615C53.3317 35.2833 56.1712 34.2677 56.95 35.7424C57.7288 37.2171 55.3167 39.0232 54.559 39.4288C53.8013 39.8344 52.5664 39.7949 51.8641 38.465C51.1618 37.1352 51.9187 36.0397 52.6252 35.6615Z" fill="black"></path><path d="M104.892 87.8326L108.322 45.2651C108.322 45.2651 108.893 41.4822 112.822 41.4822H117.781L128.196 69.4539C128.196 69.4539 135.466 49.6773 136.885 46.0158C137.849 43.5258 139.868 41.4822 142.599 41.4822H147.664L151.253 87.8326H142.599L140.531 58.0009L131.942 79.9026H124.4L115.948 58.371L113.642 87.8326H104.892ZM221.039 58.7118C221.039 58.7118 219.022 64.8129 214.811 63.0603C212.013 61.8961 211.629 61.3066 208.236 61.3066C204.867 61.3066 199.824 65.1575 199.955 70.754C200.047 74.6736 201.525 77.5501 204.005 79.2388C205.422 80.2039 207.168 80.8419 208.917 80.8419C212.11 80.8419 212.964 80.1431 215.541 78.9347C219.304 77.17 221.311 81.4674 221.943 82.925C220.649 84.3946 216.126 88.6758 208.788 88.5953C197.454 88.4711 190.951 80.3136 191.253 70.754C191.555 61.1944 198.194 53.5346 208.521 53.5346C217.199 53.5346 221.039 58.7118 221.039 58.7118ZM294.134 58.4511C293.5 56.3065 294.869 54.2703 297.124 54.2703H301.976L307.816 77.4714C307.816 77.4714 312.19 61.0632 312.909 58.4511C313.754 55.218 316.101 54.3684 317.69 54.3684C319.403 54.3684 321.538 54.3684 321.538 54.3684L327.727 77.5248C327.727 77.5248 331.896 61.2394 332.457 58.6215C333.115 55.5527 335.36 54.2568 337.25 54.2568H342.537L332.808 87.7734H323.597L317.771 67.1322L311.998 87.7734H302.677C302.677 87.7734 294.956 61.2309 294.134 58.4511ZM226.862 46.2527C226.862 42.5454 229.47 41.4038 231.163 41.4038C232.855 41.4038 236.911 41.4038 244.59 41.4038C247.939 41.4038 258.287 43.9213 258.287 56.5534C258.287 68.7853 249.347 72.0904 244.59 72.0904H235.647V87.7991H226.862V46.2527ZM235.61 49.4282L235.586 64.1025L243.039 64.0729C243.039 64.0729 249.488 64.389 249.488 56.4251C249.488 51.0175 245.568 49.4282 242.779 49.4282H235.61ZM263.448 57.8741C263.448 57.8741 268.443 53.5198 276.415 53.5201C283.941 53.5204 289.624 57.3944 289.624 67.8603C289.624 78.3261 289.505 87.8294 289.505 87.8294L281.54 87.7224L281.625 83.8453C281.625 83.8453 279.136 88.4145 272.607 88.5511C267.512 88.6577 261.652 85.745 261.486 78.0713C261.343 71.4498 266.76 68.7208 270.159 67.7468C275.673 66.167 281.01 66.432 281.01 66.432C281.01 66.432 281.625 61.1203 275.679 61.1203C271.979 61.1203 271.051 62.3118 269.112 62.7389C265.137 63.6145 263.448 57.8741 263.448 57.8741ZM281.124 72.9012C278.956 72.9012 276.14 72.8759 273.795 73.6639C271.969 74.2776 270.165 75.3268 270.165 77.6842C270.165 80.0417 272.08 81.3902 274.394 81.3902C279.01 81.3902 281.254 75.9343 281.124 72.9012ZM158.962 57.8741C158.962 57.8741 163.957 53.5198 171.929 53.5201C179.455 53.5204 185.138 57.3944 185.138 67.8603C185.138 78.3261 185.019 87.8294 185.019 87.8294L177.053 87.7224L177.139 83.8453C177.139 83.8453 174.649 88.4145 168.121 88.5511C163.025 88.6577 157.166 85.745 157 78.0713C156.857 71.4498 162.274 68.7208 165.673 67.7468C171.187 66.167 176.524 66.432 176.524 66.432C176.524 66.432 177.139 61.1203 171.193 61.1203C167.493 61.1203 166.565 62.3118 164.626 62.7389C160.65 63.6145 158.962 57.8741 158.962 57.8741ZM176.638 72.9012C174.469 72.9012 171.654 72.8759 169.309 73.6639C167.483 74.2776 165.679 75.3268 165.679 77.6842C165.679 80.0417 167.594 81.3902 169.908 81.3902C174.524 81.3902 176.768 75.9343 176.638 72.9012Z" fill="black"></path></svg> 