<?xml version="1.0" encoding="UTF-8"?> <svg xmlns="http://www.w3.org/2000/svg" width="74" height="28"><g fill="none"><path d="M1 2.44222C1 1.89859 1.44908 1.47314 1.96907 1.47314H5.0181C5.56173 1.47314 6.41262 1.56769 6.93261 1.68587C6.93261 1.68587 7.73623 1.87495 8.3035 2.72585L15.5597 14.0002C15.8434 14.4493 16.3161 15.2056 16.5761 15.6547C16.5761 15.6547 18.0415 18.1365 19.3651 21.3509C18.6797 17.9237 18.5142 16.3165 18.5142 14.2602V2.44222C18.5142 1.89859 18.9633 1.47314 19.4833 1.47314H23.0287C23.5723 1.47314 23.9977 1.92223 23.9977 2.44222V26.0309C23.9977 26.5745 23.5487 26.9999 23.0287 26.9999H20.0033C19.4596 26.9999 18.6088 26.9054 18.0888 26.7872C18.0888 26.7872 17.2851 26.5981 16.7179 25.7472L9.46166 14.4729C9.17802 14.0238 8.70531 13.2675 8.44531 12.8184C8.44531 12.8184 6.97989 10.3366 5.65627 7.12213C6.29444 10.5493 6.50717 12.1566 6.50717 14.1656V26.0309C6.50717 26.5745 6.05809 26.9999 5.53809 26.9999H1.99271C1.44908 26.9999 1.02364 26.5508 1.02364 26.0309V2.44222H1Z" fill="#FF6900"></path><path fill-rule="evenodd" clip-rule="evenodd" d="M42.3393 9.48529C41.8193 9.48529 41.3702 9.91074 41.3702 10.4544V26.0304C41.3702 26.5504 41.7957 26.9995 42.3393 26.9995H45.8847C46.4047 26.9995 46.8538 26.5741 46.8538 26.0304V10.4544C46.8538 9.93437 46.4283 9.48529 45.8847 9.48529H42.3393ZM44.112 6.48353C45.6247 6.48353 46.8538 5.25446 46.8538 3.74177C46.8538 2.22907 45.6247 1 44.112 1C42.5993 1 41.3702 2.22907 41.3702 3.74177C41.3702 5.25446 42.5993 6.48353 44.112 6.48353ZM28.1817 14.1179C27.6617 14.1179 27.2126 14.5434 27.2126 15.087V17.5688C27.2126 18.0888 27.6381 18.5378 28.1817 18.5378H37.4234C37.9434 18.5378 38.3924 18.1124 38.3924 17.5688V15.087C38.3924 14.567 37.967 14.1179 37.4234 14.1179H28.1817ZM48.437 26.9996C50.257 23.7851 52.9042 19.4833 55.2678 15.938L55.7878 15.1343C56.0006 14.8232 56.2135 14.4894 56.3557 14.2665C56.4187 14.1677 56.4678 14.0907 56.4969 14.0471C56.5914 13.8816 56.5914 13.6216 56.4969 13.4798C56.4239 13.3521 56.2102 13.0415 55.9752 12.7L55.9749 12.6995C55.9055 12.5986 55.8342 12.495 55.7641 12.3926C55.7641 12.3926 54.4642 10.4781 53.7787 9.41444C52.5969 7.61811 51.0606 5.15998 50.2806 3.7891L49.8079 2.96184C49.5479 2.48912 49.2406 1.96913 49.1225 1.80368C49.0043 1.63823 49.3588 1.47278 49.9024 1.47278H54.9605C55.5042 1.47278 56.0241 1.61459 56.1187 1.80368C56.1651 1.89659 56.263 2.0751 56.3785 2.28592C56.4981 2.50417 56.6366 2.75705 56.7569 2.98548C56.7569 2.98548 59.3095 6.93267 61.3895 9.95807C61.9506 10.773 63.0856 12.2827 64.0177 13.5225L64.0178 13.5225C64.7347 14.4761 65.3316 15.27 65.4549 15.4652C65.4549 15.4652 68.2203 19.2943 69.6621 21.5869C70.112 22.3253 70.5844 23.0185 71.0299 23.6723L71.03 23.6725C71.4972 24.358 71.9348 25.0001 72.2856 25.605C72.5275 26.0008 72.6875 26.2738 73.0321 26.8617L73.0327 26.8626L73.1129 26.9996H66.9676C66.4239 26.9996 65.7858 26.6214 65.5494 26.1487C65.5494 26.1487 64.6512 24.4469 63.564 22.5324L63.2284 21.9374C62.1061 19.9471 61.5056 18.8822 60.4913 17.2852L60.3022 17.5925C60.193 17.7745 60.0627 17.9987 59.9276 18.2312C59.7119 18.6022 59.4839 18.9945 59.3095 19.2706C59.3095 19.2706 56.6623 23.856 55.3623 26.2905C55.1732 26.6923 54.5587 26.9996 54.0387 26.9996H48.437ZM65.8332 2.13442C64.2969 4.94709 62.2169 8.4452 62.2169 8.4452L65.5023 12.7706L66.5896 10.9979L71.7186 2.93804C71.8524 2.7261 71.9915 2.4931 72.1136 2.28874C72.2501 2.06007 72.3652 1.86725 72.4276 1.77988C72.5222 1.59079 72.1913 1.44897 71.6476 1.44897H67.1568C66.6368 1.44897 66.0223 1.75624 65.8332 2.13442Z" fill="#54565A"></path></g></svg> 