<?xml version="1.0" encoding="UTF-8"?> <svg xmlns="http://www.w3.org/2000/svg" xmlns:xlink="http://www.w3.org/1999/xlink" version="1.1" id="Layer_1" x="0px" y="0px" viewBox="0 0 629.1 286.57" style="enable-background:new 0 0 629.1 286.57;" xml:space="preserve"> <style type="text/css"> .st0{display:none;} .st1{display:none;fill:none;} .st2{clip-path:url(#SVGID_2_);fill:url(#SVGID_3_);} .st3{fill:#434C88;} </style> <path class="st0" d="M250.56,94.56c-2.35-3.13-2.91-7.21-1.72-12.02c1.06-4.3,3.3-7.71,6.6-10.21c4.37-3.28,10.37-4.85,16.96-4.46 c11.88,0.68,17.7,8.48,17.1,16.02c-0.89,11.29-11.5,16.1-22.32,16.6C259.61,100.76,253.63,98.67,250.56,94.56 M579.07,121.43 c-1.5,5.74-7.35,10.65-11.63,11.13l-0.66,0.08l-0.27,0.67c-4.11,9.73-11.53,15.62-22.37,17.31c-8.78,1.33-17.14-4.21-19.13-13.66 l-0.37-1.81c-7.7,16.95-16.78,20.45-23.59,21.47c-2.85,0.43-12.49,0.52-11.43-10.93c0.65-6.75,2.29-13.64,3.86-19.25 c1.31-4.65,2.43-8.69,2.55-12.28c0.02-1.78-0.46-3.32-1.39-4.3c-0.62-0.67-1.4-0.98-2.21-0.93c-4.22,0.26-7.88,11.11-9.23,16.82 c0,0-7.67,32.89-8.07,34.52c-1.4,0.2-19.01,3.15-21.68,3.57l6.69-27.14l-1.43,0.96c-1.7,1.15-3.42,2.04-5.15,2.67l-0.68,0.26 l-0.15,0.71c-3.45,16.97-14.72,26.66-33.49,29.44c-14.47,2.13-24.11-2.78-26.33-14.99l-0.53-3.1l-0.93,1.65l-0.67,1.15 c-4.66,8.17-14.49,22.2-28.33,24.24c-5.07,0.76-9.32-0.31-12.28-3.13c-3.23-2.99-4.85-7.84-4.68-13.95 c0.25-8.38,2.96-16.27,5.36-23.27l0.78-2.24c0-0.04,4.09-14.34,4.85-17.18c0.79-2.85-1.26-6.71-5.21-5.06 c-1.95,0.82-2.58,2.5-3.3,3.8c-0.79,1.48-1.44,4.89-2.39,10.15c-2.04,11.21-5.79,31.96-13.19,42.6 c-9.42,13.45-20.12,16.33-24.31,16.95c-10.22,1.5-19.13-1.17-24.31-5.67c-11.28,8.8-27.44,14.06-36.62,15.23 c-22.01,2.8-26.9-11.21-23.31-24.4c0.08-0.28,0.05-0.54,0.09-0.83c-15.15,17.97-35.75,35.05-60.87,39.82 c-28.14,5.28-44.25,0.91-57.2-10.95c-9.33-8.54-14.97-27.33-10.69-42.89c12.75-46.19,57.07-67.03,86.13-67.85 c18.89-0.54,27.33,3.24,34.59,10.79c4.5,4.69,6.68,11.04,6.43,18.82c-0.47,14.38-10.92,24.09-23.79,25.24 c-5.77,0.52-10.84-1.04-14.29-4.41c-3.51-3.44-5.27-8.74-5.06-15.25c0.31-10.1,8.71-18.21,13.89-21.01c0,0,2.92-1.72,6.23-2.76 c1.98-3.29-30.64-12.99-50.86,30.07c-3.39,7.25-5.52,11.95-7.86,24.66c-3.36,17.95,1.63,30.81,10.32,36.15 c6.39,3.98,16.45,4.56,29.34,1.19c24.21-6.28,47.7-37.04,55.8-59.6c4.14-11.51,8.15-24,9.22-27.22c1.56-0.04,33.22-1.11,36.22-1.22 c-1.04,3.13-18.19,54.23-18.19,54.23c-0.54,1.52-4.28,13.58-1.51,17.32c0.93,1.24,3.62,2.67,6.4,2.3c4.59-0.67,7.27-2.7,10.64-4.63 c-1.83-3.04-3.98-8.13-2.8-14.19c1.93-9.86,12.53-17.66,22.22-11.25c4.85,3.17,6.94,9.91,2.29,17.64c-2.06,3.45-4.71,6.1-9.01,9.39 c1.84,1.15,4.4,1.3,7.26,0.93c12.53-1.65,16.67-13.97,19.1-31.94l0.16-0.59c1.68-14.99,4.77-30.11,15.98-40.24 c10.63-9.56,24.72-0.58,25.35,6.11l2.34-8.21c0,0,23.73-0.41,26.51-0.5c-0.83,2.98-13.2,48.1-13.2,48.1l-0.43,4.13v0.05 c-0.02,1.17,0.35,2.17,1.06,2.84c0.65,0.63,1.53,0.92,2.46,0.81c4.87-0.57,11.26-10.84,14.92-20.36c0.05-0.14,0.1-0.27,0.16-0.39 l0.05-0.13l0.02-0.15c0.43-2.35,1.04-4.6,1.96-7.95l0.72-2.65c0-0.02,4.82-20.08,5.95-24.7c1.58-0.09,23.25-0.87,23.25-0.87 s-12.03,50.36-12.17,56.43c-0.09,2.67,0.65,4.89,1.92,6.1c0.8,0.76,1.8,1.09,2.91,0.96c7.2-0.96,12.46-7.53,14.46-19.79l0.31-1.89 l-1.72,0.56c-14.97,4.35-15.69-26.6,9.34-28.76c9.73-0.81,12.3,9.17,12.68,12.06c0.32,1.35,0.52,2.63,0.63,3.96l0.11,1.33l1.23-0.33 c2.6-0.65,5.71-3.08,7.93-6.08l6.42-25.98c1.5-0.07,15.93-0.53,18.24-0.65c-0.39,1.71-1.72,8.04-1.72,8.04l2.89-3.32 c1.55-1.78,7.12-5.33,13.09-5.78c8.13-0.61,15.99,1.93,14.77,14.69c-0.51,5.48-1.62,10.4-2.96,15.69c-0.99,3.96-1.83,7.08-1.86,9.08 c-0.02,1.11,0.29,2.06,0.91,2.63c0.48,0.52,1.13,0.74,1.8,0.65c3.25-0.39,7.81-9.56,10.3-16.08c0-0.19,0.02-0.28,0.03-0.35l0.05-0.1 l0.02-0.15c2.21-18.75,16.81-27.44,26.81-28c16.31-0.94,18.75,9.97,18.55,20.47c-0.06,2.28-1.18,9.86-1.18,9.86l1.28-0.31 c2.84-0.48,6.08-4.02,7.65-7.45C578.63,119.85,578.77,121.02,579.07,121.43 M285.8,171.08c3.99-2.95,6.99-6.49,8.06-8.8 c2.17-4.76,0.64-7.15-3.25-7.32C285.67,154.74,280.92,163.41,285.8,171.08 M433.68,128.24c-0.42-0.5-1.84-0.78-3.06-0.18 c-2.15,0.98-4.6,4.63-4.08,6.91c0.13,0.59,0.73,1.98,3.32,1.56c2.46-0.42,4.03-1.11,4.74-2.15 C434.6,134.37,435.48,130.26,433.68,128.24 M554.36,131.85c0,0-5.55-3.17-5.07-9.8c0.79-11.11,8.2-11.35,8.2-11.35l0.08-0.46 c0.39-3.74-0.23-6.87-1.73-8.54c-0.67-0.78-1.61-1.18-2.56-1.11c-7.1,0.33-12.38,25.37-12.6,35.37c-0.08,4.26,0.53,5.45,1.93,6.74 c0.87,0.83,2.06,1.09,3.49,0.91c4.2-0.52,6.34-5.59,7.89-10.3L554.36,131.85z M557.2,117.78c-0.55-0.36-1.54-0.23-2.21,0.63 c-1.31,1.61-1.42,5.99,1.01,7.51C556.88,122.85,557.06,120.46,557.2,117.78"></path> <path class="st0" d="M311.68,49.43 M267.25,32.06c-26.86,0.65-45.82,18.4-54.84,29.07c-18.15-6.1-38.4-7.13-58.59-3.03 c-20.01,4.07-48.83,14.48-69.75,31.35c-36.92,29.79-56.31,65.88-54.63,101.66c0.98,21.22,10.73,39.54,28.15,53.03 c28.26,21.81,74.05,16.96,92.43,13.88c19.5-3.3,330.59-59.07,372.25-67.01c38.83-7.43,75.86-20.75,83.38-67.5 c0.48-2.85,0.7-5.76,0.72-8.58c0.12-12.04-3.66-23.38-10.31-31.07c-12.16-14.14-31.84-15.79-45.58-15.84 c-10.98-0.02-89.82,1.37-228.03,4.02c-1.63-8.63-5.34-16.45-10.78-22.6C304.45,41.16,290.88,31.47,267.25,32.06 M215.93,66.71 c8.34-10.34,26.13-27.77,51.48-28.39c21.2-0.54,33.2,8,39.56,15.21c5.35,6.08,8.72,13.68,9.85,22.11l0.35,2.78l2.83-0.09 c21.69-0.39,212.62-4.04,230.47-4.02c12.49,0.02,30.36,1.46,40.84,13.62c5.59,6.48,8.78,16.15,8.78,26.55v0.39 c-0.02,2.56-0.21,5.15-0.62,7.65c-6.92,42.93-41.77,55.3-78.39,62.32c-40.87,7.78-352.23,63.62-372.11,66.94 c-17.58,2.97-61.24,7.67-87.53-12.62c-15.94-12.3-24.84-29.03-25.73-48.34C34.13,157.11,52.71,122.85,88,94.35 c20.06-16.21,47.81-26.16,67.09-30.12c19.99-4.06,39.8-2.87,57.32,3.46l2.11,0.76L215.93,66.71z"></path> <polyline class="st1" points="-900.5,-67.3 795.52,-67.3 795.52,360.07 -900.5,360.07 "></polyline> <g> <defs> <path id="SVGID_1_" d="M261.99,23.36c-27.05,0.66-45.97,19.17-54.85,30.17c0,0-0.37,0.42-0.72,0.88c-0.56-0.19-1.1-0.4-1.1-0.4 c-18.52-6.7-39.47-7.95-60.59-3.65c-20.24,4.13-49.42,14.66-70.53,31.67C37,112.06,17.43,148.19,19.13,183.86 c0.95,20.6,10.45,38.48,27.41,51.54c27.9,21.53,73.93,16.61,92.44,13.49c20.7-3.49,344.92-61.58,387.47-69.72 c38.73-7.39,75.57-20.54,82.96-66.27c0.45-2.66,0.67-5.45,0.67-8.21v-0.41c0-11.19-3.48-21.68-9.55-28.7 c-11.36-13.18-30.44-14.74-43.78-14.8c-18.51-0.02-217.4,3.78-240.01,4.25c0,0-0.76,0.02-1.45,0.02c-0.1-0.71-0.19-1.41-0.19-1.41 c-1.19-9.08-4.88-17.32-10.64-23.88c-6.65-7.55-19.04-16.42-40.57-16.42C263.26,23.33,262.63,23.34,261.99,23.36"></path> </defs> <clipPath id="SVGID_2_"> <use xlink:href="#SVGID_1_" style="overflow:visible;"></use> </clipPath> <linearGradient id="SVGID_3_" gradientUnits="userSpaceOnUse" x1="-44.6091" y1="217.1176" x2="-41.6025" y2="217.1176" gradientTransform="matrix(226.0972 0 0 -226.0972 10059.2686 49229.8281)"> <stop offset="0" style="stop-color:#D76443"></stop> <stop offset="1" style="stop-color:#E39544"></stop> </linearGradient> <rect x="17.43" y="23.33" class="st2" width="592.64" height="233.6"></rect> </g> <path class="st3" d="M244.48,83.55c-2.45-3.26-3.03-7.5-1.79-12.52c1.1-4.48,3.43-8.02,6.87-10.63c4.56-3.41,10.79-5.05,17.66-4.65 c12.37,0.71,18.42,8.83,17.81,16.68c-0.93,11.75-11.97,16.76-23.24,17.29C253.9,90.01,247.67,87.83,244.48,83.55 M586.53,111.52 c-1.56,5.98-7.66,11.09-12.1,11.59l-0.69,0.08l-0.29,0.69c-4.28,10.13-12,16.26-23.29,18.02c-9.14,1.39-17.84-4.38-19.92-14.22 l-0.38-1.89c-8.02,17.65-17.47,21.3-24.56,22.35c-2.97,0.44-13,0.54-11.9-11.38c0.67-7.02,2.38-14.2,4.02-20.04 c1.36-4.84,2.53-9.05,2.65-12.79c0.02-1.85-0.48-3.45-1.45-4.47c-0.65-0.7-1.46-1.03-2.31-0.97c-4.39,0.27-8.21,11.57-9.62,17.51 c0,0-7.99,34.24-8.4,35.94c-1.46,0.21-19.8,3.28-22.57,3.72l6.97-28.26l-1.49,1c-1.76,1.19-3.56,2.12-5.36,2.78l-0.7,0.27 l-0.16,0.74c-3.6,17.67-15.32,27.76-34.87,30.65c-15.07,2.22-25.1-2.9-27.42-15.61l-0.56-3.22l-0.97,1.72l-0.69,1.19 c-4.85,8.51-15.08,23.11-29.49,25.23c-5.28,0.79-9.71-0.33-12.78-3.26c-3.36-3.11-5.05-8.16-4.87-14.52 c0.26-8.72,3.08-16.94,5.58-24.23l0.81-2.33c0-0.04,4.26-14.93,5.05-17.88c0.82-2.97-1.31-6.98-5.42-5.27 c-2.03,0.85-2.69,2.61-3.43,3.96c-0.83,1.54-1.49,5.09-2.49,10.57c-2.12,11.67-6.03,33.28-13.74,44.35 c-9.81,14.01-20.95,17-25.31,17.65c-10.64,1.56-19.92-1.21-25.32-5.9c-11.74,9.16-28.57,14.64-38.13,15.85 c-22.92,2.91-28-11.67-24.27-25.41c0.08-0.29,0.06-0.56,0.1-0.87c-15.78,18.71-37.22,36.49-63.38,41.46 c-29.3,5.5-46.08,0.94-59.55-11.4c-9.71-8.89-15.59-28.45-11.13-44.66c13.28-48.09,59.42-69.8,89.68-70.64 c19.67-0.56,28.45,3.38,36.01,11.23c4.68,4.88,6.95,11.5,6.69,19.6c-0.49,14.97-11.37,25.08-24.77,26.27 c-6.01,0.54-11.28-1.08-14.88-4.59c-3.65-3.59-5.49-9.1-5.27-15.87c0.32-10.51,9.07-18.96,14.46-21.88c0,0,3.04-1.79,6.49-2.88 c2.06-3.43-31.9-13.52-52.96,31.31c-3.53,7.54-5.75,12.44-8.19,25.68c-3.49,18.69,1.7,32.08,10.74,37.64 c6.66,4.15,17.13,4.74,30.55,1.24c25.2-6.54,49.67-38.56,58.1-62.06c4.31-11.98,8.48-24.99,9.6-28.34 c1.62-0.04,34.59-1.16,37.72-1.27c-1.08,3.26-18.94,56.46-18.94,56.46c-0.56,1.58-4.46,14.14-1.57,18.04 c0.97,1.29,3.77,2.78,6.67,2.39c4.78-0.69,7.57-2.81,11.08-4.82c-1.91-3.16-4.15-8.47-2.91-14.78 c2.01-10.26,13.04-18.39,23.14-11.71c5.05,3.3,7.23,10.32,2.38,18.36c-2.14,3.59-4.9,6.35-9.38,9.78c1.91,1.2,4.58,1.35,7.56,0.97 c13.05-1.72,17.36-14.55,19.89-33.26l0.17-0.62c1.75-15.6,4.97-31.35,16.64-41.9c11.06-9.95,25.74-0.6,26.39,6.37l2.43-8.54 c0,0,24.71-0.43,27.6-0.52c-0.87,3.11-13.74,50.08-13.74,50.08l-0.44,4.3v0.06c-0.02,1.21,0.37,2.26,1.1,2.95 c0.68,0.66,1.59,0.96,2.56,0.85c5.08-0.6,11.73-11.29,15.54-21.2c0.05-0.15,0.1-0.29,0.17-0.4l0.05-0.14l0.02-0.15 c0.45-2.45,1.08-4.79,2.04-8.28l0.75-2.76c0-0.02,5.02-20.91,6.19-25.72c1.65-0.09,24.21-0.9,24.21-0.9s-12.52,52.43-12.67,58.76 c-0.09,2.78,0.67,5.09,2,6.35c0.84,0.79,1.88,1.14,3.03,1c7.5-1,12.97-7.84,15.05-20.6l0.32-1.97l-1.79,0.58 c-15.59,4.53-16.34-27.7,9.72-29.94c10.13-0.84,12.81,9.55,13.2,12.56c0.34,1.41,0.54,2.74,0.66,4.13l0.11,1.39l1.28-0.35 c2.71-0.68,5.95-3.2,8.26-6.33l6.68-27.05c1.56-0.08,16.59-0.56,18.99-0.67c-0.41,1.78-1.79,8.37-1.79,8.37l3.01-3.45 c1.61-1.85,7.42-5.55,13.63-6.02c8.46-0.63,16.65,2.01,15.38,15.3c-0.53,5.71-1.69,10.82-3.08,16.34c-1.03,4.13-1.9,7.37-1.94,9.45 c-0.02,1.16,0.31,2.14,0.94,2.74c0.5,0.54,1.18,0.77,1.87,0.67c3.39-0.41,8.13-9.95,10.73-16.74c0-0.2,0.02-0.29,0.04-0.36l0.05-0.1 l0.02-0.15c2.31-19.52,17.5-28.57,27.91-29.15c16.98-0.98,19.52,10.38,19.31,21.31c-0.06,2.37-1.23,10.26-1.23,10.26l1.33-0.33 c2.96-0.5,6.33-4.19,7.97-7.75C586.07,109.88,586.21,111.09,586.53,111.52 M281.17,163.22c4.16-3.07,7.27-6.75,8.39-9.16 c2.26-4.96,0.66-7.44-3.39-7.62C281.04,146.21,276.09,155.23,281.17,163.22 M435.14,118.62c-0.44-0.52-1.91-0.81-3.18-0.19 c-2.24,1.02-4.79,4.82-4.25,7.19c0.14,0.62,0.76,2.07,3.45,1.62c2.56-0.44,4.2-1.16,4.94-2.24 C436.11,125,437.02,120.72,435.14,118.62 M560.8,122.38c0,0-5.78-3.3-5.28-10.2c0.82-11.57,8.54-11.82,8.54-11.82l0.09-0.48 c0.4-3.9-0.24-7.16-1.8-8.89c-0.7-0.81-1.67-1.23-2.67-1.16c-7.4,0.35-12.89,26.41-13.12,36.83c-0.09,4.44,0.55,5.67,2.01,7.02 c0.91,0.87,2.14,1.14,3.64,0.94c4.38-0.54,6.6-5.82,8.22-10.72L560.8,122.38z M563.76,107.72c-0.58-0.37-1.61-0.23-2.31,0.65 c-1.36,1.68-1.48,6.23,1.05,7.81C563.42,113.01,563.6,110.52,563.76,107.72"></path> </svg> 