<?xml version="1.0" encoding="UTF-8"?> <svg xmlns="http://www.w3.org/2000/svg" width="24" height="24" viewBox="0 0 24 24" fill="none"><path d="M23.6408 14.9029C22.0379 21.3315 15.5261 25.2438 9.09602 23.6407C2.66859 22.038 -1.24421 15.5266 0.359461 9.09838C1.96163 2.66907 8.47346 -1.24364 14.9016 0.359095C21.3313 1.96183 25.2437 8.47401 23.6408 14.9029Z" fill="#5B7742"></path><path d="M8.38712 14.172C8.37312 12.38 7.58912 11.862 6.28712 11.26L6.07712 11.162C5.33512 10.812 5.20912 10.406 5.20912 9.608V9.006C5.20912 8.6 5.57312 8.474 5.82512 8.474C6.10512 8.474 6.44112 8.6 6.44112 9.006V10.588H8.33112V8.894C8.33112 7.354 6.98712 6.808 5.82512 6.808C4.66312 6.808 3.30512 7.354 3.30512 8.894V9.818C3.30512 11.876 4.42512 12.212 5.58712 12.814C6.39912 13.234 6.49712 13.486 6.49712 14.368V14.984C6.49712 15.362 6.13312 15.516 5.82512 15.516C5.51712 15.516 5.15312 15.376 5.15312 14.984V13.402H3.24912V15.082C3.24912 16.608 4.62112 17.154 5.82512 17.154C7.01512 17.154 8.38712 16.608 8.38712 15.082V14.172ZM15.3691 17V16.748C14.5711 14.942 13.7591 13.136 12.9611 11.316C13.7171 9.958 14.4871 8.6 15.2431 7.228V6.976H13.4511C12.7931 8.194 12.1351 9.398 11.4911 10.616V6.976H9.58707V17H11.4911V13.99L11.9811 13.108L13.5771 17H15.3691ZM21.6046 17V16.748L20.2886 12.674C21.0586 12.212 21.4086 11.526 21.4086 10.56V9.328C21.4086 7.774 20.4426 6.976 18.9586 6.976H16.2006V17H18.0626V13.038H18.6086L19.6586 17H21.6046ZM19.5186 10.602C19.5186 10.938 19.3086 11.372 18.9026 11.372H18.0626V8.642H18.9026C19.3086 8.642 19.5186 9.006 19.5186 9.314V10.602Z" fill="white"></path></svg> 