<?xml version="1.0" encoding="UTF-8"?> <svg xmlns="http://www.w3.org/2000/svg" width="24" height="24" viewBox="0 0 24 24" fill="none"><circle cx="12" cy="12" r="12" fill="#5B7742"></circle><path d="M6.5989 15.2992C6.69546 15.2027 6.82822 15.1464 6.96903 15.1464H19.7385C19.9718 15.1464 20.0885 15.4279 19.9235 15.5927L17.401 18.1139C17.3045 18.2104 17.1717 18.2667 17.0309 18.2667H4.26146C4.02812 18.2667 3.91145 17.9852 4.0764 17.8203L6.5989 15.2992Z" fill="white"></path><path d="M6.5989 5.88613C6.69948 5.78963 6.83224 5.73334 6.96903 5.73334H19.7385C19.9718 5.73334 20.0885 6.0148 19.9235 6.17966L17.401 8.70081C17.3045 8.79731 17.1717 8.8536 17.0309 8.8536H4.26146C4.02812 8.8536 3.91145 8.57214 4.0764 8.40728L6.5989 5.88613Z" fill="white"></path><path d="M17.401 10.5625C17.3045 10.466 17.1717 10.4097 17.0309 10.4097H4.26146C4.02812 10.4097 3.91145 10.6912 4.0764 10.8561L6.5989 13.3772C6.69546 13.4737 6.82822 13.53 6.96903 13.53H19.7385C19.9718 13.53 20.0885 13.2485 19.9235 13.0837L17.401 10.5625Z" fill="white"></path></svg> 