<?xml version="1.0" encoding="UTF-8"?> <svg xmlns="http://www.w3.org/2000/svg" width="24" height="24" viewBox="0 0 24 24" fill="none"><path d="M12 24C18.6274 24 24 18.6274 24 12C24 5.37258 18.6274 0 12 0C5.37258 0 0 5.37258 0 12C0 18.6274 5.37258 24 12 24Z" fill="#5B7742"></path><path d="M13.2791 13.1074V13.1054C13.1962 13.1112 12.7679 13.1363 11.8148 13.1363C11.0528 13.1363 10.5184 13.1151 10.3293 13.1054V13.1074C7.39874 12.9781 5.21289 12.4688 5.21289 11.8572C5.21289 11.2476 7.40067 10.7363 10.3293 10.607V12.6C10.5203 12.6135 11.0701 12.6463 11.8283 12.6463C12.7389 12.6463 13.1942 12.6077 13.2791 12.6V10.609C16.2039 10.7402 18.384 11.2495 18.384 11.8591C18.384 12.4688 16.202 12.9781 13.2791 13.1093M13.2791 10.4025V8.61991H17.3595V5.90158H6.25083V8.61991H10.3312V10.4025C7.01482 10.555 4.52222 11.2109 4.52222 11.998C4.52222 12.7852 7.01675 13.4411 10.3312 13.5955V19.3099H13.2811V13.5955C16.5917 13.4431 19.0804 12.7871 19.0804 12C19.0804 11.2148 16.5917 10.5569 13.2811 10.4045" fill="white"></path></svg> 