<?xml version="1.0" encoding="UTF-8"?> <svg xmlns="http://www.w3.org/2000/svg" width="24" height="24" viewBox="0 0 24 24" fill="none"><path d="M24 24H7.4C3.33333 24 0 20.6667 0 16.6V0H16.6667C20.7333 0 24 3.33333 24 7.4V24Z" fill="#5B7742"></path><path d="M4.99996 5.8667V12.6647C4.99996 14.9701 5.68289 16.2706 7.44711 16.2706C9.21134 16.2706 9.89427 14.7337 9.89427 12.8421V5.8667H11.943V13.1967C11.943 16.2115 10.065 17.8667 7.3902 17.8667C4.31703 17.8667 2.66663 16.2706 2.66663 13.0785V5.8667H4.99996ZM15.5284 16.2706H16.7235C17.9756 16.2706 18.943 15.5613 18.943 14.2608C18.943 12.9012 17.9756 12.31 16.7235 12.31H15.5853V16.2706H15.5284ZM15.5284 10.8322H16.2682C17.5772 10.8322 18.4878 9.94552 18.4878 8.88148C18.4878 7.81744 17.7479 7.40365 16.7235 7.40365H15.5284V10.8322ZM13.252 17.6894V5.8667H17.3496C19.2845 5.8667 20.5935 6.81251 20.5935 8.40857C20.5935 10.3002 19.1138 11.0687 18.317 11.3051V11.3642C19.7398 11.4234 21.3333 12.4283 21.3333 14.2608C21.3333 16.2706 19.6829 17.7485 17.0081 17.7485H13.252V17.6894Z" fill="white"></path></svg> 