<svg width="96" height="48" viewBox="0 0 96 48" fill="none" xmlns="http://www.w3.org/2000/svg">
<path d="M0 0.464844V5.17192V24.0003V28.7074H4.80002H19.2001V42.8287V47.5357H24H72H76.8V42.8287V28.7074H91.2H96V0.464844H0Z" fill="white"/>
<path d="M30.6914 18.7885V10.3984H35.1929V18.7885H33.7798V11.6672H32.1043V18.7885H30.6914Z" fill="black"/>
<path d="M39.2331 17.6326C39.2371 17.6326 39.2409 17.6335 39.245 17.6354C39.249 17.6371 39.253 17.638 39.2568 17.638C39.4239 17.6345 39.557 17.6013 39.6564 17.5388C39.7557 17.4763 39.8323 17.3944 39.8859 17.2933C39.9396 17.1922 39.9742 17.0755 39.9901 16.9431C40.0061 16.8107 40.0141 16.6745 40.0141 16.5349V12.6515C40.0141 12.5154 40.007 12.3812 39.9931 12.2488C39.9794 12.1165 39.9456 11.9988 39.892 11.8957C39.8382 11.7927 39.7607 11.7101 39.6595 11.6476C39.5579 11.5851 39.4179 11.5538 39.239 11.5538C39.2271 11.5538 39.2171 11.552 39.2092 11.5483C39.0424 11.552 38.9091 11.5851 38.8097 11.6476C38.7103 11.7101 38.6348 11.7918 38.5831 11.8931C38.5315 11.9942 38.4977 12.111 38.4819 12.2433C38.466 12.3757 38.4579 12.5119 38.4579 12.6515V16.5349C38.4579 16.671 38.4649 16.805 38.4789 16.9376C38.4929 17.07 38.5265 17.1877 38.5802 17.2907C38.6338 17.3935 38.7114 17.4763 38.8128 17.5388C38.9142 17.6013 39.0541 17.6326 39.2331 17.6326ZM39.2331 10.2907C39.2331 10.2869 39.2352 10.2852 39.239 10.2852C39.6843 10.2852 40.0489 10.3485 40.333 10.4754C40.6171 10.6023 40.8399 10.7732 41.0008 10.9884C41.1619 11.2035 41.273 11.4544 41.3347 11.7414C41.3964 12.0281 41.4272 12.3298 41.4272 12.6461V16.5403C41.4272 16.8602 41.3964 17.1638 41.3347 17.4505C41.273 17.7374 41.1607 17.9884 40.9977 18.2035C40.8349 18.4186 40.6113 18.5887 40.3271 18.7137C40.0429 18.8386 39.6802 18.9012 39.239 18.9012L39.2331 18.8957V18.9012C38.788 18.9012 38.4232 18.8378 38.139 18.7111C37.8547 18.5842 37.6312 18.4132 37.4684 18.198C37.3054 17.9827 37.193 17.7318 37.1314 17.445C37.0698 17.1581 37.0391 16.8567 37.0391 16.5403V12.6461C37.0391 12.326 37.0698 12.0236 37.1314 11.7385C37.193 11.4537 37.3063 11.2035 37.4712 10.9884C37.6362 10.7732 37.8608 10.6023 38.145 10.4754C38.4291 10.3485 38.7918 10.2852 39.2331 10.2852V10.2907Z" fill="black"/>
<path d="M46.3227 15.8153C46.3227 15.7014 46.3058 15.5947 46.272 15.4955C46.2384 15.3961 46.1887 15.3096 46.123 15.2362C46.0573 15.1626 45.974 15.1047 45.8726 15.0624C45.7713 15.0201 45.653 14.9989 45.518 14.9989H44.7606V17.5199H45.5238C45.6549 17.5199 45.7703 17.5078 45.8697 17.4839C45.9688 17.46 46.0535 17.4159 46.123 17.3516C46.1925 17.2871 46.2442 17.199 46.2781 17.0868C46.3118 16.9746 46.3267 16.8304 46.3227 16.6538V15.8153ZM46.2215 12.412C46.2215 12.2905 46.2073 12.1801 46.1797 12.0809C46.1518 11.9817 46.1082 11.8962 46.0485 11.8245C45.989 11.7527 45.9112 11.6976 45.816 11.659C45.7206 11.6204 45.6033 11.601 45.4641 11.601H44.7606V13.8075H45.3629C45.5259 13.8075 45.6628 13.79 45.7744 13.7552C45.8855 13.7201 45.976 13.6659 46.0456 13.5923C46.1149 13.5188 46.1637 13.4268 46.1916 13.3167C46.2194 13.2063 46.2311 13.0737 46.2275 12.9193L46.2215 12.412ZM47.7356 16.6317C47.7356 17.0179 47.6911 17.347 47.6016 17.6191C47.5121 17.8911 47.376 18.1137 47.1932 18.2865C47.0102 18.4594 46.7819 18.5854 46.5076 18.6644C46.2332 18.7435 45.9093 18.7831 45.5357 18.7831H43.3477V10.3984H45.5059C45.8715 10.3984 46.1887 10.4417 46.4569 10.5281C46.7253 10.6146 46.9467 10.7396 47.1216 10.9032C47.2965 11.0668 47.4267 11.2664 47.5121 11.5018C47.5978 11.7371 47.6403 12.0056 47.6403 12.307V12.7981C47.6403 13.2357 47.5747 13.5832 47.4436 13.8406C47.3125 14.098 47.0978 14.2671 46.7996 14.3481C47.0897 14.4216 47.3186 14.5862 47.4854 14.8418C47.6523 15.0974 47.7356 15.4218 47.7356 15.8153V16.6317Z" fill="black"/>
<path d="M49.6484 18.7885V10.3984H53.4821V11.6672H51.0614V13.8847H53.0707V15.1533H51.0614V17.5253H53.4821V18.7885H49.6484Z" fill="black"/>
<path d="M58.1316 12.4504C58.1316 12.193 58.0739 11.9981 57.9589 11.8658C57.8435 11.7332 57.6407 11.6671 57.3507 11.6671H56.6769V14.6403H57.2968C57.6028 14.6403 57.8186 14.5759 57.9437 14.4471C58.069 14.3185 58.1316 14.1016 58.1316 13.7962V12.4504ZM59.5507 13.7962C59.5507 14.2008 59.4988 14.5382 59.3956 14.8084C59.2923 15.0788 59.1441 15.2947 58.9514 15.4566C58.7587 15.6184 58.524 15.7325 58.2477 15.7986C57.9715 15.8649 57.6607 15.898 57.3149 15.898H56.6769V18.7883H55.2637V10.3984H57.3446C57.6785 10.3984 57.9805 10.4332 58.2509 10.5031C58.521 10.573 58.7526 10.688 58.9453 10.8478C59.138 11.0079 59.2873 11.2184 59.3925 11.4795C59.4979 11.7405 59.5507 12.0642 59.5507 12.4504V13.7962Z" fill="black"/>
<path d="M61.1836 18.7885V10.3984H62.6025V13.9232H64.2778V10.3984H65.6912V18.7885H64.2778V15.1919H62.6025V18.7885H61.1836Z" fill="black"/>
<path d="M71.1632 18.7885L71.2171 13.2724L69.4637 18.7885H67.8125L67.8305 10.3984H69.2432L69.1955 15.7822L70.8114 10.3984H72.5822V18.7885H71.1632Z" fill="black"/>
<path d="M78.6398 16.1338V16.6304C78.6398 16.9282 78.6075 17.2141 78.5444 17.488C78.4806 17.7619 78.3672 18.0029 78.2043 18.2106C78.0415 18.4185 77.8191 18.5849 77.5367 18.7099C77.2543 18.8348 76.8944 18.8975 76.4578 18.8975C76.4534 18.8975 76.4516 18.8994 76.4516 18.9029C76.0025 18.9029 75.6353 18.8395 75.3516 18.7126C75.0673 18.5857 74.845 18.4147 74.6839 18.1997C74.5229 17.9845 74.4114 17.7335 74.3501 17.4468C74.2882 17.1598 74.2578 16.8584 74.2578 16.5421V12.6476C74.2578 12.3277 74.2882 12.0253 74.3501 11.7403C74.4114 11.4552 74.5229 11.2051 74.6839 10.9901C74.845 10.7749 75.0673 10.6039 75.3516 10.477C75.6353 10.3501 75.9982 10.2867 76.4398 10.2867L76.4454 10.2812C76.8907 10.2812 77.2555 10.3447 77.5398 10.4716C77.8234 10.5985 78.047 10.7676 78.2105 10.979C78.3734 11.1905 78.4855 11.4341 78.5468 11.7099C78.6088 11.9858 78.6398 12.2725 78.6398 12.5704V13.0503H77.2202V12.576C77.2202 12.4509 77.2115 12.3277 77.1936 12.2065C77.1762 12.085 77.1397 11.9756 77.0864 11.8781C77.0325 11.7807 76.9551 11.7017 76.8541 11.641C76.7526 11.5802 76.6188 11.5499 76.4516 11.5499C76.2763 11.5499 76.1388 11.5812 76.0372 11.6436C75.9356 11.7061 75.857 11.7881 75.8019 11.8892C75.7461 11.9903 75.7102 12.107 75.6941 12.2394C75.6786 12.3719 75.6706 12.5098 75.6706 12.6533V16.5365C75.6706 16.6725 75.6774 16.8068 75.6916 16.9391C75.7052 17.0715 75.7393 17.1892 75.7926 17.2922C75.8465 17.3952 75.9239 17.478 76.0255 17.5405C76.1264 17.603 76.267 17.6343 76.4454 17.6343C76.6083 17.6343 76.7408 17.6066 76.8418 17.5514C76.9433 17.4962 77.022 17.4219 77.0771 17.3281C77.1329 17.2344 77.1706 17.1267 77.1905 17.0054C77.2109 16.8839 77.2202 16.7573 77.2202 16.6247V16.1338H78.6398Z" fill="black"/>
<path d="M83.0616 15.3906C83.0616 15.0854 82.999 14.8684 82.8733 14.7397C82.7488 14.6109 82.5327 14.5467 82.2267 14.5467H81.6067V17.5199H82.2806C82.5704 17.5199 82.7736 17.4536 82.8888 17.3213C83.004 17.1889 83.0616 16.994 83.0616 16.7364V15.3906ZM84.4805 16.7364C84.4805 17.1226 84.4279 17.4463 84.3226 17.7074C84.2173 17.9684 84.068 18.1791 83.8754 18.3389C83.6822 18.499 83.4512 18.6138 83.1805 18.6837C82.9105 18.7535 82.6082 18.7885 82.2744 18.7885H80.1934V10.3984H81.6067V13.289H82.2447C82.5909 13.289 82.9012 13.3221 83.1774 13.3882C83.4543 13.4545 83.6884 13.5684 83.8816 13.7303C84.0742 13.892 84.2223 14.108 84.3257 14.3784C84.4285 14.6488 84.4805 14.9861 84.4805 15.3906V16.7364Z" fill="black"/>
<path d="M13.8648 18.9929L10.2057 14.2348C9.77895 13.6799 9.60275 13.0104 9.66425 12.3624C9.72594 11.7125 10.0253 11.0852 10.5493 10.6169C10.6221 10.5518 10.6992 10.4902 10.7801 10.4321C11.3447 10.0271 12.0216 9.86343 12.6747 9.92766C13.315 9.99065 13.9328 10.2716 14.4003 10.7578C14.8678 10.2716 15.4856 9.99065 16.126 9.9276C16.7791 9.86337 17.456 10.0271 18.0206 10.4321C18.1015 10.4902 18.1786 10.5518 18.2514 10.6169C18.7754 11.0852 19.0747 11.7125 19.1364 12.3624C19.1979 13.0105 19.0217 13.6799 18.595 14.2348L14.4003 19.6893L13.8648 18.9929ZM11.2767 13.4419L14.4003 17.5037L17.524 13.4419C17.7436 13.1563 17.8344 12.8127 17.8029 12.4808C17.7717 12.1508 17.6179 11.8307 17.3484 11.5899C17.308 11.5537 17.2676 11.5213 17.2278 11.4927C16.9394 11.2858 16.5925 11.2023 16.2573 11.2353C15.9238 11.2681 15.6018 11.4175 15.361 11.6767C15.3251 11.7153 15.2919 11.7548 15.2619 11.795L14.4004 12.9489L13.5387 11.795C13.5088 11.7549 13.4756 11.7153 13.4397 11.6767C13.1988 11.4176 12.8768 11.2681 12.5434 11.2353C12.2081 11.2024 11.8612 11.2858 11.5729 11.4927C11.533 11.5213 11.4927 11.5537 11.4523 11.5899C11.1828 11.8307 11.029 12.1508 10.9977 12.4808C10.9663 12.8127 11.0571 13.1563 11.2767 13.4419Z" fill="black"/>
<path d="M5.47098 23.3401H23.3269V5.82972H5.47098V23.3401ZM72.6709 23.3401H90.5269V5.82972H24.671V23.3401H72.6709ZM91.1989 24.6581H72.6709V43.4865H71.9989H23.327V24.6581H4.12695V4.51172H23.3269H24.671H91.8709V24.6581H91.1989ZM24.671 42.1685H71.3269V24.6581H24.671V42.1685Z" fill="black"/>
<path d="M33.5814 37.6635V34.0669H33.0031L33.0092 34.0726L31.614 37.6635H30.1055L31.7691 33.372L30.2189 29.2734H31.7333L33.0507 32.7982H33.5814V29.2734H34.9943V32.7982H35.5192L36.8427 29.2734H38.3511L36.7949 33.372L38.4703 37.6635H36.956L35.5609 34.0726V34.0669H34.9943V37.6635H33.5814Z" fill="black"/>
<path d="M43.3115 37.6635L43.3651 32.1474L41.6121 37.6635H39.9609L39.9788 29.2734H41.3917L41.3441 34.6572L42.9598 29.2734H44.7307V37.6635H43.3115Z" fill="black"/>
<path d="M49.5766 34.6904C49.5766 34.5764 49.5597 34.4697 49.5259 34.3704C49.4923 34.271 49.4425 34.1848 49.3769 34.1112C49.3112 34.0376 49.2279 33.9798 49.1265 33.9374C49.0252 33.8952 48.9069 33.8739 48.7719 33.8739H48.0145V36.3949H48.7777C48.9088 36.3949 49.0242 36.383 49.1236 36.3589C49.2227 36.335 49.3074 36.2909 49.3769 36.2266C49.4464 36.1623 49.498 36.074 49.532 35.9619C49.5656 35.8496 49.5806 35.7054 49.5766 35.5288V34.6904ZM49.4754 31.287C49.4754 31.1655 49.4612 31.0551 49.4336 30.9559C49.4057 30.8567 49.3621 30.7712 49.3024 30.6995C49.2429 30.6277 49.1651 30.5726 49.0699 30.534C48.9745 30.4954 48.8571 30.476 48.718 30.476H48.0145V32.6825H48.6168C48.7798 32.6825 48.9167 32.6651 49.0283 32.6302C49.1394 32.5951 49.2299 32.5409 49.2995 32.4673C49.3688 32.3938 49.4176 32.3018 49.4455 32.1917C49.4733 32.0813 49.485 31.9487 49.4814 31.7944L49.4754 31.287ZM50.9895 35.5067C50.9895 35.8929 50.945 36.222 50.8555 36.4941C50.766 36.7664 50.6299 36.9887 50.4471 37.1616C50.2642 37.3344 50.0358 37.4604 49.7614 37.5395C49.4871 37.6186 49.1632 37.6581 48.7896 37.6581H46.6016V29.2734H48.7598C49.1254 29.2734 49.4425 29.3167 49.7108 29.4031C49.9792 29.4896 50.2006 29.6146 50.3755 29.7782C50.5504 29.9418 50.6806 30.1414 50.766 30.3768C50.8516 30.6121 50.8943 30.8806 50.8943 31.182V31.6731C50.8943 32.1107 50.8286 32.4582 50.6975 32.7156C50.5664 32.973 50.3517 33.1423 50.0535 33.2231C50.3436 33.2966 50.5725 33.4613 50.7393 33.7168C50.9062 33.9724 50.9895 34.2968 50.9895 34.6904V35.5067Z" fill="black"/>
<path d="M56.0225 37.6635L56.076 32.1474L54.323 37.6635H52.6719L52.6898 29.2734H54.1026L54.0551 34.6572L55.6707 29.2734H57.4415V37.6635H56.0225Z" fill="black"/>
<path d="M60.5882 31.524L60.7314 37.6633H59.3184V29.2734H61.1487L62.3412 34.3702L63.5396 29.2734H65.3636V37.6633H63.9447L64.0878 31.6066L62.955 36.6153H61.733L60.5882 31.524Z" fill="black"/>
</svg>
