<svg width="664" height="130" viewBox="0 0 664 130" fill="none" xmlns="http://www.w3.org/2000/svg">
<path d="M128.22 40.174C127.021 45.382 124.376 49.226 120.284 51.706C116.192 54.1447 110.943 55.364 104.536 55.364C100.651 55.364 97.1787 54.8473 94.12 53.814C91.0613 52.7807 88.478 51.3133 86.37 49.412C84.262 47.4693 82.65 45.1133 81.534 42.344C80.418 39.5747 79.86 36.454 79.86 32.982V31.866C79.86 28.27 80.418 25.0667 81.534 22.256C82.65 19.4453 84.262 17.0893 86.37 15.188C88.478 13.2453 91.0613 11.778 94.12 10.786C97.1787 9.75266 100.651 9.236 104.536 9.236C107.843 9.236 110.839 9.56666 113.526 10.228C116.254 10.8893 118.61 11.902 120.594 13.266C122.619 14.5887 124.273 16.2627 125.554 18.288C126.835 20.3133 127.683 22.69 128.096 25.418H121.4C120.987 23.806 120.284 22.3387 119.292 21.016C118.341 19.652 117.143 18.4947 115.696 17.544C114.291 16.552 112.637 15.808 110.736 15.312C108.876 14.7747 106.809 14.506 104.536 14.506C101.519 14.506 98.8733 14.9607 96.6 15.87C94.3267 16.738 92.4253 17.9573 90.896 19.528C89.3667 21.0987 88.2093 23 87.424 25.232C86.68 27.4227 86.308 29.8407 86.308 32.486C86.308 35.0073 86.68 37.3427 87.424 39.492C88.2093 41.6413 89.3667 43.5013 90.896 45.072C92.4253 46.6427 94.3267 47.8827 96.6 48.792C98.8733 49.66 101.519 50.094 104.536 50.094C109.124 50.094 112.906 49.226 115.882 47.49C118.899 45.7127 120.821 43.274 121.648 40.174H128.22ZM140.486 16.056V54H134.41V10.6H175.95V54H169.874V16.056H140.486ZM232.716 32.238C232.716 36.2473 232.096 39.7193 230.856 42.654C229.616 45.5473 227.88 47.9447 225.648 49.846C223.416 51.7473 220.75 53.132 217.65 54C214.55 54.9093 211.14 55.364 207.42 55.364C203.7 55.364 200.29 54.8887 197.19 53.938C194.09 52.946 191.424 51.4993 189.192 49.598C186.96 47.6553 185.224 45.258 183.984 42.406C182.744 39.5127 182.124 36.144 182.124 32.3C182.124 28.3733 182.744 24.9427 183.984 22.008C185.224 19.032 186.96 16.552 189.192 14.568C191.424 12.584 194.09 11.096 197.19 10.104C200.29 9.112 203.7 8.616 207.42 8.616C211.14 8.616 214.55 9.13266 217.65 10.166C220.75 11.1993 223.416 12.708 225.648 14.692C227.88 16.676 229.616 19.1353 230.856 22.07C232.096 25.0047 232.716 28.394 232.716 32.238ZM188.572 32.424C188.572 35.276 189.006 37.7973 189.874 39.988C190.783 42.1373 192.044 43.956 193.656 45.444C195.309 46.8907 197.293 48.0067 199.608 48.792C201.964 49.536 204.568 49.908 207.42 49.908C210.272 49.908 212.855 49.536 215.17 48.792C217.526 48.048 219.51 46.9527 221.122 45.506C222.775 44.018 224.036 42.1993 224.904 40.05C225.813 37.8593 226.268 35.3173 226.268 32.424C226.268 29.572 225.813 27.03 224.904 24.798C224.036 22.5247 222.775 20.6027 221.122 19.032C219.51 17.42 217.526 16.2007 215.17 15.374C212.855 14.506 210.272 14.072 207.42 14.072C204.568 14.072 201.964 14.4853 199.608 15.312C197.293 16.0973 195.309 17.2753 193.656 18.846C192.044 20.3753 190.783 22.2767 189.874 24.55C189.006 26.8233 188.572 29.448 188.572 32.424ZM244.99 38.128V54H238.914V10.6H267.682C269.956 10.6 272.022 10.91 273.882 11.53C275.742 12.1087 277.313 12.9973 278.594 14.196C279.917 15.3533 280.93 16.8207 281.632 18.598C282.376 20.3753 282.748 22.442 282.748 24.798C282.666 27.0713 282.252 29.0553 281.508 30.75C280.764 32.4447 279.731 33.8293 278.408 34.904C277.127 35.9787 275.577 36.7847 273.758 37.322C271.94 37.8593 269.914 38.128 267.682 38.128H244.99ZM244.99 32.672H267.434C270.121 32.672 272.27 31.9693 273.882 30.564C275.494 29.1587 276.3 27.1127 276.3 24.426C276.3 21.7807 275.494 19.7347 273.882 18.288C272.27 16.8 270.121 16.056 267.434 16.056H244.99V32.672ZM310.385 16.056V54H304.309V16.056H285.027V10.6H329.729V16.056H310.385Z" fill="black"/>
<path d="M120.888 106.856L114.378 120H107.62L129.01 76.6H139.302L160.692 120H153.872L147.424 106.856H120.888ZM123.554 101.4H144.758L134.156 79.948L123.554 101.4ZM181.025 79.886L170.299 120H163.851L175.445 76.6H186.543L194.479 115.722L202.353 76.6H213.079L224.673 120H218.411L207.809 80.32L199.811 120H189.147L181.025 79.886ZM276.601 106.794C276.601 109.233 276.27 111.299 275.609 112.994C274.948 114.689 273.914 116.053 272.509 117.086C271.145 118.119 269.388 118.863 267.239 119.318C265.131 119.773 262.589 120 259.613 120H231.465V76.6H272.943V82.056H237.541V93.712H259.675C262.816 93.712 265.462 93.9393 267.611 94.394C269.76 94.8073 271.496 95.5307 272.819 96.564C274.183 97.5973 275.154 98.9613 275.733 100.656C276.312 102.309 276.601 104.355 276.601 106.794ZM237.541 114.544H259.117C260.729 114.544 262.196 114.461 263.519 114.296C264.883 114.089 266.04 113.717 266.991 113.18C267.983 112.643 268.727 111.857 269.223 110.824C269.76 109.791 270.029 108.447 270.029 106.794C270.029 105.099 269.76 103.756 269.223 102.764C268.727 101.772 268.004 101.007 267.053 100.47C266.102 99.9327 264.945 99.5813 263.581 99.416C262.258 99.2507 260.791 99.168 259.179 99.168H237.541V114.544ZM294.234 106.856L287.724 120H280.966L302.356 76.6H312.648L334.038 120H327.218L320.77 106.856H294.234ZM296.9 101.4H318.104L307.502 79.948L296.9 101.4ZM384.937 106.174C383.738 111.382 381.093 115.226 377.001 117.706C372.909 120.145 367.659 121.364 361.253 121.364C357.367 121.364 353.895 120.847 350.837 119.814C347.778 118.781 345.195 117.313 343.087 115.412C340.979 113.469 339.367 111.113 338.251 108.344C337.135 105.575 336.577 102.454 336.577 98.982V97.866C336.577 94.27 337.135 91.0667 338.251 88.256C339.367 85.4453 340.979 83.0893 343.087 81.188C345.195 79.2453 347.778 77.778 350.837 76.786C353.895 75.7527 357.367 75.236 361.253 75.236C364.559 75.236 367.556 75.5667 370.243 76.228C372.971 76.8893 375.327 77.902 377.311 79.266C379.336 80.5887 380.989 82.2627 382.271 84.288C383.552 86.3133 384.399 88.69 384.813 91.418H378.117C377.703 89.806 377.001 88.3387 376.009 87.016C375.058 85.652 373.859 84.4947 372.413 83.544C371.007 82.552 369.354 81.808 367.453 81.312C365.593 80.7747 363.526 80.506 361.253 80.506C358.235 80.506 355.59 80.9607 353.317 81.87C351.043 82.738 349.142 83.9573 347.613 85.528C346.083 87.0987 344.926 89 344.141 91.232C343.397 93.4227 343.025 95.8407 343.025 98.486C343.025 101.007 343.397 103.343 344.141 105.492C344.926 107.641 346.083 109.501 347.613 111.072C349.142 112.643 351.043 113.883 353.317 114.792C355.59 115.66 358.235 116.094 361.253 116.094C365.841 116.094 369.623 115.226 372.599 113.49C375.616 111.713 377.538 109.274 378.365 106.174H384.937ZM400.675 106.856L394.165 120H387.407L408.797 76.6H419.089L440.479 120H433.659L427.211 106.856H400.675ZM403.341 101.4H424.545L413.943 79.948L403.341 101.4ZM449.094 120V128.556H443.018V114.544H444.258C446.366 114.42 448.102 113.552 449.466 111.94C450.872 110.287 452.008 108.241 452.876 105.802C453.744 103.322 454.406 100.615 454.86 97.68C455.315 94.704 455.625 91.8313 455.79 89.062C455.997 86.2927 456.1 83.792 456.1 81.56C456.142 79.2867 456.204 77.6333 456.286 76.6H490.758V114.544H496.896V128.556H490.82V120H449.094ZM462.176 82.056C462.052 84.536 461.908 87.264 461.742 90.24C461.577 93.1747 461.246 96.13 460.75 99.106C460.254 102.041 459.552 104.851 458.642 107.538C457.774 110.225 456.555 112.56 454.984 114.544H484.682V82.056H462.176ZM551.856 98.238C551.856 102.247 551.236 105.719 549.996 108.654C548.756 111.547 547.02 113.945 544.788 115.846C542.556 117.747 539.89 119.132 536.79 120C533.69 120.909 530.28 121.364 526.56 121.364C522.84 121.364 519.43 120.889 516.33 119.938C513.23 118.946 510.564 117.499 508.332 115.598C506.1 113.655 504.364 111.258 503.124 108.406C501.884 105.513 501.264 102.144 501.264 98.3C501.264 94.3733 501.884 90.9427 503.124 88.008C504.364 85.032 506.1 82.552 508.332 80.568C510.564 78.584 513.23 77.096 516.33 76.104C519.43 75.112 522.84 74.616 526.56 74.616C530.28 74.616 533.69 75.1327 536.79 76.166C539.89 77.1993 542.556 78.708 544.788 80.692C547.02 82.676 548.756 85.1353 549.996 88.07C551.236 91.0047 551.856 94.394 551.856 98.238ZM507.712 98.424C507.712 101.276 508.146 103.797 509.014 105.988C509.924 108.137 511.184 109.956 512.796 111.444C514.45 112.891 516.434 114.007 518.748 114.792C521.104 115.536 523.708 115.908 526.56 115.908C529.412 115.908 531.996 115.536 534.31 114.792C536.666 114.048 538.65 112.953 540.262 111.506C541.916 110.018 543.176 108.199 544.044 106.05C544.954 103.859 545.408 101.317 545.408 98.424C545.408 95.572 544.954 93.03 544.044 90.798C543.176 88.5247 541.916 86.6027 540.262 85.032C538.65 83.42 536.666 82.2007 534.31 81.374C531.996 80.506 529.412 80.072 526.56 80.072C523.708 80.072 521.104 80.4853 518.748 81.312C516.434 82.0973 514.45 83.2753 512.796 84.846C511.184 86.3753 509.924 88.2767 509.014 90.55C508.146 92.8233 507.712 95.448 507.712 98.424ZM564.131 104.128V120H558.055V76.6H586.823C589.096 76.6 591.163 76.91 593.023 77.53C594.883 78.1087 596.454 78.9973 597.735 80.196C599.058 81.3533 600.07 82.8207 600.773 84.598C601.517 86.3753 601.889 88.442 601.889 90.798C601.806 93.0713 601.393 95.0553 600.649 96.75C599.905 98.4447 598.872 99.8293 597.549 100.904C596.268 101.979 594.718 102.785 592.899 103.322C591.08 103.859 589.055 104.128 586.823 104.128H564.131ZM564.131 98.672H586.575C589.262 98.672 591.411 97.9693 593.023 96.564C594.635 95.1587 595.441 93.1127 595.441 90.426C595.441 87.7807 594.635 85.7347 593.023 84.288C591.411 82.8 589.262 82.056 586.575 82.056H564.131V98.672ZM646.018 80.94L618.18 120H607.764V76.6H613.84V115.598L641.678 76.6H652.094V120H646.018V80.94Z" fill="black"/>
<path d="M496.957 13.3828H498.48V21H496.957V17.8008H493.25V21H491.727V13.3828H493.25V16.4297H496.957V13.3828ZM509.632 17.6738C509.81 18.9941 510.648 19.832 511.993 19.832C513.111 19.832 513.821 19.4004 514.253 18.8418L515.294 19.7559C514.659 20.5176 513.593 21.127 511.993 21.127C509.48 21.127 508.109 19.4512 508.109 17.1914C508.109 14.8555 509.632 13.2559 511.866 13.2559C514.101 13.2559 515.548 14.8047 515.548 17.1914C515.548 17.3691 515.548 17.4961 515.497 17.6738H509.632ZM511.866 14.5254C510.673 14.5254 509.886 15.2871 509.657 16.5059H513.999C513.796 15.2617 513.009 14.5254 511.866 14.5254ZM529.366 17.0645C530.229 17.3438 530.686 17.9785 530.686 18.8418C530.686 20.1875 529.391 21.127 527.461 21.127C525.887 21.127 524.694 20.3652 524.186 19.0957L525.455 18.5371C525.862 19.4004 526.573 19.8574 527.487 19.8574C528.502 19.8574 529.137 19.4512 529.137 18.7656C529.137 18.1309 528.579 17.7246 527.639 17.7246H526.674V16.5312H527.588C528.401 16.5312 528.858 16.1504 528.858 15.541C528.858 14.8809 528.35 14.5 527.512 14.5C526.649 14.5 526.014 14.9316 525.684 15.7188L524.44 15.0586C524.973 13.9414 526.116 13.2559 527.563 13.2559C529.239 13.2559 530.33 14.1191 530.356 15.4648C530.356 16.2012 530.026 16.7344 529.366 17.0645ZM546.687 13.3828V21H545.164V14.7285H542.015V17.4707C542.015 20.2383 541.431 21.0508 539.959 21.0508C539.679 21.0508 539.425 21.0254 539.248 21V19.6035H539.654C540.314 19.6035 540.517 19.4258 540.517 17.3184V13.3828H546.687ZM563.069 19.6797H563.348V21C563.272 21.0254 563.069 21.0508 562.815 21.0508C561.876 21.0508 561.444 20.7207 561.343 19.832C560.809 20.6191 559.794 21.127 558.677 21.127C557.179 21.127 556.188 20.2129 556.188 18.8926C556.188 17.0137 557.991 16.6074 559.464 16.3789C560.606 16.2266 561.165 16.125 561.165 15.541C561.165 14.9316 560.53 14.5254 559.565 14.5254C558.702 14.5254 557.889 14.9062 557.28 15.541L556.341 14.5508C557.229 13.7129 558.321 13.2559 559.641 13.2559C561.47 13.2559 562.587 14.1953 562.587 15.7695V19.1973C562.587 19.5273 562.739 19.6797 563.069 19.6797ZM558.93 19.8828C560.098 19.8828 561.114 19.0703 561.114 18.1055V17.1152C560.835 17.293 560.378 17.3691 559.641 17.4961C558.677 17.6484 557.686 17.8008 557.686 18.791C557.686 19.502 558.143 19.8828 558.93 19.8828ZM581.838 13.3828V21H580.365V14.9824L578.156 21H576.531L574.322 14.9824V21H572.85V13.3828H575.186L577.369 19.2988L579.527 13.3828H581.838ZM597.255 13.3828H598.779V21H597.255V17.8008H593.548V21H592.025V13.3828H593.548V16.4297H597.255V13.3828ZM609.016 12.3164V10.793H610.692V12.3164H609.016ZM609.092 21V13.3828H610.616V21H609.092ZM624.179 21.127C621.92 21.127 620.371 19.5273 620.371 17.1914C620.371 14.8555 621.92 13.2559 624.179 13.2559C625.83 13.2559 627.15 14.0938 627.582 15.541L626.134 15.998C625.804 15.1094 625.119 14.5508 624.179 14.5508C622.783 14.5508 621.92 15.5918 621.92 17.1914C621.92 18.791 622.783 19.832 624.179 19.832C625.093 19.832 625.804 19.2734 626.134 18.3848L627.582 18.8418C627.15 20.2891 625.804 21.127 624.179 21.127ZM642.923 13.3828V14.7285H640.18V21H638.657V14.7285H635.915V13.3828H642.923ZM655.775 16.252C657.477 16.252 658.518 17.166 658.518 18.6133C658.518 20.0605 657.451 21 655.775 21H652.17V13.3828H653.693V16.252H655.775ZM655.623 19.7305C656.512 19.7305 656.969 19.3242 656.969 18.6133C656.969 17.9023 656.512 17.4961 655.623 17.4961H653.693V19.7305H655.623Z" fill="#4B4B4B"/>
<path d="M16.2207 112.09C17.0586 112.395 17.5156 113.004 17.5156 113.918C17.5156 115.289 16.5254 116 14.875 116H11.1934V108.383H14.5957C16.2715 108.383 17.3125 108.992 17.3125 110.363C17.3125 111.201 16.9062 111.785 16.2207 112.09ZM12.666 109.602V111.531H14.5957C15.459 111.531 15.8145 111.252 15.8145 110.541C15.8145 109.932 15.3828 109.602 14.6719 109.602H12.666ZM14.7227 114.781C15.5352 114.781 15.9922 114.4 15.9922 113.74C15.9922 113.08 15.4844 112.674 14.6211 112.674H12.666V114.781H14.7227ZM30.4445 116.127C28.1086 116.127 26.5852 114.578 26.5852 112.191C26.5852 109.855 28.1594 108.256 30.4445 108.256C32.7805 108.256 34.3039 109.805 34.3039 112.191C34.3039 114.527 32.7297 116.127 30.4445 116.127ZM30.4445 114.832C31.841 114.832 32.7551 113.791 32.7551 112.191C32.7551 110.592 31.841 109.551 30.4445 109.551C29.048 109.551 28.134 110.592 28.134 112.191C28.134 113.791 29.048 114.832 30.4445 114.832ZM50.3051 108.383V116H48.7816V109.729H45.6332V112.471C45.6332 115.238 45.0492 116.051 43.5766 116.051C43.2973 116.051 43.0434 116.025 42.8656 116V114.604H43.2719C43.932 114.604 44.1352 114.426 44.1352 112.318V108.383H50.3051ZM66.3316 108.383V116H64.8082V113.131H63.1324L61.2789 116H59.5777L61.609 112.928C60.6441 112.572 60.0855 111.836 60.0855 110.82C60.0855 109.348 61.1773 108.383 62.9039 108.383H66.3316ZM63.0563 111.988H64.8082V109.652H63.0563C62.1422 109.652 61.609 110.084 61.609 110.795C61.609 111.557 62.1422 111.988 63.0563 111.988Z" fill="#4B4B4B"/>
<path d="M31 35.0212L34.4462 31.5879H41.3347L31 21.2959L20.6653 31.5879H27.5578L31 35.0212Z" fill="black"/>
<path d="M0 11V31.5879L10.3347 41.8838H31L20.6653 31.5879L0 11Z" fill="black"/>
<path d="M41.3347 31.5879L31 41.8838H51.6653L62 31.5879V11L41.3347 31.5879Z" fill="black"/>
<path d="M31.0009 41.8861L20.6676 52.1807L31.0009 62.4753L41.3343 52.1807L31.0009 41.8861Z" fill="black"/>
</svg>
