<svg width="31" height="30" viewBox="0 0 31 30" fill="none" xmlns="http://www.w3.org/2000/svg">
  <rect x="1" y="7" width="22" height="22" fill="white" stroke="#525252" stroke-width="2"/>
  <rect x="4" y="4" width="22" height="22" fill="white" stroke="#525252" stroke-width="2"/>
  <rect width="24" height="24" transform="translate(6)" fill="white"/>
  <path d="M17.7894 8.63155L17.4069 8.95362L17.7894 9.40778L18.1718 8.95362L17.7894 8.63155ZM17.7894 16.8421L17.4243 17.1837L17.7894 17.5739L18.1545 17.1837L17.7894 16.8421ZM15.7949 8.07892C16.5732 8.07892 17.1277 8.622 17.4069 8.95362L18.1718 8.30948C17.8601 7.93935 17.047 7.07892 15.7949 7.07892V8.07892ZM14.0789 9.68418C14.0789 9.22244 14.2958 8.82712 14.6328 8.53648C14.9762 8.24026 15.4163 8.07892 15.7949 8.07892V7.07892C15.1584 7.07892 14.4904 7.33863 13.9796 7.77925C13.4623 8.22546 13.0789 8.88277 13.0789 9.68418H14.0789ZM18.1545 16.5005C14.6403 12.7447 14.0789 10.5683 14.0789 9.68418H13.0789C13.0789 10.9471 13.847 13.3605 17.4243 17.1837L18.1545 16.5005ZM18.1545 17.1837C21.7317 13.3605 22.4999 10.9471 22.4999 9.68418H21.4999C21.4999 10.5683 20.9384 12.7447 17.4243 16.5005L18.1545 17.1837ZM22.4999 9.68418C22.4999 8.88277 22.1164 8.22546 21.5991 7.77925C21.0883 7.33863 20.4204 7.07892 19.7838 7.07892V8.07892C20.1625 8.07892 20.6026 8.24026 20.946 8.53648C21.2829 8.82712 21.4999 9.22244 21.4999 9.68418H22.4999ZM19.7838 7.07892C18.5318 7.07892 17.7186 7.93935 17.4069 8.30948L18.1718 8.95362C18.4511 8.622 19.0056 8.07892 19.7838 8.07892V7.07892Z" fill="#525252"/>
  <rect x="6.5" y="0.5" width="23" height="23" fill="white" stroke="#525252"/>
  <path d="M17.7911 8.63076L17.4086 8.95282L17.7911 9.40699L18.1735 8.95282L17.7911 8.63076ZM17.7911 16.8413L17.426 17.1829L17.7911 17.5731L18.1562 17.1829L17.7911 16.8413ZM15.7966 8.07812C16.5749 8.07812 17.1294 8.6212 17.4086 8.95282L18.1735 8.30869C17.8619 7.93855 17.0487 7.07812 15.7966 7.07812V8.07812ZM14.0806 9.68339C14.0806 9.22164 14.2975 8.82632 14.6345 8.53568C14.9779 8.23946 15.418 8.07812 15.7966 8.07812V7.07812C15.1601 7.07812 14.4922 7.33784 13.9813 7.77846C13.464 8.22466 13.0806 8.88198 13.0806 9.68339H14.0806ZM18.1562 16.4997C14.642 12.7439 14.0806 10.5675 14.0806 9.68339H13.0806C13.0806 10.9463 13.8487 13.3597 17.426 17.1829L18.1562 16.4997ZM18.1562 17.1829C21.7334 13.3597 22.5016 10.9463 22.5016 9.68339H21.5016C21.5016 10.5675 20.9402 12.7439 17.426 16.4997L18.1562 17.1829ZM22.5016 9.68339C22.5016 8.88198 22.1181 8.22466 21.6009 7.77846C21.09 7.33784 20.4221 7.07812 19.7856 7.07812V8.07812C20.1642 8.07812 20.6043 8.23946 20.9477 8.53568C21.2846 8.82632 21.5016 9.22164 21.5016 9.68339H22.5016ZM19.7856 7.07812C18.5335 7.07812 17.7203 7.93855 17.4086 8.30869L18.1735 8.95282C18.4528 8.6212 19.0073 8.07812 19.7856 8.07812V7.07812Z" fill="#525252"/>
  <rect width="24" height="24" transform="translate(6)" fill="white"/>
  <path fill-rule="evenodd" clip-rule="evenodd" d="M28.2 1.8H7.8V22.2H28.2V1.8ZM6 0V24H30V0H6Z" fill="#525252"/>
  <path fill-rule="evenodd" clip-rule="evenodd" d="M23.2912 11.3052C24.382 9.93354 24.195 8.02215 22.86 6.86343C22.1328 6.2296 21.1563 5.92259 20.1745 6.01667C19.3557 6.09474 18.5923 6.4516 18.0235 7.01149C18.015 7.01986 18.0065 7.02828 17.9981 7.03674C17.9895 7.02816 17.981 7.01962 17.9723 7.01112C17.4037 6.45144 16.6454 6.09472 15.8216 6.01667C14.8451 5.92259 13.8634 6.2296 13.1361 6.86343C11.8064 8.02215 11.6194 9.93354 12.705 11.3052L17.9981 17.9934L17.9929 18H18.0033L17.9981 17.9934L23.2912 11.3052ZM17.9981 15.0929L21.8823 10.1848C22.363 9.58047 22.2995 8.76036 21.6801 8.22278L21.6774 8.22036C21.3334 7.92061 20.8503 7.76016 20.3462 7.80846C19.9276 7.84838 19.5454 8.03356 19.2742 8.30617L17.9981 9.58907L16.7219 8.30617C16.4493 8.03207 16.0729 7.84854 15.6519 7.80865L15.649 7.80838C15.1501 7.76031 14.6622 7.92107 14.3188 8.22036C13.7017 8.75806 13.637 9.58232 14.1164 10.1881L17.9981 15.0929Z" fill="#525252"/>
</svg>

