<svg width="28" height="27" viewBox="0 0 28 27" fill="none" xmlns="http://www.w3.org/2000/svg">
<rect x="1" y="4" width="22" height="22" fill="white" stroke="#525252" stroke-width="2"/>
<rect width="24" height="24" transform="translate(3)" fill="white"/>
<path d="M14.7894 8.63155L14.4069 8.95362L14.7894 9.40778L15.1718 8.95362L14.7894 8.63155ZM14.7894 16.8421L14.4243 17.1837L14.7894 17.5739L15.1545 17.1837L14.7894 16.8421ZM12.7949 8.07892C13.5732 8.07892 14.1277 8.622 14.4069 8.95362L15.1718 8.30948C14.8601 7.93935 14.047 7.07892 12.7949 7.07892V8.07892ZM11.0789 9.68418C11.0789 9.22244 11.2958 8.82712 11.6328 8.53648C11.9762 8.24026 12.4163 8.07892 12.7949 8.07892V7.07892C12.1584 7.07892 11.4904 7.33863 10.9796 7.77925C10.4623 8.22546 10.0789 8.88277 10.0789 9.68418H11.0789ZM15.1545 16.5005C11.6403 12.7447 11.0789 10.5683 11.0789 9.68418H10.0789C10.0789 10.9471 10.847 13.3605 14.4243 17.1837L15.1545 16.5005ZM15.1545 17.1837C18.7317 13.3605 19.4999 10.9471 19.4999 9.68418H18.4999C18.4999 10.5683 17.9384 12.7447 14.4243 16.5005L15.1545 17.1837ZM19.4999 9.68418C19.4999 8.88277 19.1164 8.22546 18.5991 7.77925C18.0883 7.33863 17.4204 7.07892 16.7838 7.07892V8.07892C17.1625 8.07892 17.6026 8.24026 17.946 8.53648C18.2829 8.82712 18.4999 9.22244 18.4999 9.68418H19.4999ZM16.7838 7.07892C15.5318 7.07892 14.7186 7.93935 14.4069 8.30948L15.1718 8.95362C15.4511 8.622 16.0056 8.07892 16.7838 8.07892V7.07892Z" fill="#525252"/>
<rect x="3.5" y="0.5" width="23" height="23" fill="white" stroke="#525252"/>
<path d="M14.7911 8.63076L14.4086 8.95282L14.7911 9.40699L15.1735 8.95282L14.7911 8.63076ZM14.7911 16.8413L14.426 17.1829L14.7911 17.5731L15.1562 17.1829L14.7911 16.8413ZM12.7966 8.07812C13.5749 8.07812 14.1294 8.6212 14.4086 8.95282L15.1735 8.30869C14.8619 7.93855 14.0487 7.07812 12.7966 7.07812V8.07812ZM11.0806 9.68339C11.0806 9.22164 11.2975 8.82632 11.6345 8.53568C11.9779 8.23946 12.418 8.07812 12.7966 8.07812V7.07812C12.1601 7.07812 11.4922 7.33784 10.9813 7.77846C10.464 8.22466 10.0806 8.88198 10.0806 9.68339H11.0806ZM15.1562 16.4997C11.642 12.7439 11.0806 10.5675 11.0806 9.68339H10.0806C10.0806 10.9463 10.8487 13.3597 14.426 17.1829L15.1562 16.4997ZM15.1562 17.1829C18.7334 13.3597 19.5016 10.9463 19.5016 9.68339H18.5016C18.5016 10.5675 17.9402 12.7439 14.426 16.4997L15.1562 17.1829ZM19.5016 9.68339C19.5016 8.88198 19.1181 8.22466 18.6009 7.77846C18.09 7.33784 17.4221 7.07812 16.7856 7.07812V8.07812C17.1642 8.07812 17.6043 8.23946 17.9477 8.53568C18.2846 8.82632 18.5016 9.22164 18.5016 9.68339H19.5016ZM16.7856 7.07812C15.5335 7.07812 14.7203 7.93855 14.4086 8.30869L15.1735 8.95282C15.4528 8.6212 16.0073 8.07812 16.7856 8.07812V7.07812Z" fill="#525252"/>
<rect width="24" height="24" transform="translate(3)" fill="white"/>
<path fill-rule="evenodd" clip-rule="evenodd" d="M25.2 1.8H4.8V22.2H25.2V1.8ZM3 0V24H27V0H3Z" fill="#525252"/>
<path fill-rule="evenodd" clip-rule="evenodd" d="M20.2912 11.3052C21.382 9.93354 21.195 8.02215 19.86 6.86343C19.1328 6.2296 18.1563 5.92259 17.1745 6.01667C16.3557 6.09474 15.5923 6.4516 15.0235 7.01149C15.015 7.01986 15.0065 7.02828 14.9981 7.03674C14.9895 7.02816 14.981 7.01962 14.9723 7.01112C14.4037 6.45144 13.6454 6.09472 12.8216 6.01667C11.8451 5.92259 10.8634 6.2296 10.1361 6.86343C8.80638 8.02215 8.61937 9.93354 9.705 11.3052L14.9981 17.9934L14.9929 18H15.0033L14.9981 17.9934L20.2912 11.3052ZM14.9981 15.0929L18.8823 10.1848C19.363 9.58047 19.2995 8.76036 18.6801 8.22278L18.6774 8.22036C18.3334 7.92061 17.8503 7.76016 17.3462 7.80846C16.9276 7.84838 16.5454 8.03356 16.2742 8.30617L14.9981 9.58907L13.7219 8.30617C13.4493 8.03207 13.0729 7.84854 12.6519 7.80865L12.649 7.80838C12.1501 7.76031 11.6622 7.92107 11.3188 8.22036C10.7017 8.75806 10.637 9.58232 11.1164 10.1881L14.9981 15.0929Z" fill="#525252"/>
</svg>
