<svg width="15" height="15" viewBox="0 0 15 15" fill="none" xmlns="http://www.w3.org/2000/svg">
<path d="M9.36133 7.66675C9.36133 8.19718 9.15062 8.70589 8.77554 9.08096C8.40047 9.45603 7.89176 9.66675 7.36133 9.66675C6.8309 9.66675 6.32219 9.45603 5.94711 9.08096C5.57204 8.70589 5.36133 8.19718 5.36133 7.66675C5.36133 7.13632 5.57204 6.62761 5.94711 6.25253C6.32219 5.87746 6.8309 5.66675 7.36133 5.66675C7.89176 5.66675 8.40047 5.87746 8.77554 6.25253C9.15062 6.62761 9.36133 7.13632 9.36133 7.66675Z" stroke="#959595" stroke-linecap="round" stroke-linejoin="round"/>
<path d="M1 7.66667C1.84933 4.962 4.37667 3 7.36133 3C10.3467 3 12.8733 4.962 13.7227 7.66667C12.8733 10.3713 10.3467 12.3333 7.36133 12.3333C4.37667 12.3333 1.84933 10.3713 1 7.66667Z" stroke="#959595" stroke-linecap="round" stroke-linejoin="round"/>
</svg>
