<svg width="34" height="33" viewBox="0 0 34 33" fill="none" xmlns="http://www.w3.org/2000/svg">
  <rect x="1" y="10" width="22" height="22" fill="white" stroke="#525252" stroke-width="2"/>
  <rect x="4" y="7" width="22" height="22" fill="white" stroke="#525252" stroke-width="2"/>
  <rect x="7" y="4" width="22" height="22" fill="white" stroke="#525252" stroke-width="2"/>
  <rect width="24" height="24" transform="translate(9)" fill="white"/>
  <path d="M20.7894 8.63155L20.4069 8.95362L20.7894 9.40778L21.1718 8.95362L20.7894 8.63155ZM20.7894 16.8421L20.4243 17.1837L20.7894 17.5739L21.1545 17.1837L20.7894 16.8421ZM18.7949 8.07892C19.5732 8.07892 20.1277 8.622 20.4069 8.95362L21.1718 8.30948C20.8601 7.93935 20.047 7.07892 18.7949 7.07892V8.07892ZM17.0789 9.68418C17.0789 9.22244 17.2958 8.82712 17.6328 8.53648C17.9762 8.24026 18.4163 8.07892 18.7949 8.07892V7.07892C18.1584 7.07892 17.4904 7.33863 16.9796 7.77925C16.4623 8.22546 16.0789 8.88277 16.0789 9.68418H17.0789ZM21.1545 16.5005C17.6403 12.7447 17.0789 10.5683 17.0789 9.68418H16.0789C16.0789 10.9471 16.847 13.3605 20.4243 17.1837L21.1545 16.5005ZM21.1545 17.1837C24.7317 13.3605 25.4999 10.9471 25.4999 9.68418H24.4999C24.4999 10.5683 23.9384 12.7447 20.4243 16.5005L21.1545 17.1837ZM25.4999 9.68418C25.4999 8.88277 25.1164 8.22546 24.5991 7.77925C24.0883 7.33863 23.4204 7.07892 22.7838 7.07892V8.07892C23.1625 8.07892 23.6026 8.24026 23.946 8.53648C24.2829 8.82712 24.4999 9.22244 24.4999 9.68418H25.4999ZM22.7838 7.07892C21.5318 7.07892 20.7186 7.93935 20.4069 8.30948L21.1718 8.95362C21.4511 8.622 22.0056 8.07892 22.7838 8.07892V7.07892Z" fill="#525252"/>
  <rect x="9.5" y="0.5" width="23" height="23" fill="white" stroke="#525252"/>
  <path d="M20.7911 8.63076L20.4086 8.95282L20.7911 9.40699L21.1735 8.95282L20.7911 8.63076ZM20.7911 16.8413L20.426 17.1829L20.7911 17.5731L21.1562 17.1829L20.7911 16.8413ZM18.7966 8.07812C19.5749 8.07812 20.1294 8.6212 20.4086 8.95282L21.1735 8.30869C20.8619 7.93855 20.0487 7.07812 18.7966 7.07812V8.07812ZM17.0806 9.68339C17.0806 9.22164 17.2975 8.82632 17.6345 8.53568C17.9779 8.23946 18.418 8.07812 18.7966 8.07812V7.07812C18.1601 7.07812 17.4922 7.33784 16.9813 7.77846C16.464 8.22466 16.0806 8.88198 16.0806 9.68339H17.0806ZM21.1562 16.4997C17.642 12.7439 17.0806 10.5675 17.0806 9.68339H16.0806C16.0806 10.9463 16.8487 13.3597 20.426 17.1829L21.1562 16.4997ZM21.1562 17.1829C24.7334 13.3597 25.5016 10.9463 25.5016 9.68339H24.5016C24.5016 10.5675 23.9402 12.7439 20.426 16.4997L21.1562 17.1829ZM25.5016 9.68339C25.5016 8.88198 25.1181 8.22466 24.6009 7.77846C24.09 7.33784 23.4221 7.07812 22.7856 7.07812V8.07812C23.1642 8.07812 23.6043 8.23946 23.9477 8.53568C24.2846 8.82632 24.5016 9.22164 24.5016 9.68339H25.5016ZM22.7856 7.07812C21.5335 7.07812 20.7203 7.93855 20.4086 8.30869L21.1735 8.95282C21.4528 8.6212 22.0073 8.07812 22.7856 8.07812V7.07812Z" fill="#525252"/>
  <rect width="24" height="24" transform="translate(9)" fill="white"/>
  <path fill-rule="evenodd" clip-rule="evenodd" d="M31.2 1.8H10.8V22.2H31.2V1.8ZM9 0V24H33V0H9Z" fill="#525252"/>
  <path fill-rule="evenodd" clip-rule="evenodd" d="M26.2912 11.3052C27.382 9.93354 27.195 8.02215 25.86 6.86343C25.1328 6.2296 24.1563 5.92259 23.1745 6.01667C22.3557 6.09474 21.5923 6.4516 21.0235 7.01149C21.015 7.01986 21.0065 7.02828 20.9981 7.03674C20.9895 7.02816 20.981 7.01962 20.9723 7.01112C20.4037 6.45144 19.6454 6.09472 18.8216 6.01667C17.8451 5.92259 16.8634 6.2296 16.1361 6.86343C14.8064 8.02215 14.6194 9.93354 15.705 11.3052L20.9981 17.9934L20.9929 18H21.0033L20.9981 17.9934L26.2912 11.3052ZM20.9981 15.0929L24.8823 10.1848C25.363 9.58047 25.2995 8.76036 24.6801 8.22278L24.6774 8.22036C24.3334 7.92061 23.8503 7.76016 23.3462 7.80846C22.9276 7.84838 22.5454 8.03356 22.2742 8.30617L20.9981 9.58907L19.7219 8.30617C19.4493 8.03207 19.0729 7.84854 18.6519 7.80865L18.649 7.80838C18.1501 7.76031 17.6622 7.92107 17.3188 8.22036C16.7017 8.75806 16.637 9.58232 17.1164 10.1881L20.9981 15.0929Z" fill="#525252"/>
</svg>
