<svg width="228" height="228" viewBox="0 0 228 228" fill="none" xmlns="http://www.w3.org/2000/svg">
<g clip-path="url(#clip0_14017_60899)">
  <path d="M228 0H0V228H228V0Z" fill="#D9D9D9"/>
  <path fill-rule="evenodd" clip-rule="evenodd" d="M173.967 106.125C186.329 90.5801 184.21 68.9176 169.08 55.7855C160.839 48.6021 149.771 45.1227 138.645 46.189C129.364 47.0737 120.712 51.1181 114.266 57.4636C114.17 57.5585 114.074 57.6538 113.978 57.7497C113.881 57.6524 113.784 57.5557 113.686 57.4594C107.242 51.1164 98.6482 47.0735 89.3118 46.189C78.2443 45.1227 67.118 48.6021 58.8763 55.7855C43.8056 68.9176 41.6862 90.5801 53.99 106.125L113.978 181.926L113.919 182H114.037L113.978 181.926L173.967 106.125ZM113.978 149.053L158 93.4278C163.447 86.5787 162.728 77.2841 155.708 71.1915L155.677 71.1641C151.779 67.7669 146.303 65.9485 140.591 66.4959C135.846 66.9483 131.515 69.0471 128.441 72.1366L113.978 86.6762L99.5152 72.1366C96.4251 69.0301 92.1592 66.9501 87.3878 66.498L87.3555 66.495C81.701 65.9502 76.1716 67.7721 72.28 71.1641C65.2864 77.258 64.5523 86.5996 69.986 93.4649L113.978 149.053Z" fill="white"/>
</g>
<defs>
  <clipPath id="clip0_14017_60899">
    <rect width="228" height="228" fill="white"/>
  </clipPath>
</defs>
</svg>
