<svg width="36" height="36" viewBox="0 0 36 36" fill="none" xmlns="http://www.w3.org/2000/svg">
  <rect x="1" y="13" width="22" height="22" stroke="#525252" stroke-width="2"/>
  <rect x="4" y="10" width="22" height="22" fill="white" stroke="#525252" stroke-width="2"/>
  <rect x="7" y="7" width="22" height="22" fill="white" stroke="#525252" stroke-width="2"/>
  <rect x="10" y="4" width="22" height="22" fill="white" stroke="#525252" stroke-width="2"/>
  <rect width="24" height="24" transform="translate(12)" fill="white"/>
  <path d="M23.7894 8.63155L23.4069 8.95362L23.7894 9.40778L24.1718 8.95362L23.7894 8.63155ZM23.7894 16.8421L23.4243 17.1837L23.7894 17.5739L24.1545 17.1837L23.7894 16.8421ZM21.7949 8.07892C22.5732 8.07892 23.1277 8.622 23.4069 8.95362L24.1718 8.30948C23.8601 7.93935 23.047 7.07892 21.7949 7.07892V8.07892ZM20.0789 9.68418C20.0789 9.22244 20.2958 8.82712 20.6328 8.53648C20.9762 8.24026 21.4163 8.07892 21.7949 8.07892V7.07892C21.1584 7.07892 20.4904 7.33863 19.9796 7.77925C19.4623 8.22546 19.0789 8.88277 19.0789 9.68418H20.0789ZM24.1545 16.5005C20.6403 12.7447 20.0789 10.5683 20.0789 9.68418H19.0789C19.0789 10.9471 19.847 13.3605 23.4243 17.1837L24.1545 16.5005ZM24.1545 17.1837C27.7317 13.3605 28.4999 10.9471 28.4999 9.68418H27.4999C27.4999 10.5683 26.9384 12.7447 23.4243 16.5005L24.1545 17.1837ZM28.4999 9.68418C28.4999 8.88277 28.1164 8.22546 27.5991 7.77925C27.0883 7.33863 26.4204 7.07892 25.7838 7.07892V8.07892C26.1625 8.07892 26.6026 8.24026 26.946 8.53648C27.2829 8.82712 27.4999 9.22244 27.4999 9.68418H28.4999ZM25.7838 7.07892C24.5318 7.07892 23.7186 7.93935 23.4069 8.30948L24.1718 8.95362C24.4511 8.622 25.0056 8.07892 25.7838 8.07892V7.07892Z" fill="#525252"/>
  <rect x="12.5" y="0.5" width="23" height="23" fill="white" stroke="#525252"/>
  <path d="M23.7911 8.63076L23.4086 8.95282L23.7911 9.40699L24.1735 8.95282L23.7911 8.63076ZM23.7911 16.8413L23.426 17.1829L23.7911 17.5731L24.1562 17.1829L23.7911 16.8413ZM21.7966 8.07812C22.5749 8.07812 23.1294 8.6212 23.4086 8.95282L24.1735 8.30869C23.8619 7.93855 23.0487 7.07812 21.7966 7.07812V8.07812ZM20.0806 9.68339C20.0806 9.22164 20.2975 8.82632 20.6345 8.53568C20.9779 8.23946 21.418 8.07812 21.7966 8.07812V7.07812C21.1601 7.07812 20.4922 7.33784 19.9813 7.77846C19.464 8.22466 19.0806 8.88198 19.0806 9.68339H20.0806ZM24.1562 16.4997C20.642 12.7439 20.0806 10.5675 20.0806 9.68339H19.0806C19.0806 10.9463 19.8487 13.3597 23.426 17.1829L24.1562 16.4997ZM24.1562 17.1829C27.7334 13.3597 28.5016 10.9463 28.5016 9.68339H27.5016C27.5016 10.5675 26.9402 12.7439 23.426 16.4997L24.1562 17.1829ZM28.5016 9.68339C28.5016 8.88198 28.1181 8.22466 27.6009 7.77846C27.09 7.33784 26.4221 7.07812 25.7856 7.07812V8.07812C26.1642 8.07812 26.6043 8.23946 26.9477 8.53568C27.2846 8.82632 27.5016 9.22164 27.5016 9.68339H28.5016ZM25.7856 7.07812C24.5335 7.07812 23.7203 7.93855 23.4086 8.30869L24.1735 8.95282C24.4528 8.6212 25.0073 8.07812 25.7856 8.07812V7.07812Z" fill="#525252"/>
  <rect width="24" height="24" transform="translate(12)" fill="white"/>
  <ellipse cx="20" cy="12.5" rx="1" ry="1" fill="#525252"/>
  <ellipse cx="24" cy="12.5" rx="1" ry="1" fill="#525252"/>
  <ellipse cx="28" cy="12.5" rx="1" ry="1" fill="#525252"/>
  <path fill-rule="evenodd" clip-rule="evenodd" d="M34.2 1.8H13.8V22.2H34.2V1.8ZM12 0V24H36V0H12Z" fill="#525252"/>
</svg>
