<?xml version="1.0" encoding="UTF-8"?>
<svg xmlns="http://www.w3.org/2000/svg" width="765" height="352" viewBox="0 0 765 352" fill="none">
  <rect x="264" width="238" height="238" rx="48" fill="#43B02A"></rect>
  <path fill-rule="evenodd" clip-rule="evenodd" d="M121.078 331.344H87.8152L81.4699 346.688H64.4799L96.4123 275.085H112.788L144.823 346.688H127.424L121.078 331.344ZM115.859 318.762L104.498 291.349L93.1373 318.762H115.859ZM22.9259 288.587H0V275.085H62.4322V288.587H39.5063V346.688H22.9259V288.587ZM220.624 316.001C218.305 312.932 215.098 310.75 211.004 309.454C214.006 307.886 216.326 305.738 217.963 303.01C219.669 300.282 220.522 297.179 220.522 293.701C220.522 287.973 218.168 283.438 213.46 280.097C208.82 276.755 202.133 275.085 193.4 275.085H158.397V346.688H195.447C204.794 346.688 211.891 345.017 216.735 341.675C221.648 338.266 224.104 333.424 224.104 327.15C224.104 322.718 222.944 319.001 220.624 316.001ZM174.875 304.442V287.564H191.353C195.447 287.564 198.552 288.28 200.667 289.712C202.782 291.076 203.839 293.156 203.839 295.952C203.839 298.748 202.782 300.862 200.667 302.294C198.552 303.726 195.447 304.442 191.353 304.442H174.875ZM204.044 332.06C201.861 333.492 198.586 334.208 194.219 334.208H174.875V316.512H194.219C203.02 316.512 207.421 319.478 207.421 325.411C207.421 328.412 206.295 330.628 204.044 332.06ZM242.798 275.085H259.378V333.185H295.302V346.688H242.798V275.085ZM366.179 346.688V333.39H327.185V316.819H360.448V303.93H327.185V288.382H364.849V275.085H310.707V346.688H366.179ZM400.353 288.587H377.427V275.085H439.86V288.587H416.934V346.688H400.353V288.587ZM471.399 328.582L481.02 318.558L503.946 346.688H523.29L491.869 306.999L521.55 275.085H503.128L471.399 308.533V275.085H454.922V346.688H471.399V328.582ZM536.824 275.085H553.404V346.688H536.824V275.085ZM574.398 344.642C576.309 346.552 578.663 347.506 581.46 347.506C584.258 347.506 586.612 346.552 588.522 344.642C590.433 342.733 591.388 340.346 591.388 337.482C591.388 334.55 590.433 332.197 588.522 330.424C586.612 328.583 584.258 327.662 581.46 327.662C578.663 327.662 576.309 328.583 574.398 330.424C572.488 332.197 571.533 334.55 571.533 337.482C571.533 340.346 572.488 342.733 574.398 344.642ZM640.602 347.915C630.37 347.915 622.384 345.085 616.658 339.425C610.992 333.765 608.162 325.684 608.162 315.182V275.085H624.74V314.569C624.74 327.389 630.066 333.799 640.705 333.799C645.891 333.799 649.851 332.265 652.577 329.196C655.31 326.059 656.676 321.183 656.676 314.569V275.085H673.048V315.182C673.048 325.684 670.182 333.765 664.449 339.425C658.79 345.085 650.841 347.915 640.602 347.915ZM707.996 331.344H741.256L747.602 346.688H765L732.967 275.085H716.589L684.659 346.688H701.65L707.996 331.344ZM724.678 291.349L736.04 318.762H713.316L724.678 291.349Z" fill="#43B02A"></path>
  <path d="M344.727 177.1C376.145 177.1 401.615 151.645 401.615 120.244C401.615 88.844 376.145 63.3889 344.727 63.3889C313.309 63.3889 287.839 88.844 287.839 120.244C287.839 151.645 313.309 177.1 344.727 177.1Z" fill="#358C21"></path>
  <path d="M344.727 173.174C376.145 173.174 401.615 147.719 401.615 116.318C401.615 84.9181 376.145 59.463 344.727 59.463C313.309 59.463 287.839 84.9181 287.839 116.318C287.839 147.719 313.309 173.174 344.727 173.174Z" fill="white" stroke="#888888" stroke-width="1.34579" stroke-miterlimit="10"></path>
  <path d="M299.556 81.8123L389.956 150.697" stroke="#888888" stroke-width="2.69159" stroke-miterlimit="10"></path>
  <path d="M421.885 179.188C453.303 179.188 478.773 153.733 478.773 122.333C478.773 90.9326 453.303 65.4774 421.885 65.4774C390.467 65.4774 364.997 90.9326 364.997 122.333C364.997 153.733 390.467 179.188 421.885 179.188Z" fill="#358C21"></path>
  <path d="M421.885 176.151C453.303 176.151 478.773 150.696 478.773 119.296C478.773 87.8947 453.303 62.4398 421.885 62.4398C390.467 62.4398 364.997 87.8947 364.997 119.296C364.997 150.696 390.467 176.151 421.885 176.151Z" fill="white" stroke="#888888" stroke-width="1.34579" stroke-miterlimit="10"></path>
  <path d="M421.885 62.5026V176.087" stroke="#888888" stroke-width="2.69159" stroke-miterlimit="10"></path>
</svg>
