<svg width="100" height="100" viewBox="0 0 100 100" fill="none" xmlns="http://www.w3.org/2000/svg">
<path d="M50 90C72.0914 90 90 72.0914 90 50C90 27.9086 72.0914 10 50 10C27.9086 10 10 27.9086 10 50C10 72.0914 27.9086 90 50 90Z" fill="#A1DCEF"/>
<path d="M88.2 56.42C88.2 66.23 71.04 74.18 49.87 74.18C28.7 74.18 11.55 66.23 11.55 56.42C11.55 55.68 11.65 54.95 11.84 54.22C13.41 64.09 29.83 71.86 49.87 71.86C69.91 71.86 86.32 64.1 87.9 54.24C88.09 54.96 88.19 55.69 88.19 56.42H88.2Z" stroke="#231F20" stroke-miterlimit="10"/>
<path d="M88.04 52.68C88.04 53.21 88 53.72 87.91 54.24C86.33 64.1 69.91 71.86 49.88 71.86C29.85 71.86 13.42 64.09 11.85 54.22C11.76 53.71 11.72 53.2 11.72 52.67C11.72 42.07 28.8 33.49 49.88 33.49C70.96 33.49 88.04 42.08 88.04 52.67V52.68Z" stroke="#231F20" stroke-miterlimit="10"/>
<path d="M49.29 45.38C55.5308 45.38 60.59 44.0324 60.59 42.37C60.59 40.7076 55.5308 39.36 49.29 39.36C43.0492 39.36 37.99 40.7076 37.99 42.37C37.99 44.0324 43.0492 45.38 49.29 45.38Z" stroke="#231F20" stroke-miterlimit="10"/>
<path d="M49.5 47C56.9006 47 62.9 45.0121 62.9 42.56C62.9 40.1079 56.9006 38.12 49.5 38.12C42.0994 38.12 36.1 40.1079 36.1 42.56C36.1 45.0121 42.0994 47 49.5 47Z" stroke="#231F20" stroke-miterlimit="10"/>
<path d="M50.7 18.25C56.51 18.25 61.3 21.52 61.95 25.72C62 25.4 62.03 25.07 62.03 24.73C62.03 20.06 56.96 16.27 50.7 16.27C44.44 16.27 39.37 20.06 39.37 24.73C39.37 25.06 39.4 25.39 39.45 25.72C40.1 21.51 44.89 18.25 50.7 18.25Z" stroke="#231F20" stroke-miterlimit="10"/>
<path d="M50.7 5.55002C59.98 5.55002 67.63 10.77 68.67 17.49C68.75 16.97 68.8 16.45 68.8 15.91C68.8 8.45002 60.7 2.40002 50.7 2.40002C40.7 2.40002 32.6 8.45003 32.6 15.92C32.6 16.45 32.65 16.98 32.73 17.5C33.78 10.78 41.42 5.56002 50.7 5.56002V5.55002Z" stroke="#231F20" stroke-miterlimit="10"/>
</svg>
