<svg width="100" height="100" viewBox="0 0 100 100" fill="none" xmlns="http://www.w3.org/2000/svg">
<path d="M50 90C72.0914 90 90 72.0914 90 50C90 27.9086 72.0914 10 50 10C27.9086 10 10 27.9086 10 50C10 72.0914 27.9086 90 50 90Z" fill="#A1DCEF"/>
<path d="M54.7876 71.1635C55.4237 67.667 53.8068 64.4446 51.1763 63.966C48.5458 63.4875 45.8977 65.9341 45.2617 69.4306C44.6256 72.9272 46.2424 76.1496 48.8729 76.6281C51.5034 77.1067 54.1515 74.6601 54.7876 71.1635Z" stroke="#231F20" stroke-linecap="round" stroke-linejoin="round"/>
<path d="M56.7367 72.0169C57.7679 66.3484 55.3113 61.1541 51.2497 60.4153C47.1882 59.6764 43.0597 63.6728 42.0285 69.3414C40.9974 75.0099 43.454 80.2042 47.5155 80.943C51.5771 81.6818 55.7055 77.6855 56.7367 72.0169Z" stroke="#231F20" stroke-linecap="round" stroke-linejoin="round"/>
<path d="M57.6547 72.2783C56.291 79.7786 50.2651 84.9522 44.1882 83.8527C43.8472 83.793 41.5204 82.8555 41.1965 82.7447C36.8668 81.2702 34.3695 75.3551 35.6565 68.2724C37.0202 60.7721 43.0461 55.5986 49.123 56.698C50.41 56.9282 52.4556 57.7293 53.5124 58.4368C57.4416 61.0789 58.7286 66.3633 57.6547 72.2698V72.2783Z" stroke="#231F20" stroke-linecap="round" stroke-linejoin="round"/>
<path d="M35.3838 71.426L28.1391 69.2015L25.9146 71.426L17.0761 72.3806L3.09821 67.0877L0.558316 66.4485V62.2636L2.83399 60.8403L8.07571 59.4084L8.02457 58.718L6.43075 57.9254L5.6381 51.5757L4.89658 50.8853L4.94772 46.8624L12.9424 42.9503L31.7359 38.9785L31.6847 37.5466L36.7645 31.4611L33.6365 30.8219L33.9093 29.7139L41.5289 28.3928L60.7912 27.2762H68.5728L83.2411 29.2877L84.0849 28.4439L92.2926 29.9781V37.7085L93.7671 37.8534L94.7217 40.4189L94.3297 43.0952L92.1478 42.9332L92.4631 44.3651L94.1251 44.5185L94.2871 49.2488L92.1818 51.0302L91.1761 53.3826" stroke="#231F20" stroke-linecap="round" stroke-linejoin="round"/>
<path d="M91.2869 57.0986C91.2869 57.4992 91.2699 57.9168 91.2358 58.3345C90.9886 61.2835 89.9062 63.5932 88.8323 63.4824C87.8777 63.3802 87.247 61.4369 87.3066 58.9396V58.9226C87.3066 58.6072 87.3237 58.2833 87.3493 57.9424C87.3578 57.806 87.3748 57.6782 87.3919 57.5418C87.7072 54.7889 88.73 52.7007 89.7528 52.7944C90.6733 52.8882 91.2869 54.7122 91.2869 57.0901V57.0986Z" stroke="#231F20" stroke-linecap="round" stroke-linejoin="round"/>
<path d="M89.5738 51.2092H89.0794C88.2612 51.4052 87.4685 52.5558 86.8975 54.2604C86.514 55.377 86.2327 56.7321 86.0963 58.1896C85.9429 59.8346 86.0026 61.3602 86.2327 62.6046C86.548 64.4029 87.2128 65.6047 88.0822 65.6899C89.5482 65.8263 91.0397 62.6898 91.4062 58.6839C91.4574 58.147 91.4829 57.6185 91.4829 57.1157C91.5256 53.9621 90.7585 51.516 89.5823 51.2092H89.5738Z" stroke="#231F20" stroke-linecap="round" stroke-linejoin="round"/>
<path d="M89.5738 51.2091H89.0794C89.1902 51.1751 89.3095 51.1665 89.4203 51.1751C89.48 51.1751 89.5226 51.1836 89.5738 51.2091V51.2091Z" stroke="#231F20" stroke-linecap="round" stroke-linejoin="round"/>
<path d="M86.0878 58.1811C85.9344 59.826 85.9941 61.3517 86.2242 62.596C86.5396 64.3944 87.2044 65.5962 88.0737 65.6814L84.0252 65.6558H84.0167C83.9144 65.6814 83.8036 65.6899 83.7099 65.6814C82.3291 65.5536 81.4598 62.579 81.6729 58.8885L83.582 58.2322L83.3775 57.5503L81.8177 57.3543L83.4201 56.306L84.5451 51.2432C84.7156 51.1836 84.8775 51.158 85.0395 51.1665L89.0794 51.1921C88.2612 51.3881 87.4686 52.5473 86.8975 54.2434C86.514 55.3599 86.2327 56.7151 86.0964 58.1725L86.0878 58.1811Z" stroke="#231F20" stroke-linecap="round" stroke-linejoin="round"/>
<path d="M84.0167 65.6558H83.5735" stroke="#231F20" stroke-linecap="round" stroke-linejoin="round"/>
<path d="M57.6121 64.7098L60.7401 66.0394L81.6643 58.8885" stroke="#231F20" stroke-linecap="round" stroke-linejoin="round"/>
<path d="M84.5366 51.2518H84.5452L85.3548 47.5783L90.8352 46.6663L92.1819 51.0302" stroke="#231F20" stroke-linecap="round" stroke-linejoin="round"/>
<path d="M4.94774 46.8624H12.7294C12.7294 46.8624 14.4766 49.1892 14.5789 49.3511C14.6811 49.5131 19.241 50.0415 19.241 50.0415V61.5818L20.886 62.4682L21.4655 68.3577L26.7073 67.9315C26.7073 67.9315 27.6107 63.4313 27.9772 63.329C28.3437 63.2268 32.4263 61.3687 32.4263 61.3687C32.4263 61.3687 32.2132 57.0816 32.4263 57.2435C32.6394 57.4055 39.2533 57.4055 39.2533 57.4055L54.4415 51.4222L58.9417 53.8002L59.9986 59.6215L57.1433 63.1586" stroke="#231F20" stroke-linecap="round" stroke-linejoin="round"/>
<path d="M8.28879 59.4084L19.2495 61.5818C19.2495 61.5818 10.4622 63.2267 10.3599 63.3802C10.2576 63.5336 11.0332 70.0879 11.0332 70.0879" stroke="#231F20" stroke-linecap="round" stroke-linejoin="round"/>
<path d="M7.86265 64.9655L4.94775 65.2808L4.41931 61.5221L8.60417 60.6783L9.29454 64.3859L7.86265 64.9655Z" stroke="#231F20" stroke-linecap="round" stroke-linejoin="round"/>
<path d="M16.9653 68.6219L12.9936 67.19C12.9936 67.19 12.9424 65.0081 12.9936 64.7439C13.0447 64.4796 19.241 63.4313 19.241 63.4313L20.349 68.3577L16.9653 68.6219V68.6219Z" stroke="#231F20" stroke-linecap="round" stroke-linejoin="round"/>
<path d="M20.3575 51.0728L20.6047 56.3486L23.0679 57.61L31.1222 54.9252V50.4335L20.3575 51.0728Z" stroke="#231F20" stroke-linecap="round" stroke-linejoin="round"/>
<path d="M19.241 50.0415L24.6105 47.9789C24.6105 47.9789 30.4063 48.0556 30.5256 47.9789C30.6449 47.9022 50.018 42.8565 50.018 42.8565L49.7793 40.7087L55.8563 39.5154L61.1321 27.2762" stroke="#231F20" stroke-linecap="round" stroke-linejoin="round"/>
<path d="M36.7645 31.4611L42.9949 30.9412L37.5998 39.2001L31.7359 38.9785" stroke="#231F20" stroke-linecap="round" stroke-linejoin="round"/>
<path d="M45.5007 30.5832L40.5744 38.3648L41.3329 39.4813L49.9413 39.8734L54.1091 38.4501L57.9615 29.5178L45.5007 30.5832Z" stroke="#231F20" stroke-linecap="round" stroke-linejoin="round"/>
<path d="M59.7514 43.1292V39.4046H64.6692V38.45" stroke="#231F20" stroke-linecap="round" stroke-linejoin="round"/>
<path d="M66.0755 32.2793H64.0129C63.5516 32.2793 63.1776 32.6533 63.1776 33.1146V37.6148C63.1776 38.0761 63.5516 38.45 64.0129 38.45H66.0755C66.5368 38.45 66.9108 38.0761 66.9108 37.6148V33.1146C66.9108 32.6533 66.5368 32.2793 66.0755 32.2793Z" stroke="#231F20" stroke-linecap="round" stroke-linejoin="round"/>
<path d="M63.493 38.2625L61.3281 39.2001L59.5809 36.5153L61.3281 31.623L68.5217 31.2736L69.3143 33.5237L66.9108 35.8846" stroke="#231F20" stroke-linecap="round" stroke-linejoin="round"/>
<path d="M74.3685 31.0094L73.8145 33.5492L74.9822 35.9357L76.7294 35.6715L78.9199 33.0975L78.025 31.2736L74.3685 31.0094Z" stroke="#231F20" stroke-linecap="round" stroke-linejoin="round"/>
<path d="M72.9708 29.5178C72.9708 29.5178 71.0104 31.41 71.0616 31.7253C71.1127 32.0407 72.0162 46.8624 72.0162 46.8624L74.2407 49.5131L78.6301 48.9591L79.8489 46.0697V33.2595L78.3659 30.2423L72.9708 29.5178V29.5178Z" stroke="#231F20" stroke-linecap="round" stroke-linejoin="round"/>
<path d="M32.4263 57.235V55.0701L39.3044 51.1665L52.7454 47.655L56.1887 48.2942L58.9417 53.8002L60.3224 54.5928L66.1949 52.5814L69.6382 48.03L69.3143 33.5237" stroke="#231F20" stroke-linecap="round" stroke-linejoin="round"/>
<path d="M52.7454 47.655L53.0522 40.0694L55.8563 39.5154L58.9928 40.7939V47.297L56.2654 48.4477" stroke="#231F20" stroke-linecap="round" stroke-linejoin="round"/>
<path d="M60.3224 54.5928L62.2146 56.5532L70.6695 54.9252L72.8088 51.2518L72.0161 46.8624" stroke="#231F20" stroke-linecap="round" stroke-linejoin="round"/>
<path d="M92.2926 37.7085H82.9769L82.2183 38.45V43.4531L92.1478 42.9332" stroke="#231F20" stroke-linecap="round" stroke-linejoin="round"/>
<path d="M84.1275 37.7085L84.9542 39.2001L85.1162 43.2997" stroke="#231F20" stroke-linecap="round" stroke-linejoin="round"/>
<path d="M83.0536 31.0094V34.18H85.6531V31.5634L83.0536 31.0094Z" stroke="#231F20" stroke-linecap="round" stroke-linejoin="round"/>
<path d="M86.5821 31.623V34.359H88.8322V32.1003L86.5821 31.623Z" stroke="#231F20" stroke-linecap="round" stroke-linejoin="round"/>
<path d="M89.7016 32.2452V34.376H91.4488V32.6117L89.7016 32.2452Z" stroke="#231F20" stroke-linecap="round" stroke-linejoin="round"/>
<path d="M92.4631 44.3651L81.6387 45.3793L80.275 50.408L74.2407 51.712L74.5049 57.235L72.5446 59.8857L59.7514 63.491L58.0212 62.0761" stroke="#231F20" stroke-linecap="round" stroke-linejoin="round"/>
<path d="M5.8256 52.0615L14.093 52.8967L17.6301 52.1467" stroke="#231F20" stroke-linecap="round" stroke-linejoin="round"/>
<path d="M6.0046 54.482L14.093 55.2321L17.6301 54.482" stroke="#231F20" stroke-linecap="round" stroke-linejoin="round"/>
<path d="M6.66938 56.8174L14.093 57.5759L17.6301 56.8174" stroke="#231F20" stroke-linecap="round" stroke-linejoin="round"/>
<path d="M54.075 23.0999C54.075 23.2022 54.9188 26.3813 54.9188 26.3813L58.9928 25.6398L58.49 22.3328L54.0665 23.0999H54.075Z" stroke="#231F20" stroke-linecap="round" stroke-linejoin="round"/>
<path d="M56.3847 26.1086L56.7257 27.5149L58.7286 27.3956L58.9928 25.6398" stroke="#231F20" stroke-linecap="round" stroke-linejoin="round"/>
<path d="M34.1735 25.8784L34.4633 28.3928L36.952 28.2564V25.8784H34.1735Z" stroke="#231F20" stroke-linecap="round" stroke-linejoin="round"/>
<path d="M36.952 25.8784L38.9379 27.5149V28.8445L36.2276 29.3133L35.5628 28.3928" stroke="#231F20" stroke-linecap="round" stroke-linejoin="round"/>
<path d="M68.3682 27.2762V25.6313C68.3682 25.6313 73.3713 22.6652 82.2268 24.8131V28.5206C82.2268 28.5206 81.8689 28.9382 81.3916 29.032" stroke="#231F20" stroke-linecap="round" stroke-linejoin="round"/>
</svg>
