<svg width="100" height="100" viewBox="0 0 100 100" fill="none" xmlns="http://www.w3.org/2000/svg">
<g clip-path="url(#clip0_5617_29735)">
<path d="M48.77 90C70.8614 90 88.77 72.0914 88.77 50C88.77 27.9086 70.8614 10 48.77 10C26.6786 10 8.76999 27.9086 8.76999 50C8.76999 72.0914 26.6786 90 48.77 90Z" fill="#A1DCEF"/>
<path d="M76.0955 69.3721C76.0955 69.3721 70.8324 66.03 65.5008 71.9595C60.1691 77.889 59.6399 85.7787 62.2175 87.5036C64.7951 89.2286 70.0778 87.8761 74.0471 83.1031C77.301 79.1827 79.712 71.7635 76.1053 69.3721H76.0955Z" stroke="#231F20" stroke-miterlimit="10"/>
<path d="M70.019 68.5194C70.019 68.5194 70.803 73.5472 68.3038 77.1147C65.8046 80.6822 63.6582 80.8587 60.8552 81.5643" stroke="#231F20" stroke-miterlimit="10"/>
<path d="M73.4689 68.5095C73.4689 68.5095 74.9488 75.3701 71.3617 79.4277C67.7746 83.4852 63.9719 84.4261 60.7278 83.936" stroke="#231F20" stroke-miterlimit="10"/>
<path d="M77.1148 70.4011C77.1148 70.4011 77.301 68.4507 75.2526 67.0688C73.2141 65.6771 66.2359 61.5607 66.2359 61.5607C66.2359 61.5607 60.8846 60.7374 57.2975 64.6186C53.7006 68.4997 50.5937 72.4396 51.2602 77.8105L51.6914 80.6723L61.4433 88.3562C61.4433 88.3562 63.6974 88.9736 66.3241 88.0916" stroke="#231F20" stroke-miterlimit="10"/>
<path d="M97.7946 54.1709C97.7946 54.1709 92.7373 50.9563 87.6115 56.6603C82.4857 62.3644 81.976 69.9405 84.4556 71.5968C86.9352 73.2531 92.0121 71.9594 95.8246 67.3628C98.9511 63.5895 101.274 56.4741 97.7946 54.1709Z" stroke="#231F20" stroke-miterlimit="10"/>
<path d="M91.9532 53.3477C91.9532 53.3477 92.7079 58.1795 90.3067 61.6098C87.9055 65.0401 85.8473 65.2067 83.1521 65.8829" stroke="#231F20" stroke-miterlimit="10"/>
<path d="M95.266 53.3379C95.266 53.3379 96.6871 59.924 93.2372 63.8248C89.7873 67.7255 86.1316 68.6272 83.0247 68.1568" stroke="#231F20" stroke-miterlimit="10"/>
<path d="M98.7746 55.151C98.7746 55.151 98.9511 53.279 96.9909 51.9461C95.0307 50.6132 88.327 46.6537 88.327 46.6537C88.327 46.6537 83.1913 45.8696 79.7316 49.5939C76.2817 53.328 73.2925 57.1112 73.9295 62.2762L74.3412 65.0204L83.7108 72.4005C83.7108 72.4005 85.8767 72.9983 88.4054 72.1456" stroke="#231F20" stroke-miterlimit="10"/>
<path d="M88.3269 46.6537C88.3269 46.6537 83.4461 44.6151 81.1527 45.3011L73.6747 41.9395C73.6747 41.9395 69.4015 42.3805 67.3728 44.7817C65.344 47.1731 64.2757 49.9859 63.619 51.3679C62.9624 52.7498 61.6491 54.3571 60.8062 54.9648C58.65 56.5329 56.2096 55.9938 55.798 55.8076C55.3863 55.6214 51.7012 53.8671 46.1147 57.6894C40.5381 61.5117 41.9102 67.9215 41.7632 69.617C41.626 71.3125 49.9077 79.6041 49.9077 79.6041L51.6914 80.6625" stroke="#231F20" stroke-miterlimit="10"/>
<path d="M74.6156 56.8662L67.6766 62.4135" stroke="#231F20" stroke-miterlimit="10"/>
<path d="M76.3503 66.6083L75.5858 67.3041" stroke="#231F20" stroke-miterlimit="10"/>
<path d="M41.7729 70.1267C41.7729 70.1267 38.3525 69.8425 37.0489 67.0395C35.7356 64.2364 38.8523 57.9737 39.9304 57.2288C41.0085 56.484 48.6433 49.8194 48.6433 49.8194C48.6433 49.8194 47.6436 44.4094 51.956 42.1454C56.2586 39.8814 58.8656 42.3022 59.8261 42.4198C60.7866 42.5374 66.9807 39.3423 69.7053 39.656L73.6649 41.9395" stroke="#231F20" stroke-miterlimit="10"/>
<path d="M52.7793 43.6448C52.7793 43.6448 48.9472 46.3695 50.7505 50.0644C52.5539 53.7593 57.9836 48.4962 58.1012 47.9866C58.2188 47.4769 59.6301 45.9088 58.1992 43.6056C56.7781 41.3024 52.7695 43.6448 52.7695 43.6448H52.7793Z" stroke="#231F20" stroke-miterlimit="10"/>
<path d="M77.3598 43.5959C77.3598 43.5959 77.399 40.293 75.8995 39.7442C75.4388 39.5776 71.9693 40.9595 71.9693 40.9595" stroke="#231F20" stroke-miterlimit="10"/>
<path d="M74.9684 39.901C74.9684 39.901 71.4107 33.7265 70.2248 33.158C69.0291 32.5994 65.7752 33.7559 65.1872 34.1773C64.5991 34.5988 67.0199 36.4609 68.8723 37.7742C70.7344 39.0875 72.5378 40.7341 72.5378 40.7341" stroke="#231F20" stroke-miterlimit="10"/>
<path d="M65.1774 34.1674C65.1774 34.1674 61.3942 29.8648 55.3275 27.8067C49.2608 25.7485 43.3999 22.5338 43.3999 22.5338C43.3999 22.5338 26.5817 30.2863 24.6509 31.2566C22.7201 32.2268 12.6645 37.4017 12.4293 42.1355C12.1941 46.8693 14.0464 50.7406 14.0464 50.7406C14.0464 50.7406 24.1903 59.7966 25.5526 61.2471C26.9149 62.6878 27.0129 65.4615 29.1103 66.3925C31.2077 67.3236 34.9418 67.2452 35.6082 66.1671C36.2747 65.089 37.343 58.2088 33.7069 55.102C30.0708 51.9951 27.5912 54.759 26.9737 55.69C26.3563 56.6211 25.4546 58.1108 26.1504 60.8061" stroke="#231F20" stroke-miterlimit="10"/>
<path d="M39.1954 58.101C39.1954 58.101 38.3035 53.2888 36.3041 52.3185C34.3047 51.3581 28.9045 51.8579 27.944 54.6119" stroke="#231F20" stroke-miterlimit="10"/>
<path d="M43.2627 44.6052C43.2627 44.6052 44.3702 37.3722 51.564 37.0194C51.564 37.0194 48.4081 33.1481 45.2719 34.3144C42.1356 35.4807 39.4306 38.6659 40.3813 41.322C41.3319 43.978 43.2725 44.6052 43.2725 44.6052H43.2627Z" stroke="#231F20" stroke-miterlimit="10"/>
<path d="M43.2627 44.6052L48.6433 49.8291" stroke="#231F20" stroke-miterlimit="10"/>
<path d="M51.5738 37.0194L59.8261 42.4295" stroke="#231F20" stroke-miterlimit="10"/>
<path d="M14.0464 50.7406C14.0464 50.7406 11.7922 50.5838 11.2042 49.2509C10.6161 47.918 9.03818 47.0359 9.03818 47.0359C9.03818 47.0359 0.335044 42.2531 1.0407 39.3227C1.74636 36.3922 2.97147 34.8829 10.2045 32.2073C17.4375 29.5316 31.3449 23.5335 34.589 20.3973C37.8428 17.261 39.1169 17.5452 39.4208 18.2803C39.7246 19.0153 40.097 20.0738 41.5378 20.9657C42.9785 21.8576 43.4097 22.5436 43.4097 22.5436" stroke="#231F20" stroke-miterlimit="10"/>
<path d="M9.36163 47.2418C9.36163 47.2418 7.72489 37.9506 12.6449 34.6869C17.5649 31.4134 33.1483 24.0824 35.2358 22.8279C37.3136 21.5832 39.1366 20.3679 40.8615 20.4757" stroke="#231F20" stroke-miterlimit="10"/>
<path d="M32.9718 39.3324C32.9718 39.3324 41.4103 30.9037 50.3095 29.855C50.3095 29.855 45.066 26.1405 42.6158 26.1601C40.1656 26.1797 33.3442 27.2284 29.2671 31.8054C29.2671 31.8054 26.023 33.3343 28.1792 35.3435C30.3354 37.3527 32.962 39.3422 32.962 39.3422L32.9718 39.3324Z" stroke="#231F20" stroke-miterlimit="10"/>
<path d="M24.2099 59.9437C24.2099 59.9437 20.1327 51.4758 25.4644 46.1147C30.796 40.7536 32.9718 39.3325 32.9718 39.3325" stroke="#231F20" stroke-miterlimit="10"/>
<path d="M50.3095 29.8551C50.3095 29.8551 55.8078 28.924 59.6301 29.7865" stroke="#231F20" stroke-miterlimit="10"/>
</g>
<defs>
<clipPath id="clip0_5617_29735">
<rect width="100" height="100" fill="white"/>
</clipPath>
</defs>
</svg>
