<svg width="100" height="100" viewBox="0 0 100 100" fill="none" xmlns="http://www.w3.org/2000/svg">
<g clip-path="url(#clip0_5626_30386)">
<path d="M50 92.42C72.0914 92.42 90 74.5114 90 52.42C90 30.3287 72.0914 12.42 50 12.42C27.9086 12.42 10 30.3287 10 52.42C10 74.5114 27.9086 92.42 50 92.42Z" fill="#A1DCEF"/>
<path d="M82.25 71.13L84.99 77.14" stroke="#1D1C1A" stroke-miterlimit="10" stroke-linecap="round"/>
<path d="M42.98 2.02001V2.84001C42.98 2.94001 43.02 3.04001 43.1 3.10001C43.59 3.53001 44.06 3.98001 44.51 4.45001C45.03 5.00001 45.61 5.61001 45.89 6.32001C46.13 6.94001 46.01 7.65001 46.04 8.30001C46.08 9.18001 46.17 10.06 46.31 10.92C46.31 10.94 46.31 10.96 46.33 10.97C46.34 10.97 46.36 10.97 46.38 10.97C47.28 10.89 48.18 10.79 49.08 10.7C49.98 10.61 50.81 10.52 51.68 10.56C51.76 10.56 51.84 10.56 51.92 10.57C52.85 10.63 53.78 10.79 54.71 10.91L55.14 10.96C55.14 10.96 54.87 11.44 54.84 11.48C54.6 11.8 54.33 12.13 54.16 12.5C54.11 12.61 54.09 12.74 54.16 12.83C54.2 12.89 54.27 12.92 54.34 12.95C54.52 13.02 54.71 13.03 54.9 13.05C55.41 13.09 55.91 13.09 56.42 13.08C56.45 13.08 56.48 13.08 56.51 13.06C56.53 13.04 56.54 13.02 56.55 13C56.57 12.94 56.76 12.25 56.73 12.25C57.38 12.28 58.02 12.31 58.67 12.35C58.82 12.35 60.45 12.37 60.47 12.48C60.51 12.75 60.48 13.03 60.47 13.3C60.47 13.31 60.47 13.33 60.47 13.34C60.47 13.35 60.49 13.35 60.51 13.35C60.72 13.38 60.92 13.41 61.13 13.42C61.35 13.42 61.59 13.38 61.75 13.22C61.87 13.1 61.93 12.94 61.98 12.78C62.03 12.59 62.07 12.39 62.05 12.19C62.03 11.99 61.94 11.8 61.79 11.67C61.48 11.42 61.18 11.37 61.12 10.91C61.09 10.67 61.12 10.4 61.21 10.18L61.86 8.87001C61.98 8.50001 62.06 8.11001 62.1 7.72001C62.13 7.43001 62.13 7.15001 62.07 6.86001C61.98 6.48001 61.88 6.11001 61.97 5.72001C62.07 5.31001 62.36 4.97001 62.67 4.69001C63.33 4.10001 63.99 3.51001 64.71 3.00001C64.74 2.98001 64.77 2.96001 64.79 2.92001C64.81 2.88001 64.81 2.84001 64.82 2.79001C64.83 2.43001 64.82 2.08001 64.78 1.72001C64.78 1.67001 64.76 1.60001 64.72 1.57001C64.58 1.47001 64.08 1.90001 63.96 1.97001C63.67 2.15001 63.39 2.33001 63.1 2.51001C62.54 2.85001 61.96 3.19001 61.38 3.49001C60.66 3.86001 59.81 3.94001 59.01 3.98001C58.17 4.02001 57.32 3.95001 56.52 3.69001C55.66 3.41001 54.97 2.84001 54.21 2.36001L52.81 1.47001C52.43 1.23001 51.82 0.99001 51.58 0.60001C51.58 0.60001 51.58 0.59001 51.58 0.58001C51.55 0.36001 44.83 1.27001 43.31 1.48001C43.14 1.50001 43.01 1.65001 43.01 1.83001V1.97001L42.98 2.02001Z" stroke="#1D1C1A" stroke-miterlimit="10"/>
<path d="M51.47 0.629996L52.11 0.409996C52.16 0.389996 52.22 0.389996 52.27 0.419996C53.37 1.14 54.47 1.86 55.61 2.53C56.04 2.79 56.44 3.04 56.93 3.17C57.42 3.3 57.88 3.36 58.37 3.36C59.55 3.36 60.52 2.94 61.53 2.39C62.26 1.99 62.97 1.58 63.68 1.16H63.69C63.79 1.09 63.92 1.14 63.96 1.24L64.23 1.85" stroke="#1D1C1A" stroke-miterlimit="10"/>
<path d="M54.99 2.16998C54.99 2.16998 60.94 1.75998 62.18 1.43998C63.42 1.11998 63.77 1.12998 63.77 1.12998" stroke="#1D1C1A" stroke-miterlimit="10"/>
<path d="M51.47 0.630005V2.18C51.47 2.18 51.5 2.26 51.54 2.28C51.99 2.46 54.56 3.55 54.99 5.08C55.27 6.08 55.43 7.11001 55.54 8.14001C55.59 8.67001 55.67 9.21 55.6 9.75C55.54 10.18 55.35 10.59 55.14 10.97" stroke="#1D1C1A" stroke-miterlimit="10"/>
<path d="M58.73 9.94997C60.1549 9.94997 61.31 9.04559 61.31 7.92997C61.31 6.81436 60.1549 5.90997 58.73 5.90997C57.3051 5.90997 56.15 6.81436 56.15 7.92997C56.15 9.04559 57.3051 9.94997 58.73 9.94997Z" stroke="#1D1C1A" stroke-miterlimit="10"/>
<path d="M61.54 11.52H64.25C64.39 11.52 64.5 11.63 64.5 11.77V17.73C64.5 17.87 64.38 17.98 64.24 17.98L55.54 17.76C55.4 17.76 55.29 17.64 55.29 17.5V17L54.35 17.03C54.22 17.03 54.12 16.93 54.12 16.8V12.76" stroke="#1D1C1A" stroke-linecap="round" stroke-linejoin="bevel"/>
<path d="M55.48 17.75L47.31 17.98C47.14 17.98 46.99 17.85 46.99 17.68L46.7 10.95" stroke="#1D1C1A" stroke-miterlimit="10"/>
<path d="M46.7 11.07H45.05" stroke="#1D1C1A" stroke-miterlimit="10"/>
<path d="M40.31 23.93C41.04 24.04 41.77 24.13 42.5 24.16C42.99 24.18 44.01 24.32 44.39 23.94C44.51 23.83 44.55 23.66 44.58 23.5C44.7 22.8 44.53 22.08 44.39 21.38C44.28 20.84 44.18 20.27 44.26 19.72C44.34 19.17 44.61 18.59 44.79 18.05C45 17.45 45.22 16.85 45.43 16.26C45.64 15.67 45.63 14.97 45.61 14.35C45.55 12.89 45.16 11.43 44.81 10.01C44.81 9.97 44.76 9.94 44.72 9.94H40.69C40.47 9.94 40.21 10.72 40.12 10.9C39.91 11.34 39.72 11.78 39.57 12.24C39.27 13.14 39.08 14.09 39.03 15.04C38.95 16.34 39.1 17.65 39.15 18.96C39.2 20.18 39.15 21.41 39.24 22.63C39.27 23.12 39.39 23.7 39.85 23.89C40.06 23.98 40.32 23.95 40.49 23.8C40.68 23.62 40.71 23.34 40.71 23.08C40.73 22.21 40.62 21.34 40.63 20.46C40.64 19.59 40.86 18.75 41.25 17.97C41.64 17.19 41.98 16.19 41.92 15.27C41.89 14.87 41.79 14.47 41.68 14.08L40.57 9.94" stroke="#1D1C1A" stroke-miterlimit="10"/>
<path d="M44.81 17.98L47.12 17.92" stroke="#1D1C1A" stroke-miterlimit="10"/>
<path d="M61.29 17.91L61.4 20.11L46.2 20.24V17.98" stroke="#1D1C1A" stroke-miterlimit="10"/>
<path d="M48.8 20.22C48.37 20.45 47.98 20.73 47.69 21.13C47.61 21.23 47.54 21.34 47.53 21.47C47.5 21.71 47.67 21.93 47.87 22.07C48.11 22.25 48.39 22.35 48.68 22.41C48.86 22.45 49.44 22.39 49.56 22.49C49.73 22.63 49.69 23.28 49.53 23.35C49.4 23.41 49.24 23.35 49.11 23.33C48.89 23.31 48.67 23.33 48.45 23.36C48.17 23.42 47.88 23.55 47.78 23.81C47.73 23.94 47.73 24.08 47.74 24.22C47.76 24.4 47.82 24.58 47.93 24.73C48.11 24.97 48.43 25.11 48.73 25.06C48.7 25.06 48.65 25.69 48.64 25.76C48.64 25.94 57.43 25.66 58.25 25.62L58.87 25.59L58.78 24.89C58.8 25.03 59.43 24.72 59.48 24.67C59.63 24.53 59.72 24.33 59.76 24.12C59.8 23.93 59.79 23.72 59.69 23.56C59.57 23.37 59.35 23.27 59.14 23.21C58.91 23.15 58.66 23.13 58.42 23.16C58.24 23.18 57.87 23.27 57.87 23C57.87 22.87 57.82 22.42 57.92 22.34C58.02 22.25 58.47 22.3 58.62 22.28C58.99 22.22 59.42 22.1 59.72 21.85C59.88 21.71 60 21.5 59.97 21.28C59.95 21.16 59.89 21.06 59.83 20.97C59.56 20.6 59.12 20.33 58.72 20.14" stroke="#1D1C1A" stroke-linecap="round" stroke-linejoin="round"/>
<path d="M48.64 25.75H47.05C46.91 25.77 46.8 25.88 46.8 26.02L46.82 27.02C46.82 27.16 46.94 27.27 47.08 27.26C48.13 27.22 52.15 27.07 52.49 27.49C52.88 27.97 53.51 33.48 53.95 34.09C54.39 34.7 54.8 35.27 55.58 35.31C56.36 35.35 63.2 35.14 63.2 35.14C63.2 35.14 64.33 35.34 64.79 34.14C65.25 32.94 66.31 27.81 66.31 27.81C66.31 27.81 66.91 26.21 65.05 25.83C65.04 25.83 65.02 25.83 65 25.83L58.86 25.59" stroke="#1D1C1A" stroke-miterlimit="10"/>
<path d="M54.97 26.44C54.97 26.44 55.07 26.4 55.12 26.39C55.6 26.33 56.08 26.34 56.56 26.35C58.92 26.38 61.27 26.4 63.63 26.42C63.69 26.42 63.76 26.42 63.82 26.45C63.92 26.5 63.97 26.61 64 26.72C64.07 26.97 64.07 27.23 64.07 27.49C64.02 29.71 63.41 32 62.58 34.05C62.57 34.08 62.55 34.12 62.52 34.14C62.49 34.16 62.46 34.16 62.43 34.16C60.61 34.21 58.78 34.26 56.96 34.3C56.89 34.3 56.81 34.3 56.75 34.27C56.66 34.22 56.63 34.11 56.6 34.01C56.1 32.09 55.58 30.17 55.18 28.23C55.07 27.69 54.86 27.16 54.92 26.6C54.92 26.55 54.93 26.5 54.96 26.46L54.98 26.44H54.97Z" stroke="#1D1C1A" stroke-miterlimit="10"/>
<path d="M41.5 11.99H44.68" stroke="#1D1C1A" stroke-miterlimit="10"/>
<path d="M41.71 13.76H45.56" stroke="#1D1C1A" stroke-miterlimit="10"/>
<path d="M41.15 19.07H44.41" stroke="#1D1C1A" stroke-miterlimit="10"/>
<path d="M40.62 20.35H44.24" stroke="#1D1C1A" stroke-miterlimit="10"/>
<path d="M40.65 21.65H44.44" stroke="#1D1C1A" stroke-miterlimit="10"/>
<path d="M42.98 2.84L51.47 2.19" stroke="#1D1C1A" stroke-miterlimit="10"/>
<path d="M46.83 27.01H44.55L39.37 37.06L45.61 39.63L49.12 33.32H49.6C49.6 33.32 49.45 34.62 49.88 34.73C50.31 34.84 54.5 34.77 54.5 34.77" stroke="#1D1C1A" stroke-miterlimit="10"/>
<path d="M51.07 34.79C51.18 35.35 51.32 35.96 51.63 36.45C51.68 36.53 51.74 36.61 51.82 36.66C52.01 36.77 52.32 36.73 52.54 36.74C52.76 36.75 52.97 36.74 53.19 36.74C53.76 36.74 54.33 36.72 54.91 36.71C54.95 36.71 54.98 36.71 55.02 36.69C55.11 36.65 55.13 36.53 55.17 36.46C55.23 36.35 55.28 36.24 55.33 36.12C55.44 35.86 55.53 35.58 55.59 35.3" stroke="#1D1C1A" stroke-miterlimit="10"/>
<path d="M67.04 38.3C67.26 37.7 66.54 36.68 66.25 36.18C65.82 35.45 65.32 34.78 64.8 34.12" stroke="#1D1C1A" stroke-miterlimit="10"/>
<path d="M57.48 35.31C57.93 35.96 58.4 36.59 58.99 37.12C59.18 37.29 59.41 37.47 59.67 37.42C59.94 37.37 60.18 37.09 60.43 37.19C60.58 37.25 60.64 37.41 60.69 37.56L61.55 39.98" stroke="#1D1C1A" stroke-miterlimit="10"/>
<path d="M39.55 37.07L46 39.93C46.44 40.13 46.63 40.65 46.42 41.09L36.8 60.58C36.59 61.02 36.06 61.2 35.62 61L29.16 58.05C28.7 57.84 28.5 57.29 28.73 56.83L38.44 37.47C38.64 37.06 39.13 36.89 39.55 37.07V37.07Z" stroke="#1D1C1A" stroke-miterlimit="10" stroke-linecap="round"/>
<path d="M67.51 38.14L61 40.16C60.55 40.3 60.33 40.74 60.51 41.14L68.64 58.91C68.82 59.31 69.32 59.51 69.77 59.36L76.3 57.26C76.77 57.11 77 56.64 76.8 56.23L68.57 38.57C68.4 38.2 67.93 38.01 67.51 38.14V38.14Z" stroke="#1D1C1A" stroke-miterlimit="10"/>
<path d="M29.73 58.4L22.57 73.7" stroke="#1D1C1A" stroke-miterlimit="10"/>
<path d="M35.21 61.07L27.93 76.11" stroke="#1D1C1A" stroke-miterlimit="10"/>
<path d="M16.54 82.92L21.21 73.61C21.29 73.46 21.46 73.38 21.62 73.42C22.77 73.72 27.18 74.97 28.98 77.03C29.08 77.15 29.1 77.32 29.03 77.46L24.54 86.89L16.54 82.91V82.92Z" stroke="#1D1C1A" stroke-miterlimit="10"/>
<path d="M17.3 83.3V85.77C17.3 85.98 17.42 86.18 17.62 86.27L21.24 88C21.42 88.09 21.63 88.07 21.79 87.96L23.85 86.56" stroke="#1D1C1A" stroke-miterlimit="10"/>
<path d="M18.69 86.79L16.77 90.25" stroke="#1D1C1A" stroke-miterlimit="10"/>
<path d="M20.12 87.48L18.31 91.05" stroke="#1D1C1A" stroke-miterlimit="10"/>
<path d="M14.65 89.16L20.74 92.3C20.93 92.4 21.07 92.58 21.11 92.79L21.69 95.84C21.72 95.99 21.69 96.16 21.62 96.3L20.97 97.56C20.89 97.71 20.77 97.82 20.62 97.88L17.6 99.16C17.41 99.24 17.2 99.23 17.02 99.15L12.26 96.86C12.1 96.78 11.97 96.64 11.91 96.48L10.46 92.67C10.41 92.53 10.4 92.39 10.44 92.25L10.79 90.87C10.84 90.66 10.99 90.49 11.19 90.4L14.06 89.14C14.25 89.06 14.48 89.06 14.67 89.16H14.65Z" stroke="#1D1C1A" stroke-miterlimit="10"/>
<path d="M70.3 59.19L76.46 71.94" stroke="#1D1C1A" stroke-miterlimit="10"/>
<path d="M75.75 57.44L81.58 69.6" stroke="#1D1C1A" stroke-miterlimit="10"/>
<path d="M74.91 72.25L78.76 80.08C78.87 80.3 79.07 80.45 79.31 80.49C80.15 80.63 82.19 80.87 83.56 80.06C84.93 79.25 85.75 77.75 86.08 77.07C86.18 76.86 86.18 76.61 86.08 76.4L82.31 69.06C82.18 68.8 81.79 68.84 81.72 69.13C81.49 70.08 80.93 71.47 79.59 71.85C78.11 72.28 76.21 71.94 75.24 71.71C74.98 71.65 74.77 71.91 74.88 72.15L74.93 72.25H74.91Z" stroke="#1D1C1A" stroke-miterlimit="10"/>
<path d="M80.69 80.63L81.3 81.71C81.37 81.83 81.49 81.9 81.63 81.9C82.14 81.9 83.39 81.84 84.12 81.54C84.85 81.24 85.61 80.24 85.93 79.79C86.02 79.66 86.02 79.49 85.93 79.36L85.27 78.45" stroke="#1D1C1A" stroke-miterlimit="10"/>
<path d="M83.16 82.29C82.9 82.47 82.65 82.67 82.41 82.88C82.06 83.19 81.45 83.73 81.54 84.26C81.58 84.47 81.74 84.64 81.93 84.74C82.51 85.04 83.24 84.93 83.86 84.89C85.3 84.78 86.74 84.38 87.85 83.42C88.06 83.24 88.26 83.04 88.38 82.79C88.43 82.68 88.47 82.56 88.45 82.44C88.42 82.24 88.23 82.11 88.06 82.01C87.18 81.53 86.04 81.45 85.06 81.48" stroke="#1D1C1A" stroke-miterlimit="10"/>
<path d="M82.92 81.81C83.28 82.54 83.64 83.28 84 84.01C84.02 84.05 84.04 84.09 84.07 84.12C84.13 84.16 84.21 84.15 84.28 84.14C84.93 84.02 85.59 83.76 86.01 83.26C86.03 83.23 86.05 83.21 86.06 83.17C86.1 83.05 86 82.95 85.94 82.87C85.86 82.75 85.78 82.62 85.7 82.49L85.12 81.57L84.81 81.08" stroke="#1D1C1A" stroke-miterlimit="10"/>
<path d="M81.54 84.25C81.44 84.73 81.34 85.21 81.24 85.69C81.12 86.3 80.84 87.05 80.97 87.66C81.01 87.87 81.11 88.06 81.21 88.25C81.5 88.78 81.98 89.07 82.52 89.29C83.12 89.54 83.68 89.9 84.32 90.04C85 90.18 85.7 89.98 86.33 89.72C86.96 89.46 87.52 89.14 88.15 88.93C88.5 88.81 88.86 88.72 89.17 88.54C90 88.07 90.26 86.77 90.71 85.99C91.06 85.38 91.07 85 90.92 84.31C90.85 84 90.82 83.68 90.65 83.41C90.46 83.12 90.13 82.94 89.81 82.81C89.29 82.6 88.79 82.37 88.28 82.14" stroke="#1D1C1A" stroke-miterlimit="10"/>
<path d="M34.23 47.82C35.31 47.95 36.4 48.1 37.42 48.47C38.5 48.86 39.31 49.55 40.23 50.21" stroke="#1D1C1A" stroke-miterlimit="10" stroke-linecap="round"/>
<path d="M33.28 49.51C34.36 49.64 35.45 49.79 36.47 50.16C37.55 50.55 38.36 51.24 39.28 51.9" stroke="#1D1C1A" stroke-miterlimit="10" stroke-linecap="round"/>
<path d="M32.37 51.58C33.45 51.71 34.54 51.86 35.56 52.23C36.64 52.62 37.45 53.31 38.37 53.97" stroke="#1D1C1A" stroke-miterlimit="10" stroke-linecap="round"/>
<path d="M31.43 53.35C32.51 53.48 33.6 53.63 34.62 54C35.7 54.39 36.51 55.08 37.43 55.74" stroke="#1D1C1A" stroke-miterlimit="10" stroke-linecap="round"/>
<path d="M30.43 55.2C31.51 55.33 32.6 55.48 33.62 55.85C34.7 56.24 35.51 56.93 36.43 57.59" stroke="#1D1C1A" stroke-miterlimit="10" stroke-linecap="round"/>
<path d="M65.44 50C66.04 49.98 66.63 49.91 67.22 49.86C67.81 49.81 68.47 49.71 69.02 49.41C69.8 48.98 70.46 48.18 71.04 47.52" stroke="#1D1C1A" stroke-miterlimit="10" stroke-linecap="round"/>
<path d="M66.56 51.79C67.16 51.77 67.75 51.7 68.34 51.65C68.93 51.6 69.59 51.5 70.14 51.2C70.92 50.77 71.58 49.97 72.16 49.31" stroke="#1D1C1A" stroke-miterlimit="10" stroke-linecap="round"/>
<path d="M67.34 53.41C67.94 53.39 68.53 53.32 69.12 53.27C69.71 53.22 70.37 53.12 70.92 52.82C71.7 52.39 72.36 51.59 72.94 50.93" stroke="#1D1C1A" stroke-miterlimit="10" stroke-linecap="round"/>
<path d="M68.24 54.93C68.84 54.91 69.43 54.84 70.02 54.79C70.61 54.74 71.27 54.64 71.82 54.34C72.6 53.91 73.26 53.11 73.84 52.45" stroke="#1D1C1A" stroke-miterlimit="10" stroke-linecap="round"/>
<path d="M69.06 56.44C69.66 56.42 70.25 56.35 70.84 56.3C71.43 56.25 72.09 56.15 72.64 55.85C73.42 55.42 74.08 54.62 74.66 53.96" stroke="#1D1C1A" stroke-miterlimit="10" stroke-linecap="round"/>
<path d="M22.04 74.94L18.17 82.6" stroke="#1D1C1A" stroke-miterlimit="10" stroke-linecap="round"/>
<path d="M23.46 75.64L19.59 83.3" stroke="#1D1C1A" stroke-miterlimit="10" stroke-linecap="round"/>
<path d="M24.92 76.33L21.05 83.99" stroke="#1D1C1A" stroke-miterlimit="10" stroke-linecap="round"/>
<path d="M26.68 77.26L22.8 84.92" stroke="#1D1C1A" stroke-miterlimit="10" stroke-linecap="round"/>
<path d="M77.33 73.46L80.07 79.46" stroke="#1D1C1A" stroke-miterlimit="10" stroke-linecap="round"/>
<path d="M79.13 73.11L81.87 79.11" stroke="#1D1C1A" stroke-miterlimit="10" stroke-linecap="round"/>
<path d="M80.88 72.29L83.62 78.3" stroke="#1D1C1A" stroke-miterlimit="10" stroke-linecap="round"/>
</g>
<defs>
<clipPath id="clip0_5626_30386">
<rect width="100" height="100" fill="white"/>
</clipPath>
</defs>
</svg>
