<svg width="100" height="100" viewBox="0 0 100 100" fill="none" xmlns="http://www.w3.org/2000/svg">
<path d="M50 90C72.0914 90 90 72.0914 90 50C90 27.9086 72.0914 10 50 10C27.9086 10 10 27.9086 10 50C10 72.0914 27.9086 90 50 90Z" fill="#A1DCEF"/>
<path d="M9.78002 71.4101C35.21 74.0201 60.64 76.6301 86.07 79.2401C86.24 59.1101 86.41 38.9701 86.57 18.8401" stroke="#231F20" stroke-miterlimit="10"/>
<path d="M9.10002 22.1701L8.86002 22.1901C8.71002 39.2901 8.55002 56.3901 8.40002 73.4901C35.25 76.2501 62.1 79.0001 88.95 81.7601C89.13 59.9401 89.31 38.1301 89.5 16.3101C88.53 16.3801 87.55 16.4501 86.58 16.5201" stroke="#231F20" stroke-miterlimit="10"/>
<path d="M86.58 16.52C60.76 18.4 34.93 20.29 9.10002 22.17" stroke="#231F20" stroke-miterlimit="10"/>
<path d="M8.84002 24.8301H8.98002" stroke="#231F20" stroke-miterlimit="10"/>
<path d="M9.78002 71.41C9.86002 63.69 9.93002 55.97 9.99002 48.25C10.05 40.03 10.1 31.81 10.14 23.59C35.62 22 61.09 20.42 86.57 18.83L89.51 16.3" stroke="#231F20" stroke-miterlimit="10"/>
<path d="M8.87002 22.1801L10.14 23.5901" stroke="#231F20" stroke-miterlimit="10"/>
<path d="M9.78002 71.41L8.41002 73.48" stroke="#231F20" stroke-miterlimit="10"/>
<path d="M86.06 79.25L88.96 81.76" stroke="#231F20" stroke-miterlimit="10"/>
<path d="M82.51 22.18C82.29 38.79 82.06 55.39 81.84 72C59.31 70.19 36.78 68.37 14.25 66.56C14.28 53.12 14.32 39.67 14.35 26.23L82.51 22.18ZM82.51 21.38C82.51 21.38 82.48 21.38 82.46 21.38L14.3 25.43C13.88 25.46 13.55 25.8 13.55 26.23L13.45 66.5V66.56C13.45 66.98 13.77 67.33 14.19 67.36L64.23 71.39L81.78 72.8C81.78 72.8 81.82 72.8 81.84 72.8C82.04 72.8 82.23 72.73 82.38 72.59C82.54 72.44 82.64 72.23 82.64 72.01L82.97 47.1L83.3 22.19C83.3 21.97 83.21 21.75 83.05 21.6C82.9 21.46 82.7 21.38 82.5 21.38H82.51Z" fill="#231F20"/>
<path d="M44.38 73.7401L44.57 70.4301L80.79 73.6701V77.4501L44.38 73.7301V73.7401Z" stroke="#231F20" stroke-linecap="round" stroke-linejoin="round"/>
<path d="M50.22 72.05C50.57 72.05 50.85 72.33 50.85 72.68C50.85 73.03 50.57 73.31 50.22 73.31C49.87 73.31 49.59 73.03 49.59 72.68C49.59 72.33 49.87 72.05 50.22 72.05ZM50.22 71.25C49.43 71.25 48.79 71.89 48.79 72.68C48.79 73.47 49.43 74.11 50.22 74.11C51.01 74.11 51.65 73.47 51.65 72.68C51.65 71.89 51.01 71.25 50.22 71.25Z" fill="#231F20"/>
<path d="M53.07 72.33C53.42 72.33 53.7 72.61 53.7 72.96C53.7 73.31 53.42 73.59 53.07 73.59C52.72 73.59 52.44 73.31 52.44 72.96C52.44 72.61 52.72 72.33 53.07 72.33ZM53.07 71.53C52.28 71.53 51.64 72.17 51.64 72.96C51.64 73.75 52.28 74.39 53.07 74.39C53.86 74.39 54.5 73.75 54.5 72.96C54.5 72.17 53.86 71.53 53.07 71.53Z" fill="#231F20"/>
<path d="M55.92 72.6201C56.27 72.6201 56.55 72.9001 56.55 73.2501C56.55 73.6001 56.27 73.8801 55.92 73.8801C55.57 73.8801 55.29 73.6001 55.29 73.2501C55.29 72.9001 55.57 72.6201 55.92 72.6201ZM55.92 71.8201C55.13 71.8201 54.49 72.4601 54.49 73.2501C54.49 74.0401 55.13 74.6801 55.92 74.6801C56.71 74.6801 57.35 74.0401 57.35 73.2501C57.35 72.4601 56.71 71.8201 55.92 71.8201Z" fill="#231F20"/>
<path d="M58.77 72.9001C59.12 72.9001 59.4 73.1801 59.4 73.5301C59.4 73.8801 59.12 74.1601 58.77 74.1601C58.42 74.1601 58.14 73.8801 58.14 73.5301C58.14 73.1801 58.42 72.9001 58.77 72.9001ZM58.77 72.1001C57.98 72.1001 57.34 72.7401 57.34 73.5301C57.34 74.3201 57.98 74.9601 58.77 74.9601C59.56 74.9601 60.2 74.3201 60.2 73.5301C60.2 72.7401 59.56 72.1001 58.77 72.1001Z" fill="#231F20"/>
<path d="M61.63 73.19C61.98 73.19 62.26 73.47 62.26 73.82C62.26 74.17 61.98 74.45 61.63 74.45C61.28 74.45 61 74.17 61 73.82C61 73.47 61.28 73.19 61.63 73.19ZM61.63 72.39C60.84 72.39 60.2 73.03 60.2 73.82C60.2 74.61 60.84 75.25 61.63 75.25C62.42 75.25 63.06 74.61 63.06 73.82C63.06 73.03 62.42 72.39 61.63 72.39Z" fill="#231F20"/>
<path d="M47.35 71.84C47.35 71.84 47.62 72.15 47.55 72.49C47.48 72.84 47.11 73.08 46.75 73.06C46.4 73.03 46.07 72.76 46.04 72.4C46.01 72.03 46.3 71.78 46.33 71.76" stroke="#231F20" stroke-miterlimit="10" stroke-linecap="round"/>
<path d="M46.84 71.6001L46.8 72.1501" stroke="#231F20" stroke-linecap="round" stroke-linejoin="round"/>
<path d="M66.2915 73.8296L64.3903 73.6462L64.3135 74.4425L66.2147 74.6259L66.2915 73.8296Z" stroke="#231F20" stroke-linecap="round" stroke-linejoin="round"/>
<path d="M69.3983 74.1269L67.4972 73.9435L67.4203 74.7398L69.3215 74.9232L69.3983 74.1269Z" stroke="#231F20" stroke-linecap="round" stroke-linejoin="round"/>
<path d="M71.43 75.3701C71.789 75.3701 72.08 75.0791 72.08 74.7201C72.08 74.3611 71.789 74.0701 71.43 74.0701C71.071 74.0701 70.78 74.3611 70.78 74.7201C70.78 75.0791 71.071 75.3701 71.43 75.3701Z" stroke="#231F20" stroke-linecap="round" stroke-linejoin="round"/>
<path d="M89.4 25.8601L92.86 28.6801V71.3201C91.59 72.2901 90.33 73.2601 89.06 74.2201" stroke="#231F20" stroke-linecap="round" stroke-linejoin="round"/>
</svg>
