<svg width="100" height="100" viewBox="0 0 100 100" fill="none" xmlns="http://www.w3.org/2000/svg">
<path d="M50 90C72.0914 90 90 72.0914 90 50C90 27.9086 72.0914 10 50 10C27.9086 10 10 27.9086 10 50C10 72.0914 27.9086 90 50 90Z" fill="#A1DCEF"/>
<path d="M67.99 30.9401H53.21C51.4096 30.9401 49.95 32.3996 49.95 34.2001V45.3601C49.95 47.1605 51.4096 48.6201 53.21 48.6201H67.99C69.7905 48.6201 71.25 47.1605 71.25 45.3601V34.2001C71.25 32.3996 69.7905 30.9401 67.99 30.9401Z" stroke="#231F20" stroke-miterlimit="10"/>
<path d="M37.99 37.5801H30.17C28.3696 37.5801 26.91 39.0396 26.91 40.8401V46.2301C26.91 48.0305 28.3696 49.4901 30.17 49.4901H37.99C39.7905 49.4901 41.25 48.0305 41.25 46.2301V40.8401C41.25 39.0396 39.7905 37.5801 37.99 37.5801Z" stroke="#231F20" stroke-miterlimit="10"/>
<path d="M37.99 22.4401H30.17C28.3696 22.4401 26.91 23.8996 26.91 25.7001V31.0901C26.91 32.8905 28.3696 34.3501 30.17 34.3501H37.99C39.7905 34.3501 41.25 32.8905 41.25 31.0901V25.7001C41.25 23.8996 39.7905 22.4401 37.99 22.4401Z" stroke="#231F20" stroke-miterlimit="10"/>
<path d="M68.35 22.4401H60.53C58.7296 22.4401 57.27 23.8996 57.27 25.7001V31.0901C57.27 32.8905 58.7296 34.3501 60.53 34.3501H68.35C70.1505 34.3501 71.61 32.8905 71.61 31.0901V25.7001C71.61 23.8996 70.1505 22.4401 68.35 22.4401Z" fill="#A1DCEF" stroke="#231F20" stroke-miterlimit="10"/>
<path d="M57.37 25.2501H41.25V27.2101H57.37V25.2501Z" stroke="#231F20" stroke-miterlimit="10"/>
<path d="M44.85 29.5901H37.03C35.2296 29.5901 33.77 31.0496 33.77 32.8501V38.2401C33.77 40.0405 35.2296 41.5001 37.03 41.5001H44.85C46.6505 41.5001 48.11 40.0405 48.11 38.2401V32.8501C48.11 31.0496 46.6505 29.5901 44.85 29.5901Z" fill="#A1DCEF" stroke="#231F20" stroke-miterlimit="10"/>
<path d="M80.98 56.28H19.11V15.65H80.98V56.28V56.28ZM19.28 56.11H80.81V15.82H19.28V56.11V56.11Z" stroke="#231F20" stroke-miterlimit="10"/>
<path d="M88.56 77.52H10.59L19.07 56.12H80.89L80.91 56.18L88.56 77.53V77.52ZM10.84 77.35H88.32L80.77 56.29H19.18L10.84 77.35V77.35Z" stroke="#231F20" stroke-miterlimit="10"/>
<path d="M77.17 52.8801H22.92V19.0601H77.18V52.8801H77.17ZM23.08 52.7101H77V19.2301H23.09V52.7101H23.08Z" stroke="#231F20" stroke-miterlimit="10"/>
<path d="M83.73 75.67H14.79L21.95 57.96H77.34L77.36 58.02L83.73 75.68V75.67ZM15.05 75.5H83.49L77.22 58.13H22.07L15.05 75.5V75.5Z" stroke="#231F20" stroke-miterlimit="10"/>
<path d="M24.15 59.5901H22.77C22.55 59.5901 22.38 59.4101 22.38 59.2001C22.38 58.9901 22.56 58.8101 22.77 58.8101H24.15C24.37 58.8101 24.54 58.9901 24.54 59.2001C24.54 59.4101 24.36 59.5901 24.15 59.5901V59.5901ZM22.77 58.9801C22.65 58.9801 22.55 59.0801 22.55 59.2001C22.55 59.3201 22.65 59.4201 22.77 59.4201H24.15C24.27 59.4201 24.37 59.3201 24.37 59.2001C24.37 59.0801 24.27 58.9801 24.15 58.9801H22.77Z" stroke="#231F20" stroke-width="0.6" stroke-miterlimit="10"/>
<path d="M29.02 69.18H25.93V67.02H29.02V69.18V69.18ZM26.1 69.01H28.85V67.19H26.1V69.01Z" stroke="#231F20" stroke-width="0.6" stroke-miterlimit="10"/>
<path d="M33.41 69.18H30.32V67.02H33.41V69.18V69.18ZM30.49 69.01H33.24V67.19H30.49V69.01Z" stroke="#231F20" stroke-width="0.6" stroke-miterlimit="10"/>
<path d="M37.59 69.18H34.5V67.02H37.59V69.18V69.18ZM34.67 69.01H37.42V67.19H34.67V69.01Z" stroke="#231F20" stroke-width="0.6" stroke-miterlimit="10"/>
<path d="M42.1 69.18H39.01V67.02H42.1V69.18V69.18ZM39.18 69.01H41.93V67.19H39.18V69.01Z" stroke="#231F20" stroke-width="0.6" stroke-miterlimit="10"/>
<path d="M46.48 69.18H43.39V67.02H46.48V69.18V69.18ZM43.56 69.01H46.31V67.19H43.56V69.01Z" stroke="#231F20" stroke-width="0.6" stroke-miterlimit="10"/>
<path d="M50.49 69.18H47.4V67.02H50.49V69.18V69.18ZM47.57 69.01H50.32V67.19H47.57V69.01Z" stroke="#231F20" stroke-width="0.6" stroke-miterlimit="10"/>
<path d="M55.08 69.18H51.99V67.02H55.08V69.18V69.18ZM52.16 69.01H54.91V67.19H52.16V69.01Z" stroke="#231F20" stroke-width="0.6" stroke-miterlimit="10"/>
<path d="M59.74 69.18H56.65V67.02H59.74V69.18V69.18ZM56.82 69.01H59.57V67.19H56.82V69.01Z" stroke="#231F20" stroke-width="0.6" stroke-miterlimit="10"/>
<path d="M63.95 69.18H60.86V67.02H63.95V69.18V69.18ZM61.03 69.01H63.78V67.19H61.03V69.01Z" stroke="#231F20" stroke-width="0.6" stroke-miterlimit="10"/>
<path d="M67.79 69.18H64.7V67.02H67.79V69.18V69.18ZM64.87 69.01H67.62V67.19H64.87V69.01Z" stroke="#231F20" stroke-width="0.6" stroke-miterlimit="10"/>
<path d="M71.84 69.18H68.75V67.02H71.84V69.18V69.18ZM68.92 69.01H71.67V67.19H68.92V69.01Z" stroke="#231F20" stroke-width="0.6" stroke-miterlimit="10"/>
<path d="M25.66 62.8601H22.57V60.7001H25.66V62.8601ZM22.74 62.6901H25.49V60.8701H22.74V62.6901Z" stroke="#231F20" stroke-width="0.6" stroke-miterlimit="10"/>
<path d="M42.41 62.8601H39.32V60.7001H42.41V62.8601ZM39.49 62.6901H42.24V60.8701H39.49V62.6901Z" stroke="#231F20" stroke-width="0.6" stroke-miterlimit="10"/>
<path d="M75.2 62.8601H72.11V60.7001H75.2V62.8601ZM72.28 62.6901H75.03V60.8701H72.28V62.6901Z" stroke="#231F20" stroke-width="0.6" stroke-miterlimit="10"/>
<path d="M71.15 62.8601H68.06V60.7001H71.15V62.8601V62.8601ZM68.23 62.6901H70.98V60.8701H68.23V62.6901Z" stroke="#231F20" stroke-width="0.6" stroke-miterlimit="10"/>
<path d="M67.0201 62.8601H63.9301V60.7001H67.0201V62.8601V62.8601ZM64.1001 62.6901H66.8501V60.8701H64.1001V62.6901Z" stroke="#231F20" stroke-width="0.6" stroke-miterlimit="10"/>
<path d="M62.74 62.8601H59.65V60.7001H62.74V62.8601V62.8601ZM59.82 62.6901H62.57V60.8701H59.82V62.6901Z" stroke="#231F20" stroke-width="0.6" stroke-miterlimit="10"/>
<path d="M58.92 62.8601H55.83V60.7001H58.92V62.8601ZM56 62.6901H58.75V60.8701H56V62.6901Z" stroke="#231F20" stroke-width="0.6" stroke-miterlimit="10"/>
<path d="M54.79 62.8601H51.7V60.7001H54.79V62.8601V62.8601ZM51.87 62.6901H54.62V60.8701H51.87V62.6901Z" stroke="#231F20" stroke-width="0.6" stroke-miterlimit="10"/>
<path d="M50.93 62.8601H47.84V60.7001H50.93V62.8601V62.8601ZM48.01 62.6901H50.76V60.8701H48.01V62.6901Z" stroke="#231F20" stroke-width="0.6" stroke-miterlimit="10"/>
<path d="M46.92 62.8601H43.83V60.7001H46.92V62.8601ZM44 62.6901H46.75V60.8701H44V62.6901Z" stroke="#231F20" stroke-width="0.6" stroke-miterlimit="10"/>
<path d="M37.82 62.8601H34.73V60.7001H37.82V62.8601ZM34.9 62.6901H37.65V60.8701H34.9V62.6901Z" stroke="#231F20" stroke-width="0.6" stroke-miterlimit="10"/>
<path d="M33.84 62.8601H30.75V60.7001H33.84V62.8601ZM30.92 62.6901H33.67V60.8701H30.92V62.6901Z" stroke="#231F20" stroke-width="0.6" stroke-miterlimit="10"/>
<path d="M29.87 62.8601H26.78V60.7001H29.87V62.8601ZM26.95 62.6901H29.7V60.8701H26.95V62.6901Z" stroke="#231F20" stroke-width="0.6" stroke-miterlimit="10"/>
<path d="M25.66 66.1201H22.57V63.9601H25.66V66.1201V66.1201ZM22.74 65.9501H25.49V64.1301H22.74V65.9501Z" stroke="#231F20" stroke-width="0.6" stroke-miterlimit="10"/>
<path d="M42.41 66.1201H39.32V63.9601H42.41V66.1201V66.1201ZM39.49 65.9501H42.24V64.1301H39.49V65.9501Z" stroke="#231F20" stroke-width="0.6" stroke-miterlimit="10"/>
<path d="M75.2 66.1201H72.11V63.9601H75.2V66.1201V66.1201ZM72.28 65.9501H75.03V64.1301H72.28V65.9501Z" stroke="#231F20" stroke-width="0.6" stroke-miterlimit="10"/>
<path d="M71.15 66.1201H68.06V63.9601H71.15V66.1201V66.1201ZM68.23 65.9501H70.98V64.1301H68.23V65.9501Z" stroke="#231F20" stroke-width="0.6" stroke-miterlimit="10"/>
<path d="M67.0201 66.1201H63.9301V63.9601H67.0201V66.1201V66.1201ZM64.1001 65.9501H66.8501V64.1301H64.1001V65.9501Z" stroke="#231F20" stroke-width="0.6" stroke-miterlimit="10"/>
<path d="M62.74 66.1201H59.65V63.9601H62.74V66.1201V66.1201ZM59.82 65.9501H62.57V64.1301H59.82V65.9501Z" stroke="#231F20" stroke-width="0.6" stroke-miterlimit="10"/>
<path d="M58.92 66.1201H55.83V63.9601H58.92V66.1201V66.1201ZM56 65.9501H58.75V64.1301H56V65.9501Z" stroke="#231F20" stroke-width="0.6" stroke-miterlimit="10"/>
<path d="M54.79 66.1201H51.7V63.9601H54.79V66.1201V66.1201ZM51.87 65.9501H54.62V64.1301H51.87V65.9501Z" stroke="#231F20" stroke-width="0.6" stroke-miterlimit="10"/>
<path d="M50.93 66.1201H47.84V63.9601H50.93V66.1201V66.1201ZM48.01 65.9501H50.76V64.1301H48.01V65.9501Z" stroke="#231F20" stroke-width="0.6" stroke-miterlimit="10"/>
<path d="M46.92 66.1201H43.83V63.9601H46.92V66.1201V66.1201ZM44 65.9501H46.75V64.1301H44V65.9501Z" stroke="#231F20" stroke-width="0.6" stroke-miterlimit="10"/>
<path d="M37.82 66.1201H34.73V63.9601H37.82V66.1201V66.1201ZM34.9 65.9501H37.65V64.1301H34.9V65.9501Z" stroke="#231F20" stroke-width="0.6" stroke-miterlimit="10"/>
<path d="M33.84 66.1201H30.75V63.9601H33.84V66.1201V66.1201ZM30.92 65.9501H33.67V64.1301H30.92V65.9501Z" stroke="#231F20" stroke-width="0.6" stroke-miterlimit="10"/>
<path d="M29.87 66.1201H26.78V63.9601H29.87V66.1201V66.1201ZM26.95 65.9501H29.7V64.1301H26.95V65.9501Z" stroke="#231F20" stroke-width="0.6" stroke-miterlimit="10"/>
<path d="M59.3 73.1501H37.3C36.59 73.1501 36.01 72.5701 36.01 71.8601C36.01 71.1501 36.59 70.5701 37.3 70.5701H59.3C60.01 70.5701 60.59 71.1501 60.59 71.8601C60.59 72.5701 60.01 73.1501 59.3 73.1501ZM37.3 70.7401C36.68 70.7401 36.18 71.2401 36.18 71.8601C36.18 72.4801 36.68 72.9801 37.3 72.9801H59.3C59.92 72.9801 60.42 72.4801 60.42 71.8601C60.42 71.2401 59.92 70.7401 59.3 70.7401H37.3V70.7401Z" stroke="#231F20" stroke-width="0.6" stroke-miterlimit="10"/>
<path d="M88.52 79.9601H10.63V77.4301H10.8V79.7901H88.35V77.4301H88.52V79.9601Z" stroke="#231F20" stroke-miterlimit="10"/>
</svg>
