<svg width="100" height="100" viewBox="0 0 100 100" fill="none" xmlns="http://www.w3.org/2000/svg">
<path d="M50 90C72.0914 90 90 72.0914 90 50C90 27.9086 72.0914 10 50 10C27.9086 10 10 27.9086 10 50C10 72.0914 27.9086 90 50 90Z" fill="#A1DCEF"/>
<path d="M81 56.73H19.13V16.1H81V56.73ZM19.3 56.56H80.83V16.27H19.3V56.56V56.56Z" stroke="#231F20" stroke-miterlimit="10"/>
<path d="M88.58 77.97H10.61L19.09 56.57H80.91L80.93 56.63L88.58 77.98V77.97ZM10.86 77.8H88.33L80.78 56.74H19.2L10.86 77.8V77.8Z" stroke="#231F20" stroke-miterlimit="10"/>
<path d="M77.19 53.33H22.94V19.5H77.2V53.33H77.19ZM23.1 53.16H77.02V19.67H23.11V53.16H23.1Z" stroke="#231F20" stroke-miterlimit="10"/>
<path d="M83.75 76.12H14.81L21.97 58.41H77.36L77.38 58.47L83.75 76.13V76.12ZM15.07 75.95H83.51L77.24 58.58H22.09L15.07 75.95V75.95Z" stroke="#231F20" stroke-miterlimit="10"/>
<path d="M24.17 60.04H22.79C22.57 60.04 22.4 59.86 22.4 59.65C22.4 59.44 22.58 59.26 22.79 59.26H24.17C24.39 59.26 24.56 59.44 24.56 59.65C24.56 59.86 24.38 60.04 24.17 60.04V60.04ZM22.79 59.43C22.67 59.43 22.57 59.53 22.57 59.65C22.57 59.77 22.67 59.87 22.79 59.87H24.17C24.29 59.87 24.39 59.77 24.39 59.65C24.39 59.53 24.29 59.43 24.17 59.43H22.79Z" stroke="#231F20" stroke-width="0.5" stroke-miterlimit="10"/>
<path d="M29.04 69.63H25.95V67.47H29.04V69.63V69.63ZM26.12 69.46H28.87V67.64H26.12V69.46Z" stroke="#231F20" stroke-width="0.5" stroke-miterlimit="10"/>
<path d="M33.42 69.63H30.33V67.47H33.42V69.63V69.63ZM30.5 69.46H33.25V67.64H30.5V69.46Z" stroke="#231F20" stroke-width="0.5" stroke-miterlimit="10"/>
<path d="M37.61 69.63H34.52V67.47H37.61V69.63V69.63ZM34.69 69.46H37.44V67.64H34.69V69.46Z" stroke="#231F20" stroke-width="0.5" stroke-miterlimit="10"/>
<path d="M42.12 69.63H39.03V67.47H42.12V69.63V69.63ZM39.2 69.46H41.95V67.64H39.2V69.46Z" stroke="#231F20" stroke-width="0.5" stroke-miterlimit="10"/>
<path d="M46.5 69.63H43.41V67.47H46.5V69.63V69.63ZM43.58 69.46H46.33V67.64H43.58V69.46Z" stroke="#231F20" stroke-width="0.5" stroke-miterlimit="10"/>
<path d="M50.51 69.63H47.42V67.47H50.51V69.63V69.63ZM47.59 69.46H50.34V67.64H47.59V69.46Z" stroke="#231F20" stroke-width="0.5" stroke-miterlimit="10"/>
<path d="M55.1 69.63H52.01V67.47H55.1V69.63V69.63ZM52.18 69.46H54.93V67.64H52.18V69.46Z" stroke="#231F20" stroke-width="0.5" stroke-miterlimit="10"/>
<path d="M59.76 69.63H56.67V67.47H59.76V69.63V69.63ZM56.84 69.46H59.59V67.64H56.84V69.46Z" stroke="#231F20" stroke-width="0.5" stroke-miterlimit="10"/>
<path d="M63.97 69.63H60.88V67.47H63.97V69.63V69.63ZM61.05 69.46H63.8V67.64H61.05V69.46Z" stroke="#231F20" stroke-width="0.5" stroke-miterlimit="10"/>
<path d="M67.81 69.63H64.72V67.47H67.81V69.63V69.63ZM64.89 69.46H67.64V67.64H64.89V69.46Z" stroke="#231F20" stroke-width="0.5" stroke-miterlimit="10"/>
<path d="M71.86 69.63H68.77V67.47H71.86V69.63V69.63ZM68.94 69.46H71.69V67.64H68.94V69.46Z" stroke="#231F20" stroke-width="0.5" stroke-miterlimit="10"/>
<path d="M25.68 63.3H22.59V61.14H25.68V63.3ZM22.76 63.13H25.51V61.31H22.76V63.13Z" stroke="#231F20" stroke-width="0.5" stroke-miterlimit="10"/>
<path d="M42.43 63.3H39.34V61.14H42.43V63.3ZM39.51 63.13H42.26V61.31H39.51V63.13Z" stroke="#231F20" stroke-width="0.5" stroke-miterlimit="10"/>
<path d="M75.22 63.3H72.13V61.14H75.22V63.3ZM72.3 63.13H75.05V61.31H72.3V63.13Z" stroke="#231F20" stroke-width="0.5" stroke-miterlimit="10"/>
<path d="M71.17 63.3H68.08V61.14H71.17V63.3ZM68.25 63.13H71V61.31H68.25V63.13Z" stroke="#231F20" stroke-width="0.5" stroke-miterlimit="10"/>
<path d="M67.04 63.3H63.95V61.14H67.04V63.3V63.3ZM64.12 63.13H66.87V61.31H64.12V63.13Z" stroke="#231F20" stroke-width="0.5" stroke-miterlimit="10"/>
<path d="M62.76 63.3H59.67V61.14H62.76V63.3V63.3ZM59.84 63.13H62.59V61.31H59.84V63.13Z" stroke="#231F20" stroke-width="0.5" stroke-miterlimit="10"/>
<path d="M58.94 63.3H55.85V61.14H58.94V63.3ZM56.02 63.13H58.77V61.31H56.02V63.13Z" stroke="#231F20" stroke-width="0.5" stroke-miterlimit="10"/>
<path d="M54.81 63.3H51.72V61.14H54.81V63.3ZM51.89 63.13H54.64V61.31H51.89V63.13Z" stroke="#231F20" stroke-width="0.5" stroke-miterlimit="10"/>
<path d="M50.95 63.3H47.86V61.14H50.95V63.3ZM48.03 63.13H50.78V61.31H48.03V63.13Z" stroke="#231F20" stroke-width="0.5" stroke-miterlimit="10"/>
<path d="M46.94 63.3H43.85V61.14H46.94V63.3ZM44.02 63.13H46.77V61.31H44.02V63.13Z" stroke="#231F20" stroke-width="0.5" stroke-miterlimit="10"/>
<path d="M37.84 63.3H34.75V61.14H37.84V63.3ZM34.92 63.13H37.67V61.31H34.92V63.13Z" stroke="#231F20" stroke-width="0.5" stroke-miterlimit="10"/>
<path d="M33.86 63.3H30.77V61.14H33.86V63.3ZM30.94 63.13H33.69V61.31H30.94V63.13Z" stroke="#231F20" stroke-width="0.5" stroke-miterlimit="10"/>
<path d="M29.88 63.3H26.79V61.14H29.88V63.3ZM26.96 63.13H29.71V61.31H26.96V63.13Z" stroke="#231F20" stroke-width="0.5" stroke-miterlimit="10"/>
<path d="M25.68 66.57H22.59V64.41H25.68V66.57V66.57ZM22.76 66.4H25.51V64.58H22.76V66.4Z" stroke="#231F20" stroke-width="0.5" stroke-miterlimit="10"/>
<path d="M42.43 66.57H39.34V64.41H42.43V66.57V66.57ZM39.51 66.4H42.26V64.58H39.51V66.4Z" stroke="#231F20" stroke-width="0.5" stroke-miterlimit="10"/>
<path d="M75.22 66.57H72.13V64.41H75.22V66.57V66.57ZM72.3 66.4H75.05V64.58H72.3V66.4Z" stroke="#231F20" stroke-width="0.5" stroke-miterlimit="10"/>
<path d="M71.17 66.57H68.08V64.41H71.17V66.57V66.57ZM68.25 66.4H71V64.58H68.25V66.4Z" stroke="#231F20" stroke-width="0.5" stroke-miterlimit="10"/>
<path d="M67.04 66.57H63.95V64.41H67.04V66.57V66.57ZM64.12 66.4H66.87V64.58H64.12V66.4Z" stroke="#231F20" stroke-width="0.5" stroke-miterlimit="10"/>
<path d="M62.76 66.57H59.67V64.41H62.76V66.57V66.57ZM59.84 66.4H62.59V64.58H59.84V66.4Z" stroke="#231F20" stroke-width="0.5" stroke-miterlimit="10"/>
<path d="M58.94 66.57H55.85V64.41H58.94V66.57V66.57ZM56.02 66.4H58.77V64.58H56.02V66.4Z" stroke="#231F20" stroke-width="0.5" stroke-miterlimit="10"/>
<path d="M54.81 66.57H51.72V64.41H54.81V66.57V66.57ZM51.89 66.4H54.64V64.58H51.89V66.4Z" stroke="#231F20" stroke-width="0.5" stroke-miterlimit="10"/>
<path d="M50.95 66.57H47.86V64.41H50.95V66.57V66.57ZM48.03 66.4H50.78V64.58H48.03V66.4Z" stroke="#231F20" stroke-width="0.5" stroke-miterlimit="10"/>
<path d="M46.94 66.57H43.85V64.41H46.94V66.57V66.57ZM44.02 66.4H46.77V64.58H44.02V66.4Z" stroke="#231F20" stroke-width="0.5" stroke-miterlimit="10"/>
<path d="M37.84 66.57H34.75V64.41H37.84V66.57V66.57ZM34.92 66.4H37.67V64.58H34.92V66.4Z" stroke="#231F20" stroke-width="0.5" stroke-miterlimit="10"/>
<path d="M33.86 66.57H30.77V64.41H33.86V66.57V66.57ZM30.94 66.4H33.69V64.58H30.94V66.4Z" stroke="#231F20" stroke-width="0.5" stroke-miterlimit="10"/>
<path d="M29.88 66.57H26.79V64.41H29.88V66.57V66.57ZM26.96 66.4H29.71V64.58H26.96V66.4Z" stroke="#231F20" stroke-width="0.5" stroke-miterlimit="10"/>
<path d="M59.32 73.6H37.32C36.61 73.6 36.03 73.02 36.03 72.31C36.03 71.6 36.61 71.02 37.32 71.02H59.32C60.03 71.02 60.61 71.6 60.61 72.31C60.61 73.02 60.03 73.6 59.32 73.6ZM37.32 71.19C36.7 71.19 36.2 71.69 36.2 72.31C36.2 72.93 36.7 73.43 37.32 73.43H59.32C59.94 73.43 60.44 72.93 60.44 72.31C60.44 71.69 59.94 71.19 59.32 71.19H37.32Z" stroke="#231F20" stroke-width="0.5" stroke-miterlimit="10"/>
<path d="M88.54 80.41H10.65V77.88H10.82V80.24H88.37V77.88H88.54V80.41Z" stroke="#231F20" stroke-miterlimit="10"/>
</svg>
