<svg width="100" height="100" viewBox="0 0 100 100" fill="none" xmlns="http://www.w3.org/2000/svg">
<path d="M50.7781 90C73.2992 90 91.5561 72.0914 91.5561 50C91.5561 27.9086 73.2992 10 50.7781 10C28.257 10 10 27.9086 10 50C10 72.0914 28.257 90 50.7781 90Z" fill="#A1DCEF"/>
<path d="M82.5238 69.68L85.052 17.6L17.8804 23.45L16.2492 65.23L82.5238 69.68Z" stroke="#231F20" stroke-linejoin="bevel"/>
<path d="M88.1308 14.59L85.052 72.34L55.9263 70.1L46.8328 69.4L13.7312 66.84L15.3521 21.32L88.1308 14.59Z" stroke="#231F20" stroke-linejoin="bevel"/>
<path d="M90.4755 16.18L88.1206 14.59L85.052 72.34L86.4079 71.63L90.4755 16.18Z" stroke="#231F20" stroke-linejoin="bevel"/>
<path d="M28.0851 67.2C28.3159 67.2 28.5031 67.0164 28.5031 66.79C28.5031 66.5636 28.3159 66.38 28.0851 66.38C27.8542 66.38 27.6671 66.5636 27.6671 66.79C27.6671 67.0164 27.8542 67.2 28.0851 67.2Z" stroke="#231F20" stroke-miterlimit="10"/>
<path d="M26.1889 67.07C26.4198 67.07 26.6069 66.8864 26.6069 66.66C26.6069 66.4336 26.4198 66.25 26.1889 66.25C25.9581 66.25 25.7709 66.4336 25.7709 66.66C25.7709 66.8864 25.9581 67.07 26.1889 67.07Z" stroke="#231F20" stroke-miterlimit="10"/>
<path d="M24.2927 66.95C24.5236 66.95 24.7107 66.7664 24.7107 66.54C24.7107 66.3136 24.5236 66.13 24.2927 66.13C24.0619 66.13 23.8748 66.3136 23.8748 66.54C23.8748 66.7664 24.0619 66.95 24.2927 66.95Z" stroke="#231F20" stroke-miterlimit="10"/>
<path d="M17.2483 66.53C17.5411 66.53 17.7784 66.2972 17.7784 66.01C17.7784 65.7228 17.5411 65.49 17.2483 65.49C16.9555 65.49 16.7182 65.7228 16.7182 66.01C16.7182 66.2972 16.9555 66.53 17.2483 66.53Z" stroke="#231F20" stroke-miterlimit="10"/>
<path d="M22.3966 66.83C22.6274 66.83 22.8145 66.6464 22.8145 66.42C22.8145 66.1936 22.6274 66.01 22.3966 66.01C22.1657 66.01 21.9786 66.1936 21.9786 66.42C21.9786 66.6464 22.1657 66.83 22.3966 66.83Z" stroke="#231F20" stroke-miterlimit="10"/>
<path d="M55.9263 70.1L55.804 71.16L53.9282 74.52L52.3378 77.38L51.5325 78.83V81.01L42.0822 80.13V77.88L42.6327 77L44.3861 74.19L46.8328 70.27V69.4L55.9263 70.1Z" stroke="#231F20" stroke-linejoin="bevel"/>
<path d="M65.8558 83.14L65.2543 80.78L56.7011 81.02L57.1292 83.44L65.8558 83.14Z" stroke="#231F20" stroke-linejoin="bevel"/>
<path d="M65.2543 80.78L56.7011 81.01L51.5325 78.83L52.3378 77.38L57.1191 77.3L65.2543 80.78Z" stroke="#231F20" stroke-linejoin="bevel"/>
<path d="M57.1191 83.43L51.5325 81.01V78.83L56.7011 81.01L57.1191 83.43Z" stroke="#231F20" stroke-linejoin="bevel"/>
<path d="M42.6327 77L42.0822 77.88V78.59H28.0851L27.6569 77H42.6327Z" stroke="#231F20" stroke-linejoin="bevel"/>
<path d="M42.0822 78.59V80.13H26.7496L28.0851 78.59H42.0822Z" stroke="#231F20" stroke-linejoin="bevel"/>
<path d="M25.4039 78.77L26.7496 80.13L28.0851 78.59L27.6569 77L25.4039 78.77Z" stroke="#231F20" stroke-miterlimit="10"/>
<path d="M71.8603 81.19C71.8603 85.06 60.2896 88.2 46.0274 88.2C31.7653 88.2 20.1945 85.06 20.1945 81.19C20.1945 77.32 30.8886 74.42 44.3963 74.19L42.6326 77L42.0821 77.88V80.13L51.5325 81.01V78.83L52.348 77.38L53.9384 74.52C64.3368 75.42 71.8705 78.07 71.8705 81.19H71.8603Z" stroke="#231F20" stroke-linejoin="bevel"/>
<path d="M57.7409 28.05L32.4076 53.19" stroke="#231F20" stroke-linejoin="bevel"/>
<path d="M64.5101 41.89L54.3258 50.79" stroke="#231F20" stroke-linejoin="bevel"/>
</svg>
