<svg width="100" height="100" viewBox="0 0 100 100" fill="none" xmlns="http://www.w3.org/2000/svg">
<path d="M52 90C74.0914 90 92 72.0914 92 50C92 27.9086 74.0914 10 52 10C29.9086 10 12 27.9086 12 50C12 72.0914 29.9086 90 52 90Z" fill="#A1DCEF"/>
<path d="M9.37363 35.0889C7.08149 39.7253 7.70662 44.1099 12.2475 47.0879L20.3915 46.4628L22.1106 47.5567L9.26076 49.7534L2.67954 50.3785C2.67954 50.3785 -2.96399 62.5946 6.43899 71.685C6.43899 71.685 9.88589 71.3724 12.7077 70.1222C12.7077 70.1222 22.7358 70.1222 27.1204 67.613L28.058 70.1222L29.3083 70.4347L30.246 71.3724H31.8088L32.434 73.2565L69.4034 65.425L68.7783 63.2284C68.7783 63.2284 72.5377 60.7192 70.9749 48.5031L69.4121 46.3065L69.0995 44.1099V41.9132L66.2778 37.5286L68.787 37.2161C68.787 37.2161 72.5464 30.0097 66.5903 25L46.7772 28.2819L15.9896 33.3872C14.4268 33.6476 12.8639 33.9081 11.3011 34.1686C10.5457 34.2901 9.66883 34.4551 9.35626 35.0976L9.37363 35.0889Z" stroke="#1D1C1A" stroke-miterlimit="10"/>
<path d="M62.2231 59.1478C64.1268 59.1478 65.67 57.6046 65.67 55.7009C65.67 53.7973 64.1268 52.254 62.2231 52.254C60.3194 52.254 58.7762 53.7973 58.7762 55.7009C58.7762 57.6046 60.3194 59.1478 62.2231 59.1478Z" stroke="#1D1C1A" stroke-miterlimit="10"/>
<path d="M59.0888 39.8814C60.2156 39.8814 61.1291 38.9679 61.1291 37.841C61.1291 36.7142 60.2156 35.8007 59.0888 35.8007C57.9619 35.8007 57.0484 36.7142 57.0484 37.841C57.0484 38.9679 57.9619 39.8814 59.0888 39.8814Z" stroke="#1D1C1A" stroke-miterlimit="10"/>
<path d="M42.4239 38.7853L38.7244 39.4536L39.3927 43.1532L43.0923 42.4849L42.4239 38.7853Z" stroke="#1D1C1A" stroke-miterlimit="10"/>
<path d="M48.7926 37.606L45.0671 38.1104L45.5715 41.8358L49.2969 41.3315L48.7926 37.606Z" stroke="#1D1C1A" stroke-miterlimit="10"/>
<path d="M54.7514 36.6679L51.0259 37.1722L51.5303 40.8977L55.2557 40.3933L54.7514 36.6679Z" stroke="#1D1C1A" stroke-miterlimit="10"/>
<path d="M9.1392 35.0452C9.34758 34.9931 12.6121 37.6499 11.7439 46.3322" stroke="#1D1C1A" stroke-miterlimit="10"/>
<path d="M27.0335 31.5552L32.46 45.6727L35.2731 49.1196L69.1169 41.9132" stroke="#1D1C1A" stroke-miterlimit="10"/>
<path d="M34.9605 38.4663L37.7823 46.2977L63.4734 41.288C63.4734 41.288 64.0985 35.9657 60.9642 33.4565L34.9605 38.4663V38.4663Z" stroke="#1D1C1A" stroke-miterlimit="10"/>
<path d="M27.129 67.6045C37.7823 68.8548 29.3257 46.6106 29.3257 46.6106L22.1193 47.5483" stroke="#1D1C1A" stroke-miterlimit="10"/>
<path d="M16.9186 37.8409C16.9186 37.8409 19.2715 41.2878 19.2715 45.985L16.7623 46.2975C19.2715 37.8409 14.3399 33.3087 14.3399 33.3087" stroke="#1D1C1A" stroke-miterlimit="10"/>
<path d="M11.7439 34.1774C12.5687 34.7678 16.9533 40.255 14.3486 47.2009" stroke="#1D1C1A" stroke-miterlimit="10"/>
<path d="M2.68822 50.3788C2.68822 50.3788 11.6224 60.0943 5.93542 71.6853" stroke="#1D1C1A" stroke-miterlimit="10"/>
<path d="M4.23367 49.9009C10.0074 56.7513 11.3532 61.3963 9.1392 71.5113" stroke="#1D1C1A" stroke-miterlimit="10"/>
<path d="M6.5345 49.8053C6.5345 49.8053 15.4339 55.0494 12.6121 69.7747" stroke="#1D1C1A" stroke-miterlimit="10"/>
<path d="M23.9513 47.3137C23.9513 47.3137 35.2818 56.326 27.129 67.6044" stroke="#1D1C1A" stroke-miterlimit="10"/>
<path d="M32.46 45.6729L29.3257 46.6192" stroke="#1D1C1A" stroke-miterlimit="10"/>
<path d="M20.4263 46.3323L31.4181 42.9635" stroke="#1D1C1A" stroke-miterlimit="10"/>
<path d="M67.1026 38.779L75.073 37.2162C75.073 37.2162 84.1634 45.0477 78.8324 57.585L70.9315 58.8266" stroke="#1D1C1A" stroke-miterlimit="10"/>
<path d="M75.073 37.2161C75.3421 34.0384 79.6138 35.0542 80.9857 36.6171C83.5643 39.543 85.2053 43.2591 85.7436 47.114C86.143 49.9705 86.3948 53.7126 84.8754 56.3086C83.7814 58.1753 80.6123 59.0957 78.8324 57.5849" stroke="#1D1C1A" stroke-miterlimit="10"/>
<path d="M79.2839 35.5492C79.2752 34.7764 79.7267 34.1513 80.5081 34.0558C83.1042 33.7432 85.2053 36.7994 86.4382 38.7182C87.6798 40.6457 88.5393 42.8076 88.904 45.065C89.6072 49.4062 88.4178 53.7734 86.3427 57.585C86.3427 57.585 84.4586 58.2101 82.8958 57.8975" stroke="#1D1C1A" stroke-miterlimit="10"/>
<path d="M82.071 34.1772C82.2099 33.5607 83.2865 32.5102 83.8248 32.1802C86.0301 30.8084 88.4004 33.2742 89.8156 34.8197C91.118 36.2436 92.1859 37.8759 92.9413 39.6471C94.3217 42.8856 94.4954 46.4627 93.8529 49.8922C93.6011 51.2293 93.2278 52.523 92.8284 53.8167C92.4377 55.0843 91.9862 57.0726 90.6057 57.6109C89.3902 58.0884 87.7839 57.8366 86.6379 57.2636" stroke="#1D1C1A" stroke-miterlimit="10"/>
<path d="M69.1169 38.3882C69.1169 38.3882 78.2681 44.8826 73.3799 58.4444" stroke="#1D1C1A" stroke-miterlimit="10"/>
<path d="M86.3253 31.8854C88.4959 25.4431 95.1205 33.4656 96.6573 36.2787C100.139 42.6515 99.5051 50.483 96.3013 56.8211C95.216 58.9743 92.9065 59.0525 91.3437 57.2639" stroke="#1D1C1A" stroke-miterlimit="10"/>
<path d="M32.1388 64.0012V70.1136L34.3354 71.0513V72.8485" stroke="#1D1C1A" stroke-miterlimit="10"/>
<path d="M40.9166 54.7631H37.4697V65.1037H40.9166V54.7631Z" stroke="#1D1C1A" stroke-miterlimit="10"/>
<path d="M46.5602 53.504H43.1133V63.8447H46.5602V53.504Z" stroke="#1D1C1A" stroke-miterlimit="10"/>
<path d="M53.1327 52.8792H49.6858V63.2198H53.1327V52.8792Z" stroke="#1D1C1A" stroke-miterlimit="10"/>
<path d="M18.4682 53.749L13.8135 54.3792L13.9813 55.6181L18.636 54.9879L18.4682 53.749Z" stroke="#1D1C1A" stroke-miterlimit="10"/>
<path d="M26.7158 52.8072L22.0611 53.4374L22.2288 54.6763L26.8835 54.0462L26.7158 52.8072Z" stroke="#1D1C1A" stroke-miterlimit="10"/>
<path d="M19.0928 58.0003L14.4381 58.6305L14.6431 60.1448L19.2978 59.5146L19.0928 58.0003Z" stroke="#1D1C1A" stroke-miterlimit="10"/>
<path d="M27.3405 57.0606L22.6858 57.6908L22.8536 58.9298L27.5082 58.2996L27.3405 57.0606Z" stroke="#1D1C1A" stroke-miterlimit="10"/>
<path d="M61.2854 25.8771L66.2951 37.5288" stroke="#1D1C1A" stroke-miterlimit="10"/>
<path d="M31.4181 30.826L34.9605 33.1442L56.267 29.3847L58.2206 26.3893" stroke="#1D1C1A" stroke-miterlimit="10"/>
<path d="M20.8343 39.7252C20.8343 39.7252 22.3972 43.4847 22.3972 39.7252" stroke="#1D1C1A" stroke-miterlimit="10"/>
</svg>
