<svg width="100" height="100" viewBox="0 0 100 100" fill="none" xmlns="http://www.w3.org/2000/svg">
<path d="M50 90C72.0914 90 90 72.0914 90 50C90 27.9086 72.0914 10 50 10C27.9086 10 10 27.9086 10 50C10 72.0914 27.9086 90 50 90Z" fill="#A1DCEF"/>
<path d="M89.9593 81.88C88.0693 83.39 86.1294 84.32 83.7394 84.67C83.1494 84.76 82.5393 84.74 81.9993 84.5C80.9993 84.05 80.4693 82.96 80.1793 81.9C79.5193 79.45 79.7794 76.82 80.5094 74.39C81.2394 71.96 82.4393 69.7 83.6693 67.48C84.0593 66.78 84.4593 66.07 84.9693 65.45C85.5493 64.74 86.2494 64.16 86.9794 63.6C89.2594 61.86 91.8693 60.37 94.7193 60.16C95.2693 60.12 96.1793 60.37 96.6693 60.64C97.2693 60.97 97.2794 61.4 97.5494 62.03C97.8194 62.66 98.0693 63.32 98.1793 64C98.3193 64.89 98.2293 65.81 98.0993 66.7C97.6793 69.66 96.7793 71.98 95.4193 74.64C94.0593 77.3 92.7493 79.64 89.9593 81.88Z" stroke="#231F20" stroke-miterlimit="10"/>
<path d="M89.3794 61.95C90.0694 62.53 90.3694 62.82 90.7894 63.36C90.9094 63.52 90.9894 63.7 91.0694 63.88C91.4394 64.74 91.7794 65.63 91.8994 66.56C92.0894 68.02 91.7193 69.4899 91.3493 70.9199C91.2193 71.4399 91.0894 71.95 90.8894 72.45C90.3294 73.91 89.2794 75.12 88.2494 76.3C87.7594 76.86 87.2594 77.43 86.6794 77.9C84.7794 79.41 81.9794 79.67 79.8294 78.54" stroke="#231F20" stroke-miterlimit="10"/>
<path d="M81.6494 84.3099C80.4994 83.7499 79.6294 83.1299 78.5694 82.6099C74.1794 80.4899 70.0494 77.8899 65.9194 75.2999C65.0994 74.7799 64.2694 74.2599 63.5694 73.5799C61.2194 71.2899 60.8094 67.5399 61.7294 64.3799C62.6494 61.2299 64.6694 58.5299 66.6894 55.9399C67.4594 54.9599 68.2494 53.9599 69.2694 53.2399C70.2394 52.5599 71.3594 52.1499 72.4794 51.7499C73.6294 51.3399 74.8194 50.9199 76.0294 51.0199C77.0794 51.1099 78.0494 51.5699 78.9894 52.0299L90.7994 57.7599C92.2694 58.4699 94.6494 59.6899 96.6494 60.6399" stroke="#231F20" stroke-miterlimit="10"/>
<path d="M88.6194 56.48C85.7494 57.52 82.7794 58.63 80.6194 60.79C79.7194 61.69 78.9894 62.75 78.3194 63.83C76.8694 66.19 75.6994 68.72 74.6094 71.27C73.9594 72.79 73.3294 74.35 73.1294 75.99C72.9294 77.63 73.1194 78.95 74.1194 80.27" stroke="#231F20" stroke-miterlimit="10"/>
<path d="M82.3694 53.5099C82.5594 51.9799 81.6794 50.5399 80.8294 49.2499C80.5294 48.7899 80.2194 48.3299 79.7894 47.9899C78.4694 46.9599 76.5094 47.1999 74.9394 47.7599C70.6294 49.2999 66.4394 51.2899 62.4594 53.5299C57.2194 56.4799 55.3694 64.5199 55.1494 65.6399C54.8394 67.1999 56.7694 72.0299 57.2794 72.8299C58.3594 74.5399 59.8894 75.6499 60.6694 75.7999C62.1894 76.0899 63.7794 75.9599 65.2294 75.4299" stroke="#231F20" stroke-miterlimit="10"/>
<path d="M11.5894 42.42C12.8994 42.72 14.2394 42.9 15.5794 42.95C16.5494 42.98 17.6194 42.91 18.2994 42.22C18.6294 41.88 18.8294 41.44 19.1494 41.08C19.4694 40.72 19.9794 40.47 20.4094 40.68C20.7094 40.83 20.8694 41.17 20.8994 41.51C20.9794 42.26 20.5294 42.99 19.9094 43.43C19.2894 43.87 18.5494 44.07 17.8094 44.21C16.6494 44.43 15.4594 44.52 14.2994 44.36C13.1094 44.19 12.2594 43.66 11.2394 43.1C10.2894 42.58 9.33935 42.75 8.35935 43.17C7.95935 43.34 7.56935 43.57 7.33935 43.93C7.10935 44.29 7.09935 44.82 7.40935 45.12C7.63935 45.34 7.99935 45.39 8.25935 45.58C8.56935 45.8 8.71935 46.17 8.77935 46.55C8.93935 47.55 8.53935 48.54 8.28935 49.53C7.78935 51.55 7.95935 53.73 8.77935 55.64C9.67935 57.75 11.3194 59.48 13.1894 60.82C15.0594 62.16 17.1494 63.13 19.2494 64.06C22.8494 65.66 26.5094 67.14 30.1994 68.52C30.9394 68.8 30.9594 68.32 30.9494 67.75C30.9494 67.04 30.9494 66.34 30.9494 65.63C30.9494 63.54 30.9494 61.41 31.5594 59.4C31.7494 58.77 32.0194 58.14 32.5094 57.71C32.8094 57.45 33.1694 57.28 33.5394 57.13C34.5494 56.73 35.6694 56.53 36.7394 56.72C37.1694 56.8 37.5894 56.94 38.0094 57.07C38.2494 57.15 38.4894 57.23 38.6894 57.38C38.9494 57.58 39.1194 57.88 39.2794 58.17C39.8094 59.14 40.3494 60.16 40.3394 61.26" stroke="#231F20" stroke-miterlimit="10"/>
<path d="M77.9994 46.89C77.9094 46.48 77.4994 46.24 77.1294 46.04L53.5194 33.78C48.7294 31.29 34.7894 24.63 34.4094 24.45C34.0994 24.31 33.7494 24.29 33.4094 24.3C31.7094 24.34 30.0694 24.92 28.4994 25.55C24.7794 27.03 21.1394 28.8 17.9494 31.24C17.1794 31.83 16.4294 32.47 15.8494 33.25C14.8494 34.6 14.3794 36.37 13.0394 37.39C12.6894 37.65 12.2994 37.86 12.0094 38.18C11.2394 39.03 11.6294 41.15 11.8894 42.27" stroke="#231F20" stroke-miterlimit="10"/>
<path d="M58.6694 74.64C57.8294 74.53 56.9694 73.9 56.5494 73.68L47.0294 68.59" stroke="#231F20" stroke-miterlimit="10"/>
<path d="M16.0094 42.63C16.0794 42.15 16.0794 41.66 16.0294 41.18C15.9794 40.75 15.8894 40.32 15.9594 39.89C16.0094 39.59 16.1294 39.31 16.2594 39.03C17.0394 37.3 17.8794 35.56 19.2094 34.2C20.5394 32.85 22.4494 31.93 24.3194 32.25C25.0394 32.38 25.7194 32.68 26.3894 32.98C27.6594 33.55 48.7094 44.34 56.0294 48.61C57.2794 49.34 58.6894 50.36 58.6394 51.81C58.5994 52.93 57.6894 53.78 56.9294 54.6C52.7794 59.03 51.5394 65.96 53.9094 71.55" stroke="#231F20" stroke-miterlimit="10"/>
<path d="M60.2694 45.93C61.0094 46.07 61.7894 46.16 62.5094 45.94C63.2294 45.72 63.8794 45.11 63.9294 44.35C63.9694 43.79 63.6694 43.24 63.2594 42.85C62.8494 42.46 62.3394 42.2 61.8394 41.94L59.4394 40.71C56.0394 38.97 52.6394 37.23 49.0894 35.81C48.3694 35.52 47.5994 35.21 47.1594 34.57C46.9394 34.24 46.8194 33.85 46.5894 33.52C46.1194 32.84 45.5094 32.54 44.4894 32.17C43.0294 31.65 41.4194 31.7 40.0994 32.52C38.0894 33.77 38.2894 35.64 38.7394 36.05C39.4294 36.68 40.4794 37.12 40.8594 37.2C46.1894 38.28 50.0094 40.54 54.8594 43.12C56.6694 44.08 58.1994 45.52 60.2394 45.91L60.2694 45.93Z" stroke="#231F20" stroke-miterlimit="10"/>
<path d="M60.7194 42.7299C60.1194 42.6399 59.4894 42.7299 58.9694 43.0399C58.8994 43.0799 58.8394 43.1199 58.7994 43.1899C58.7594 43.2499 58.7594 43.3299 58.7594 43.3999C58.7794 43.9499 59.1894 44.4299 59.6894 44.6499C60.1894 44.8699 60.7694 44.8599 61.3094 44.7599C61.6594 44.6999 62.0094 44.5899 62.2594 44.3499C62.5894 44.0199 62.6194 43.5499 62.2194 43.3199C61.7494 43.0399 61.2594 42.8099 60.7094 42.7299H60.7194Z" stroke="#231F20" stroke-miterlimit="10"/>
<path d="M57.0294 40.71C56.3094 39.93 55.1894 39.53 54.1394 39.69C53.9594 39.72 53.7794 39.76 53.6294 39.87C53.4194 40.02 53.3094 40.28 53.3094 40.53C53.3094 40.78 53.3894 41.03 53.5294 41.25C54.0394 42.07 55.1294 42.37 56.0794 42.22C56.5794 42.14 57.1094 41.9 57.2794 41.42C57.4194 41.03 57.0394 40.71 57.0394 40.71H57.0294Z" stroke="#231F20" stroke-miterlimit="10"/>
<path d="M49.5294 39.38C49.9394 39.38 50.3594 39.34 50.7194 39.14C51.0794 38.94 51.3494 38.53 51.2494 38.13C51.1794 37.81 50.9094 37.58 50.6494 37.39C50.2894 37.11 49.9094 36.85 49.4894 36.68C49.0694 36.51 48.5894 36.44 48.1594 36.57C47.7294 36.7 47.3394 37.04 47.2294 37.48C47.1994 37.6 47.1894 37.74 47.2194 37.86C47.2894 38.19 47.5794 38.42 47.8594 38.61C48.3594 38.96 49.5294 39.38 49.5294 39.38V39.38Z" stroke="#231F20" stroke-miterlimit="10"/>
<path d="M43.1794 36.1C43.3994 36.14 43.6194 36.15 43.8394 36.16C44.1794 36.17 44.5394 36.15 44.8394 35.98C45.1394 35.81 45.3594 35.45 45.2694 35.12C45.2194 34.92 45.0594 34.76 44.8994 34.62C44.1494 34.01 43.1194 33.81 42.1594 33.91C41.9094 33.93 41.6594 33.98 41.4094 34.05C41.3094 34.08 41.2194 34.11 41.1494 34.18C41.0894 34.24 41.0494 34.33 41.0194 34.41C40.9294 34.64 40.8394 34.9 40.9194 35.13C40.9894 35.32 41.1494 35.46 41.3194 35.58C41.9494 36.04 43.1894 36.09 43.1894 36.09L43.1794 36.1Z" stroke="#231F20" stroke-miterlimit="10"/>
<path d="M35.2994 32.04C35.6994 31.96 36.0894 31.82 36.4894 31.75C36.8294 31.7 37.1793 31.7 37.4993 31.57C37.6893 31.49 37.8494 31.37 38.0094 31.25C38.3194 31.02 38.6694 30.72 38.6494 30.33C38.6294 30 38.3494 29.74 38.0694 29.56C37.4094 29.13 36.6494 28.87 35.8694 28.79C35.5294 28.76 35.1894 28.76 34.8494 28.82C34.4894 28.89 34.1494 29.03 33.8194 29.19C33.3094 29.44 32.7994 29.78 32.5494 30.29C32.2994 30.8 32.4094 31.52 32.9094 31.8C33.1494 31.93 34.5194 32.18 35.2894 32.03L35.2994 32.04Z" stroke="#231F20" stroke-miterlimit="10"/>
<path d="M81.3594 50.08C82.7294 49.29 82.9194 47.55 83.0494 46.9C83.4094 45.12 81.3994 41.79 80.9694 40.93C80.3994 39.79 79.2494 38.95 77.9794 38.77L79.0194 40.77C79.2194 41.15 79.4194 41.54 79.5094 41.97C79.6294 42.52 79.5394 43.1 79.3694 43.64C79.1994 44.16 78.9494 44.66 78.6294 45.1C78.1294 45.78 77.4794 46.33 76.8394 46.88" stroke="#231F20" stroke-miterlimit="10"/>
<path d="M77.9994 38.5199C76.3494 36.5699 73.7894 34.5099 71.3994 33.6299C70.2394 33.1999 69.0394 32.9199 67.8794 32.5099C66.4594 32.0099 65.1194 31.3199 63.7794 30.6499C59.7294 28.6399 55.5894 26.7899 51.3894 25.1199C50.5794 24.7999 49.7494 24.4799 48.8794 24.4299C47.4194 24.3499 42.4794 27.5899 41.7594 27.8299" stroke="#231F20" stroke-miterlimit="10"/>
<path d="M48.0294 30.75L47.9694 28.43C47.9694 28.28 47.9694 28.12 48.0394 27.98C48.0994 27.87 48.1894 27.79 48.2894 27.72C50.3394 26.14 53.2694 25.78 55.6294 26.83" stroke="#231F20" stroke-miterlimit="10"/>
<path d="M12.3894 37.98C11.9794 37.15 11.3894 36.42 10.9794 35.59C10.3194 34.27 10.1594 32.73 10.3594 31.27C10.5594 29.81 11.1994 28.45 11.7794 27.1C13.4194 23.28 21.0494 22.4 21.6694 22.42C21.9694 22.43 22.2694 22.45 22.5594 22.54C22.9494 22.67 23.2694 22.93 23.6094 23.15C24.9094 23.99 26.5694 24.38 27.4994 25.62" stroke="#231F20" stroke-miterlimit="10"/>
<path d="M20.8794 21.81C20.6294 20.64 20.0694 19.56 19.4594 18.52C19.0494 17.83 18.6094 17.14 17.9994 16.63C17.3494 16.08 16.5294 15.81 15.7194 15.57C9.86935 13.83 0.479352 19.97 2.20935 34.29C2.41935 36.04 4.01935 37.4 5.60935 38.18C7.18935 38.96 9.86935 39.58 11.4494 38.79" stroke="#231F20" stroke-miterlimit="10"/>
<path d="M30.8094 68.32C31.3494 68.21 31.8994 68.81 32.3894 68.57C32.8794 68.33 33.3394 67.95 33.5494 67.44C33.6294 67.24 33.6794 67.02 33.6494 66.81C33.6494 66.81 35.3594 67.73 36.2994 68.19C37.0594 68.56 37.8994 68.77 38.7194 68.97C39.7094 69.21 40.7094 69.46 41.7294 69.4C42.4094 69.36 43.0793 69.18 43.7493 69.1C44.1893 69.05 44.6294 69.04 45.0594 68.98C46.0594 68.84 46.9894 68.44 47.9194 68.04C48.6494 67.73 49.4194 67.37 49.8194 66.69C50.1194 66.18 50.1694 65.56 50.3094 64.98C50.4294 64.5 50.6093 64.05 50.7493 63.57C51.0793 62.37 51.0693 61.1 50.9993 59.87C50.9493 59.04 50.8594 58.09 49.7694 58.14C49.2394 58.17 48.7694 58.46 48.3494 58.79C47.7594 59.24 47.2194 59.77 46.5994 60.17C45.5894 60.83 44.4094 61.15 43.2394 61.46C42.7094 61.6 42.1694 61.75 41.6194 61.78C41.0294 61.82 40.4394 61.72 39.8694 61.62C38.6794 61.4 37.5294 61.05 36.3494 60.77C36.6994 61.54 38.6593 61.85 39.4293 62.02C40.6193 62.28 41.8394 62.39 43.0494 62.35C45.4694 62.27 47.8894 61.6 49.9594 60.34C50.3094 60.13 50.6693 59.85 50.8393 59.5" stroke="#231F20" stroke-miterlimit="10"/>
<path d="M14.5094 44.52C15.0994 44.94 15.7494 45.26 16.3994 45.57L22.5694 48.5C23.4594 48.92 24.3494 49.34 25.2594 49.71C26.2094 50.09 27.1794 50.41 28.1394 50.74C30.5794 51.58 32.9894 52.51 35.3594 53.54C36.0394 53.84 36.7294 54.14 37.3194 54.59C37.9094 55.04 39.3794 56.25 38.8294 57.53" stroke="#231F20" stroke-miterlimit="10"/>
</svg>
