<svg width="100" height="100" viewBox="0 0 100 100" fill="none" xmlns="http://www.w3.org/2000/svg">
<path d="M50 90C72.0914 90 90 72.0914 90 50C90 27.9086 72.0914 10 50 10C27.9086 10 10 27.9086 10 50C10 72.0914 27.9086 90 50 90Z" fill="#A1DCEF"/>
<path d="M10.0874 77.6381C15.1062 77.6381 19.1748 70.9535 19.1748 62.7076C19.1748 54.4617 15.1062 47.7771 10.0874 47.7771C5.06856 47.7771 0.999996 54.4617 0.999996 62.7076C0.999996 70.9535 5.06856 77.6381 10.0874 77.6381Z" stroke="#231F20" stroke-linecap="round" stroke-linejoin="round"/>
<path d="M10.0874 75.1169C13.9799 75.1169 17.1353 69.5612 17.1353 62.7078C17.1353 55.8545 13.9799 50.2987 10.0874 50.2987C6.19497 50.2987 3.03952 55.8545 3.03952 62.7078C3.03952 69.5612 6.19497 75.1169 10.0874 75.1169Z" stroke="#231F20" stroke-linecap="round" stroke-linejoin="round"/>
<path d="M10.0873 77.6381L23.968 77.0099C23.968 77.0099 33.7438 73.3526 30.1897 56.5891C28.176 48.6463 22.3415 48.1902 22.3415 48.1902L10.0873 47.7771" stroke="#231F20" stroke-linecap="round" stroke-linejoin="round"/>
<path d="M18.667 67.63L30.7147 66.8899" stroke="#231F20" stroke-linecap="round" stroke-linejoin="round"/>
<path d="M18.0733 69.8503L30.1899 69.2135" stroke="#231F20" stroke-linecap="round" stroke-linejoin="round"/>
<path d="M23.9681 77.0099L51.6261 68.2065C51.6261 68.2065 59.9046 57.9487 49.4059 51.159L22.3416 48.1987" stroke="#231F20" stroke-linecap="round" stroke-linejoin="round"/>
<path d="M47.1511 69.6266L50.8773 72.3287H58.2178L54.2335 69.5491V68.155C54.2335 68.155 73.3118 67.3978 80.549 60.0659V56.1762C80.549 56.1762 84.7141 52.3726 85.9791 46.2283" stroke="#231F20" stroke-linecap="round" stroke-linejoin="round"/>
<path d="M44.0359 70.6161L49.922 74.8672H58.2091V72.3286" stroke="#231F20" stroke-linecap="round" stroke-linejoin="round"/>
<path d="M84.2149 44.1285C84.2149 44.1285 83.7589 49.4123 79.1549 54.8596C71.0314 60.9092 59.3881 62.1398 59.3881 62.1398C61.3072 54.1711 55.2489 51.1506 55.2489 51.1506H49.4058" stroke="#231F20" stroke-linecap="round" stroke-linejoin="round"/>
<path d="M59.4571 67.6904C59.4571 67.6904 68.8801 67.9486 74.4392 66.391C75.9108 65.9779 77.2704 65.2379 78.4408 64.2569C85.4714 58.3879 86.6332 47.6311 86.6332 47.6311C86.6332 47.6311 86.1427 44.3179 75.6956 36.8828L73.7164 38.2167C68.424 38.3199 63.5361 41.2888 63.5361 41.2888" stroke="#231F20" stroke-linecap="round" stroke-linejoin="round"/>
<path d="M57.6844 45.2299C57.6844 45.2299 54.1647 47.4931 51.9531 51.1504" stroke="#231F20" stroke-linecap="round" stroke-linejoin="round"/>
<path d="M59.6238 46.968C60.5171 46.8738 61.1071 45.5254 60.9416 43.9562C60.7761 42.387 59.9178 41.1913 59.0245 41.2855C58.1312 41.3797 57.5412 42.7281 57.7067 44.2973C57.8721 45.8665 58.7305 47.0622 59.6238 46.968Z" stroke="#231F20" stroke-linecap="round" stroke-linejoin="round"/>
<path d="M59.0266 41.2886H67.219C67.219 41.2886 71.0054 42.9064 68.2001 46.9768H59.6204" stroke="#231F20" stroke-linecap="round" stroke-linejoin="round"/>
<path d="M74.7147 43.6034L68.2004 46.9681" stroke="#231F20" stroke-linecap="round" stroke-linejoin="round"/>
<path d="M73.7164 41.2886H67.2192" stroke="#231F20" stroke-linecap="round" stroke-linejoin="round"/>
<path d="M95.7339 35.7664L89.369 42.1313C88.2676 43.2327 86.4786 43.2327 85.3772 42.1313L81.0325 37.7866C79.6999 36.454 79.6999 34.2877 81.0325 32.9551L86.2291 27.7585C88.8578 25.1298 93.1173 25.1298 95.746 27.7585C97.9549 29.9674 97.9549 33.5575 95.746 35.7664L95.7339 35.7664Z" stroke="#231F20" stroke-linecap="round" stroke-linejoin="round"/>
<path d="M87.5884 43.2162V48.4225L86.6332 47.6308" stroke="#231F20" stroke-linecap="round" stroke-linejoin="round"/>
<path d="M79.7056 35.6178L75.2222 36.1255L75.6955 36.8742" stroke="#231F20" stroke-linecap="round" stroke-linejoin="round"/>
<path d="M95.2472 36.2456C95.2472 36.2456 93.2507 30.48 86.6245 27.7778" stroke="#231F20" stroke-linecap="round" stroke-linejoin="round"/>
<path d="M94.0512 37.2269C94.0512 37.2269 92.0547 31.4613 85.4285 28.7592" stroke="#231F20" stroke-linecap="round" stroke-linejoin="round"/>
<path d="M89.817 41.4607C89.817 41.4607 87.8206 35.695 81.1943 32.9929" stroke="#231F20" stroke-linecap="round" stroke-linejoin="round"/>
<path d="M88.9395 42.3386C88.9395 42.3386 86.943 36.573 80.3168 33.8708" stroke="#231F20" stroke-linecap="round" stroke-linejoin="round"/>
<path d="M87.1065 43.2165C87.1065 43.2165 84.9121 39.017 79.7746 36.0137" stroke="#231F20" stroke-linecap="round" stroke-linejoin="round"/>
<path d="M93.7413 36.5039L89.4558 40.6431" stroke="#231F20" stroke-linecap="round" stroke-linejoin="round"/>
<path d="M93.2162 35.4716L88.9393 39.6194" stroke="#231F20" stroke-linecap="round" stroke-linejoin="round"/>
<path d="M92.5969 34.5848L88.3199 38.7327" stroke="#231F20" stroke-linecap="round" stroke-linejoin="round"/>
<path d="M91.9512 33.6902L87.6743 37.838" stroke="#231F20" stroke-linecap="round" stroke-linejoin="round"/>
<path d="M91.0822 32.7349L86.7967 36.8741" stroke="#231F20" stroke-linecap="round" stroke-linejoin="round"/>
<path d="M90.2476 31.7969L85.9706 35.9361" stroke="#231F20" stroke-linecap="round" stroke-linejoin="round"/>
<path d="M89.2491 30.9623L84.9722 35.1015" stroke="#231F20" stroke-linecap="round" stroke-linejoin="round"/>
<path d="M88.1132 30.1874L83.8277 34.3266" stroke="#231F20" stroke-linecap="round" stroke-linejoin="round"/>
<path d="M86.9774 29.5505L82.6919 33.6898" stroke="#231F20" stroke-linecap="round" stroke-linejoin="round"/>
<path d="M85.9705 29.0516L81.6936 33.1995" stroke="#231F20" stroke-linecap="round" stroke-linejoin="round"/>
<path d="M56.0924 63.1467L58.588 65.8918C58.588 65.8918 72.7784 64.3515 76.7972 59.2828" stroke="#231F20" stroke-linecap="round" stroke-linejoin="round"/>
</svg>
