<svg width="100" height="100" viewBox="0 0 100 100" fill="none" xmlns="http://www.w3.org/2000/svg">
<g clip-path="url(#clip0_5626_30352)">
<path d="M50 90C72.0914 90 90 72.0914 90 50C90 27.9086 72.0914 10 50 10C27.9086 10 10 27.9086 10 50C10 72.0914 27.9086 90 50 90Z" fill="#A1DCEF"/>
<path d="M27.97 39.49L11.24 28.27C10.82 27.99 10.56 27.54 10.53 27.04C10.4 25.04 10.53 19.83 15.06 17.63C20.72 14.87 21.73 16.99 21.73 16.99L37.22 26.56" stroke="#231F20" stroke-miterlimit="10" stroke-linecap="round"/>
<path d="M22.56 17.5C22.56 17.5 23.38 14.34 19.79 11.89C16.2 9.44002 10.5 13.86 10.5 13.86C10.5 13.86 2.52 18.51 3.48 25.52C4.44 32.53 13.74 32.05 14.92 30.74" stroke="#231F20" stroke-miterlimit="10" stroke-linecap="round"/>
<path d="M19.25 33.64C19.25 33.64 17.23 23.13 28.27 21.04" stroke="#231F20" stroke-miterlimit="10" stroke-linecap="round"/>
<path d="M17.22 32.31C17.22 32.31 15.2 21.8 26.24 19.71" stroke="#231F20" stroke-miterlimit="10" stroke-linecap="round"/>
<path d="M15.19 30.98C15.19 30.98 13.17 20.47 24.21 18.38" stroke="#231F20" stroke-miterlimit="10" stroke-linecap="round"/>
<path d="M13.16 29.65C13.16 29.65 11.14 19.14 22.18 17.05" stroke="#231F20" stroke-miterlimit="10" stroke-linecap="round"/>
<path d="M45.97 32.31C47.4888 32.31 48.72 31.522 48.72 30.55C48.72 29.578 47.4888 28.79 45.97 28.79C44.4512 28.79 43.22 29.578 43.22 30.55C43.22 31.522 44.4512 32.31 45.97 32.31Z" stroke="#231F20" stroke-miterlimit="10" stroke-linecap="round"/>
<path d="M52.04 35.83C53.5588 35.83 54.79 35.042 54.79 34.07C54.79 33.098 53.5588 32.31 52.04 32.31C50.5212 32.31 49.29 33.098 49.29 34.07C49.29 35.042 50.5212 35.83 52.04 35.83Z" stroke="#231F20" stroke-miterlimit="10" stroke-linecap="round"/>
<path d="M58.12 39.35C59.6388 39.35 60.87 38.562 60.87 37.59C60.87 36.618 59.6388 35.83 58.12 35.83C56.6012 35.83 55.37 36.618 55.37 37.59C55.37 38.562 56.6012 39.35 58.12 39.35Z" stroke="#231F20" stroke-miterlimit="10" stroke-linecap="round"/>
<path d="M76.31 44.42L41.39 24.03L29.02 31.53C29.02 31.53 27.7 32.85 27.77 35.21C27.84 37.57 28.36 44.48 28.36 44.48L33.23 47.64L33.95 47.11L36.38 48.36L36.12 49.61L47.83 57.31V60.2L49.47 62.5L58.87 68.61" stroke="#231F20" stroke-miterlimit="10" stroke-linecap="round"/>
<path d="M38.72 33.91L36.63 35.84L34.88 38.73L35.35 44.34L38.08 46.27L37.99 49.3L54.43 60.04C54.43 60.04 54.43 58.02 54.61 53.42C54.79 48.82 57.5 48.47 57.5 48.47L62.54 44.48L47.15 35.01L45.75 35.85C43.08 33.75 39.13 34.27 39.13 34.27L37.21 32.65L39.96 30.57L35.34 27.71" stroke="#231F20" stroke-miterlimit="10" stroke-linecap="round"/>
<path d="M32.2273 43.9503C33.1212 43.804 33.6666 42.5897 33.4454 41.238C33.2243 39.8863 32.3205 38.9091 31.4266 39.0553C30.5327 39.2015 29.9874 40.4158 30.2085 41.7675C30.4296 43.1192 31.3334 44.0965 32.2273 43.9503Z" stroke="#231F20" stroke-miterlimit="10" stroke-linecap="round"/>
<path d="M78.2 46.95C78.2 47.57 77.78 48.13 77.08 48.55C76.32 49.01 75.24 49.3 74.03 49.3C72.82 49.3 71.75 49.01 70.99 48.55C70.29 48.14 69.87 47.57 69.87 46.95C69.87 45.65 71.74 44.6 74.03 44.6C76.32 44.6 78.2 45.65 78.2 46.95V46.95Z" stroke="#231F20" stroke-miterlimit="10" stroke-linecap="round"/>
<path d="M78.56 50.44C78.56 51.85 76.53 52.99 74.03 52.99C71.53 52.99 69.51 51.86 69.51 50.44L69.54 50.15L69.87 46.96C69.87 47.58 70.29 48.14 70.99 48.56C71.75 49.02 72.83 49.31 74.03 49.31C75.23 49.31 76.32 49.02 77.08 48.56C77.78 48.15 78.2 47.58 78.2 46.96L78.53 50.15L78.56 50.44V50.44Z" stroke="#231F20" stroke-miterlimit="10" stroke-linecap="round"/>
<path d="M72.03 49.01L71.5 52.55" stroke="#231F20" stroke-miterlimit="10" stroke-linecap="round"/>
<path d="M75.58 49.13L75.94 52.74" stroke="#231F20" stroke-miterlimit="10" stroke-linecap="round"/>
<path d="M66.4016 72.2404C69.2132 70.9786 69.914 66.4388 67.9671 62.1005C66.0201 57.7622 62.1625 55.2682 59.3509 56.53C56.5393 57.7918 55.8384 62.3316 57.7854 66.6699C59.7324 71.0082 63.59 73.5022 66.4016 72.2404Z" stroke="#231F20" stroke-miterlimit="10" stroke-linecap="round"/>
<path d="M89.4979 66.4888C91.7141 61.6055 91.3744 56.6772 88.7391 55.4813C86.1038 54.2853 82.1709 57.2745 79.9547 62.1578C77.7385 67.0411 78.0782 71.9694 80.7135 73.1653C83.3488 74.3613 87.2817 71.3721 89.4979 66.4888Z" stroke="#231F20" stroke-miterlimit="10" stroke-linecap="round"/>
<path d="M89.85 56.37L89.63 54.72L84.11 51.69L81.97 51.89L78.56 49.3" stroke="#231F20" stroke-miterlimit="10" stroke-linecap="round"/>
<path d="M80.92 52.74C80.92 52.74 73.82 56.72 72.96 63.76L72.29 66.83C72.14 67.53 72.5 68.24 73.16 68.52C73.69 68.75 74.31 68.64 74.74 68.26L79.13 64.32" stroke="#231F20" stroke-miterlimit="10" stroke-linecap="round"/>
<path d="M72.26 67.05V76.03C72.26 76.03 73.55 76.92 75.17 76.19L77.8 78L79.48 82.34L89.28 88.65L90.76 87.17L90.22 86.63L96.58 81.48L96.74 78.88C96.74 78.88 100.59 79.97 100.59 78.19C100.59 76.41 98.26 76.15 96.48 75.82C94.7 75.49 93.95 74.04 92.99 74.34C92.03 74.64 91.87 74.67 91.87 74.67L86.42 71.18" stroke="#231F20" stroke-miterlimit="10" stroke-linecap="round"/>
<path d="M89.3 88.85L89.6 82.9L79.37 76.39L79.16 71.61" stroke="#231F20" stroke-miterlimit="10" stroke-linecap="round"/>
<path d="M95.17 82.62V78.72L85.03 72.26" stroke="#231F20" stroke-miterlimit="10" stroke-linecap="round"/>
<path d="M84.3 82.62L85.78 83.46" stroke="#231F20" stroke-miterlimit="10" stroke-linecap="round"/>
<path d="M90.64 79.63L92.12 80.47" stroke="#231F20" stroke-miterlimit="10" stroke-linecap="round"/>
<path d="M64.31 72.52L68.29 74.15L70.79 73.01L72.26 73.76" stroke="#231F20" stroke-miterlimit="10" stroke-linecap="round"/>
<path d="M78.62 69.95C78.62 69.95 86.88 70.52 87.8 61.4" stroke="#231F20" stroke-miterlimit="10" stroke-linecap="round"/>
<path d="M73.07 52.98L71.5 54.73L65.26 50.94L62.54 52.75L62.88 54.21C62.88 54.21 71.31 58.29 70.92 64.82" stroke="#231F20" stroke-miterlimit="10" stroke-linecap="round"/>
<path d="M36.63 35.83L54.79 46.95L52.04 50.3V58.47" stroke="#231F20" stroke-miterlimit="10" stroke-linecap="round"/>
<path d="M52.04 50.3L37.76 41.68L37.21 38.96L38.56 37.02" stroke="#231F20" stroke-miterlimit="10" stroke-linecap="round"/>
<path d="M54.79 46.95L59.9 42.84" stroke="#231F20" stroke-miterlimit="10" stroke-linecap="round"/>
</g>
<defs>
<clipPath id="clip0_5626_30352">
<rect width="100" height="100" fill="white"/>
</clipPath>
</defs>
</svg>
