<svg width="100" height="100" viewBox="0 0 100 100" fill="none" xmlns="http://www.w3.org/2000/svg">
<path d="M50 90C72.0914 90 90 72.0914 90 50C90 27.9086 72.0914 10 50 10C27.9086 10 10 27.9086 10 50C10 72.0914 27.9086 90 50 90Z" fill="#A1DCEF"/>
<path d="M9.91002 49.03C9.32002 48.97 8.73002 49.11 8.23002 49.43C6.34002 50.64 2.18002 54.52 6.19002 63.95C11.25 75.84 20.35 72.29 21.43 68.67C22.54 64.95 22.43 59.69 17.98 53.49C15.48 50 11.6 49.21 9.90002 49.04L9.91002 49.03Z" stroke="#231F20" stroke-miterlimit="10"/>
<path d="M15.84 51.29C15.84 51.29 12.61 60.69 22.01 65.3" stroke="#231F20" stroke-miterlimit="10"/>
<path d="M11.02 49.2C11.02 49.2 9.82003 57.46 12.62 61.9C15.42 66.34 21.44 68.67 21.44 68.67" stroke="#231F20" stroke-miterlimit="10"/>
<path d="M9.68002 49.02C9.68002 49.02 10.09 47 11.78 46.64C13.47 46.28 20.8 43.05 21.21 43.1C21.62 43.15 24.29 43 25 43.1C25.71 43.2 26.13 42.87 26.54 43.06C26.95 43.25 34.02 43.81 34.18 43.87C34.34 43.93 38.54 43.24 40.54 47.43C42.54 51.61 41.36 55.05 40.54 56.18C39.72 57.31 34.08 64.13 34.08 64.13H32.9C32.9 64.13 32.95 65.62 32.18 66.08C31.41 66.54 22.65 70.74 22.29 71.05C21.93 71.36 18.65 71.49 18.65 71.49" stroke="#231F20" stroke-miterlimit="10"/>
<path d="M24.38 43.07C24.38 43.07 31.15 45.63 32.99 51.85C34.84 58.07 34.43 62.03 34.08 64.12" stroke="#231F20" stroke-miterlimit="10"/>
<path d="M32.5 43.71L34.65 41.57L36.96 40.34L38.29 40.6C38.29 40.6 38.75 39.83 39.52 39.47C40.29 39.11 42.19 38.19 42.19 38.19L47.16 39.63L50.95 44.45C50.95 44.45 51.67 44.81 52.08 45.22C52.49 45.63 52.75 48.81 52.75 48.81V53.99C52.75 53.99 51.16 54.61 51.06 54.76C50.96 54.91 51.47 55.73 51.47 56.3C51.47 56.87 51.57 57.74 51.26 57.74C50.95 57.74 52.23 58.96 52.23 58.96C52.23 58.96 52.64 60.1 52.74 60.25C52.84 60.4 54.74 60.56 54.79 61.38C54.84 62.2 54.79 63.43 54.79 63.43C54.79 63.43 55.76 62.81 55.56 64.4C55.35 65.99 54.79 66.66 54.79 66.66C54.79 66.66 55.3 67.17 54.23 67.63C53.16 68.09 48.85 69.63 48.23 67.94C47.61 66.25 48.23 66.66 48.23 66.66L44.95 68.4L41.36 67.22L42.9 66.04L41.64 64.35L35.5 62.42" stroke="#231F20" stroke-miterlimit="10"/>
<path d="M41.64 51.29C41.64 51.29 44.33 52.03 45.36 52.08C46.39 52.13 52.74 49.2 52.74 49.2" stroke="#231F20" stroke-miterlimit="10"/>
<path d="M51.05 54.74L43.16 57.24C43.16 57.24 43.76 58.48 44.05 59.97C44.34 61.46 41.65 61.46 41.65 61.46C41.65 61.46 42.86 61.56 43.47 63.15C44.09 64.74 43.1 65.77 43.1 65.77" stroke="#231F20" stroke-miterlimit="10"/>
<path d="M52.74 60.23C52.74 60.23 47.25 61.05 47.61 62.42C47.96 63.79 50.25 63.96 51.05 64.13C51.85 64.3 54.79 63.41 54.79 63.41" stroke="#231F20" stroke-miterlimit="10"/>
<path d="M47.69 62.65L47.96 66.78" stroke="#231F20" stroke-miterlimit="10"/>
<path d="M37.72 40.75C37.72 40.75 43.92 43.88 44.9 43.42C45.88 42.96 46.75 42.14 45.16 40.91C43.57 39.68 40.39 39.06 40.39 39.06" stroke="#231F20" stroke-miterlimit="10"/>
<path d="M43.5 38.57L45.24 36.3L45.46 35.59L45.43 31.9C45.43 31.9 46.19 31.63 46.03 30.98C45.87 30.33 45.39 29.82 45.39 29.82C45.39 29.82 45.22 27.56 45.32 27.5C45.42 27.44 46.14 24.7 50.99 24.94C55.84 25.18 56.97 26.82 57.14 27.64C57.31 28.46 57.48 29.49 57.14 29.69C56.8 29.89 56.83 30.58 57.14 30.89C57.45 31.2 57.58 32.43 57.65 32.56C57.72 32.69 57.65 33.48 57.65 33.48L58.2 34.51V35.74L57.45 36.36C57.45 36.36 55.06 38.58 51.3 38.21C47.54 37.83 45.24 36.32 45.24 36.32" stroke="#231F20" stroke-miterlimit="10"/>
<path d="M45.46 35.42C45.46 35.42 43.63 35.63 43.5 35.86C43.37 36.09 43.15 34.97 41.64 34.9C40.13 34.83 37.77 35.24 36.85 37.39C35.93 39.54 35.72 40.39 36.13 40.77" stroke="#231F20" stroke-miterlimit="10"/>
<path d="M45.46 33.37C45.46 33.37 48.28 35.3 52.33 34.7C56.38 34.1 57.6 32.29 57.6 32.29" stroke="#231F20" stroke-miterlimit="10"/>
<path d="M45.4 29.81C45.4 29.81 46.74 31.62 51.54 31.16C56.34 30.7 57.16 29.67 57.16 29.67" stroke="#231F20" stroke-miterlimit="10"/>
<path d="M52.74 53C52.74 53 57.47 52.64 58.21 52.08L61.87 53C61.87 53 67.35 51.51 67.35 47.26C67.35 43.01 67.61 41.27 63.4 40.47C59.19 39.67 58.21 47.43 59.09 49.92C59.52 51.12 61.86 53 61.86 53" stroke="#231F20" stroke-miterlimit="10"/>
<path d="M65.12 40.94C65.12 40.94 59.92 39.2 58.59 39.05C57.26 38.9 54.34 41.67 54.18 44.28C54.03 46.89 54.8 50.64 56.59 51.25C58.38 51.86 58.21 52.07 58.21 52.07" stroke="#231F20" stroke-miterlimit="10"/>
<path d="M58.21 34.49L60.91 35.17L65.76 40.26L65.88 41.32C65.88 41.32 66.75 41.96 66.94 42.55L72.62 40.4L72.41 36.36L71.73 35.92C71.73 35.92 71.49 32.54 67.36 30.96L62.34 30.07L60.63 30.79L58.58 31.99L57.59 32.02" stroke="#231F20" stroke-miterlimit="10"/>
<path d="M67.35 47.26L72.63 44.92L72.46 40.48" stroke="#231F20" stroke-miterlimit="10"/>
<path d="M70.74 45.76L70.96 48.03L70.24 48.44L71.91 49.4V50.65C71.91 50.65 74.54 51.08 74.47 52.89V53.85C74.47 53.85 75.22 55.42 74.71 56.17C74.2 56.92 74.2 57.2 74.2 57.2C74.2 57.2 73.76 58.5 71.67 58.57C69.58 58.64 68.32 57.58 68.05 57.03L65.11 58.4L61.86 57.17L63.09 56.28L62 54.76C62 54.76 58.45 53.69 58.21 53.89C57.97 54.09 54.96 54.98 54.96 54.98L52.74 53.99" stroke="#231F20" stroke-miterlimit="10"/>
<path d="M71.91 49.39L64.98 53.91L65.12 58.38" stroke="#231F20" stroke-miterlimit="10"/>
<path d="M68.45 51.65C68.45 51.65 66.93 52.78 68.45 53.89C69.97 55 74.48 53.67 74.48 53.67" stroke="#231F20" stroke-miterlimit="10"/>
<path d="M63.4 30.09L64.97 29.1L65.86 27.8L67.35 26.98L68.12 25.54L70.44 24.91L72.63 25.27L80.42 21.58C80.42 21.58 87.39 21.65 89.1 27.25C90.81 32.85 89.72 35.74 86.02 38.57L84.65 39.56L83.08 39.9L77.41 42.57L72.63 44.62" stroke="#231F20" stroke-miterlimit="10"/>
<path d="M72.63 25.27C72.63 25.27 78.64 27.25 79.46 33.1C80.28 38.95 78.52 42.05 78.52 42.05" stroke="#231F20" stroke-miterlimit="10"/>
</svg>
