<svg width="100" height="99" viewBox="0 0 100 99" fill="none" xmlns="http://www.w3.org/2000/svg">
<path d="M50 90.08C72.0914 90.08 90 72.1714 90 50.08C90 27.9886 72.0914 10.08 50 10.08C27.9086 10.08 10 27.9886 10 50.08C10 72.1714 27.9086 90.08 50 90.08Z" fill="#A1DCEF"/>
<path d="M8.8832 56.5505L6.81409 13.2464L61.604 18.1111L62.9282 52.8445L8.8832 56.5505Z" stroke="#231F20" stroke-linejoin="bevel"/>
<path d="M6.81409 58.7575L4.31277 10.7451L63.6639 16.3455L64.9881 54.1963L37.9886 56.3114L30.5766 56.8907L6.81409 58.7575Z" stroke="#231F20" stroke-linejoin="bevel"/>
<path d="M2.4 12.0693L4.31277 10.7451L6.81409 58.7575L5.71057 58.169L2.4 12.0693Z" stroke="#231F20" stroke-linejoin="bevel"/>
<path d="M53.2816 54.4814C53.4695 54.4814 53.6218 54.329 53.6218 54.1411C53.6218 53.9532 53.4695 53.8009 53.2816 53.8009C53.0937 53.8009 52.9413 53.9532 52.9413 54.1411C52.9413 54.329 53.0937 54.4814 53.2816 54.4814Z" stroke="#231F20" stroke-miterlimit="10"/>
<path d="M54.8265 54.3802C55.0144 54.3802 55.1668 54.2279 55.1668 54.04C55.1668 53.8521 55.0144 53.6997 54.8265 53.6997C54.6386 53.6997 54.4863 53.8521 54.4863 54.04C54.4863 54.2279 54.6386 54.3802 54.8265 54.3802Z" stroke="#231F20" stroke-miterlimit="10"/>
<path d="M56.3715 54.2791C56.5594 54.2791 56.7117 54.1267 56.7117 53.9388C56.7117 53.7509 56.5594 53.5986 56.3715 53.5986C56.1835 53.5986 56.0312 53.7509 56.0312 53.9388C56.0312 54.1267 56.1835 54.2791 56.3715 54.2791Z" stroke="#231F20" stroke-miterlimit="10"/>
<path d="M62.119 53.9296C62.3577 53.9296 62.5512 53.7361 62.5512 53.4974C62.5512 53.2587 62.3577 53.0652 62.119 53.0652C61.8803 53.0652 61.6868 53.2587 61.6868 53.4974C61.6868 53.7361 61.8803 53.9296 62.119 53.9296Z" stroke="#231F20" stroke-miterlimit="10"/>
<path d="M57.9164 54.1779C58.1043 54.1779 58.2566 54.0256 58.2566 53.8377C58.2566 53.6497 58.1043 53.4974 57.9164 53.4974C57.7285 53.4974 57.5761 53.6497 57.5761 53.8377C57.5761 54.0256 57.7285 54.1779 57.9164 54.1779Z" stroke="#231F20" stroke-miterlimit="10"/>
<path d="M37.9886 57.0379L41.8693 63.3739V65.2407L34.1631 65.9764V64.1556L30.6778 57.7736L30.5766 56.8908L37.9886 56.3114V57.0379Z" stroke="#231F20" stroke-linejoin="bevel"/>
<path d="M22.4749 67.742L22.9715 65.7741L29.9421 65.9764L29.5926 67.9903L22.4749 67.742Z" stroke="#231F20" stroke-linejoin="bevel"/>
<path d="M29.5926 62.8773L33.501 62.9509L34.1631 64.1556L29.9421 65.9764L22.9715 65.7741L29.5926 62.8773Z" stroke="#231F20" stroke-linejoin="bevel"/>
<path d="M29.5926 67.9903L29.9421 65.9764L34.1631 64.1556V65.9764L29.5926 67.9903Z" stroke="#231F20" stroke-linejoin="bevel"/>
<path d="M53.6218 62.6383L53.2816 63.9625H41.8693V63.3739L41.4187 62.6383H53.6218Z" stroke="#231F20" stroke-linejoin="bevel"/>
<path d="M54.3667 65.2407L53.2816 63.9625H41.8693V65.2407H54.3667Z" stroke="#231F20" stroke-linejoin="bevel"/>
<path d="M55.4703 64.1096L54.3667 65.2407L53.2816 63.9625L53.6218 62.6383L55.4703 64.1096Z" stroke="#231F20" stroke-miterlimit="10"/>
<path d="M14.8698 81.1407L18.7873 73.3057C19.1552 72.5608 19.9 72.0826 20.7277 72.0458L68.6298 69.9031C69.393 69.8663 70.1195 70.2158 70.5701 70.8319L76.2257 78.4922L14.8606 81.1407H14.8698Z" stroke="#231F20" stroke-miterlimit="10"/>
<path d="M77.0165 79.5681C76.5751 81.8947 74.6624 83.688 69.3562 83.3937C64.0501 83.0994 51.7826 82.5752 46.1823 83.2282C40.5819 83.8811 29.8869 88.5986 22.4749 86.4376C15.0629 84.2765 15.256 82.704 14.8698 81.1315L76.2349 78.483C76.2349 78.483 77.1729 78.7497 77.0165 79.5589V79.5681Z" stroke="#231F20" stroke-miterlimit="10"/>
<path d="M18.6494 78.9704L20.3414 74.9058C20.4794 74.5839 20.7829 74.3632 21.1323 74.3448L69.0068 72.1378C69.3471 72.1194 69.6597 72.2941 69.8252 72.5884L72.2438 76.7174C72.4001 76.9933 72.2162 77.3335 71.9035 77.3427L19.054 79.5406C18.7505 79.5497 18.5298 79.2463 18.6494 78.9612V78.9704Z" stroke="#231F20" stroke-miterlimit="10"/>
<path d="M78.2396 71.5676C78.2396 71.5676 83.0491 67.788 88.5483 69.0111C94.0476 70.2342 95.0775 73.7103 94.6821 76.8093C91.0956 78.1887 89.1369 77.5082 87.9046 77.168C86.6724 76.8277 78.2304 71.5676 78.2304 71.5676H78.2396Z" stroke="#231F20" stroke-linejoin="bevel"/>
<path d="M94.7465 76.1288C92.3923 77.1772 87.7575 77.0208 86.7827 76.1288C86.8287 74.7586 85.7068 73.0298 84.3274 72.1194C83.1503 71.3469 80.5018 71.3009 78.6626 71.8159C78.3959 71.6504 78.2396 71.5584 78.2396 71.5584C78.2396 71.5584 83.0491 67.7788 88.5483 69.0019C93.6429 70.1422 94.9028 73.2045 94.7465 76.1196V76.1288Z" stroke="#231F20" stroke-linejoin="bevel"/>
<path d="M94.7465 76.1288C94.7373 76.3587 94.7097 76.5886 94.6821 76.8093C91.0956 78.1887 89.1369 77.5082 87.9046 77.1588C86.8379 76.8553 80.3731 72.8826 78.6534 71.8159C80.5018 71.3009 83.1503 71.3469 84.3182 72.1194C85.6884 73.0298 86.8195 74.7494 86.7735 76.1288C87.7483 77.0208 92.3831 77.168 94.7373 76.1288H94.7465Z" stroke="#231F20" stroke-linejoin="bevel"/>
<path d="M90.4703 9.98183C90.4703 10.1382 89.5323 50.8398 89.33 59.5208C89.3116 60.4404 88.5943 61.1945 87.6747 61.2589L71.8484 62.4819C71.7196 62.4911 71.5817 62.4819 71.4621 62.4727C71.4621 62.4727 71.4621 62.4727 71.4529 62.4727L71.2414 62.4267C70.4874 62.2152 69.9264 61.5163 69.9356 60.6887L70.4046 10.1749C70.4046 9.43006 70.8644 8.80473 71.5081 8.53805L72.3358 8.40931C77.3476 8.80473 90.4795 9.84389 90.4795 9.98183H90.4703Z" stroke="#231F20" stroke-linejoin="bevel"/>
<path d="M72.3266 8.40931L71.4989 8.53805C71.7472 8.4277 72.0323 8.38172 72.3266 8.40931V8.40931Z" stroke="#231F20" stroke-linejoin="bevel"/>
<path d="M71.4622 62.4727H71.4437" stroke="#231F20" stroke-linejoin="bevel"/>
<path d="M47.5249 14.8189V12.3636L71.4897 8.53805C70.8552 8.80473 70.3954 9.43006 70.3862 10.1749L69.9172 60.6887C69.9172 61.5255 70.469 62.2152 71.223 62.4267L47.5801 57.3597V55.5573" stroke="#231F20" stroke-linejoin="bevel"/>
<path d="M70.9012 62.3532C70.7632 63.0705 70.3494 63.6406 69.062 63.5211C67.5446 63.3739 67.8021 61.7554 67.8021 61.7554L68.2067 61.783L70.9012 62.3624V62.3532Z" stroke="#231F20" stroke-linejoin="bevel"/>
<path d="M86.8563 61.3324C86.7551 62.1049 86.4057 62.7578 85.1734 62.6291C84.4101 62.5463 84.1434 62.0037 84.0607 61.5439L86.8563 61.3324V61.3324Z" stroke="#231F20" stroke-linejoin="bevel"/>
<path d="M51.2401 58.1414C51.2217 58.3713 51.1573 59.7415 52.0401 59.8794C52.9046 60.0082 53.1437 59.3461 53.2172 58.5644" stroke="#231F20" stroke-linejoin="bevel"/>
<path d="M83.371 18.6813H76.4004C76.116 18.6813 75.8854 18.9118 75.8854 19.1962V19.4537C75.8854 19.7381 76.116 19.9687 76.4004 19.9687H83.371C83.6554 19.9687 83.886 19.7381 83.886 19.4537V19.1962C83.886 18.9118 83.6554 18.6813 83.371 18.6813Z" stroke="#231F20" stroke-linejoin="bevel"/>
<path d="M80.4558 41.4782C81.0805 41.4782 81.587 40.9718 81.587 40.3471C81.587 39.7224 81.0805 39.216 80.4558 39.216C79.8311 39.216 79.3247 39.7224 79.3247 40.3471C79.3247 40.9718 79.8311 41.4782 80.4558 41.4782Z" stroke="#231F20" stroke-linejoin="bevel"/>
<path d="M80.4558 44.329C80.8114 44.329 81.0996 44.0408 81.0996 43.6853C81.0996 43.3297 80.8114 43.0415 80.4558 43.0415C80.1003 43.0415 79.8121 43.3297 79.8121 43.6853C79.8121 44.0408 80.1003 44.329 80.4558 44.329Z" stroke="#231F20" stroke-linejoin="bevel"/>
<path d="M80.4558 42.8668C82.0303 42.8668 83.3066 41.5905 83.3066 40.016C83.3066 38.4416 82.0303 37.1653 80.4558 37.1653C78.8814 37.1653 77.6051 38.4416 77.6051 40.016C77.6051 41.5905 78.8814 42.8668 80.4558 42.8668Z" stroke="#231F20" stroke-linejoin="bevel"/>
<path d="M70.1655 34.7559H74.0738L75.0486 33.9835H84.4745L85.4493 34.7559H89.9002" stroke="#231F20" stroke-linejoin="bevel"/>
<path d="M70.3126 19.1963H75.8854" stroke="#231F20" stroke-linejoin="bevel"/>
<path d="M83.886 19.6836H90.2496" stroke="#231F20" stroke-linejoin="bevel"/>
<path d="M82.2491 49.2948H77.5315C77.3842 49.2948 77.2648 49.4142 77.2648 49.5615V49.6443C77.2648 49.7916 77.3842 49.911 77.5315 49.911H82.2491C82.3964 49.911 82.5158 49.7916 82.5158 49.6443V49.5615C82.5158 49.4142 82.3964 49.2948 82.2491 49.2948Z" stroke="#231F20" stroke-width="0.25" stroke-miterlimit="10"/>
<path d="M82.2491 50.6926H77.5315C77.3842 50.6926 77.2648 50.812 77.2648 50.9593V51.0421C77.2648 51.1893 77.3842 51.3087 77.5315 51.3087H82.2491C82.3964 51.3087 82.5158 51.1893 82.5158 51.0421V50.9593C82.5158 50.812 82.3964 50.6926 82.2491 50.6926Z" stroke="#231F20" stroke-width="0.25" stroke-miterlimit="10"/>
<path d="M82.2491 52.0812H77.5315C77.3842 52.0812 77.2648 52.2006 77.2648 52.3479V52.4307C77.2648 52.578 77.3842 52.6974 77.5315 52.6974H82.2491C82.3964 52.6974 82.5158 52.578 82.5158 52.4307V52.3479C82.5158 52.2006 82.3964 52.0812 82.2491 52.0812Z" stroke="#231F20" stroke-width="0.25" stroke-miterlimit="10"/>
<path d="M82.2491 53.479H77.5315C77.3842 53.479 77.2648 53.5984 77.2648 53.7457V53.8285C77.2648 53.9757 77.3842 54.0951 77.5315 54.0951H82.2491C82.3964 54.0951 82.5158 53.9757 82.5158 53.8285V53.7457C82.5158 53.5984 82.3964 53.479 82.2491 53.479Z" stroke="#231F20" stroke-width="0.25" stroke-miterlimit="10"/>
<path d="M82.2491 54.8768H77.5315C77.3842 54.8768 77.2648 54.9962 77.2648 55.1435V55.2263C77.2648 55.3735 77.3842 55.4929 77.5315 55.4929H82.2491C82.3964 55.4929 82.5158 55.3735 82.5158 55.2263V55.1435C82.5158 54.9962 82.3964 54.8768 82.2491 54.8768Z" stroke="#231F20" stroke-width="0.25" stroke-miterlimit="10"/>
<path d="M82.2491 56.2654H77.5315C77.3842 56.2654 77.2648 56.3848 77.2648 56.5321V56.6149C77.2648 56.7621 77.3842 56.8815 77.5315 56.8815H82.2491C82.3964 56.8815 82.5158 56.7621 82.5158 56.6149V56.5321C82.5158 56.3848 82.3964 56.2654 82.2491 56.2654Z" stroke="#231F20" stroke-width="0.25" stroke-miterlimit="10"/>
<path d="M82.2491 57.6632H77.5315C77.3842 57.6632 77.2648 57.7826 77.2648 57.9299V58.0127C77.2648 58.16 77.3842 58.2794 77.5315 58.2794H82.2491C82.3964 58.2794 82.5158 58.16 82.5158 58.0127V57.9299C82.5158 57.7826 82.3964 57.6632 82.2491 57.6632Z" stroke="#231F20" stroke-width="0.25" stroke-miterlimit="10"/>
<path d="M82.2491 59.0518H77.5315C77.3842 59.0518 77.2648 59.1712 77.2648 59.3185V59.4013C77.2648 59.5486 77.3842 59.668 77.5315 59.668H82.2491C82.3964 59.668 82.5158 59.5486 82.5158 59.4013V59.3185C82.5158 59.1712 82.3964 59.0518 82.2491 59.0518Z" stroke="#231F20" stroke-width="0.25" stroke-miterlimit="10"/>
</svg>
