<svg width="100" height="100" viewBox="0 0 100 100" fill="none" xmlns="http://www.w3.org/2000/svg">
<path d="M50 90C72.0914 90 90 72.0914 90 50C90 27.9086 72.0914 10 50 10C27.9086 10 10 27.9086 10 50C10 72.0914 27.9086 90 50 90Z" fill="#A1DCEF"/>
<path d="M8.28876 39.4305H53.9693C53.9693 39.4305 53.6218 41.4497 53.2931 42.0319C53.0959 42.3794 52.1661 43.1589 52.1661 43.1589L40.7084 43.5534L34.1719 46.8968H17.5864L12.8624 43.7975L6.17566 43.8445C6.17566 43.8445 6.76733 41.459 7.16177 40.7453C7.36839 40.3696 8.28876 39.4211 8.28876 39.4211V39.4305Z" stroke="#231F20" stroke-miterlimit="10"/>
<path d="M6.17561 43.8539C6.17561 43.8539 4.09069 45.582 3.76198 46.3239C2.89796 48.268 3.76198 54.8514 3.76198 54.8514C3.76198 54.8514 3.79955 56.4386 4.04373 56.8894C4.26913 57.3214 5.49942 58.1854 5.49942 58.1854H54.636L55.2277 57.4529L57.0966 49.1132C57.0966 49.1132 57.7634 46.6996 58.1109 45.9482C58.3832 45.3754 59.1534 44.3141 59.6605 43.9384C59.9704 43.713 60.7217 43.4313 61.0974 43.4031C61.4261 43.375 62.0929 43.4219 62.3934 43.544C62.7785 43.7037 63.4641 44.1732 63.7458 44.4738C64.1027 44.8588 64.8165 46.0422 65.0513 46.5117C65.6241 47.6387 66.1125 49.7988 66.1125 49.7988" stroke="#231F20" stroke-miterlimit="10"/>
<path d="M70.4044 39.2802L53.9692 39.4305" stroke="#231F20" stroke-miterlimit="10"/>
<path d="M8.28876 39.4305C11.2377 37.8339 15.154 35.8523 19.3614 34.669C20.0094 34.4905 21.7375 34.7347 23.3622 33.711C24.4047 33.0442 24.4892 32.5183 25.9918 30.5085C27.5602 28.4236 29.0065 26.5359 31.3638 25.1929C31.8428 24.9205 32.735 24.451 33.9371 24.0941C36.1629 23.4273 38.0412 23.4085 38.6516 23.3991C41.8072 23.3521 43.7137 23.3991 56.5801 23.108C64.5535 22.9201 79.1856 23.6245 79.9839 24.0941C80.3032 24.2819 80.491 24.5167 80.5849 24.6388C82.3881 26.9679 82.9422 28.2545 82.9422 28.2545C84.2852 31.3537 84.7078 34.3778 84.8581 36.1528C84.9144 36.8102 84.9332 37.7588 84.9708 39.6653C85.0459 44.0417 85.0929 46.2206 84.8017 47.8359C84.5388 49.3198 82.3693 55.105 80.923 58.1854" stroke="#231F20" stroke-miterlimit="10"/>
<path d="M61.4543 66.5063C63.721 66.5063 65.5584 62.9912 65.5584 58.655C65.5584 54.3188 63.721 50.8036 61.4543 50.8036C59.1877 50.8036 57.3502 54.3188 57.3502 58.655C57.3502 62.9912 59.1877 66.5063 61.4543 66.5063Z" stroke="#231F20" stroke-miterlimit="10"/>
<path d="M61.5576 69.1923C64.9342 69.1923 67.6715 64.483 67.6715 58.6738C67.6715 52.8646 64.9342 48.1552 61.5576 48.1552C58.181 48.1552 55.4437 52.8646 55.4437 58.6738C55.4437 64.483 58.181 69.1923 61.5576 69.1923Z" stroke="#231F20" stroke-miterlimit="10"/>
<path d="M38.7174 39.2802C38.7174 39.2802 44.944 36.134 47.583 35.3451C49.8088 34.6783 56.9933 33.4762 56.9933 33.4762" stroke="#231F20" stroke-miterlimit="10"/>
<path d="M78.8381 39.2802L95.6959 39.3553" stroke="#231F20" stroke-miterlimit="10"/>
<path d="M84.8674 36.1622H95.3109C95.3109 36.1622 96.297 47.1879 95.7053 50.7943C95.6114 51.3578 95.1042 52.4096 94.8037 52.898C94.6253 53.1797 93.6298 54.4382 93.6298 54.4382" stroke="#231F20" stroke-miterlimit="10"/>
<path d="M25.6537 33.2321H53.8096C53.8096 33.2321 60.271 33.8989 62.3653 33.4762C62.8818 33.3729 63.8586 32.8 64.1873 32.3868C64.9855 31.3819 65.7744 28.4236 66.1595 26.611C66.3285 25.8127 66.1595 25.4465 65.9341 25.3338C65.6617 25.1929 64.9762 25.1459 64.9762 25.1459H36.1723C36.1723 25.1459 34.5194 25.1553 33.9746 25.2586C33.2703 25.3901 31.9461 25.916 31.3826 26.3481C29.6076 27.7098 25.6537 33.2415 25.6537 33.2415" stroke="#231F20" stroke-miterlimit="10"/>
<path d="M34.9983 58.1854H21.7562" stroke="#231F20" stroke-miterlimit="10"/>
<path d="M83.6935 58.1854H67.6715" stroke="#231F20" stroke-miterlimit="10"/>
<path d="M47.9305 58.1854C48.0244 59.9698 48.0338 62.8718 49.0387 65.5296C49.5928 67.0135 50.5319 68.5349 51.3584 69.5586" stroke="#231F20" stroke-miterlimit="10"/>
<path d="M33.5896 61.5288C33.6178 62.9 33.8244 64.3651 34.3221 65.6987C34.8762 67.1825 35.8436 68.441 36.4634 69.4647" stroke="#231F20" stroke-miterlimit="10"/>
<path d="M79.3076 58.1854C79.2043 59.5941 78.9508 61.7917 79.9463 65.5296C80.3595 67.0604 81.1766 68.3846 82.0875 69.2956" stroke="#231F20" stroke-miterlimit="10"/>
<path d="M17.2858 69.8028C19.4459 68.6852 21.08 65.2009 21.5965 61.2564" stroke="#231F20" stroke-miterlimit="10"/>
<path d="M10.0074 58.1854C9.27487 63.2193 11.5007 68.3752 14.2054 69.8967" stroke="#231F20" stroke-miterlimit="10"/>
<path d="M3.71505 54.3067C2.02457 57.6125 2.12788 62.8718 3.12339 65.5296C3.67749 67.0135 5.26466 69.3801 6.10051 70" stroke="#231F20" stroke-miterlimit="10"/>
<path d="M66.676 34.1055C66.7042 33.758 66.8357 32.9127 67.5025 32.368C67.6246 32.2647 67.7842 32.1708 68.0284 32.0675C68.9018 31.7106 69.625 31.8233 71.569 32.0299C72.9214 32.1708 73.2313 32.1896 73.4192 32.4807C73.6915 32.9221 73.4192 33.6171 73.1186 34.0303C72.649 34.6502 71.9635 34.7911 71.0807 35.0071C70.2542 35.2137 69.0427 35.533 67.54 36.0213" stroke="#231F20" stroke-miterlimit="10"/>
<path d="M7.92246 52.8698C8.58118 52.8698 9.11519 52.2391 9.11519 51.4611C9.11519 50.683 8.58118 50.0523 7.92246 50.0523C7.26373 50.0523 6.72973 50.683 6.72973 51.4611C6.72973 52.2391 7.26373 52.8698 7.92246 52.8698Z" stroke="#231F20" stroke-miterlimit="10"/>
<path d="M46.1367 52.8698C46.7954 52.8698 47.3294 52.2391 47.3294 51.4611C47.3294 50.683 46.7954 50.0523 46.1367 50.0523C45.478 50.0523 44.944 50.683 44.944 51.4611C44.944 52.2391 45.478 52.8698 46.1367 52.8698Z" stroke="#231F20" stroke-miterlimit="10"/>
<path d="M66.676 33.927C66.7512 32.3868 67.0517 30.0953 67.3053 29.2876C67.7467 27.8695 68.0848 26.8364 69.0333 26.2447C69.7095 25.8221 70.3763 25.8221 71.1276 25.8221C74.0484 25.8221 75.8704 25.7 76.7907 25.7658C78.8287 25.9254 79.2419 26.1133 79.58 26.3762C80.0684 26.7613 80.3595 27.3905 80.9418 28.6584C81.7776 30.4897 81.7119 31.1941 81.6649 31.4477C81.5804 32.0018 81.3644 32.3962 81.1766 32.7343C80.707 33.5889 80.0966 34.1055 79.5518 34.5563C79.0071 35.0071 78.5563 35.2043 78.3403 35.2419C76.7625 35.533 70.1039 35.4391 69.7001 35.3639" stroke="#231F20" stroke-miterlimit="10"/>
<path d="M13.7076 39.4305C15.3136 38.3786 18.7415 36.1904 20.7044 35.1855C21.4557 34.8005 22.4887 34.1337 23.2213 33.7956" stroke="#231F20" stroke-miterlimit="10"/>
<path d="M18.8918 34.5844C18.8355 34.406 18.7791 34.1149 18.8824 33.8143C19.1736 32.9597 20.5353 32.8094 21.1646 32.7343C21.6999 32.678 22.2352 32.6216 22.7236 32.9597C23.0053 33.1569 23.165 33.4105 23.2589 33.5889" stroke="#231F20" stroke-miterlimit="10"/>
<path d="M13.0127 49.0192L10.5052 47.5072L5.71548 47.7138L5.23651 48.2679V54.3255L5.79061 54.8702H9.95106" stroke="#231F20" stroke-miterlimit="10"/>
<path d="M11.3316 54.4006L15.1728 50.7943H34.1625L38.3323 54.4006" stroke="#231F20" stroke-miterlimit="10"/>
<path d="M13.0127 55.2646L16.3561 56.4668H32.0024L36.5103 55.2646" stroke="#231F20" stroke-miterlimit="10"/>
<path d="M37.6467 49.2728L41.6757 47.8923H48.7475L49.7806 48.5872L49.5552 53.9216L48.4094 54.8702H41.779" stroke="#231F20" stroke-miterlimit="10"/>
<path d="M55.0868 48.4464C55.4437 46.8968 55.3498 45.9294 56.5425 44.1263C56.9182 43.5534 57.9231 42.0413 59.8859 41.5717C60.2897 41.4778 62.046 41.0176 63.6237 42.1446C65.0513 43.1589 65.6335 44.5113 66.3097 46.014" stroke="#231F20" stroke-miterlimit="10"/>
<path d="M68.0942 53.2079C68.3571 53.4896 68.7891 53.8841 69.409 54.1189C70.2918 54.4476 72.0104 54.241 72.3391 54.241C74.4178 54.241 76.8784 54.2222 79.7209 54.1846C80.1905 54.1846 80.4253 53.9029 81.2987 53.5366" stroke="#231F20" stroke-miterlimit="10"/>
<path d="M75.1472 40.642H77.4951" stroke="#231F20" stroke-miterlimit="10"/>
<path d="M67.7467 50.7661C68.9394 49.733 71.4751 47.8453 75.0533 47.2349C76.0958 47.0564 78.0774 46.7371 80.4722 47.4039C81.4208 47.6669 82.1721 48.005 82.698 48.2867" stroke="#231F20" stroke-miterlimit="10"/>
<path d="M60.7218 52.0152L59.1816 54.4194" stroke="#231F20" stroke-miterlimit="10"/>
<path d="M62.8912 52.7383C62.1868 53.499 61.6985 54.1752 61.3792 54.6636C61.135 55.0392 60.9565 55.3492 61.0504 55.6779C61.1631 56.0817 61.6233 56.2601 61.83 56.3447C62.5625 56.6358 63.2575 56.4104 63.5298 56.3071" stroke="#231F20" stroke-miterlimit="10"/>
<path d="M61.8206 63.2568C61.6515 63.116 60.3743 62.0453 60.5527 60.7587C60.5809 60.5615 60.6467 60.0543 61.0411 59.7632C61.2289 59.6223 61.4355 59.5847 62.0836 59.5566C62.478 59.5378 62.9945 59.5284 63.6144 59.5566" stroke="#231F20" stroke-miterlimit="10"/>
<path d="M58.5899 61.7166L59.8766 63.9049" stroke="#231F20" stroke-miterlimit="10"/>
<path d="M83.4024 58.2887C85.0835 53.8559 87.2623 47.4697 88.502 45.8919C88.9058 45.3753 89.4787 44.5677 90.3333 44.5301C91.6012 44.4831 92.4934 46.1361 92.6343 46.4084C93.1508 47.4509 93.4795 48.437 93.611 51.5174" stroke="#231F20" stroke-miterlimit="10"/>
<path d="M85.9475 47.8829C86.3513 46.4084 86.6331 45.6289 86.9618 45.0278C87.5816 43.8915 88.1733 42.8114 89.3285 42.5297C90.0986 42.3419 90.7748 42.6048 91.0471 42.7081C92.2211 43.1589 92.7564 44.1638 92.9442 44.5019C93.226 45.0278 93.4232 45.8261 93.4701 46.1454" stroke="#231F20" stroke-miterlimit="10"/>
<path d="M90.277 66.3185C91.6826 66.3185 92.8221 63.1187 92.8221 59.1715C92.8221 55.2243 91.6826 52.0245 90.277 52.0245C88.8713 52.0245 87.7319 55.2243 87.7319 59.1715C87.7319 63.1187 88.8713 66.3185 90.277 66.3185Z" stroke="#231F20" stroke-miterlimit="10"/>
<path d="M90.277 68.8824C92.3206 68.8824 93.9773 64.5095 93.9773 59.1152C93.9773 53.7209 92.3206 49.348 90.277 49.348C88.2334 49.348 86.5767 53.7209 86.5767 59.1152C86.5767 64.5095 88.2334 68.8824 90.277 68.8824Z" stroke="#231F20" stroke-miterlimit="10"/>
<path d="M6.10051 70L92.0144 69.1923" stroke="#231F20" stroke-miterlimit="10"/>
<path d="M90.2019 62.9751C90.0046 62.7121 89.629 62.1017 89.6759 61.3034C89.6947 61.031 89.7135 60.646 89.9952 60.3455C90.5118 59.8008 91.5824 59.9886 91.6294 59.998" stroke="#231F20" stroke-miterlimit="10"/>
<path d="M90.8404 54.2785C90.5493 54.5885 90.1079 55.1519 90.0046 55.9408C89.9576 56.2883 89.9013 56.7016 90.1643 57.0209C90.5681 57.5186 91.3852 57.3496 91.4321 57.3402" stroke="#231F20" stroke-miterlimit="10"/>
<path d="M89.8356 53.2079C89.4881 53.7902 89.1782 54.5039 89.0091 55.3492C88.9903 55.4619 88.9715 55.5746 88.9528 55.6873" stroke="#231F20" stroke-miterlimit="10"/>
<path d="M88.3893 62.1674C88.5114 62.6558 88.718 63.2005 89.0936 63.7358C89.1406 63.8109 89.197 63.8767 89.2439 63.9424" stroke="#231F20" stroke-miterlimit="10"/>
<path d="M45.8737 69.6056C45.8737 69.6056 46.6532 68.9106 47.4515 67.2671C47.9399 66.2622 48.7475 64.3932 48.7475 64.3932" stroke="#231F20" stroke-miterlimit="10"/>
<path d="M15.6236 58.1854C15.6236 58.1854 16.7975 60.2891 17.2765 60.646C17.7554 61.0029 18.9294 61.3316 19.5117 61.3973C20.7138 61.5288 24.3483 61.3973 24.3483 61.3973H41.4034C41.4034 61.3973 42.8591 61.4161 43.3286 61.3034C43.8358 61.1813 44.8031 60.7681 45.2257 60.4582C45.7798 60.0543 47.3013 58.6738 47.3013 58.6738" stroke="#231F20" stroke-miterlimit="10"/>
<path d="M67.9157 60.5333H76.3305L77.6078 61.7166L79.2701 61.8575" stroke="#231F20" stroke-miterlimit="10"/>
</svg>
