<svg width="100" height="100" viewBox="0 0 100 100" fill="none" xmlns="http://www.w3.org/2000/svg">
<path d="M50 90C72.0914 90 90 72.0914 90 50C90 27.9086 72.0914 10 50 10C27.9086 10 10 27.9086 10 50C10 72.0914 27.9086 90 50 90Z" fill="#A1DCEF"/>
<path d="M79.76 38.49C79.92 34.58 80.93 31.84 81.86 30.02C82.71 28.36 83.44 27.56 85.02 24.89C86.48 22.44 87.49 20.35 88.1 18.99C79.65 14.83 71.2 10.67 62.74 6.51001C62.33 8.27001 61.57 10.88 60.1 13.8C58.63 16.72 57.29 18.32 56.38 19.7C54.61 22.36 52.83 26.65 52.99 33.67" stroke="#231F20" stroke-miterlimit="10"/>
<path d="M82.34 35.62C82.61 33.03 83.37 31.21 84 30.03C84.6 28.91 85.7 27.53 87.93 24.81C89.5 22.9 90.16 22.27 90.92 20.88C91.88 19.13 92.27 17.49 92.46 16.35C83.91 12.42 75.36 8.48 66.81 4.55C66.33 5.64 65.86 6.73 65.38 7.82" stroke="#231F20" stroke-miterlimit="10"/>
<path d="M22.22 65.22C20.96 64.43 19.7 63.65 18.44 62.86C18.81 55.51 19.19 48.17 19.56 40.82C20.74 39.18 21.93 37.55 23.11 35.91L51.63 25.93L53.51 26.72" stroke="#231F20" stroke-miterlimit="10"/>
<path d="M82.82 39.08C82.97 39.14 83.08 39.19 83.13 39.21L90.15 42.17V67.44L53.95 85.06L44.45 79.12" stroke="#231F20" stroke-miterlimit="10"/>
<path d="M80.58 38.15C80.87 38.27 81.34 38.46 81.9 38.69C82.28 38.85 82.59 38.98 82.82 39.08" stroke="#231F20" stroke-miterlimit="10"/>
<path d="M90.15 42.17C79.31 46.61 68.46 51.06 57.62 55.5C46.12 48.97 34.62 42.44 23.12 35.92" stroke="#231F20" stroke-miterlimit="10"/>
<path d="M57.62 55.5L54.5 61.37C54.32 69.27 54.13 77.16 53.95 85.06" stroke="#231F20" stroke-miterlimit="10"/>
<path d="M19.56 40.82C31.21 47.67 42.85 54.52 54.5 61.37" stroke="#231F20" stroke-miterlimit="10"/>
<path d="M53.24 28.63C51.34 29.41 49.44 30.19 47.55 30.97C54.76 34.78 61.97 38.59 69.18 42.4C72.98 40.98 76.78 39.57 80.58 38.15C82.68 35.14 84.77 32.13 86.87 29.12C86.34 28.79 85.8 28.45 85.27 28.12" stroke="#231F20" stroke-miterlimit="10"/>
<path d="M65.87 12.35L82.34 20.07" stroke="#231F20" stroke-miterlimit="10"/>
<path d="M63.83 16.21L80.3 23.93" stroke="#231F20" stroke-miterlimit="10"/>
<path d="M61.79 20.07L78.25 27.8" stroke="#231F20" stroke-miterlimit="10"/>
<path d="M59.74 23.93L76.21 31.66" stroke="#231F20" stroke-miterlimit="10"/>
<path d="M57.7 27.8L74.17 35.52" stroke="#231F20" stroke-miterlimit="10"/>
<path d="M55.66 31.66L72.13 39.38" stroke="#231F20" stroke-miterlimit="10"/>
<path d="M29.87 52.11C34.12 54.59 38.36 57.06 42.61 59.54L42.23 62.32C37.95 59.83 33.67 57.34 29.39 54.85L29.87 52.1V52.11Z" stroke="#231F20" stroke-miterlimit="10"/>
<path d="M87.28 61.76C83.67 63.25 80.05 64.74 76.44 66.23L76.67 69.81C80.21 68.33 83.75 66.85 87.29 65.37V61.76H87.28Z" stroke="#231F20" stroke-miterlimit="10"/>
<path d="M83.98 63.14L84.17 66.78" stroke="#231F20" stroke-miterlimit="10"/>
<path d="M80.28 64.61L80.57 68.06" stroke="#231F20" stroke-miterlimit="10"/>
<path d="M44.46 79.12L44.92 70.51C38.5 66.44 32.09 62.36 25.67 58.29V63.53" stroke="#231F20" stroke-miterlimit="10"/>
<path d="M30.34 61.26C21.36 65.64 12.39 70.02 3.40997 74.39V77.56C9.83997 82.17 16.28 86.79 22.71 91.4L44.46 79.12" stroke="#231F20" stroke-miterlimit="10"/>
<path d="M3.40997 74.39C9.81997 78.99 16.23 83.59 22.64 88.19C29.96 84.2 37.29 80.22 44.61 76.23" stroke="#231F20" stroke-miterlimit="10"/>
<path d="M22.64 88.19L22.71 91.41" stroke="#231F20" stroke-miterlimit="10"/>
<path d="M47.75 78.07C48.7 78.65 49.64 79.22 50.59 79.8L50.8 75.87L48.09 74.39L47.75 78.07Z" stroke="#231F20" stroke-linecap="round" stroke-linejoin="round"/>
</svg>
