<svg width="100" height="100" viewBox="0 0 100 100" fill="none" xmlns="http://www.w3.org/2000/svg">
<g clip-path="url(#clip0_5616_29541)">
<path d="M50 90C72.0914 90 90 72.0914 90 50C90 27.9086 72.0914 10 50 10C27.9086 10 10 27.9086 10 50C10 72.0914 27.9086 90 50 90Z" fill="#A1DCEF"/>
<path d="M68.9639 61.1241C68.9639 61.1241 67.329 60.887 66.9366 61.8025C66.5442 62.7181 66.7895 63.8789 65.5388 64.402C64.2881 64.9334 53.9228 64.9824 51.029 65.7999C48.1353 66.6173 49.3451 64.5001 49.5331 64.1159C49.7293 63.7317 49.386 63.3966 49.8192 63.3475C50.2525 63.2985 57.4787 61.0341 58.6885 60.6009C59.8902 60.1676 62.3017 59.2521 62.7349 59.2521C63.1682 59.2521 64.4189 59.0559 65.5306 59.2521C66.6423 59.4483 67.844 59.7834 67.844 59.7834L68.2282 59.1703C68.2282 59.1703 70.9258 57.7153 72.0866 58.2957C73.2473 58.8761 72.8059 58.6799 73.7705 58.6799C74.7351 58.6799 78.4954 57.7643 78.4954 57.7643L87.986 55.7861C87.986 55.7861 89.8171 54.5354 90.1522 54.5354C90.4874 54.5354 90.4874 55.3529 90.4874 55.3529C90.4874 55.3529 90.6836 56.6526 90.2013 56.8978C89.719 57.1431 82.1984 58.5818 80.4164 58.9742C78.6343 59.3584 74.9231 60.0368 74.2937 60.0368C73.6642 60.0368 73.4272 59.7998 73.231 59.9878C73.0348 60.184 74.8659 60.421 71.9312 60.9033C68.9884 61.3856 68.9394 61.1404 68.9394 61.1404L68.9639 61.1241Z" stroke="#231F20" stroke-miterlimit="10"/>
<path d="M65.5388 64.4022C65.5388 64.4022 65.4571 64.3859 66.0375 65.5467C66.6179 66.7074 66.8059 67.7292 67.0675 67.86C67.3209 67.9908 68.2528 68.375 68.2528 68.375C68.2528 68.375 66.2582 76.7621 66.3563 76.9828C66.4544 77.2035 68.6043 78.0455 69.152 77.3016C69.6997 76.5659 69.7732 74.8247 69.8304 74.7348C69.8877 74.6449 71.498 68.0235 71.498 68.0235C71.498 68.0235 72.2991 67.8273 72.3318 67.4758C72.3645 67.1243 72.7487 63.6829 72.8141 63.4949C72.8795 63.3068 72.8141 61.6311 72.8141 61.6311L72.201 60.8463" stroke="#231F20" stroke-miterlimit="10"/>
<path d="M63.7568 59.1788C63.7568 59.1788 55.3697 52.6882 54.8384 52.492C54.3071 52.2958 53.2934 52.255 53.2934 52.255C53.2934 52.255 51.0291 51.9689 50.743 52.255C50.4569 52.5411 50.2607 52.7863 50.2607 52.7863V54.8626C50.2607 54.8626 50.98 55.3449 51.1762 56.0234C51.3724 56.7019 54.9365 58.2878 55.0346 58.4349C55.1327 58.582 58.3207 60.7319 58.3207 60.7319" stroke="#231F20" stroke-miterlimit="10"/>
<path d="M52.3779 56.9879C52.3779 56.9879 50.8411 58.3776 50.743 58.8108C50.6449 59.2441 47.416 61.6555 46.5985 61.8926C45.7811 62.1297 44.2851 61.8926 44.2851 61.8926V59.3422C44.2851 59.1868 44.0971 59.1051 43.9908 59.2195C43.8028 59.4239 43.5086 59.5874 43.0835 59.4893C42.1679 59.2849 42.6012 58.9498 41.7347 59.1868C40.8682 59.4239 33.1596 57.086 32.5792 56.9797C31.9988 56.8735 31.5656 56.4157 31.5656 56.4157C31.5656 56.4157 30.3312 55.7863 29.9961 55.2549C29.6609 54.7236 29.8489 53.9552 29.9961 53.5219C30.1432 53.0887 30.3149 50.9715 31.5165 50.0641C32.7182 49.1567 36.0943 45.5926 36.0943 45.5926C36.0943 45.5926 38.9881 44.7261 40.0017 44.0477C41.0153 43.3692 43.3287 41.4972 43.3287 41.4972C43.3287 41.4972 47.326 38.5053 47.6203 38.4154C47.9146 38.3255 48.7239 38.1293 49.1326 38.0312C49.5413 37.9331 51.1762 36.6334 52.3861 36.7315C53.5959 36.8296 59.0892 37.8923 59.3344 38.4154C59.5796 38.9386 59.9638 39.1838 59.9638 40.3446C59.9638 41.5054 60.2009 42.1267 60.7322 42.707C61.2636 43.2874 61.844 44.4891 61.9339 45.1676C62.0238 45.8461 61.9829 46.3692 61.6478 46.5164C61.3126 46.6635 60.1518 48.5927 59.4815 48.7807C58.8031 48.9769 58.9502 49.8434 58.9502 49.8434C58.9502 49.8434 57.1518 52.0423 56.0728 53.3257" stroke="#231F20" stroke-miterlimit="10"/>
<path d="M34.9334 46.8026L32.3993 47.1214L30.7317 45.9933L14.9876 47.1214L17.5299 50.8816C17.5299 50.8816 23.2194 51.2658 24.184 51.2658C25.1486 51.2658 26.3993 51.3312 27.5273 51.2658C28.6554 51.2004 30.6173 51.1596 30.6173 51.1596C30.6173 51.1596 30.4783 52.0424 31.3203 52.9253C32.1541 53.8081 40.5738 55.8599 40.5738 55.8599L42.8791 55.7373L42.503 56.4158C42.503 56.4158 45.6502 56.8736 44.3014 59.3341" stroke="#231F20" stroke-miterlimit="10"/>
<path d="M17.5217 50.8896C17.5217 50.8896 15.4045 53.5872 14.7587 52.7861C14.113 51.985 11.677 49.9332 10.4835 49.3692C9.29818 48.8051 8.75049 48.5762 8.75049 48.2574C8.75049 47.9386 9.39627 45.5598 9.0039 44.9468C8.6197 44.3337 6.46163 43.0176 6.11012 42.7969C5.75862 42.568 4.05015 41.5135 2.57873 39.2655C1.09915 37.0175 0.813042 37.0665 1.09915 36.7396C1.38526 36.4126 3.44523 35.1864 3.60872 35.3499C3.77221 35.5134 3.15913 36.1101 3.83761 36.7396C4.51609 37.369 7.7859 40.1974 8.23549 40.8759C8.68509 41.5543 9.45349 41.8404 9.26548 42.29C9.07747 42.7396 10.1647 43.7042 10.3282 43.8023C10.4917 43.9004 10.7778 44.3827 10.974 44.538C11.1701 44.6933 12.9031 44.7015 13.3527 45.053C13.8023 45.4045 14.9876 47.1375 14.9876 47.1375" stroke="#231F20" stroke-miterlimit="10"/>
<path d="M7.10746 43.4264C7.10746 43.4264 5.88129 45.7071 6.14287 46.0014C6.40446 46.2956 6.60882 49.9251 6.60882 49.9251C6.60882 49.9251 5.82407 50.6608 5.82407 50.8243C5.82407 50.9878 6.69056 52.9333 6.69056 52.9333C6.69056 52.9333 7.36905 53.1704 7.36905 53.3012C7.36905 53.432 8.78324 60.7563 9.39633 61.1732C10.0094 61.5901 10.974 61.4921 11.3255 60.9771C11.677 60.4621 10.4263 57.3476 10.3282 56.7672C10.2301 56.1868 9.01212 52.075 9.01212 52.075C9.01212 52.075 11.8814 51.9442 12.6334 50.8243" stroke="#231F20" stroke-miterlimit="10"/>
<path d="M35.4566 57.7809L34.9334 58.5411L34.0669 58.1651C34.0669 58.1651 32.1459 59.5793 32.9552 61.0507C33.3394 61.7455 34.4021 62.2115 34.4021 62.2115C34.4021 62.2115 33.9607 63.9853 35.7754 64.7864C37.7782 65.6775 38.5221 65.2442 39.3886 64.4758C40.2551 63.7074 40.86 63.7973 41.3423 63.969C41.8246 64.1406 42.2088 64.4268 42.9118 64.3287C43.6066 64.2306 44.2851 61.8927 44.2851 61.8927" stroke="#231F20" stroke-miterlimit="10"/>
<path d="M37.9463 63.3486C38.233 62.8521 38.028 62.197 37.4884 61.8855C36.9489 61.574 36.2791 61.724 35.9924 62.2206C35.7057 62.7171 35.9107 63.3722 36.4502 63.6837C36.9898 63.9952 37.6596 63.8452 37.9463 63.3486Z" stroke="#231F20" stroke-miterlimit="10"/>
<path d="M39.9935 44.0559C39.9935 44.0559 49.2961 46.5491 49.8765 46.6064C50.4569 46.6718 52.3207 46.6064 52.3861 46.6064C52.4514 46.6064 51.683 49.5492 52.3861 50.0642C53.0891 50.5792 54.2498 52.3449 54.2498 52.3449" stroke="#231F20" stroke-miterlimit="10"/>
<path d="M40.5576 55.8679C40.5576 55.8679 52.5741 44.3664 55.2063 41.6034C57.8385 38.8404 59.6696 39.053 59.6696 39.053" stroke="#231F20" stroke-miterlimit="10"/>
<path d="M41.4975 42.9523C41.4975 42.9523 39.3639 40.5899 38.1132 40.2547C36.8625 39.9196 34.3039 40.2547 34.2549 39.0531C34.2058 37.8514 33.9688 34.5244 33.9688 34.5244L34.3039 33.4617L33.5846 33.1756C33.5846 33.1756 31.3693 35.2928 30.2575 35.5871C29.1458 35.8732 14.0638 36.2656 14.0638 36.2656C14.0638 36.2656 14.1129 35.2764 14.4971 35.3337C14.8813 35.3909 15.6987 34.4345 16.5734 34.4345C17.4481 34.4345 29.8733 31.5897 30.0205 31.5897C30.1676 31.5897 32.669 32.023 33.2494 32.072C33.8298 32.1211 33.3966 31.835 34.7453 31.5897C36.0941 31.3445 38.4075 30.6251 38.7917 31.1074C39.1759 31.5897 40.9334 32.072 41.4975 31.8758C42.0697 31.6797 56.8656 29.6115 57.7811 29.1292C58.6966 28.6469 58.4596 29.6115 56.8165 30.429C55.1816 31.2464 43.8517 32.5952 42.691 32.9385C41.5302 33.2737 38.522 32.9876 38.522 32.9876C38.522 32.9876 38.7917 33.3718 38.7917 33.9031C38.7917 34.4345 38.9389 37.2301 38.9389 37.2301C38.9389 37.2301 40.0996 37.5163 40.819 38.0476C41.5384 38.5789 44.6283 40.549 44.6283 40.549" stroke="#231F20" stroke-miterlimit="10"/>
<path d="M59.0727 49.0668C59.0727 49.0668 59.4487 50.4728 61.6967 50.669C63.9447 50.8652 74.1628 50.669 74.1628 50.669L80.9722 50.7507C80.9722 50.7507 83.2856 52.6309 85.0839 52.3529C86.8823 52.075 86.9477 49.6962 86.9477 49.6962C86.9477 49.6962 97.4193 56.3339 97.4847 56.4239C97.5501 56.5138 99.4139 55.868 99.4139 55.868C99.4139 55.868 99.7981 53.7508 99.0297 53.62C98.2612 53.4892 90.5363 45.7806 90.5363 45.7806C90.5363 45.7806 88.1085 45.4618 87.3319 45.0122C86.5635 44.5626 87.0131 43.5981 85.787 43.2138C84.5608 42.8296 83.8578 42.1185 83.6698 42.1185C83.4817 42.1185 80.9722 39.2901 78.5934 37.4263C76.2146 35.5625 73.6478 33.1837 73.7704 32.5461C73.9012 31.9003 72.16 34.4753 72.5524 34.7941C72.9448 35.1129 79.2882 41.2847 79.2882 41.2847C79.2882 41.2847 82.6398 42.7643 82.8932 43.3446C83.1466 43.925 83.212 44.7588 83.212 44.7588L85.1248 45.6662C85.5744 45.8787 86.0976 45.8379 86.5063 45.5599L87.3238 45.0122" stroke="#231F20" stroke-miterlimit="10"/>
<path d="M61.9093 46.1648C61.9093 46.1648 71.4163 46.7615 73.5417 46.9005C75.6589 47.0476 78.9859 47.1376 79.2965 47.2357C79.6071 47.3338 80.9641 48.0041 81.6835 47.718C82.4028 47.4318 81.9205 46.2711 82.2148 45.6008C82.5009 44.9223 83.2285 44.7506 83.2285 44.7506" stroke="#231F20" stroke-miterlimit="10"/>
</g>
<defs>
<clipPath id="clip0_5616_29541">
<rect width="100" height="100" fill="white"/>
</clipPath>
</defs>
</svg>
