<svg width="100" height="100" viewBox="0 0 100 100" fill="none" xmlns="http://www.w3.org/2000/svg">
<g clip-path="url(#clip0_5619_29840)">
<path d="M50 90C72.0914 90 90 72.0914 90 50C90 27.9086 72.0914 10 50 10C27.9086 10 10 27.9086 10 50C10 72.0914 27.9086 90 50 90Z" fill="#A1DCEF"/>
<path d="M68.4624 48.2309L54.0041 37.1767C52.1307 35.7443 49.4508 36.1019 48.0184 37.9753L14.8557 81.3504C13.4234 83.2238 13.7809 85.9037 15.6544 87.336L30.1127 98.3903C31.9862 99.8226 34.666 99.465 36.0984 97.5916L69.2611 54.2166C70.6934 52.3431 70.3359 49.6633 68.4624 48.2309Z" stroke="#231F20" stroke-width="0.84" stroke-miterlimit="10"/>
<path d="M34.2667 77.7628C37.0868 79.9189 37.6335 83.9622 35.4712 86.7903L28.0187 96.5378C27.9519 96.6251 27.8196 96.6499 27.7243 96.577L17.8259 89.0091C17.7385 88.9423 17.7137 88.8101 17.7866 88.7148L25.2391 78.9673C27.3953 76.1471 31.4385 75.6005 34.2667 77.7628Z" stroke="#231F20" stroke-width="0.84" stroke-miterlimit="10"/>
<path d="M54.69 65.98C46.6 72.1 41.73 70.77 40.37 69.74C38.74 68.51 36.77 63.55 40.61 55.02C44.68 45.99 52.07 35.94 52.07 35.94L69.99 49.64C69.99 49.64 63.87 59.05 54.69 65.99V65.98Z" stroke="#231F20" stroke-width="0.84" stroke-miterlimit="10"/>
<path d="M63.1939 48.7724L54.6063 42.2067C53.5884 41.4284 52.1337 41.6209 51.3572 42.6366C50.5806 43.6523 50.7763 45.1066 51.7941 45.8848L60.3818 52.4505C61.3996 53.2288 62.8543 53.0363 63.6309 52.0206C64.4074 51.0049 64.2118 49.5506 63.1939 48.7724Z" stroke="#231F20" stroke-width="0.84" stroke-miterlimit="10"/>
<path d="M46.7063 39.6818L30.6169 60.7258C29.6795 60.0091 29.4999 58.6634 30.2166 57.726L43.7064 40.0821C44.4231 39.1447 45.7689 38.9651 46.7063 39.6818V39.6818Z" stroke="#231F20" stroke-width="0.84" stroke-miterlimit="10"/>
<path d="M51.8653 76.9749L67.9547 55.9308C68.8921 56.6475 69.0717 57.9933 68.355 58.9307L54.8652 76.5746C54.1485 77.512 52.8027 77.6916 51.8653 76.9749Z" stroke="#231F20" stroke-width="0.84" stroke-miterlimit="10"/>
<path d="M67.63 39.4045L64.1584 36.7502L60.2105 41.9139L63.6821 44.5682L67.63 39.4045Z" stroke="#231F20" stroke-width="0.84" stroke-miterlimit="10"/>
<path d="M71.2503 44.9054L67.8899 42.3362L65.1385 45.9349L68.4989 48.5041L71.2503 44.9054Z" stroke="#231F20" stroke-width="0.84" stroke-miterlimit="10"/>
<path d="M57.57 39.9L53.36 36.68L57.52 31.24L61.02 27.92L80.74 2.13999C81.35 1.33999 82.5 1.17999 83.3 1.79999C84.1 2.40999 84.26 3.55999 83.64 4.35999L63.93 30.15L61.86 34.3L57.58 39.9H57.57Z" stroke="#231F20" stroke-width="0.84" stroke-miterlimit="10"/>
<path d="M45.97 45.11C45.97 45.11 51.95 50.56 53.89 52.04C55.84 53.53 63.13 58.23 63.13 58.23" stroke="#231F20" stroke-width="0.84" stroke-miterlimit="10"/>
<path d="M44.8 47.89C44.8 47.89 50.18 52.88 52.12 54.37C54.06 55.86 60.81 60.13 60.81 60.13" stroke="#231F20" stroke-width="0.84" stroke-miterlimit="10"/>
<path d="M43.14 50.05C43.14 50.05 48.52 55.04 50.46 56.53C52.4 58.02 59.15 62.29 59.15 62.29" stroke="#231F20" stroke-width="0.84" stroke-miterlimit="10"/>
<path d="M41.63 52.03C41.63 52.03 47.01 57.02 48.95 58.51C50.9 60 57.14 63.89 57.14 63.89" stroke="#231F20" stroke-width="0.84" stroke-miterlimit="10"/>
<path d="M40.8 54.78C40.8 54.78 45.38 59.16 47.32 60.64C49.27 62.13 55.08 65.69 55.08 65.69" stroke="#231F20" stroke-width="0.84" stroke-miterlimit="10"/>
<path d="M39.66 57.53C39.66 57.53 43.63 61.44 45.57 62.93C47.51 64.42 52.53 67.37 52.53 67.37" stroke="#231F20" stroke-width="0.84" stroke-miterlimit="10"/>
<path d="M38.86 60.13C38.86 60.13 42.08 63.47 44.02 64.96C45.96 66.45 50.28 68.86 50.28 68.86" stroke="#231F20" stroke-width="0.84" stroke-miterlimit="10"/>
</g>
<defs>
<clipPath id="clip0_5619_29840">
<rect width="100" height="100" fill="white"/>
</clipPath>
</defs>
</svg>
