<svg width="100" height="100" viewBox="0 0 100 100" fill="none" xmlns="http://www.w3.org/2000/svg">
<path d="M50 90C72.0914 90 90 72.0914 90 50C90 27.9086 72.0914 10 50 10C27.9086 10 10 27.9086 10 50C10 72.0914 27.9086 90 50 90Z" fill="#A1DCEF"/>
<path d="M55.15 65.05C55.15 71.43 50.44 76.61 44.64 76.61C38.84 76.61 34.13 71.44 34.13 65.05C34.13 59.14 38.17 54.26 43.38 53.58C43.79 53.52 44.22 53.5 44.64 53.5C50.45 53.5 55.15 58.67 55.15 65.06V65.05Z" stroke="#231F20" stroke-miterlimit="10"/>
<path d="M43.37 53.57C40.54 55.64 38.68 59.18 38.68 63.19C38.68 69.57 43.39 74.75 49.19 74.75C49.55 74.75 49.91 74.73 50.27 74.69" stroke="#231F20" stroke-miterlimit="10"/>
<path d="M30.76 49.31C30.76 55.69 26.05 60.87 20.25 60.87C14.45 60.87 9.74002 55.7 9.74002 49.31C9.74002 43.4 13.78 38.52 18.99 37.84C19.4 37.78 19.83 37.76 20.25 37.76C26.06 37.76 30.76 42.93 30.76 49.32V49.31Z" stroke="#231F20" stroke-miterlimit="10"/>
<path d="M18.98 37.83C16.15 39.9 14.29 43.44 14.29 47.45C14.29 53.83 19 59.01 24.8 59.01C25.16 59.01 25.52 58.99 25.88 58.95" stroke="#231F20" stroke-miterlimit="10"/>
<path d="M53.57 53.49L51.37 52.03L28.29 36.65L25.88 35.04C23.89 33.98 21.64 33.38 19.26 33.38C11.84 33.38 5.69002 39.19 4.58002 46.77V46.77C4.46002 47.57 4.40002 48.4 4.40002 49.23C4.40002 55.71 8.04002 61.27 13.25 63.73L19.28 67.75C20.48 66.14 22.26 65.02 24.35 64.77C28.57 64.26 32.44 67.51 32.99 72.03C33.18 73.61 32.94 75.13 32.37 76.46L34.96 78.19C35.72 78.89 36.55 79.51 37.44 80.03C38.49 80.65 39.61 81.14 40.8 81.48C42.02 81.83 43.31 82.01 44.64 82.01C52.85 82.01 59.5 74.91 59.5 66.16C59.5 60.98 57.17 56.38 53.57 53.49V53.49ZM20.24 60.86C14.43 60.86 9.73002 55.69 9.73002 49.3C9.73002 43.39 13.77 38.51 18.98 37.83C19.39 37.77 19.82 37.75 20.24 37.75C26.05 37.75 30.75 42.92 30.75 49.31C30.75 55.7 26.04 60.87 20.24 60.87V60.86ZM44.63 76.6C38.82 76.6 34.12 71.43 34.12 65.04C34.12 59.13 38.16 54.25 43.37 53.57C43.78 53.51 44.21 53.49 44.63 53.49C50.44 53.49 55.14 58.66 55.14 65.05C55.14 71.44 50.43 76.61 44.63 76.61V76.6Z" stroke="#231F20" stroke-miterlimit="10"/>
<path d="M30.76 49.31C30.76 55.69 26.05 60.87 20.25 60.87C14.45 60.87 9.74002 55.7 9.74002 49.31C9.74002 43.4 13.78 38.52 18.99 37.84C19.4 37.78 19.83 37.76 20.25 37.76C26.06 37.76 30.76 42.93 30.76 49.32V49.31Z" stroke="#231F20" stroke-miterlimit="10"/>
<path d="M28.3 36.64L25.89 35.03C26.75 35.48 27.55 36.02 28.3 36.64Z" stroke="#231F20" stroke-miterlimit="10"/>
<path d="M55.15 65.05C55.15 71.43 50.44 76.61 44.64 76.61C38.84 76.61 34.13 71.44 34.13 65.05C34.13 59.14 38.17 54.26 43.38 53.58C43.79 53.52 44.22 53.5 44.64 53.5C50.45 53.5 55.15 58.67 55.15 65.06V65.05Z" stroke="#231F20" stroke-miterlimit="10"/>
<path d="M53.57 53.49L51.37 52.03C52.14 52.45 52.88 52.94 53.57 53.49Z" stroke="#231F20" stroke-miterlimit="10"/>
<path d="M32.4 33.24C32.69 33.51 32.98 33.79 33.27 34.09C34.16 35 35.07 36.03 35.98 37.19L49.06 45.7" stroke="#231F20" stroke-miterlimit="10"/>
<path d="M52.94 47.57C54.68 48.57 56.78 50.03 58.72 52.03C61.95 55.36 64.71 60.2 64.51 66.94C64.51 66.94 64.06 77.93 56.64 82.07C56.02 82.42 55.36 82.71 54.64 82.95C51.29 84.07 46.8 83.93 40.8 81.48" stroke="#231F20" stroke-miterlimit="10"/>
<path d="M4.58003 46.77C4.58003 46.51 4.15003 30.09 17.26 27.59H17.3C17.81 27.43 23.17 26.07 29.99 31.19" stroke="#231F20" stroke-miterlimit="10"/>
<path d="M17.26 27.6H17.3L54.1 15.1C54.1 15.1 56.11 14.94 58.72 15.72C60.09 16.12 61.62 16.79 63.11 17.86L77.73 27.6L79.25 30.34L89.78 38.88C89.78 38.88 99.13 55.16 87.09 65.84L76.21 72.02L73.29 74.75L56.65 82.07L54.65 82.95" stroke="#231F20" stroke-miterlimit="10"/>
<path d="M30.64 31.22L42.64 27.31C44.16 26.97 45.56 29.55 45.56 29.55L33.27 34.08" stroke="#231F20" stroke-miterlimit="10"/>
<path d="M51.31 44.91L63.1 40.03C63.1 40.03 66.14 39.98 66.02 42.23L53.56 47.72" stroke="#231F20" stroke-miterlimit="10"/>
<path d="M58.72 52.03L79.24 42.87" stroke="#231F20" stroke-miterlimit="10"/>
<path d="M80.07 44.17L89.77 38.88" stroke="#231F20" stroke-miterlimit="10"/>
<path d="M58.72 15.71C58.72 15.71 64.39 12.81 73.51 19.17C73.51 19.17 78.42 23.08 79.24 30.33L68.95 34.08L79.24 42.86C79.24 42.86 90 57.33 76.2 72.01" stroke="#231F20" stroke-miterlimit="10"/>
<path d="M59.6985 37.3248C60.2452 36.3777 58.6257 34.4191 56.0812 32.95C53.5367 31.4809 51.0307 31.0577 50.484 32.0048C49.9372 32.9518 51.5567 34.9104 54.1012 36.3795C56.6457 37.8486 59.1517 38.2718 59.6985 37.3248Z" stroke="#231F20" stroke-miterlimit="10"/>
<path d="M32.41 33.38C32.41 34.59 31.43 35.58 30.21 35.58C28.99 35.58 28.01 34.6 28.01 33.38C28.01 32.24 28.88 31.31 29.98 31.19C30.05 31.24 30.13 31.3 30.2 31.36L30.63 31.22C31.59 31.41 32.33 32.23 32.39 33.24C32.39 33.29 32.39 33.33 32.39 33.38H32.41Z" stroke="#231F20" stroke-miterlimit="10"/>
<path d="M30.64 31.22L30.21 31.36C30.14 31.3 30.06 31.24 29.99 31.19C30.06 31.19 30.14 31.18 30.21 31.18C30.36 31.18 30.5 31.19 30.64 31.22V31.22Z" stroke="#231F20" stroke-miterlimit="10"/>
<path d="M53 47.05C53 47.23 52.98 47.4 52.94 47.57C52.71 48.53 51.84 49.25 50.8 49.25C49.59 49.25 48.6 48.27 48.6 47.05C48.6 46.54 48.77 46.07 49.06 45.7C49.46 45.18 50.09 44.85 50.79 44.85C50.97 44.85 51.14 44.87 51.3 44.91C52.27 45.14 52.99 46.01 52.99 47.05H53Z" stroke="#231F20" stroke-miterlimit="10"/>
<path d="M18.26 76.1C17.81 75.13 17.55 74.03 17.55 72.86C17.55 71.82 17.75 70.83 18.12 69.94C17.69 71.15 17.53 72.5 17.69 73.88C17.78 74.66 17.98 75.41 18.25 76.1H18.26Z" stroke="#231F20" stroke-miterlimit="10"/>
<path d="M30.76 72.87C30.76 73.67 30.64 74.45 30.42 75.17C29.54 78.01 27.07 80.06 24.16 80.06C21.58 80.06 19.35 78.45 18.26 76.11C17.98 75.42 17.79 74.67 17.7 73.89C17.53 72.5 17.7 71.16 18.13 69.95C18.45 69.17 18.89 68.46 19.44 67.85C20.64 66.51 22.31 65.68 24.17 65.68C27.82 65.68 30.77 68.9 30.77 72.87H30.76Z" stroke="#231F20" stroke-miterlimit="10"/>
<path d="M32.37 76.47C31.31 78.97 29.08 80.82 26.33 81.15C25.02 81.31 23.74 81.1 22.58 80.61C20.66 79.79 19.08 78.17 18.25 76.1C19.34 78.45 21.57 80.05 24.15 80.05C27.06 80.05 29.53 78 30.41 75.16C30.63 74.44 30.75 73.67 30.75 72.86C30.75 68.89 27.79 65.67 24.15 65.67C22.3 65.67 20.62 66.5 19.42 67.84L19.28 67.75C20.48 66.14 22.26 65.02 24.35 64.77C28.57 64.26 32.44 67.51 32.99 72.03C33.18 73.61 32.94 75.13 32.37 76.46V76.47Z" stroke="#231F20" stroke-miterlimit="10"/>
<path d="M19.43 67.85C18.89 68.45 18.44 69.16 18.12 69.95C18.4 69.16 18.8 68.42 19.29 67.76L19.43 67.85V67.85Z" stroke="#231F20" stroke-miterlimit="10"/>
<path d="M22.59 80.61C22.67 80.7 25.36 83.64 29.99 83.13L37.45 80.04" stroke="#231F20" stroke-miterlimit="10"/>
<path d="M57.09 42.52C57.09 42.52 59.28 42.41 60.08 44.85L65.63 48.94C65.63 48.94 74.33 56.3 70.12 70.33L66.85 77.58" stroke="#231F20" stroke-miterlimit="10"/>
<path d="M39.42 31.82C39.42 31.82 39.59 29.73 37.21 29.08" stroke="#231F20" stroke-miterlimit="10"/>
<path d="M26.27 24.63L30.64 26.32C30.64 26.32 33.84 26.72 36.63 29.27" stroke="#231F20" stroke-miterlimit="10"/>
<path d="M28.83 23.67L38.69 19.17C38.69 19.17 40.82 18.13 41.81 19.17" stroke="#231F20" stroke-miterlimit="10"/>
<path d="M24.2917 68.724C24.0776 68.1144 23.4098 67.7937 22.8001 68.0078C22.1905 68.2219 21.8698 68.8897 22.0839 69.4994L24.8274 77.3116C25.0415 77.9213 25.7093 78.242 26.3189 78.0279C26.9286 77.8138 27.2493 77.146 27.0352 76.5363L24.2917 68.724Z" stroke="#231F20" stroke-miterlimit="10"/>
</svg>
