<svg width="100" height="100" viewBox="0 0 100 100" fill="none" xmlns="http://www.w3.org/2000/svg">
<path d="M50 90C72.0914 90 90 72.0914 90 50C90 27.9086 72.0914 10 50 10C27.9086 10 10 27.9086 10 50C10 72.0914 27.9086 90 50 90Z" fill="#A1DCEF"/>
<path d="M65.1 76.51C65.1 76.51 65.05 76.51 65.02 76.51L10.32 70.55C10.19 70.54 10.08 70.47 9.99002 70.37L3.55002 62.68C3.45002 62.55 3.40002 62.4 3.40002 62.24V59.12C3.40002 59.06 3.43002 59 3.47002 58.95C3.52002 58.91 3.58002 58.89 3.64002 58.89H3.72002C4.11002 58.93 4.92002 58.99 5.18002 58.4C5.19002 58.37 5.20002 58.33 5.20002 58.29V52.57C5.20002 52.57 5.20002 52.48 5.18002 52.45C5.09002 52.23 4.77002 51.71 3.74002 51.78C3.66002 51.78 3.58002 51.76 3.52002 51.7C3.46002 51.64 3.42002 51.56 3.42002 51.48C3.40002 50.75 3.42002 48.43 3.43002 47.73C3.43002 47.56 3.49002 47.41 3.61002 47.28L9.50002 40.8C9.65002 40.63 9.87002 40.54 10.1 40.56L22.96 41.13L26.36 41.31L42.78 42.04L46.65 42.26C47.3 42.29 50.41 42.47 53.7 42.67C57.27 42.88 60.97 43.1 61.83 43.14C61.98 43.14 62.11 43.21 62.21 43.31L70.99 52.16C71.11 52.28 71.18 52.44 71.18 52.61V56.45C71.18 56.61 71.05 56.74 70.89 56.74H70.58C69.99 56.74 69.5 57.22 69.5 57.82V64.21C69.5 64.21 69.48 65.28 70.83 65.36C71.03 65.37 71.19 65.53 71.19 65.73C71.21 66.52 71.19 68.81 71.18 69.76C71.18 69.97 71.1 70.18 70.96 70.34L65.64 76.26C65.51 76.42 65.31 76.51 65.1 76.51V76.51ZM3.62002 59.08H3.60002C3.60002 59.08 3.59002 59.1 3.59002 59.11V62.23C3.59002 62.34 3.63002 62.46 3.70002 62.55L10.15 70.25C10.2 70.31 10.27 70.35 10.35 70.36L65.04 76.32C65.21 76.34 65.38 76.27 65.49 76.14L70.81 70.22C70.92 70.09 70.98 69.93 70.98 69.76C70.98 68.81 71.01 66.52 70.99 65.73C70.99 65.63 70.91 65.55 70.81 65.55C69.27 65.47 69.3 64.22 69.3 64.21V57.82C69.3 57.12 69.87 56.55 70.57 56.55H70.88C70.94 56.55 70.98 56.5 70.98 56.45V52.61C70.98 52.49 70.93 52.38 70.85 52.29L62.07 43.44C62 43.37 61.91 43.33 61.81 43.32C60.95 43.28 57.25 43.06 53.68 42.85C50.39 42.66 47.28 42.47 46.63 42.44L42.76 42.22L26.34 41.49L22.94 41.31L10.08 40.74C9.91002 40.74 9.75002 40.8 9.63002 40.92L3.74002 47.41C3.66002 47.5 3.61002 47.61 3.61002 47.73C3.61002 48.42 3.58002 50.74 3.60002 51.47C3.60002 51.5 3.61002 51.53 3.64002 51.55C3.66002 51.57 3.69002 51.58 3.72002 51.58C4.88002 51.51 5.25002 52.11 5.35002 52.37C5.37002 52.43 5.38002 52.49 5.38002 52.56V58.28C5.38002 58.35 5.37002 58.41 5.34002 58.47C5.03002 59.19 4.09002 59.11 3.69002 59.08H3.61002H3.62002Z" stroke="#1D1D1B" stroke-width="0.8" stroke-miterlimit="10"/>
<path d="M54.01 65.14C52.35 65.14 50.99 63.71 50.99 61.95C50.99 60.19 52.11 58.98 53.78 58.98C55.45 58.98 56.8 60.41 56.8 62.17C56.8 63.93 55.68 65.14 54.01 65.14ZM53.79 59.18C52.23 59.18 51.19 60.3 51.19 61.96C51.19 63.62 52.46 64.95 54.02 64.95C55.58 64.95 56.62 63.83 56.62 62.17C56.62 60.51 55.35 59.18 53.79 59.18Z" stroke="#1D1D1B" stroke-width="0.8" stroke-miterlimit="10"/>
<path d="M54.36 67.3C54.27 67.3 54.18 67.3 54.09 67.3C51.46 67.16 49.16 64.75 48.96 61.93C48.86 60.55 49.28 59.29 50.13 58.38C51.01 57.43 52.29 56.91 53.72 56.91C56.55 56.91 58.86 59.32 58.86 62.29C58.86 63.86 58.33 65.23 57.36 66.15C56.56 66.91 55.53 67.3 54.37 67.3H54.36ZM53.71 57.1C52.33 57.1 51.1 57.6 50.26 58.51C49.45 59.38 49.05 60.59 49.15 61.91C49.35 64.64 51.57 66.97 54.1 67.1C55.32 67.16 56.4 66.78 57.22 66.01C58.15 65.13 58.66 63.8 58.66 62.29C58.66 59.43 56.44 57.1 53.71 57.1V57.1Z" stroke="#1D1D1B" stroke-width="0.8" stroke-miterlimit="10"/>
<path d="M54.46 69.75C54.36 69.75 54.26 69.75 54.15 69.75C50.39 69.6 47.11 66.04 46.84 61.83C46.71 59.77 47.33 57.9 48.6 56.56C49.85 55.23 51.64 54.5 53.63 54.5H53.66C57.71 54.51 60.99 58.07 60.97 62.42C60.97 64.73 60.19 66.73 58.79 68.07C57.64 69.17 56.15 69.75 54.46 69.75ZM53.63 54.69C51.69 54.69 49.95 55.4 48.74 56.69C47.51 57.99 46.91 59.81 47.04 61.82C47.3 65.94 50.5 69.41 54.17 69.56C55.93 69.63 57.49 69.07 58.67 67.94C60.03 66.64 60.78 64.68 60.79 62.42C60.81 58.17 57.61 54.7 53.67 54.69H53.64H53.63Z" stroke="#1D1D1B" stroke-width="0.8" stroke-miterlimit="10"/>
<path d="M54.98 71.85C54.7 71.85 54.41 71.84 54.12 71.81C49.29 71.38 45.05 66.82 44.66 61.64C44.46 59.04 45.24 56.66 46.84 54.94C48.47 53.19 50.81 52.23 53.45 52.23H53.49C58.62 52.25 62.69 56.62 62.96 62.4C63.1 65.41 62.17 68.02 60.34 69.77C58.91 71.14 57.08 71.85 54.99 71.85H54.98ZM53.44 52.43C50.86 52.43 48.57 53.37 46.97 55.08C45.4 56.76 44.65 59.09 44.84 61.63C45.22 66.71 49.39 71.19 54.13 71.62C56.51 71.83 58.61 71.15 60.19 69.64C61.98 67.93 62.89 65.37 62.75 62.42C62.49 56.74 58.5 52.45 53.47 52.43H53.43H53.44Z" stroke="#1D1D1B" stroke-width="0.5" stroke-miterlimit="10"/>
<path d="M55.1 73.03C54.6 73.03 54.11 72.99 53.61 72.92C51.02 72.54 48.57 71.2 46.72 69.15C44.84 67.06 43.7 64.37 43.51 61.57C43.31 58.57 44.3 55.74 46.3 53.6C48.23 51.54 50.82 50.4 53.61 50.4C56.4 50.4 59.18 51.78 61.38 54.17C63.55 56.54 64.84 59.59 64.92 62.56C65.01 65.77 63.84 68.62 61.63 70.59C59.85 72.18 57.53 73.04 55.1 73.04V73.03ZM53.6 50.59C50.87 50.59 48.32 51.7 46.43 53.73C44.46 55.83 43.49 58.61 43.69 61.56C44.07 67.17 48.34 71.97 53.63 72.74C56.52 73.16 59.39 72.32 61.5 70.45C63.67 68.52 64.82 65.72 64.73 62.57C64.56 56.42 59.15 50.6 53.6 50.6V50.59Z" stroke="#1D1D1B" stroke-width="0.5" stroke-miterlimit="10"/>
<path d="M53.73 61.33C53.22 61.33 52.72 61.14 52.34 60.76L45.64 53.5L45.78 53.37L52.48 60.63C53.13 61.28 54.2 61.32 54.9 60.72L61.46 54.41L61.59 54.55L55.03 60.86C54.66 61.18 54.2 61.34 53.74 61.34L53.73 61.33Z" stroke="#1D1D1B" stroke-width="0.5" stroke-miterlimit="10"/>
<path d="M61.61 71.15L54.76 63.72C54.11 63.07 53.04 63.03 52.34 63.63L46.78 68.97L46.65 68.83L52.21 63.48C52.99 62.81 54.17 62.85 54.89 63.58L61.74 71.01L61.6 71.14L61.61 71.15Z" stroke="#1D1D1B" stroke-width="0.5" stroke-miterlimit="10"/>
<path d="M44.99 53.77C43.95 53.77 43.11 52.89 43.11 51.82C43.11 50.75 43.95 49.87 44.99 49.87C46.03 49.87 46.87 50.75 46.87 51.82C46.87 52.89 46.03 53.77 44.99 53.77ZM44.99 50.05C44.06 50.05 43.3 50.84 43.3 51.81C43.3 52.78 44.06 53.57 44.99 53.57C45.92 53.57 46.68 52.78 46.68 51.81C46.68 50.84 45.92 50.05 44.99 50.05Z" stroke="#1D1D1B" stroke-width="0.8" stroke-miterlimit="10"/>
<path d="M45.06 53.77C44.19 53.77 43.49 53.09 43.49 52.26C43.49 51.43 44.16 50.75 45.01 50.75C45.86 50.75 46.53 51.41 46.53 52.26C46.53 53.11 45.9 53.77 45.07 53.77H45.06ZM45 50.93C44.26 50.93 43.68 51.51 43.68 52.25C43.68 52.99 44.3 53.57 45.06 53.57C45.82 53.57 46.33 53.01 46.33 52.25C46.33 51.49 45.75 50.93 45 50.93V50.93Z" stroke="#1D1D1B" stroke-width="0.5" stroke-miterlimit="10"/>
<path d="M62.87 55.02C61.83 55.02 60.99 54.15 60.99 53.07C60.99 51.99 61.83 51.12 62.87 51.12C63.91 51.12 64.75 51.99 64.75 53.07C64.75 54.15 63.91 55.02 62.87 55.02ZM62.87 51.31C61.94 51.31 61.18 52.1 61.18 53.07C61.18 54.04 61.94 54.83 62.87 54.83C63.8 54.83 64.56 54.04 64.56 53.07C64.56 52.1 63.8 51.31 62.87 51.31Z" stroke="#1D1D1B" stroke-width="0.8" stroke-miterlimit="10"/>
<path d="M62.73 54.99C61.86 54.99 61.16 54.3 61.16 53.44C61.16 52.58 61.83 51.89 62.68 51.89C63.53 51.89 64.2 52.57 64.2 53.44C64.2 54.31 63.57 54.99 62.74 54.99H62.73ZM62.67 52.09C61.93 52.09 61.34 52.69 61.34 53.45C61.34 54.21 61.96 54.81 62.72 54.81C63.48 54.81 63.99 54.24 63.99 53.45C63.99 52.66 63.41 52.09 62.66 52.09H62.67Z" stroke="#1D1D1B" stroke-width="0.5" stroke-miterlimit="10"/>
<path d="M63.13 74.13C62.09 74.13 61.25 73.25 61.25 72.18C61.25 71.11 62.09 70.23 63.13 70.23C64.17 70.23 65.01 71.11 65.01 72.18C65.01 73.25 64.17 74.13 63.13 74.13ZM63.13 70.41C62.2 70.41 61.44 71.2 61.44 72.17C61.44 73.14 62.2 73.93 63.13 73.93C64.06 73.93 64.82 73.14 64.82 72.17C64.82 71.2 64.06 70.41 63.13 70.41Z" stroke="#1D1D1B" stroke-width="0.8" stroke-miterlimit="10"/>
<path d="M62.99 74.09C62.12 74.09 61.42 73.4 61.42 72.54C61.42 71.68 62.09 70.99 62.94 70.99C63.79 70.99 64.46 71.67 64.46 72.54C64.46 73.41 63.83 74.09 63 74.09H62.99ZM62.93 71.19C62.19 71.19 61.6 71.79 61.6 72.55C61.6 73.31 62.22 73.91 62.98 73.91C63.74 73.91 64.25 73.34 64.25 72.55C64.25 71.76 63.67 71.19 62.93 71.19V71.19Z" stroke="#1D1D1B" stroke-width="0.5" stroke-miterlimit="10"/>
<path d="M45.48 72.23C44.38 72.23 43.49 71.36 43.49 70.3C43.49 69.24 44.23 68.45 45.34 68.36C45.84 68.32 46.35 68.5 46.76 68.86C47.18 69.23 47.43 69.74 47.48 70.29C47.52 70.75 47.36 71.21 47.02 71.57C46.64 71.99 46.06 72.24 45.48 72.24V72.23ZM45.48 68.54C45.48 68.54 45.4 68.54 45.36 68.54C44.36 68.62 43.69 69.33 43.69 70.29C43.69 71.25 44.5 72.03 45.49 72.03C46.02 72.03 46.54 71.8 46.89 71.43C47.19 71.11 47.33 70.71 47.3 70.3C47.26 69.79 47.02 69.33 46.64 68.99C46.31 68.7 45.89 68.53 45.49 68.53L45.48 68.54Z" stroke="#1D1D1B" stroke-width="0.8" stroke-miterlimit="10"/>
<path d="M45.33 72.23C44.41 72.23 43.66 71.54 43.66 70.68C43.66 69.82 44.37 69.13 45.27 69.13C46.17 69.13 46.88 69.81 46.88 70.68C46.88 71.55 46.22 72.23 45.33 72.23ZM45.27 69.33C44.48 69.33 43.85 69.93 43.85 70.69C43.85 71.45 44.51 72.05 45.33 72.05C46.15 72.05 46.69 71.48 46.69 70.69C46.69 69.9 46.07 69.33 45.27 69.33V69.33Z" stroke="#1D1D1B" stroke-width="0.5" stroke-miterlimit="10"/>
<path d="M17.5 65.89L17.14 65.14C16.83 65.14 15.51 65.04 15.36 63.92C15.31 63.57 15.44 63.23 15.7 63.02C15.96 62.81 16.46 62.59 17.33 62.72L17.88 62L25.34 62.72L25.93 63.45C26.12 63.47 26.86 63.55 27.41 63.96C27.76 64.22 27.96 64.63 27.95 65.06C27.95 65.45 27.75 65.81 27.42 66.02C27.16 66.19 26.56 66.26 26.05 66.17L25.44 66.81L17.5 65.89ZM17.63 65.71L25.39 66.62L26.01 65.97H26.06C26.52 66.07 27.11 66.02 27.33 65.87C27.6 65.69 27.76 65.39 27.77 65.06C27.77 64.69 27.6 64.34 27.3 64.11C26.73 63.69 25.89 63.64 25.89 63.64H25.85L25.26 62.91L17.98 62.21L17.43 62.94H17.37C16.53 62.8 16.07 62.99 15.83 63.19C15.62 63.36 15.52 63.63 15.56 63.91C15.7 65 17.14 64.96 17.2 64.96H17.26L17.62 65.72L17.63 65.71Z" stroke="#1D1D1B" stroke-width="0.8" stroke-miterlimit="10"/>
<path d="M26.57 65.94C26.06 65.94 25.64 65.52 25.64 65.01C25.64 64.47 25.99 64.08 26.48 64.08C27 64.08 27.42 64.5 27.42 65.01C27.42 65.55 27.06 65.94 26.57 65.94ZM26.48 64.27C26.1 64.27 25.83 64.57 25.83 65.01C25.83 65.42 26.16 65.75 26.57 65.75C26.98 65.75 27.23 65.45 27.23 65.01C27.23 64.6 26.89 64.27 26.48 64.27Z" stroke="#1D1D1B" stroke-width="0.8" stroke-miterlimit="10"/>
<path d="M16.42 64.94C15.93 64.94 15.53 64.54 15.53 64.05C15.53 63.53 15.87 63.16 16.34 63.16C16.84 63.16 17.24 63.56 17.24 64.05C17.24 64.57 16.9 64.94 16.42 64.94ZM16.33 63.34C15.97 63.34 15.71 63.63 15.71 64.04C15.71 64.43 16.03 64.74 16.41 64.74C16.79 64.74 17.04 64.45 17.04 64.04C17.04 63.65 16.72 63.34 16.33 63.34V63.34Z" stroke="#1D1D1B" stroke-width="0.8" stroke-miterlimit="10"/>
<path d="M24.03 65.88C24.03 65.88 23.99 65.88 23.97 65.88L18.47 65.27C18.3 65.25 18.17 65.12 18.14 64.95L17.99 63.66C17.98 63.57 18.01 63.49 18.07 63.42C18.13 63.36 18.22 63.32 18.31 63.33L24.63 63.96C24.72 63.96 24.79 64.01 24.84 64.08C24.89 64.15 24.91 64.24 24.89 64.32L24.46 65.55C24.42 65.74 24.24 65.88 24.04 65.88H24.03ZM18.27 63.52C18.27 63.52 18.22 63.53 18.2 63.55C18.18 63.57 18.17 63.6 18.17 63.63L18.32 64.92C18.33 65 18.4 65.06 18.48 65.07L23.98 65.68C24.11 65.7 24.22 65.61 24.25 65.49L24.68 64.26C24.68 64.26 24.68 64.21 24.66 64.19C24.64 64.17 24.62 64.15 24.59 64.15L18.27 63.52H18.26H18.27Z" stroke="#1D1D1B" stroke-width="0.8" stroke-miterlimit="10"/>
<path d="M34.6 63.4L29.89 63.07C29.84 63.07 29.8 63.02 29.8 62.97C29.8 62.92 29.85 62.88 29.9 62.88L34.61 63.21C34.66 63.21 34.7 63.26 34.7 63.31C34.7 63.36 34.65 63.4 34.6 63.4Z" stroke="#1D1D1B" stroke-width="0.8" stroke-miterlimit="10"/>
<path d="M34.69 67.72L29.79 67.23V64.07C29.79 64.02 29.83 63.97 29.89 63.97C29.95 63.97 29.99 64.01 29.99 64.07V67.05L34.51 67.5V64.54C34.51 64.49 34.55 64.44 34.61 64.44C34.67 64.44 34.71 64.48 34.71 64.54V67.71L34.69 67.72Z" stroke="#1D1D1B" stroke-width="0.8" stroke-miterlimit="10"/>
<path d="M65.63 76.27L65.5 76.13L97.17 47.13C97.17 47.13 97.25 47.02 97.25 46.95L97.23 43.83C97.23 43.83 97.2 43.73 97.16 43.71L96.06 42.88C95.92 42.77 95.83 42.61 95.83 42.43V38.94C95.83 38.75 95.92 38.57 96.08 38.46L97.3 37.67C97.39 37.61 97.45 37.51 97.45 37.4V35.25C97.45 35.25 97.43 35.16 97.4 35.12L91.42 29.23C91.42 29.23 91.36 29.19 91.32 29.19L56.7 28.3C56.61 28.3 55.47 28.44 55.38 28.46L10.1 40.74L10.05 40.56L55.34 28.3C55.45 28.27 56.58 28.13 56.71 28.13L91.33 29.02C91.42 29.02 91.5 29.06 91.56 29.12L97.54 35.01C97.61 35.08 97.65 35.17 97.65 35.27V37.42C97.65 37.59 97.56 37.76 97.42 37.85L96.2 38.64C96.09 38.71 96.03 38.83 96.03 38.95V42.44C96.03 42.56 96.09 42.67 96.18 42.74L97.28 43.56C97.37 43.62 97.43 43.73 97.43 43.84L97.45 46.96C97.45 47.08 97.4 47.2 97.31 47.28L65.64 76.28L65.63 76.27Z" stroke="#1D1D1B" stroke-width="0.75" stroke-miterlimit="10"/>
<path d="M59.3422 28.1997L17.1118 40.8694L17.1664 41.0514L59.3968 28.3816L59.3422 28.1997Z" stroke="#1D1D1B" stroke-width="0.25" stroke-miterlimit="10"/>
<path d="M60.9963 28.2399L19.3993 40.9653L19.4549 41.147L61.0519 28.4216L60.9963 28.2399Z" stroke="#1D1D1B" stroke-width="0.25" stroke-miterlimit="10"/>
<path d="M63.0174 28.3175L21.9229 41.0776L21.9792 41.2591L63.0737 28.4989L63.0174 28.3175Z" stroke="#1D1D1B" stroke-width="0.25" stroke-miterlimit="10"/>
<path d="M65.4991 28.3654L24.2136 41.1849L24.27 41.3664L65.5555 28.5469L65.4991 28.3654Z" stroke="#1D1D1B" stroke-width="0.25" stroke-miterlimit="10"/>
<path d="M57.7193 28.1564L15.3113 40.7907L15.3656 40.9728L57.7736 28.3385L57.7193 28.1564Z" stroke="#1D1D1B" stroke-width="0.25" stroke-miterlimit="10"/>
<path d="M56.6903 28.1353L12.8716 40.6835L12.9239 40.8662L56.7426 28.3179L56.6903 28.1353Z" stroke="#1D1D1B" stroke-width="0.25" stroke-miterlimit="10"/>
<path d="M82.5766 28.7722L49.1501 42.3793L49.2217 42.5553L82.6483 28.9481L82.5766 28.7722Z" stroke="#1D1D1B" stroke-width="0.25" stroke-miterlimit="10"/>
<path d="M84.1945 28.8647L50.9424 42.5023L51.0145 42.6781L84.2666 29.0405L84.1945 28.8647Z" stroke="#1D1D1B" stroke-width="0.25" stroke-miterlimit="10"/>
<path d="M85.7204 28.8844L52.6643 42.6037L52.7371 42.7792L85.7932 29.0599L85.7204 28.8844Z" stroke="#1D1D1B" stroke-width="0.25" stroke-miterlimit="10"/>
<path d="M88.7818 28.9676L56.9377 42.8535L57.0136 43.0276L88.8578 29.1417L88.7818 28.9676Z" stroke="#1D1D1B" stroke-width="0.25" stroke-miterlimit="10"/>
<path d="M87.3551 28.9198L54.8157 42.7587L54.8901 42.9336L87.4295 29.0946L87.3551 28.9198Z" stroke="#1D1D1B" stroke-width="0.25" stroke-miterlimit="10"/>
<path d="M80.6094 28.7293L47.2662 42.3025L47.3378 42.4785L80.681 28.9053L80.6094 28.7293Z" stroke="#1D1D1B" stroke-width="0.25" stroke-miterlimit="10"/>
<path d="M78.9142 28.7181L45.6099 42.2009L45.6812 42.377L78.9855 28.8942L78.9142 28.7181Z" stroke="#1D1D1B" stroke-width="0.25" stroke-miterlimit="10"/>
<path d="M90.4258 29.0009L60.0614 43.057L60.1412 43.2294L90.5056 29.1734L90.4258 29.0009Z" stroke="#1D1D1B" stroke-width="0.25" stroke-miterlimit="10"/>
<path d="M97.4282 35.0053L71.0207 52.5238L71.1257 52.6821L97.5332 35.1636L97.4282 35.0053Z" stroke="#1D1D1B" stroke-width="0.8" stroke-miterlimit="10"/>
<path d="M95.9516 42.666L69.4154 64.5407L69.5363 64.6873L96.0725 42.8126L95.9516 42.666Z" stroke="#1D1D1B" stroke-width="0.8" stroke-miterlimit="10"/>
<path d="M97.1613 43.5614L70.7484 65.3655L70.8693 65.5121L97.2822 43.7079L97.1613 43.5614Z" stroke="#1D1D1B" stroke-width="0.8" stroke-miterlimit="10"/>
<path d="M64.5229 53.673L64.5095 53.8625L71.0629 54.3289L71.0764 54.1393L64.5229 53.673Z" stroke="#1D1D1B" stroke-width="0.8" stroke-miterlimit="10"/>
<path d="M60.522 53.3815L60.5085 53.571L61.1369 53.6157L61.1504 53.4262L60.522 53.3815Z" stroke="#1D1D1B" stroke-width="0.8" stroke-miterlimit="10"/>
<path d="M46.6518 52.3967L46.6383 52.5862L47.5759 52.653L47.5894 52.4634L46.6518 52.3967Z" stroke="#1D1D1B" stroke-width="0.8" stroke-miterlimit="10"/>
<path d="M3.49798 49.3271L3.4845 49.5166L43.1941 52.3421L43.2076 52.1526L3.49798 49.3271Z" stroke="#1D1D1B" stroke-width="0.8" stroke-miterlimit="10"/>
<path d="M29.89 65.88C29.89 65.88 29.83 65.86 29.81 65.83C29.78 65.78 29.8 65.73 29.84 65.7L31.17 64.93C31.17 64.93 31.27 64.92 31.3 64.96C31.33 65.01 31.31 65.06 31.27 65.09L29.94 65.86C29.94 65.86 29.91 65.87 29.89 65.87V65.88Z" stroke="#1D1D1B" stroke-width="0.8" stroke-miterlimit="10"/>
<path d="M10.17 49.89H9.98001V70.32H10.17V49.89Z" stroke="#1D1D1B" stroke-width="0.8" stroke-miterlimit="10"/>
</svg>
