<svg width="100" height="100" viewBox="0 0 100 100" fill="none" xmlns="http://www.w3.org/2000/svg">
<path d="M50 90C72.0914 90 90 72.0914 90 50C90 27.9086 72.0914 10 50 10C27.9086 10 10 27.9086 10 50C10 72.0914 27.9086 90 50 90Z" fill="#A1DCEF"/>
<path d="M68.47 54.2879C68.1707 54.2038 67.8433 54.1476 67.4972 54.1383C59.4529 53.839 51.3619 54.2973 43.3925 55.4385C39.8848 55.9342 36.4052 56.5516 32.9443 57.2905C32.5701 57.3747 32.196 57.4495 31.8218 57.5431C30.6713 57.805 29.5208 58.1043 28.3796 58.4504C27.4443 58.731 26.3031 59.0023 25.7512 59.8909C25.4893 60.3024 25.3677 60.7795 25.2742 61.2472C24.741 63.8195 24.8159 66.4759 25.1245 69.0669C25.3303 70.7506 25.5642 72.4343 25.9477 74.0899C26.2376 75.3527 26.5276 77.2796 27.5565 78.1775C28.0429 78.5984 28.6883 78.7668 29.3244 78.8603C32.1212 79.2813 34.9273 78.7387 37.696 78.3739C46.0864 77.2795 54.589 76.5032 62.8951 74.9037C66.7021 74.1741 70.4717 73.2761 74.2413 72.3688C75.1299 72.1537 76.0746 72.004 76.9445 71.7234C77.4402 71.5644 77.9173 71.2931 78.1979 70.8535C78.6095 70.2174 78.5159 69.3662 78.254 68.6554C77.4309 66.4198 76.271 64.2871 75.2141 62.1638C74.419 60.5643 73.4649 59.0397 72.3799 57.6179C71.3509 56.2803 70.1724 54.765 68.4793 54.2786L68.47 54.2879Z" stroke="#231F20" stroke-miterlimit="10"/>
<path d="M69.9666 53.2029C69.6392 53.1 69.2837 53.0439 68.9096 53.0252C60.1451 52.6885 51.3338 53.2029 42.6535 54.5218C38.8372 55.083 35.0395 55.7939 31.27 56.6451C30.8584 56.7387 30.4562 56.8322 30.0446 56.9351C28.7819 57.2438 27.5378 57.5805 26.3031 57.9734C25.2835 58.3007 24.0488 58.6001 23.4315 59.6196C23.1509 60.0873 23.0199 60.6298 22.9077 61.1723C22.3278 64.1094 22.4119 67.1494 22.7487 70.1146C22.9732 72.0414 23.2257 73.9683 23.6373 75.8578C23.9553 77.2983 24.264 79.5058 25.3864 80.5347C25.9102 81.0211 26.6211 81.2082 27.3133 81.3204C30.3627 81.8068 33.412 81.1801 36.4333 80.7592C45.5719 79.5058 54.8322 78.6172 63.8866 76.7932C68.0303 75.9513 72.146 74.9318 76.243 73.8935C77.2158 73.6503 78.2353 73.4819 79.1801 73.1545C79.7132 72.9675 80.237 72.6588 80.5457 72.1631C80.9947 71.4335 80.8918 70.47 80.6112 69.6469C79.7132 67.0933 78.4505 64.652 77.2999 62.22C76.43 60.3866 75.4011 58.6468 74.2132 57.0193C73.1001 55.4852 71.8093 53.7548 69.9666 53.2029V53.2029Z" stroke="#231F20" stroke-miterlimit="10"/>
<path d="M71.1358 52.3142C70.7897 52.202 70.4156 52.1365 70.0134 52.1272C60.6876 51.753 51.3152 52.3236 42.0736 53.7641C38.0141 54.3814 33.9732 55.1578 29.9605 56.0932C29.5208 56.1961 29.0906 56.299 28.6603 56.4018C27.3227 56.7386 25.9945 57.1127 24.6756 57.543C23.5905 57.8984 22.2717 58.2258 21.6262 59.3483C21.3269 59.8627 21.1866 60.4614 21.0744 61.0507C20.457 64.2777 20.5412 67.6077 20.906 70.8628C21.1398 72.9767 21.4111 75.0907 21.8601 77.1579C22.1594 78.561 22.599 80.0576 23.4315 81.2455C23.9086 81.919 24.5633 82.4615 25.3116 82.7795C26.1348 83.135 26.9953 83.1163 27.8652 83.1537C29.9885 83.2379 32.1118 82.9947 34.2071 82.714C34.628 82.6579 35.0489 82.5924 35.4605 82.5363C45.1791 81.1613 55.038 80.1885 64.663 78.1868C69.078 77.2701 73.4462 76.1383 77.8144 75.0065C78.8527 74.7353 79.9377 74.5482 80.9386 74.1927C81.5092 73.987 82.061 73.6502 82.3884 73.1077C82.8655 72.3126 82.7626 71.2463 82.4539 70.3483C81.4998 67.5422 80.1622 64.8764 78.9275 62.2012C78.0015 60.1901 76.9071 58.282 75.6443 56.5047C74.4564 54.8211 73.0908 52.9316 71.1171 52.3236L71.1358 52.3142Z" stroke="#231F20" stroke-miterlimit="10"/>
<path d="M72.2863 52.2675C71.5193 51.9215 70.7149 51.7812 69.873 51.7437C69.1622 51.7157 68.4513 51.697 67.7404 51.6876C66.3186 51.6596 64.9062 51.6408 63.4844 51.6502C60.6502 51.6596 57.816 51.7437 54.9818 51.9121C52.1476 52.0805 49.3228 52.333 46.5073 52.6698C44.8143 52.8755 43.1212 53.1094 41.4375 53.39C37.1067 54.0728 32.7946 54.9334 28.52 55.9623C28.0523 56.0745 27.5939 56.1868 27.1263 56.3084C25.6951 56.6732 24.2827 57.0847 22.8796 57.5711C21.7198 57.964 20.3167 58.3288 19.6245 59.5635C19.3065 60.1247 19.1568 60.7888 19.0352 61.4436C18.3711 65.0074 18.4646 68.6741 18.8575 72.2753C19.1288 74.754 19.2597 77.4573 20.0829 79.8332C20.5318 81.152 21.2708 82.3867 22.2155 83.4157C23.497 84.8187 25.1994 85.2583 27.0421 85.408C29.4928 85.6044 31.9715 85.5203 34.3941 85.1648C44.7675 83.6495 55.2811 82.5738 65.5516 80.357C70.9113 79.1971 76.243 77.794 81.5466 76.391C82.3791 76.1665 83.2115 75.8297 83.7915 75.1937C85.4284 73.4258 84.334 70.9751 83.5763 69.095C82.7158 66.9436 81.7243 64.839 80.7796 62.7157C79.7319 60.3679 78.5627 57.9734 76.9164 55.981C76.2617 55.1859 75.5414 54.4376 74.7183 53.8203C74.0168 53.2871 73.2965 52.7727 72.5108 52.3798C72.4453 52.3424 72.3799 52.3143 72.305 52.2863L72.2863 52.2675Z" stroke="#231F20" stroke-miterlimit="10"/>
<path d="M34.02 78.8603C35.4979 78.2523 36.9664 77.5976 38.3508 76.8118C39.4545 76.1851 40.0251 75.0908 40.9886 74.3144C41.6246 73.7999 42.5039 73.7812 43.2709 73.6596L46.3389 73.1826L52.4657 72.2191L60.7625 70.919C62.4555 70.6571 64.1672 70.1332 65.907 70.3016C67.7404 70.4793 69.2838 71.6579 71.0329 72.163C72.0712 72.4623 73.1656 72.5839 74.2226 72.3875" stroke="#231F20" stroke-miterlimit="10"/>
<path d="M24.0021 59.4419C24.5633 64.1094 25.1152 68.7769 25.6764 73.4538C25.9477 75.6894 26.2096 77.9343 26.4808 80.1699C26.4808 80.0389 32.9724 79.1877 33.6084 79.0848L41.5872 77.8782L50.9877 76.4564L60.6689 74.9879L69.4895 73.6503L76.3084 72.6214L79.9751 72.0695L80.3025 72.0227L69.7982 53.231L67.3382 53.5677L60.9776 54.4282L52.2411 55.6162L42.6535 56.9163L33.7394 58.123L27.0233 59.0303C26.0131 59.1706 25.0123 59.3109 24.0021 59.4512V59.4419Z" stroke="#231F20" stroke-miterlimit="10"/>
<path d="M76.3926 55.3917C77.7302 56.8603 79.0304 58.3662 80.1061 60.0312C81.2566 61.8178 82.3884 63.6137 83.5202 65.4096C83.9973 66.1673 84.465 66.9156 84.942 67.6732C85.6903 68.8612 86.3544 70.0304 86.8408 71.3493C87.6733 73.6409 88.6087 76.5593 87.4769 78.9071C86.7847 80.3383 85.4003 81.311 83.9412 81.9377C79.6571 83.7898 74.8586 84.7439 70.3782 85.9786C66.8237 86.9607 63.3067 88.0738 59.7055 88.8315C55.6366 89.692 51.5116 90.2626 47.3959 90.8238C44.4495 91.2167 41.4937 91.6376 38.5379 91.965C34.6373 92.4046 30.662 93.0594 26.7334 92.8723C24.7504 92.7788 22.7487 92.4327 20.9247 91.6189C19.559 91.0109 18.792 89.9726 18.0624 88.7099C17.1832 87.2039 16.5939 85.539 16.173 83.8553C15.8175 82.4335 15.5837 80.9837 15.4247 79.5338C15.3311 78.72 15.275 77.9156 15.2376 77.1018C15.0973 74.0806 15.1254 71.0874 15.3966 68.0661C15.6118 65.6341 15.8737 63.1086 16.8839 60.8543C17.0896 60.4053 17.3141 60.0218 17.6322 59.6477C18.764 58.3569 20.1951 57.3279 21.7759 56.6638C23.4876 55.9436 25.4052 55.663 27.2011 55.2701C31.2232 54.3909 35.3108 53.5303 39.4358 53.1281C43.645 52.7072 47.8542 52.2114 52.0634 51.8186C56.2727 51.4257 60.5006 51.0796 64.7378 51.1077C66.5618 51.1077 68.4139 51.1451 70.2191 51.3696C71.4913 51.5286 72.5015 52.3237 73.5491 52.9878" stroke="#231F20" stroke-miterlimit="10"/>
<path d="M27.1356 55.2794C25.5548 49.8168 23.7028 43.8023 22.0846 38.3584C21.5888 36.6841 21.0837 35.0191 20.5692 33.3541C19.8116 30.8847 18.9978 28.4247 18.0437 26.0114C16.7342 22.6908 15.3405 19.3889 14.2461 15.9842C13.133 12.5139 12.4408 8.90335 11.1874 5.48922C10.9255 4.76898 10.4297 2.91693 9.41018 2.9637C8.39997 3.01982 8.31578 4.65673 8.44674 5.37698C8.61511 6.36848 9.1015 7.26644 9.4663 8.19246C10.2052 10.0632 10.7478 11.9995 11.309 13.9263C12.8524 19.2299 13.7877 24.6364 15.0131 30.0055C15.6117 32.6339 16.5284 35.1875 17.3515 37.7598C17.997 39.8083 18.6704 41.838 19.3252 43.8772C19.9893 45.9256 20.6441 47.9835 21.3082 50.0319C21.3082 50.219 21.4485 50.4716 21.5046 50.6493L21.7198 51.3228C21.9817 52.1272 22.2249 52.941 22.4868 53.736C22.7487 54.5311 23.0761 55.3075 23.3286 56.1026" stroke="#231F20" stroke-miterlimit="10"/>
<path d="M62.7174 51.0889C62.839 50.2003 63.0354 49.424 63.2225 48.6102C63.4376 47.7029 63.6528 46.7862 63.8586 45.8789C64.2795 44.0549 64.6817 42.2309 65.0746 40.3976C65.907 36.5064 66.5992 32.503 67.4785 28.5837C67.9275 26.582 68.4232 24.599 69.0218 22.6347C69.6766 20.4647 70.5933 18.3975 71.1919 16.2087C71.9122 13.5896 72.2115 10.8864 72.6137 8.2112C72.8008 6.96714 72.9972 5.72309 73.2965 4.49774C73.4742 3.78685 73.7455 2.69246 74.6435 2.62699C75.5789 2.56151 75.794 3.55301 75.7566 4.22648C75.7005 5.377 75.2047 6.53687 74.9241 7.64061C74.5967 8.93144 74.2974 10.2316 74.0355 11.5318C72.3705 19.6883 71.8935 28.0412 70.0882 36.1697C68.9751 41.1833 67.6468 46.1314 66.3841 51.1077" stroke="#231F20" stroke-miterlimit="10"/>
<path d="M44.7114 75.7923C45.0523 75.7923 45.3287 75.5159 45.3287 75.175C45.3287 74.834 45.0523 74.5576 44.7114 74.5576C44.3704 74.5576 44.094 74.834 44.094 75.175C44.094 75.5159 44.3704 75.7923 44.7114 75.7923Z" stroke="#231F20" stroke-miterlimit="10"/>
<path d="M47.1434 75.3994C47.4843 75.3994 47.7607 75.123 47.7607 74.7821C47.7607 74.4411 47.4843 74.1647 47.1434 74.1647C46.8024 74.1647 46.526 74.4411 46.526 74.7821C46.526 75.123 46.8024 75.3994 47.1434 75.3994Z" stroke="#231F20" stroke-miterlimit="10"/>
<path d="M49.5005 74.9972C49.8415 74.9972 50.1179 74.7208 50.1179 74.3799C50.1179 74.0389 49.8415 73.7625 49.5005 73.7625C49.1596 73.7625 48.8832 74.0389 48.8832 74.3799C48.8832 74.7208 49.1596 74.9972 49.5005 74.9972Z" stroke="#231F20" stroke-miterlimit="10"/>
<path d="M51.9138 74.6979C52.2547 74.6979 52.5311 74.4215 52.5311 74.0805C52.5311 73.7396 52.2547 73.4632 51.9138 73.4632C51.5728 73.4632 51.2964 73.7396 51.2964 74.0805C51.2964 74.4215 51.5728 74.6979 51.9138 74.6979Z" stroke="#231F20" stroke-miterlimit="10"/>
<path d="M54.14 74.3237C54.4809 74.3237 54.7573 74.0473 54.7573 73.7064C54.7573 73.3654 54.4809 73.0891 54.14 73.0891C53.799 73.0891 53.5226 73.3654 53.5226 73.7064C53.5226 74.0473 53.799 74.3237 54.14 74.3237Z" stroke="#231F20" stroke-miterlimit="10"/>
<path d="M56.469 73.8747C56.81 73.8747 57.0864 73.5983 57.0864 73.2574C57.0864 72.9164 56.81 72.64 56.469 72.64C56.1281 72.64 55.8517 72.9164 55.8517 73.2574C55.8517 73.5983 56.1281 73.8747 56.469 73.8747Z" stroke="#231F20" stroke-miterlimit="10"/>
<path d="M58.6766 73.5848C59.0175 73.5848 59.2939 73.3084 59.2939 72.9674C59.2939 72.6265 59.0175 72.3501 58.6766 72.3501C58.3356 72.3501 58.0592 72.6265 58.0592 72.9674C58.0592 73.3084 58.3356 73.5848 58.6766 73.5848Z" stroke="#231F20" stroke-miterlimit="10"/>
<path d="M60.9308 73.1826C61.2718 73.1826 61.5482 72.9062 61.5482 72.5652C61.5482 72.2243 61.2718 71.9479 60.9308 71.9479C60.5899 71.9479 60.3135 72.2243 60.3135 72.5652C60.3135 72.9062 60.5899 73.1826 60.9308 73.1826Z" stroke="#231F20" stroke-miterlimit="10"/>
<path d="M63.1196 72.771C63.4606 72.771 63.737 72.4946 63.737 72.1537C63.737 71.8127 63.4606 71.5363 63.1196 71.5363C62.7787 71.5363 62.5023 71.8127 62.5023 72.1537C62.5023 72.4946 62.7787 72.771 63.1196 72.771Z" stroke="#231F20" stroke-miterlimit="10"/>
</svg>
