<svg width="100" height="100" viewBox="0 0 100 100" fill="none" xmlns="http://www.w3.org/2000/svg">
<path d="M50 90C72.0914 90 90 72.0914 90 50C90 27.9086 72.0914 10 50 10C27.9086 10 10 27.9086 10 50C10 72.0914 27.9086 90 50 90Z" fill="#A1DCEF"/>
<path d="M16.6817 94.5299C15.0714 93.0071 12.6997 90.7317 9.20787 87.3624C9.13785 87.2749 7.58883 85.4896 8.10517 83.4417C8.16643 83.1967 8.28895 82.9779 8.41148 82.7766C8.46399 82.6891 8.51649 82.6016 8.56025 82.514C9.03284 81.5951 10.6519 79.6873 12.0784 77.9982C12.4372 77.5694 12.7872 77.1581 13.1023 76.7818C13.8549 75.8804 15.3164 74.1826 16.6204 72.9749L23.3066 66.77C24.6806 65.5186 26.0021 64.1971 27.2273 62.8406C28.8288 61.064 31.2355 58.3073 33.5634 55.2355C35.5937 52.5488 37.8954 50.1509 40.3983 48.103L43.4964 45.5651C44.109 45.0575 44.8791 44.8124 45.658 44.8562C46.8657 44.9262 48.7998 45.4425 51.0927 47.5166L58.0589 54.1241C58.1727 54.2291 60.9557 56.767 61.3408 59.4712C61.4545 60.2676 61.2357 61.099 60.7369 61.7641C60.5444 62.0179 60.3081 62.3418 60.028 62.7093C59.4067 63.5495 58.6365 64.5909 57.8226 65.6498C56.2649 67.6802 54.4883 69.553 52.5542 71.2071C49.4299 73.885 43.8464 78.7946 41.5098 81.6564C41.0897 82.1727 40.6346 82.7241 40.1533 83.2667L40.0133 83.4242C38.9631 84.6144 37.1953 86.5923 35.6638 88.5351C33.4584 91.3181 31.4893 93.3047 29.2051 95.4401C28.505 96.0964 27.4023 96.9628 26.8772 97.3654C26.6672 97.5229 26.4484 97.6892 26.1771 97.9167C25.1969 98.7219 22.6502 100.297 20.0248 97.6454C19.8235 97.4967 19.1584 96.9103 16.6642 94.5474L16.6817 94.5299Z" stroke="#1D1D1B" stroke-width="0.8" stroke-miterlimit="10"/>
<path d="M10.2055 86.8285C10.2055 86.8285 7.99136 84.5881 9.9517 82.2864C10.4418 81.4813 15.8415 75.1714 18.3969 73.1848C19.0445 72.686 19.6046 72.1347 20.2085 71.5571L21.1537 70.6556C24.0067 67.9252 29.3276 62.8318 30.369 61.4053L30.4215 61.3353C30.5353 61.1865 30.6403 61.0377 30.7541 60.8889C31.8393 59.5149 37.6065 52.3649 44.5028 46.7815C44.6778 46.6414 44.9141 46.6239 45.1066 46.7377C46.6031 47.6129 54.3045 52.3737 59.1791 60.0488C59.3191 60.2763 59.3191 60.5651 59.1616 60.7839C57.8226 62.7093 53.123 69.2642 48.9573 72.686C47.277 74.0687 45.5792 75.644 43.7764 77.4993C40.6083 80.7637 36.6701 84.8769 35.9 85.9096C35.8475 85.9796 30.5878 93.1908 25.5207 96.9365L25.4244 97.0153C24.7593 97.5491 22.9827 98.9581 20.7336 96.8227C20.6461 96.744 20.5148 96.6215 20.2698 96.3939L10.1967 86.846L10.2055 86.8285ZM10.223 82.3477L10.2405 82.3652L10.1617 82.4615C8.36767 84.5706 10.3193 86.5484 10.398 86.636C10.398 86.636 20.8999 96.5952 20.9174 96.6127C23.0002 98.5906 24.5843 97.3303 25.2581 96.7965L25.3632 96.7177C30.3953 93.0071 35.6375 85.8221 35.69 85.752C36.4688 84.7019 40.4158 80.5886 43.5838 77.3156C45.3954 75.4427 47.102 73.8587 48.791 72.476C52.9305 69.0804 57.6126 62.5517 58.9515 60.6351C59.0391 60.5039 59.0478 60.3376 58.9603 60.2063C54.1207 52.5837 46.4631 47.8491 44.9753 46.9827C44.8791 46.9302 44.7653 46.939 44.6778 47.009C37.8078 52.5837 32.0581 59.7075 30.9729 61.0815C30.8591 61.2215 30.7541 61.3703 30.6403 61.5191L30.5878 61.5891C29.5289 63.0331 24.4005 67.9427 21.3374 70.8744L20.3923 71.7758C19.8147 72.3359 19.2108 72.9135 18.5545 73.4211C15.9377 75.4515 10.7918 81.5688 10.2142 82.374L10.223 82.3477Z" stroke="#1D1D1B" stroke-width="0.35" stroke-miterlimit="10"/>
<path d="M28.2249 78.5758C27.8573 78.2257 26.4308 76.7029 26.2471 73.8237C25.9758 69.6054 28.4349 64.6521 33.5546 59.1036C33.6071 59.0423 39.0506 53.2926 40.1358 52.1636C40.3983 51.8836 40.7046 51.6911 41.0284 51.5773C41.466 51.4285 42.2536 51.4635 42.8312 51.8398C43.05 51.9624 51.1627 56.6094 54.2432 62.7968C54.2607 62.8318 54.602 63.6194 54.4095 64.3895C54.3482 64.6433 54.2082 64.8884 54.0069 65.1159L47.3383 72.3797C47.3383 72.3797 44.2927 75.609 40.4771 77.9632C35.3837 81.105 31.1742 81.35 28.3037 78.6545C28.3037 78.6545 28.2687 78.6195 28.2249 78.5758ZM49.5787 57.222C46.2881 54.0977 42.7525 52.0936 42.7 52.0586C42.1574 51.7086 41.4485 51.7086 41.1247 51.8223C40.8359 51.9186 40.5733 52.0936 40.337 52.3387C39.2518 53.4676 33.8171 59.2174 33.7559 59.2786C27.4548 66.1048 26.3433 70.9357 26.5184 73.7799C26.7109 76.9042 28.47 78.4182 28.4875 78.4357C31.3055 81.0787 35.2874 80.8337 40.337 77.7181C44.1265 75.3815 47.1195 72.2047 47.1457 72.1784L53.8144 64.9146C53.9894 64.7221 54.1032 64.5208 54.1557 64.3108C54.322 63.6281 54.0069 62.9018 54.0069 62.893C52.9568 60.7751 51.3027 58.8411 49.5787 57.2133V57.222Z" stroke="#1D1D1B" stroke-width="0.5" stroke-miterlimit="10"/>
<path d="M24.4793 75.6614L24.4618 75.6352L22.939 73.351C22.6677 72.9835 22.5627 72.6247 22.624 72.3009C22.7027 71.907 23.0003 71.7233 23.009 71.7145C24.9081 69.9292 25.4332 70.183 25.547 70.2968C25.8095 70.4805 25.6957 70.8919 25.5907 71.1107C24.8906 72.9135 25.3107 74.9788 25.3282 75.0839C25.4419 75.4777 25.2407 75.7052 25.1181 75.7752C24.8643 75.924 24.593 75.7752 24.4793 75.6614ZM25.3894 70.5155H25.3719C25.3719 70.5155 24.9256 70.288 23.1665 71.9333C23.1403 71.9508 22.9303 72.0908 22.8777 72.3621C22.834 72.6072 22.9215 72.8872 23.149 73.2023L24.6631 75.4777C24.6631 75.4777 24.8468 75.6177 24.9781 75.5389C24.9956 75.5302 25.1444 75.4339 25.0569 75.1539C25.0394 75.0576 24.5843 72.9222 25.3369 70.9969C25.3369 70.9794 25.512 70.6381 25.3807 70.5155H25.3894Z" stroke="#1D1D1B" stroke-width="0.5" stroke-miterlimit="10"/>
<path d="M31.4017 82.2252C31.2792 82.1026 31.1217 81.8401 31.2617 81.5776C31.3142 81.455 31.533 81.245 31.9356 81.3413C32.0493 81.3588 34.1322 81.6651 35.9 80.8687C36.0925 80.7549 36.5039 80.6149 36.7139 80.8949C36.8277 80.9825 37.0902 81.4988 35.4012 83.5116C35.4012 83.5116 35.2261 83.8092 34.8498 83.9055C34.5348 83.9842 34.176 83.8967 33.7821 83.6429L31.4017 82.2252ZM36.4951 81.035C36.3638 80.9124 36.0313 81.0962 36.0225 81.0962C34.1234 81.9539 31.9706 81.6126 31.8831 81.6038H31.8743C31.5855 81.5338 31.498 81.7001 31.498 81.7001C31.428 81.8314 31.5417 81.9801 31.5768 82.0151L33.9222 83.4066C34.2547 83.6167 34.5348 83.6954 34.7798 83.6342C35.0511 83.5642 35.1736 83.3541 35.1736 83.3454C36.7402 81.49 36.5039 81.0612 36.5039 81.0525L36.4951 81.035Z" stroke="#1D1D1B" stroke-width="0.5" stroke-miterlimit="10"/>
<path d="M23.0352 79.2322C23.0352 79.2322 23.0002 79.1972 22.9914 79.1797L20.681 75.7928C20.6285 75.714 20.5847 75.6265 20.5497 75.539C20.4535 75.2677 20.3222 74.5588 21.0223 73.7975C21.1011 73.6749 21.4161 73.3861 21.7924 73.3336C22.055 73.2986 22.4488 73.3599 22.7901 73.8937C22.8514 73.9812 23.1314 74.4363 24.733 77.0093L24.7592 77.053C24.8642 77.2193 24.8555 77.4294 24.7417 77.5869L23.5603 79.1972C23.4902 79.2847 23.3852 79.3372 23.2802 79.3372C23.1927 79.3372 23.1139 79.3022 23.0527 79.2409L23.0352 79.2322ZM21.2236 73.9637C20.6285 74.6026 20.6985 75.1627 20.7948 75.4515C20.821 75.5128 20.8473 75.5828 20.891 75.644L23.2014 79.0309C23.2014 79.0309 23.2452 79.0659 23.2627 79.0659C23.2802 79.0659 23.3065 79.0659 23.324 79.0396L24.5054 77.4294C24.5579 77.3593 24.5579 77.2718 24.5142 77.2018L24.4879 77.1581C23.2452 75.1539 22.5976 74.1038 22.5538 74.0513C22.3613 73.7537 22.1425 73.6049 21.8975 73.6049C21.6437 73.6049 21.4074 73.7712 21.3024 73.8762L21.2236 73.9637Z" stroke="#1D1D1B" stroke-width="0.5" stroke-miterlimit="10"/>
<path d="M20.6373 81.77C20.6373 81.77 20.6023 81.735 20.5936 81.7175L18.2832 78.3307C18.2307 78.2519 18.1869 78.1644 18.1519 78.0769C18.0556 77.8056 17.9244 77.0967 18.6245 76.3353C18.7033 76.2128 19.0183 75.924 19.3946 75.8715C19.6572 75.8365 20.051 75.8977 20.3923 76.4316C20.4536 76.5278 20.7424 76.9829 22.3614 79.5909C22.4664 79.7572 22.4577 79.9672 22.3439 80.1247L21.1624 81.735C21.0924 81.8225 20.9874 81.875 20.8824 81.875C20.7949 81.875 20.7161 81.84 20.6548 81.7788L20.6373 81.77ZM18.8258 76.5016C18.2307 77.1317 18.3007 77.7006 18.3969 77.9894C18.4232 78.0506 18.4495 78.1206 18.4932 78.1819L20.8036 81.5687C20.8036 81.5687 20.8474 81.6037 20.8649 81.6037C20.8824 81.6037 20.9086 81.6037 20.9261 81.5775L22.1076 79.9672C22.1601 79.8972 22.1601 79.8097 22.1163 79.7397C21.355 78.5144 20.2085 76.6679 20.156 76.5891C19.9635 76.2915 19.7447 76.1428 19.4996 76.1428C19.2458 76.1428 19.0096 76.3091 18.9045 76.4141L18.8258 76.5016Z" stroke="#1D1D1B" stroke-width="0.5" stroke-miterlimit="10"/>
<path d="M18.3182 84.2119C18.3182 84.2119 18.2832 84.1769 18.2744 84.1594L15.964 80.7726C15.9115 80.6938 15.8677 80.6063 15.8327 80.5188C15.7365 80.2475 15.6052 79.5386 16.3053 78.7772C16.3841 78.6547 16.6991 78.3659 17.0754 78.3134C17.338 78.2784 17.7318 78.3396 18.0731 78.8735C18.1344 78.9697 18.4232 79.4248 20.0422 82.0328C20.1472 82.1991 20.1385 82.4091 20.0247 82.5666L18.8432 84.1769C18.7732 84.2644 18.6682 84.3169 18.5632 84.3169C18.4757 84.3169 18.3969 84.2819 18.3357 84.2207L18.3182 84.2119ZM16.5066 78.9435C15.9115 79.5736 15.9815 80.1424 16.0778 80.4312C16.104 80.4925 16.1303 80.5625 16.174 80.6238L18.4844 84.0106C18.4844 84.0106 18.5282 84.0456 18.5457 84.0456C18.5632 84.0456 18.5895 84.0456 18.607 84.0194L19.7884 82.4091C19.8409 82.3391 19.8409 82.2516 19.7972 82.1816C19.0358 80.9563 17.8893 79.1098 17.8368 79.031C17.6443 78.7334 17.4255 78.5847 17.1805 78.5847C16.9267 78.5847 16.6904 78.7509 16.5854 78.856L16.5066 78.9435Z" stroke="#1D1D1B" stroke-width="0.5" stroke-miterlimit="10"/>
<path d="M16.0515 86.6011C16.0515 86.6011 16.0165 86.5661 16.0077 86.5486L13.6973 83.1617C13.6448 83.0829 13.601 82.9954 13.566 82.9079C13.4698 82.6366 13.3385 81.9277 14.0386 81.1664C14.1174 81.0438 14.4324 80.755 14.8087 80.7025C15.0713 80.6675 15.4651 80.7288 15.8064 81.2626C15.8677 81.3501 16.1477 81.8052 17.7493 84.3782L17.7755 84.4219C17.8805 84.5882 17.8718 84.7982 17.758 84.9558L16.5766 86.5661C16.5065 86.6536 16.4015 86.7061 16.2965 86.7061C16.209 86.7061 16.1302 86.6711 16.069 86.6098L16.0515 86.6011ZM14.2399 81.3326C13.6448 81.9715 13.7148 82.5316 13.8111 82.8204C13.8373 82.8817 13.8636 82.9517 13.9073 83.0129L16.2177 86.3998C16.2177 86.3998 16.2615 86.4348 16.279 86.4348C16.2965 86.4348 16.3228 86.4348 16.3403 86.4085L17.5217 84.7982C17.5742 84.7282 17.5742 84.6407 17.5305 84.5707L17.5042 84.5269C16.2615 82.5228 15.6139 81.4727 15.5701 81.4202C15.3776 81.1226 15.1588 80.9738 14.9138 80.9738C14.703 80.9738 14.3786 81.1662 14.2399 81.3326Z" stroke="#1D1D1B" stroke-width="0.5" stroke-miterlimit="10"/>
<path d="M20.9087 91.0817C20.9087 90.968 20.9437 90.8629 21.0312 90.7929L22.5803 89.524C22.729 89.4014 22.9391 89.3839 23.1141 89.4714L23.1404 89.489C25.8096 90.9592 26.2734 91.213 26.3697 91.2655C26.9123 91.5806 26.9998 91.9656 26.9823 92.2282C26.9473 92.6132 26.6847 92.9371 26.5622 93.0246C25.8446 93.7597 25.127 93.6634 24.8469 93.5847C24.7594 93.5584 24.6719 93.5234 24.5844 93.4709L21.075 91.3443C20.9787 91.2865 20.9209 91.2031 20.9087 91.0817ZM26.2122 91.4843C26.2122 91.4843 25.092 90.8717 23.0178 89.7252L22.9916 89.7077C22.9216 89.664 22.8253 89.6727 22.764 89.734L21.215 91.003C21.215 91.003 21.1888 91.0467 21.1888 91.0642C21.1888 91.0817 21.1888 91.0992 21.2238 91.1255L24.7331 93.2521C24.7944 93.2959 24.8644 93.3221 24.9257 93.3396C25.2145 93.4184 25.7833 93.4621 26.3872 92.832L26.4835 92.7358C26.5797 92.622 26.7372 92.3857 26.7197 92.1232C26.7022 91.8869 26.5447 91.6768 26.2472 91.4931L26.2209 91.4755L26.2122 91.4843Z" stroke="#1D1D1B" stroke-width="0.5" stroke-miterlimit="10"/>
<path d="M23.1753 88.6926C23.1753 88.5788 23.2103 88.4738 23.2978 88.4038L24.8468 87.1348C24.9956 87.0123 25.2056 86.9948 25.3806 87.0823C28.0674 88.5525 28.5487 88.8238 28.6362 88.8763C29.1788 89.1914 29.2663 89.5765 29.2488 89.839C29.2138 90.2241 28.9513 90.5479 28.8288 90.6354C28.1111 91.3705 27.3935 91.2743 27.1135 91.1955C27.0259 91.1692 26.9384 91.1342 26.8509 91.0817L23.3415 88.9551C23.3415 88.9551 23.2978 88.9289 23.2803 88.9114C23.2803 88.9121 23.176 88.6996 23.1753 88.6926ZM25.0131 87.3448L23.4641 88.6138C23.4641 88.6138 23.4378 88.6576 23.4378 88.6751C23.4378 88.6926 23.4378 88.7188 23.4728 88.7276L26.9822 90.8542C27.0434 90.898 27.1135 90.9242 27.1747 90.9417C27.4635 91.0205 28.0324 91.0642 28.6362 90.4341L28.7325 90.3379C28.8288 90.2241 28.9863 89.9878 28.9688 89.7252C28.9513 89.489 28.7937 89.2789 28.4962 89.0951L28.4699 89.0776C28.4174 89.0426 26.5096 88.0012 25.2406 87.3011C25.1706 87.2573 25.0743 87.2661 25.0131 87.3273V87.3448Z" stroke="#1D1D1B" stroke-width="0.5" stroke-miterlimit="10"/>
<path d="M25.4945 86.2509C25.4945 86.1371 25.5295 86.0321 25.617 85.9621L27.166 84.6931C27.3148 84.5706 27.5248 84.5531 27.6999 84.6406C30.3866 86.1109 30.8679 86.3822 30.9554 86.4347C31.498 86.7498 31.5855 87.1348 31.568 87.3974C31.533 87.7824 31.2705 88.1062 31.148 88.1938C30.4303 88.9289 29.7127 88.8326 29.4327 88.7539C29.3452 88.7276 29.2576 88.6926 29.1701 88.6401L25.6608 86.5135C25.6608 86.5135 25.617 86.4872 25.5995 86.4697C25.5995 86.4704 25.4952 86.258 25.4945 86.2509ZM27.3323 84.9032L25.7833 86.1722C25.7833 86.1722 25.757 86.2159 25.757 86.2334C25.757 86.2509 25.757 86.2772 25.792 86.2947L29.3014 88.4213C29.3627 88.4651 29.4327 88.4913 29.4939 88.5088C29.7827 88.5876 30.3516 88.6313 30.9554 88.0012L31.0517 87.905C31.148 87.7912 31.3055 87.5549 31.288 87.2923C31.2705 87.0561 31.113 86.846 30.8154 86.6622L30.7892 86.6447C30.7366 86.6097 28.8288 85.5683 27.5598 84.8682C27.4898 84.8244 27.3936 84.8332 27.3323 84.8944V84.9032Z" stroke="#1D1D1B" stroke-width="0.5" stroke-miterlimit="10"/>
<path d="M27.8923 83.713C27.8923 83.5992 27.9273 83.4942 28.0148 83.4242L29.5638 82.1552C29.7126 82.0327 29.9226 82.0152 30.0977 82.1027L30.1239 82.1202C32.7931 83.5905 33.257 83.8443 33.3532 83.8968C33.8958 84.2119 33.9833 84.5969 33.9658 84.8595C33.9308 85.2445 33.6683 85.5683 33.5458 85.6559C32.8281 86.391 32.1105 86.2947 31.8305 86.216C31.7429 86.1897 31.6554 86.1547 31.5679 86.1022L28.0586 83.9756C27.9623 83.9178 27.9044 83.8344 27.8923 83.713ZM33.1957 84.1156C33.1957 84.1156 32.0755 83.503 30.0014 82.3565L29.9751 82.339C29.9051 82.2953 29.8089 82.304 29.7476 82.3653L28.1986 83.6343C28.1986 83.6343 28.1723 83.678 28.1723 83.6955C28.1723 83.713 28.1723 83.7305 28.2073 83.7568L31.7167 85.8834C31.778 85.9272 31.848 85.9534 31.9092 85.9709C32.198 86.0497 32.7669 86.0934 33.3707 85.4633L33.467 85.3671C33.5633 85.2533 33.7208 85.017 33.7033 84.7544C33.6858 84.5182 33.5283 84.3081 33.2307 84.1243L33.2045 84.1068L33.1957 84.1156Z" stroke="#1D1D1B" stroke-width="0.5" stroke-miterlimit="10"/>
<path d="M25.2844 81.8227C24.8556 81.4201 24.4093 80.9563 23.9717 80.4487C23.8492 80.3087 23.8404 80.1074 23.9367 79.9498C24.0679 79.7486 24.7418 78.6984 25.3807 78.1733C25.4769 78.0945 25.6257 78.1033 25.7045 78.1995C26.002 78.5408 27.5511 80.2824 28.89 81.2276C28.9426 81.2626 28.9776 81.3238 28.9863 81.3851C28.9863 81.4464 28.9688 81.5164 28.925 81.5601C28.6362 81.8664 27.6736 82.8203 27.096 83.1091C26.9735 83.1704 26.8334 83.1529 26.7284 83.0741C26.3871 82.8028 25.862 82.374 25.2757 81.8227H25.2844ZM25.5295 78.4008C25.0656 78.7946 24.5143 79.556 24.173 80.0899C24.138 80.1424 24.1467 80.2211 24.1817 80.2649C25.1794 81.4464 26.3171 82.4003 26.9034 82.8554C26.9297 82.8729 26.956 82.8729 26.9822 82.8554C27.5161 82.5928 28.4175 81.7001 28.6975 81.4026C26.7623 80.0149 25.5295 78.3754 25.5295 78.4008Z" stroke="#1D1D1B" stroke-width="0.5" stroke-miterlimit="10"/>
<path d="M22.8778 84.3168C22.4489 83.9142 22.0026 83.4504 21.565 82.9428C21.4425 82.8028 21.4338 82.6015 21.53 82.444C21.6613 82.2427 22.3352 81.1925 22.974 80.6674C23.0703 80.5887 23.2191 80.5974 23.2978 80.6937C23.5954 81.035 25.1444 82.7765 26.4834 83.7217C26.5359 83.7567 26.5709 83.818 26.5797 83.8792C26.5884 83.9405 26.5622 84.0105 26.5184 84.0543C26.2296 84.3606 25.2669 85.3057 24.6893 85.6033C24.5668 85.6645 24.4268 85.647 24.3218 85.5683C23.9805 85.297 23.4554 84.8682 22.869 84.3168H22.8778ZM23.1228 80.895C22.659 81.2888 22.1076 82.0502 21.7663 82.584C21.7313 82.6365 21.7401 82.7153 21.7751 82.759C22.7727 83.9405 23.9104 84.8944 24.4968 85.3495C24.5231 85.367 24.5493 85.367 24.5756 85.3495C25.1094 85.0869 26.0108 84.1943 26.2909 83.8967C24.3557 82.509 23.1228 80.8695 23.1228 80.895Z" stroke="#1D1D1B" stroke-width="0.5" stroke-miterlimit="10"/>
<path d="M20.5148 86.7497C20.0859 86.3471 19.6396 85.8833 19.202 85.3757C19.0795 85.2357 19.0708 85.0432 19.167 84.8856C19.2895 84.6844 19.9459 83.6692 20.5673 83.1528C20.6635 83.0741 20.8036 83.0828 20.8911 83.1791C21.1886 83.5204 22.7376 85.2532 24.0766 86.2071C24.1291 86.2421 24.1641 86.3034 24.1729 86.3647C24.1729 86.4259 24.1554 86.4872 24.1116 86.5397C23.8316 86.8372 22.8952 87.7561 22.3263 88.0362C22.2038 88.0975 22.0725 88.08 21.9675 87.9924C21.6262 87.7211 21.1011 87.2923 20.5235 86.741L20.5148 86.7497ZM20.7073 83.3804C20.261 83.7654 19.7271 84.5006 19.3946 85.0257C19.3596 85.0782 19.3683 85.1482 19.4121 85.2007C20.4185 86.3822 21.5474 87.3361 22.1338 87.7912C22.16 87.8087 22.1863 87.8087 22.2126 87.7999C22.7289 87.5461 23.604 86.6885 23.8841 86.3997C22.5626 85.4457 21.0573 83.7742 20.716 83.3804H20.7073Z" stroke="#1D1D1B" stroke-width="0.5" stroke-miterlimit="10"/>
<path d="M18.2482 89.2527C17.8194 88.8501 17.373 88.3863 16.9355 87.8787C16.8129 87.7387 16.8042 87.5461 16.8917 87.3886C17.0142 87.1873 17.6618 86.1721 18.2832 85.6646C18.3795 85.5858 18.5195 85.6033 18.607 85.6908C18.9046 86.0321 20.4536 87.7649 21.7926 88.7188C21.8451 88.7538 21.8801 88.8151 21.8888 88.8764C21.8888 88.9376 21.8713 88.9989 21.8276 89.0514C21.5475 89.349 20.6199 90.2591 20.051 90.5392C19.9285 90.6004 19.7972 90.5829 19.6922 90.4954C19.3509 90.2241 18.8258 89.7865 18.2482 89.2439V89.2527ZM18.4232 85.9009C17.9769 86.2859 17.4431 87.0123 17.1192 87.5286C17.0842 87.5811 17.093 87.6512 17.1368 87.7037C18.1432 88.8851 19.2721 89.8303 19.8585 90.2941C19.8847 90.3116 19.911 90.3116 19.9372 90.3029C20.4536 90.0578 21.32 89.2002 21.5913 88.9201C20.2698 87.9575 18.7645 86.2947 18.4232 85.9009Z" stroke="#1D1D1B" stroke-width="0.5" stroke-miterlimit="10"/>
<path d="M27.516 71.6971C27.4198 71.6095 27.376 71.487 27.3935 71.3645C27.4373 70.9794 27.6036 70.008 28.1461 69.2729C28.2687 69.1066 28.4787 69.0541 28.6625 69.1329C29.1088 69.3341 30.2553 69.8767 31.2442 70.7431C31.3317 70.8306 31.358 70.9619 31.288 71.0669C31.0517 71.4083 30.299 72.7822 30.0277 73.3336C29.9052 73.4999 29.6514 73.6574 29.3801 73.4649L27.516 71.7058V71.6971ZM28.5575 69.3779C28.4875 69.3516 28.4087 69.3779 28.3649 69.4304C27.8573 70.113 27.6998 71.0319 27.6648 71.3908C27.6648 71.4345 27.6736 71.4695 27.7086 71.4958L29.5551 73.2461C29.6777 73.3336 29.7827 73.2111 29.8002 73.1848C30.054 72.6597 30.7979 71.3032 31.0604 70.9269C30.1065 70.0955 28.995 69.5704 28.5662 69.3779H28.5575Z" stroke="#1D1D1B" stroke-width="0.5" stroke-miterlimit="10"/>
<path d="M35.2087 78.9872L33.3621 77.2369C33.1433 76.9656 33.2833 76.703 33.4234 76.5893C33.9747 76.2742 35.3137 75.4516 35.6375 75.1978C35.7338 75.119 35.8738 75.1365 35.9613 75.224C36.8715 76.1604 37.4841 77.2806 37.7029 77.7182C37.7904 77.8932 37.7466 78.112 37.5891 78.2433C36.8802 78.8297 35.9263 79.0397 35.5412 79.1097C35.4187 79.1272 35.2874 79.0922 35.1999 79.0047L35.2087 78.9872ZM33.5721 76.808C33.5459 76.8343 33.4584 76.9306 33.5546 77.0531L35.3925 78.7946C35.3925 78.7946 35.4625 78.8384 35.5062 78.8296C35.865 78.7684 36.7664 78.5671 37.4228 78.0245C37.4841 77.972 37.5016 77.8932 37.4666 77.832C37.2565 77.4119 36.6614 76.3355 35.7863 75.4253C35.7863 75.4177 34.0367 76.5491 33.5721 76.808Z" stroke="#1D1D1B" stroke-width="0.5" stroke-miterlimit="10"/>
<path d="M30.3165 74.6115H30.3253M30.3253 74.6115C29.8002 75.1365 28.9163 75.9067 28.4349 76.318C28.3212 76.4143 28.3037 76.5718 28.3912 76.6943C28.9863 77.5432 29.8177 78.1646 30.264 78.4534C30.3165 78.4884 30.3778 78.4971 30.439 78.4884C30.5003 78.4709 30.5441 78.4359 30.5791 78.3834C30.9641 77.7007 31.638 76.9306 31.9618 76.5718C31.9968 76.528 32.0318 76.493 32.0581 76.458L32.1456 76.353C33.0558 75.3903 34.526 74.5152 34.701 74.4189C34.8411 74.2789 34.7886 74.1826 34.7798 74.1651L32.3906 71.9072C32.3906 71.9072 32.3556 71.881 32.3381 71.881C32.2856 71.881 32.2069 71.951 32.1631 72.0035C31.8568 72.7824 30.7191 74.3227 30.3253 74.6115ZM28.995 77.7883C28.7062 77.517 28.4174 77.2019 28.1724 76.8518C28.0061 76.6156 28.0499 76.3005 28.2687 76.1167C28.75 75.7054 29.6252 74.944 30.1502 74.4277L30.2115 74.3664C30.474 74.0864 31.5592 72.8349 31.9181 71.8897L31.9356 71.8547C31.9356 71.8547 32.1106 71.6272 32.3119 71.6097C32.4081 71.6097 32.4957 71.6359 32.5744 71.7059L34.9723 73.9813C35.0599 74.0951 35.1386 74.3577 34.8673 74.6202L34.8411 74.6377C34.8411 74.6377 33.2658 75.5566 32.3381 76.528C32.3031 76.5805 32.2419 76.6506 32.1543 76.7468C31.8393 77.1056 31.1742 77.8583 30.8066 78.5146C30.7453 78.6284 30.6316 78.7159 30.5003 78.7509C30.369 78.7859 30.2203 78.7509 30.1065 78.6809C29.9776 78.5936 28.9909 77.7883 28.995 77.7883Z" stroke="#1D1D1B" stroke-width="0.5" stroke-miterlimit="10"/>
<path d="M41.8073 74.1913L32.0756 64.9584C31.8743 64.7659 31.8656 64.4508 32.0581 64.2495L41.4047 54.3953C41.5798 54.2115 41.8686 54.2028 42.0524 54.3778L51.8278 63.6457C52.0204 63.8295 52.0291 64.1358 51.8453 64.3283L42.5162 74.1738C42.3237 74.3751 42.0174 74.3838 41.8161 74.1913H41.8073ZM41.8598 54.5703C41.7898 54.5003 41.6673 54.5003 41.5973 54.5703L32.2506 64.4246C32.1631 64.5208 32.1631 64.6696 32.2594 64.7571L41.9911 73.99C42.0786 74.0775 42.2274 74.0688 42.3062 73.99L51.6353 64.1445C51.7141 64.057 51.7141 63.9257 51.6353 63.847L41.8598 54.5791V54.5703Z" stroke="#1D1D1B" stroke-width="0.8" stroke-miterlimit="10"/>
<path d="M50.6814 53.7127C50.6376 53.599 50.6026 53.3539 50.7864 53.1789C50.8827 53.0826 51.1189 52.9338 51.3377 53.0826L52.5805 54.2641C52.6767 54.3866 52.7642 54.6404 52.5367 54.8592C52.4492 54.9554 52.2129 55.113 51.9766 54.9467L50.6814 53.7127ZM52.1341 54.7454C52.2129 54.7979 52.3092 54.7016 52.3354 54.6754C52.4492 54.5616 52.3967 54.4654 52.3792 54.4391L51.1715 53.2927C51.1014 53.2489 50.9877 53.3627 50.9877 53.3714C50.9177 53.4414 50.9264 53.5464 50.9439 53.5902L52.1341 54.7454Z" stroke="#1D1D1B" stroke-width="0.3" stroke-miterlimit="10"/>
<path d="M49.9288 54.5092C49.8851 54.3954 49.8501 54.1504 50.0339 53.9753C50.1301 53.8791 50.3664 53.7303 50.5852 53.8791L51.8279 55.0605C51.9242 55.183 52.0117 55.4368 51.7842 55.6556C51.6966 55.7519 51.4604 55.9094 51.2241 55.7431L49.9288 54.5092ZM51.3816 55.5419C51.4604 55.5944 51.5566 55.4981 51.5829 55.4718C51.6966 55.3581 51.6441 55.2618 51.6179 55.2356L50.4102 54.0891C50.3402 54.0453 50.2264 54.1591 50.2264 54.1591C50.1564 54.2291 50.1651 54.3341 50.1826 54.3779L51.3816 55.5419Z" stroke="#1D1D1B" stroke-width="0.3" stroke-miterlimit="10"/>
<path d="M53.6744 57.6771C53.2981 57.3183 53.2806 56.7232 53.6394 56.3469C53.9982 55.9706 54.5933 55.9531 54.9696 56.3119C55.346 56.6707 55.3635 57.2658 55.0047 57.6421C54.6458 58.0184 54.0507 58.0359 53.6744 57.6771ZM54.7771 56.5132C54.5058 56.2594 54.0857 56.2681 53.8319 56.5394C53.5781 56.8107 53.5869 57.2308 53.8582 57.4846C54.1295 57.7384 54.5496 57.7296 54.8034 57.4583C55.0572 57.187 55.0484 56.7669 54.7771 56.5132Z" stroke="#1D1D1B" stroke-width="0.5" stroke-miterlimit="10"/>
<path d="M55.4159 59.8389C54.9433 59.3838 54.9171 58.6312 55.3722 58.1586C55.8273 57.686 56.5799 57.6597 57.0525 58.1148C57.5251 58.5699 57.5513 59.3225 57.0962 59.7951C56.6411 60.2677 55.8885 60.2939 55.4159 59.8389ZM56.8687 58.3074C56.5011 57.9573 55.9148 57.9748 55.5735 58.3424C55.2322 58.7099 55.2409 59.2963 55.6085 59.6376C55.976 59.9789 56.5624 59.9701 56.9037 59.6026C57.245 59.235 57.2363 58.6487 56.8687 58.3074Z" stroke="#1D1D1B" stroke-width="0.5" stroke-miterlimit="10"/>
<path d="M61.3449 58.4825L61.1567 58.318L61.0949 58.3886V58.4825H61.3449ZM61.8921 57.8565L62.0803 58.0211L62.2276 57.8526L62.0765 57.6877L61.8921 57.8565ZM57.0788 53.3057L57.2463 53.1202L57.2449 53.1189L57.0788 53.3057ZM57 53.2357L56.773 53.131L56.6953 53.2994L56.8339 53.4226L57 53.2357ZM57.0525 53.122L56.8354 52.9979L56.8301 53.0073L56.8255 53.0172L57.0525 53.122ZM57.2363 53.0519L57.3116 52.8135L57.3043 52.8113L57.2969 52.8094L57.2363 53.0519ZM57.9189 52.9382L58.0994 53.1115L58.1065 53.1034L57.9189 52.9382ZM58.0764 52.2205L57.8454 52.3168L57.8506 52.3278L58.0764 52.2205ZM58.0327 52.1155L57.8645 51.9305L57.7342 52.0491L57.8019 52.2117L58.0327 52.1155ZM58.1289 52.028L57.9836 51.8246L57.9717 51.8331L57.9608 51.843L58.1289 52.028ZM58.3215 52.0455L58.1446 52.2224L58.1495 52.227L58.3215 52.0455ZM63.1523 56.6226L63.3857 56.7123L63.4457 56.5562L63.3243 56.4411L63.1523 56.6226ZM63.1086 56.7363L63.3256 56.8604L63.3351 56.8439L63.3419 56.8261L63.1086 56.7363ZM62.9423 56.8151L63.0029 56.5726L62.9944 56.5704L62.9857 56.5689L62.9423 56.8151ZM62.2159 56.9726L62.3928 57.1496L62.3996 57.1422L62.2159 56.9726ZM62.1897 57.7865L62.404 57.6579L62.4037 57.6574L62.1897 57.7865ZM62.2422 57.874L62.4444 58.0211L62.5417 57.8873L62.4565 57.7454L62.2422 57.874ZM62.1722 57.9703L62.3576 58.138L62.3665 58.1281L62.3743 58.1174L62.1722 57.9703ZM61.3449 58.8851H61.0949V59.5342L61.5303 59.0528L61.3449 58.8851ZM58.3915 52.4743L58.6408 52.493C58.6413 52.4868 58.6415 52.4806 58.6415 52.4743H58.3915ZM58.1114 53.1132L57.9346 52.9364L57.9304 52.9408L58.1114 53.1132ZM57.5426 53.3583V53.1083H56.8927L57.3751 53.5438L57.5426 53.3583ZM61.7783 57.3402L61.5995 57.5149L62.0283 57.9538V57.3402H61.7783ZM62.0321 56.7626L62.1936 56.9534L62.2039 56.9448L62.2132 56.935L62.0321 56.7626ZM62.6535 56.5088L62.6644 56.7586C62.7646 56.7542 62.8525 56.6903 62.8877 56.5964C62.9228 56.5024 62.8983 56.3965 62.8256 56.3274L62.6535 56.5088ZM58.3915 52.4656L58.5636 52.2842C58.4911 52.2155 58.3846 52.1965 58.2928 52.2359C58.201 52.2754 58.1415 52.3657 58.1415 52.4656H58.3915ZM61.5331 58.647L62.0803 58.0211L61.7039 57.692L61.1567 58.318L61.5331 58.647ZM62.0765 57.6877C61.0161 56.5301 57.8713 53.6844 57.2463 53.1202L56.9112 53.4913C57.5464 54.0648 60.6678 56.8901 61.7078 58.0254L62.0765 57.6877ZM57.2449 53.1189L57.1661 53.0489L56.8339 53.4226L56.9127 53.4926L57.2449 53.1189ZM57.227 53.3405L57.2795 53.2267L56.8255 53.0172L56.773 53.131L57.227 53.3405ZM57.2696 53.246C57.2539 53.2734 57.2319 53.2868 57.2173 53.2921C57.2033 53.2973 57.1894 53.2979 57.1757 53.2945L57.2969 52.8094C57.14 52.7702 56.9364 52.8212 56.8354 52.9979L57.2696 53.246ZM57.161 53.2903C57.3374 53.346 57.7803 53.4436 58.0993 53.1113L57.7386 52.765C57.6872 52.8186 57.6232 52.8425 57.5457 52.8473C57.4641 52.8523 57.3786 52.8347 57.3116 52.8135L57.161 53.2903ZM57.9189 52.9382C58.1065 53.1034 58.1066 53.1034 58.1066 53.1033C58.1066 53.1033 58.1067 53.1032 58.1068 53.1031C58.1068 53.103 58.1069 53.1029 58.107 53.1028C58.1072 53.1026 58.1074 53.1024 58.1077 53.1021C58.1082 53.1015 58.1087 53.1009 58.1093 53.1002C58.1106 53.0987 58.1122 53.0969 58.114 53.0947C58.1177 53.0903 58.1225 53.0844 58.1282 53.0772C58.1397 53.0628 58.1549 53.0428 58.1722 53.018C58.2064 52.9688 58.2504 52.898 58.2886 52.812C58.3625 52.6453 58.4302 52.3826 58.3023 52.1133L57.8506 52.3278C57.889 52.4086 57.8779 52.5047 57.8315 52.6093C57.8095 52.6589 57.783 52.7019 57.7616 52.7326C57.7512 52.7476 57.7424 52.7591 57.7368 52.7662C57.734 52.7697 57.732 52.7721 57.731 52.7732C57.7305 52.7738 57.7303 52.7741 57.7303 52.7741C57.7304 52.774 57.7304 52.7739 57.7306 52.7737C57.7307 52.7736 57.7308 52.7735 57.7309 52.7734C57.731 52.7733 57.731 52.7732 57.7311 52.7732C57.7311 52.7731 57.7312 52.7731 57.7312 52.773C57.7313 52.773 57.7313 52.7729 57.9189 52.9382ZM58.3072 52.1244L58.2635 52.0194L57.8019 52.2117L57.8457 52.3167L58.3072 52.1244ZM58.2008 52.3005L58.2971 52.213L57.9608 51.843L57.8645 51.9305L58.2008 52.3005ZM58.2743 52.2315C58.2558 52.2446 58.2307 52.252 58.2044 52.2495C58.1788 52.247 58.1581 52.2357 58.1447 52.2223L58.4983 51.8687C58.3637 51.7341 58.1492 51.7063 57.9836 51.8246L58.2743 52.2315ZM58.1495 52.227L62.9804 56.8041L63.3243 56.4411L58.4934 51.864L58.1495 52.227ZM62.919 56.5328L62.8752 56.6466L63.3419 56.8261L63.3857 56.7123L62.919 56.5328ZM62.8915 56.6123C62.8946 56.6069 62.9045 56.5928 62.9268 56.5817C62.9516 56.5693 62.9799 56.5668 63.0029 56.5726L62.8817 57.0576C63.0838 57.1082 63.2481 56.9961 63.3256 56.8604L62.8915 56.6123ZM62.9857 56.5689C62.9022 56.5542 62.7467 56.5323 62.5762 56.55C62.4068 56.5677 62.1941 56.6277 62.0322 56.8031L62.3996 57.1422C62.4477 57.0901 62.5239 57.0582 62.6279 57.0474C62.7309 57.0366 62.8336 57.0498 62.8988 57.0613L62.9857 56.5689ZM62.0391 56.7959C62.0162 56.8188 61.8904 56.9343 61.8316 57.1354C61.7698 57.3466 61.7917 57.611 61.9756 57.9157L62.4037 57.6574C62.2813 57.4545 62.2945 57.3338 62.3115 57.2759C62.3314 57.2078 62.3718 57.1703 62.3927 57.1494L62.0391 56.7959ZM61.9753 57.9152L62.0278 58.0027L62.4565 57.7454L62.404 57.6579L61.9753 57.9152ZM62.04 57.727L61.97 57.8233L62.3743 58.1174L62.4444 58.0211L62.04 57.727ZM61.9867 57.8026L61.1595 58.7174L61.5303 59.0528L62.3576 58.138L61.9867 57.8026ZM61.5949 58.8851V58.5H61.0949V58.8851H61.5949ZM61.5949 58.5V58.4825H61.0949V58.5H61.5949ZM58.1422 52.4556C58.1328 52.5815 58.0844 52.7005 58.0307 52.7951C57.9761 52.8915 57.9259 52.9452 57.9347 52.9364L58.2882 53.29C58.3145 53.2637 58.3912 53.173 58.4656 53.0418C58.5411 52.9089 58.624 52.7173 58.6408 52.493L58.1422 52.4556ZM57.9304 52.9408C57.8099 53.0674 57.6693 53.1083 57.5426 53.1083V53.6083C57.7835 53.6083 58.063 53.5266 58.2925 53.2856L57.9304 52.9408ZM57.3751 53.5438C58.2776 54.3587 60.4858 56.375 61.5995 57.5149L61.9572 57.1655C60.8305 56.0124 58.6104 53.9855 57.7101 53.1727L57.3751 53.5438ZM62.0283 57.3402C62.0283 57.1457 62.1261 57.0105 62.1936 56.9534L61.8706 56.5717C61.7106 56.7072 61.5283 56.9746 61.5283 57.3402H62.0283ZM62.2132 56.935C62.3262 56.8163 62.497 56.7658 62.6644 56.7586L62.6426 56.259C62.4074 56.2693 62.0881 56.3413 61.8511 56.5902L62.2132 56.935ZM62.8256 56.3274L58.5636 52.2842L58.2194 52.647L62.4814 56.6902L62.8256 56.3274ZM58.1415 52.4656V52.4743H58.6415V52.4656H58.1415Z" fill="#1D1D1B"/>
<path d="M45.7305 44.8824V45.1324H45.8388L45.9128 45.0534L45.7305 44.8824ZM45.3342 44.8824L45.1527 44.7104L44.7527 45.1324H45.3342V44.8824ZM47.0845 43.0358L47.2659 43.2078L47.2714 43.202L47.2765 43.1958L47.0845 43.0358ZM47.3645 43.1583L47.614 43.1739L47.6145 43.1661V43.1583H47.3645ZM47.4258 43.9022L47.1829 43.9613L47.1832 43.9628L47.4258 43.9022ZM47.6533 44.2873L47.8247 44.1052L47.8223 44.103L47.6533 44.2873ZM50.7339 47.1578L50.5643 47.3415L50.5657 47.3428L50.7339 47.1578ZM51.1102 47.4028L51.0037 47.629L51.0041 47.6292L51.1102 47.4028ZM51.9416 47.5516L51.9312 47.8016H51.9416V47.5516ZM52.1429 47.5516L52.3665 47.4398L52.2974 47.3016H52.1429V47.5516ZM52.1954 47.6566L52.4252 47.5581L52.4223 47.5514L52.419 47.5448L52.1954 47.6566ZM52.1604 47.8229L51.9835 47.646L51.9785 47.6513L52.1604 47.8229ZM51.8016 48.2031L51.6289 48.384L51.8108 48.5576L51.9834 48.3747L51.8016 48.2031ZM51.609 48.0193L51.4305 47.8444L51.2532 48.0253L51.4364 48.2002L51.609 48.0193ZM51.8016 47.8229L51.9801 47.9979C52.0493 47.9272 52.0704 47.8224 52.0339 47.7305C51.9973 47.6386 51.91 47.5769 51.8112 47.5731L51.8016 47.8229ZM50.9964 47.6566L50.8889 47.8824L50.8935 47.8844L50.9964 47.6566ZM50.5501 47.3678L50.3804 47.5516L50.3874 47.5576L50.5501 47.3678ZM47.4695 44.4973L47.2926 44.6742L47.2996 44.6807L47.4695 44.4973ZM47.1632 43.981L47.4071 43.9255L47.4051 43.9179L47.1632 43.981ZM47.0845 43.4384L47.334 43.4237C47.3282 43.3239 47.2635 43.2373 47.1696 43.2033C47.0756 43.1693 46.9704 43.1945 46.9021 43.2674L47.0845 43.4384ZM45.7305 44.6324H45.3342V45.1324H45.7305V44.6324ZM45.5156 45.0544L47.2659 43.2078L46.903 42.8638L45.1527 44.7104L45.5156 45.0544ZM47.2765 43.1958C47.2541 43.2227 47.2272 43.2326 47.2109 43.2354C47.1957 43.2379 47.1823 43.2359 47.1698 43.2306L47.3667 42.771C47.232 42.7133 47.0248 42.7169 46.8924 42.8757L47.2765 43.1958ZM47.1698 43.2306C47.1416 43.2185 47.128 43.2003 47.1228 43.1914C47.118 43.183 47.1145 43.1729 47.1145 43.1583H47.6145C47.6145 43.0219 47.5408 42.8456 47.3667 42.771L47.1698 43.2306ZM47.115 43.1427C47.1056 43.2939 47.0956 43.6024 47.1829 43.9613L47.6687 43.8431C47.5985 43.5543 47.606 43.3028 47.614 43.1739L47.115 43.1427ZM47.1832 43.9628C47.2298 44.1491 47.3423 44.3413 47.4844 44.4716L47.8223 44.103C47.7543 44.0407 47.6918 43.9353 47.6683 43.8416L47.1832 43.9628ZM47.482 44.4693C48.0777 45.03 49.9949 46.8159 50.5643 47.3415L50.9034 46.9741C50.3351 46.4495 48.4191 44.6647 47.8247 44.1052L47.482 44.4693ZM50.5657 47.3428C50.6825 47.4489 50.8352 47.5497 51.0037 47.629L51.2166 47.1766C51.0876 47.1159 50.9778 47.0416 50.902 46.9728L50.5657 47.3428ZM51.0041 47.6292C51.3382 47.7858 51.7337 47.7931 51.9312 47.8014L51.952 47.3018C51.7294 47.2925 51.4423 47.2824 51.2163 47.1764L51.0041 47.6292ZM51.9416 47.8016C51.9417 47.8016 51.9417 47.8016 51.9418 47.8016C51.9419 47.8016 51.942 47.8016 51.9421 47.8016C51.9422 47.8016 51.9423 47.8016 51.9423 47.8016C51.9424 47.8016 51.9425 47.8016 51.9426 47.8016C51.9427 47.8016 51.9428 47.8016 51.9429 47.8016C51.9429 47.8016 51.943 47.8016 51.9431 47.8016C51.9432 47.8016 51.9433 47.8016 51.9434 47.8016C51.9435 47.8016 51.9435 47.8016 51.9436 47.8016C51.9437 47.8016 51.9438 47.8016 51.9439 47.8016C51.944 47.8016 51.9441 47.8016 51.9441 47.8016C51.9442 47.8016 51.9443 47.8016 51.9444 47.8016C51.9445 47.8016 51.9446 47.8016 51.9447 47.8016C51.9447 47.8016 51.9448 47.8016 51.9449 47.8016C51.945 47.8016 51.9451 47.8016 51.9452 47.8016C51.9453 47.8016 51.9453 47.8016 51.9454 47.8016C51.9455 47.8016 51.9456 47.8016 51.9457 47.8016C51.9458 47.8016 51.9458 47.8016 51.9459 47.8016C51.946 47.8016 51.9461 47.8016 51.9462 47.8016C51.9463 47.8016 51.9464 47.8016 51.9464 47.8016C51.9465 47.8016 51.9466 47.8016 51.9467 47.8016C51.9468 47.8016 51.9469 47.8016 51.947 47.8016C51.947 47.8016 51.9471 47.8016 51.9472 47.8016C51.9473 47.8016 51.9474 47.8016 51.9475 47.8016C51.9476 47.8016 51.9476 47.8016 51.9477 47.8016C51.9478 47.8016 51.9479 47.8016 51.948 47.8016C51.9481 47.8016 51.9482 47.8016 51.9482 47.8016C51.9483 47.8016 51.9484 47.8016 51.9485 47.8016C51.9486 47.8016 51.9487 47.8016 51.9488 47.8016C51.9488 47.8016 51.9489 47.8016 51.949 47.8016C51.9491 47.8016 51.9492 47.8016 51.9493 47.8016C51.9493 47.8016 51.9494 47.8016 51.9495 47.8016C51.9496 47.8016 51.9497 47.8016 51.9498 47.8016C51.9499 47.8016 51.9499 47.8016 51.95 47.8016C51.9501 47.8016 51.9502 47.8016 51.9503 47.8016C51.9504 47.8016 51.9505 47.8016 51.9505 47.8016C51.9506 47.8016 51.9507 47.8016 51.9508 47.8016C51.9509 47.8016 51.951 47.8016 51.9511 47.8016C51.9511 47.8016 51.9512 47.8016 51.9513 47.8016C51.9514 47.8016 51.9515 47.8016 51.9516 47.8016C51.9517 47.8016 51.9517 47.8016 51.9518 47.8016C51.9519 47.8016 51.952 47.8016 51.9521 47.8016C51.9522 47.8016 51.9522 47.8016 51.9523 47.8016C51.9524 47.8016 51.9525 47.8016 51.9526 47.8016C51.9527 47.8016 51.9528 47.8016 51.9528 47.8016C51.9529 47.8016 51.953 47.8016 51.9531 47.8016C51.9532 47.8016 51.9533 47.8016 51.9534 47.8016C51.9534 47.8016 51.9535 47.8016 51.9536 47.8016C51.9537 47.8016 51.9538 47.8016 51.9539 47.8016C51.954 47.8016 51.954 47.8016 51.9541 47.8016C51.9542 47.8016 51.9543 47.8016 51.9544 47.8016C51.9545 47.8016 51.9545 47.8016 51.9546 47.8016C51.9547 47.8016 51.9548 47.8016 51.9549 47.8016C51.955 47.8016 51.9551 47.8016 51.9551 47.8016C51.9552 47.8016 51.9553 47.8016 51.9554 47.8016C51.9555 47.8016 51.9556 47.8016 51.9557 47.8016C51.9557 47.8016 51.9558 47.8016 51.9559 47.8016C51.956 47.8016 51.9561 47.8016 51.9562 47.8016C51.9563 47.8016 51.9563 47.8016 51.9564 47.8016C51.9565 47.8016 51.9566 47.8016 51.9567 47.8016C51.9568 47.8016 51.9568 47.8016 51.9569 47.8016C51.957 47.8016 51.9571 47.8016 51.9572 47.8016C51.9573 47.8016 51.9574 47.8016 51.9574 47.8016C51.9575 47.8016 51.9576 47.8016 51.9577 47.8016C51.9578 47.8016 51.9579 47.8016 51.958 47.8016C51.958 47.8016 51.9581 47.8016 51.9582 47.8016C51.9583 47.8016 51.9584 47.8016 51.9585 47.8016C51.9585 47.8016 51.9586 47.8016 51.9587 47.8016C51.9588 47.8016 51.9589 47.8016 51.959 47.8016C51.9591 47.8016 51.9591 47.8016 51.9592 47.8016C51.9593 47.8016 51.9594 47.8016 51.9595 47.8016C51.9596 47.8016 51.9596 47.8016 51.9597 47.8016C51.9598 47.8016 51.9599 47.8016 51.96 47.8016C51.9601 47.8016 51.9602 47.8016 51.9602 47.8016C51.9603 47.8016 51.9604 47.8016 51.9605 47.8016C51.9606 47.8016 51.9607 47.8016 51.9608 47.8016C51.9608 47.8016 51.9609 47.8016 51.961 47.8016C51.9611 47.8016 51.9612 47.8016 51.9613 47.8016C51.9613 47.8016 51.9614 47.8016 51.9615 47.8016C51.9616 47.8016 51.9617 47.8016 51.9618 47.8016C51.9619 47.8016 51.9619 47.8016 51.962 47.8016C51.9621 47.8016 51.9622 47.8016 51.9623 47.8016C51.9624 47.8016 51.9624 47.8016 51.9625 47.8016C51.9626 47.8016 51.9627 47.8016 51.9628 47.8016C51.9629 47.8016 51.963 47.8016 51.963 47.8016C51.9631 47.8016 51.9632 47.8016 51.9633 47.8016C51.9634 47.8016 51.9635 47.8016 51.9635 47.8016C51.9636 47.8016 51.9637 47.8016 51.9638 47.8016C51.9639 47.8016 51.964 47.8016 51.964 47.8016C51.9641 47.8016 51.9642 47.8016 51.9643 47.8016C51.9644 47.8016 51.9645 47.8016 51.9646 47.8016C51.9646 47.8016 51.9647 47.8016 51.9648 47.8016C51.9649 47.8016 51.965 47.8016 51.9651 47.8016C51.9651 47.8016 51.9652 47.8016 51.9653 47.8016C51.9654 47.8016 51.9655 47.8016 51.9656 47.8016C51.9657 47.8016 51.9657 47.8016 51.9658 47.8016C51.9659 47.8016 51.966 47.8016 51.9661 47.8016C51.9662 47.8016 51.9662 47.8016 51.9663 47.8016C51.9664 47.8016 51.9665 47.8016 51.9666 47.8016C51.9667 47.8016 51.9667 47.8016 51.9668 47.8016C51.9669 47.8016 51.967 47.8016 51.9671 47.8016C51.9672 47.8016 51.9673 47.8016 51.9673 47.8016C51.9674 47.8016 51.9675 47.8016 51.9676 47.8016C51.9677 47.8016 51.9678 47.8016 51.9678 47.8016C51.9679 47.8016 51.968 47.8016 51.9681 47.8016C51.9682 47.8016 51.9683 47.8016 51.9683 47.8016C51.9684 47.8016 51.9685 47.8016 51.9686 47.8016C51.9687 47.8016 51.9688 47.8016 51.9689 47.8016C51.9689 47.8016 51.969 47.8016 51.9691 47.8016C51.9692 47.8016 51.9693 47.8016 51.9694 47.8016C51.9694 47.8016 51.9695 47.8016 51.9696 47.8016C51.9697 47.8016 51.9698 47.8016 51.9699 47.8016C51.9699 47.8016 51.97 47.8016 51.9701 47.8016C51.9702 47.8016 51.9703 47.8016 51.9704 47.8016C51.9704 47.8016 51.9705 47.8016 51.9706 47.8016C51.9707 47.8016 51.9708 47.8016 51.9709 47.8016C51.9709 47.8016 51.971 47.8016 51.9711 47.8016C51.9712 47.8016 51.9713 47.8016 51.9714 47.8016C51.9714 47.8016 51.9715 47.8016 51.9716 47.8016C51.9717 47.8016 51.9718 47.8016 51.9719 47.8016C51.972 47.8016 51.972 47.8016 51.9721 47.8016C51.9722 47.8016 51.9723 47.8016 51.9724 47.8016C51.9725 47.8016 51.9725 47.8016 51.9726 47.8016C51.9727 47.8016 51.9728 47.8016 51.9729 47.8016C51.973 47.8016 51.973 47.8016 51.9731 47.8016C51.9732 47.8016 51.9733 47.8016 51.9734 47.8016C51.9735 47.8016 51.9735 47.8016 51.9736 47.8016C51.9737 47.8016 51.9738 47.8016 51.9739 47.8016C51.974 47.8016 51.974 47.8016 51.9741 47.8016C51.9742 47.8016 51.9743 47.8016 51.9744 47.8016C51.9745 47.8016 51.9745 47.8016 51.9746 47.8016C51.9747 47.8016 51.9748 47.8016 51.9749 47.8016C51.975 47.8016 51.975 47.8016 51.9751 47.8016C51.9752 47.8016 51.9753 47.8016 51.9754 47.8016C51.9755 47.8016 51.9755 47.8016 51.9756 47.8016C51.9757 47.8016 51.9758 47.8016 51.9759 47.8016C51.976 47.8016 51.976 47.8016 51.9761 47.8016C51.9762 47.8016 51.9763 47.8016 51.9764 47.8016C51.9764 47.8016 51.9765 47.8016 51.9766 47.8016C51.9767 47.8016 51.9768 47.8016 51.9769 47.8016C51.9769 47.8016 51.977 47.8016 51.9771 47.8016C51.9772 47.8016 51.9773 47.8016 51.9774 47.8016C51.9774 47.8016 51.9775 47.8016 51.9776 47.8016C51.9777 47.8016 51.9778 47.8016 51.9779 47.8016C51.9779 47.8016 51.978 47.8016 51.9781 47.8016C51.9782 47.8016 51.9783 47.8016 51.9784 47.8016C51.9784 47.8016 51.9785 47.8016 51.9786 47.8016C51.9787 47.8016 51.9788 47.8016 51.9789 47.8016C51.9789 47.8016 51.979 47.8016 51.9791 47.8016C51.9792 47.8016 51.9793 47.8016 51.9793 47.8016C51.9794 47.8016 51.9795 47.8016 51.9796 47.8016C51.9797 47.8016 51.9798 47.8016 51.9798 47.8016C51.9799 47.8016 51.98 47.8016 51.9801 47.8016C51.9802 47.8016 51.9803 47.8016 51.9803 47.8016C51.9804 47.8016 51.9805 47.8016 51.9806 47.8016C51.9807 47.8016 51.9807 47.8016 51.9808 47.8016C51.9809 47.8016 51.981 47.8016 51.9811 47.8016C51.9812 47.8016 51.9812 47.8016 51.9813 47.8016C51.9814 47.8016 51.9815 47.8016 51.9816 47.8016C51.9817 47.8016 51.9817 47.8016 51.9818 47.8016C51.9819 47.8016 51.982 47.8016 51.9821 47.8016C51.9821 47.8016 51.9822 47.8016 51.9823 47.8016C51.9824 47.8016 51.9825 47.8016 51.9826 47.8016C51.9826 47.8016 51.9827 47.8016 51.9828 47.8016C51.9829 47.8016 51.983 47.8016 51.983 47.8016C51.9831 47.8016 51.9832 47.8016 51.9833 47.8016C51.9834 47.8016 51.9835 47.8016 51.9835 47.8016C51.9836 47.8016 51.9837 47.8016 51.9838 47.8016C51.9839 47.8016 51.984 47.8016 51.984 47.8016C51.9841 47.8016 51.9842 47.8016 51.9843 47.8016C51.9844 47.8016 51.9844 47.8016 51.9845 47.8016C51.9846 47.8016 51.9847 47.8016 51.9848 47.8016C51.9848 47.8016 51.9849 47.8016 51.985 47.8016C51.9851 47.8016 51.9852 47.8016 51.9853 47.8016C51.9853 47.8016 51.9854 47.8016 51.9855 47.8016C51.9856 47.8016 51.9857 47.8016 51.9857 47.8016C51.9858 47.8016 51.9859 47.8016 51.986 47.8016C51.9861 47.8016 51.9862 47.8016 51.9862 47.8016C51.9863 47.8016 51.9864 47.8016 51.9865 47.8016C51.9866 47.8016 51.9866 47.8016 51.9867 47.8016C51.9868 47.8016 51.9869 47.8016 51.987 47.8016C51.987 47.8016 51.9871 47.8016 51.9872 47.8016C51.9873 47.8016 51.9874 47.8016 51.9875 47.8016C51.9875 47.8016 51.9876 47.8016 51.9877 47.8016C51.9878 47.8016 51.9879 47.8016 51.9879 47.8016C51.988 47.8016 51.9881 47.8016 51.9882 47.8016C51.9883 47.8016 51.9883 47.8016 51.9884 47.8016C51.9885 47.8016 51.9886 47.8016 51.9887 47.8016C51.9887 47.8016 51.9888 47.8016 51.9889 47.8016C51.989 47.8016 51.9891 47.8016 51.9892 47.8016C51.9892 47.8016 51.9893 47.8016 51.9894 47.8016C51.9895 47.8016 51.9896 47.8016 51.9896 47.8016C51.9897 47.8016 51.9898 47.8016 51.9899 47.8016C51.99 47.8016 51.99 47.8016 51.9901 47.8016C51.9902 47.8016 51.9903 47.8016 51.9904 47.8016C51.9904 47.8016 51.9905 47.8016 51.9906 47.8016C51.9907 47.8016 51.9908 47.8016 51.9908 47.8016C51.9909 47.8016 51.991 47.8016 51.9911 47.8016C51.9912 47.8016 51.9912 47.8016 51.9913 47.8016C51.9914 47.8016 51.9915 47.8016 51.9916 47.8016C51.9917 47.8016 51.9917 47.8016 51.9918 47.8016C51.9919 47.8016 51.992 47.8016 51.9921 47.8016C51.9921 47.8016 51.9922 47.8016 51.9923 47.8016C51.9924 47.8016 51.9925 47.8016 51.9925 47.8016C51.9926 47.8016 51.9927 47.8016 51.9928 47.8016C51.9929 47.8016 51.9929 47.8016 51.993 47.8016C51.9931 47.8016 51.9932 47.8016 51.9933 47.8016C51.9933 47.8016 51.9934 47.8016 51.9935 47.8016C51.9936 47.8016 51.9937 47.8016 51.9937 47.8016C51.9938 47.8016 51.9939 47.8016 51.994 47.8016C51.9941 47.8016 51.9941 47.8016 51.9942 47.8016C51.9943 47.8016 51.9944 47.8016 51.9945 47.8016C51.9945 47.8016 51.9946 47.8016 51.9947 47.8016C51.9948 47.8016 51.9948 47.8016 51.9949 47.8016C51.995 47.8016 51.9951 47.8016 51.9952 47.8016C51.9952 47.8016 51.9953 47.8016 51.9954 47.8016C51.9955 47.8016 51.9956 47.8016 51.9956 47.8016C51.9957 47.8016 51.9958 47.8016 51.9959 47.8016C51.996 47.8016 51.996 47.8016 51.9961 47.8016C51.9962 47.8016 51.9963 47.8016 51.9964 47.8016C51.9964 47.8016 51.9965 47.8016 51.9966 47.8016C51.9967 47.8016 51.9968 47.8016 51.9968 47.8016C51.9969 47.8016 51.997 47.8016 51.9971 47.8016C51.9971 47.8016 51.9972 47.8016 51.9973 47.8016C51.9974 47.8016 51.9975 47.8016 51.9975 47.8016C51.9976 47.8016 51.9977 47.8016 51.9978 47.8016C51.9979 47.8016 51.9979 47.8016 51.998 47.8016C51.9981 47.8016 51.9982 47.8016 51.9983 47.8016C51.9983 47.8016 51.9984 47.8016 51.9985 47.8016C51.9986 47.8016 51.9986 47.8016 51.9987 47.8016C51.9988 47.8016 51.9989 47.8016 51.999 47.8016C51.999 47.8016 51.9991 47.8016 51.9992 47.8016C51.9993 47.8016 51.9994 47.8016 51.9994 47.8016C51.9995 47.8016 51.9996 47.8016 51.9997 47.8016C51.9997 47.8016 51.9998 47.8016 51.9999 47.8016C52 47.8016 52.0001 47.8016 52.0001 47.8016C52.0002 47.8016 52.0003 47.8016 52.0004 47.8016C52.0004 47.8016 52.0005 47.8016 52.0006 47.8016C52.0007 47.8016 52.0008 47.8016 52.0008 47.8016C52.0009 47.8016 52.001 47.8016 52.0011 47.8016C52.0012 47.8016 52.0012 47.8016 52.0013 47.8016C52.0014 47.8016 52.0015 47.8016 52.0015 47.8016C52.0016 47.8016 52.0017 47.8016 52.0018 47.8016C52.0019 47.8016 52.0019 47.8016 52.002 47.8016C52.0021 47.8016 52.0022 47.8016 52.0022 47.8016C52.0023 47.8016 52.0024 47.8016 52.0025 47.8016C52.0026 47.8016 52.0026 47.8016 52.0027 47.8016C52.0028 47.8016 52.0029 47.8016 52.0029 47.8016C52.003 47.8016 52.0031 47.8016 52.0032 47.8016C52.0033 47.8016 52.0033 47.8016 52.0034 47.8016C52.0035 47.8016 52.0036 47.8016 52.0036 47.8016C52.0037 47.8016 52.0038 47.8016 52.0039 47.8016C52.0039 47.8016 52.004 47.8016 52.0041 47.8016C52.0042 47.8016 52.0043 47.8016 52.0043 47.8016C52.0044 47.8016 52.0045 47.8016 52.0046 47.8016C52.0046 47.8016 52.0047 47.8016 52.0048 47.8016C52.0049 47.8016 52.0049 47.8016 52.005 47.8016C52.0051 47.8016 52.0052 47.8016 52.0053 47.8016C52.0053 47.8016 52.0054 47.8016 52.0055 47.8016C52.0056 47.8016 52.0056 47.8016 52.0057 47.8016C52.0058 47.8016 52.0059 47.8016 52.0059 47.8016C52.006 47.8016 52.0061 47.8016 52.0062 47.8016C52.0063 47.8016 52.0063 47.8016 52.0064 47.8016C52.0065 47.8016 52.0066 47.8016 52.0066 47.8016C52.0067 47.8016 52.0068 47.8016 52.0069 47.8016C52.0069 47.8016 52.007 47.8016 52.0071 47.8016C52.0072 47.8016 52.0072 47.8016 52.0073 47.8016C52.0074 47.8016 52.0075 47.8016 52.0076 47.8016C52.0076 47.8016 52.0077 47.8016 52.0078 47.8016C52.0079 47.8016 52.0079 47.8016 52.008 47.8016C52.0081 47.8016 52.0082 47.8016 52.0082 47.8016C52.0083 47.8016 52.0084 47.8016 52.0085 47.8016C52.0085 47.8016 52.0086 47.8016 52.0087 47.8016C52.0088 47.8016 52.0088 47.8016 52.0089 47.8016C52.009 47.8016 52.0091 47.8016 52.0091 47.8016C52.0092 47.8016 52.0093 47.8016 52.0094 47.8016C52.0094 47.8016 52.0095 47.8016 52.0096 47.8016C52.0097 47.8016 52.0098 47.8016 52.0098 47.8016C52.0099 47.8016 52.01 47.8016 52.0101 47.8016C52.0101 47.8016 52.0102 47.8016 52.0103 47.8016C52.0104 47.8016 52.0104 47.8016 52.0105 47.8016C52.0106 47.8016 52.0107 47.8016 52.0107 47.8016C52.0108 47.8016 52.0109 47.8016 52.011 47.8016C52.011 47.8016 52.0111 47.8016 52.0112 47.8016C52.0113 47.8016 52.0113 47.8016 52.0114 47.8016C52.0115 47.8016 52.0116 47.8016 52.0116 47.8016C52.0117 47.8016 52.0118 47.8016 52.0119 47.8016C52.0119 47.8016 52.012 47.8016 52.0121 47.8016C52.0122 47.8016 52.0122 47.8016 52.0123 47.8016C52.0124 47.8016 52.0125 47.8016 52.0125 47.8016C52.0126 47.8016 52.0127 47.8016 52.0128 47.8016C52.0128 47.8016 52.0129 47.8016 52.013 47.8016C52.013 47.8016 52.0131 47.8016 52.0132 47.8016C52.0133 47.8016 52.0133 47.8016 52.0134 47.8016C52.0135 47.8016 52.0136 47.8016 52.0136 47.8016C52.0137 47.8016 52.0138 47.8016 52.0139 47.8016C52.0139 47.8016 52.014 47.8016 52.0141 47.8016C52.0142 47.8016 52.0142 47.8016 52.0143 47.8016C52.0144 47.8016 52.0145 47.8016 52.0145 47.8016C52.0146 47.8016 52.0147 47.8016 52.0148 47.8016C52.0148 47.8016 52.0149 47.8016 52.015 47.8016C52.015 47.8016 52.0151 47.8016 52.0152 47.8016C52.0153 47.8016 52.0153 47.8016 52.0154 47.8016C52.0155 47.8016 52.0156 47.8016 52.0156 47.8016C52.0157 47.8016 52.0158 47.8016 52.0159 47.8016C52.0159 47.8016 52.016 47.8016 52.0161 47.8016C52.0161 47.8016 52.0162 47.8016 52.0163 47.8016C52.0164 47.8016 52.0164 47.8016 52.0165 47.8016C52.0166 47.8016 52.0167 47.8016 52.0167 47.8016C52.0168 47.8016 52.0169 47.8016 52.017 47.8016C52.017 47.8016 52.0171 47.8016 52.0172 47.8016C52.0172 47.8016 52.0173 47.8016 52.0174 47.8016C52.0175 47.8016 52.0175 47.8016 52.0176 47.8016C52.0177 47.8016 52.0178 47.8016 52.0178 47.8016C52.0179 47.8016 52.018 47.8016 52.018 47.8016C52.0181 47.8016 52.0182 47.8016 52.0183 47.8016C52.0183 47.8016 52.0184 47.8016 52.0185 47.8016C52.0186 47.8016 52.0186 47.8016 52.0187 47.8016C52.0188 47.8016 52.0188 47.8016 52.0189 47.8016C52.019 47.8016 52.0191 47.8016 52.0191 47.8016C52.0192 47.8016 52.0193 47.8016 52.0193 47.8016C52.0194 47.8016 52.0195 47.8016 52.0196 47.8016C52.0196 47.8016 52.0197 47.8016 52.0198 47.8016C52.0199 47.8016 52.0199 47.8016 52.02 47.8016C52.0201 47.8016 52.0201 47.8016 52.0202 47.8016C52.0203 47.8016 52.0204 47.8016 52.0204 47.8016C52.0205 47.8016 52.0206 47.8016 52.0206 47.8016C52.0207 47.8016 52.0208 47.8016 52.0209 47.8016C52.0209 47.8016 52.021 47.8016 52.0211 47.8016C52.0211 47.8016 52.0212 47.8016 52.0213 47.8016C52.0214 47.8016 52.0214 47.8016 52.0215 47.8016C52.0216 47.8016 52.0216 47.8016 52.0217 47.8016C52.0218 47.8016 52.0219 47.8016 52.0219 47.8016C52.022 47.8016 52.0221 47.8016 52.0221 47.8016C52.0222 47.8016 52.0223 47.8016 52.0224 47.8016C52.0224 47.8016 52.0225 47.8016 52.0226 47.8016C52.0226 47.8016 52.0227 47.8016 52.0228 47.8016C52.0228 47.8016 52.0229 47.8016 52.023 47.8016C52.0231 47.8016 52.0231 47.8016 52.0232 47.8016C52.0233 47.8016 52.0233 47.8016 52.0234 47.8016C52.0235 47.8016 52.0236 47.8016 52.0236 47.8016C52.0237 47.8016 52.0238 47.8016 52.0238 47.8016C52.0239 47.8016 52.024 47.8016 52.024 47.8016C52.0241 47.8016 52.0242 47.8016 52.0243 47.8016C52.0243 47.8016 52.0244 47.8016 52.0245 47.8016C52.0245 47.8016 52.0246 47.8016 52.0247 47.8016C52.0247 47.8016 52.0248 47.8016 52.0249 47.8016C52.025 47.8016 52.025 47.8016 52.0251 47.8016C52.0252 47.8016 52.0252 47.8016 52.0253 47.8016C52.0254 47.8016 52.0254 47.8016 52.0255 47.8016C52.0256 47.8016 52.0257 47.8016 52.0257 47.8016C52.0258 47.8016 52.0259 47.8016 52.0259 47.8016C52.026 47.8016 52.0261 47.8016 52.0261 47.8016C52.0262 47.8016 52.0263 47.8016 52.0263 47.8016C52.0264 47.8016 52.0265 47.8016 52.0266 47.8016C52.0266 47.8016 52.0267 47.8016 52.0268 47.8016C52.0268 47.8016 52.0269 47.8016 52.027 47.8016C52.027 47.8016 52.0271 47.8016 52.0272 47.8016C52.0272 47.8016 52.0273 47.8016 52.0274 47.8016C52.0275 47.8016 52.0275 47.8016 52.0276 47.8016C52.0277 47.8016 52.0277 47.8016 52.0278 47.8016C52.0279 47.8016 52.0279 47.8016 52.028 47.8016C52.0281 47.8016 52.0281 47.8016 52.0282 47.8016C52.0283 47.8016 52.0283 47.8016 52.0284 47.8016C52.0285 47.8016 52.0285 47.8016 52.0286 47.8016C52.0287 47.8016 52.0288 47.8016 52.0288 47.8016C52.0289 47.8016 52.029 47.8016 52.029 47.8016C52.0291 47.8016 52.0292 47.8016 52.0292 47.8016C52.0293 47.8016 52.0294 47.8016 52.0294 47.8016C52.0295 47.8016 52.0296 47.8016 52.0296 47.8016C52.0297 47.8016 52.0298 47.8016 52.0298 47.8016C52.0299 47.8016 52.03 47.8016 52.03 47.8016C52.0301 47.8016 52.0302 47.8016 52.0302 47.8016C52.0303 47.8016 52.0304 47.8016 52.0304 47.8016C52.0305 47.8016 52.0306 47.8016 52.0306 47.8016C52.0307 47.8016 52.0308 47.8016 52.0308 47.8016C52.0309 47.8016 52.031 47.8016 52.031 47.8016C52.0311 47.8016 52.0312 47.8016 52.0312 47.8016C52.0313 47.8016 52.0314 47.8016 52.0314 47.8016C52.0315 47.8016 52.0316 47.8016 52.0317 47.8016C52.0317 47.8016 52.0318 47.8016 52.0319 47.8016C52.0319 47.8016 52.032 47.8016 52.0321 47.8016C52.0321 47.8016 52.0322 47.8016 52.0322 47.8016C52.0323 47.8016 52.0324 47.8016 52.0324 47.8016C52.0325 47.8016 52.0326 47.8016 52.0326 47.8016C52.0327 47.8016 52.0328 47.8016 52.0328 47.8016C52.0329 47.8016 52.033 47.8016 52.033 47.8016C52.0331 47.8016 52.0332 47.8016 52.0332 47.8016C52.0333 47.8016 52.0334 47.8016 52.0334 47.8016C52.0335 47.8016 52.0336 47.8016 52.0336 47.8016C52.0337 47.8016 52.0338 47.8016 52.0338 47.8016C52.0339 47.8016 52.034 47.8016 52.034 47.8016C52.0341 47.8016 52.0342 47.8016 52.0342 47.8016C52.0343 47.8016 52.0344 47.8016 52.0344 47.8016C52.0345 47.8016 52.0346 47.8016 52.0346 47.8016C52.0347 47.8016 52.0347 47.8016 52.0348 47.8016C52.0349 47.8016 52.0349 47.8016 52.035 47.8016C52.0351 47.8016 52.0351 47.8016 52.0352 47.8016C52.0353 47.8016 52.0353 47.8016 52.0354 47.8016C52.0355 47.8016 52.0355 47.8016 52.0356 47.8016C52.0357 47.8016 52.0357 47.8016 52.0358 47.8016C52.0359 47.8016 52.0359 47.8016 52.036 47.8016C52.036 47.8016 52.0361 47.8016 52.0362 47.8016C52.0362 47.8016 52.0363 47.8016 52.0364 47.8016C52.0364 47.8016 52.0365 47.8016 52.0366 47.8016C52.0366 47.8016 52.0367 47.8016 52.0368 47.8016C52.0368 47.8016 52.0369 47.8016 52.0369 47.8016C52.037 47.8016 52.0371 47.8016 52.0371 47.8016C52.0372 47.8016 52.0373 47.8016 52.0373 47.8016C52.0374 47.8016 52.0375 47.8016 52.0375 47.8016C52.0376 47.8016 52.0376 47.8016 52.0377 47.8016C52.0378 47.8016 52.0378 47.8016 52.0379 47.8016C52.038 47.8016 52.038 47.8016 52.0381 47.8016C52.0382 47.8016 52.0382 47.8016 52.0383 47.8016C52.0383 47.8016 52.0384 47.8016 52.0385 47.8016C52.0385 47.8016 52.0386 47.8016 52.0387 47.8016C52.0387 47.8016 52.0388 47.8016 52.0388 47.8016C52.0389 47.8016 52.039 47.8016 52.039 47.8016C52.0391 47.8016 52.0392 47.8016 52.0392 47.8016C52.0393 47.8016 52.0394 47.8016 52.0394 47.8016C52.0395 47.8016 52.0395 47.8016 52.0396 47.8016C52.0397 47.8016 52.0397 47.8016 52.0398 47.8016C52.0398 47.8016 52.0399 47.8016 52.04 47.8016C52.04 47.8016 52.0401 47.8016 52.0402 47.8016C52.0402 47.8016 52.0403 47.8016 52.0403 47.8016C52.0404 47.8016 52.0405 47.8016 52.0405 47.8016C52.0406 47.8016 52.0407 47.8016 52.0407 47.8016C52.0408 47.8016 52.0408 47.8016 52.0409 47.8016C52.041 47.8016 52.041 47.8016 52.0411 47.8016C52.0412 47.8016 52.0412 47.8016 52.0413 47.8016C52.0413 47.8016 52.0414 47.8016 52.0415 47.8016C52.0415 47.8016 52.0416 47.8016 52.0416 47.8016C52.0417 47.8016 52.0418 47.8016 52.0418 47.8016C52.0419 47.8016 52.0419 47.8016 52.042 47.8016C52.0421 47.8016 52.0421 47.8016 52.0422 47.8016C52.0423 47.8016 52.0423 47.8016 52.0424 47.8016C52.0424 47.8016 52.0425 47.8016 52.0426 47.8016C52.0426 47.8016 52.0427 47.8016 52.0427 47.8016C52.0428 47.8016 52.0429 47.8016 52.0429 47.8016C52.043 47.8016 52.043 47.8016 52.0431 47.8016C52.0432 47.8016 52.0432 47.8016 52.0433 47.8016C52.0433 47.8016 52.0434 47.8016 52.0435 47.8016C52.0435 47.8016 52.0436 47.8016 52.0436 47.8016C52.0437 47.8016 52.0438 47.8016 52.0438 47.8016C52.0439 47.8016 52.0439 47.8016 52.044 47.8016C52.0441 47.8016 52.0441 47.8016 52.0442 47.8016C52.0442 47.8016 52.0443 47.8016 52.0444 47.8016C52.0444 47.8016 52.0445 47.8016 52.0445 47.8016C52.0446 47.8016 52.0447 47.8016 52.0447 47.8016C52.0448 47.8016 52.0448 47.8016 52.0449 47.8016C52.045 47.8016 52.045 47.8016 52.0451 47.8016C52.0451 47.8016 52.0452 47.8016 52.0452 47.8016C52.0453 47.8016 52.0454 47.8016 52.0454 47.8016C52.0455 47.8016 52.0455 47.8016 52.0456 47.8016C52.0457 47.8016 52.0457 47.8016 52.0458 47.8016C52.0458 47.8016 52.0459 47.8016 52.046 47.8016C52.046 47.8016 52.0461 47.8016 52.0461 47.8016C52.0462 47.8016 52.0462 47.8016 52.0463 47.8016C52.0464 47.8016 52.0464 47.8016 52.0465 47.8016C52.0465 47.8016 52.0466 47.8016 52.0467 47.8016C52.0467 47.8016 52.0468 47.8016 52.0468 47.8016C52.0469 47.8016 52.0469 47.8016 52.047 47.8016C52.0471 47.8016 52.0471 47.8016 52.0472 47.8016C52.0472 47.8016 52.0473 47.8016 52.0473 47.8016C52.0474 47.8016 52.0475 47.8016 52.0475 47.8016C52.0476 47.8016 52.0476 47.8016 52.0477 47.8016C52.0477 47.8016 52.0478 47.8016 52.0479 47.8016C52.0479 47.8016 52.048 47.8016 52.048 47.8016C52.0481 47.8016 52.0481 47.8016 52.0482 47.8016C52.0483 47.8016 52.0483 47.8016 52.0484 47.8016C52.0484 47.8016 52.0485 47.8016 52.0485 47.8016C52.0486 47.8016 52.0487 47.8016 52.0487 47.8016C52.0488 47.8016 52.0488 47.8016 52.0489 47.8016C52.0489 47.8016 52.049 47.8016 52.0491 47.8016C52.0491 47.8016 52.0492 47.8016 52.0492 47.8016C52.0493 47.8016 52.0493 47.8016 52.0494 47.8016C52.0494 47.8016 52.0495 47.8016 52.0496 47.8016C52.0496 47.8016 52.0497 47.8016 52.0497 47.8016C52.0498 47.8016 52.0498 47.8016 52.0499 47.8016C52.0499 47.8016 52.05 47.8016 52.0501 47.8016C52.0501 47.8016 52.0502 47.8016 52.0502 47.8016C52.0503 47.8016 52.0503 47.8016 52.0504 47.8016C52.0504 47.8016 52.0505 47.8016 52.0506 47.8016C52.0506 47.8016 52.0507 47.8016 52.0507 47.8016C52.0508 47.8016 52.0508 47.8016 52.0509 47.8016C52.0509 47.8016 52.051 47.8016 52.051 47.8016C52.0511 47.8016 52.0512 47.8016 52.0512 47.8016C52.0513 47.8016 52.0513 47.8016 52.0514 47.8016C52.0514 47.8016 52.0515 47.8016 52.0515 47.8016C52.0516 47.8016 52.0517 47.8016 52.0517 47.8016C52.0518 47.8016 52.0518 47.8016 52.0519 47.8016C52.0519 47.8016 52.052 47.8016 52.052 47.8016C52.0521 47.8016 52.0521 47.8016 52.0522 47.8016C52.0522 47.8016 52.0523 47.8016 52.0524 47.8016C52.0524 47.8016 52.0525 47.8016 52.0525 47.8016C52.0526 47.8016 52.0526 47.8016 52.0527 47.8016C52.0527 47.8016 52.0528 47.8016 52.0528 47.8016C52.0529 47.8016 52.0529 47.8016 52.053 47.8016C52.053 47.8016 52.0531 47.8016 52.0532 47.8016C52.0532 47.8016 52.0533 47.8016 52.0533 47.8016C52.0534 47.8016 52.0534 47.8016 52.0535 47.8016C52.0535 47.8016 52.0536 47.8016 52.0536 47.8016C52.0537 47.8016 52.0537 47.8016 52.0538 47.8016C52.0538 47.8016 52.0539 47.8016 52.0539 47.8016C52.054 47.8016 52.0541 47.8016 52.0541 47.8016C52.0542 47.8016 52.0542 47.8016 52.0543 47.8016C52.0543 47.8016 52.0544 47.8016 52.0544 47.8016C52.0545 47.8016 52.0545 47.8016 52.0546 47.8016C52.0546 47.8016 52.0547 47.8016 52.0547 47.8016C52.0548 47.8016 52.0548 47.8016 52.0549 47.8016C52.0549 47.8016 52.055 47.8016 52.055 47.8016C52.0551 47.8016 52.0551 47.8016 52.0552 47.8016C52.0552 47.8016 52.0553 47.8016 52.0553 47.8016V47.3016C52.0553 47.3016 52.0552 47.3016 52.0552 47.3016C52.0551 47.3016 52.0551 47.3016 52.055 47.3016C52.055 47.3016 52.0549 47.3016 52.0549 47.3016C52.0548 47.3016 52.0548 47.3016 52.0547 47.3016C52.0547 47.3016 52.0546 47.3016 52.0546 47.3016C52.0545 47.3016 52.0545 47.3016 52.0544 47.3016C52.0544 47.3016 52.0543 47.3016 52.0543 47.3016C52.0542 47.3016 52.0542 47.3016 52.0541 47.3016C52.0541 47.3016 52.054 47.3016 52.0539 47.3016C52.0539 47.3016 52.0538 47.3016 52.0538 47.3016C52.0537 47.3016 52.0537 47.3016 52.0536 47.3016C52.0536 47.3016 52.0535 47.3016 52.0535 47.3016C52.0534 47.3016 52.0534 47.3016 52.0533 47.3016C52.0533 47.3016 52.0532 47.3016 52.0532 47.3016C52.0531 47.3016 52.053 47.3016 52.053 47.3016C52.0529 47.3016 52.0529 47.3016 52.0528 47.3016C52.0528 47.3016 52.0527 47.3016 52.0527 47.3016C52.0526 47.3016 52.0526 47.3016 52.0525 47.3016C52.0525 47.3016 52.0524 47.3016 52.0524 47.3016C52.0523 47.3016 52.0522 47.3016 52.0522 47.3016C52.0521 47.3016 52.0521 47.3016 52.052 47.3016C52.052 47.3016 52.0519 47.3016 52.0519 47.3016C52.0518 47.3016 52.0518 47.3016 52.0517 47.3016C52.0517 47.3016 52.0516 47.3016 52.0515 47.3016C52.0515 47.3016 52.0514 47.3016 52.0514 47.3016C52.0513 47.3016 52.0513 47.3016 52.0512 47.3016C52.0512 47.3016 52.0511 47.3016 52.051 47.3016C52.051 47.3016 52.0509 47.3016 52.0509 47.3016C52.0508 47.3016 52.0508 47.3016 52.0507 47.3016C52.0507 47.3016 52.0506 47.3016 52.0506 47.3016C52.0505 47.3016 52.0504 47.3016 52.0504 47.3016C52.0503 47.3016 52.0503 47.3016 52.0502 47.3016C52.0502 47.3016 52.0501 47.3016 52.0501 47.3016C52.05 47.3016 52.0499 47.3016 52.0499 47.3016C52.0498 47.3016 52.0498 47.3016 52.0497 47.3016C52.0497 47.3016 52.0496 47.3016 52.0496 47.3016C52.0495 47.3016 52.0494 47.3016 52.0494 47.3016C52.0493 47.3016 52.0493 47.3016 52.0492 47.3016C52.0492 47.3016 52.0491 47.3016 52.0491 47.3016C52.049 47.3016 52.0489 47.3016 52.0489 47.3016C52.0488 47.3016 52.0488 47.3016 52.0487 47.3016C52.0487 47.3016 52.0486 47.3016 52.0485 47.3016C52.0485 47.3016 52.0484 47.3016 52.0484 47.3016C52.0483 47.3016 52.0483 47.3016 52.0482 47.3016C52.0481 47.3016 52.0481 47.3016 52.048 47.3016C52.048 47.3016 52.0479 47.3016 52.0479 47.3016C52.0478 47.3016 52.0477 47.3016 52.0477 47.3016C52.0476 47.3016 52.0476 47.3016 52.0475 47.3016C52.0475 47.3016 52.0474 47.3016 52.0473 47.3016C52.0473 47.3016 52.0472 47.3016 52.0472 47.3016C52.0471 47.3016 52.0471 47.3016 52.047 47.3016C52.0469 47.3016 52.0469 47.3016 52.0468 47.3016C52.0468 47.3016 52.0467 47.3016 52.0467 47.3016C52.0466 47.3016 52.0465 47.3016 52.0465 47.3016C52.0464 47.3016 52.0464 47.3016 52.0463 47.3016C52.0462 47.3016 52.0462 47.3016 52.0461 47.3016C52.0461 47.3016 52.046 47.3016 52.046 47.3016C52.0459 47.3016 52.0458 47.3016 52.0458 47.3016C52.0457 47.3016 52.0457 47.3016 52.0456 47.3016C52.0455 47.3016 52.0455 47.3016 52.0454 47.3016C52.0454 47.3016 52.0453 47.3016 52.0452 47.3016C52.0452 47.3016 52.0451 47.3016 52.0451 47.3016C52.045 47.3016 52.045 47.3016 52.0449 47.3016C52.0448 47.3016 52.0448 47.3016 52.0447 47.3016C52.0447 47.3016 52.0446 47.3016 52.0445 47.3016C52.0445 47.3016 52.0444 47.3016 52.0444 47.3016C52.0443 47.3016 52.0442 47.3016 52.0442 47.3016C52.0441 47.3016 52.0441 47.3016 52.044 47.3016C52.0439 47.3016 52.0439 47.3016 52.0438 47.3016C52.0438 47.3016 52.0437 47.3016 52.0436 47.3016C52.0436 47.3016 52.0435 47.3016 52.0435 47.3016C52.0434 47.3016 52.0433 47.3016 52.0433 47.3016C52.0432 47.3016 52.0432 47.3016 52.0431 47.3016C52.043 47.3016 52.043 47.3016 52.0429 47.3016C52.0429 47.3016 52.0428 47.3016 52.0427 47.3016C52.0427 47.3016 52.0426 47.3016 52.0426 47.3016C52.0425 47.3016 52.0424 47.3016 52.0424 47.3016C52.0423 47.3016 52.0423 47.3016 52.0422 47.3016C52.0421 47.3016 52.0421 47.3016 52.042 47.3016C52.0419 47.3016 52.0419 47.3016 52.0418 47.3016C52.0418 47.3016 52.0417 47.3016 52.0416 47.3016C52.0416 47.3016 52.0415 47.3016 52.0415 47.3016C52.0414 47.3016 52.0413 47.3016 52.0413 47.3016C52.0412 47.3016 52.0412 47.3016 52.0411 47.3016C52.041 47.3016 52.041 47.3016 52.0409 47.3016C52.0408 47.3016 52.0408 47.3016 52.0407 47.3016C52.0407 47.3016 52.0406 47.3016 52.0405 47.3016C52.0405 47.3016 52.0404 47.3016 52.0403 47.3016C52.0403 47.3016 52.0402 47.3016 52.0402 47.3016C52.0401 47.3016 52.04 47.3016 52.04 47.3016C52.0399 47.3016 52.0398 47.3016 52.0398 47.3016C52.0397 47.3016 52.0397 47.3016 52.0396 47.3016C52.0395 47.3016 52.0395 47.3016 52.0394 47.3016C52.0394 47.3016 52.0393 47.3016 52.0392 47.3016C52.0392 47.3016 52.0391 47.3016 52.039 47.3016C52.039 47.3016 52.0389 47.3016 52.0388 47.3016C52.0388 47.3016 52.0387 47.3016 52.0387 47.3016C52.0386 47.3016 52.0385 47.3016 52.0385 47.3016C52.0384 47.3016 52.0383 47.3016 52.0383 47.3016C52.0382 47.3016 52.0382 47.3016 52.0381 47.3016C52.038 47.3016 52.038 47.3016 52.0379 47.3016C52.0378 47.3016 52.0378 47.3016 52.0377 47.3016C52.0376 47.3016 52.0376 47.3016 52.0375 47.3016C52.0375 47.3016 52.0374 47.3016 52.0373 47.3016C52.0373 47.3016 52.0372 47.3016 52.0371 47.3016C52.0371 47.3016 52.037 47.3016 52.0369 47.3016C52.0369 47.3016 52.0368 47.3016 52.0368 47.3016C52.0367 47.3016 52.0366 47.3016 52.0366 47.3016C52.0365 47.3016 52.0364 47.3016 52.0364 47.3016C52.0363 47.3016 52.0362 47.3016 52.0362 47.3016C52.0361 47.3016 52.036 47.3016 52.036 47.3016C52.0359 47.3016 52.0359 47.3016 52.0358 47.3016C52.0357 47.3016 52.0357 47.3016 52.0356 47.3016C52.0355 47.3016 52.0355 47.3016 52.0354 47.3016C52.0353 47.3016 52.0353 47.3016 52.0352 47.3016C52.0351 47.3016 52.0351 47.3016 52.035 47.3016C52.0349 47.3016 52.0349 47.3016 52.0348 47.3016C52.0347 47.3016 52.0347 47.3016 52.0346 47.3016C52.0346 47.3016 52.0345 47.3016 52.0344 47.3016C52.0344 47.3016 52.0343 47.3016 52.0342 47.3016C52.0342 47.3016 52.0341 47.3016 52.034 47.3016C52.034 47.3016 52.0339 47.3016 52.0338 47.3016C52.0338 47.3016 52.0337 47.3016 52.0336 47.3016C52.0336 47.3016 52.0335 47.3016 52.0334 47.3016C52.0334 47.3016 52.0333 47.3016 52.0332 47.3016C52.0332 47.3016 52.0331 47.3016 52.033 47.3016C52.033 47.3016 52.0329 47.3016 52.0328 47.3016C52.0328 47.3016 52.0327 47.3016 52.0326 47.3016C52.0326 47.3016 52.0325 47.3016 52.0324 47.3016C52.0324 47.3016 52.0323 47.3016 52.0322 47.3016C52.0322 47.3016 52.0321 47.3016 52.0321 47.3016C52.032 47.3016 52.0319 47.3016 52.0319 47.3016C52.0318 47.3016 52.0317 47.3016 52.0317 47.3016C52.0316 47.3016 52.0315 47.3016 52.0314 47.3016C52.0314 47.3016 52.0313 47.3016 52.0312 47.3016C52.0312 47.3016 52.0311 47.3016 52.031 47.3016C52.031 47.3016 52.0309 47.3016 52.0308 47.3016C52.0308 47.3016 52.0307 47.3016 52.0306 47.3016C52.0306 47.3016 52.0305 47.3016 52.0304 47.3016C52.0304 47.3016 52.0303 47.3016 52.0302 47.3016C52.0302 47.3016 52.0301 47.3016 52.03 47.3016C52.03 47.3016 52.0299 47.3016 52.0298 47.3016C52.0298 47.3016 52.0297 47.3016 52.0296 47.3016C52.0296 47.3016 52.0295 47.3016 52.0294 47.3016C52.0294 47.3016 52.0293 47.3016 52.0292 47.3016C52.0292 47.3016 52.0291 47.3016 52.029 47.3016C52.029 47.3016 52.0289 47.3016 52.0288 47.3016C52.0288 47.3016 52.0287 47.3016 52.0286 47.3016C52.0285 47.3016 52.0285 47.3016 52.0284 47.3016C52.0283 47.3016 52.0283 47.3016 52.0282 47.3016C52.0281 47.3016 52.0281 47.3016 52.028 47.3016C52.0279 47.3016 52.0279 47.3016 52.0278 47.3016C52.0277 47.3016 52.0277 47.3016 52.0276 47.3016C52.0275 47.3016 52.0275 47.3016 52.0274 47.3016C52.0273 47.3016 52.0272 47.3016 52.0272 47.3016C52.0271 47.3016 52.027 47.3016 52.027 47.3016C52.0269 47.3016 52.0268 47.3016 52.0268 47.3016C52.0267 47.3016 52.0266 47.3016 52.0266 47.3016C52.0265 47.3016 52.0264 47.3016 52.0263 47.3016C52.0263 47.3016 52.0262 47.3016 52.0261 47.3016C52.0261 47.3016 52.026 47.3016 52.0259 47.3016C52.0259 47.3016 52.0258 47.3016 52.0257 47.3016C52.0257 47.3016 52.0256 47.3016 52.0255 47.3016C52.0254 47.3016 52.0254 47.3016 52.0253 47.3016C52.0252 47.3016 52.0252 47.3016 52.0251 47.3016C52.025 47.3016 52.025 47.3016 52.0249 47.3016C52.0248 47.3016 52.0247 47.3016 52.0247 47.3016C52.0246 47.3016 52.0245 47.3016 52.0245 47.3016C52.0244 47.3016 52.0243 47.3016 52.0243 47.3016C52.0242 47.3016 52.0241 47.3016 52.024 47.3016C52.024 47.3016 52.0239 47.3016 52.0238 47.3016C52.0238 47.3016 52.0237 47.3016 52.0236 47.3016C52.0236 47.3016 52.0235 47.3016 52.0234 47.3016C52.0233 47.3016 52.0233 47.3016 52.0232 47.3016C52.0231 47.3016 52.0231 47.3016 52.023 47.3016C52.0229 47.3016 52.0228 47.3016 52.0228 47.3016C52.0227 47.3016 52.0226 47.3016 52.0226 47.3016C52.0225 47.3016 52.0224 47.3016 52.0224 47.3016C52.0223 47.3016 52.0222 47.3016 52.0221 47.3016C52.0221 47.3016 52.022 47.3016 52.0219 47.3016C52.0219 47.3016 52.0218 47.3016 52.0217 47.3016C52.0216 47.3016 52.0216 47.3016 52.0215 47.3016C52.0214 47.3016 52.0214 47.3016 52.0213 47.3016C52.0212 47.3016 52.0211 47.3016 52.0211 47.3016C52.021 47.3016 52.0209 47.3016 52.0209 47.3016C52.0208 47.3016 52.0207 47.3016 52.0206 47.3016C52.0206 47.3016 52.0205 47.3016 52.0204 47.3016C52.0204 47.3016 52.0203 47.3016 52.0202 47.3016C52.0201 47.3016 52.0201 47.3016 52.02 47.3016C52.0199 47.3016 52.0199 47.3016 52.0198 47.3016C52.0197 47.3016 52.0196 47.3016 52.0196 47.3016C52.0195 47.3016 52.0194 47.3016 52.0193 47.3016C52.0193 47.3016 52.0192 47.3016 52.0191 47.3016C52.0191 47.3016 52.019 47.3016 52.0189 47.3016C52.0188 47.3016 52.0188 47.3016 52.0187 47.3016C52.0186 47.3016 52.0186 47.3016 52.0185 47.3016C52.0184 47.3016 52.0183 47.3016 52.0183 47.3016C52.0182 47.3016 52.0181 47.3016 52.018 47.3016C52.018 47.3016 52.0179 47.3016 52.0178 47.3016C52.0178 47.3016 52.0177 47.3016 52.0176 47.3016C52.0175 47.3016 52.0175 47.3016 52.0174 47.3016C52.0173 47.3016 52.0172 47.3016 52.0172 47.3016C52.0171 47.3016 52.017 47.3016 52.017 47.3016C52.0169 47.3016 52.0168 47.3016 52.0167 47.3016C52.0167 47.3016 52.0166 47.3016 52.0165 47.3016C52.0164 47.3016 52.0164 47.3016 52.0163 47.3016C52.0162 47.3016 52.0161 47.3016 52.0161 47.3016C52.016 47.3016 52.0159 47.3016 52.0159 47.3016C52.0158 47.3016 52.0157 47.3016 52.0156 47.3016C52.0156 47.3016 52.0155 47.3016 52.0154 47.3016C52.0153 47.3016 52.0153 47.3016 52.0152 47.3016C52.0151 47.3016 52.015 47.3016 52.015 47.3016C52.0149 47.3016 52.0148 47.3016 52.0148 47.3016C52.0147 47.3016 52.0146 47.3016 52.0145 47.3016C52.0145 47.3016 52.0144 47.3016 52.0143 47.3016C52.0142 47.3016 52.0142 47.3016 52.0141 47.3016C52.014 47.3016 52.0139 47.3016 52.0139 47.3016C52.0138 47.3016 52.0137 47.3016 52.0136 47.3016C52.0136 47.3016 52.0135 47.3016 52.0134 47.3016C52.0133 47.3016 52.0133 47.3016 52.0132 47.3016C52.0131 47.3016 52.013 47.3016 52.013 47.3016C52.0129 47.3016 52.0128 47.3016 52.0128 47.3016C52.0127 47.3016 52.0126 47.3016 52.0125 47.3016C52.0125 47.3016 52.0124 47.3016 52.0123 47.3016C52.0122 47.3016 52.0122 47.3016 52.0121 47.3016C52.012 47.3016 52.0119 47.3016 52.0119 47.3016C52.0118 47.3016 52.0117 47.3016 52.0116 47.3016C52.0116 47.3016 52.0115 47.3016 52.0114 47.3016C52.0113 47.3016 52.0113 47.3016 52.0112 47.3016C52.0111 47.3016 52.011 47.3016 52.011 47.3016C52.0109 47.3016 52.0108 47.3016 52.0107 47.3016C52.0107 47.3016 52.0106 47.3016 52.0105 47.3016C52.0104 47.3016 52.0104 47.3016 52.0103 47.3016C52.0102 47.3016 52.0101 47.3016 52.0101 47.3016C52.01 47.3016 52.0099 47.3016 52.0098 47.3016C52.0098 47.3016 52.0097 47.3016 52.0096 47.3016C52.0095 47.3016 52.0094 47.3016 52.0094 47.3016C52.0093 47.3016 52.0092 47.3016 52.0091 47.3016C52.0091 47.3016 52.009 47.3016 52.0089 47.3016C52.0088 47.3016 52.0088 47.3016 52.0087 47.3016C52.0086 47.3016 52.0085 47.3016 52.0085 47.3016C52.0084 47.3016 52.0083 47.3016 52.0082 47.3016C52.0082 47.3016 52.0081 47.3016 52.008 47.3016C52.0079 47.3016 52.0079 47.3016 52.0078 47.3016C52.0077 47.3016 52.0076 47.3016 52.0076 47.3016C52.0075 47.3016 52.0074 47.3016 52.0073 47.3016C52.0072 47.3016 52.0072 47.3016 52.0071 47.3016C52.007 47.3016 52.0069 47.3016 52.0069 47.3016C52.0068 47.3016 52.0067 47.3016 52.0066 47.3016C52.0066 47.3016 52.0065 47.3016 52.0064 47.3016C52.0063 47.3016 52.0063 47.3016 52.0062 47.3016C52.0061 47.3016 52.006 47.3016 52.0059 47.3016C52.0059 47.3016 52.0058 47.3016 52.0057 47.3016C52.0056 47.3016 52.0056 47.3016 52.0055 47.3016C52.0054 47.3016 52.0053 47.3016 52.0053 47.3016C52.0052 47.3016 52.0051 47.3016 52.005 47.3016C52.0049 47.3016 52.0049 47.3016 52.0048 47.3016C52.0047 47.3016 52.0046 47.3016 52.0046 47.3016C52.0045 47.3016 52.0044 47.3016 52.0043 47.3016C52.0043 47.3016 52.0042 47.3016 52.0041 47.3016C52.004 47.3016 52.0039 47.3016 52.0039 47.3016C52.0038 47.3016 52.0037 47.3016 52.0036 47.3016C52.0036 47.3016 52.0035 47.3016 52.0034 47.3016C52.0033 47.3016 52.0033 47.3016 52.0032 47.3016C52.0031 47.3016 52.003 47.3016 52.0029 47.3016C52.0029 47.3016 52.0028 47.3016 52.0027 47.3016C52.0026 47.3016 52.0026 47.3016 52.0025 47.3016C52.0024 47.3016 52.0023 47.3016 52.0022 47.3016C52.0022 47.3016 52.0021 47.3016 52.002 47.3016C52.0019 47.3016 52.0019 47.3016 52.0018 47.3016C52.0017 47.3016 52.0016 47.3016 52.0015 47.3016C52.0015 47.3016 52.0014 47.3016 52.0013 47.3016C52.0012 47.3016 52.0012 47.3016 52.0011 47.3016C52.001 47.3016 52.0009 47.3016 52.0008 47.3016C52.0008 47.3016 52.0007 47.3016 52.0006 47.3016C52.0005 47.3016 52.0004 47.3016 52.0004 47.3016C52.0003 47.3016 52.0002 47.3016 52.0001 47.3016C52.0001 47.3016 52 47.3016 51.9999 47.3016C51.9998 47.3016 51.9997 47.3016 51.9997 47.3016C51.9996 47.3016 51.9995 47.3016 51.9994 47.3016C51.9994 47.3016 51.9993 47.3016 51.9992 47.3016C51.9991 47.3016 51.999 47.3016 51.999 47.3016C51.9989 47.3016 51.9988 47.3016 51.9987 47.3016C51.9986 47.3016 51.9986 47.3016 51.9985 47.3016C51.9984 47.3016 51.9983 47.3016 51.9983 47.3016C51.9982 47.3016 51.9981 47.3016 51.998 47.3016C51.9979 47.3016 51.9979 47.3016 51.9978 47.3016C51.9977 47.3016 51.9976 47.3016 51.9975 47.3016C51.9975 47.3016 51.9974 47.3016 51.9973 47.3016C51.9972 47.3016 51.9971 47.3016 51.9971 47.3016C51.997 47.3016 51.9969 47.3016 51.9968 47.3016C51.9968 47.3016 51.9967 47.3016 51.9966 47.3016C51.9965 47.3016 51.9964 47.3016 51.9964 47.3016C51.9963 47.3016 51.9962 47.3016 51.9961 47.3016C51.996 47.3016 51.996 47.3016 51.9959 47.3016C51.9958 47.3016 51.9957 47.3016 51.9956 47.3016C51.9956 47.3016 51.9955 47.3016 51.9954 47.3016C51.9953 47.3016 51.9952 47.3016 51.9952 47.3016C51.9951 47.3016 51.995 47.3016 51.9949 47.3016C51.9948 47.3016 51.9948 47.3016 51.9947 47.3016C51.9946 47.3016 51.9945 47.3016 51.9945 47.3016C51.9944 47.3016 51.9943 47.3016 51.9942 47.3016C51.9941 47.3016 51.9941 47.3016 51.994 47.3016C51.9939 47.3016 51.9938 47.3016 51.9937 47.3016C51.9937 47.3016 51.9936 47.3016 51.9935 47.3016C51.9934 47.3016 51.9933 47.3016 51.9933 47.3016C51.9932 47.3016 51.9931 47.3016 51.993 47.3016C51.9929 47.3016 51.9929 47.3016 51.9928 47.3016C51.9927 47.3016 51.9926 47.3016 51.9925 47.3016C51.9925 47.3016 51.9924 47.3016 51.9923 47.3016C51.9922 47.3016 51.9921 47.3016 51.9921 47.3016C51.992 47.3016 51.9919 47.3016 51.9918 47.3016C51.9917 47.3016 51.9917 47.3016 51.9916 47.3016C51.9915 47.3016 51.9914 47.3016 51.9913 47.3016C51.9912 47.3016 51.9912 47.3016 51.9911 47.3016C51.991 47.3016 51.9909 47.3016 51.9908 47.3016C51.9908 47.3016 51.9907 47.3016 51.9906 47.3016C51.9905 47.3016 51.9904 47.3016 51.9904 47.3016C51.9903 47.3016 51.9902 47.3016 51.9901 47.3016C51.99 47.3016 51.99 47.3016 51.9899 47.3016C51.9898 47.3016 51.9897 47.3016 51.9896 47.3016C51.9896 47.3016 51.9895 47.3016 51.9894 47.3016C51.9893 47.3016 51.9892 47.3016 51.9892 47.3016C51.9891 47.3016 51.989 47.3016 51.9889 47.3016C51.9888 47.3016 51.9887 47.3016 51.9887 47.3016C51.9886 47.3016 51.9885 47.3016 51.9884 47.3016C51.9883 47.3016 51.9883 47.3016 51.9882 47.3016C51.9881 47.3016 51.988 47.3016 51.9879 47.3016C51.9879 47.3016 51.9878 47.3016 51.9877 47.3016C51.9876 47.3016 51.9875 47.3016 51.9875 47.3016C51.9874 47.3016 51.9873 47.3016 51.9872 47.3016C51.9871 47.3016 51.987 47.3016 51.987 47.3016C51.9869 47.3016 51.9868 47.3016 51.9867 47.3016C51.9866 47.3016 51.9866 47.3016 51.9865 47.3016C51.9864 47.3016 51.9863 47.3016 51.9862 47.3016C51.9862 47.3016 51.9861 47.3016 51.986 47.3016C51.9859 47.3016 51.9858 47.3016 51.9857 47.3016C51.9857 47.3016 51.9856 47.3016 51.9855 47.3016C51.9854 47.3016 51.9853 47.3016 51.9853 47.3016C51.9852 47.3016 51.9851 47.3016 51.985 47.3016C51.9849 47.3016 51.9848 47.3016 51.9848 47.3016C51.9847 47.3016 51.9846 47.3016 51.9845 47.3016C51.9844 47.3016 51.9844 47.3016 51.9843 47.3016C51.9842 47.3016 51.9841 47.3016 51.984 47.3016C51.984 47.3016 51.9839 47.3016 51.9838 47.3016C51.9837 47.3016 51.9836 47.3016 51.9835 47.3016C51.9835 47.3016 51.9834 47.3016 51.9833 47.3016C51.9832 47.3016 51.9831 47.3016 51.983 47.3016C51.983 47.3016 51.9829 47.3016 51.9828 47.3016C51.9827 47.3016 51.9826 47.3016 51.9826 47.3016C51.9825 47.3016 51.9824 47.3016 51.9823 47.3016C51.9822 47.3016 51.9821 47.3016 51.9821 47.3016C51.982 47.3016 51.9819 47.3016 51.9818 47.3016C51.9817 47.3016 51.9817 47.3016 51.9816 47.3016C51.9815 47.3016 51.9814 47.3016 51.9813 47.3016C51.9812 47.3016 51.9812 47.3016 51.9811 47.3016C51.981 47.3016 51.9809 47.3016 51.9808 47.3016C51.9807 47.3016 51.9807 47.3016 51.9806 47.3016C51.9805 47.3016 51.9804 47.3016 51.9803 47.3016C51.9803 47.3016 51.9802 47.3016 51.9801 47.3016C51.98 47.3016 51.9799 47.3016 51.9798 47.3016C51.9798 47.3016 51.9797 47.3016 51.9796 47.3016C51.9795 47.3016 51.9794 47.3016 51.9793 47.3016C51.9793 47.3016 51.9792 47.3016 51.9791 47.3016C51.979 47.3016 51.9789 47.3016 51.9789 47.3016C51.9788 47.3016 51.9787 47.3016 51.9786 47.3016C51.9785 47.3016 51.9784 47.3016 51.9784 47.3016C51.9783 47.3016 51.9782 47.3016 51.9781 47.3016C51.978 47.3016 51.9779 47.3016 51.9779 47.3016C51.9778 47.3016 51.9777 47.3016 51.9776 47.3016C51.9775 47.3016 51.9774 47.3016 51.9774 47.3016C51.9773 47.3016 51.9772 47.3016 51.9771 47.3016C51.977 47.3016 51.9769 47.3016 51.9769 47.3016C51.9768 47.3016 51.9767 47.3016 51.9766 47.3016C51.9765 47.3016 51.9764 47.3016 51.9764 47.3016C51.9763 47.3016 51.9762 47.3016 51.9761 47.3016C51.976 47.3016 51.976 47.3016 51.9759 47.3016C51.9758 47.3016 51.9757 47.3016 51.9756 47.3016C51.9755 47.3016 51.9755 47.3016 51.9754 47.3016C51.9753 47.3016 51.9752 47.3016 51.9751 47.3016C51.975 47.3016 51.975 47.3016 51.9749 47.3016C51.9748 47.3016 51.9747 47.3016 51.9746 47.3016C51.9745 47.3016 51.9745 47.3016 51.9744 47.3016C51.9743 47.3016 51.9742 47.3016 51.9741 47.3016C51.974 47.3016 51.974 47.3016 51.9739 47.3016C51.9738 47.3016 51.9737 47.3016 51.9736 47.3016C51.9735 47.3016 51.9735 47.3016 51.9734 47.3016C51.9733 47.3016 51.9732 47.3016 51.9731 47.3016C51.973 47.3016 51.973 47.3016 51.9729 47.3016C51.9728 47.3016 51.9727 47.3016 51.9726 47.3016C51.9725 47.3016 51.9725 47.3016 51.9724 47.3016C51.9723 47.3016 51.9722 47.3016 51.9721 47.3016C51.972 47.3016 51.972 47.3016 51.9719 47.3016C51.9718 47.3016 51.9717 47.3016 51.9716 47.3016C51.9715 47.3016 51.9714 47.3016 51.9714 47.3016C51.9713 47.3016 51.9712 47.3016 51.9711 47.3016C51.971 47.3016 51.9709 47.3016 51.9709 47.3016C51.9708 47.3016 51.9707 47.3016 51.9706 47.3016C51.9705 47.3016 51.9704 47.3016 51.9704 47.3016C51.9703 47.3016 51.9702 47.3016 51.9701 47.3016C51.97 47.3016 51.9699 47.3016 51.9699 47.3016C51.9698 47.3016 51.9697 47.3016 51.9696 47.3016C51.9695 47.3016 51.9694 47.3016 51.9694 47.3016C51.9693 47.3016 51.9692 47.3016 51.9691 47.3016C51.969 47.3016 51.9689 47.3016 51.9689 47.3016C51.9688 47.3016 51.9687 47.3016 51.9686 47.3016C51.9685 47.3016 51.9684 47.3016 51.9683 47.3016C51.9683 47.3016 51.9682 47.3016 51.9681 47.3016C51.968 47.3016 51.9679 47.3016 51.9678 47.3016C51.9678 47.3016 51.9677 47.3016 51.9676 47.3016C51.9675 47.3016 51.9674 47.3016 51.9673 47.3016C51.9673 47.3016 51.9672 47.3016 51.9671 47.3016C51.967 47.3016 51.9669 47.3016 51.9668 47.3016C51.9667 47.3016 51.9667 47.3016 51.9666 47.3016C51.9665 47.3016 51.9664 47.3016 51.9663 47.3016C51.9662 47.3016 51.9662 47.3016 51.9661 47.3016C51.966 47.3016 51.9659 47.3016 51.9658 47.3016C51.9657 47.3016 51.9657 47.3016 51.9656 47.3016C51.9655 47.3016 51.9654 47.3016 51.9653 47.3016C51.9652 47.3016 51.9651 47.3016 51.9651 47.3016C51.965 47.3016 51.9649 47.3016 51.9648 47.3016C51.9647 47.3016 51.9646 47.3016 51.9646 47.3016C51.9645 47.3016 51.9644 47.3016 51.9643 47.3016C51.9642 47.3016 51.9641 47.3016 51.964 47.3016C51.964 47.3016 51.9639 47.3016 51.9638 47.3016C51.9637 47.3016 51.9636 47.3016 51.9635 47.3016C51.9635 47.3016 51.9634 47.3016 51.9633 47.3016C51.9632 47.3016 51.9631 47.3016 51.963 47.3016C51.963 47.3016 51.9629 47.3016 51.9628 47.3016C51.9627 47.3016 51.9626 47.3016 51.9625 47.3016C51.9624 47.3016 51.9624 47.3016 51.9623 47.3016C51.9622 47.3016 51.9621 47.3016 51.962 47.3016C51.9619 47.3016 51.9619 47.3016 51.9618 47.3016C51.9617 47.3016 51.9616 47.3016 51.9615 47.3016C51.9614 47.3016 51.9613 47.3016 51.9613 47.3016C51.9612 47.3016 51.9611 47.3016 51.961 47.3016C51.9609 47.3016 51.9608 47.3016 51.9608 47.3016C51.9607 47.3016 51.9606 47.3016 51.9605 47.3016C51.9604 47.3016 51.9603 47.3016 51.9602 47.3016C51.9602 47.3016 51.9601 47.3016 51.96 47.3016C51.9599 47.3016 51.9598 47.3016 51.9597 47.3016C51.9596 47.3016 51.9596 47.3016 51.9595 47.3016C51.9594 47.3016 51.9593 47.3016 51.9592 47.3016C51.9591 47.3016 51.9591 47.3016 51.959 47.3016C51.9589 47.3016 51.9588 47.3016 51.9587 47.3016C51.9586 47.3016 51.9585 47.3016 51.9585 47.3016C51.9584 47.3016 51.9583 47.3016 51.9582 47.3016C51.9581 47.3016 51.958 47.3016 51.958 47.3016C51.9579 47.3016 51.9578 47.3016 51.9577 47.3016C51.9576 47.3016 51.9575 47.3016 51.9574 47.3016C51.9574 47.3016 51.9573 47.3016 51.9572 47.3016C51.9571 47.3016 51.957 47.3016 51.9569 47.3016C51.9568 47.3016 51.9568 47.3016 51.9567 47.3016C51.9566 47.3016 51.9565 47.3016 51.9564 47.3016C51.9563 47.3016 51.9563 47.3016 51.9562 47.3016C51.9561 47.3016 51.956 47.3016 51.9559 47.3016C51.9558 47.3016 51.9557 47.3016 51.9557 47.3016C51.9556 47.3016 51.9555 47.3016 51.9554 47.3016C51.9553 47.3016 51.9552 47.3016 51.9551 47.3016C51.9551 47.3016 51.955 47.3016 51.9549 47.3016C51.9548 47.3016 51.9547 47.3016 51.9546 47.3016C51.9545 47.3016 51.9545 47.3016 51.9544 47.3016C51.9543 47.3016 51.9542 47.3016 51.9541 47.3016C51.954 47.3016 51.954 47.3016 51.9539 47.3016C51.9538 47.3016 51.9537 47.3016 51.9536 47.3016C51.9535 47.3016 51.9534 47.3016 51.9534 47.3016C51.9533 47.3016 51.9532 47.3016 51.9531 47.3016C51.953 47.3016 51.9529 47.3016 51.9528 47.3016C51.9528 47.3016 51.9527 47.3016 51.9526 47.3016C51.9525 47.3016 51.9524 47.3016 51.9523 47.3016C51.9522 47.3016 51.9522 47.3016 51.9521 47.3016C51.952 47.3016 51.9519 47.3016 51.9518 47.3016C51.9517 47.3016 51.9517 47.3016 51.9516 47.3016C51.9515 47.3016 51.9514 47.3016 51.9513 47.3016C51.9512 47.3016 51.9511 47.3016 51.9511 47.3016C51.951 47.3016 51.9509 47.3016 51.9508 47.3016C51.9507 47.3016 51.9506 47.3016 51.9505 47.3016C51.9505 47.3016 51.9504 47.3016 51.9503 47.3016C51.9502 47.3016 51.9501 47.3016 51.95 47.3016C51.9499 47.3016 51.9499 47.3016 51.9498 47.3016C51.9497 47.3016 51.9496 47.3016 51.9495 47.3016C51.9494 47.3016 51.9493 47.3016 51.9493 47.3016C51.9492 47.3016 51.9491 47.3016 51.949 47.3016C51.9489 47.3016 51.9488 47.3016 51.9488 47.3016C51.9487 47.3016 51.9486 47.3016 51.9485 47.3016C51.9484 47.3016 51.9483 47.3016 51.9482 47.3016C51.9482 47.3016 51.9481 47.3016 51.948 47.3016C51.9479 47.3016 51.9478 47.3016 51.9477 47.3016C51.9476 47.3016 51.9476 47.3016 51.9475 47.3016C51.9474 47.3016 51.9473 47.3016 51.9472 47.3016C51.9471 47.3016 51.947 47.3016 51.947 47.3016C51.9469 47.3016 51.9468 47.3016 51.9467 47.3016C51.9466 47.3016 51.9465 47.3016 51.9464 47.3016C51.9464 47.3016 51.9463 47.3016 51.9462 47.3016C51.9461 47.3016 51.946 47.3016 51.9459 47.3016C51.9458 47.3016 51.9458 47.3016 51.9457 47.3016C51.9456 47.3016 51.9455 47.3016 51.9454 47.3016C51.9453 47.3016 51.9453 47.3016 51.9452 47.3016C51.9451 47.3016 51.945 47.3016 51.9449 47.3016C51.9448 47.3016 51.9447 47.3016 51.9447 47.3016C51.9446 47.3016 51.9445 47.3016 51.9444 47.3016C51.9443 47.3016 51.9442 47.3016 51.9441 47.3016C51.9441 47.3016 51.944 47.3016 51.9439 47.3016C51.9438 47.3016 51.9437 47.3016 51.9436 47.3016C51.9435 47.3016 51.9435 47.3016 51.9434 47.3016C51.9433 47.3016 51.9432 47.3016 51.9431 47.3016C51.943 47.3016 51.9429 47.3016 51.9429 47.3016C51.9428 47.3016 51.9427 47.3016 51.9426 47.3016C51.9425 47.3016 51.9424 47.3016 51.9423 47.3016C51.9423 47.3016 51.9422 47.3016 51.9421 47.3016C51.942 47.3016 51.9419 47.3016 51.9418 47.3016C51.9417 47.3016 51.9417 47.3016 51.9416 47.3016V47.8016ZM52.0553 47.8016H52.1429V47.3016H52.0553V47.8016ZM51.9193 47.6634L51.9718 47.7684L52.419 47.5448L52.3665 47.4398L51.9193 47.6634ZM51.9656 47.7551C51.958 47.7374 51.955 47.7139 51.9605 47.6901C51.9657 47.6678 51.9762 47.6535 51.9836 47.6461L52.3371 47.9997C52.4425 47.8943 52.4973 47.7265 52.4252 47.5581L51.9656 47.7551ZM51.9785 47.6513L51.6197 48.0315L51.9834 48.3747L52.3422 47.9945L51.9785 47.6513ZM51.9742 48.0223L51.7816 47.8385L51.4364 48.2002L51.6289 48.384L51.9742 48.0223ZM51.7876 48.1943L51.9801 47.9979L51.623 47.6479L51.4305 47.8444L51.7876 48.1943ZM51.8112 47.5731C51.5958 47.5648 51.3272 47.5317 51.0993 47.4288L50.8935 47.8844C51.2082 48.0266 51.5522 48.0635 51.7919 48.0727L51.8112 47.5731ZM51.1039 47.4309C50.9414 47.3535 50.8197 47.2697 50.7128 47.178L50.3874 47.5576C50.5255 47.676 50.6839 47.7847 50.8889 47.8823L51.1039 47.4309ZM50.7197 47.1841C50.1491 46.6575 48.2385 44.8689 47.6394 44.3139L47.2996 44.6807C47.8908 45.2284 49.8133 47.0279 50.3805 47.5515L50.7197 47.1841ZM47.6463 44.3205C47.52 44.1942 47.4374 44.0591 47.407 43.9256L46.9195 44.0364C46.9766 44.2879 47.1216 44.5029 47.2928 44.6741L47.6463 44.3205ZM47.4051 43.9179C47.3587 43.7399 47.3424 43.5663 47.334 43.4237L46.8349 43.453C46.844 43.608 46.8627 43.8194 46.9213 44.0441L47.4051 43.9179ZM46.9021 43.2674L45.5481 44.7114L45.9128 45.0534L47.2668 43.6094L46.9021 43.2674Z" fill="#1D1D1B"/>
<path d="M72.7582 18.3146L47.8199 44.6217L48.0168 44.8084L72.9551 18.5013L72.7582 18.3146Z" stroke="#1D1D1B" stroke-width="0.8" stroke-miterlimit="10"/>
<path d="M75.0851 20.4393L50.1072 46.7329L50.3039 46.9198L75.2818 20.6261L75.0851 20.4393Z" stroke="#1D1D1B" stroke-width="0.8" stroke-miterlimit="10"/>
<path d="M72.2014 18.1027C71.9388 17.8489 71.7638 17.5689 71.6675 17.2188C71.58 16.9125 71.6675 16.5712 71.8951 16.3261L86.2126 1.22975C86.3701 1.07222 86.5889 0.984706 86.7989 1.00221C88.2604 1.14223 89.7394 2.61249 89.8007 2.67375C91.4022 4.19652 91.5072 5.2117 91.4985 5.483C91.4985 5.64052 91.4285 5.79805 91.3235 5.91182L77.1372 21.4983C76.8659 21.7959 76.4283 21.8746 76.0958 21.6821C75.5444 21.367 75.0719 20.6232 75.0544 20.5881C73.9692 19.1354 72.8052 18.5228 72.7877 18.514C72.5602 18.4003 72.3589 18.2602 72.2014 18.1027ZM89.5644 2.82253C89.2843 2.55123 87.9979 1.39603 86.7814 1.28226C86.6501 1.26475 86.5101 1.32602 86.4138 1.42228L72.0963 16.5274C71.9388 16.6937 71.8776 16.9388 71.9301 17.1575C72.0613 17.6476 72.3939 18.0327 72.9277 18.2952C72.9802 18.3215 74.1617 18.9429 75.2906 20.4569C75.2994 20.4744 75.7545 21.1833 76.2446 21.4633C76.4634 21.5946 76.7609 21.5333 76.9534 21.332L91.1222 5.74554C91.1922 5.67553 91.2272 5.57926 91.2272 5.483C91.2272 5.30796 91.1834 4.35405 89.6169 2.87504C89.6169 2.87504 89.5994 2.85753 89.5644 2.82253Z" stroke="#1D1D1B" stroke-width="0.8" stroke-miterlimit="10"/>
<path d="M73.7768 14.5759L73.9343 14.3571C73.9343 14.3571 77.1811 16.6413 79.1239 19.2755L78.9052 19.433C76.9973 16.8338 73.8118 14.6022 73.7855 14.5759H73.7768Z" stroke="#1D1D1B" stroke-width="0.8" stroke-miterlimit="10"/>
</svg>
