<svg width="100" height="100" viewBox="0 0 100 100" fill="none" xmlns="http://www.w3.org/2000/svg">
<path d="M50 90C72.0914 90 90 72.0914 90 50C90 27.9086 72.0914 10 50 10C27.9086 10 10 27.9086 10 50C10 72.0914 27.9086 90 50 90Z" fill="#A1DCEF"/>
<path d="M38.77 15.27C40.33 15.88 52.4 16.76 61.53 16.9C70.65 17.04 84.96 15.54 86.73 15.27C87.98 15.08 88.21 14.37 88.43 13.37H85.46C85.37 13.95 85.23 14.64 85.14 14.66C85.04 14.68 84.66 13.97 84.44 13.37H83.32C83.23 13.95 83.09 14.64 83 14.66C82.9 14.68 82.52 13.97 82.3 13.37H81.18C81.09 13.95 80.95 14.64 80.86 14.66C80.76 14.68 80.38 13.97 80.16 13.37H79.04C78.95 13.95 78.81 14.64 78.72 14.66C78.62 14.68 78.24 13.97 78.02 13.37H76.9C76.81 13.95 76.67 14.64 76.58 14.66C76.48 14.68 76.1 13.97 75.88 13.37H74.76C74.67 13.95 74.53 14.64 74.44 14.66C74.34 14.68 73.96 13.97 73.74 13.37H68.35L68.02 14.49H57.95C57.95 14.49 57.64 13.86 57.42 13.37H51.54C51.45 13.95 51.31 14.64 51.22 14.66C51.12 14.68 50.74 13.97 50.52 13.37H49.68C49.59 13.93 49.46 14.55 49.37 14.57C49.27 14.59 48.92 13.94 48.7 13.37H47.82C47.73 13.91 47.61 14.47 47.52 14.49C47.43 14.51 47.1 13.92 46.88 13.37H45.95C45.86 13.88 45.75 14.39 45.67 14.4C45.58 14.42 45.29 13.89 45.07 13.37H44.09C44 13.85 43.9 14.3 43.82 14.32C43.74 14.34 43.47 13.87 43.26 13.37H42.23C42.15 13.82 42.05 14.22 41.98 14.23C41.9 14.25 41.66 13.83 41.45 13.37H38.89C38.45 14.29 38.29 15.06 38.82 15.27H38.77Z" stroke="#231F20" stroke-linejoin="round"/>
<path d="M67.97 14.49C67.8 15.27 68.14 15.58 63.05 15.58C58.17 15.58 58.1 15.48 57.9 14.49H67.97Z" stroke="#231F20" stroke-linejoin="round"/>
<path d="M86.72 18.87H38.5L33.31 55.29L82.45 57.33L86.72 18.87Z" stroke="#231F20" stroke-linejoin="round"/>
<path d="M34.97 63.35L86.42 65.62C88.43 65.71 90.15 64.22 90.36 62.22L94.94 18.33C95.21 15.69 93.14 13.39 90.48 13.39H88.41C88.19 14.39 87.96 15.1 86.71 15.29C84.95 15.56 70.64 17.05 61.51 16.92C52.39 16.78 40.31 15.9 38.75 15.29C38.21 15.08 38.37 14.31 38.82 13.39H37.64C35.4 13.39 33.5 15.05 33.2 17.28L28.12 55.2C27.56 59.4 30.72 63.17 34.95 63.36L34.97 63.35Z" stroke="#231F20" stroke-linejoin="round"/>
<path d="M73.0559 59.4253L81.8238 59.6166L81.8465 58.5769L73.0786 58.3855L73.0559 59.4253Z" stroke="#231F20" stroke-miterlimit="10"/>
<path d="M33.293 57.587L40.2814 57.7382L40.3082 56.4985L33.3199 56.3473L33.293 57.587Z" stroke="#231F20" stroke-linejoin="round"/>
<path d="M61.69 64.52L61.86 58.51L51.83 58.14L51.62 64.08L61.69 64.52Z" stroke="#231F20" stroke-linejoin="round"/>
<path d="M58.64 64.3C59.0266 64.3 59.34 63.9866 59.34 63.6C59.34 63.2134 59.0266 62.9 58.64 62.9C58.2534 62.9 57.94 63.2134 57.94 63.6C57.94 63.9866 58.2534 64.3 58.64 64.3Z" stroke="#231F20" stroke-linejoin="round"/>
<path d="M58.64 64.02C58.872 64.02 59.06 63.832 59.06 63.6C59.06 63.368 58.872 63.18 58.64 63.18C58.408 63.18 58.22 63.368 58.22 63.6C58.22 63.832 58.408 64.02 58.64 64.02Z" stroke="#231F20" stroke-linejoin="round"/>
<path d="M58.64 63.75C58.7228 63.75 58.79 63.6828 58.79 63.6C58.79 63.5172 58.7228 63.45 58.64 63.45C58.5572 63.45 58.49 63.5172 58.49 63.6C58.49 63.6828 58.5572 63.75 58.64 63.75Z" stroke="#231F20" stroke-linejoin="round"/>
<path d="M54 64.01C54.3093 64.01 54.56 63.7593 54.56 63.45C54.56 63.1407 54.3093 62.89 54 62.89C53.6907 62.89 53.44 63.1407 53.44 63.45C53.44 63.7593 53.6907 64.01 54 64.01Z" stroke="#231F20" stroke-linejoin="round"/>
<path d="M54 63.79C54.1878 63.79 54.34 63.6378 54.34 63.45C54.34 63.2622 54.1878 63.11 54 63.11C53.8122 63.11 53.66 63.2622 53.66 63.45C53.66 63.6378 53.8122 63.79 54 63.79Z" stroke="#231F20" stroke-linejoin="round"/>
<path d="M54 63.57C54.0663 63.57 54.12 63.5163 54.12 63.45C54.12 63.3837 54.0663 63.33 54 63.33C53.9337 63.33 53.88 63.3837 53.88 63.45C53.88 63.5163 53.9337 63.57 54 63.57Z" stroke="#231F20" stroke-linejoin="round"/>
<path d="M87.21 66.35L28.95 63.32L5.4 69.47L70.04 73.81L87.21 66.35Z" stroke="#231F20" stroke-linejoin="round"/>
<path d="M70.04 82.35V73.81L87.21 66.35L87.12 74.35L70.04 82.35Z" stroke="#231F20" stroke-linejoin="round"/>
<path d="M70.04 82.35V73.81L5.4 69.47V77.2L70.04 82.35Z" stroke="#231F20" stroke-linejoin="round"/>
<path d="M83.19 66.96L77.5 69.47L20.8 66.35L28.95 64.01L83.19 66.96Z" stroke="#231F20" stroke-linejoin="round"/>
<path d="M75.53 69.81C75.53 69.81 71.66 71.91 63.59 71.78C55.52 71.65 22.83 69.75 20.25 69.47C17.67 69.19 14.39 68.84 14.39 68.84C14.39 68.84 12.72 68.39 15.2 67.62C17.69 66.85 18.37 66.53 18.37 66.53L75.52 69.81H75.53Z" stroke="#231F20" stroke-linejoin="round"/>
<path d="M52.74 68.88L47.36 70.64L32.53 69.76L37.91 67.97L52.74 68.88Z" stroke="#231F20" stroke-linejoin="round"/>
<path d="M65.22 79.32V75.67L45.37 74.62V78.19L65.22 79.32Z" stroke="#231F20" stroke-linejoin="round"/>
<path d="M29.27 77.84V73.81H27.64C26.92 73.81 26.33 73.22 26.33 72.5V72.05L18.96 71.51L18.93 71.73C18.8 72.58 18.04 73.2 17.17 73.15L16.25 73.1V76.99L29.27 77.85V77.84Z" stroke="#231F20" stroke-linejoin="round"/>
<path d="M14.99 72.83L10.6 72.72V75.44L14.99 75.79V72.83Z" stroke="#231F20" stroke-miterlimit="10"/>
<path d="M32.82 71.31V74.91L33.37 74.93H33.66L33.93 74.94L34.23 74.95H34.5L34.79 74.96H35.06L35.36 74.97L35.63 74.98H35.92L36.19 74.99L36.49 75H36.76L37.05 75.01H37.32L37.62 75.02L37.89 75.03L39.97 75.07V71.78L32.82 71.31Z" stroke="#231F20" stroke-linejoin="round"/>
<path d="M39.8 79.94C39.8 79.94 40.19 77.89 39.6 77.23C39.01 76.57 38.4 76 36.76 75.9C34.69 75.78 33.59 76.22 33.49 77.23C33.39 78.24 33.37 79.42 33.37 79.42L39.81 79.93L39.8 79.94Z" stroke="#231F20" stroke-linejoin="round"/>
</svg>
