<svg width="100" height="100" viewBox="0 0 100 100" fill="none" xmlns="http://www.w3.org/2000/svg">
<g clip-path="url(#clip0_5626_30447)">
<path d="M50 90C72.0914 90 90 72.0914 90 50C90 27.9086 72.0914 10 50 10C27.9086 10 10 27.9086 10 50C10 72.0914 27.9086 90 50 90Z" fill="#A1DCEF"/>
<path d="M18.2 22.77L63.73 45.64C60.23 43.88 55.22 46.77 52.55 52.09C49.88 57.41 50.55 63.16 54.05 64.92L8.52001 42.05C6.78001 41.18 5.74001 39.32 5.46001 37.03C5.41001 36.64 5.39001 36.23 5.39001 35.82C5.39001 35.24 5.42001 34.64 5.51001 34.02C5.72001 32.47 6.22001 30.83 7.03001 29.23C7.84001 27.63 8.85001 26.25 9.97001 25.16C10.44 24.69 10.93 24.28 11.44 23.92C11.79 23.67 12.14 23.45 12.49 23.25C14.46 22.16 16.52 21.92 18.22 22.78L18.2 22.77Z" stroke="#231F20" stroke-miterlimit="10"/>
<path d="M93.38 60.54C96.88 62.3 97.55 68.04 94.88 73.36C92.21 78.68 87.2 81.58 83.7 79.82C80.2 78.06 79.53 72.32 82.2 66.99C84.87 61.66 89.88 58.78 93.39 60.54H93.38Z" stroke="#231F20" stroke-miterlimit="10"/>
<path d="M63.73 45.64L70.07 48.83C68.91 48.25 67.6 48.17 66.25 48.53C63.52 49.24 60.68 51.72 58.88 55.29C57.08 58.86 56.8 62.61 57.86 65.23C58.38 66.52 59.23 67.53 60.38 68.11L54.04 64.92C50.54 63.16 49.87 57.42 52.54 52.09C55.21 46.77 60.22 43.88 63.72 45.64H63.73Z" stroke="#231F20" stroke-miterlimit="10"/>
<path d="M70.07 48.83L74.36 50.98C73.61 50.6 72.78 50.44 71.93 50.47C70.26 50.53 68.46 51.32 66.84 52.7C65.43 53.88 64.15 55.5 63.17 57.44C62.19 59.38 61.66 61.37 61.56 63.21C61.43 65.33 61.86 67.25 62.81 68.62C63.3 69.32 63.92 69.88 64.67 70.26L60.38 68.11C59.22 67.53 58.38 66.51 57.86 65.23C56.8 62.61 57.09 58.85 58.88 55.29C60.67 51.73 63.51 49.25 66.25 48.53C67.6 48.18 68.91 48.25 70.07 48.83V48.83Z" stroke="#231F20" stroke-miterlimit="10"/>
<path d="M74.36 50.98L93.38 60.54C89.88 58.78 84.87 61.67 82.19 66.99C79.51 72.31 80.19 78.06 83.69 79.82L64.67 70.26C63.92 69.88 63.29 69.32 62.81 68.62C61.86 67.24 61.43 65.33 61.56 63.21C61.67 61.37 62.2 59.38 63.17 57.44C64.14 55.5 65.43 53.89 66.84 52.7C68.46 51.33 70.26 50.53 71.93 50.47C72.78 50.44 73.61 50.6 74.36 50.98V50.98Z" stroke="#231F20" stroke-miterlimit="10"/>
<path d="M11.39 22.31C11.82 22.53 12.19 22.85 12.48 23.25C12.13 23.45 11.77 23.67 11.43 23.92C10.93 24.28 10.44 24.69 9.96001 25.16C8.84001 26.26 7.83001 27.64 7.02001 29.23C6.21001 30.82 5.71001 32.47 5.50001 34.02C5.41001 34.64 5.37001 35.24 5.38001 35.82C5.38001 36.23 5.41001 36.64 5.45001 37.03C4.99001 37.03 4.55001 36.92 4.14001 36.71C3.84001 36.56 3.57001 36.36 3.34001 36.12C3.09001 35.86 2.87001 35.55 2.70001 35.2C1.77001 33.32 2.00001 30.28 3.47001 27.35C4.94001 24.42 7.25001 22.42 9.31001 22.05C9.69001 21.98 10.07 21.97 10.43 22.02C10.76 22.06 11.08 22.16 11.38 22.31H11.39Z" stroke="#231F20" stroke-miterlimit="10"/>
<path d="M3.35001 36.12C3.58001 36.36 3.85001 36.56 4.15001 36.71L2.39001 35.83C2.69001 35.98 3.01001 36.08 3.34001 36.12H3.35001Z" stroke="#231F20" stroke-miterlimit="10"/>
<path d="M9.63001 21.43C9.93001 21.58 10.2 21.78 10.43 22.02C10.07 21.97 9.69001 21.99 9.31001 22.05C7.25001 22.43 4.94001 24.42 3.47001 27.35C2.00001 30.28 1.77001 33.32 2.70001 35.2C2.87001 35.55 3.09001 35.86 3.34001 36.12C3.01001 36.08 2.69001 35.98 2.39001 35.83C0.0200144 34.64 -0.279986 30.45 1.72001 26.47C3.72001 22.49 7.26001 20.23 9.63001 21.42V21.43Z" stroke="#231F20" stroke-miterlimit="10"/>
<path d="M9.63001 21.43L11.39 22.31C11.09 22.16 10.77 22.06 10.44 22.02C10.21 21.78 9.94001 21.58 9.64001 21.43H9.63001Z" stroke="#231F20" stroke-miterlimit="10"/>
<path d="M8.31405 31.1344L7.70811 32.3408L19.4948 38.2611L20.1007 37.0547L8.31405 31.1344Z" stroke="#231F20" stroke-miterlimit="10"/>
<path d="M9.28246 29.1789L8.67651 30.3853L20.4632 36.3056L21.0691 35.0992L9.28246 29.1789Z" stroke="#231F20" stroke-miterlimit="10"/>
<path d="M7.93457 33.3066L7.32862 34.5129L23.074 42.4217L23.6799 41.2153L7.93457 33.3066Z" stroke="#231F20" stroke-miterlimit="10"/>
<path d="M89.36 72.28C89.9399 72.28 90.41 71.8099 90.41 71.23C90.41 70.6501 89.9399 70.18 89.36 70.18C88.7801 70.18 88.31 70.6501 88.31 71.23C88.31 71.8099 88.7801 72.28 89.36 72.28Z" stroke="#231F20" stroke-miterlimit="10"/>
</g>
<defs>
<clipPath id="clip0_5626_30447">
<rect width="100" height="100" fill="white"/>
</clipPath>
</defs>
</svg>
