<svg width="100" height="100" viewBox="0 0 100 100" fill="none" xmlns="http://www.w3.org/2000/svg">
<path d="M50 90C72.0914 90 90 72.0914 90 50C90 27.9086 72.0914 10 50 10C27.9086 10 10 27.9086 10 50C10 72.0914 27.9086 90 50 90Z" fill="#A1DCEF"/>
<path d="M21.28 37.91C25.9082 37.91 29.66 32.8553 29.66 26.62C29.66 20.3847 25.9082 15.33 21.28 15.33C16.6519 15.33 12.9 20.3847 12.9 26.62C12.9 32.8553 16.6519 37.91 21.28 37.91Z" stroke="#231F20" stroke-miterlimit="10"/>
<path d="M21.24 62.93C25.6086 62.93 29.15 58.0231 29.15 51.97C29.15 45.917 25.6086 41.01 21.24 41.01C16.8714 41.01 13.33 45.917 13.33 51.97C13.33 58.0231 16.8714 62.93 21.24 62.93Z" stroke="#231F20" stroke-miterlimit="10"/>
<path d="M21.37 61.12C24.6948 61.12 27.39 57.1533 27.39 52.26C27.39 47.3668 24.6948 43.4 21.37 43.4C18.0453 43.4 15.35 47.3668 15.35 52.26C15.35 57.1533 18.0453 61.12 21.37 61.12Z" stroke="#231F20" stroke-miterlimit="10"/>
<path d="M21.86 35.89C25.4554 35.89 28.37 31.8606 28.37 26.89C28.37 21.9195 25.4554 17.89 21.86 17.89C18.2647 17.89 15.35 21.9195 15.35 26.89C15.35 31.8606 18.2647 35.89 21.86 35.89Z" stroke="#231F20" stroke-miterlimit="10"/>
<path d="M20.76 37.88L20.83 41.02" stroke="#231F20" stroke-miterlimit="10"/>
<path d="M22.12 37.72L22.1 41.21" stroke="#231F20" stroke-miterlimit="10"/>
<path d="M60.53 31.45C59.96 31.26 59.28 30.97 58.54 30.53C57.86 30.12 57.31 29.69 56.89 29.31" stroke="#231F20" stroke-miterlimit="10"/>
<path d="M54.63 20.24C55.99 16.36 59.54 13.77 63.36 13.78C68.06 13.78 72.42 17.71 72.42 22.84C72.42 28.45 67.2 31.75 63.36 31.9C62.19 31.94 61.21 31.69 60.53 31.45" stroke="#231F20" stroke-miterlimit="10"/>
<path d="M57.7 25.22C57.34 21.01 59.98 16.98 64.2 15.76C65.53 15.37 66.89 15.4 66.9 15.4C66.9 15.4 67.54 15.46 68.75 15.66" stroke="#231F20" stroke-miterlimit="10"/>
<path d="M52.09 18.43C52.33 17.86 52.82 16.88 53.81 15.96C53.9 15.87 53.98 15.8 54.07 15.73" stroke="#231F20" stroke-miterlimit="10"/>
<path d="M33.31 15.19C33.88 15.57 39.86 19.75 39.92 27.11C39.96 32.28 37.07 35.78 36.26 36.7" stroke="#231F20" stroke-miterlimit="10"/>
<path d="M55.26 16.58C56.1271 16.58 56.83 15.7965 56.83 14.83C56.83 13.8635 56.1271 13.08 55.26 13.08C54.3929 13.08 53.69 13.8635 53.69 14.83C53.69 15.7965 54.3929 16.58 55.26 16.58Z" stroke="#231F20" stroke-miterlimit="10"/>
<path d="M63.79 13.8L55.27 13.09" stroke="#231F20" stroke-miterlimit="10"/>
<path d="M66.93 7.77002C65.74 9.78002 64.55 11.78 63.36 13.79" stroke="#231F20" stroke-miterlimit="10"/>
<path d="M70.58 17.37L73.64 11.58" stroke="#231F20" stroke-miterlimit="10"/>
<path d="M73.68 7.30001C72.48 6.11001 71.12 5.70001 70.39 5.55001C69.18 5.30001 68.18 5.45001 67.61 5.57001C66.45 6.78001 66.31 7.32001 66.46 7.57001C66.72 8.02001 67.81 7.44001 69.45 7.83001C69.72 7.90001 71.17 8.27001 72.27 9.47001C73.41 10.72 73.36 11.99 73.93 12.04C74.22 12.06 74.68 11.79 75.35 10.15C75.18 9.56001 74.76 8.38001 73.68 7.31001V7.30001Z" stroke="#231F20" stroke-miterlimit="10"/>
<path d="M65.64 9.94003C66.34 9.93003 67.73 10 69.23 10.79C71.14 11.79 72.06 13.34 72.38 13.96" stroke="#231F20" stroke-miterlimit="10"/>
<path d="M64.19 12.39C64.83 12.35 66.59 12.32 68.4 13.4C70.04 14.38 70.84 15.75 71.13 16.34" stroke="#231F20" stroke-miterlimit="10"/>
<path d="M64.76 22.75L64.84 25.94C66.44 25.92 68.04 25.9 69.65 25.87L69.49 22.61C67.91 22.65 66.34 22.7 64.76 22.74V22.75Z" stroke="#231F20" stroke-miterlimit="10"/>
<path d="M55.75 32.89C55.75 33.35 55.75 33.8 55.75 34.26C54.86 34.28 53.97 34.3 53.07 34.31V35.59H57.74L57.71 32.64" stroke="#231F20" stroke-miterlimit="10"/>
<path d="M64.21 31.82C57.89 32.57 53.25 33.24 51.89 33.51C51.42 33.6 50.71 33.75 49.87 33.99C49.07 34.22 48.54 34.43 48.18 34.54C46.69 34.98 45.47 35.23 44.55 35.41C38.91 36.52 32.43 37.11 32.43 37.11C29.69 37.37 26.2 37.65 22.12 37.85" stroke="#231F20" stroke-miterlimit="10"/>
<path d="M48.34 34.48V38.03C51.22 38.04 54.1 38.05 56.98 38.07L57 36.57H56.2V35.77" stroke="#231F20" stroke-miterlimit="10"/>
<path d="M54.13 38.06C54.13 38.51 54.13 38.96 54.13 39.4H55.22V40.74C53.69 40.74 52.15 40.73 50.62 40.72C50.62 40.29 50.62 39.85 50.62 39.42L51.89 39.4C51.89 38.95 51.89 38.5 51.9 38.04" stroke="#231F20" stroke-miterlimit="10"/>
<path d="M48.34 38.04C48.08 38.23 47.82 38.42 47.56 38.61C47.56 39.67 47.58 40.74 47.59 41.8H46.7C46.7 42.77 46.7 43.73 46.72 44.7C48.07 44.7 49.44 44.72 50.79 44.72V45.73C50.4 46.12 50.01 46.51 49.62 46.9C40.29 56.26 31.38 65.78 22.88 75.43L22.46 75.14L20.49 77.78H22.51C23.11 77.4 23.73 77.03 24.33 76.65C24.18 76.41 24.04 76.18 23.89 75.96C32.84 66.96 41.8 57.96 50.74 48.95C50.9 62.96 51.04 76.98 51.19 90.99H50.66L49.27 93.99L55.15 94.05C54.67 93.02 54.19 91.98 53.7 90.95H53.13C53.27 76.92 53.4 62.9 53.53 48.88C62.76 58.5 72 68.12 81.23 77.75C81.15 77.91 81.07 78.08 80.99 78.24C81.59 78.52 82.21 78.8 82.81 79.07C83.34 78.93 83.86 78.79 84.39 78.65C83.79 77.99 83.18 77.33 82.58 76.67C82.41 76.73 82.24 76.78 82.06 76.84C72.58 66.43 63.1 56 53.62 45.59C53.62 45.3 53.62 45.03 53.64 44.74C54.2 44.74 54.77 44.72 55.34 44.71C57.59 46.27 59.85 47.84 62.1 49.39C62.43 49.62 62.78 49.75 63.14 49.81" stroke="#231F20" stroke-miterlimit="10"/>
<path d="M64.76 45.57C64.62 45.46 64.47 45.38 64.3 45.32C61.35 44.14 58.4 42.98 55.44 41.8H51.33V40.73" stroke="#231F20" stroke-miterlimit="10"/>
<path d="M55.12 16.58L56.74 16.66" stroke="#231F20" stroke-miterlimit="10"/>
<path d="M47.41 41.8H51.33" stroke="#231F20" stroke-miterlimit="10"/>
<path d="M20.78 15.35C27.22 14.85 32.51 15.06 36.35 15.4C37.96 15.54 39.32 15.7 40.54 15.88C42.59 16.17 44.15 16.48 44.82 16.61C45.6 16.77 47.28 17.12 49.39 17.69C50.05 17.87 50.6 18.02 51 18.14C51.2 18.21 51.48 18.32 51.81 18.47C52.46 18.77 57.68 21.3 57.74 25.97C57.78 29.13 55.45 32.24 51.93 33.49" stroke="#231F20" stroke-miterlimit="10"/>
<path d="M49.18 17.63C49.68 18 52.66 20.23 53.58 23.33C53.98 24.66 53.98 25.96 53.98 25.96C53.98 25.96 53.98 27.28 53.58 28.59C52.56 31.96 48.38 34.4 48.17 34.52" stroke="#231F20" stroke-miterlimit="10"/>
<path d="M24.49 35.12C21.74 33.63 20.17 30.63 20.52 27.58C20.89 24.35 23.33 21.68 26.57 21.01" stroke="#231F20" stroke-miterlimit="10"/>
<path d="M55.21 14.84C55.2597 14.84 55.3 14.7997 55.3 14.75C55.3 14.7003 55.2597 14.66 55.21 14.66C55.1603 14.66 55.12 14.7003 55.12 14.75C55.12 14.7997 55.1603 14.84 55.21 14.84Z" stroke="#231F20" stroke-miterlimit="10"/>
<path d="M63.96 49.97C65.2137 49.97 66.23 48.9537 66.23 47.7C66.23 46.4463 65.2137 45.43 63.96 45.43C62.7063 45.43 61.69 46.4463 61.69 47.7C61.69 48.9537 62.7063 49.97 63.96 49.97Z" stroke="#231F20" stroke-miterlimit="10"/>
</svg>
