<svg width="100" height="100" viewBox="0 0 100 100" fill="none" xmlns="http://www.w3.org/2000/svg">
<path d="M50 90C72.0914 90 90 72.0914 90 50C90 27.9086 72.0914 10 50 10C27.9086 10 10 27.9086 10 50C10 72.0914 27.9086 90 50 90Z" fill="#A1DCEF"/>
<path d="M4.41 29.23L57.53 24.42L98.87 36.5L38.32 43.05L4.41 29.23Z" stroke="#1D1C1A" stroke-linejoin="round"/>
<path d="M38.76 77.34L38.32 43.05L4.41 29.23L4.85 59.21L38.76 77.34Z" stroke="#1D1C1A" stroke-miterlimit="10"/>
<path d="M98.87 36.5V69.25L38.76 77.34L38.32 43.05" stroke="#1D1C1A" stroke-miterlimit="10"/>
<path d="M9.13 61.5L9.84 63.91C9.94 64.23 10.24 64.45 10.57 64.43L14.3 64.27" stroke="#1D1C1A" stroke-miterlimit="10"/>
<path d="M33.61 74.58L33.96 77.64C34 78.03 34.33 78.32 34.72 78.32H38.8C39.09 78.32 39.36 78.15 39.49 77.89L39.83 77.19" stroke="#1D1C1A" stroke-miterlimit="10"/>
<path d="M93.28 70L92.71 71.33C92.67 71.43 92.57 71.49 92.46 71.49H88.96C88.82 71.49 88.7 71.38 88.69 71.25L88.62 70.62" stroke="#1D1C1A" stroke-miterlimit="10"/>
<path d="M41.15 69.54V71.33C41.15 72.15 41.87 72.78 42.68 72.67L96.16 65.45C96.83 65.36 97.33 64.79 97.33 64.11V62.74C97.33 61.93 96.62 61.3 95.81 61.4L42.33 68.19C41.65 68.28 41.15 68.85 41.15 69.53V69.54Z" stroke="#1D1C1A" stroke-miterlimit="10"/>
<path d="M92.74 65.22C93.4966 65.22 94.11 64.6066 94.11 63.85C94.11 63.0934 93.4966 62.48 92.74 62.48C91.9834 62.48 91.37 63.0934 91.37 63.85C91.37 64.6066 91.9834 65.22 92.74 65.22Z" stroke="#1D1C1A" stroke-miterlimit="10"/>
<path d="M59.65 48.43L59.95 62.03L87.15 58.68V45.6L59.65 48.43Z" stroke="#1D1C1A" stroke-miterlimit="10"/>
<path d="M65.53 49.24L85.67 47.09V57.64L65.9 60.09L65.53 49.24Z" stroke="#1D1C1A" stroke-miterlimit="10"/>
<path d="M60.69 53.14L63.56 52.96" stroke="#1D1C1A" stroke-miterlimit="10"/>
<path d="M60.96 55.57L63.82 55.39" stroke="#1D1C1A" stroke-miterlimit="10"/>
<path d="M60.96 57.62L63.82 57.43" stroke="#1D1C1A" stroke-miterlimit="10"/>
<path d="M47.1272 49.8426C49.8167 49.5969 51.9387 48.7601 51.8668 47.9736C51.795 47.1871 49.5565 46.7487 46.867 46.9944C44.1776 47.2401 42.0556 48.0769 42.1274 48.8634C42.1993 49.6499 44.4378 50.0883 47.1272 49.8426Z" stroke="#1D1C1A" stroke-miterlimit="10"/>
<path d="M72.85 51.25H74.44L74.3 53.59H72.62V55.86H74" stroke="#1D1C1A" stroke-miterlimit="10"/>
<path d="M75.82 50.97H77.42L77.27 53.31H75.6V55.57H76.97" stroke="#1D1C1A" stroke-miterlimit="10"/>
<path d="M80.24 50.97H78.72V55.58H80.24V50.97Z" stroke="#1D1C1A" stroke-miterlimit="10"/>
<path d="M69.24 52.72C69.61 52.72 69.91 52.42 69.91 52.05C69.91 51.68 69.61 51.38 69.24 51.38C68.87 51.38 68.57 51.68 68.57 52.05C68.57 52.42 68.87 52.72 69.24 52.72Z" stroke="#1D1C1A" stroke-miterlimit="10"/>
<path d="M14.38 37.25L18.21 39.01" stroke="#1D1C1A" stroke-linecap="round" stroke-linejoin="round"/>
<path d="M22.81 40.83L26.72 42.99" stroke="#1D1C1A" stroke-linecap="round" stroke-linejoin="round"/>
<path d="M14.38 40.32L18.21 42.21" stroke="#1D1C1A" stroke-linecap="round" stroke-linejoin="round"/>
<path d="M22.15 43.63L25.94 45.91" stroke="#1D1C1A" stroke-linecap="round" stroke-linejoin="round"/>
<path d="M14.38 43.11L18.42 45.22" stroke="#1D1C1A" stroke-linecap="round" stroke-linejoin="round"/>
<path d="M21.4 46.21L25.55 48.74" stroke="#1D1C1A" stroke-linecap="round" stroke-linejoin="round"/>
<path d="M14.38 45.91L18.57 48.32" stroke="#1D1C1A" stroke-linecap="round" stroke-linejoin="round"/>
<path d="M20.62 48.74L24.95 51.09" stroke="#1D1C1A" stroke-linecap="round" stroke-linejoin="round"/>
<path d="M15.05 48.92L24.47 54.24" stroke="#1D1C1A" stroke-linecap="round" stroke-linejoin="round"/>
<path d="M15.5 52.09L23.48 56.38" stroke="#1D1C1A" stroke-linecap="round" stroke-linejoin="round"/>
<path d="M15.71 55.19L22.15 58.76" stroke="#1D1C1A" stroke-linecap="round" stroke-linejoin="round"/>
<path d="M15.71 58.04L21.28 61.34" stroke="#1D1C1A" stroke-linecap="round" stroke-linejoin="round"/>
<path d="M16.4 60.86L20.62 63.63" stroke="#1D1C1A" stroke-linecap="round" stroke-linejoin="round"/>
</svg>
