<svg width="100" height="100" viewBox="0 0 100 100" fill="none" xmlns="http://www.w3.org/2000/svg">
<g clip-path="url(#clip0_5626_30464)">
<path d="M50 90C72.0914 90 90 72.0914 90 50C90 27.9086 72.0914 10 50 10C27.9086 10 10 27.9086 10 50C10 72.0914 27.9086 90 50 90Z" fill="#A1DCEF"/>
<path d="M33.5322 95.2536C33.5322 95.4836 33.9325 97.9454 33.9325 97.9454C33.9325 97.9454 34.0518 98.3201 34.5969 98.4053C35.1421 98.4905 35.9854 98.1753 35.9854 98.1753L36.8202 95.5432L36.4198 95.2536L36.6243 94.6488H38.5324L38.9072 91.7015L37.1183 91.4715L37.2632 90.7219H38.9072L39.4012 87.8342L38.0724 87.5701L38.3876 86.4713L39.742 86.7353L40.1168 83.4728L38.8475 83.3025L38.822 82.7573L34.6906 82.4421L34.6651 83.3962L33.217 94.6062L33.8559 94.9214L33.5407 95.2706L33.5322 95.2536Z" stroke="#231F20" stroke-linecap="round" stroke-linejoin="round"/>
<path d="M35.1251 82.4592L40.5001 44.5359C40.5001 44.5359 42.7574 44.306 44.1374 45.1152L38.822 82.7403" stroke="#231F20" stroke-linecap="round" stroke-linejoin="round"/>
<path d="M67.9373 88.6945L68.3206 90.9689C68.3206 90.9689 67.2303 92.0081 66.5062 91.744C65.7822 91.48 64.9304 89.4015 64.9304 89.4015L65.1348 89.1971L61.6508 79.9037L61.8553 78.643C61.8553 78.643 64.2148 78.43 64.6833 77.6464C65.1518 76.8627 66.387 77.1438 66.387 77.1438L67.571 80.4233L67.0685 80.7555L68.3121 84.1202L67.8181 84.4354L69.0276 87.7916L67.9288 88.686L67.9373 88.6945Z" stroke="#231F20" stroke-linecap="round" stroke-linejoin="round"/>
<path d="M64.9389 77.3823L52.6897 43.4968C52.6897 43.4968 51.1309 44.6808 49.4528 44.6212L61.8127 78.8901" stroke="#231F20" stroke-linecap="round" stroke-linejoin="round"/>
<path d="M34.1966 86.9739C34.1966 86.9739 32.8507 87.042 32.4929 86.548V84.9295L32.2544 84.7165V83.9243L31.607 83.1321L32.6803 73.9665C32.6803 73.9665 33.4214 73.1743 34.0262 73.038C34.0262 73.038 32.6377 75.4657 36.0195 76.1302" stroke="#231F20" stroke-linecap="round" stroke-linejoin="round"/>
<path d="M34.0262 73.0466L39.6312 43.7693L40.5 44.536" stroke="#231F20" stroke-linecap="round" stroke-linejoin="round"/>
<path d="M38.8475 83.294L43.7881 79.5971C43.7881 79.5971 46.7354 79.8015 47.025 79.3671C47.3147 78.9326 47.025 77.8082 47.025 77.8082L60.1772 78.8986L61.6509 79.9208L61.8553 78.6601L61.0716 76.8372L48.3539 75.6702C48.3539 75.6702 47.4424 75.2954 47.2721 74.0772C47.2721 74.0347 47.2636 73.9835 47.255 73.9324C47.1358 72.6036 47.1102 73.0551 47.1102 73.0551C47.1102 73.0551 45.1766 73.8813 43.0641 72.9784L42.7489 74.912L39.989 74.4521L39.6823 76.6157L41.6756 77.1097L39.3331 79.0604L38.839 83.3025L38.8475 83.294Z" stroke="#231F20" stroke-linecap="round" stroke-linejoin="round"/>
<path d="M39.6312 43.7693L39.3671 43.0623L39.8016 41.2139H38.2427V37.1677H39.9804V37.5681L43.3026 36.2648C43.3026 36.2648 43.5922 37.1336 46.5991 36.5288L47.8087 36.9036C47.8087 36.9036 50.6708 36.6736 51.3097 38.1473C51.9486 39.621 51.5738 40.345 51.5738 40.345L52.0082 40.8391L52.6982 43.4968" stroke="#231F20" stroke-linecap="round" stroke-linejoin="round"/>
<path d="M44.1373 45.1153L44.5121 41.708L45.9262 41.3843H47.9791L49.4612 44.6212" stroke="#231F20" stroke-linecap="round" stroke-linejoin="round"/>
<path d="M46.9739 41.3843L47.1187 73.0466L43.0726 72.9785V52.6795" stroke="#231F20" stroke-linecap="round" stroke-linejoin="round"/>
<path d="M53.2945 14.637L40.96 14.9777V5.81207L53.2945 6.19539V14.637Z" stroke="#231F20" stroke-linecap="round" stroke-linejoin="round"/>
<path d="M59.2232 7.23458V15.7102L44.1544 16.1021H44.1459L42.0419 16.1532L40.943 16.1787H40.9174L40.0315 16.2043H39.5716C39.5716 16.2043 38.4301 16.4513 37.6635 16.1787C37.2972 16.0424 37.0076 15.8039 36.965 15.378C36.9565 15.3354 36.9565 15.2843 36.9565 15.2417V1.73179H39.5716L40.6108 0.419983H45.1595L45.9177 1.61254L53.1326 2.03845V1.15255H57.1362V2.7625L58.2947 3.34174V5.30946L59.2146 7.23458H59.2232Z" stroke="#231F20" stroke-linecap="round" stroke-linejoin="round"/>
<path d="M39.5716 1.72333V16.2129" stroke="#231F20" stroke-linecap="round" stroke-linejoin="round"/>
<path d="M44.4525 4.84947H41.3774C41.1474 4.84947 40.96 4.66207 40.96 4.43208V2.65176C40.96 2.41325 41.1645 2.21733 41.403 2.23437L44.4781 2.44733C44.6996 2.46436 44.8614 2.64325 44.8614 2.86472V4.43208C44.8614 4.66207 44.674 4.84947 44.444 4.84947H44.4525Z" stroke="#231F20" stroke-linecap="round" stroke-linejoin="round"/>
<path d="M49.8275 4.00616H49.1376C48.8882 4.00616 48.6861 4.20829 48.6861 4.45763C48.6861 4.70697 48.8882 4.9091 49.1376 4.9091H49.8275C50.0769 4.9091 50.279 4.70697 50.279 4.45763C50.279 4.20829 50.0769 4.00616 49.8275 4.00616Z" stroke="#231F20" stroke-linecap="round" stroke-linejoin="round"/>
<path d="M52.5363 4.00616H51.8464C51.597 4.00616 51.3949 4.20829 51.3949 4.45763C51.3949 4.70697 51.597 4.9091 51.8464 4.9091H52.5363C52.7857 4.9091 52.9878 4.70697 52.9878 4.45763C52.9878 4.20829 52.7857 4.00616 52.5363 4.00616Z" stroke="#231F20" stroke-linecap="round" stroke-linejoin="round"/>
<path d="M55.6114 12.5414C56.3265 12.5414 56.9062 11.8511 56.9062 10.9996C56.9062 10.1481 56.3265 9.45782 55.6114 9.45782C54.8963 9.45782 54.3167 10.1481 54.3167 10.9996C54.3167 11.8511 54.8963 12.5414 55.6114 12.5414Z" stroke="#231F20" stroke-linecap="round" stroke-linejoin="round"/>
<path d="M55.6114 15.804V13.7511C56.787 13.7511 57.741 12.5159 57.741 10.9997C57.741 9.48343 56.787 8.24829 55.6114 8.24829V4.05731H58.3032" stroke="#231F20" stroke-linecap="round" stroke-linejoin="round"/>
<path d="M54.4274 7.34534V8.35901" stroke="#231F20" stroke-linecap="round" stroke-linejoin="round"/>
<path d="M54.4274 13.7V14.7136" stroke="#231F20" stroke-linecap="round" stroke-linejoin="round"/>
<path d="M37.6635 16.1788C37.425 16.2043 37.195 16.2128 36.948 16.2128C33.2255 16.2128 30.21 13.3081 30.21 9.73046C30.21 6.1528 33.2255 3.25659 36.948 3.25659H36.9565V4.09138C34.9036 5.20727 33.5236 7.31128 33.5236 9.73046C33.5236 12.1496 34.9121 14.2707 36.965 15.3781C37.0076 15.804 37.2972 16.0425 37.6635 16.1788Z" stroke="#231F20" stroke-linecap="round" stroke-linejoin="round"/>
<path d="M36.965 15.3865C34.9121 14.2706 33.5236 12.1666 33.5236 9.73893C33.5236 7.31123 34.9036 5.20723 36.9565 4.09985V6.74051C36.4624 7.63493 36.1898 8.65712 36.1898 9.73893C36.1898 10.8208 36.4624 11.8429 36.9565 12.7374V15.2588C36.9565 15.3013 36.9565 15.3525 36.965 15.395V15.3865Z" stroke="#231F20" stroke-linecap="round" stroke-linejoin="round"/>
<path d="M36.9565 6.74048V12.7373C36.4624 11.8429 36.1898 10.8207 36.1898 9.7389C36.1898 8.65708 36.4624 7.63489 36.9565 6.74048Z" stroke="#231F20" stroke-linecap="round" stroke-linejoin="round"/>
<path d="M38.8816 16.315V18.4701H43.2685V16.1191" stroke="#231F20" stroke-linecap="round" stroke-linejoin="round"/>
<path d="M43.2685 18.4702H51.0201V15.9232" stroke="#231F20" stroke-linecap="round" stroke-linejoin="round"/>
<path d="M53.8482 15.9232C53.8482 15.9232 54.8533 18.1465 53.0219 19.9183H51.4034V20.7871H46.0455V20.0546H42.3059V18.4787" stroke="#231F20" stroke-linecap="round" stroke-linejoin="round"/>
<path d="M51.4034 24.467V25.2762C51.4034 25.2762 51.3523 27.0054 50.0746 27.1077C48.8054 27.2099 47.2465 27.1077 47.2465 27.1077V28.8965H42.587V26.9288L43.013 26.6221L42.587 26.0258H41.2412V27.6443H39.2905C39.2905 27.6443 38.5238 26.7754 38.5238 24.944C38.5238 23.1126 39.2053 22.9252 39.4694 22.6697H41.0878V24.1263H42.5274V23.4022H44.8785L46.3606 22.2948V20.7701" stroke="#231F20" stroke-linecap="round" stroke-linejoin="round"/>
<path d="M51.4034 22.8315V20.7786" stroke="#231F20" stroke-linecap="round" stroke-linejoin="round"/>
<path d="M64.9815 30.3957L64.9474 30.4894L56.1907 27.2184C56.1907 27.2184 54.8618 26.7328 54.2485 25.6851L51.3949 24.4585L49.4868 23.6322C49.4868 23.6322 48.9331 22.7122 49.9468 22.4226L51.3949 22.8315L54.8278 23.8111C54.8278 23.8111 56.5314 23.3511 58.5843 24.0581C60.0239 24.5522 63.3375 25.3955 65.1945 25.864C64.1808 26.0429 63.4141 27.0054 63.4141 28.1554C63.4141 29.2372 64.0786 30.1316 64.9815 30.4042V30.3957Z" stroke="#231F20" stroke-linecap="round" stroke-linejoin="round"/>
<path d="M67.7073 28.1554C67.7073 29.4502 66.7448 30.4894 65.5607 30.4894C65.3648 30.4894 65.1604 30.4639 64.9815 30.3957C64.0786 30.1231 63.4141 29.2287 63.4141 28.1469C63.4141 26.9969 64.1808 26.0344 65.1944 25.8555C65.3137 25.8299 65.433 25.8214 65.5607 25.8214C66.7448 25.8214 67.7073 26.8606 67.7073 28.1469V28.1554Z" stroke="#231F20" stroke-linecap="round" stroke-linejoin="round"/>
<path d="M43.2685 28.8879V36.2733" stroke="#231F20" stroke-linecap="round" stroke-linejoin="round"/>
<path d="M46.5395 28.8879V36.2733" stroke="#231F20" stroke-linecap="round" stroke-linejoin="round"/>
</g>
<defs>
<clipPath id="clip0_5626_30464">
<rect width="100" height="100" fill="white"/>
</clipPath>
</defs>
</svg>
