<svg width="100" height="100" viewBox="0 0 100 100" fill="none" xmlns="http://www.w3.org/2000/svg">
<path d="M50 90C72.0914 90 90 72.0914 90 50C90 27.9086 72.0914 10 50 10C27.9086 10 10 27.9086 10 50C10 72.0914 27.9086 90 50 90Z" fill="#A1DCEF"/>
<path d="M29.01 46.5299C34.1794 46.5299 38.37 41.6901 38.37 35.7199C38.37 29.7497 34.1794 24.9099 29.01 24.9099C23.8406 24.9099 19.65 29.7497 19.65 35.7199C19.65 41.6901 23.8406 46.5299 29.01 46.5299Z" stroke="#231F20" stroke-miterlimit="10"/>
<path d="M41.67 39.86C40.2 46.21 35.09 50.9 29.01 50.9C21.78 50.9 15.92 44.28 15.92 36.11C15.92 27.94 21.36 21.81 28.22 21.34" stroke="#231F20" stroke-miterlimit="10"/>
<path d="M32.62 39.3999C34.553 39.3999 36.12 37.6718 36.12 35.5399C36.12 33.4081 34.553 31.6799 32.62 31.6799C30.687 31.6799 29.12 33.4081 29.12 35.5399C29.12 37.6718 30.687 39.3999 32.62 39.3999Z" stroke="#231F20" stroke-miterlimit="10"/>
<path d="M32.84 36.95C33.5469 36.95 34.12 36.3187 34.12 35.54C34.12 34.7613 33.5469 34.13 32.84 34.13C32.1331 34.13 31.56 34.7613 31.56 35.54C31.56 36.3187 32.1331 36.95 32.84 36.95Z" stroke="#231F20" stroke-miterlimit="10"/>
<path d="M28.16 21.3099C24.29 19.4399 17.79 15.4699 11.34 21.3099C4.88999 27.1499 11.07 40.6499 11.07 40.6499H16.56" stroke="#231F20" stroke-miterlimit="10"/>
<path d="M41.61 40.1199L39.63 39.9799C39.63 39.9799 38.81 26.4599 28.17 21.3099" stroke="#231F20" stroke-miterlimit="10"/>
<path d="M20.77 18.21L72.65 26.32C72.65 26.32 82.06 28.45 81.71 38.47L79.38 42.8L41.61 40.13" stroke="#231F20" stroke-miterlimit="10"/>
<path d="M76.95 42.62C76.95 42.62 76.8 49.21 70 52.15L32.06 50.49" stroke="#231F20" stroke-miterlimit="10"/>
<path d="M73.63 49.75L37.47 47.39" stroke="#231F20" stroke-miterlimit="10"/>
<path d="M40.79 50.8999V53.2299H43.26C43.26 53.2299 43.53 60.0999 46.21 61.6099H55.03C55.37 61.6099 55.69 61.4499 55.89 61.1699C56.52 60.2599 57.79 57.9199 57.63 53.9499C57.63 53.9499 58.57 52.4799 60.49 52.6199L60.89 51.7599" stroke="#231F20" stroke-miterlimit="10"/>
<path d="M50.85 51.3099C50.85 51.3099 52.74 52.1299 53.02 54.3999C53.3 56.6699 53.45 59.7999 55.15 59.8199C56.85 59.8399 57.43 57.2599 57.43 57.2599" stroke="#231F20" stroke-miterlimit="10"/>
<path d="M46.22 61.61H44.98V63.12H47.73V65.31H48.69V67.24H52.74V65.93L80.34 78.01L83.15 76.3L81.02 74.58V66L84.73 64.35V63.19H55.83L55.55 61.61" stroke="#231F20" stroke-miterlimit="10"/>
<path d="M56.03 64.63L79.85 73.55V66H67.94C67.94 66 67 67.1 67.35 68.58" stroke="#231F20" stroke-miterlimit="10"/>
<path d="M73.51 75.03L74.83 80.29C75.05 81.17 75.85 81.8 76.76 81.8H84.39C85.3 81.8 86.1 81.18 86.32 80.29L88.23 72.66V60.75C88.23 59.71 87.38 58.86 86.34 58.86H74.81C73.77 58.86 72.92 59.71 72.92 60.75V63.19" stroke="#231F20" stroke-miterlimit="10"/>
<path d="M72.92 66V70.95" stroke="#231F20" stroke-miterlimit="10"/>
<path d="M74.93 61.8299C75.3221 61.8299 75.64 61.512 75.64 61.1199C75.64 60.7278 75.3221 60.4099 74.93 60.4099C74.5379 60.4099 74.22 60.7278 74.22 61.1199C74.22 61.512 74.5379 61.8299 74.93 61.8299Z" stroke="#231F20" stroke-miterlimit="10"/>
<path d="M85.92 61.8299C86.3121 61.8299 86.63 61.512 86.63 61.1199C86.63 60.7278 86.3121 60.4099 85.92 60.4099C85.5279 60.4099 85.21 60.7278 85.21 61.1199C85.21 61.512 85.5279 61.8299 85.92 61.8299Z" stroke="#231F20" stroke-miterlimit="10"/>
</svg>
