<svg width="100" height="100" viewBox="0 0 100 100" fill="none" xmlns="http://www.w3.org/2000/svg">
<path d="M50.15 90C72.2414 90 90.15 72.0914 90.15 50C90.15 27.9086 72.2414 10 50.15 10C28.0586 10 10.15 27.9086 10.15 50C10.15 72.0914 28.0586 90 50.15 90Z" fill="#A1DCEF"/>
<path d="M17.29 26.2501C17.29 26.2501 33.45 71.8501 34 71.9601C34.55 72.0701 90.56 67.7501 91.22 67.8601C91.88 67.9701 84.69 52.0301 84.03 49.7101C83.37 47.3901 77.72 34.4401 76.95 33.1101C76.18 31.7801 75.18 29.1301 75.18 29.1301C75.18 29.1301 48.62 27.6901 47.29 27.6901C45.96 27.6901 26.37 26.0301 24.05 26.2501C21.73 26.4701 17.3 26.2501 17.3 26.2501H17.29Z" stroke="#231F20" stroke-miterlimit="10"/>
<path d="M9.1 20.61C9.1 20.61 46.62 22.82 47.84 23.05C49.06 23.27 73.19 24.05 73.96 24.49C74.73 24.93 78.06 23.72 78.83 26.81C79.6 29.91 90.76 53.93 91.27 55.81C91.78 57.69 97.76 70.42 97.87 71.31C97.98 72.2 99.64 74.41 98.42 76.07C98.42 76.07 80.49 78.28 77.83 78.73C75.17 79.17 38.87 82.27 38.65 82.6C38.43 82.93 29.68 83.6 29.68 83.6C29.68 83.6 28.13 83.49 27.47 82.38C26.81 81.27 22.27 67.99 22.27 67.99C22.27 67.99 12.64 40.21 12.64 39.54C12.64 38.87 8.21 25.59 8.21 25.59C8.21 25.59 6.88 23.32 7.66 21.72C8.43 20.11 9.1 20.61 9.1 20.61V20.61Z" stroke="#231F20" stroke-miterlimit="10"/>
<path d="M9.1 20.61C9.1 20.61 28.8 79.94 29.36 80.6C29.91 81.26 30.36 81.6 34.23 81.37C38.1 81.15 93.56 75.17 94.44 75.28C95.33 75.39 99.09 74.64 98.7 73.57" stroke="#231F20" stroke-miterlimit="10"/>
<path d="M18.41 29.42C18.41 29.42 70.86 31.46 72.41 31.57C73.96 31.68 76.62 31.57 76.62 31.57" stroke="#231F20" stroke-miterlimit="10"/>
<path d="M55.75 66.33C55.75 67.14 55.09 67.55 54.28 67.55C53.47 67.55 52.81 66.64 52.81 65.83C52.81 65.02 53.47 64.61 54.28 64.61C55.09 64.61 55.75 65.52 55.75 66.33Z" stroke="#231F20" stroke-miterlimit="10"/>
<path d="M49.77 66.7801C49.77 67.5901 49.11 68.0001 48.3 68.0001C47.49 68.0001 46.83 67.0901 46.83 66.2801C46.83 65.4701 47.49 65.0601 48.3 65.0601C49.11 65.0601 49.77 65.9701 49.77 66.7801Z" stroke="#231F20" stroke-miterlimit="10"/>
<path d="M61.62 65.84C61.62 66.65 60.96 67.06 60.15 67.06C59.34 67.06 58.68 66.15 58.68 65.34C58.68 64.53 59.34 64.12 60.15 64.12C60.96 64.12 61.62 65.03 61.62 65.84Z" stroke="#231F20" stroke-miterlimit="10"/>
<path d="M67.54 65.3001C67.54 66.1101 66.88 66.5201 66.07 66.5201C65.26 66.5201 64.6 65.6101 64.6 64.8001C64.6 63.9901 65.26 63.5801 66.07 63.5801C66.88 63.5801 67.54 64.4901 67.54 65.3001Z" stroke="#231F20" stroke-miterlimit="10"/>
<path d="M72.84 64.86C72.84 65.67 72.18 66.08 71.37 66.08C70.56 66.08 69.9 65.17 69.9 64.36C69.9 63.55 70.56 63.14 71.37 63.14C72.18 63.14 72.84 64.05 72.84 64.86Z" stroke="#231F20" stroke-miterlimit="10"/>
<path d="M78.38 64.86C78.38 65.67 77.72 66.08 76.91 66.08C76.1 66.08 75.44 65.17 75.44 64.36C75.44 63.55 76.1 63.14 76.91 63.14C77.72 63.14 78.38 64.05 78.38 64.86Z" stroke="#231F20" stroke-miterlimit="10"/>
<path d="M34 71.96L35.11 75.28L79.05 71.96L92.44 70.53L91.23 67.87" stroke="#231F20" stroke-miterlimit="10"/>
</svg>
