<svg width="100" height="100" viewBox="0 0 100 100" fill="none" xmlns="http://www.w3.org/2000/svg">
<path d="M50 90C72.0914 90 90 72.0914 90 50C90 27.9086 72.0914 10 50 10C27.9086 10 10 27.9086 10 50C10 72.0914 27.9086 90 50 90Z" fill="#A1DCEF"/>
<path d="M8.14 54.82C8.14 54.82 -0.630002 70.38 13.8 76.61L46.76 64.58C46.76 64.58 49.87 60.05 49.87 58.07L59.49 54.67L62.32 56.65L69.68 54.1C69.68 54.1 78.45 59.19 78.45 47.87L79.86 47.02C79.86 47.02 82.12 50.13 88.07 47.02C88.07 47.02 91.18 47.59 94.01 44.47C94.01 44.47 99.1 35.98 88.92 32.59C88.92 32.59 82.69 34.85 81.85 35.42C81.85 35.42 78.17 36.83 77.89 39.1L74.78 40.51L69.12 38.81L54.69 43.34L53.56 47.3L47.62 49C47.62 49 43.09 45.89 40.55 45.6L8.14 54.82Z" stroke="black" stroke-miterlimit="10"/>
<path d="M8 54.96C8 54.96 22.71 60.9 13.66 76.46" stroke="black" stroke-miterlimit="10"/>
<path d="M20.32 51.36C20.32 51.36 31.39 58.41 26.91 71.82" stroke="black" stroke-miterlimit="10"/>
<path d="M47.61 49.02C47.61 49.02 51.01 52.42 49.87 58.07" stroke="black" stroke-miterlimit="10"/>
<path d="M53.56 47.32L58.37 46.19C58.93 46.06 59.89 47.27 60.18 47.66C61.14 48.94 62.9 51.57 59.5 54.68" stroke="black" stroke-miterlimit="10"/>
<path d="M80.08 36.36C80.08 36.36 90.58 37.51 84.23 48.36" stroke="black" stroke-miterlimit="10"/>
<path d="M83.27 34.87C83.27 34.87 92.04 36.57 88.08 47.04" stroke="black" stroke-miterlimit="10"/>
<path d="M64.47 55.91L64.02 47.32L79.02 42.79L78.17 39.96L77.89 39.11" stroke="black" stroke-miterlimit="10"/>
<path d="M64.02 47.32L61.2 44.21L54.69 43.36" stroke="black" stroke-miterlimit="10"/>
<path d="M34.31 54.96L36.86 54.11L38.28 58.64L35.73 59.49L34.31 54.96Z" stroke="black" stroke-miterlimit="10"/>
<path d="M26.03 57.81L34.31 54.96L35.73 59.49L27.63 62.19" stroke="black" stroke-miterlimit="10"/>
<path d="M74.25 55.1C76.415 55.1 78.17 53.3091 78.17 51.1C78.17 48.8908 76.415 47.1 74.25 47.1C72.0851 47.1 70.33 48.8908 70.33 51.1C70.33 53.3091 72.0851 55.1 74.25 55.1Z" stroke="black" stroke-miterlimit="10"/>
<path d="M74.78 40.5299L78.95 42.7899L79.8 47.0399" stroke="black" stroke-miterlimit="10"/>
</svg>
