<svg width="100" height="100" viewBox="0 0 100 100" fill="none" xmlns="http://www.w3.org/2000/svg">
<path d="M50 90C72.0914 90 90 72.0914 90 50C90 27.9086 72.0914 10 50 10C27.9086 10 10 27.9086 10 50C10 72.0914 27.9086 90 50 90Z" fill="#A1DCEF"/>
<path d="M29.3574 21.4665V20.5461L25.4014 18.1862C25.4014 18.1862 22.8458 14.3576 15.9816 18.5779C15.9816 18.5779 0.970667 19.8508 1.00004 27.185C1.02942 34.5093 16.1481 33.8924 16.1481 33.8924L20.6328 36.311L21.093 41.3147L27.5361 45.7308L51.7417 61.3685L52.3292 60.8789L55.7172 64.2669" stroke="#231F20" stroke-linecap="round" stroke-linejoin="round"/>
<path d="M20.623 36.3208V30.5632L23.2766 25.0699L36.8677 18.1569L42.312 21.349C42.312 21.349 44.4173 20.6636 47.0219 21.9855C49.6266 23.3074 67.487 34.5681 68.0353 35.2535C68.9754 36.4383 66.733 41.3049 61.5139 39.7578C55.394 37.9463 38.787 25.9512 38.787 25.9512C38.787 25.9512 37.7098 22.8863 40.6474 22.0247" stroke="#231F20" stroke-linecap="round" stroke-linejoin="round"/>
<path d="M26.6157 23.3661L32.4418 27.0185L34.2533 26.0099L59.3989 41.9511L54.3855 45.1726L52.0061 50.5582L51.7319 61.3782" stroke="#231F20" stroke-linecap="round" stroke-linejoin="round"/>
<path d="M35.5752 26.8521L29.142 30.3184L27.399 34.617L27.5263 45.7406" stroke="#231F20" stroke-linecap="round" stroke-linejoin="round"/>
<path d="M27.399 40.874L51.8396 57.1384" stroke="#231F20" stroke-linecap="round" stroke-linejoin="round"/>
<path d="M44.1725 26.6953C45.9247 26.6953 47.3451 25.7001 47.3451 24.4725C47.3451 23.2449 45.9247 22.2498 44.1725 22.2498C42.4204 22.2498 40.9999 23.2449 40.9999 24.4725C40.9999 25.7001 42.4204 26.6953 44.1725 26.6953Z" stroke="#231F20" stroke-linecap="round" stroke-linejoin="round"/>
<path d="M50.361 30.4261C52.1132 30.4261 53.5336 29.4309 53.5336 28.2034C53.5336 26.9758 52.1132 25.9806 50.361 25.9806C48.6088 25.9806 47.1884 26.9758 47.1884 28.2034C47.1884 29.4309 48.6088 30.4261 50.361 30.4261Z" stroke="#231F20" stroke-linecap="round" stroke-linejoin="round"/>
<path d="M56.5397 34.1567C58.2918 34.1567 59.7122 33.1615 59.7122 31.9339C59.7122 30.7063 58.2918 29.7112 56.5397 29.7112C54.7875 29.7112 53.3671 30.7063 53.3671 31.9339C53.3671 33.1615 54.7875 34.1567 56.5397 34.1567Z" stroke="#231F20" stroke-linecap="round" stroke-linejoin="round"/>
<path d="M62.7282 37.8973C64.4803 37.8973 65.9008 36.9021 65.9008 35.6745C65.9008 34.4469 64.4803 33.4518 62.7282 33.4518C60.976 33.4518 59.5556 34.4469 59.5556 35.6745C59.5556 36.9021 60.976 37.8973 62.7282 37.8973Z" stroke="#231F20" stroke-linecap="round" stroke-linejoin="round"/>
<path d="M68.1725 36.5459L78.2287 42.3721L81.6951 49.1481L86.6302 52.2031L88.0108 52.5067L97.7342 58.7833" stroke="#231F20" stroke-linecap="round" stroke-linejoin="round"/>
<path d="M95.1393 72.5607C91.1442 78.4163 85.7685 81.6965 83.1247 79.8948C82.8799 79.7382 82.684 79.5325 82.5078 79.3073C80.7061 76.9769 81.9398 71.3563 85.5726 66.0393C88.706 61.4469 92.6913 58.4408 95.5408 58.2352C96.3241 58.1764 97.0292 58.3233 97.5971 58.7052C100.241 60.5167 99.1442 66.7247 95.1491 72.5705L95.1393 72.5607Z" stroke="#231F20" stroke-linecap="round" stroke-linejoin="round"/>
<path d="M92.4661 71.503C89.3425 76.0954 85.3474 79.1015 82.498 79.2974C80.6963 76.9669 81.9301 71.3464 85.5628 66.0294C88.6963 61.437 92.6816 58.4308 95.531 58.2252C97.3327 60.5557 96.0989 66.1762 92.4661 71.5128V71.503Z" stroke="#231F20" stroke-linecap="round" stroke-linejoin="round"/>
<path d="M83.1246 79.885L79.4625 82C79.4625 82 76.0157 81.6377 76.3291 79.2681C76.6424 76.8984 77.0047 76.8005 77.0047 76.8005L74.449 76.2228" stroke="#231F20" stroke-linecap="round" stroke-linejoin="round"/>
<path d="M73.372 78.612C73.137 78.9351 72.853 79.2583 72.5494 79.5325C69.8567 81.9413 65.3328 81.5006 61.4454 78.7589C60.5054 78.093 59.6144 77.3097 58.782 76.3795C56.6082 73.9707 55.3549 71.1506 55.0905 68.5753C54.8163 66.0882 55.4822 63.8262 57.1272 62.3477C57.4406 62.0637 57.7931 61.8189 58.1554 61.6133C56.8922 63.3367 56.5789 65.7455 57.1566 68.2718C57.656 70.4554 58.8212 72.7271 60.6131 74.7442C61.2888 75.4884 62.0134 76.164 62.7576 76.7516C66.312 79.4835 70.5127 80.2473 73.3622 78.612H73.372Z" stroke="#231F20" stroke-linecap="round" stroke-linejoin="round"/>
<path d="M73.372 78.612C70.5127 80.2473 66.312 79.4737 62.7673 76.7516C62.0232 76.1641 61.2888 75.4884 60.6229 74.7442C58.831 72.7369 57.6658 70.4554 57.1664 68.2718C56.5887 65.7455 56.902 63.3465 58.1651 61.6133C61.6413 59.6451 67.066 61.202 70.9142 65.5007C74.7722 69.7993 75.7416 75.3709 73.3818 78.612H73.372Z" stroke="#231F20" stroke-linecap="round" stroke-linejoin="round"/>
<path d="M73.372 78.612C70.5127 80.2473 66.312 79.4737 62.7673 76.7516C62.0232 76.1641 61.2888 75.4884 60.6229 74.7442C58.831 72.7369 57.6658 70.4554 57.1664 68.2718C56.5887 65.7455 56.902 63.3465 58.1651 61.6133C61.6413 59.6451 67.066 61.202 70.9142 65.5007C74.7722 69.7993 75.7416 75.3709 73.3818 78.612H73.372Z" stroke="#231F20" stroke-linecap="round" stroke-linejoin="round"/>
<path d="M63.2177 74.4308C63.2177 75.2534 63.0611 76.0367 62.7673 76.7515C62.0231 76.164 61.2887 75.4884 60.6229 74.7442C58.831 72.7368 57.6657 70.4553 57.1664 68.2717C60.5152 68.3207 63.2275 71.0722 63.2275 74.4308H63.2177Z" stroke="#231F20" stroke-linecap="round" stroke-linejoin="round"/>
<path d="M68.9754 43.0479C68.9754 44.2327 67.2324 45.2021 65.0684 45.2021C62.9044 45.2021 61.1615 44.2425 61.1615 43.0479C61.1615 41.8533 62.9044 40.8937 65.0684 40.8937C67.2324 40.8937 68.9754 41.8533 68.9754 43.0479Z" stroke="#231F20" stroke-linecap="round" stroke-linejoin="round"/>
<path d="M90.5567 54.1519C90.5567 54.1519 80.5788 54.1127 76.2312 70.1224" stroke="#231F20" stroke-linecap="round" stroke-linejoin="round"/>
<path d="M59.1345 61.1727L58.9387 53.0846L60.1921 50.4799L64.7159 47.6501C64.7159 47.6501 60.4173 45.3196 60.5054 44.1544C60.5935 42.9891 61.5335 42.1274 61.5335 42.1274" stroke="#231F20" stroke-linecap="round" stroke-linejoin="round"/>
<path d="M81.695 49.1482L78.3462 48.6978L77.7587 46.7296C77.7587 46.7296 69.7587 40.4628 66.2434 40.9034" stroke="#231F20" stroke-linecap="round" stroke-linejoin="round"/>
<path d="M64.7159 47.6599L71.5311 53.4861C71.5311 53.4861 67.5458 56.737 66.6449 62.1225" stroke="#231F20" stroke-linecap="round" stroke-linejoin="round"/>
<path d="M71.5311 53.4958L78.3364 48.6978" stroke="#231F20" stroke-linecap="round" stroke-linejoin="round"/>
<path d="M86.6302 52.2032C86.6302 52.2032 78.9044 51.4297 73.9595 63.3268" stroke="#231F20" stroke-linecap="round" stroke-linejoin="round"/>
<path d="M78.6008 69.2902C78.6008 69.2902 76.6523 73.8532 77.0243 74.3232C77.3964 74.7932 78.7967 77.0943 81.9595 73.9609" stroke="#231F20" stroke-linecap="round" stroke-linejoin="round"/>
<path d="M13.2497 33.8532C13.2497 33.8532 8.50063 27.2339 15.9816 18.5876" stroke="#231F20" stroke-linecap="round" stroke-linejoin="round"/>
<path d="M16.1481 33.9022C16.1481 33.9022 11.0955 24.6685 19.9376 19.1556" stroke="#231F20" stroke-linecap="round" stroke-linejoin="round"/>
</svg>
