<svg width="100" height="100" viewBox="0 0 100 100" fill="none" xmlns="http://www.w3.org/2000/svg">
<path d="M50 90C72.0914 90 90 72.0914 90 50C90 27.9086 72.0914 10 50 10C27.9086 10 10 27.9086 10 50C10 72.0914 27.9086 90 50 90Z" fill="#A1DCEF"/>
<path d="M42.17 61.1C51.92 55.64 57.98 51.5 61.12 49.18C61.63 48.8 62.04 48.49 62.68 48.01C65.74 45.7 67.79 43.9 70.33 41.7C70.77 41.32 71.45 40.73 72.3 39.91C73.51 38.75 74.19 37.97 74.4 37.73C75.48 36.48 76.03 35.84 76.29 34.93C76.44 34.41 76.66 33.65 76.31 32.83C75.92 31.92 75.07 31.51 74.68 31.36C74.59 31.32 74.5 31.3 74.39 31.3C73.79 31.28 73.01 31.32 72.12 31.54C70.87 31.85 69.95 32.38 69.37 32.78C65.3 35.27 60.86 38.18 56.17 41.57C49.82 46.16 44.78 50.34 41.26 53.42C36.8 57.31 32.96 61 29.74 64.29C29.65 64.38 29.61 64.5 29.62 64.63L29.79 66.32C29.32 66.77 28.45 67.68 28.54 67.8C28.63 67.92 29.7 67.28 30.25 66.97C30.83 67.16 31.41 67.36 31.98 67.55C32.12 67.6 32.27 67.57 32.38 67.48C32.86 67.09 33.34 66.71 33.83 66.32" stroke="#1D1C1A" stroke-linejoin="round"/>
<path d="M74.32 31.45C74.34 31.6 74.45 32.15 74.96 32.57C75.49 33.02 76.09 33.01 76.23 33.01" stroke="#1D1C1A" stroke-linejoin="round"/>
<path d="M68.2 35.5999C68.4265 35.5999 68.61 35.4163 68.61 35.1899C68.61 34.9635 68.4265 34.7799 68.2 34.7799C67.9736 34.7799 67.79 34.9635 67.79 35.1899C67.79 35.4163 67.9736 35.5999 68.2 35.5999Z" stroke="#1D1C1A" stroke-linejoin="round"/>
<path d="M69.68 32.6699C69.8 33.2999 70.13 34.5699 71.15 35.8099C72.13 37.0099 73.25 37.5899 73.84 37.8499" stroke="#1D1C1A" stroke-linejoin="round"/>
<path d="M21.45 54.11L23.06 53.22C26.24 55.79 29.43 58.37 32.61 60.94" stroke="#1D1C1A" stroke-linejoin="round"/>
<path d="M37.92 66.3199C38.75 67.6599 40.67 70.0799 41.5 71.4099" stroke="#1D1C1A" stroke-linejoin="round"/>
<path d="M18.13 22.7C22.33 27.13 26.53 31.56 30.73 35.99" stroke="#1D1C1A" stroke-linejoin="round"/>
<path d="M63.85 68.0299C68.31 72.1299 72.77 76.2399 77.23 80.3399" stroke="#1D1C1A" stroke-linejoin="round"/>
<path d="M26.35 63.47C28.82 66.04 30.42 67.7 32.9 70.27" stroke="#1D1C1A" stroke-linejoin="round"/>
<path d="M36.4 57.3499C36.7203 57.3499 36.98 57.0903 36.98 56.7699C36.98 56.4496 36.7203 56.1899 36.4 56.1899C36.0797 56.1899 35.82 56.4496 35.82 56.7699C35.82 57.0903 36.0797 57.3499 36.4 57.3499Z" stroke="#1D1C1A" stroke-linejoin="round"/>
<path d="M35.75 67.15L40.21 73.1199L40.58 72.7599L43.68 69.81C44.09 69.5 44.33 69.01 44.33 68.5L42.99 60.95" stroke="#1D1C1A" stroke-linejoin="round"/>
<path d="M55.65 41.75C52.91 38.81 48.38 34.08 43.08 28.92C40.03 25.95 32.79 19.48 32.79 19.48C28.95 16.99 25.63 15.58 23.31 14.77C22.43 14.46 21.03 14.18 19.91 13.98C19.21 13.85 18.7 13.94 18.13 14.09C17.35 14.3 16.6 14.61 15.88 14.99L14.88 15.52C13.6 16.47 12.63 17.55 12.72 19.17C12.76 19.86 12.98 20.52 13.35 21.09C13.89 21.91 14.7 23.1 15.31 23.78C18.76 27.62 22.52 31.17 26.1 34.88C29.85 38.76 33.6 42.64 37.35 46.53C38.92 48.16 40.5 49.79 42.08 51.42C42.13 51.47 42.71 52.07 42.76 52.12" stroke="#1D1C1A" stroke-linejoin="round"/>
<path d="M63.27 48C71.42 55.74 80.74 66.29 81.05 66.76C81.09 66.83 83.08 69.9 83.33 70.28C84.04 71.35 84.86 72.73 86 75.43C86.6 76.85 86.72 78.1 86.23 79.71C85.48 82.2 83.08 86.51 80.72 86.37C78.43 86.23 76.91 84.97 75.18 83.57C73.19 81.96 69.76 78.84 67.95 77.02C64.47 73.54 61.41 70.44 57.66 66.93C56.43 65.77 55.45 64.61 54.21 63.47C52.79 62.16 50.32 59.61 48.92 58.3C48.77 58.16 49.21 58.57 49.21 58.57C48.97 58.35 48.73 58.12 48.49 57.9" stroke="#1D1C1A" stroke-linejoin="round"/>
<path d="M38.91 55.31L29.85 51.82L25.41 50.31C24.94 50.15 24.42 50.19 23.98 50.43L22.08 51.47L19.69 52.94L31.21 62.54" stroke="#1D1C1A" stroke-linejoin="round"/>
<path d="M32.36 65.48C32.36 65.48 35.78 62.51 37.62 61.23C38.97 60.29 40.43 59.19 41.94 58.52C42.14 58.43 43.1 58.13 43.1 58.13C43.1 58.13 42.97 59.5 42.87 59.73C42.22 61.3 41.13 62.67 39.97 63.89C39.29 64.61 38.62 65.34 37.86 65.97C37.48 66.28 37.08 66.57 36.66 66.81C36.11 67.11 35.51 66.97 35.18 66.93C34.59 66.87 34.13 66.69 33.83 66.55C33.57 66.42 33.28 66.25 32.98 66.01C32.74 65.83 32.54 65.64 32.37 65.47L32.36 65.48Z" stroke="#1D1C1A" stroke-linejoin="round"/>
<path d="M67.65 38.76L58.35 45.93L58.21 47.4H59.71C60.11 47.41 60.5 47.28 60.82 47.03L66.86 42.35C67.35 41.97 67.7 41.56 68.16 41.14C69.73 39.7 68.93 38.43 68.59 38.12L67.65 38.75V38.76Z" stroke="#1D1C1A" stroke-linejoin="round"/>
</svg>
