<svg width="100" height="100" viewBox="0 0 100 100" fill="none" xmlns="http://www.w3.org/2000/svg">
<path d="M50 90C72.0914 90 90 72.0914 90 50C90 27.9086 72.0914 10 50 10C27.9086 10 10 27.9086 10 50C10 72.0914 27.9086 90 50 90Z" fill="#A1DCEF"/>
<path d="M65.32 25.75L53.92 83.98C53.29 87.21 50.16 89.31 46.93 88.68L28.41 85.05C25.18 84.42 23.08 81.29 23.71 78.06L35.11 19.84C36.74 11.5 44.83 6.06002 53.17 7.69002C57.79 8.59002 61.52 11.48 63.66 15.29C64.99 17.66 65.69 20.4 65.6 23.24C65.58 24.07 65.49 24.91 65.32 25.75Z" stroke="#231F20" stroke-miterlimit="10"/>
<path d="M53.41 29.38C58.6015 29.38 62.81 25.1715 62.81 19.98C62.81 14.7885 58.6015 10.58 53.41 10.58C48.2185 10.58 44.01 14.7885 44.01 19.98C44.01 25.1715 48.2185 29.38 53.41 29.38Z" stroke="#231F20" stroke-miterlimit="10"/>
<path d="M53.41 22.17C54.6195 22.17 55.6 21.1895 55.6 19.98C55.6 18.7705 54.6195 17.79 53.41 17.79C52.2005 17.79 51.22 18.7705 51.22 19.98C51.22 21.1895 52.2005 22.17 53.41 22.17Z" stroke="#231F20" stroke-miterlimit="10"/>
<path d="M54.45 18.26L54.77 16.62L56.77 15.08C56.92 14.97 57.02 14.81 57.05 14.62C57.13 14.21 56.86 13.81 56.45 13.73C55.4 13.1 54.16 12.86 52.95 13.05C52.54 12.97 52.14 13.24 52.06 13.65C52.02 13.83 52.06 14.02 52.15 14.18L53.42 16.36L53.1 18" stroke="#231F20" stroke-miterlimit="10"/>
<path d="M55.39 20.32L57.03 20.02L59.2 21.32C59.36 21.41 59.55 21.45 59.73 21.42C60.14 21.34 60.42 20.95 60.34 20.54C60.54 19.33 60.31 18.09 59.7 17.04C59.62 16.63 59.23 16.35 58.82 16.43C58.64 16.46 58.48 16.56 58.36 16.71L56.79 18.69L55.15 18.99" stroke="#231F20" stroke-miterlimit="10"/>
<path d="M53.82 21.95L54.7 23.37L54.28 25.86C54.25 26.04 54.28 26.23 54.38 26.39C54.6 26.75 55.07 26.86 55.43 26.64C56.63 26.39 57.7 25.72 58.46 24.77C58.82 24.55 58.93 24.08 58.71 23.72C58.61 23.56 58.46 23.45 58.29 23.39L55.88 22.65L55 21.23" stroke="#231F20" stroke-miterlimit="10"/>
<path d="M51.73 21.08L50.73 22.42L48.26 22.94C48.08 22.98 47.92 23.08 47.81 23.23C47.56 23.57 47.63 24.04 47.96 24.29C48.63 25.31 49.64 26.07 50.81 26.42C51.15 26.67 51.62 26.6 51.87 26.27C51.98 26.12 52.03 25.94 52.02 25.76L51.83 23.24L52.83 21.9" stroke="#231F20" stroke-miterlimit="10"/>
<path d="M51.78 18.81L50.17 18.37L48.78 16.26C48.68 16.11 48.52 15.99 48.35 15.95C47.94 15.84 47.53 16.08 47.41 16.48C46.7 17.48 46.37 18.69 46.46 19.91C46.35 20.32 46.59 20.73 46.99 20.85C47.17 20.9 47.36 20.88 47.52 20.8L49.79 19.7L51.4 20.14" stroke="#231F20" stroke-miterlimit="10"/>
<path d="M44.51 27.6L43.54 32.54L34.89 30.85L37.33 18.41C37.54 17.33 38.59 16.63 39.67 16.84L42.01 17.3C41.97 17.44 41.94 17.58 41.91 17.73C41.19 21.38 42.26 24.98 44.51 27.6V27.6Z" stroke="#231F20" stroke-miterlimit="10"/>
<path d="M40.5328 25.0184L37.8537 24.4937L36.5469 31.167L39.226 31.6916L40.5328 25.0184Z" stroke="#231F20" stroke-miterlimit="10"/>
<path d="M34.56 32.59L30.27 54.49L56.75 59.67L61.2 36.94L46.43 29.89L45.55 34.38L34.56 32.59Z" stroke="#231F20" stroke-miterlimit="10"/>
<path d="M57.1823 42.4037L36.3775 38.3295L33.8599 51.1853L54.6647 55.2595L57.1823 42.4037Z" stroke="#231F20" stroke-miterlimit="10"/>
<path d="M44.17 70.49C43.96 71.55 42.21 72.09 40.24 71.7C38.28 71.32 36.85 70.15 37.06 69.1C37.27 68.05 39.02 67.52 40.98 67.9C42.94 68.28 44.37 69.45 44.16 70.49H44.17Z" stroke="#231F20" stroke-miterlimit="10"/>
<path d="M33.6 72.16C33.08 72.43 32.43 72.22 32.17 71.7C31.01 69.34 31.55 66.6 33.51 64.86C33.95 64.47 34.63 64.52 35 64.97C35.37 65.41 35.31 66.04 34.89 66.43C33.65 67.59 33.32 69.25 34.04 70.79C34.28 71.31 34.1 71.92 33.59 72.18L33.6 72.16Z" stroke="#231F20" stroke-miterlimit="10"/>
<path d="M46.23 74.63C46.61 75.08 47.29 75.13 47.73 74.74C49.69 72.99 50.23 70.25 49.07 67.9C48.81 67.38 48.16 67.17 47.65 67.44C47.15 67.7 46.96 68.31 47.2 68.83C47.91 70.37 47.59 72.03 46.35 73.19C45.93 73.58 45.87 74.21 46.24 74.64L46.23 74.63Z" stroke="#231F20" stroke-miterlimit="10"/>
<path d="M45.43 66.15H45.42C45.1 66.32 44.73 66.3 44.41 66.12C42.68 65.14 40.47 64.7 38.49 64.96C38.14 65.01 37.78 64.89 37.55 64.62C37 63.99 37.38 63 38.21 62.89C39.43 62.73 40.68 62.74 41.95 62.99C43.24 63.23 44.41 63.7 45.5 64.32C46.21 64.72 46.16 65.77 45.43 66.14V66.15Z" stroke="#231F20" stroke-miterlimit="10"/>
<path d="M43.7 74.98H43.69C43.46 74.7 43.1 74.58 42.74 74.62C40.76 74.88 38.56 74.44 36.82 73.46C36.51 73.28 36.14 73.26 35.82 73.42C35.07 73.8 35.05 74.85 35.78 75.27C36.85 75.88 38.01 76.34 39.28 76.58C40.56 76.84 41.83 76.85 43.07 76.69C43.88 76.58 44.22 75.6 43.69 74.98H43.7Z" stroke="#231F20" stroke-miterlimit="10"/>
<path d="M33.54 61.35L35.45 60.61C36.12 60.35 36.49 59.63 36.31 58.93C36.17 58.4 35.75 58 35.21 57.9L33.16 57.5C32.22 57.32 31.36 58.11 31.48 59.06L31.62 60.2C31.73 61.12 32.68 61.69 33.54 61.35Z" stroke="#231F20" stroke-miterlimit="10"/>
<path d="M50.36 64.64L48.87 63.23C48.35 62.74 48.28 61.93 48.71 61.35C49.04 60.91 49.58 60.7 50.12 60.81L52.17 61.21C53.11 61.39 53.6 62.45 53.14 63.29L52.58 64.29C52.13 65.1 51.04 65.27 50.37 64.63L50.36 64.64Z" stroke="#231F20" stroke-miterlimit="10"/>
<path d="M29.59 80.19C30.8879 80.19 31.94 79.1379 31.94 77.84C31.94 76.5421 30.8879 75.49 29.59 75.49C28.2922 75.49 27.24 76.5421 27.24 77.84C27.24 79.1379 28.2922 80.19 29.59 80.19Z" stroke="#231F20" stroke-miterlimit="10"/>
<path d="M87.83 51.2C86.22 53.08 84.01 54.13 81.72 54.31C79.43 54.47 77.09 53.78 75.21 52.16L70.44 48.18C68.96 47.23 67.2 46.93 65.55 47.25L61.74 43.99L62.79 38.6L76.28 50.18C77.2 50.97 78.26 51.46 79.37 51.68C81.67 52.13 84.14 51.36 85.78 49.45C88.2 46.63 87.88 42.37 85.05 39.94L65.57 23.23C65.66 20.39 64.96 17.65 63.63 15.28L80.52 29.78C80.45 31.46 81.02 33.15 82.19 34.46L86.85 38.57C90.6 41.78 91.03 47.44 87.8 51.2H87.83Z" stroke="#231F20" stroke-miterlimit="10"/>
<path d="M85.8 49.4601C84.16 51.3701 81.69 52.1401 79.39 51.6901C78.28 51.4701 77.22 50.9801 76.3 50.1901L62.81 38.6101L65.33 25.7501C65.49 24.9101 65.59 24.0701 65.61 23.2401L85.09 39.9501C87.92 42.3801 88.24 46.6401 85.82 49.4601H85.8Z" stroke="#231F20" stroke-miterlimit="10"/>
<path d="M73 50.32C73 50.32 75.11 76.89 55.04 78.25" stroke="#231F20" stroke-miterlimit="10"/>
<path d="M77.36 53.54C77.36 53.54 75.95 83.89 53.42 85.47" stroke="#231F20" stroke-miterlimit="10"/>
</svg>
