<?xml version="1.0" encoding="UTF-8"?> <svg xmlns="http://www.w3.org/2000/svg" width="24" height="24" viewBox="0 0 24 24" fill="none"><path d="M23.6408 14.9029C22.0379 21.3315 15.5261 25.2438 9.09602 23.6407C2.66859 22.038 -1.24421 15.5266 0.359461 9.09838C1.96163 2.66907 8.47346 -1.24364 14.9016 0.359095C21.3313 1.96183 25.2437 8.47401 23.6408 14.9029V14.9029Z" fill="#5B7742"></path><path d="M6.348 14.984C6.348 15.376 5.984 15.516 5.69 15.516C5.382 15.516 5.018 15.376 5.018 14.984V9.00601C5.018 8.60001 5.382 8.47401 5.69 8.47401C5.984 8.47401 6.348 8.60001 6.348 9.00601V10.588H8.252V8.89401C8.252 7.35401 6.866 6.80801 5.69 6.80801C4.486 6.80801 3.1 7.35401 3.1 8.89401V15.082C3.1 16.608 4.486 17.154 5.69 17.154C6.866 17.154 8.252 16.608 8.252 15.082V13.402H6.348V14.984Z" fill="white"></path><path d="M14.9887 17V16.748L12.7487 6.97601H10.9287L8.70273 16.748V17H10.5507L10.8867 15.138H12.7907C12.9167 15.768 13.0287 16.384 13.1407 17H14.9887ZM12.4967 13.514H11.1807L11.8387 9.87401C12.0487 11.092 12.2727 12.31 12.4967 13.514Z" fill="white"></path><path d="M19.0062 14.62C19.0062 15.026 18.7962 15.362 18.3202 15.362H17.6622V8.62801H18.3202C18.7962 8.62801 19.0062 8.95001 19.0062 9.37001V14.62ZM18.5862 17C20.0842 17 20.9102 15.95 20.9102 14.732V9.24401C20.9102 8.02601 20.0842 6.97601 18.5862 6.97601H15.7582V17H18.5862Z" fill="white"></path></svg> 